<?xml version="1.0" encoding="utf-8" ?>
<svg baseProfile="full" preserveAspectRatio="xMidYMid meet" version="1.1" viewBox="0,0,33,12" xmlns="http://www.w3.org/2000/svg" xmlns:ev="http://www.w3.org/2001/xml-events" xmlns:xlink="http://www.w3.org/1999/xlink"><defs><style type="text/css"><![CDATA[
            * {
                stroke: black;
                stroke-width: 0.1;
            }
        ]]></style></defs><g transform="translate(1,1)"><rect height="0.104" width="0.104" x="-0.052" y="-0.052" /><rect height="0.104" width="0.104" x="-0.052" y="0.948" /><rect height="0.104" width="0.104" x="-0.052" y="1.948" /><rect height="0.104" width="0.104" x="-0.052" y="2.948" /><rect height="0.104" width="0.104" x="-0.052" y="3.948" /><rect height="0.104" width="0.104" x="-0.052" y="4.948" /><rect height="0.104" width="0.104" x="-0.052" y="5.948" /><rect height="0.104" width="0.104" x="-0.052" y="6.948" /><rect height="0.104" width="0.104" x="-0.052" y="7.948" /><rect height="0.104" width="0.104" x="-0.052" y="8.948" /><rect height="0.104" width="0.104" x="-0.052" y="9.948" /><rect height="0.104" width="0.104" x="0.948" y="-0.052" /><rect height="0.18" width="0.18" x="0.91" y="0.91" /><rect height="0.232" width="0.232" x="0.884" y="1.884" /><rect height="0.275" width="0.275" x="0.8625" y="2.8625" /><rect height="0.312" width="0.312" x="0.844" y="3.844" /><rect height="0.345" width="0.345" x="0.8275" y="4.8275" /><rect height="0.375" width="0.375" x="0.8125" y="5.8125" /><rect height="0.402" width="0.402" x="0.7989999999999999" y="6.799" /><rect height="0.428" width="0.428" x="0.786" y="7.786" /><rect height="0.453" width="0.453" x="0.7735" y="8.7735" /><rect height="0.476" width="0.476" x="0.762" y="9.762" /></g><g transform="translate(4,1)"><rect height="0.18" width="0.18" x="-0.09" y="-0.09" /><rect height="0.18" width="0.18" x="-0.09" y="0.91" /><rect height="0.18" width="0.18" x="-0.09" y="1.91" /><rect height="0.18" width="0.18" x="-0.09" y="2.91" /><rect height="0.18" width="0.18" x="-0.09" y="3.91" /><rect height="0.18" width="0.18" x="-0.09" y="4.91" /><rect height="0.18" width="0.18" x="-0.09" y="5.91" /><rect height="0.18" width="0.18" x="-0.09" y="6.91" /><rect height="0.18" width="0.18" x="-0.09" y="7.91" /><rect height="0.18" width="0.18" x="-0.09" y="8.91" /><rect height="0.18" width="0.18" x="-0.09" y="9.91" /><rect height="0.104" width="0.104" x="0.948" y="-0.052" /><rect height="0.18" width="0.18" x="0.91" y="0.91" /><rect height="0.232" width="0.232" x="0.884" y="1.884" /><rect height="0.275" width="0.275" x="0.8625" y="2.8625" /><rect height="0.312" width="0.312" x="0.844" y="3.844" /><rect height="0.345" width="0.345" x="0.8275" y="4.8275" /><rect height="0.375" width="0.375" x="0.8125" y="5.8125" /><rect height="0.402" width="0.402" x="0.7989999999999999" y="6.799" /><rect height="0.428" width="0.428" x="0.786" y="7.786" /><rect height="0.453" width="0.453" x="0.7735" y="8.7735" /><rect height="0.476" width="0.476" x="0.762" y="9.762" /></g><g transform="translate(7,1)"><rect height="0.232" width="0.232" x="-0.116" y="-0.116" /><rect height="0.232" width="0.232" x="-0.116" y="0.884" /><rect height="0.232" width="0.232" x="-0.116" y="1.884" /><rect height="0.232" width="0.232" x="-0.116" y="2.884" /><rect height="0.232" width="0.232" x="-0.116" y="3.884" /><rect height="0.232" width="0.232" x="-0.116" y="4.884" /><rect height="0.232" width="0.232" x="-0.116" y="5.884" /><rect height="0.232" width="0.232" x="-0.116" y="6.884" /><rect height="0.232" width="0.232" x="-0.116" y="7.884" /><rect height="0.232" width="0.232" x="-0.116" y="8.884" /><rect height="0.232" width="0.232" x="-0.116" y="9.884" /><rect height="0.104" width="0.104" x="0.948" y="-0.052" /><rect height="0.18" width="0.18" x="0.91" y="0.91" /><rect height="0.232" width="0.232" x="0.884" y="1.884" /><rect height="0.275" width="0.275" x="0.8625" y="2.8625" /><rect height="0.312" width="0.312" x="0.844" y="3.844" /><rect height="0.345" width="0.345" x="0.8275" y="4.8275" /><rect height="0.375" width="0.375" x="0.8125" y="5.8125" /><rect height="0.402" width="0.402" x="0.7989999999999999" y="6.799" /><rect height="0.428" width="0.428" x="0.786" y="7.786" /><rect height="0.453" width="0.453" x="0.7735" y="8.7735" /><rect height="0.476" width="0.476" x="0.762" y="9.762" /></g><g transform="translate(10,1)"><rect height="0.275" width="0.275" x="-0.1375" y="-0.1375" /><rect height="0.275" width="0.275" x="-0.1375" y="0.8625" /><rect height="0.275" width="0.275" x="-0.1375" y="1.8625" /><rect height="0.275" width="0.275" x="-0.1375" y="2.8625" /><rect height="0.275" width="0.275" x="-0.1375" y="3.8625" /><rect height="0.275" width="0.275" x="-0.1375" y="4.8625" /><rect height="0.275" width="0.275" x="-0.1375" y="5.8625" /><rect height="0.275" width="0.275" x="-0.1375" y="6.8625" /><rect height="0.275" width="0.275" x="-0.1375" y="7.8625" /><rect height="0.275" width="0.275" x="-0.1375" y="8.8625" /><rect height="0.275" width="0.275" x="-0.1375" y="9.8625" /><rect height="0.104" width="0.104" x="0.948" y="-0.052" /><rect height="0.18" width="0.18" x="0.91" y="0.91" /><rect height="0.232" width="0.232" x="0.884" y="1.884" /><rect height="0.275" width="0.275" x="0.8625" y="2.8625" /><rect height="0.312" width="0.312" x="0.844" y="3.844" /><rect height="0.345" width="0.345" x="0.8275" y="4.8275" /><rect height="0.375" width="0.375" x="0.8125" y="5.8125" /><rect height="0.402" width="0.402" x="0.7989999999999999" y="6.799" /><rect height="0.428" width="0.428" x="0.786" y="7.786" /><rect height="0.453" width="0.453" x="0.7735" y="8.7735" /><rect height="0.476" width="0.476" x="0.762" y="9.762" /></g><g transform="translate(13,1)"><rect height="0.312" width="0.312" x="-0.156" y="-0.156" /><rect height="0.312" width="0.312" x="-0.156" y="0.844" /><rect height="0.312" width="0.312" x="-0.156" y="1.844" /><rect height="0.312" width="0.312" x="-0.156" y="2.844" /><rect height="0.312" width="0.312" x="-0.156" y="3.844" /><rect height="0.312" width="0.312" x="-0.156" y="4.844" /><rect height="0.312" width="0.312" x="-0.156" y="5.844" /><rect height="0.312" width="0.312" x="-0.156" y="6.844" /><rect height="0.312" width="0.312" x="-0.156" y="7.844" /><rect height="0.312" width="0.312" x="-0.156" y="8.844" /><rect height="0.312" width="0.312" x="-0.156" y="9.844" /><rect height="0.104" width="0.104" x="0.948" y="-0.052" /><rect height="0.18" width="0.18" x="0.91" y="0.91" /><rect height="0.232" width="0.232" x="0.884" y="1.884" /><rect height="0.275" width="0.275" x="0.8625" y="2.8625" /><rect height="0.312" width="0.312" x="0.844" y="3.844" /><rect height="0.345" width="0.345" x="0.8275" y="4.8275" /><rect height="0.375" width="0.375" x="0.8125" y="5.8125" /><rect height="0.402" width="0.402" x="0.7989999999999999" y="6.799" /><rect height="0.428" width="0.428" x="0.786" y="7.786" /><rect height="0.453" width="0.453" x="0.7735" y="8.7735" /><rect height="0.476" width="0.476" x="0.762" y="9.762" /></g><g transform="translate(16,1)"><rect height="0.345" width="0.345" x="-0.1725" y="-0.1725" /><rect height="0.345" width="0.345" x="-0.1725" y="0.8275" /><rect height="0.345" width="0.345" x="-0.1725" y="1.8275000000000001" /><rect height="0.345" width="0.345" x="-0.1725" y="2.8275" /><rect height="0.345" width="0.345" x="-0.1725" y="3.8275" /><rect height="0.345" width="0.345" x="-0.1725" y="4.8275" /><rect height="0.345" width="0.345" x="-0.1725" y="5.8275" /><rect height="0.345" width="0.345" x="-0.1725" y="6.8275" /><rect height="0.345" width="0.345" x="-0.1725" y="7.8275" /><rect height="0.345" width="0.345" x="-0.1725" y="8.8275" /><rect height="0.345" width="0.345" x="-0.1725" y="9.8275" /><rect height="0.104" width="0.104" x="0.948" y="-0.052" /><rect height="0.18" width="0.18" x="0.91" y="0.91" /><rect height="0.232" width="0.232" x="0.884" y="1.884" /><rect height="0.275" width="0.275" x="0.8625" y="2.8625" /><rect height="0.312" width="0.312" x="0.844" y="3.844" /><rect height="0.345" width="0.345" x="0.8275" y="4.8275" /><rect height="0.375" width="0.375" x="0.8125" y="5.8125" /><rect height="0.402" width="0.402" x="0.7989999999999999" y="6.799" /><rect height="0.428" width="0.428" x="0.786" y="7.786" /><rect height="0.453" width="0.453" x="0.7735" y="8.7735" /><rect height="0.476" width="0.476" x="0.762" y="9.762" /></g><g transform="translate(19,1)"><rect height="0.375" width="0.375" x="-0.1875" y="-0.1875" /><rect height="0.375" width="0.375" x="-0.1875" y="0.8125" /><rect height="0.375" width="0.375" x="-0.1875" y="1.8125" /><rect height="0.375" width="0.375" x="-0.1875" y="2.8125" /><rect height="0.375" width="0.375" x="-0.1875" y="3.8125" /><rect height="0.375" width="0.375" x="-0.1875" y="4.8125" /><rect height="0.375" width="0.375" x="-0.1875" y="5.8125" /><rect height="0.375" width="0.375" x="-0.1875" y="6.8125" /><rect height="0.375" width="0.375" x="-0.1875" y="7.8125" /><rect height="0.375" width="0.375" x="-0.1875" y="8.8125" /><rect height="0.375" width="0.375" x="-0.1875" y="9.8125" /><rect height="0.104" width="0.104" x="0.948" y="-0.052" /><rect height="0.18" width="0.18" x="0.91" y="0.91" /><rect height="0.232" width="0.232" x="0.884" y="1.884" /><rect height="0.275" width="0.275" x="0.8625" y="2.8625" /><rect height="0.312" width="0.312" x="0.844" y="3.844" /><rect height="0.345" width="0.345" x="0.8275" y="4.8275" /><rect height="0.375" width="0.375" x="0.8125" y="5.8125" /><rect height="0.402" width="0.402" x="0.7989999999999999" y="6.799" /><rect height="0.428" width="0.428" x="0.786" y="7.786" /><rect height="0.453" width="0.453" x="0.7735" y="8.7735" /><rect height="0.476" width="0.476" x="0.762" y="9.762" /></g><g transform="translate(22,1)"><rect height="0.402" width="0.402" x="-0.201" y="-0.201" /><rect height="0.402" width="0.402" x="-0.201" y="0.7989999999999999" /><rect height="0.402" width="0.402" x="-0.201" y="1.799" /><rect height="0.402" width="0.402" x="-0.201" y="2.799" /><rect height="0.402" width="0.402" x="-0.201" y="3.799" /><rect height="0.402" width="0.402" x="-0.201" y="4.799" /><rect height="0.402" width="0.402" x="-0.201" y="5.799" /><rect height="0.402" width="0.402" x="-0.201" y="6.799" /><rect height="0.402" width="0.402" x="-0.201" y="7.799" /><rect height="0.402" width="0.402" x="-0.201" y="8.799" /><rect height="0.402" width="0.402" x="-0.201" y="9.799" /><rect height="0.104" width="0.104" x="0.948" y="-0.052" /><rect height="0.18" width="0.18" x="0.91" y="0.91" /><rect height="0.232" width="0.232" x="0.884" y="1.884" /><rect height="0.275" width="0.275" x="0.8625" y="2.8625" /><rect height="0.312" width="0.312" x="0.844" y="3.844" /><rect height="0.345" width="0.345" x="0.8275" y="4.8275" /><rect height="0.375" width="0.375" x="0.8125" y="5.8125" /><rect height="0.402" width="0.402" x="0.7989999999999999" y="6.799" /><rect height="0.428" width="0.428" x="0.786" y="7.786" /><rect height="0.453" width="0.453" x="0.7735" y="8.7735" /><rect height="0.476" width="0.476" x="0.762" y="9.762" /></g><g transform="translate(25,1)"><rect height="0.428" width="0.428" x="-0.214" y="-0.214" /><rect height="0.428" width="0.428" x="-0.214" y="0.786" /><rect height="0.428" width="0.428" x="-0.214" y="1.786" /><rect height="0.428" width="0.428" x="-0.214" y="2.786" /><rect height="0.428" width="0.428" x="-0.214" y="3.786" /><rect height="0.428" width="0.428" x="-0.214" y="4.786" /><rect height="0.428" width="0.428" x="-0.214" y="5.786" /><rect height="0.428" width="0.428" x="-0.214" y="6.786" /><rect height="0.428" width="0.428" x="-0.214" y="7.786" /><rect height="0.428" width="0.428" x="-0.214" y="8.786" /><rect height="0.428" width="0.428" x="-0.214" y="9.786" /><rect height="0.104" width="0.104" x="0.948" y="-0.052" /><rect height="0.18" width="0.18" x="0.91" y="0.91" /><rect height="0.232" width="0.232" x="0.884" y="1.884" /><rect height="0.275" width="0.275" x="0.8625" y="2.8625" /><rect height="0.312" width="0.312" x="0.844" y="3.844" /><rect height="0.345" width="0.345" x="0.8275" y="4.8275" /><rect height="0.375" width="0.375" x="0.8125" y="5.8125" /><rect height="0.402" width="0.402" x="0.7989999999999999" y="6.799" /><rect height="0.428" width="0.428" x="0.786" y="7.786" /><rect height="0.453" width="0.453" x="0.7735" y="8.7735" /><rect height="0.476" width="0.476" x="0.762" y="9.762" /></g><g transform="translate(28,1)"><rect height="0.453" width="0.453" x="-0.2265" y="-0.2265" /><rect height="0.453" width="0.453" x="-0.2265" y="0.7735" /><rect height="0.453" width="0.453" x="-0.2265" y="1.7735" /><rect height="0.453" width="0.453" x="-0.2265" y="2.7735" /><rect height="0.453" width="0.453" x="-0.2265" y="3.7735" /><rect height="0.453" width="0.453" x="-0.2265" y="4.7735" /><rect height="0.453" width="0.453" x="-0.2265" y="5.7735" /><rect height="0.453" width="0.453" x="-0.2265" y="6.7735" /><rect height="0.453" width="0.453" x="-0.2265" y="7.7735" /><rect height="0.453" width="0.453" x="-0.2265" y="8.7735" /><rect height="0.453" width="0.453" x="-0.2265" y="9.7735" /><rect height="0.104" width="0.104" x="0.948" y="-0.052" /><rect height="0.18" width="0.18" x="0.91" y="0.91" /><rect height="0.232" width="0.232" x="0.884" y="1.884" /><rect height="0.275" width="0.275" x="0.8625" y="2.8625" /><rect height="0.312" width="0.312" x="0.844" y="3.844" /><rect height="0.345" width="0.345" x="0.8275" y="4.8275" /><rect height="0.375" width="0.375" x="0.8125" y="5.8125" /><rect height="0.402" width="0.402" x="0.7989999999999999" y="6.799" /><rect height="0.428" width="0.428" x="0.786" y="7.786" /><rect height="0.453" width="0.453" x="0.7735" y="8.7735" /><rect height="0.476" width="0.476" x="0.762" y="9.762" /></g><g transform="translate(31,1)"><rect height="0.476" width="0.476" x="-0.238" y="-0.238" /><rect height="0.476" width="0.476" x="-0.238" y="0.762" /><rect height="0.476" width="0.476" x="-0.238" y="1.762" /><rect height="0.476" width="0.476" x="-0.238" y="2.762" /><rect height="0.476" width="0.476" x="-0.238" y="3.762" /><rect height="0.476" width="0.476" x="-0.238" y="4.7620000000000005" /><rect height="0.476" width="0.476" x="-0.238" y="5.7620000000000005" /><rect height="0.476" width="0.476" x="-0.238" y="6.7620000000000005" /><rect height="0.476" width="0.476" x="-0.238" y="7.7620000000000005" /><rect height="0.476" width="0.476" x="-0.238" y="8.762" /><rect height="0.476" width="0.476" x="-0.238" y="9.762" /><rect height="0.104" width="0.104" x="0.948" y="-0.052" /><rect height="0.18" width="0.18" x="0.91" y="0.91" /><rect height="0.232" width="0.232" x="0.884" y="1.884" /><rect height="0.275" width="0.275" x="0.8625" y="2.8625" /><rect height="0.312" width="0.312" x="0.844" y="3.844" /><rect height="0.345" width="0.345" x="0.8275" y="4.8275" /><rect height="0.375" width="0.375" x="0.8125" y="5.8125" /><rect height="0.402" width="0.402" x="0.7989999999999999" y="6.799" /><rect height="0.428" width="0.428" x="0.786" y="7.786" /><rect height="0.453" width="0.453" x="0.7735" y="8.7735" /><rect height="0.476" width="0.476" x="0.762" y="9.762" /></g></svg>