<?xml version="1.0" encoding="utf-8" ?>
<svg baseProfile="full" preserveAspectRatio="xMidYMid meet" version="1.1" viewBox="0,0,12,12" xmlns="http://www.w3.org/2000/svg" xmlns:ev="http://www.w3.org/2001/xml-events" xmlns:xlink="http://www.w3.org/1999/xlink"><defs><style type="text/css"><![CDATA[
            * {
                stroke: black;
                stroke-width: 0.1;
            }
        ]]></style></defs><g transform="translate(1,1)"><rect height="0.0" width="0.0" x="0.0" y="0.0" /><rect height="0.144" width="0.144" x="-0.072" y="0.928" /><rect height="0.203" width="0.203" x="-0.1015" y="1.8985" /><rect height="0.249" width="0.249" x="-0.1245" y="2.8755" /><rect height="0.287" width="0.287" x="-0.1435" y="3.8565" /><rect height="0.321" width="0.321" x="-0.1605" y="4.8395" /><rect height="0.352" width="0.352" x="-0.176" y="5.824" /><rect height="0.0" width="0.0" x="0.0" y="7.0" /><rect height="0.144" width="0.144" x="-0.072" y="7.928" /><rect height="0.203" width="0.203" x="-0.1015" y="8.8985" /><rect height="0.249" width="0.249" x="-0.1245" y="9.8755" /><rect height="0.287" width="0.287" x="0.8565" y="-0.1435" /><rect height="0.321" width="0.321" x="0.8395" y="0.8395" /><rect height="0.352" width="0.352" x="0.8240000000000001" y="1.824" /><rect height="0.0" width="0.0" x="1.0" y="3.0" /><rect height="0.144" width="0.144" x="0.928" y="3.928" /><rect height="0.203" width="0.203" x="0.8985" y="4.8985" /><rect height="0.249" width="0.249" x="0.8755" y="5.8755" /><rect height="0.287" width="0.287" x="0.8565" y="6.8565" /><rect height="0.321" width="0.321" x="0.8395" y="7.8395" /><rect height="0.352" width="0.352" x="0.8240000000000001" y="8.824" /><rect height="0.0" width="0.0" x="1.0" y="10.0" /><rect height="0.144" width="0.144" x="1.928" y="-0.072" /><rect height="0.203" width="0.203" x="1.8985" y="0.8985" /><rect height="0.249" width="0.249" x="1.8755" y="1.8755" /><rect height="0.287" width="0.287" x="1.8565" y="2.8565" /><rect height="0.321" width="0.321" x="1.8395" y="3.8395" /><rect height="0.352" width="0.352" x="1.824" y="4.824" /><rect height="0.0" width="0.0" x="2.0" y="6.0" /><rect height="0.144" width="0.144" x="1.928" y="6.928" /><rect height="0.203" width="0.203" x="1.8985" y="7.8985" /><rect height="0.249" width="0.249" x="1.8755" y="8.8755" /><rect height="0.287" width="0.287" x="1.8565" y="9.8565" /><rect height="0.321" width="0.321" x="2.8395" y="-0.1605" /><rect height="0.352" width="0.352" x="2.824" y="0.8240000000000001" /><rect height="0.0" width="0.0" x="3.0" y="2.0" /><rect height="0.144" width="0.144" x="2.928" y="2.928" /><rect height="0.203" width="0.203" x="2.8985" y="3.8985" /><rect height="0.249" width="0.249" x="2.8755" y="4.8755" /><rect height="0.287" width="0.287" x="2.8565" y="5.8565" /><rect height="0.321" width="0.321" x="2.8395" y="6.8395" /><rect height="0.352" width="0.352" x="2.824" y="7.824" /><rect height="0.0" width="0.0" x="3.0" y="9.0" /><rect height="0.144" width="0.144" x="2.928" y="9.928" /><rect height="0.203" width="0.203" x="3.8985" y="-0.1015" /><rect height="0.249" width="0.249" x="3.8755" y="0.8755" /><rect height="0.287" width="0.287" x="3.8565" y="1.8565" /><rect height="0.321" width="0.321" x="3.8395" y="2.8395" /><rect height="0.352" width="0.352" x="3.824" y="3.824" /><rect height="0.0" width="0.0" x="4.0" y="5.0" /><rect height="0.144" width="0.144" x="3.928" y="5.928" /><rect height="0.203" width="0.203" x="3.8985" y="6.8985" /><rect height="0.249" width="0.249" x="3.8755" y="7.8755" /><rect height="0.287" width="0.287" x="3.8565" y="8.8565" /><rect height="0.321" width="0.321" x="3.8395" y="9.8395" /><rect height="0.352" width="0.352" x="4.824" y="-0.176" /><rect height="0.0" width="0.0" x="5.0" y="1.0" /><rect height="0.144" width="0.144" x="4.928" y="1.928" /><rect height="0.203" width="0.203" x="4.8985" y="2.8985" /><rect height="0.249" width="0.249" x="4.8755" y="3.8755" /><rect height="0.287" width="0.287" x="4.8565" y="4.8565" /><rect height="0.321" width="0.321" x="4.8395" y="5.8395" /><rect height="0.352" width="0.352" x="4.824" y="6.824" /><rect height="0.0" width="0.0" x="5.0" y="8.0" /><rect height="0.144" width="0.144" x="4.928" y="8.928" /><rect height="0.203" width="0.203" x="4.8985" y="9.8985" /><rect height="0.249" width="0.249" x="5.8755" y="-0.1245" /><rect height="0.287" width="0.287" x="5.8565" y="0.8565" /><rect height="0.321" width="0.321" x="5.8395" y="1.8395" /><rect height="0.352" width="0.352" x="5.824" y="2.824" /><rect height="0.0" width="0.0" x="6.0" y="4.0" /><rect height="0.144" width="0.144" x="5.928" y="4.928" /><rect height="0.203" width="0.203" x="5.8985" y="5.8985" /><rect height="0.249" width="0.249" x="5.8755" y="6.8755" /><rect height="0.287" width="0.287" x="5.8565" y="7.8565" /><rect height="0.321" width="0.321" x="5.8395" y="8.8395" /><rect height="0.352" width="0.352" x="5.824" y="9.824" /><rect height="0.0" width="0.0" x="7.0" y="0.0" /><rect height="0.144" width="0.144" x="6.928" y="0.928" /><rect height="0.203" width="0.203" x="6.8985" y="1.8985" /><rect height="0.249" width="0.249" x="6.8755" y="2.8755" /><rect height="0.287" width="0.287" x="6.8565" y="3.8565" /><rect height="0.321" width="0.321" x="6.8395" y="4.8395" /><rect height="0.352" width="0.352" x="6.824" y="5.824" /><rect height="0.0" width="0.0" x="7.0" y="7.0" /><rect height="0.144" width="0.144" x="6.928" y="7.928" /><rect height="0.203" width="0.203" x="6.8985" y="8.8985" /><rect height="0.249" width="0.249" x="6.8755" y="9.8755" /><rect height="0.287" width="0.287" x="7.8565" y="-0.1435" /><rect height="0.321" width="0.321" x="7.8395" y="0.8395" /><rect height="0.352" width="0.352" x="7.824" y="1.824" /><rect height="0.0" width="0.0" x="8.0" y="3.0" /><rect height="0.144" width="0.144" x="7.928" y="3.928" /><rect height="0.203" width="0.203" x="7.8985" y="4.8985" /><rect height="0.249" width="0.249" x="7.8755" y="5.8755" /><rect height="0.287" width="0.287" x="7.8565" y="6.8565" /><rect height="0.321" width="0.321" x="7.8395" y="7.8395" /><rect height="0.352" width="0.352" x="7.824" y="8.824" /><rect height="0.0" width="0.0" x="8.0" y="10.0" /><rect height="0.144" width="0.144" x="8.928" y="-0.072" /><rect height="0.203" width="0.203" x="8.8985" y="0.8985" /><rect height="0.249" width="0.249" x="8.8755" y="1.8755" /><rect height="0.287" width="0.287" x="8.8565" y="2.8565" /><rect height="0.321" width="0.321" x="8.8395" y="3.8395" /><rect height="0.352" width="0.352" x="8.824" y="4.824" /><rect height="0.0" width="0.0" x="9.0" y="6.0" /><rect height="0.144" width="0.144" x="8.928" y="6.928" /><rect height="0.203" width="0.203" x="8.8985" y="7.8985" /><rect height="0.249" width="0.249" x="8.8755" y="8.8755" /><rect height="0.287" width="0.287" x="8.8565" y="9.8565" /><rect height="0.321" width="0.321" x="9.8395" y="-0.1605" /><rect height="0.352" width="0.352" x="9.824" y="0.8240000000000001" /><rect height="0.0" width="0.0" x="10.0" y="2.0" /><rect height="0.144" width="0.144" x="9.928" y="2.928" /><rect height="0.203" width="0.203" x="9.8985" y="3.8985" /><rect height="0.249" width="0.249" x="9.8755" y="4.8755" /><rect height="0.287" width="0.287" x="9.8565" y="5.8565" /><rect height="0.321" width="0.321" x="9.8395" y="6.8395" /><rect height="0.352" width="0.352" x="9.824" y="7.824" /><rect height="0.0" width="0.0" x="10.0" y="9.0" /><rect height="0.144" width="0.144" x="9.928" y="9.928" /></g></svg>