<?xml version="1.0" encoding="utf-8" ?>
<svg baseProfile="full" preserveAspectRatio="xMidYMid meet" version="1.1" viewBox="0,0,48,18" xmlns="http://www.w3.org/2000/svg" xmlns:ev="http://www.w3.org/2001/xml-events" xmlns:xlink="http://www.w3.org/1999/xlink"><defs><style type="text/css"><![CDATA[
            * {
                stroke-width: 0.1;
            }
        ]]></style></defs><g transform="translate(2,2)"><rect fill="black" height="0.18" width="0.18" x="-0.09" y="-0.09" /><rect fill="black" height="0.18" width="0.18" x="0.91" y="-0.09" /><rect fill="black" height="0.018" width="0.018" x="1.991" y="-0.009" /><rect fill="black" height="0.01" width="0.01" x="2.995" y="-0.005" /><rect fill="black" height="0.004" width="0.004" x="3.998" y="-0.002" /><rect fill="black" height="0.023" width="0.023" x="4.9885" y="-0.0115" /><rect fill="black" height="0.019" width="0.019" x="5.9905" y="-0.0095" /><rect fill="black" height="0.013" width="0.013" x="6.9935" y="-0.0065" /><rect fill="black" height="0.026" width="0.026" x="7.987" y="-0.013" /><rect fill="black" height="0.026" width="0.026" x="8.987" y="-0.013" /><rect fill="black" height="0.029" width="0.029" x="9.9855" y="-0.0145" /><rect fill="black" height="0.022" width="0.022" x="10.989" y="-0.011" /><rect fill="black" height="0.016" width="0.016" x="11.992" y="-0.008" /><rect fill="black" height="0.021" width="0.021" x="-0.0105" y="0.9895" /><rect fill="black" height="0.09" width="0.09" x="0.955" y="0.955" /><rect fill="black" height="0.078" width="0.078" x="1.961" y="0.961" /><rect fill="black" height="0.03" width="0.03" x="2.985" y="0.985" /><rect fill="black" height="0.024" width="0.024" x="3.988" y="0.988" /><rect fill="black" height="0.027" width="0.027" x="4.9865" y="0.9865" /><rect fill="black" height="0.012" width="0.012" x="5.994" y="0.994" /><rect fill="black" height="0.03" width="0.03" x="6.985" y="0.985" /><rect fill="black" height="0.021" width="0.021" x="7.9895" y="0.9895" /><rect fill="black" height="0.03" width="0.03" x="8.985" y="0.985" /><rect fill="black" height="0.014" width="0.014" x="9.993" y="0.993" /><rect fill="black" height="0.024" width="0.024" x="10.988" y="0.988" /><rect fill="black" height="0.018" width="0.018" x="11.991" y="0.991" /><rect fill="black" height="0.112" width="0.112" x="-0.056" y="1.944" /><rect fill="black" height="0.151" width="0.151" x="0.9245" y="1.9245" /><rect fill="black" height="0.13" width="0.13" x="1.935" y="1.935" /><rect fill="black" height="0.136" width="0.136" x="2.932" y="1.932" /><rect fill="black" height="0.146" width="0.146" x="3.927" y="1.927" /><rect fill="black" height="0.02" width="0.02" x="4.99" y="1.99" /><rect fill="black" height="0.013" width="0.013" x="5.9935" y="1.9935" /><rect fill="black" height="0.012" width="0.012" x="6.994" y="1.994" /><rect fill="black" height="0.019" width="0.019" x="7.9905" y="1.9905" /><rect fill="black" height="0.013" width="0.013" x="8.9935" y="1.9935" /><rect fill="black" height="0.006" width="0.006" x="9.997" y="1.997" /><rect fill="black" height="0.017" width="0.017" x="10.9915" y="1.9915" /><rect fill="black" height="0.013" width="0.013" x="11.9935" y="1.9935" /><rect fill="black" height="0.149" width="0.149" x="-0.0745" y="2.9255" /><rect fill="black" height="0.163" width="0.163" x="0.9185" y="2.9185" /><rect fill="black" height="0.03" width="0.03" x="1.985" y="2.985" /><rect fill="black" height="0.16" width="0.16" x="2.92" y="2.92" /><rect fill="black" height="0.058" width="0.058" x="3.971" y="2.971" /><rect fill="black" height="0.164" width="0.164" x="4.918" y="2.918" /><rect fill="black" height="0.02" width="0.02" x="5.99" y="2.99" /><rect fill="black" height="0.024" width="0.024" x="6.988" y="2.988" /><rect fill="black" height="0.015" width="0.015" x="7.9925" y="2.9925" /><rect fill="black" height="0.014" width="0.014" x="8.993" y="2.993" /><rect fill="black" height="0.011" width="0.011" x="9.9945" y="2.9945" /><rect fill="black" height="0.018" width="0.018" x="10.991" y="2.991" /><rect fill="black" height="0.006" width="0.006" x="11.997" y="2.997" /><rect fill="black" height="0.609" width="0.609" x="-0.3045" y="3.6955" /><rect fill="black" height="0.619" width="0.619" x="0.6905" y="3.6905" /><rect fill="black" height="0.643" width="0.643" x="1.6785" y="3.6785" /><rect fill="black" height="0.623" width="0.623" x="2.6885" y="3.6885" /><rect fill="black" height="0.661" width="0.661" x="3.6695" y="3.6695" /><rect fill="black" height="0.618" width="0.618" x="4.691" y="3.691" /><rect fill="black" height="0.659" width="0.659" x="5.6705" y="3.6705" /><rect fill="black" height="0.623" width="0.623" x="6.6885" y="3.6885" /><rect fill="black" height="0.562" width="0.562" x="7.719" y="3.719" /><rect fill="black" height="0.35" width="0.35" x="8.825" y="3.825" /><rect fill="black" height="0.447" width="0.447" x="9.7765" y="3.7765" /><rect fill="black" height="0.007" width="0.007" x="10.9965" y="3.9965" /><rect fill="black" height="0.019" width="0.019" x="11.9905" y="3.9905" /><rect fill="black" height="0.141" width="0.141" x="-0.0705" y="4.9295" /><rect fill="black" height="0.119" width="0.119" x="0.9405" y="4.9405" /><rect fill="black" height="0.045" width="0.045" x="1.9775" y="4.9775" /><rect fill="black" height="0.254" width="0.254" x="2.873" y="4.873" /><rect fill="black" height="0.088" width="0.088" x="3.956" y="4.956" /><rect fill="black" height="0.155" width="0.155" x="4.9225" y="4.9225" /><rect fill="black" height="0.075" width="0.075" x="5.9625" y="4.9625" /><rect fill="black" height="0.131" width="0.131" x="6.9345" y="4.9345" /><rect fill="black" height="0.146" width="0.146" x="7.927" y="4.927" /><rect fill="black" height="0.105" width="0.105" x="8.9475" y="4.9475" /><rect fill="black" height="0.149" width="0.149" x="9.9255" y="4.9255" /><rect fill="black" height="0.142" width="0.142" x="10.929" y="4.929" /><rect fill="black" height="0.188" width="0.188" x="11.906" y="4.906" /></g><g transform="translate(18,2)"><rect fill="black" height="0.661" width="0.661" x="-0.3305" y="-0.3305" /><rect fill="black" height="0.662" width="0.662" x="0.669" y="-0.331" /><rect fill="black" height="0.022" width="0.022" x="1.989" y="-0.011" /><rect fill="black" height="0.023" width="0.023" x="2.9885" y="-0.0115" /><rect fill="black" height="0.022" width="0.022" x="3.989" y="-0.011" /><rect fill="black" height="0.018" width="0.018" x="4.991" y="-0.009" /><rect fill="black" height="0.011" width="0.011" x="5.9945" y="-0.0055" /><rect fill="black" height="0.021" width="0.021" x="6.9895" y="-0.0105" /><rect fill="black" height="0.02" width="0.02" x="7.99" y="-0.01" /><rect fill="black" height="0.022" width="0.022" x="8.989" y="-0.011" /><rect fill="black" height="0.01" width="0.01" x="9.995" y="-0.005" /><rect fill="black" height="0.01" width="0.01" x="10.995" y="-0.005" /><rect fill="black" height="0.018" width="0.018" x="11.991" y="-0.009" /><rect fill="black" height="0.057" width="0.057" x="-0.0285" y="0.9715" /><rect fill="black" height="0.027" width="0.027" x="0.9865" y="0.9865" /><rect fill="black" height="0.073" width="0.073" x="1.9635" y="0.9635" /><rect fill="black" height="0.017" width="0.017" x="2.9915" y="0.9915" /><rect fill="black" height="0.018" width="0.018" x="3.991" y="0.991" /><rect fill="black" height="0.022" width="0.022" x="4.989" y="0.989" /><rect fill="black" height="0.011" width="0.011" x="5.9945" y="0.9945" /><rect fill="black" height="0.029" width="0.029" x="6.9855" y="0.9855" /><rect fill="black" height="0.012" width="0.012" x="7.994" y="0.994" /><rect fill="black" height="0.011" width="0.011" x="8.9945" y="0.9945" /><rect fill="black" height="0.013" width="0.013" x="9.9935" y="0.9935" /><rect fill="black" height="0.023" width="0.023" x="10.9885" y="0.9885" /><rect fill="black" height="0.029" width="0.029" x="11.9855" y="0.9855" /><rect fill="black" height="0.108" width="0.108" x="-0.054" y="1.946" /><rect fill="black" height="0.126" width="0.126" x="0.937" y="1.937" /><rect fill="black" height="0.146" width="0.146" x="1.927" y="1.927" /><rect fill="black" height="0.124" width="0.124" x="2.938" y="1.938" /><rect fill="black" height="0.079" width="0.079" x="3.9605" y="1.9605" /><rect fill="black" height="0.005" width="0.005" x="4.9975" y="1.9975" /><rect fill="black" height="0.024" width="0.024" x="5.988" y="1.988" /><rect fill="black" height="0.018" width="0.018" x="6.991" y="1.991" /><rect fill="black" height="0.021" width="0.021" x="7.9895" y="1.9895" /><rect fill="black" height="0.014" width="0.014" x="8.993" y="1.993" /><rect fill="black" height="0.027" width="0.027" x="9.9865" y="1.9865" /><rect fill="black" height="0.014" width="0.014" x="10.993" y="1.993" /><rect fill="black" height="0.026" width="0.026" x="11.987" y="1.987" /><rect fill="black" height="0.185" width="0.185" x="-0.0925" y="2.9075" /><rect fill="black" height="0.077" width="0.077" x="0.9615" y="2.9615" /><rect fill="black" height="0.157" width="0.157" x="1.9215" y="2.9215" /><rect fill="black" height="0.074" width="0.074" x="2.963" y="2.963" /><rect fill="black" height="0.122" width="0.122" x="3.939" y="2.939" /><rect fill="black" height="0.07" width="0.07" x="4.965" y="2.965" /><rect fill="black" height="0.178" width="0.178" x="5.911" y="2.911" /><rect fill="black" height="0.013" width="0.013" x="6.9935" y="2.9935" /><rect fill="black" height="0.014" width="0.014" x="7.993" y="2.993" /><rect fill="black" height="0.023" width="0.023" x="8.9885" y="2.9885" /><rect fill="black" height="0.016" width="0.016" x="9.992" y="2.992" /><rect fill="black" height="0.024" width="0.024" x="10.988" y="2.988" /><rect fill="black" height="0.011" width="0.011" x="11.9945" y="2.9945" /><rect fill="black" height="0.219" width="0.219" x="-0.1095" y="3.8905" /><rect fill="black" height="0.284" width="0.284" x="0.858" y="3.858" /><rect fill="black" height="0.222" width="0.222" x="1.889" y="3.889" /><rect fill="black" height="0.13" width="0.13" x="2.935" y="3.935" /><rect fill="black" height="0.149" width="0.149" x="3.9255" y="3.9255" /><rect fill="black" height="0.097" width="0.097" x="4.9515" y="3.9515" /><rect fill="black" height="0.074" width="0.074" x="5.963" y="3.963" /><rect fill="black" height="0.181" width="0.181" x="6.9095" y="3.9095" /><rect fill="black" height="0.235" width="0.235" x="7.8825" y="3.8825" /><rect fill="black" height="0.247" width="0.247" x="8.8765" y="3.8765" /><rect fill="black" height="0.236" width="0.236" x="9.882" y="3.882" /><rect fill="black" height="0.02" width="0.02" x="10.99" y="3.99" /><rect fill="black" height="0.013" width="0.013" x="11.9935" y="3.9935" /><rect fill="black" height="0.451" width="0.451" x="-0.2255" y="4.7745" /><rect fill="black" height="0.078" width="0.078" x="0.961" y="4.961" /><rect fill="black" height="0.217" width="0.217" x="1.8915" y="4.8915" /><rect fill="black" height="0.41" width="0.41" x="2.795" y="4.795" /><rect fill="black" height="0.437" width="0.437" x="3.7815" y="4.7815" /><rect fill="black" height="0.513" width="0.513" x="4.7435" y="4.7435" /><rect fill="black" height="0.44" width="0.44" x="5.78" y="4.78" /><rect fill="black" height="0.54" width="0.54" x="6.73" y="4.73" /><rect fill="black" height="0.482" width="0.482" x="7.759" y="4.759" /><rect fill="black" height="0.537" width="0.537" x="8.7315" y="4.7315" /><rect fill="black" height="0.493" width="0.493" x="9.7535" y="4.7535" /><rect fill="black" height="0.502" width="0.502" x="10.749" y="4.749" /><rect fill="black" height="0.453" width="0.453" x="11.7735" y="4.7735" /></g><g transform="translate(34,2)"><rect fill="black" height="0.766" width="0.766" x="-0.383" y="-0.383" /><rect fill="black" height="0.766" width="0.766" x="0.617" y="-0.383" /><rect fill="black" height="0.019" width="0.019" x="1.9905" y="-0.0095" /><rect fill="black" height="0.008" width="0.008" x="2.996" y="-0.004" /><rect fill="black" height="0.014" width="0.014" x="3.993" y="-0.007" /><rect fill="black" height="0.032" width="0.032" x="4.984" y="-0.016" /><rect fill="black" height="0.012" width="0.012" x="5.994" y="-0.006" /><rect fill="black" height="0.016" width="0.016" x="6.992" y="-0.008" /><rect fill="black" height="0.02" width="0.02" x="7.99" y="-0.01" /><rect fill="black" height="0.021" width="0.021" x="8.9895" y="-0.0105" /><rect fill="black" height="0.02" width="0.02" x="9.99" y="-0.01" /><rect fill="black" height="0.022" width="0.022" x="10.989" y="-0.011" /><rect fill="black" height="0.006" width="0.006" x="11.997" y="-0.003" /><rect fill="black" height="0.072" width="0.072" x="-0.036" y="0.964" /><rect fill="black" height="0.084" width="0.084" x="0.958" y="0.958" /><rect fill="black" height="0.055" width="0.055" x="1.9725" y="0.9725" /><rect fill="black" height="0.021" width="0.021" x="2.9895" y="0.9895" /><rect fill="black" height="0.011" width="0.011" x="3.9945" y="0.9945" /><rect fill="black" height="0.025" width="0.025" x="4.9875" y="0.9875" /><rect fill="black" height="0.024" width="0.024" x="5.988" y="0.988" /><rect fill="black" height="0.015" width="0.015" x="6.9925" y="0.9925" /><rect fill="black" height="0.031" width="0.031" x="7.9845" y="0.9845" /><rect fill="black" height="0.022" width="0.022" x="8.989" y="0.989" /><rect fill="black" height="0.018" width="0.018" x="9.991" y="0.991" /><rect fill="black" height="0.017" width="0.017" x="10.9915" y="0.9915" /><rect fill="black" height="0.018" width="0.018" x="11.991" y="0.991" /><rect fill="black" height="0.065" width="0.065" x="-0.0325" y="1.9675" /><rect fill="black" height="0.09" width="0.09" x="0.955" y="1.955" /><rect fill="black" height="0.054" width="0.054" x="1.973" y="1.973" /><rect fill="black" height="0.1" width="0.1" x="2.95" y="1.95" /><rect fill="black" height="0.075" width="0.075" x="3.9625" y="1.9625" /><rect fill="black" height="0.008" width="0.008" x="4.996" y="1.996" /><rect fill="black" height="0.025" width="0.025" x="5.9875" y="1.9875" /><rect fill="black" height="0.03" width="0.03" x="6.985" y="1.985" /><rect fill="black" height="0.026" width="0.026" x="7.987" y="1.987" /><rect fill="black" height="0.017" width="0.017" x="8.9915" y="1.9915" /><rect fill="black" height="0.022" width="0.022" x="9.989" y="1.989" /><rect fill="black" height="0.015" width="0.015" x="10.9925" y="1.9925" /><rect fill="black" height="0.018" width="0.018" x="11.991" y="1.991" /><rect fill="black" height="0.115" width="0.115" x="-0.0575" y="2.9425" /><rect fill="black" height="0.102" width="0.102" x="0.949" y="2.949" /><rect fill="black" height="0.12" width="0.12" x="1.94" y="2.94" /><rect fill="black" height="0.114" width="0.114" x="2.943" y="2.943" /><rect fill="black" height="0.117" width="0.117" x="3.9415" y="2.9415" /><rect fill="black" height="0.176" width="0.176" x="4.912" y="2.912" /><rect fill="black" height="0.124" width="0.124" x="5.938" y="2.938" /><rect fill="black" height="0.007" width="0.007" x="6.9965" y="2.9965" /><rect fill="black" height="0.024" width="0.024" x="7.988" y="2.988" /><rect fill="black" height="0.026" width="0.026" x="8.987" y="2.987" /><rect fill="black" height="0.0" width="0.0" x="10.0" y="3.0" /><rect fill="black" height="0.007" width="0.007" x="10.9965" y="2.9965" /><rect fill="black" height="0.015" width="0.015" x="11.9925" y="2.9925" /><rect fill="black" height="0.21" width="0.21" x="-0.105" y="3.895" /><rect fill="black" height="0.162" width="0.162" x="0.919" y="3.919" /><rect fill="black" height="0.151" width="0.151" x="1.9245" y="3.9245" /><rect fill="black" height="0.068" width="0.068" x="2.966" y="3.966" /><rect fill="black" height="0.103" width="0.103" x="3.9485" y="3.9485" /><rect fill="black" height="0.091" width="0.091" x="4.9545" y="3.9545" /><rect fill="black" height="0.12" width="0.12" x="5.94" y="3.94" /><rect fill="black" height="0.175" width="0.175" x="6.9125" y="3.9125" /><rect fill="black" height="0.19" width="0.19" x="7.905" y="3.905" /><rect fill="black" height="0.199" width="0.199" x="8.9005" y="3.9005" /><rect fill="black" height="0.126" width="0.126" x="9.937" y="3.937" /><rect fill="black" height="0.027" width="0.027" x="10.9865" y="3.9865" /><rect fill="black" height="0.027" width="0.027" x="11.9865" y="3.9865" /><rect fill="black" height="0.463" width="0.463" x="-0.2315" y="4.7685" /><rect fill="black" height="0.169" width="0.169" x="0.9155" y="4.9155" /><rect fill="black" height="0.128" width="0.128" x="1.936" y="4.936" /><rect fill="black" height="0.282" width="0.282" x="2.859" y="4.859" /><rect fill="black" height="0.325" width="0.325" x="3.8375" y="4.8375" /><rect fill="black" height="0.581" width="0.581" x="4.7095" y="4.7095" /><rect fill="black" height="0.379" width="0.379" x="5.8105" y="4.8105" /><rect fill="black" height="0.567" width="0.567" x="6.7165" y="4.7165" /><rect fill="black" height="0.372" width="0.372" x="7.814" y="4.814" /><rect fill="black" height="0.588" width="0.588" x="8.706" y="4.706" /><rect fill="black" height="0.37" width="0.37" x="9.815" y="4.815" /><rect fill="black" height="0.59" width="0.59" x="10.705" y="4.705" /><rect fill="black" height="0.331" width="0.331" x="11.8345" y="4.8345" /></g><g transform="translate(2,11)"><rect fill="black" height="0.175" width="0.175" x="-0.0875" y="-0.0875" /><rect fill="black" height="0.176" width="0.176" x="0.912" y="-0.088" /><rect fill="black" height="0.011" width="0.011" x="1.9945" y="-0.0055" /><rect fill="black" height="0.022" width="0.022" x="2.989" y="-0.011" /><rect fill="black" height="0.014" width="0.014" x="3.993" y="-0.007" /><rect fill="black" height="0.016" width="0.016" x="4.992" y="-0.008" /><rect fill="black" height="0.024" width="0.024" x="5.988" y="-0.012" /><rect fill="black" height="0.028" width="0.028" x="6.986" y="-0.014" /><rect fill="black" height="0.009" width="0.009" x="7.9955" y="-0.0045" /><rect fill="black" height="0.01" width="0.01" x="8.995" y="-0.005" /><rect fill="black" height="0.01" width="0.01" x="9.995" y="-0.005" /><rect fill="black" height="0.023" width="0.023" x="10.9885" y="-0.0115" /><rect fill="black" height="0.019" width="0.019" x="11.9905" y="-0.0095" /><rect fill="black" height="0.111" width="0.111" x="-0.0555" y="0.9445" /><rect fill="black" height="0.06" width="0.06" x="0.97" y="0.97" /><rect fill="black" height="0.121" width="0.121" x="1.9395" y="0.9395" /><rect fill="black" height="0.014" width="0.014" x="2.993" y="0.993" /><rect fill="black" height="0.021" width="0.021" x="3.9895" y="0.9895" /><rect fill="black" height="0.015" width="0.015" x="4.9925" y="0.9925" /><rect fill="black" height="0.026" width="0.026" x="5.987" y="0.987" /><rect fill="black" height="0.005" width="0.005" x="6.9975" y="0.9975" /><rect fill="black" height="0.01" width="0.01" x="7.995" y="0.995" /><rect fill="black" height="0.003" width="0.003" x="8.9985" y="0.9985" /><rect fill="black" height="0.027" width="0.027" x="9.9865" y="0.9865" /><rect fill="black" height="0.021" width="0.021" x="10.9895" y="0.9895" /><rect fill="black" height="0.011" width="0.011" x="11.9945" y="0.9945" /><rect fill="black" height="0.074" width="0.074" x="-0.037" y="1.963" /><rect fill="black" height="0.118" width="0.118" x="0.9410000000000001" y="1.941" /><rect fill="black" height="0.198" width="0.198" x="1.901" y="1.901" /><rect fill="black" height="0.148" width="0.148" x="2.926" y="1.926" /><rect fill="black" height="0.154" width="0.154" x="3.923" y="1.923" /><rect fill="black" height="0.011" width="0.011" x="4.9945" y="1.9945" /><rect fill="black" height="0.011" width="0.011" x="5.9945" y="1.9945" /><rect fill="black" height="0.018" width="0.018" x="6.991" y="1.991" /><rect fill="black" height="0.032" width="0.032" x="7.984" y="1.984" /><rect fill="black" height="0.007" width="0.007" x="8.9965" y="1.9965" /><rect fill="black" height="0.006" width="0.006" x="9.997" y="1.997" /><rect fill="black" height="0.016" width="0.016" x="10.992" y="1.992" /><rect fill="black" height="0.023" width="0.023" x="11.9885" y="1.9885" /><rect fill="black" height="0.164" width="0.164" x="-0.082" y="2.918" /><rect fill="black" height="0.224" width="0.224" x="0.888" y="2.888" /><rect fill="black" height="0.127" width="0.127" x="1.9365" y="2.9365" /><rect fill="black" height="0.218" width="0.218" x="2.891" y="2.891" /><rect fill="black" height="0.183" width="0.183" x="3.9085" y="2.9085" /><rect fill="black" height="0.27" width="0.27" x="4.865" y="2.865" /><rect fill="black" height="0.262" width="0.262" x="5.869" y="2.8689999999999998" /><rect fill="black" height="0.02" width="0.02" x="6.99" y="2.99" /><rect fill="black" height="0.016" width="0.016" x="7.992" y="2.992" /><rect fill="black" height="0.015" width="0.015" x="8.9925" y="2.9925" /><rect fill="black" height="0.01" width="0.01" x="9.995" y="2.995" /><rect fill="black" height="0.013" width="0.013" x="10.9935" y="2.9935" /><rect fill="black" height="0.016" width="0.016" x="11.992" y="2.992" /><rect fill="black" height="0.512" width="0.512" x="-0.256" y="3.7439999999999998" /><rect fill="black" height="0.168" width="0.168" x="0.916" y="3.916" /><rect fill="black" height="0.592" width="0.592" x="1.704" y="3.704" /><rect fill="black" height="0.52" width="0.52" x="2.74" y="3.74" /><rect fill="black" height="0.65" width="0.65" x="3.675" y="3.675" /><rect fill="black" height="0.612" width="0.612" x="4.694" y="3.694" /><rect fill="black" height="0.668" width="0.668" x="5.666" y="3.666" /><rect fill="black" height="0.639" width="0.639" x="6.6805" y="3.6805" /><rect fill="black" height="0.634" width="0.634" x="7.683" y="3.683" /><rect fill="black" height="0.632" width="0.632" x="8.684" y="3.684" /><rect fill="black" height="0.617" width="0.617" x="9.6915" y="3.6915" /><rect fill="black" height="0.011" width="0.011" x="10.9945" y="3.9945" /><rect fill="black" height="0.015" width="0.015" x="11.9925" y="3.9925" /><rect fill="black" height="0.234" width="0.234" x="-0.117" y="4.883" /><rect fill="black" height="0.243" width="0.243" x="0.8785000000000001" y="4.8785" /><rect fill="black" height="0.201" width="0.201" x="1.8995" y="4.8995" /><rect fill="black" height="0.222" width="0.222" x="2.889" y="4.889" /><rect fill="black" height="0.213" width="0.213" x="3.8935" y="4.8935" /><rect fill="black" height="0.218" width="0.218" x="4.891" y="4.891" /><rect fill="black" height="0.041" width="0.041" x="5.9795" y="4.9795" /><rect fill="black" height="0.141" width="0.141" x="6.9295" y="4.9295" /><rect fill="black" height="0.141" width="0.141" x="7.9295" y="4.9295" /><rect fill="black" height="0.186" width="0.186" x="8.907" y="4.907" /><rect fill="black" height="0.113" width="0.113" x="9.9435" y="4.9435" /><rect fill="black" height="0.201" width="0.201" x="10.8995" y="4.8995" /><rect fill="black" height="0.227" width="0.227" x="11.8865" y="4.8865" /></g><g transform="translate(18,11)"><rect fill="black" height="0.732" width="0.732" x="-0.366" y="-0.366" /><rect fill="black" height="0.731" width="0.731" x="0.6345000000000001" y="-0.3655" /><rect fill="black" height="0.02" width="0.02" x="1.99" y="-0.01" /><rect fill="black" height="0.015" width="0.015" x="2.9925" y="-0.0075" /><rect fill="black" height="0.015" width="0.015" x="3.9925" y="-0.0075" /><rect fill="black" height="0.012" width="0.012" x="4.994" y="-0.006" /><rect fill="black" height="0.009" width="0.009" x="5.9955" y="-0.0045" /><rect fill="black" height="0.024" width="0.024" x="6.988" y="-0.012" /><rect fill="black" height="0.014" width="0.014" x="7.993" y="-0.007" /><rect fill="black" height="0.021" width="0.021" x="8.9895" y="-0.0105" /><rect fill="black" height="0.02" width="0.02" x="9.99" y="-0.01" /><rect fill="black" height="0.018" width="0.018" x="10.991" y="-0.009" /><rect fill="black" height="0.017" width="0.017" x="11.9915" y="-0.0085" /><rect fill="black" height="0.026" width="0.026" x="-0.013" y="0.987" /><rect fill="black" height="0.068" width="0.068" x="0.966" y="0.966" /><rect fill="black" height="0.051" width="0.051" x="1.9745" y="0.9745" /><rect fill="black" height="0.02" width="0.02" x="2.99" y="0.99" /><rect fill="black" height="0.025" width="0.025" x="3.9875" y="0.9875" /><rect fill="black" height="0.016" width="0.016" x="4.992" y="0.992" /><rect fill="black" height="0.025" width="0.025" x="5.9875" y="0.9875" /><rect fill="black" height="0.017" width="0.017" x="6.9915" y="0.9915" /><rect fill="black" height="0.013" width="0.013" x="7.9935" y="0.9935" /><rect fill="black" height="0.011" width="0.011" x="8.9945" y="0.9945" /><rect fill="black" height="0.008" width="0.008" x="9.996" y="0.996" /><rect fill="black" height="0.015" width="0.015" x="10.9925" y="0.9925" /><rect fill="black" height="0.019" width="0.019" x="11.9905" y="0.9905" /><rect fill="black" height="0.036" width="0.036" x="-0.018" y="1.982" /><rect fill="black" height="0.115" width="0.115" x="0.9425" y="1.9425" /><rect fill="black" height="0.122" width="0.122" x="1.939" y="1.939" /><rect fill="black" height="0.086" width="0.086" x="2.957" y="1.957" /><rect fill="black" height="0.021" width="0.021" x="3.9895" y="1.9895" /><rect fill="black" height="0.013" width="0.013" x="4.9935" y="1.9935" /><rect fill="black" height="0.019" width="0.019" x="5.9905" y="1.9905" /><rect fill="black" height="0.01" width="0.01" x="6.995" y="1.995" /><rect fill="black" height="0.02" width="0.02" x="7.99" y="1.99" /><rect fill="black" height="0.022" width="0.022" x="8.989" y="1.989" /><rect fill="black" height="0.025" width="0.025" x="9.9875" y="1.9875" /><rect fill="black" height="0.021" width="0.021" x="10.9895" y="1.9895" /><rect fill="black" height="0.012" width="0.012" x="11.994" y="1.994" /><rect fill="black" height="0.015" width="0.015" x="-0.0075" y="2.9925" /><rect fill="black" height="0.112" width="0.112" x="0.944" y="2.944" /><rect fill="black" height="0.189" width="0.189" x="1.9055" y="2.9055" /><rect fill="black" height="0.07" width="0.07" x="2.965" y="2.965" /><rect fill="black" height="0.131" width="0.131" x="3.9345" y="2.9345" /><rect fill="black" height="0.095" width="0.095" x="4.9525" y="2.9525" /><rect fill="black" height="0.164" width="0.164" x="5.918" y="2.918" /><rect fill="black" height="0.027" width="0.027" x="6.9865" y="2.9865" /><rect fill="black" height="0.025" width="0.025" x="7.9875" y="2.9875" /><rect fill="black" height="0.028" width="0.028" x="8.986" y="2.986" /><rect fill="black" height="0.014" width="0.014" x="9.993" y="2.993" /><rect fill="black" height="0.025" width="0.025" x="10.9875" y="2.9875" /><rect fill="black" height="0.017" width="0.017" x="11.9915" y="2.9915" /><rect fill="black" height="0.151" width="0.151" x="-0.0755" y="3.9245" /><rect fill="black" height="0.097" width="0.097" x="0.9515" y="3.9515" /><rect fill="black" height="0.136" width="0.136" x="1.932" y="3.932" /><rect fill="black" height="0.155" width="0.155" x="2.9225" y="3.9225" /><rect fill="black" height="0.17" width="0.17" x="3.915" y="3.915" /><rect fill="black" height="0.166" width="0.166" x="4.917" y="3.917" /><rect fill="black" height="0.142" width="0.142" x="5.929" y="3.929" /><rect fill="black" height="0.202" width="0.202" x="6.899" y="3.899" /><rect fill="black" height="0.146" width="0.146" x="7.927" y="3.927" /><rect fill="black" height="0.071" width="0.071" x="8.9645" y="3.9645" /><rect fill="black" height="0.064" width="0.064" x="9.968" y="3.968" /><rect fill="black" height="0.025" width="0.025" x="10.9875" y="3.9875" /><rect fill="black" height="0.024" width="0.024" x="11.988" y="3.988" /><rect fill="black" height="0.317" width="0.317" x="-0.1585" y="4.8415" /><rect fill="black" height="0.164" width="0.164" x="0.918" y="4.918" /><rect fill="black" height="0.2" width="0.2" x="1.9" y="4.9" /><rect fill="black" height="0.344" width="0.344" x="2.828" y="4.828" /><rect fill="black" height="0.314" width="0.314" x="3.843" y="4.843" /><rect fill="black" height="0.512" width="0.512" x="4.744" y="4.744" /><rect fill="black" height="0.369" width="0.369" x="5.8155" y="4.8155" /><rect fill="black" height="0.506" width="0.506" x="6.747" y="4.747" /><rect fill="black" height="0.382" width="0.382" x="7.809" y="4.809" /><rect fill="black" height="0.475" width="0.475" x="8.7625" y="4.7625" /><rect fill="black" height="0.379" width="0.379" x="9.8105" y="4.8105" /><rect fill="black" height="0.458" width="0.458" x="10.771" y="4.771" /><rect fill="black" height="0.342" width="0.342" x="11.829" y="4.829" /></g><g transform="translate(34,11)"><rect fill="black" height="0.683" width="0.683" x="-0.3415" y="-0.3415" /><rect fill="black" height="0.684" width="0.684" x="0.6579999999999999" y="-0.342" /><rect fill="black" height="0.011" width="0.011" x="1.9945" y="-0.0055" /><rect fill="black" height="0.023" width="0.023" x="2.9885" y="-0.0115" /><rect fill="black" height="0.025" width="0.025" x="3.9875" y="-0.0125" /><rect fill="black" height="0.02" width="0.02" x="4.99" y="-0.01" /><rect fill="black" height="0.007" width="0.007" x="5.9965" y="-0.0035" /><rect fill="black" height="0.013" width="0.013" x="6.9935" y="-0.0065" /><rect fill="black" height="0.011" width="0.011" x="7.9945" y="-0.0055" /><rect fill="black" height="0.007" width="0.007" x="8.9965" y="-0.0035" /><rect fill="black" height="0.024" width="0.024" x="9.988" y="-0.012" /><rect fill="black" height="0.014" width="0.014" x="10.993" y="-0.007" /><rect fill="black" height="0.024" width="0.024" x="11.988" y="-0.012" /><rect fill="black" height="0.069" width="0.069" x="-0.0345" y="0.9655" /><rect fill="black" height="0.054" width="0.054" x="0.973" y="0.973" /><rect fill="black" height="0.079" width="0.079" x="1.9605" y="0.9605" /><rect fill="black" height="0.026" width="0.026" x="2.987" y="0.987" /><rect fill="black" height="0.018" width="0.018" x="3.991" y="0.991" /><rect fill="black" height="0.013" width="0.013" x="4.9935" y="0.9935" /><rect fill="black" height="0.018" width="0.018" x="5.991" y="0.991" /><rect fill="black" height="0.017" width="0.017" x="6.9915" y="0.9915" /><rect fill="black" height="0.012" width="0.012" x="7.994" y="0.994" /><rect fill="black" height="0.015" width="0.015" x="8.9925" y="0.9925" /><rect fill="black" height="0.019" width="0.019" x="9.9905" y="0.9905" /><rect fill="black" height="0.01" width="0.01" x="10.995" y="0.995" /><rect fill="black" height="0.01" width="0.01" x="11.995" y="0.995" /><rect fill="black" height="0.074" width="0.074" x="-0.037" y="1.963" /><rect fill="black" height="0.058" width="0.058" x="0.971" y="1.971" /><rect fill="black" height="0.066" width="0.066" x="1.967" y="1.967" /><rect fill="black" height="0.074" width="0.074" x="2.963" y="1.963" /><rect fill="black" height="0.1" width="0.1" x="3.95" y="1.95" /><rect fill="black" height="0.013" width="0.013" x="4.9935" y="1.9935" /><rect fill="black" height="0.002" width="0.002" x="5.999" y="1.999" /><rect fill="black" height="0.026" width="0.026" x="6.987" y="1.987" /><rect fill="black" height="0.015" width="0.015" x="7.9925" y="1.9925" /><rect fill="black" height="0.018" width="0.018" x="8.991" y="1.991" /><rect fill="black" height="0.021" width="0.021" x="9.9895" y="1.9895" /><rect fill="black" height="0.019" width="0.019" x="10.9905" y="1.9905" /><rect fill="black" height="0.016" width="0.016" x="11.992" y="1.992" /><rect fill="black" height="0.131" width="0.131" x="-0.0655" y="2.9345" /><rect fill="black" height="0.083" width="0.083" x="0.9585" y="2.9585" /><rect fill="black" height="0.033" width="0.033" x="1.9835" y="2.9835" /><rect fill="black" height="0.027" width="0.027" x="2.9865" y="2.9865" /><rect fill="black" height="0.117" width="0.117" x="3.9415" y="2.9415" /><rect fill="black" height="0.073" width="0.073" x="4.9635" y="2.9635" /><rect fill="black" height="0.052" width="0.052" x="5.974" y="2.974" /><rect fill="black" height="0.025" width="0.025" x="6.9875" y="2.9875" /><rect fill="black" height="0.017" width="0.017" x="7.9915" y="2.9915" /><rect fill="black" height="0.023" width="0.023" x="8.9885" y="2.9885" /><rect fill="black" height="0.028" width="0.028" x="9.986" y="2.986" /><rect fill="black" height="0.018" width="0.018" x="10.991" y="2.991" /><rect fill="black" height="0.005" width="0.005" x="11.9975" y="2.9975" /><rect fill="black" height="0.253" width="0.253" x="-0.1265" y="3.8735" /><rect fill="black" height="0.128" width="0.128" x="0.9359999999999999" y="3.936" /><rect fill="black" height="0.212" width="0.212" x="1.894" y="3.894" /><rect fill="black" height="0.073" width="0.073" x="2.9635" y="3.9635" /><rect fill="black" height="0.171" width="0.171" x="3.9145" y="3.9145" /><rect fill="black" height="0.139" width="0.139" x="4.9305" y="3.9305" /><rect fill="black" height="0.133" width="0.133" x="5.9335" y="3.9335" /><rect fill="black" height="0.157" width="0.157" x="6.9215" y="3.9215" /><rect fill="black" height="0.155" width="0.155" x="7.9225" y="3.9225" /><rect fill="black" height="0.217" width="0.217" x="8.8915" y="3.8915" /><rect fill="black" height="0.09" width="0.09" x="9.955" y="3.955" /><rect fill="black" height="0.031" width="0.031" x="10.9845" y="3.9845" /><rect fill="black" height="0.004" width="0.004" x="11.998" y="3.998" /><rect fill="black" height="0.243" width="0.243" x="-0.1215" y="4.8785" /><rect fill="black" height="0.258" width="0.258" x="0.871" y="4.871" /><rect fill="black" height="0.21" width="0.21" x="1.895" y="4.895" /><rect fill="black" height="0.069" width="0.069" x="2.9655" y="4.9655" /><rect fill="black" height="0.26" width="0.26" x="3.87" y="4.87" /><rect fill="black" height="0.514" width="0.514" x="4.743" y="4.743" /><rect fill="black" height="0.316" width="0.316" x="5.842" y="4.842" /><rect fill="black" height="0.593" width="0.593" x="6.7035" y="4.7035" /><rect fill="black" height="0.324" width="0.324" x="7.838" y="4.838" /><rect fill="black" height="0.594" width="0.594" x="8.703" y="4.703" /><rect fill="black" height="0.326" width="0.326" x="9.837" y="4.837" /><rect fill="black" height="0.498" width="0.498" x="10.751" y="4.751" /><rect fill="black" height="0.348" width="0.348" x="11.826" y="4.826" /></g></svg>