<?xml version="1.0" encoding="utf-8" ?>
<svg baseProfile="full" preserveAspectRatio="xMidYMid meet" version="1.1" viewBox="0,0,39,14" xmlns="http://www.w3.org/2000/svg" xmlns:ev="http://www.w3.org/2001/xml-events" xmlns:xlink="http://www.w3.org/1999/xlink"><defs><style type="text/css"><![CDATA[
            * {
                stroke-width: 0.1;
            }
        ]]></style></defs><g transform="translate(1,1)"><rect fill="black" height="0.636" width="0.636" x="-0.318" y="-0.318" /><rect fill="black" height="0.581" width="0.581" x="0.7095" y="-0.2905" /><rect fill="black" height="0.45" width="0.45" x="-0.225" y="0.775" /><rect fill="black" height="0.687" width="0.687" x="0.6565" y="0.6565" /><rect fill="black" height="0.52" width="0.52" x="-0.26" y="1.74" /><rect fill="black" height="0.45" width="0.45" x="0.775" y="1.775" /><rect fill="black" height="0.687" width="0.687" x="-0.3435" y="2.6565" /><rect fill="black" height="0.367" width="0.367" x="0.8165" y="2.8165" /><rect fill="black" height="0.581" width="0.581" x="-0.2905" y="3.7095000000000002" /><rect fill="black" height="0.862" width="0.862" x="0.569" y="3.569" /><rect fill="black" height="0.636" width="0.636" x="-0.318" y="4.682" /><rect fill="black" height="0.687" width="0.687" x="0.6565" y="4.6565" /><rect fill="black" height="0.581" width="0.581" x="-0.2905" y="5.7095" /><rect fill="black" height="0.26" width="0.26" x="0.87" y="5.87" /><rect fill="black" height="0.862" width="0.862" x="-0.431" y="6.569" /><rect fill="black" height="0.0" width="0.0" x="1.0" y="7.0" /><rect fill="black" height="0.735" width="0.735" x="-0.3675" y="7.6325" /><rect fill="black" height="0.581" width="0.581" x="0.7095" y="7.7095" /><rect fill="black" height="0.367" width="0.367" x="-0.1835" y="8.8165" /><rect fill="black" height="0.862" width="0.862" x="0.569" y="8.569" /><rect fill="black" height="0.822" width="0.822" x="-0.411" y="9.589" /><rect fill="black" height="0.735" width="0.735" x="0.6325000000000001" y="9.6325" /><rect fill="black" height="0.9" width="0.9" x="-0.45" y="10.55" /><rect fill="black" height="0.9" width="0.9" x="0.55" y="10.55" /><rect fill="black" height="0.687" width="0.687" x="-0.3435" y="11.6565" /><rect fill="black" height="0.862" width="0.862" x="0.569" y="11.569" /></g><g transform="translate(4,1)"><rect fill="black" height="0.0" width="0.0" x="0.0" y="0.0" /><rect fill="black" height="0.636" width="0.636" x="0.6819999999999999" y="-0.318" /><rect fill="black" height="0.862" width="0.862" x="-0.431" y="0.569" /><rect fill="black" height="0.862" width="0.862" x="0.569" y="0.569" /><rect fill="black" height="0.45" width="0.45" x="-0.225" y="1.775" /><rect fill="black" height="0.779" width="0.779" x="0.6105" y="1.6105" /><rect fill="black" height="0.822" width="0.822" x="-0.411" y="2.589" /><rect fill="black" height="0.26" width="0.26" x="0.87" y="2.87" /><rect fill="black" height="0.45" width="0.45" x="-0.225" y="3.775" /><rect fill="black" height="0.822" width="0.822" x="0.589" y="3.589" /><rect fill="black" height="0.636" width="0.636" x="-0.318" y="4.682" /><rect fill="black" height="0.636" width="0.636" x="0.6819999999999999" y="4.682" /><rect fill="black" height="0.367" width="0.367" x="-0.1835" y="5.8165" /><rect fill="black" height="0.0" width="0.0" x="1.0" y="6.0" /><rect fill="black" height="0.779" width="0.779" x="-0.3895" y="6.6105" /><rect fill="black" height="0.45" width="0.45" x="0.775" y="6.775" /><rect fill="black" height="0.862" width="0.862" x="-0.431" y="7.569" /><rect fill="black" height="0.26" width="0.26" x="0.87" y="7.87" /><rect fill="black" height="0.9" width="0.9" x="-0.45" y="8.55" /><rect fill="black" height="0.581" width="0.581" x="0.7095" y="8.7095" /><rect fill="black" height="0.687" width="0.687" x="-0.3435" y="9.6565" /><rect fill="black" height="0.26" width="0.26" x="0.87" y="9.87" /><rect fill="black" height="0.26" width="0.26" x="-0.13" y="10.87" /><rect fill="black" height="0.687" width="0.687" x="0.6565" y="10.6565" /><rect fill="black" height="0.779" width="0.779" x="-0.3895" y="11.6105" /><rect fill="black" height="0.9" width="0.9" x="0.55" y="11.55" /></g><g transform="translate(7,1)"><rect fill="black" height="0.862" width="0.862" x="-0.431" y="-0.431" /><rect fill="black" height="0.367" width="0.367" x="0.8165" y="-0.1835" /><rect fill="black" height="0.636" width="0.636" x="-0.318" y="0.6819999999999999" /><rect fill="black" height="0.735" width="0.735" x="0.6325000000000001" y="0.6325000000000001" /><rect fill="black" height="0.0" width="0.0" x="0.0" y="2.0" /><rect fill="black" height="0.862" width="0.862" x="0.569" y="1.569" /><rect fill="black" height="0.26" width="0.26" x="-0.13" y="2.87" /><rect fill="black" height="0.636" width="0.636" x="0.6819999999999999" y="2.682" /><rect fill="black" height="0.822" width="0.822" x="-0.411" y="3.589" /><rect fill="black" height="0.0" width="0.0" x="1.0" y="4.0" /><rect fill="black" height="0.0" width="0.0" x="0.0" y="5.0" /><rect fill="black" height="0.9" width="0.9" x="0.55" y="4.55" /><rect fill="black" height="0.9" width="0.9" x="-0.45" y="5.55" /><rect fill="black" height="0.367" width="0.367" x="0.8165" y="5.8165" /><rect fill="black" height="0.862" width="0.862" x="-0.431" y="6.569" /><rect fill="black" height="0.687" width="0.687" x="0.6565" y="6.6565" /><rect fill="black" height="0.52" width="0.52" x="-0.26" y="7.74" /><rect fill="black" height="0.636" width="0.636" x="0.6819999999999999" y="7.682" /><rect fill="black" height="0.636" width="0.636" x="-0.318" y="8.682" /><rect fill="black" height="0.26" width="0.26" x="0.87" y="8.87" /><rect fill="black" height="0.735" width="0.735" x="-0.3675" y="9.6325" /><rect fill="black" height="0.822" width="0.822" x="0.589" y="9.589" /><rect fill="black" height="0.26" width="0.26" x="-0.13" y="10.87" /><rect fill="black" height="0.45" width="0.45" x="0.775" y="10.775" /><rect fill="black" height="0.636" width="0.636" x="-0.318" y="11.682" /><rect fill="black" height="0.367" width="0.367" x="0.8165" y="11.8165" /></g><g transform="translate(10,1)"><rect fill="black" height="0.862" width="0.862" x="-0.431" y="-0.431" /><rect fill="black" height="0.9" width="0.9" x="0.55" y="-0.45" /><rect fill="black" height="0.581" width="0.581" x="-0.2905" y="0.7095" /><rect fill="black" height="0.779" width="0.779" x="0.6105" y="0.6105" /><rect fill="black" height="0.687" width="0.687" x="-0.3435" y="1.6564999999999999" /><rect fill="black" height="0.9" width="0.9" x="0.55" y="1.55" /><rect fill="black" height="0.0" width="0.0" x="0.0" y="3.0" /><rect fill="black" height="0.581" width="0.581" x="0.7095" y="2.7095000000000002" /><rect fill="black" height="0.822" width="0.822" x="-0.411" y="3.589" /><rect fill="black" height="0.9" width="0.9" x="0.55" y="3.55" /><rect fill="black" height="0.9" width="0.9" x="-0.45" y="4.55" /><rect fill="black" height="0.45" width="0.45" x="0.775" y="4.775" /><rect fill="black" height="0.687" width="0.687" x="-0.3435" y="5.6565" /><rect fill="black" height="0.687" width="0.687" x="0.6565" y="5.6565" /><rect fill="black" height="0.26" width="0.26" x="-0.13" y="6.87" /><rect fill="black" height="0.862" width="0.862" x="0.569" y="6.569" /><rect fill="black" height="0.0" width="0.0" x="0.0" y="8.0" /><rect fill="black" height="0.52" width="0.52" x="0.74" y="7.74" /><rect fill="black" height="0.581" width="0.581" x="-0.2905" y="8.7095" /><rect fill="black" height="0.687" width="0.687" x="0.6565" y="8.6565" /><rect fill="black" height="0.822" width="0.822" x="-0.411" y="9.589" /><rect fill="black" height="0.687" width="0.687" x="0.6565" y="9.6565" /><rect fill="black" height="0.687" width="0.687" x="-0.3435" y="10.6565" /><rect fill="black" height="0.52" width="0.52" x="0.74" y="10.74" /><rect fill="black" height="0.45" width="0.45" x="-0.225" y="11.775" /><rect fill="black" height="0.45" width="0.45" x="0.775" y="11.775" /></g><g transform="translate(13,1)"><rect fill="black" height="0.735" width="0.735" x="-0.3675" y="-0.3675" /><rect fill="black" height="0.45" width="0.45" x="0.775" y="-0.225" /><rect fill="black" height="0.52" width="0.52" x="-0.26" y="0.74" /><rect fill="black" height="0.581" width="0.581" x="0.7095" y="0.7095" /><rect fill="black" height="0.687" width="0.687" x="-0.3435" y="1.6564999999999999" /><rect fill="black" height="0.0" width="0.0" x="1.0" y="2.0" /><rect fill="black" height="0.0" width="0.0" x="0.0" y="3.0" /><rect fill="black" height="0.735" width="0.735" x="0.6325000000000001" y="2.6325" /><rect fill="black" height="0.367" width="0.367" x="-0.1835" y="3.8165" /><rect fill="black" height="0.45" width="0.45" x="0.775" y="3.775" /><rect fill="black" height="0.52" width="0.52" x="-0.26" y="4.74" /><rect fill="black" height="0.735" width="0.735" x="0.6325000000000001" y="4.6325" /><rect fill="black" height="0.735" width="0.735" x="-0.3675" y="5.6325" /><rect fill="black" height="0.26" width="0.26" x="0.87" y="5.87" /><rect fill="black" height="0.52" width="0.52" x="-0.26" y="6.74" /><rect fill="black" height="0.822" width="0.822" x="0.589" y="6.589" /><rect fill="black" height="0.367" width="0.367" x="-0.1835" y="7.8165" /><rect fill="black" height="0.735" width="0.735" x="0.6325000000000001" y="7.6325" /><rect fill="black" height="0.581" width="0.581" x="-0.2905" y="8.7095" /><rect fill="black" height="0.367" width="0.367" x="0.8165" y="8.8165" /><rect fill="black" height="0.26" width="0.26" x="-0.13" y="9.87" /><rect fill="black" height="0.581" width="0.581" x="0.7095" y="9.7095" /><rect fill="black" height="0.636" width="0.636" x="-0.318" y="10.682" /><rect fill="black" height="0.45" width="0.45" x="0.775" y="10.775" /><rect fill="black" height="0.0" width="0.0" x="0.0" y="12.0" /><rect fill="black" height="0.45" width="0.45" x="0.775" y="11.775" /></g><g transform="translate(16,1)"><rect fill="black" height="0.52" width="0.52" x="-0.26" y="-0.26" /><rect fill="black" height="0.687" width="0.687" x="0.6565" y="-0.3435" /><rect fill="black" height="0.822" width="0.822" x="-0.411" y="0.589" /><rect fill="black" height="0.779" width="0.779" x="0.6105" y="0.6105" /><rect fill="black" height="0.636" width="0.636" x="-0.318" y="1.682" /><rect fill="black" height="0.779" width="0.779" x="0.6105" y="1.6105" /><rect fill="black" height="0.26" width="0.26" x="-0.13" y="2.87" /><rect fill="black" height="0.779" width="0.779" x="0.6105" y="2.6105" /><rect fill="black" height="0.45" width="0.45" x="-0.225" y="3.775" /><rect fill="black" height="0.581" width="0.581" x="0.7095" y="3.7095000000000002" /><rect fill="black" height="0.581" width="0.581" x="-0.2905" y="4.7095" /><rect fill="black" height="0.636" width="0.636" x="0.6819999999999999" y="4.682" /><rect fill="black" height="0.367" width="0.367" x="-0.1835" y="5.8165" /><rect fill="black" height="0.822" width="0.822" x="0.589" y="5.589" /><rect fill="black" height="0.822" width="0.822" x="-0.411" y="6.589" /><rect fill="black" height="0.52" width="0.52" x="0.74" y="6.74" /><rect fill="black" height="0.52" width="0.52" x="-0.26" y="7.74" /><rect fill="black" height="0.779" width="0.779" x="0.6105" y="7.6105" /><rect fill="black" height="0.9" width="0.9" x="-0.45" y="8.55" /><rect fill="black" height="0.687" width="0.687" x="0.6565" y="8.6565" /><rect fill="black" height="0.862" width="0.862" x="-0.431" y="9.569" /><rect fill="black" height="0.636" width="0.636" x="0.6819999999999999" y="9.682" /><rect fill="black" height="0.45" width="0.45" x="-0.225" y="10.775" /><rect fill="black" height="0.0" width="0.0" x="1.0" y="11.0" /><rect fill="black" height="0.0" width="0.0" x="0.0" y="12.0" /><rect fill="black" height="0.367" width="0.367" x="0.8165" y="11.8165" /></g><g transform="translate(19,1)"><rect fill="black" height="0.779" width="0.779" x="-0.3895" y="-0.3895" /><rect fill="black" height="0.52" width="0.52" x="0.74" y="-0.26" /><rect fill="black" height="0.367" width="0.367" x="-0.1835" y="0.8165" /><rect fill="black" height="0.52" width="0.52" x="0.74" y="0.74" /><rect fill="black" height="0.862" width="0.862" x="-0.431" y="1.569" /><rect fill="black" height="0.779" width="0.779" x="0.6105" y="1.6105" /><rect fill="black" height="0.822" width="0.822" x="-0.411" y="2.589" /><rect fill="black" height="0.367" width="0.367" x="0.8165" y="2.8165" /><rect fill="black" height="0.9" width="0.9" x="-0.45" y="3.55" /><rect fill="black" height="0.862" width="0.862" x="0.569" y="3.569" /><rect fill="black" height="0.9" width="0.9" x="-0.45" y="4.55" /><rect fill="black" height="0.52" width="0.52" x="0.74" y="4.74" /><rect fill="black" height="0.45" width="0.45" x="-0.225" y="5.775" /><rect fill="black" height="0.52" width="0.52" x="0.74" y="5.74" /><rect fill="black" height="0.822" width="0.822" x="-0.411" y="6.589" /><rect fill="black" height="0.862" width="0.862" x="0.569" y="6.569" /><rect fill="black" height="0.779" width="0.779" x="-0.3895" y="7.6105" /><rect fill="black" height="0.636" width="0.636" x="0.6819999999999999" y="7.682" /><rect fill="black" height="0.779" width="0.779" x="-0.3895" y="8.6105" /><rect fill="black" height="0.862" width="0.862" x="0.569" y="8.569" /><rect fill="black" height="0.687" width="0.687" x="-0.3435" y="9.6565" /><rect fill="black" height="0.779" width="0.779" x="0.6105" y="9.6105" /><rect fill="black" height="0.822" width="0.822" x="-0.411" y="10.589" /><rect fill="black" height="0.45" width="0.45" x="0.775" y="10.775" /><rect fill="black" height="0.779" width="0.779" x="-0.3895" y="11.6105" /><rect fill="black" height="0.0" width="0.0" x="1.0" y="12.0" /></g><g transform="translate(22,1)"><rect fill="black" height="0.9" width="0.9" x="-0.45" y="-0.45" /><rect fill="black" height="0.636" width="0.636" x="0.6819999999999999" y="-0.318" /><rect fill="black" height="0.862" width="0.862" x="-0.431" y="0.569" /><rect fill="black" height="0.822" width="0.822" x="0.589" y="0.589" /><rect fill="black" height="0.9" width="0.9" x="-0.45" y="1.55" /><rect fill="black" height="0.735" width="0.735" x="0.6325000000000001" y="1.6325" /><rect fill="black" height="0.45" width="0.45" x="-0.225" y="2.775" /><rect fill="black" height="0.367" width="0.367" x="0.8165" y="2.8165" /><rect fill="black" height="0.862" width="0.862" x="-0.431" y="3.569" /><rect fill="black" height="0.45" width="0.45" x="0.775" y="3.775" /><rect fill="black" height="0.9" width="0.9" x="-0.45" y="4.55" /><rect fill="black" height="0.0" width="0.0" x="1.0" y="5.0" /><rect fill="black" height="0.636" width="0.636" x="-0.318" y="5.682" /><rect fill="black" height="0.9" width="0.9" x="0.55" y="5.55" /><rect fill="black" height="0.581" width="0.581" x="-0.2905" y="6.7095" /><rect fill="black" height="0.822" width="0.822" x="0.589" y="6.589" /><rect fill="black" height="0.367" width="0.367" x="-0.1835" y="7.8165" /><rect fill="black" height="0.636" width="0.636" x="0.6819999999999999" y="7.682" /><rect fill="black" height="0.9" width="0.9" x="-0.45" y="8.55" /><rect fill="black" height="0.779" width="0.779" x="0.6105" y="8.6105" /><rect fill="black" height="0.822" width="0.822" x="-0.411" y="9.589" /><rect fill="black" height="0.822" width="0.822" x="0.589" y="9.589" /><rect fill="black" height="0.735" width="0.735" x="-0.3675" y="10.6325" /><rect fill="black" height="0.779" width="0.779" x="0.6105" y="10.6105" /><rect fill="black" height="0.687" width="0.687" x="-0.3435" y="11.6565" /><rect fill="black" height="0.636" width="0.636" x="0.6819999999999999" y="11.682" /></g><g transform="translate(25,1)"><rect fill="black" height="0.45" width="0.45" x="-0.225" y="-0.225" /><rect fill="black" height="0.862" width="0.862" x="0.569" y="-0.431" /><rect fill="black" height="0.735" width="0.735" x="-0.3675" y="0.6325000000000001" /><rect fill="black" height="0.367" width="0.367" x="0.8165" y="0.8165" /><rect fill="black" height="0.26" width="0.26" x="-0.13" y="1.87" /><rect fill="black" height="0.9" width="0.9" x="0.55" y="1.55" /><rect fill="black" height="0.779" width="0.779" x="-0.3895" y="2.6105" /><rect fill="black" height="0.779" width="0.779" x="0.6105" y="2.6105" /><rect fill="black" height="0.636" width="0.636" x="-0.318" y="3.682" /><rect fill="black" height="0.822" width="0.822" x="0.589" y="3.589" /><rect fill="black" height="0.862" width="0.862" x="-0.431" y="4.569" /><rect fill="black" height="0.581" width="0.581" x="0.7095" y="4.7095" /><rect fill="black" height="0.45" width="0.45" x="-0.225" y="5.775" /><rect fill="black" height="0.636" width="0.636" x="0.6819999999999999" y="5.682" /><rect fill="black" height="0.0" width="0.0" x="0.0" y="7.0" /><rect fill="black" height="0.687" width="0.687" x="0.6565" y="6.6565" /><rect fill="black" height="0.687" width="0.687" x="-0.3435" y="7.6565" /><rect fill="black" height="0.735" width="0.735" x="0.6325000000000001" y="7.6325" /><rect fill="black" height="0.367" width="0.367" x="-0.1835" y="8.8165" /><rect fill="black" height="0.687" width="0.687" x="0.6565" y="8.6565" /><rect fill="black" height="0.687" width="0.687" x="-0.3435" y="9.6565" /><rect fill="black" height="0.822" width="0.822" x="0.589" y="9.589" /><rect fill="black" height="0.52" width="0.52" x="-0.26" y="10.74" /><rect fill="black" height="0.26" width="0.26" x="0.87" y="10.87" /><rect fill="black" height="0.52" width="0.52" x="-0.26" y="11.74" /><rect fill="black" height="0.367" width="0.367" x="0.8165" y="11.8165" /></g><g transform="translate(28,1)"><rect fill="black" height="0.52" width="0.52" x="-0.26" y="-0.26" /><rect fill="black" height="0.862" width="0.862" x="0.569" y="-0.431" /><rect fill="black" height="0.581" width="0.581" x="-0.2905" y="0.7095" /><rect fill="black" height="0.0" width="0.0" x="1.0" y="1.0" /><rect fill="black" height="0.45" width="0.45" x="-0.225" y="1.775" /><rect fill="black" height="0.735" width="0.735" x="0.6325000000000001" y="1.6325" /><rect fill="black" height="0.0" width="0.0" x="0.0" y="3.0" /><rect fill="black" height="0.822" width="0.822" x="0.589" y="2.589" /><rect fill="black" height="0.45" width="0.45" x="-0.225" y="3.775" /><rect fill="black" height="0.26" width="0.26" x="0.87" y="3.87" /><rect fill="black" height="0.581" width="0.581" x="-0.2905" y="4.7095" /><rect fill="black" height="0.45" width="0.45" x="0.775" y="4.775" /><rect fill="black" height="0.26" width="0.26" x="-0.13" y="5.87" /><rect fill="black" height="0.52" width="0.52" x="0.74" y="5.74" /><rect fill="black" height="0.581" width="0.581" x="-0.2905" y="6.7095" /><rect fill="black" height="0.735" width="0.735" x="0.6325000000000001" y="6.6325" /><rect fill="black" height="0.779" width="0.779" x="-0.3895" y="7.6105" /><rect fill="black" height="0.822" width="0.822" x="0.589" y="7.589" /><rect fill="black" height="0.52" width="0.52" x="-0.26" y="8.74" /><rect fill="black" height="0.9" width="0.9" x="0.55" y="8.55" /><rect fill="black" height="0.367" width="0.367" x="-0.1835" y="9.8165" /><rect fill="black" height="0.9" width="0.9" x="0.55" y="9.55" /><rect fill="black" height="0.779" width="0.779" x="-0.3895" y="10.6105" /><rect fill="black" height="0.26" width="0.26" x="0.87" y="10.87" /><rect fill="black" height="0.735" width="0.735" x="-0.3675" y="11.6325" /><rect fill="black" height="0.735" width="0.735" x="0.6325000000000001" y="11.6325" /></g><g transform="translate(31,1)"><rect fill="black" height="0.636" width="0.636" x="-0.318" y="-0.318" /><rect fill="black" height="0.862" width="0.862" x="0.569" y="-0.431" /><rect fill="black" height="0.367" width="0.367" x="-0.1835" y="0.8165" /><rect fill="black" height="0.26" width="0.26" x="0.87" y="0.87" /><rect fill="black" height="0.779" width="0.779" x="-0.3895" y="1.6105" /><rect fill="black" height="0.367" width="0.367" x="0.8165" y="1.8165" /><rect fill="black" height="0.687" width="0.687" x="-0.3435" y="2.6565" /><rect fill="black" height="0.45" width="0.45" x="0.775" y="2.775" /><rect fill="black" height="0.862" width="0.862" x="-0.431" y="3.569" /><rect fill="black" height="0.735" width="0.735" x="0.6325000000000001" y="3.6325" /><rect fill="black" height="0.636" width="0.636" x="-0.318" y="4.682" /><rect fill="black" height="0.52" width="0.52" x="0.74" y="4.74" /><rect fill="black" height="0.26" width="0.26" x="-0.13" y="5.87" /><rect fill="black" height="0.735" width="0.735" x="0.6325000000000001" y="5.6325" /><rect fill="black" height="0.735" width="0.735" x="-0.3675" y="6.6325" /><rect fill="black" height="0.9" width="0.9" x="0.55" y="6.55" /><rect fill="black" height="0.0" width="0.0" x="0.0" y="8.0" /><rect fill="black" height="0.0" width="0.0" x="1.0" y="8.0" /><rect fill="black" height="0.0" width="0.0" x="0.0" y="9.0" /><rect fill="black" height="0.26" width="0.26" x="0.87" y="8.87" /><rect fill="black" height="0.735" width="0.735" x="-0.3675" y="9.6325" /><rect fill="black" height="0.52" width="0.52" x="0.74" y="9.74" /><rect fill="black" height="0.735" width="0.735" x="-0.3675" y="10.6325" /><rect fill="black" height="0.636" width="0.636" x="0.6819999999999999" y="10.682" /><rect fill="black" height="0.822" width="0.822" x="-0.411" y="11.589" /><rect fill="black" height="0.636" width="0.636" x="0.6819999999999999" y="11.682" /></g><g transform="translate(34,1)"><rect fill="black" height="0.636" width="0.636" x="-0.318" y="-0.318" /><rect fill="black" height="0.0" width="0.0" x="1.0" y="0.0" /><rect fill="black" height="0.52" width="0.52" x="-0.26" y="0.74" /><rect fill="black" height="0.52" width="0.52" x="0.74" y="0.74" /><rect fill="black" height="0.687" width="0.687" x="-0.3435" y="1.6564999999999999" /><rect fill="black" height="0.581" width="0.581" x="0.7095" y="1.7095" /><rect fill="black" height="0.367" width="0.367" x="-0.1835" y="2.8165" /><rect fill="black" height="0.779" width="0.779" x="0.6105" y="2.6105" /><rect fill="black" height="0.26" width="0.26" x="-0.13" y="3.87" /><rect fill="black" height="0.822" width="0.822" x="0.589" y="3.589" /><rect fill="black" height="0.581" width="0.581" x="-0.2905" y="4.7095" /><rect fill="black" height="0.581" width="0.581" x="0.7095" y="4.7095" /><rect fill="black" height="0.735" width="0.735" x="-0.3675" y="5.6325" /><rect fill="black" height="0.0" width="0.0" x="1.0" y="6.0" /><rect fill="black" height="0.779" width="0.779" x="-0.3895" y="6.6105" /><rect fill="black" height="0.687" width="0.687" x="0.6565" y="6.6565" /><rect fill="black" height="0.779" width="0.779" x="-0.3895" y="7.6105" /><rect fill="black" height="0.735" width="0.735" x="0.6325000000000001" y="7.6325" /><rect fill="black" height="0.367" width="0.367" x="-0.1835" y="8.8165" /><rect fill="black" height="0.581" width="0.581" x="0.7095" y="8.7095" /><rect fill="black" height="0.9" width="0.9" x="-0.45" y="9.55" /><rect fill="black" height="0.822" width="0.822" x="0.589" y="9.589" /><rect fill="black" height="0.26" width="0.26" x="-0.13" y="10.87" /><rect fill="black" height="0.367" width="0.367" x="0.8165" y="10.8165" /><rect fill="black" height="0.26" width="0.26" x="-0.13" y="11.87" /><rect fill="black" height="0.26" width="0.26" x="0.87" y="11.87" /></g><g transform="translate(37,1)"><rect fill="black" height="0.9" width="0.9" x="-0.45" y="-0.45" /><rect fill="black" height="0.26" width="0.26" x="0.87" y="-0.13" /><rect fill="black" height="0.581" width="0.581" x="-0.2905" y="0.7095" /><rect fill="black" height="0.52" width="0.52" x="0.74" y="0.74" /><rect fill="black" height="0.52" width="0.52" x="-0.26" y="1.74" /><rect fill="black" height="0.0" width="0.0" x="1.0" y="2.0" /><rect fill="black" height="0.822" width="0.822" x="-0.411" y="2.589" /><rect fill="black" height="0.581" width="0.581" x="0.7095" y="2.7095000000000002" /><rect fill="black" height="0.367" width="0.367" x="-0.1835" y="3.8165" /><rect fill="black" height="0.367" width="0.367" x="0.8165" y="3.8165" /><rect fill="black" height="0.0" width="0.0" x="0.0" y="5.0" /><rect fill="black" height="0.779" width="0.779" x="0.6105" y="4.6105" /><rect fill="black" height="0.45" width="0.45" x="-0.225" y="5.775" /><rect fill="black" height="0.9" width="0.9" x="0.55" y="5.55" /><rect fill="black" height="0.862" width="0.862" x="-0.431" y="6.569" /><rect fill="black" height="0.52" width="0.52" x="0.74" y="6.74" /><rect fill="black" height="0.581" width="0.581" x="-0.2905" y="7.7095" /><rect fill="black" height="0.9" width="0.9" x="0.55" y="7.55" /><rect fill="black" height="0.735" width="0.735" x="-0.3675" y="8.6325" /><rect fill="black" height="0.687" width="0.687" x="0.6565" y="8.6565" /><rect fill="black" height="0.26" width="0.26" x="-0.13" y="9.87" /><rect fill="black" height="0.0" width="0.0" x="1.0" y="10.0" /><rect fill="black" height="0.779" width="0.779" x="-0.3895" y="10.6105" /><rect fill="black" height="0.581" width="0.581" x="0.7095" y="10.7095" /><rect fill="black" height="0.735" width="0.735" x="-0.3675" y="11.6325" /><rect fill="black" height="0.862" width="0.862" x="0.569" y="11.569" /></g></svg>