<?xml version="1.0" encoding="utf-8" ?>
<svg baseProfile="full" preserveAspectRatio="xMidYMid meet" version="1.1" viewBox="0,0,51,18" xmlns="http://www.w3.org/2000/svg" xmlns:ev="http://www.w3.org/2001/xml-events" xmlns:xlink="http://www.w3.org/1999/xlink"><defs><style type="text/css"><![CDATA[
            * {
                stroke-width: 0.1;
            }
        ]]></style></defs><g transform="translate(1,1)"><rect fill="black" height="0.636" width="0.636" x="-0.318" y="-0.318" /><rect fill="black" height="0.551" width="0.551" x="0.7244999999999999" y="-0.2755" /><rect fill="black" height="0.318" width="0.318" x="-0.159" y="0.841" /><rect fill="black" height="0.675" width="0.675" x="0.6625" y="0.6625" /><rect fill="black" height="0.842" width="0.842" x="-0.421" y="1.579" /><rect fill="black" height="0.39" width="0.39" x="0.8049999999999999" y="1.805" /><rect fill="black" height="0.871" width="0.871" x="-0.4355" y="2.5645" /><rect fill="black" height="0.318" width="0.318" x="0.841" y="2.841" /><rect fill="black" height="0.842" width="0.842" x="-0.421" y="3.579" /><rect fill="black" height="0.842" width="0.842" x="0.579" y="3.579" /><rect fill="black" height="0.595" width="0.595" x="-0.2975" y="4.7025" /><rect fill="black" height="0.675" width="0.675" x="0.6625" y="4.6625" /><rect fill="black" height="0.712" width="0.712" x="-0.356" y="5.644" /><rect fill="black" height="0.225" width="0.225" x="0.8875" y="5.8875" /><rect fill="black" height="0.39" width="0.39" x="-0.195" y="6.805" /><rect fill="black" height="0.225" width="0.225" x="0.8875" y="6.8875" /><rect fill="black" height="0.779" width="0.779" x="-0.3895" y="7.6105" /><rect fill="black" height="0.551" width="0.551" x="0.7244999999999999" y="7.7245" /><rect fill="black" height="0.45" width="0.45" x="-0.225" y="8.775" /><rect fill="black" height="0.842" width="0.842" x="0.579" y="8.579" /><rect fill="black" height="0.39" width="0.39" x="-0.195" y="9.805" /><rect fill="black" height="0.746" width="0.746" x="0.627" y="9.627" /><rect fill="black" height="0.871" width="0.871" x="-0.4355" y="10.5645" /><rect fill="black" height="0.9" width="0.9" x="0.55" y="10.55" /><rect fill="black" height="0.39" width="0.39" x="-0.195" y="11.805" /><rect fill="black" height="0.871" width="0.871" x="0.5645" y="11.5645" /><rect fill="black" height="0.595" width="0.595" x="-0.2975" y="12.7025" /><rect fill="black" height="0.595" width="0.595" x="0.7025" y="12.7025" /><rect fill="black" height="0.712" width="0.712" x="-0.356" y="13.644" /><rect fill="black" height="0.871" width="0.871" x="0.5645" y="13.5645" /><rect fill="black" height="0.842" width="0.842" x="-0.421" y="14.579" /><rect fill="black" height="0.746" width="0.746" x="0.627" y="14.627" /><rect fill="black" height="0.225" width="0.225" x="-0.1125" y="15.8875" /><rect fill="black" height="0.318" width="0.318" x="0.841" y="15.841" /></g><g transform="translate(4,1)"><rect fill="black" height="0.318" width="0.318" x="-0.159" y="-0.159" /><rect fill="black" height="0.811" width="0.811" x="0.5945" y="-0.4055" /><rect fill="black" height="0.9" width="0.9" x="-0.45" y="0.55" /><rect fill="black" height="0.595" width="0.595" x="0.7025" y="0.7025" /><rect fill="black" height="0.551" width="0.551" x="-0.2755" y="1.7245" /><rect fill="black" height="0.0" width="0.0" x="1.0" y="2.0" /><rect fill="black" height="0.45" width="0.45" x="-0.225" y="2.775" /><rect fill="black" height="0.45" width="0.45" x="0.775" y="2.775" /><rect fill="black" height="0.318" width="0.318" x="-0.159" y="3.841" /><rect fill="black" height="0.318" width="0.318" x="0.841" y="3.841" /><rect fill="black" height="0.503" width="0.503" x="-0.2515" y="4.7485" /><rect fill="black" height="0.595" width="0.595" x="0.7025" y="4.7025" /><rect fill="black" height="0.811" width="0.811" x="-0.4055" y="5.5945" /><rect fill="black" height="0.225" width="0.225" x="0.8875" y="5.8875" /><rect fill="black" height="0.0" width="0.0" x="0.0" y="7.0" /><rect fill="black" height="0.675" width="0.675" x="0.6625" y="6.6625" /><rect fill="black" height="0.779" width="0.779" x="-0.3895" y="7.6105" /><rect fill="black" height="0.9" width="0.9" x="0.55" y="7.55" /><rect fill="black" height="0.551" width="0.551" x="-0.2755" y="8.7245" /><rect fill="black" height="0.39" width="0.39" x="0.8049999999999999" y="8.805" /><rect fill="black" height="0.842" width="0.842" x="-0.421" y="9.579" /><rect fill="black" height="0.712" width="0.712" x="0.644" y="9.644" /><rect fill="black" height="0.225" width="0.225" x="-0.1125" y="10.8875" /><rect fill="black" height="0.842" width="0.842" x="0.579" y="10.579" /><rect fill="black" height="0.636" width="0.636" x="-0.318" y="11.682" /><rect fill="black" height="0.595" width="0.595" x="0.7025" y="11.7025" /><rect fill="black" height="0.318" width="0.318" x="-0.159" y="12.841" /><rect fill="black" height="0.225" width="0.225" x="0.8875" y="12.8875" /><rect fill="black" height="0.811" width="0.811" x="-0.4055" y="13.5945" /><rect fill="black" height="0.871" width="0.871" x="0.5645" y="13.5645" /><rect fill="black" height="0.595" width="0.595" x="-0.2975" y="14.7025" /><rect fill="black" height="0.39" width="0.39" x="0.8049999999999999" y="14.805" /><rect fill="black" height="0.39" width="0.39" x="-0.195" y="15.805" /><rect fill="black" height="0.712" width="0.712" x="0.644" y="15.644" /></g><g transform="translate(7,1)"><rect fill="black" height="0.779" width="0.779" x="-0.3895" y="-0.3895" /><rect fill="black" height="0.595" width="0.595" x="0.7025" y="-0.2975" /><rect fill="black" height="0.746" width="0.746" x="-0.373" y="0.627" /><rect fill="black" height="0.225" width="0.225" x="0.8875" y="0.8875" /><rect fill="black" height="0.712" width="0.712" x="-0.356" y="1.6440000000000001" /><rect fill="black" height="0.811" width="0.811" x="0.5945" y="1.5945" /><rect fill="black" height="0.675" width="0.675" x="-0.3375" y="2.6625" /><rect fill="black" height="0.39" width="0.39" x="0.8049999999999999" y="2.805" /><rect fill="black" height="0.842" width="0.842" x="-0.421" y="3.579" /><rect fill="black" height="0.318" width="0.318" x="0.841" y="3.841" /><rect fill="black" height="0.842" width="0.842" x="-0.421" y="4.579" /><rect fill="black" height="0.9" width="0.9" x="0.55" y="4.55" /><rect fill="black" height="0.225" width="0.225" x="-0.1125" y="5.8875" /><rect fill="black" height="0.779" width="0.779" x="0.6105" y="5.6105" /><rect fill="black" height="0.636" width="0.636" x="-0.318" y="6.682" /><rect fill="black" height="0.9" width="0.9" x="0.55" y="6.55" /><rect fill="black" height="0.712" width="0.712" x="-0.356" y="7.644" /><rect fill="black" height="0.503" width="0.503" x="0.7484999999999999" y="7.7485" /><rect fill="black" height="0.811" width="0.811" x="-0.4055" y="8.5945" /><rect fill="black" height="0.9" width="0.9" x="0.55" y="8.55" /><rect fill="black" height="0.636" width="0.636" x="-0.318" y="9.682" /><rect fill="black" height="0.45" width="0.45" x="0.775" y="9.775" /><rect fill="black" height="0.712" width="0.712" x="-0.356" y="10.644" /><rect fill="black" height="0.675" width="0.675" x="0.6625" y="10.6625" /><rect fill="black" height="0.39" width="0.39" x="-0.195" y="11.805" /><rect fill="black" height="0.842" width="0.842" x="0.579" y="11.579" /><rect fill="black" height="0.675" width="0.675" x="-0.3375" y="12.6625" /><rect fill="black" height="0.45" width="0.45" x="0.775" y="12.775" /><rect fill="black" height="0.503" width="0.503" x="-0.2515" y="13.7485" /><rect fill="black" height="0.675" width="0.675" x="0.6625" y="13.6625" /><rect fill="black" height="0.842" width="0.842" x="-0.421" y="14.579" /><rect fill="black" height="0.675" width="0.675" x="0.6625" y="14.6625" /><rect fill="black" height="0.225" width="0.225" x="-0.1125" y="15.8875" /><rect fill="black" height="0.503" width="0.503" x="0.7484999999999999" y="15.7485" /></g><g transform="translate(10,1)"><rect fill="black" height="0.779" width="0.779" x="-0.3895" y="-0.3895" /><rect fill="black" height="0.39" width="0.39" x="0.8049999999999999" y="-0.195" /><rect fill="black" height="0.39" width="0.39" x="-0.195" y="0.8049999999999999" /><rect fill="black" height="0.45" width="0.45" x="0.775" y="0.775" /><rect fill="black" height="0.0" width="0.0" x="0.0" y="2.0" /><rect fill="black" height="0.551" width="0.551" x="0.7244999999999999" y="1.7245" /><rect fill="black" height="0.779" width="0.779" x="-0.3895" y="2.6105" /><rect fill="black" height="0.0" width="0.0" x="1.0" y="3.0" /><rect fill="black" height="0.551" width="0.551" x="-0.2755" y="3.7245" /><rect fill="black" height="0.712" width="0.712" x="0.644" y="3.644" /><rect fill="black" height="0.746" width="0.746" x="-0.373" y="4.627" /><rect fill="black" height="0.39" width="0.39" x="0.8049999999999999" y="4.805" /><rect fill="black" height="0.779" width="0.779" x="-0.3895" y="5.6105" /><rect fill="black" height="0.712" width="0.712" x="0.644" y="5.644" /><rect fill="black" height="0.842" width="0.842" x="-0.421" y="6.579" /><rect fill="black" height="0.225" width="0.225" x="0.8875" y="6.8875" /><rect fill="black" height="0.39" width="0.39" x="-0.195" y="7.805" /><rect fill="black" height="0.811" width="0.811" x="0.5945" y="7.5945" /><rect fill="black" height="0.675" width="0.675" x="-0.3375" y="8.6625" /><rect fill="black" height="0.712" width="0.712" x="0.644" y="8.644" /><rect fill="black" height="0.779" width="0.779" x="-0.3895" y="9.6105" /><rect fill="black" height="0.318" width="0.318" x="0.841" y="9.841" /><rect fill="black" height="0.746" width="0.746" x="-0.373" y="10.627" /><rect fill="black" height="0.503" width="0.503" x="0.7484999999999999" y="10.7485" /><rect fill="black" height="0.225" width="0.225" x="-0.1125" y="11.8875" /><rect fill="black" height="0.45" width="0.45" x="0.775" y="11.775" /><rect fill="black" height="0.636" width="0.636" x="-0.318" y="12.682" /><rect fill="black" height="0.39" width="0.39" x="0.8049999999999999" y="12.805" /><rect fill="black" height="0.45" width="0.45" x="-0.225" y="13.775" /><rect fill="black" height="0.675" width="0.675" x="0.6625" y="13.6625" /><rect fill="black" height="0.675" width="0.675" x="-0.3375" y="14.6625" /><rect fill="black" height="0.779" width="0.779" x="0.6105" y="14.6105" /><rect fill="black" height="0.45" width="0.45" x="-0.225" y="15.775" /><rect fill="black" height="0.779" width="0.779" x="0.6105" y="15.6105" /></g><g transform="translate(13,1)"><rect fill="black" height="0.746" width="0.746" x="-0.373" y="-0.373" /><rect fill="black" height="0.746" width="0.746" x="0.627" y="-0.373" /><rect fill="black" height="0.871" width="0.871" x="-0.4355" y="0.5645" /><rect fill="black" height="0.503" width="0.503" x="0.7484999999999999" y="0.7484999999999999" /><rect fill="black" height="0.811" width="0.811" x="-0.4055" y="1.5945" /><rect fill="black" height="0.595" width="0.595" x="0.7025" y="1.7025000000000001" /><rect fill="black" height="0.0" width="0.0" x="0.0" y="3.0" /><rect fill="black" height="0.811" width="0.811" x="0.5945" y="2.5945" /><rect fill="black" height="0.551" width="0.551" x="-0.2755" y="3.7245" /><rect fill="black" height="0.503" width="0.503" x="0.7484999999999999" y="3.7485" /><rect fill="black" height="0.9" width="0.9" x="-0.45" y="4.55" /><rect fill="black" height="0.746" width="0.746" x="0.627" y="4.627" /><rect fill="black" height="0.503" width="0.503" x="-0.2515" y="5.7485" /><rect fill="black" height="0.712" width="0.712" x="0.644" y="5.644" /><rect fill="black" height="0.595" width="0.595" x="-0.2975" y="6.7025" /><rect fill="black" height="0.636" width="0.636" x="0.6819999999999999" y="6.682" /><rect fill="black" height="0.595" width="0.595" x="-0.2975" y="7.7025" /><rect fill="black" height="0.0" width="0.0" x="1.0" y="8.0" /><rect fill="black" height="0.595" width="0.595" x="-0.2975" y="8.7025" /><rect fill="black" height="0.318" width="0.318" x="0.841" y="8.841" /><rect fill="black" height="0.45" width="0.45" x="-0.225" y="9.775" /><rect fill="black" height="0.503" width="0.503" x="0.7484999999999999" y="9.7485" /><rect fill="black" height="0.779" width="0.779" x="-0.3895" y="10.6105" /><rect fill="black" height="0.45" width="0.45" x="0.775" y="10.775" /><rect fill="black" height="0.712" width="0.712" x="-0.356" y="11.644" /><rect fill="black" height="0.779" width="0.779" x="0.6105" y="11.6105" /><rect fill="black" height="0.39" width="0.39" x="-0.195" y="12.805" /><rect fill="black" height="0.39" width="0.39" x="0.8049999999999999" y="12.805" /><rect fill="black" height="0.779" width="0.779" x="-0.3895" y="13.6105" /><rect fill="black" height="0.871" width="0.871" x="0.5645" y="13.5645" /><rect fill="black" height="0.675" width="0.675" x="-0.3375" y="14.6625" /><rect fill="black" height="0.503" width="0.503" x="0.7484999999999999" y="14.7485" /><rect fill="black" height="0.811" width="0.811" x="-0.4055" y="15.5945" /><rect fill="black" height="0.45" width="0.45" x="0.775" y="15.775" /></g><g transform="translate(16,1)"><rect fill="black" height="0.636" width="0.636" x="-0.318" y="-0.318" /><rect fill="black" height="0.871" width="0.871" x="0.5645" y="-0.4355" /><rect fill="black" height="0.503" width="0.503" x="-0.2515" y="0.7484999999999999" /><rect fill="black" height="0.636" width="0.636" x="0.6819999999999999" y="0.6819999999999999" /><rect fill="black" height="0.595" width="0.595" x="-0.2975" y="1.7025000000000001" /><rect fill="black" height="0.871" width="0.871" x="0.5645" y="1.5645" /><rect fill="black" height="0.503" width="0.503" x="-0.2515" y="2.7485" /><rect fill="black" height="0.779" width="0.779" x="0.6105" y="2.6105" /><rect fill="black" height="0.503" width="0.503" x="-0.2515" y="3.7485" /><rect fill="black" height="0.45" width="0.45" x="0.775" y="3.775" /><rect fill="black" height="0.225" width="0.225" x="-0.1125" y="4.8875" /><rect fill="black" height="0.225" width="0.225" x="0.8875" y="4.8875" /><rect fill="black" height="0.811" width="0.811" x="-0.4055" y="5.5945" /><rect fill="black" height="0.636" width="0.636" x="0.6819999999999999" y="5.682" /><rect fill="black" height="0.871" width="0.871" x="-0.4355" y="6.5645" /><rect fill="black" height="0.811" width="0.811" x="0.5945" y="6.5945" /><rect fill="black" height="0.636" width="0.636" x="-0.318" y="7.682" /><rect fill="black" height="0.746" width="0.746" x="0.627" y="7.627" /><rect fill="black" height="0.712" width="0.712" x="-0.356" y="8.644" /><rect fill="black" height="0.318" width="0.318" x="0.841" y="8.841" /><rect fill="black" height="0.595" width="0.595" x="-0.2975" y="9.7025" /><rect fill="black" height="0.45" width="0.45" x="0.775" y="9.775" /><rect fill="black" height="0.45" width="0.45" x="-0.225" y="10.775" /><rect fill="black" height="0.225" width="0.225" x="0.8875" y="10.8875" /><rect fill="black" height="0.503" width="0.503" x="-0.2515" y="11.7485" /><rect fill="black" height="0.9" width="0.9" x="0.55" y="11.55" /><rect fill="black" height="0.503" width="0.503" x="-0.2515" y="12.7485" /><rect fill="black" height="0.811" width="0.811" x="0.5945" y="12.5945" /><rect fill="black" height="0.675" width="0.675" x="-0.3375" y="13.6625" /><rect fill="black" height="0.595" width="0.595" x="0.7025" y="13.7025" /><rect fill="black" height="0.746" width="0.746" x="-0.373" y="14.627" /><rect fill="black" height="0.779" width="0.779" x="0.6105" y="14.6105" /><rect fill="black" height="0.779" width="0.779" x="-0.3895" y="15.6105" /><rect fill="black" height="0.811" width="0.811" x="0.5945" y="15.5945" /></g><g transform="translate(19,1)"><rect fill="black" height="0.595" width="0.595" x="-0.2975" y="-0.2975" /><rect fill="black" height="0.779" width="0.779" x="0.6105" y="-0.3895" /><rect fill="black" height="0.0" width="0.0" x="0.0" y="1.0" /><rect fill="black" height="0.636" width="0.636" x="0.6819999999999999" y="0.6819999999999999" /><rect fill="black" height="0.551" width="0.551" x="-0.2755" y="1.7245" /><rect fill="black" height="0.842" width="0.842" x="0.579" y="1.579" /><rect fill="black" height="0.0" width="0.0" x="0.0" y="3.0" /><rect fill="black" height="0.39" width="0.39" x="0.8049999999999999" y="2.805" /><rect fill="black" height="0.842" width="0.842" x="-0.421" y="3.579" /><rect fill="black" height="0.871" width="0.871" x="0.5645" y="3.5645" /><rect fill="black" height="0.636" width="0.636" x="-0.318" y="4.682" /><rect fill="black" height="0.779" width="0.779" x="0.6105" y="4.6105" /><rect fill="black" height="0.595" width="0.595" x="-0.2975" y="5.7025" /><rect fill="black" height="0.811" width="0.811" x="0.5945" y="5.5945" /><rect fill="black" height="0.318" width="0.318" x="-0.159" y="6.841" /><rect fill="black" height="0.595" width="0.595" x="0.7025" y="6.7025" /><rect fill="black" height="0.712" width="0.712" x="-0.356" y="7.644" /><rect fill="black" height="0.595" width="0.595" x="0.7025" y="7.7025" /><rect fill="black" height="0.871" width="0.871" x="-0.4355" y="8.5645" /><rect fill="black" height="0.636" width="0.636" x="0.6819999999999999" y="8.682" /><rect fill="black" height="0.871" width="0.871" x="-0.4355" y="9.5645" /><rect fill="black" height="0.712" width="0.712" x="0.644" y="9.644" /><rect fill="black" height="0.225" width="0.225" x="-0.1125" y="10.8875" /><rect fill="black" height="0.675" width="0.675" x="0.6625" y="10.6625" /><rect fill="black" height="0.675" width="0.675" x="-0.3375" y="11.6625" /><rect fill="black" height="0.811" width="0.811" x="0.5945" y="11.5945" /><rect fill="black" height="0.675" width="0.675" x="-0.3375" y="12.6625" /><rect fill="black" height="0.225" width="0.225" x="0.8875" y="12.8875" /><rect fill="black" height="0.746" width="0.746" x="-0.373" y="13.627" /><rect fill="black" height="0.318" width="0.318" x="0.841" y="13.841" /><rect fill="black" height="0.746" width="0.746" x="-0.373" y="14.627" /><rect fill="black" height="0.842" width="0.842" x="0.579" y="14.579" /><rect fill="black" height="0.712" width="0.712" x="-0.356" y="15.644" /><rect fill="black" height="0.0" width="0.0" x="1.0" y="16.0" /></g><g transform="translate(22,1)"><rect fill="black" height="0.746" width="0.746" x="-0.373" y="-0.373" /><rect fill="black" height="0.712" width="0.712" x="0.644" y="-0.356" /><rect fill="black" height="0.842" width="0.842" x="-0.421" y="0.579" /><rect fill="black" height="0.779" width="0.779" x="0.6105" y="0.6105" /><rect fill="black" height="0.636" width="0.636" x="-0.318" y="1.682" /><rect fill="black" height="0.225" width="0.225" x="0.8875" y="1.8875" /><rect fill="black" height="0.9" width="0.9" x="-0.45" y="2.55" /><rect fill="black" height="0.39" width="0.39" x="0.8049999999999999" y="2.805" /><rect fill="black" height="0.712" width="0.712" x="-0.356" y="3.644" /><rect fill="black" height="0.45" width="0.45" x="0.775" y="3.775" /><rect fill="black" height="0.811" width="0.811" x="-0.4055" y="4.5945" /><rect fill="black" height="0.712" width="0.712" x="0.644" y="4.644" /><rect fill="black" height="0.746" width="0.746" x="-0.373" y="5.627" /><rect fill="black" height="0.811" width="0.811" x="0.5945" y="5.5945" /><rect fill="black" height="0.225" width="0.225" x="-0.1125" y="6.8875" /><rect fill="black" height="0.9" width="0.9" x="0.55" y="6.55" /><rect fill="black" height="0.871" width="0.871" x="-0.4355" y="7.5645" /><rect fill="black" height="0.871" width="0.871" x="0.5645" y="7.5645" /><rect fill="black" height="0.9" width="0.9" x="-0.45" y="8.55" /><rect fill="black" height="0.225" width="0.225" x="0.8875" y="8.8875" /><rect fill="black" height="0.9" width="0.9" x="-0.45" y="9.55" /><rect fill="black" height="0.712" width="0.712" x="0.644" y="9.644" /><rect fill="black" height="0.225" width="0.225" x="-0.1125" y="10.8875" /><rect fill="black" height="0.871" width="0.871" x="0.5645" y="10.5645" /><rect fill="black" height="0.595" width="0.595" x="-0.2975" y="11.7025" /><rect fill="black" height="0.225" width="0.225" x="0.8875" y="11.8875" /><rect fill="black" height="0.318" width="0.318" x="-0.159" y="12.841" /><rect fill="black" height="0.39" width="0.39" x="0.8049999999999999" y="12.805" /><rect fill="black" height="0.318" width="0.318" x="-0.159" y="13.841" /><rect fill="black" height="0.45" width="0.45" x="0.775" y="13.775" /><rect fill="black" height="0.45" width="0.45" x="-0.225" y="14.775" /><rect fill="black" height="0.746" width="0.746" x="0.627" y="14.627" /><rect fill="black" height="0.0" width="0.0" x="0.0" y="16.0" /><rect fill="black" height="0.503" width="0.503" x="0.7484999999999999" y="15.7485" /></g><g transform="translate(25,1)"><rect fill="black" height="0.636" width="0.636" x="-0.318" y="-0.318" /><rect fill="black" height="0.712" width="0.712" x="0.644" y="-0.356" /><rect fill="black" height="0.712" width="0.712" x="-0.356" y="0.644" /><rect fill="black" height="0.9" width="0.9" x="0.55" y="0.55" /><rect fill="black" height="0.39" width="0.39" x="-0.195" y="1.805" /><rect fill="black" height="0.0" width="0.0" x="1.0" y="2.0" /><rect fill="black" height="0.503" width="0.503" x="-0.2515" y="2.7485" /><rect fill="black" height="0.225" width="0.225" x="0.8875" y="2.8875" /><rect fill="black" height="0.39" width="0.39" x="-0.195" y="3.805" /><rect fill="black" height="0.503" width="0.503" x="0.7484999999999999" y="3.7485" /><rect fill="black" height="0.318" width="0.318" x="-0.159" y="4.841" /><rect fill="black" height="0.636" width="0.636" x="0.6819999999999999" y="4.682" /><rect fill="black" height="0.551" width="0.551" x="-0.2755" y="5.7245" /><rect fill="black" height="0.636" width="0.636" x="0.6819999999999999" y="5.682" /><rect fill="black" height="0.746" width="0.746" x="-0.373" y="6.627" /><rect fill="black" height="0.0" width="0.0" x="1.0" y="7.0" /><rect fill="black" height="0.871" width="0.871" x="-0.4355" y="7.5645" /><rect fill="black" height="0.45" width="0.45" x="0.775" y="7.775" /><rect fill="black" height="0.746" width="0.746" x="-0.373" y="8.627" /><rect fill="black" height="0.551" width="0.551" x="0.7244999999999999" y="8.7245" /><rect fill="black" height="0.779" width="0.779" x="-0.3895" y="9.6105" /><rect fill="black" height="0.746" width="0.746" x="0.627" y="9.627" /><rect fill="black" height="0.9" width="0.9" x="-0.45" y="10.55" /><rect fill="black" height="0.779" width="0.779" x="0.6105" y="10.6105" /><rect fill="black" height="0.503" width="0.503" x="-0.2515" y="11.7485" /><rect fill="black" height="0.551" width="0.551" x="0.7244999999999999" y="11.7245" /><rect fill="black" height="0.0" width="0.0" x="0.0" y="13.0" /><rect fill="black" height="0.225" width="0.225" x="0.8875" y="12.8875" /><rect fill="black" height="0.811" width="0.811" x="-0.4055" y="13.5945" /><rect fill="black" height="0.675" width="0.675" x="0.6625" y="13.6625" /><rect fill="black" height="0.318" width="0.318" x="-0.159" y="14.841" /><rect fill="black" height="0.746" width="0.746" x="0.627" y="14.627" /><rect fill="black" height="0.811" width="0.811" x="-0.4055" y="15.5945" /><rect fill="black" height="0.503" width="0.503" x="0.7484999999999999" y="15.7485" /></g><g transform="translate(28,1)"><rect fill="black" height="0.0" width="0.0" x="0.0" y="0.0" /><rect fill="black" height="0.842" width="0.842" x="0.579" y="-0.421" /><rect fill="black" height="0.636" width="0.636" x="-0.318" y="0.6819999999999999" /><rect fill="black" height="0.318" width="0.318" x="0.841" y="0.841" /><rect fill="black" height="0.551" width="0.551" x="-0.2755" y="1.7245" /><rect fill="black" height="0.225" width="0.225" x="0.8875" y="1.8875" /><rect fill="black" height="0.503" width="0.503" x="-0.2515" y="2.7485" /><rect fill="black" height="0.318" width="0.318" x="0.841" y="2.841" /><rect fill="black" height="0.9" width="0.9" x="-0.45" y="3.55" /><rect fill="black" height="0.45" width="0.45" x="0.775" y="3.775" /><rect fill="black" height="0.636" width="0.636" x="-0.318" y="4.682" /><rect fill="black" height="0.0" width="0.0" x="1.0" y="5.0" /><rect fill="black" height="0.0" width="0.0" x="0.0" y="6.0" /><rect fill="black" height="0.595" width="0.595" x="0.7025" y="5.7025" /><rect fill="black" height="0.675" width="0.675" x="-0.3375" y="6.6625" /><rect fill="black" height="0.318" width="0.318" x="0.841" y="6.841" /><rect fill="black" height="0.712" width="0.712" x="-0.356" y="7.644" /><rect fill="black" height="0.746" width="0.746" x="0.627" y="7.627" /><rect fill="black" height="0.0" width="0.0" x="0.0" y="9.0" /><rect fill="black" height="0.9" width="0.9" x="0.55" y="8.55" /><rect fill="black" height="0.595" width="0.595" x="-0.2975" y="9.7025" /><rect fill="black" height="0.503" width="0.503" x="0.7484999999999999" y="9.7485" /><rect fill="black" height="0.318" width="0.318" x="-0.159" y="10.841" /><rect fill="black" height="0.9" width="0.9" x="0.55" y="10.55" /><rect fill="black" height="0.779" width="0.779" x="-0.3895" y="11.6105" /><rect fill="black" height="0.675" width="0.675" x="0.6625" y="11.6625" /><rect fill="black" height="0.503" width="0.503" x="-0.2515" y="12.7485" /><rect fill="black" height="0.0" width="0.0" x="1.0" y="13.0" /><rect fill="black" height="0.871" width="0.871" x="-0.4355" y="13.5645" /><rect fill="black" height="0.551" width="0.551" x="0.7244999999999999" y="13.7245" /><rect fill="black" height="0.45" width="0.45" x="-0.225" y="14.775" /><rect fill="black" height="0.871" width="0.871" x="0.5645" y="14.5645" /><rect fill="black" height="0.9" width="0.9" x="-0.45" y="15.55" /><rect fill="black" height="0.551" width="0.551" x="0.7244999999999999" y="15.7245" /></g><g transform="translate(31,1)"><rect fill="black" height="0.9" width="0.9" x="-0.45" y="-0.45" /><rect fill="black" height="0.842" width="0.842" x="0.579" y="-0.421" /><rect fill="black" height="0.9" width="0.9" x="-0.45" y="0.55" /><rect fill="black" height="0.811" width="0.811" x="0.5945" y="0.5945" /><rect fill="black" height="0.551" width="0.551" x="-0.2755" y="1.7245" /><rect fill="black" height="0.551" width="0.551" x="0.7244999999999999" y="1.7245" /><rect fill="black" height="0.871" width="0.871" x="-0.4355" y="2.5645" /><rect fill="black" height="0.675" width="0.675" x="0.6625" y="2.6625" /><rect fill="black" height="0.746" width="0.746" x="-0.373" y="3.627" /><rect fill="black" height="0.871" width="0.871" x="0.5645" y="3.5645" /><rect fill="black" height="0.842" width="0.842" x="-0.421" y="4.579" /><rect fill="black" height="0.595" width="0.595" x="0.7025" y="4.7025" /><rect fill="black" height="0.675" width="0.675" x="-0.3375" y="5.6625" /><rect fill="black" height="0.746" width="0.746" x="0.627" y="5.627" /><rect fill="black" height="0.871" width="0.871" x="-0.4355" y="6.5645" /><rect fill="black" height="0.842" width="0.842" x="0.579" y="6.579" /><rect fill="black" height="0.551" width="0.551" x="-0.2755" y="7.7245" /><rect fill="black" height="0.595" width="0.595" x="0.7025" y="7.7025" /><rect fill="black" height="0.503" width="0.503" x="-0.2515" y="8.7485" /><rect fill="black" height="0.503" width="0.503" x="0.7484999999999999" y="8.7485" /><rect fill="black" height="0.842" width="0.842" x="-0.421" y="9.579" /><rect fill="black" height="0.811" width="0.811" x="0.5945" y="9.5945" /><rect fill="black" height="0.39" width="0.39" x="-0.195" y="10.805" /><rect fill="black" height="0.595" width="0.595" x="0.7025" y="10.7025" /><rect fill="black" height="0.595" width="0.595" x="-0.2975" y="11.7025" /><rect fill="black" height="0.712" width="0.712" x="0.644" y="11.644" /><rect fill="black" height="0.0" width="0.0" x="0.0" y="13.0" /><rect fill="black" height="0.0" width="0.0" x="1.0" y="13.0" /><rect fill="black" height="0.45" width="0.45" x="-0.225" y="13.775" /><rect fill="black" height="0.811" width="0.811" x="0.5945" y="13.5945" /><rect fill="black" height="0.9" width="0.9" x="-0.45" y="14.55" /><rect fill="black" height="0.318" width="0.318" x="0.841" y="14.841" /><rect fill="black" height="0.595" width="0.595" x="-0.2975" y="15.7025" /><rect fill="black" height="0.746" width="0.746" x="0.627" y="15.627" /></g><g transform="translate(34,1)"><rect fill="black" height="0.746" width="0.746" x="-0.373" y="-0.373" /><rect fill="black" height="0.636" width="0.636" x="0.6819999999999999" y="-0.318" /><rect fill="black" height="0.551" width="0.551" x="-0.2755" y="0.7244999999999999" /><rect fill="black" height="0.871" width="0.871" x="0.5645" y="0.5645" /><rect fill="black" height="0.842" width="0.842" x="-0.421" y="1.579" /><rect fill="black" height="0.0" width="0.0" x="1.0" y="2.0" /><rect fill="black" height="0.0" width="0.0" x="0.0" y="3.0" /><rect fill="black" height="0.871" width="0.871" x="0.5645" y="2.5645" /><rect fill="black" height="0.636" width="0.636" x="-0.318" y="3.682" /><rect fill="black" height="0.503" width="0.503" x="0.7484999999999999" y="3.7485" /><rect fill="black" height="0.503" width="0.503" x="-0.2515" y="4.7485" /><rect fill="black" height="0.746" width="0.746" x="0.627" y="4.627" /><rect fill="black" height="0.871" width="0.871" x="-0.4355" y="5.5645" /><rect fill="black" height="0.39" width="0.39" x="0.8049999999999999" y="5.805" /><rect fill="black" height="0.39" width="0.39" x="-0.195" y="6.805" /><rect fill="black" height="0.318" width="0.318" x="0.841" y="6.841" /><rect fill="black" height="0.503" width="0.503" x="-0.2515" y="7.7485" /><rect fill="black" height="0.871" width="0.871" x="0.5645" y="7.5645" /><rect fill="black" height="0.225" width="0.225" x="-0.1125" y="8.8875" /><rect fill="black" height="0.636" width="0.636" x="0.6819999999999999" y="8.682" /><rect fill="black" height="0.746" width="0.746" x="-0.373" y="9.627" /><rect fill="black" height="0.9" width="0.9" x="0.55" y="9.55" /><rect fill="black" height="0.712" width="0.712" x="-0.356" y="10.644" /><rect fill="black" height="0.636" width="0.636" x="0.6819999999999999" y="10.682" /><rect fill="black" height="0.746" width="0.746" x="-0.373" y="11.627" /><rect fill="black" height="0.675" width="0.675" x="0.6625" y="11.6625" /><rect fill="black" height="0.595" width="0.595" x="-0.2975" y="12.7025" /><rect fill="black" height="0.842" width="0.842" x="0.579" y="12.579" /><rect fill="black" height="0.675" width="0.675" x="-0.3375" y="13.6625" /><rect fill="black" height="0.551" width="0.551" x="0.7244999999999999" y="13.7245" /><rect fill="black" height="0.551" width="0.551" x="-0.2755" y="14.7245" /><rect fill="black" height="0.45" width="0.45" x="0.775" y="14.775" /><rect fill="black" height="0.842" width="0.842" x="-0.421" y="15.579" /><rect fill="black" height="0.551" width="0.551" x="0.7244999999999999" y="15.7245" /></g><g transform="translate(37,1)"><rect fill="black" height="0.712" width="0.712" x="-0.356" y="-0.356" /><rect fill="black" height="0.712" width="0.712" x="0.644" y="-0.356" /><rect fill="black" height="0.9" width="0.9" x="-0.45" y="0.55" /><rect fill="black" height="0.9" width="0.9" x="0.55" y="0.55" /><rect fill="black" height="0.779" width="0.779" x="-0.3895" y="1.6105" /><rect fill="black" height="0.636" width="0.636" x="0.6819999999999999" y="1.682" /><rect fill="black" height="0.225" width="0.225" x="-0.1125" y="2.8875" /><rect fill="black" height="0.811" width="0.811" x="0.5945" y="2.5945" /><rect fill="black" height="0.811" width="0.811" x="-0.4055" y="3.5945" /><rect fill="black" height="0.551" width="0.551" x="0.7244999999999999" y="3.7245" /><rect fill="black" height="0.225" width="0.225" x="-0.1125" y="4.8875" /><rect fill="black" height="0.746" width="0.746" x="0.627" y="4.627" /><rect fill="black" height="0.39" width="0.39" x="-0.195" y="5.805" /><rect fill="black" height="0.779" width="0.779" x="0.6105" y="5.6105" /><rect fill="black" height="0.871" width="0.871" x="-0.4355" y="6.5645" /><rect fill="black" height="0.779" width="0.779" x="0.6105" y="6.6105" /><rect fill="black" height="0.675" width="0.675" x="-0.3375" y="7.6625" /><rect fill="black" height="0.871" width="0.871" x="0.5645" y="7.5645" /><rect fill="black" height="0.45" width="0.45" x="-0.225" y="8.775" /><rect fill="black" height="0.318" width="0.318" x="0.841" y="8.841" /><rect fill="black" height="0.9" width="0.9" x="-0.45" y="9.55" /><rect fill="black" height="0.675" width="0.675" x="0.6625" y="9.6625" /><rect fill="black" height="0.595" width="0.595" x="-0.2975" y="10.7025" /><rect fill="black" height="0.551" width="0.551" x="0.7244999999999999" y="10.7245" /><rect fill="black" height="0.45" width="0.45" x="-0.225" y="11.775" /><rect fill="black" height="0.712" width="0.712" x="0.644" y="11.644" /><rect fill="black" height="0.871" width="0.871" x="-0.4355" y="12.5645" /><rect fill="black" height="0.746" width="0.746" x="0.627" y="12.627" /><rect fill="black" height="0.811" width="0.811" x="-0.4055" y="13.5945" /><rect fill="black" height="0.811" width="0.811" x="0.5945" y="13.5945" /><rect fill="black" height="0.675" width="0.675" x="-0.3375" y="14.6625" /><rect fill="black" height="0.0" width="0.0" x="1.0" y="15.0" /><rect fill="black" height="0.551" width="0.551" x="-0.2755" y="15.7245" /><rect fill="black" height="0.318" width="0.318" x="0.841" y="15.841" /></g><g transform="translate(40,1)"><rect fill="black" height="0.811" width="0.811" x="-0.4055" y="-0.4055" /><rect fill="black" height="0.842" width="0.842" x="0.579" y="-0.421" /><rect fill="black" height="0.842" width="0.842" x="-0.421" y="0.579" /><rect fill="black" height="0.45" width="0.45" x="0.775" y="0.775" /><rect fill="black" height="0.45" width="0.45" x="-0.225" y="1.775" /><rect fill="black" height="0.551" width="0.551" x="0.7244999999999999" y="1.7245" /><rect fill="black" height="0.551" width="0.551" x="-0.2755" y="2.7245" /><rect fill="black" height="0.9" width="0.9" x="0.55" y="2.55" /><rect fill="black" height="0.551" width="0.551" x="-0.2755" y="3.7245" /><rect fill="black" height="0.811" width="0.811" x="0.5945" y="3.5945" /><rect fill="black" height="0.712" width="0.712" x="-0.356" y="4.644" /><rect fill="black" height="0.551" width="0.551" x="0.7244999999999999" y="4.7245" /><rect fill="black" height="0.9" width="0.9" x="-0.45" y="5.55" /><rect fill="black" height="0.0" width="0.0" x="1.0" y="6.0" /><rect fill="black" height="0.871" width="0.871" x="-0.4355" y="6.5645" /><rect fill="black" height="0.225" width="0.225" x="0.8875" y="6.8875" /><rect fill="black" height="0.811" width="0.811" x="-0.4055" y="7.5945" /><rect fill="black" height="0.318" width="0.318" x="0.841" y="7.841" /><rect fill="black" height="0.0" width="0.0" x="0.0" y="9.0" /><rect fill="black" height="0.318" width="0.318" x="0.841" y="8.841" /><rect fill="black" height="0.39" width="0.39" x="-0.195" y="9.805" /><rect fill="black" height="0.9" width="0.9" x="0.55" y="9.55" /><rect fill="black" height="0.45" width="0.45" x="-0.225" y="10.775" /><rect fill="black" height="0.636" width="0.636" x="0.6819999999999999" y="10.682" /><rect fill="black" height="0.636" width="0.636" x="-0.318" y="11.682" /><rect fill="black" height="0.636" width="0.636" x="0.6819999999999999" y="11.682" /><rect fill="black" height="0.318" width="0.318" x="-0.159" y="12.841" /><rect fill="black" height="0.551" width="0.551" x="0.7244999999999999" y="12.7245" /><rect fill="black" height="0.9" width="0.9" x="-0.45" y="13.55" /><rect fill="black" height="0.503" width="0.503" x="0.7484999999999999" y="13.7485" /><rect fill="black" height="0.318" width="0.318" x="-0.159" y="14.841" /><rect fill="black" height="0.712" width="0.712" x="0.644" y="14.644" /><rect fill="black" height="0.811" width="0.811" x="-0.4055" y="15.5945" /><rect fill="black" height="0.0" width="0.0" x="1.0" y="16.0" /></g><g transform="translate(43,1)"><rect fill="black" height="0.675" width="0.675" x="-0.3375" y="-0.3375" /><rect fill="black" height="0.675" width="0.675" x="0.6625" y="-0.3375" /><rect fill="black" height="0.746" width="0.746" x="-0.373" y="0.627" /><rect fill="black" height="0.45" width="0.45" x="0.775" y="0.775" /><rect fill="black" height="0.811" width="0.811" x="-0.4055" y="1.5945" /><rect fill="black" height="0.746" width="0.746" x="0.627" y="1.627" /><rect fill="black" height="0.0" width="0.0" x="0.0" y="3.0" /><rect fill="black" height="0.779" width="0.779" x="0.6105" y="2.6105" /><rect fill="black" height="0.318" width="0.318" x="-0.159" y="3.841" /><rect fill="black" height="0.503" width="0.503" x="0.7484999999999999" y="3.7485" /><rect fill="black" height="0.842" width="0.842" x="-0.421" y="4.579" /><rect fill="black" height="0.636" width="0.636" x="0.6819999999999999" y="4.682" /><rect fill="black" height="0.746" width="0.746" x="-0.373" y="5.627" /><rect fill="black" height="0.595" width="0.595" x="0.7025" y="5.7025" /><rect fill="black" height="0.39" width="0.39" x="-0.195" y="6.805" /><rect fill="black" height="0.551" width="0.551" x="0.7244999999999999" y="6.7245" /><rect fill="black" height="0.551" width="0.551" x="-0.2755" y="7.7245" /><rect fill="black" height="0.746" width="0.746" x="0.627" y="7.627" /><rect fill="black" height="0.225" width="0.225" x="-0.1125" y="8.8875" /><rect fill="black" height="0.551" width="0.551" x="0.7244999999999999" y="8.7245" /><rect fill="black" height="0.0" width="0.0" x="0.0" y="10.0" /><rect fill="black" height="0.45" width="0.45" x="0.775" y="9.775" /><rect fill="black" height="0.0" width="0.0" x="0.0" y="11.0" /><rect fill="black" height="0.746" width="0.746" x="0.627" y="10.627" /><rect fill="black" height="0.9" width="0.9" x="-0.45" y="11.55" /><rect fill="black" height="0.871" width="0.871" x="0.5645" y="11.5645" /><rect fill="black" height="0.225" width="0.225" x="-0.1125" y="12.8875" /><rect fill="black" height="0.595" width="0.595" x="0.7025" y="12.7025" /><rect fill="black" height="0.39" width="0.39" x="-0.195" y="13.805" /><rect fill="black" height="0.636" width="0.636" x="0.6819999999999999" y="13.682" /><rect fill="black" height="0.675" width="0.675" x="-0.3375" y="14.6625" /><rect fill="black" height="0.9" width="0.9" x="0.55" y="14.55" /><rect fill="black" height="0.779" width="0.779" x="-0.3895" y="15.6105" /><rect fill="black" height="0.503" width="0.503" x="0.7484999999999999" y="15.7485" /></g><g transform="translate(46,1)"><rect fill="black" height="0.636" width="0.636" x="-0.318" y="-0.318" /><rect fill="black" height="0.842" width="0.842" x="0.579" y="-0.421" /><rect fill="black" height="0.779" width="0.779" x="-0.3895" y="0.6105" /><rect fill="black" height="0.225" width="0.225" x="0.8875" y="0.8875" /><rect fill="black" height="0.45" width="0.45" x="-0.225" y="1.775" /><rect fill="black" height="0.0" width="0.0" x="1.0" y="2.0" /><rect fill="black" height="0.318" width="0.318" x="-0.159" y="2.841" /><rect fill="black" height="0.842" width="0.842" x="0.579" y="2.579" /><rect fill="black" height="0.0" width="0.0" x="0.0" y="4.0" /><rect fill="black" height="0.712" width="0.712" x="0.644" y="3.644" /><rect fill="black" height="0.225" width="0.225" x="-0.1125" y="4.8875" /><rect fill="black" height="0.0" width="0.0" x="1.0" y="5.0" /><rect fill="black" height="0.779" width="0.779" x="-0.3895" y="5.6105" /><rect fill="black" height="0.842" width="0.842" x="0.579" y="5.579" /><rect fill="black" height="0.503" width="0.503" x="-0.2515" y="6.7485" /><rect fill="black" height="0.842" width="0.842" x="0.579" y="6.579" /><rect fill="black" height="0.842" width="0.842" x="-0.421" y="7.579" /><rect fill="black" height="0.503" width="0.503" x="0.7484999999999999" y="7.7485" /><rect fill="black" height="0.45" width="0.45" x="-0.225" y="8.775" /><rect fill="black" height="0.39" width="0.39" x="0.8049999999999999" y="8.805" /><rect fill="black" height="0.318" width="0.318" x="-0.159" y="9.841" /><rect fill="black" height="0.779" width="0.779" x="0.6105" y="9.6105" /><rect fill="black" height="0.636" width="0.636" x="-0.318" y="10.682" /><rect fill="black" height="0.675" width="0.675" x="0.6625" y="10.6625" /><rect fill="black" height="0.39" width="0.39" x="-0.195" y="11.805" /><rect fill="black" height="0.675" width="0.675" x="0.6625" y="11.6625" /><rect fill="black" height="0.318" width="0.318" x="-0.159" y="12.841" /><rect fill="black" height="0.871" width="0.871" x="0.5645" y="12.5645" /><rect fill="black" height="0.871" width="0.871" x="-0.4355" y="13.5645" /><rect fill="black" height="0.0" width="0.0" x="1.0" y="14.0" /><rect fill="black" height="0.318" width="0.318" x="-0.159" y="14.841" /><rect fill="black" height="0.0" width="0.0" x="1.0" y="15.0" /><rect fill="black" height="0.225" width="0.225" x="-0.1125" y="15.8875" /><rect fill="black" height="0.39" width="0.39" x="0.8049999999999999" y="15.805" /></g><g transform="translate(49,1)"><rect fill="black" height="0.636" width="0.636" x="-0.318" y="-0.318" /><rect fill="black" height="0.811" width="0.811" x="0.5945" y="-0.4055" /><rect fill="black" height="0.712" width="0.712" x="-0.356" y="0.644" /><rect fill="black" height="0.39" width="0.39" x="0.8049999999999999" y="0.8049999999999999" /><rect fill="black" height="0.811" width="0.811" x="-0.4055" y="1.5945" /><rect fill="black" height="0.779" width="0.779" x="0.6105" y="1.6105" /><rect fill="black" height="0.9" width="0.9" x="-0.45" y="2.55" /><rect fill="black" height="0.636" width="0.636" x="0.6819999999999999" y="2.682" /><rect fill="black" height="0.779" width="0.779" x="-0.3895" y="3.6105" /><rect fill="black" height="0.779" width="0.779" x="0.6105" y="3.6105" /><rect fill="black" height="0.675" width="0.675" x="-0.3375" y="4.6625" /><rect fill="black" height="0.842" width="0.842" x="0.579" y="4.579" /><rect fill="black" height="0.45" width="0.45" x="-0.225" y="5.775" /><rect fill="black" height="0.9" width="0.9" x="0.55" y="5.55" /><rect fill="black" height="0.871" width="0.871" x="-0.4355" y="6.5645" /><rect fill="black" height="0.595" width="0.595" x="0.7025" y="6.7025" /><rect fill="black" height="0.551" width="0.551" x="-0.2755" y="7.7245" /><rect fill="black" height="0.779" width="0.779" x="0.6105" y="7.6105" /><rect fill="black" height="0.712" width="0.712" x="-0.356" y="8.644" /><rect fill="black" height="0.842" width="0.842" x="0.579" y="8.579" /><rect fill="black" height="0.225" width="0.225" x="-0.1125" y="9.8875" /><rect fill="black" height="0.712" width="0.712" x="0.644" y="9.644" /><rect fill="black" height="0.503" width="0.503" x="-0.2515" y="10.7485" /><rect fill="black" height="0.39" width="0.39" x="0.8049999999999999" y="10.805" /><rect fill="black" height="0.675" width="0.675" x="-0.3375" y="11.6625" /><rect fill="black" height="0.636" width="0.636" x="0.6819999999999999" y="11.682" /><rect fill="black" height="0.45" width="0.45" x="-0.225" y="12.775" /><rect fill="black" height="0.595" width="0.595" x="0.7025" y="12.7025" /><rect fill="black" height="0.811" width="0.811" x="-0.4055" y="13.5945" /><rect fill="black" height="0.39" width="0.39" x="0.8049999999999999" y="13.805" /><rect fill="black" height="0.595" width="0.595" x="-0.2975" y="14.7025" /><rect fill="black" height="0.9" width="0.9" x="0.55" y="14.55" /><rect fill="black" height="0.551" width="0.551" x="-0.2755" y="15.7245" /><rect fill="black" height="0.675" width="0.675" x="0.6625" y="15.6625" /></g></svg>