<?xml version="1.0" encoding="utf-8" ?>
<svg baseProfile="full" preserveAspectRatio="xMidYMid meet" version="1.1" viewBox="0,0,9,4" xmlns="http://www.w3.org/2000/svg" xmlns:ev="http://www.w3.org/2001/xml-events" xmlns:xlink="http://www.w3.org/1999/xlink"><defs><style type="text/css"><![CDATA[
            * {
                stroke: black;
                stroke-width: 0.1;
            }
        ]]></style></defs><g transform="translate(1,1)"><rect height="0.213" width="0.213" x="-0.1065" y="-0.1065" /><rect height="0.213" width="0.213" x="-0.1065" y="0.8935" /><rect height="0.213" width="0.213" x="-0.1065" y="1.8935" /><rect height="0.213" width="0.213" x="0.8935" y="-0.1065" /><rect height="0.369" width="0.369" x="0.8155" y="0.8155" /><rect height="0.476" width="0.476" x="0.762" y="1.762" /></g><g transform="translate(4,1)"><rect height="0.369" width="0.369" x="-0.1845" y="-0.1845" /><rect height="0.369" width="0.369" x="-0.1845" y="0.8155" /><rect height="0.369" width="0.369" x="-0.1845" y="1.8155000000000001" /><rect height="0.213" width="0.213" x="0.8935" y="-0.1065" /><rect height="0.369" width="0.369" x="0.8155" y="0.8155" /><rect height="0.476" width="0.476" x="0.762" y="1.762" /></g><g transform="translate(7,1)"><rect height="0.476" width="0.476" x="-0.238" y="-0.238" /><rect height="0.476" width="0.476" x="-0.238" y="0.762" /><rect height="0.476" width="0.476" x="-0.238" y="1.762" /><rect height="0.213" width="0.213" x="0.8935" y="-0.1065" /><rect height="0.369" width="0.369" x="0.8155" y="0.8155" /><rect height="0.476" width="0.476" x="0.762" y="1.762" /></g></svg>