<?xml version="1.0" encoding="utf-8" ?>
<svg baseProfile="full" preserveAspectRatio="xMidYMid meet" version="1.1" viewBox="0,0,15,6" xmlns="http://www.w3.org/2000/svg" xmlns:ev="http://www.w3.org/2001/xml-events" xmlns:xlink="http://www.w3.org/1999/xlink"><defs><style type="text/css"><![CDATA[
            * {
                stroke: black;
                stroke-width: 0.1;
            }
        ]]></style></defs><g transform="translate(1,1)"><rect height="0.159" width="0.159" x="-0.0795" y="-0.0795" /><rect height="0.159" width="0.159" x="-0.0795" y="0.9205" /><rect height="0.159" width="0.159" x="-0.0795" y="1.9205" /><rect height="0.159" width="0.159" x="-0.0795" y="2.9205" /><rect height="0.159" width="0.159" x="-0.0795" y="3.9205" /><rect height="0.159" width="0.159" x="0.9205" y="-0.0795" /><rect height="0.275" width="0.275" x="0.8625" y="0.8625" /><rect height="0.355" width="0.355" x="0.8225" y="1.8225" /><rect height="0.42" width="0.42" x="0.79" y="2.79" /><rect height="0.476" width="0.476" x="0.762" y="3.762" /></g><g transform="translate(4,1)"><rect height="0.275" width="0.275" x="-0.1375" y="-0.1375" /><rect height="0.275" width="0.275" x="-0.1375" y="0.8625" /><rect height="0.275" width="0.275" x="-0.1375" y="1.8625" /><rect height="0.275" width="0.275" x="-0.1375" y="2.8625" /><rect height="0.275" width="0.275" x="-0.1375" y="3.8625" /><rect height="0.159" width="0.159" x="0.9205" y="-0.0795" /><rect height="0.275" width="0.275" x="0.8625" y="0.8625" /><rect height="0.355" width="0.355" x="0.8225" y="1.8225" /><rect height="0.42" width="0.42" x="0.79" y="2.79" /><rect height="0.476" width="0.476" x="0.762" y="3.762" /></g><g transform="translate(7,1)"><rect height="0.355" width="0.355" x="-0.1775" y="-0.1775" /><rect height="0.355" width="0.355" x="-0.1775" y="0.8225" /><rect height="0.355" width="0.355" x="-0.1775" y="1.8225" /><rect height="0.355" width="0.355" x="-0.1775" y="2.8225" /><rect height="0.355" width="0.355" x="-0.1775" y="3.8225" /><rect height="0.159" width="0.159" x="0.9205" y="-0.0795" /><rect height="0.275" width="0.275" x="0.8625" y="0.8625" /><rect height="0.355" width="0.355" x="0.8225" y="1.8225" /><rect height="0.42" width="0.42" x="0.79" y="2.79" /><rect height="0.476" width="0.476" x="0.762" y="3.762" /></g><g transform="translate(10,1)"><rect height="0.42" width="0.42" x="-0.21" y="-0.21" /><rect height="0.42" width="0.42" x="-0.21" y="0.79" /><rect height="0.42" width="0.42" x="-0.21" y="1.79" /><rect height="0.42" width="0.42" x="-0.21" y="2.79" /><rect height="0.42" width="0.42" x="-0.21" y="3.79" /><rect height="0.159" width="0.159" x="0.9205" y="-0.0795" /><rect height="0.275" width="0.275" x="0.8625" y="0.8625" /><rect height="0.355" width="0.355" x="0.8225" y="1.8225" /><rect height="0.42" width="0.42" x="0.79" y="2.79" /><rect height="0.476" width="0.476" x="0.762" y="3.762" /></g><g transform="translate(13,1)"><rect height="0.476" width="0.476" x="-0.238" y="-0.238" /><rect height="0.476" width="0.476" x="-0.238" y="0.762" /><rect height="0.476" width="0.476" x="-0.238" y="1.762" /><rect height="0.476" width="0.476" x="-0.238" y="2.762" /><rect height="0.476" width="0.476" x="-0.238" y="3.762" /><rect height="0.159" width="0.159" x="0.9205" y="-0.0795" /><rect height="0.275" width="0.275" x="0.8625" y="0.8625" /><rect height="0.355" width="0.355" x="0.8225" y="1.8225" /><rect height="0.42" width="0.42" x="0.79" y="2.79" /><rect height="0.476" width="0.476" x="0.762" y="3.762" /></g></svg>