<?xml version="1.0" encoding="utf-8" ?>
<svg baseProfile="full" preserveAspectRatio="xMidYMid meet" version="1.1" viewBox="0,0,6,6" xmlns="http://www.w3.org/2000/svg" xmlns:ev="http://www.w3.org/2001/xml-events" xmlns:xlink="http://www.w3.org/1999/xlink"><defs><style type="text/css"><![CDATA[
            * {
                stroke: black;
                stroke-width: 0.1;
            }
        ]]></style></defs><g transform="translate(1,1)"><rect height="0.0" width="0.0" x="0.0" y="0.0" /><rect height="0.213" width="0.213" x="-0.1065" y="0.8935" /><rect height="0.301" width="0.301" x="-0.1505" y="1.8495" /><rect height="0.0" width="0.0" x="0.0" y="3.0" /><rect height="0.213" width="0.213" x="-0.1065" y="3.8935" /><rect height="0.301" width="0.301" x="0.8495" y="-0.1505" /><rect height="0.0" width="0.0" x="1.0" y="1.0" /><rect height="0.213" width="0.213" x="0.8935" y="1.8935" /><rect height="0.301" width="0.301" x="0.8495" y="2.8495" /><rect height="0.0" width="0.0" x="1.0" y="4.0" /><rect height="0.213" width="0.213" x="1.8935" y="-0.1065" /><rect height="0.301" width="0.301" x="1.8495" y="0.8495" /><rect height="0.0" width="0.0" x="2.0" y="2.0" /><rect height="0.213" width="0.213" x="1.8935" y="2.8935" /><rect height="0.301" width="0.301" x="1.8495" y="3.8495" /><rect height="0.0" width="0.0" x="3.0" y="0.0" /><rect height="0.213" width="0.213" x="2.8935" y="0.8935" /><rect height="0.301" width="0.301" x="2.8495" y="1.8495" /><rect height="0.0" width="0.0" x="3.0" y="3.0" /><rect height="0.213" width="0.213" x="2.8935" y="3.8935" /><rect height="0.301" width="0.301" x="3.8495" y="-0.1505" /><rect height="0.0" width="0.0" x="4.0" y="1.0" /><rect height="0.213" width="0.213" x="3.8935" y="1.8935" /><rect height="0.301" width="0.301" x="3.8495" y="2.8495" /><rect height="0.0" width="0.0" x="4.0" y="4.0" /></g></svg>