<?xml version="1.0" encoding="utf-8" ?>
<svg baseProfile="full" preserveAspectRatio="xMidYMid meet" version="1.1" viewBox="0,0,21,8" xmlns="http://www.w3.org/2000/svg" xmlns:ev="http://www.w3.org/2001/xml-events" xmlns:xlink="http://www.w3.org/1999/xlink"><defs><style type="text/css"><![CDATA[
            * {
                stroke: black;
                stroke-width: 0.1;
            }
        ]]></style></defs><g transform="translate(1,1)"><rect height="0.132" width="0.132" x="-0.066" y="-0.066" /><rect height="0.132" width="0.132" x="-0.066" y="0.9339999999999999" /><rect height="0.132" width="0.132" x="-0.066" y="1.934" /><rect height="0.132" width="0.132" x="-0.066" y="2.934" /><rect height="0.132" width="0.132" x="-0.066" y="3.934" /><rect height="0.132" width="0.132" x="-0.066" y="4.934" /><rect height="0.132" width="0.132" x="-0.066" y="5.934" /><rect height="0.132" width="0.132" x="0.9339999999999999" y="-0.066" /><rect height="0.229" width="0.229" x="0.8855" y="0.8855" /><rect height="0.295" width="0.295" x="0.8525" y="1.8525" /><rect height="0.349" width="0.349" x="0.8255" y="2.8255" /><rect height="0.396" width="0.396" x="0.802" y="3.802" /><rect height="0.438" width="0.438" x="0.781" y="4.781" /><rect height="0.476" width="0.476" x="0.762" y="5.7620000000000005" /></g><g transform="translate(4,1)"><rect height="0.229" width="0.229" x="-0.1145" y="-0.1145" /><rect height="0.229" width="0.229" x="-0.1145" y="0.8855" /><rect height="0.229" width="0.229" x="-0.1145" y="1.8855" /><rect height="0.229" width="0.229" x="-0.1145" y="2.8855" /><rect height="0.229" width="0.229" x="-0.1145" y="3.8855" /><rect height="0.229" width="0.229" x="-0.1145" y="4.8855" /><rect height="0.229" width="0.229" x="-0.1145" y="5.8855" /><rect height="0.132" width="0.132" x="0.9339999999999999" y="-0.066" /><rect height="0.229" width="0.229" x="0.8855" y="0.8855" /><rect height="0.295" width="0.295" x="0.8525" y="1.8525" /><rect height="0.349" width="0.349" x="0.8255" y="2.8255" /><rect height="0.396" width="0.396" x="0.802" y="3.802" /><rect height="0.438" width="0.438" x="0.781" y="4.781" /><rect height="0.476" width="0.476" x="0.762" y="5.7620000000000005" /></g><g transform="translate(7,1)"><rect height="0.295" width="0.295" x="-0.1475" y="-0.1475" /><rect height="0.295" width="0.295" x="-0.1475" y="0.8525" /><rect height="0.295" width="0.295" x="-0.1475" y="1.8525" /><rect height="0.295" width="0.295" x="-0.1475" y="2.8525" /><rect height="0.295" width="0.295" x="-0.1475" y="3.8525" /><rect height="0.295" width="0.295" x="-0.1475" y="4.8525" /><rect height="0.295" width="0.295" x="-0.1475" y="5.8525" /><rect height="0.132" width="0.132" x="0.9339999999999999" y="-0.066" /><rect height="0.229" width="0.229" x="0.8855" y="0.8855" /><rect height="0.295" width="0.295" x="0.8525" y="1.8525" /><rect height="0.349" width="0.349" x="0.8255" y="2.8255" /><rect height="0.396" width="0.396" x="0.802" y="3.802" /><rect height="0.438" width="0.438" x="0.781" y="4.781" /><rect height="0.476" width="0.476" x="0.762" y="5.7620000000000005" /></g><g transform="translate(10,1)"><rect height="0.349" width="0.349" x="-0.1745" y="-0.1745" /><rect height="0.349" width="0.349" x="-0.1745" y="0.8255" /><rect height="0.349" width="0.349" x="-0.1745" y="1.8255" /><rect height="0.349" width="0.349" x="-0.1745" y="2.8255" /><rect height="0.349" width="0.349" x="-0.1745" y="3.8255" /><rect height="0.349" width="0.349" x="-0.1745" y="4.8255" /><rect height="0.349" width="0.349" x="-0.1745" y="5.8255" /><rect height="0.132" width="0.132" x="0.9339999999999999" y="-0.066" /><rect height="0.229" width="0.229" x="0.8855" y="0.8855" /><rect height="0.295" width="0.295" x="0.8525" y="1.8525" /><rect height="0.349" width="0.349" x="0.8255" y="2.8255" /><rect height="0.396" width="0.396" x="0.802" y="3.802" /><rect height="0.438" width="0.438" x="0.781" y="4.781" /><rect height="0.476" width="0.476" x="0.762" y="5.7620000000000005" /></g><g transform="translate(13,1)"><rect height="0.396" width="0.396" x="-0.198" y="-0.198" /><rect height="0.396" width="0.396" x="-0.198" y="0.802" /><rect height="0.396" width="0.396" x="-0.198" y="1.802" /><rect height="0.396" width="0.396" x="-0.198" y="2.802" /><rect height="0.396" width="0.396" x="-0.198" y="3.802" /><rect height="0.396" width="0.396" x="-0.198" y="4.802" /><rect height="0.396" width="0.396" x="-0.198" y="5.802" /><rect height="0.132" width="0.132" x="0.9339999999999999" y="-0.066" /><rect height="0.229" width="0.229" x="0.8855" y="0.8855" /><rect height="0.295" width="0.295" x="0.8525" y="1.8525" /><rect height="0.349" width="0.349" x="0.8255" y="2.8255" /><rect height="0.396" width="0.396" x="0.802" y="3.802" /><rect height="0.438" width="0.438" x="0.781" y="4.781" /><rect height="0.476" width="0.476" x="0.762" y="5.7620000000000005" /></g><g transform="translate(16,1)"><rect height="0.438" width="0.438" x="-0.219" y="-0.219" /><rect height="0.438" width="0.438" x="-0.219" y="0.781" /><rect height="0.438" width="0.438" x="-0.219" y="1.781" /><rect height="0.438" width="0.438" x="-0.219" y="2.781" /><rect height="0.438" width="0.438" x="-0.219" y="3.781" /><rect height="0.438" width="0.438" x="-0.219" y="4.781" /><rect height="0.438" width="0.438" x="-0.219" y="5.781" /><rect height="0.132" width="0.132" x="0.9339999999999999" y="-0.066" /><rect height="0.229" width="0.229" x="0.8855" y="0.8855" /><rect height="0.295" width="0.295" x="0.8525" y="1.8525" /><rect height="0.349" width="0.349" x="0.8255" y="2.8255" /><rect height="0.396" width="0.396" x="0.802" y="3.802" /><rect height="0.438" width="0.438" x="0.781" y="4.781" /><rect height="0.476" width="0.476" x="0.762" y="5.7620000000000005" /></g><g transform="translate(19,1)"><rect height="0.476" width="0.476" x="-0.238" y="-0.238" /><rect height="0.476" width="0.476" x="-0.238" y="0.762" /><rect height="0.476" width="0.476" x="-0.238" y="1.762" /><rect height="0.476" width="0.476" x="-0.238" y="2.762" /><rect height="0.476" width="0.476" x="-0.238" y="3.762" /><rect height="0.476" width="0.476" x="-0.238" y="4.7620000000000005" /><rect height="0.476" width="0.476" x="-0.238" y="5.7620000000000005" /><rect height="0.132" width="0.132" x="0.9339999999999999" y="-0.066" /><rect height="0.229" width="0.229" x="0.8855" y="0.8855" /><rect height="0.295" width="0.295" x="0.8525" y="1.8525" /><rect height="0.349" width="0.349" x="0.8255" y="2.8255" /><rect height="0.396" width="0.396" x="0.802" y="3.802" /><rect height="0.438" width="0.438" x="0.781" y="4.781" /><rect height="0.476" width="0.476" x="0.762" y="5.7620000000000005" /></g></svg>