<?xml version="1.0" encoding="utf-8" ?>
<svg baseProfile="full" preserveAspectRatio="xMidYMid meet" version="1.1" viewBox="0,0,8,8" xmlns="http://www.w3.org/2000/svg" xmlns:ev="http://www.w3.org/2001/xml-events" xmlns:xlink="http://www.w3.org/1999/xlink"><defs><style type="text/css"><![CDATA[
            * {
                stroke: black;
                stroke-width: 0.1;
            }
        ]]></style></defs><g transform="translate(1,1)"><rect height="0.0" width="0.0" x="0.0" y="0.0" /><rect height="0.18" width="0.18" x="-0.09" y="0.91" /><rect height="0.255" width="0.255" x="-0.1275" y="1.8725" /><rect height="0.312" width="0.312" x="-0.156" y="2.844" /><rect height="0.36" width="0.36" x="-0.18" y="3.82" /><rect height="0.0" width="0.0" x="0.0" y="5.0" /><rect height="0.18" width="0.18" x="-0.09" y="5.91" /><rect height="0.255" width="0.255" x="0.8725" y="-0.1275" /><rect height="0.312" width="0.312" x="0.844" y="0.844" /><rect height="0.36" width="0.36" x="0.8200000000000001" y="1.82" /><rect height="0.0" width="0.0" x="1.0" y="3.0" /><rect height="0.18" width="0.18" x="0.91" y="3.91" /><rect height="0.255" width="0.255" x="0.8725" y="4.8725" /><rect height="0.312" width="0.312" x="0.844" y="5.844" /><rect height="0.36" width="0.36" x="1.82" y="-0.18" /><rect height="0.0" width="0.0" x="2.0" y="1.0" /><rect height="0.18" width="0.18" x="1.91" y="1.91" /><rect height="0.255" width="0.255" x="1.8725" y="2.8725" /><rect height="0.312" width="0.312" x="1.844" y="3.844" /><rect height="0.36" width="0.36" x="1.82" y="4.82" /><rect height="0.0" width="0.0" x="2.0" y="6.0" /><rect height="0.18" width="0.18" x="2.91" y="-0.09" /><rect height="0.255" width="0.255" x="2.8725" y="0.8725" /><rect height="0.312" width="0.312" x="2.844" y="1.844" /><rect height="0.36" width="0.36" x="2.82" y="2.82" /><rect height="0.0" width="0.0" x="3.0" y="4.0" /><rect height="0.18" width="0.18" x="2.91" y="4.91" /><rect height="0.255" width="0.255" x="2.8725" y="5.8725" /><rect height="0.312" width="0.312" x="3.844" y="-0.156" /><rect height="0.36" width="0.36" x="3.82" y="0.8200000000000001" /><rect height="0.0" width="0.0" x="4.0" y="2.0" /><rect height="0.18" width="0.18" x="3.91" y="2.91" /><rect height="0.255" width="0.255" x="3.8725" y="3.8725" /><rect height="0.312" width="0.312" x="3.844" y="4.844" /><rect height="0.36" width="0.36" x="3.82" y="5.82" /><rect height="0.0" width="0.0" x="5.0" y="0.0" /><rect height="0.18" width="0.18" x="4.91" y="0.91" /><rect height="0.255" width="0.255" x="4.8725" y="1.8725" /><rect height="0.312" width="0.312" x="4.844" y="2.844" /><rect height="0.36" width="0.36" x="4.82" y="3.82" /><rect height="0.0" width="0.0" x="5.0" y="5.0" /><rect height="0.18" width="0.18" x="4.91" y="5.91" /><rect height="0.255" width="0.255" x="5.8725" y="-0.1275" /><rect height="0.312" width="0.312" x="5.844" y="0.844" /><rect height="0.36" width="0.36" x="5.82" y="1.82" /><rect height="0.0" width="0.0" x="6.0" y="3.0" /><rect height="0.18" width="0.18" x="5.91" y="3.91" /><rect height="0.255" width="0.255" x="5.8725" y="4.8725" /><rect height="0.312" width="0.312" x="5.844" y="5.844" /></g></svg>