<?xml version="1.0" encoding="utf-8" ?>
<svg baseProfile="full" height="100%" preserveAspectRatio="xMidYMid meet" version="1.1" viewBox="-40,-40,650,90" width="100%" xmlns="http://www.w3.org/2000/svg" xmlns:ev="http://www.w3.org/2001/xml-events" xmlns:xlink="http://www.w3.org/1999/xlink"><defs><style type="text/css"><![CDATA[
        @import url(https://cdn.jsdelivr.net/npm/firacode@6.2.0/distr/fira_code.css);
        text {
            font-family: 'STIX Two', 'STIX Two Math', 'STIXMath', 'DejaVu Math TeX Glyph',
                        'DejaVu Serif', 'Cambria Math', 'Latin Modern Math', 'FiraCode',
                        'serif';
        }
    ]]></style><style type="text/css"><![CDATA[
        @import url(https://cdn.jsdelivr.net/npm/firacode@6.2.0/distr/fira_code.css);
        text {
            font-family: 'STIX Two', 'STIX Two Math', 'STIXMath', 'DejaVu Math TeX Glyph',
                        'DejaVu Serif', 'Cambria Math', 'Latin Modern Math', 'FiraCode',
                        'serif';
        }
    ]]></style></defs><g><rect fill="black" height="2.8" stroke="none" stroke-width="0" width="2.8" x="3.6" y="3.6" /><rect fill="black" height="4.7" stroke="none" stroke-width="0" width="4.7" x="12.6" y="2.6" /><rect fill="black" height="7.4" stroke="none" stroke-width="0" width="7.4" x="21.3" y="1.3" /><rect fill="black" height="6.3" stroke="none" stroke-width="0" width="6.3" x="31.9" y="1.9" /><rect fill="black" height="8.0" stroke="none" stroke-width="0" width="8.0" x="41.0" y="1.0" /><rect fill="black" height="8.0" stroke="none" stroke-width="0" width="8.0" x="51.0" y="1.0" /><rect fill="black" height="8.9" stroke="none" stroke-width="0" width="8.9" x="60.6" y="0.6" /><rect fill="black" height="9.0" stroke="none" stroke-width="0" width="9.0" x="70.5" y="0.5" /><rect fill="black" height="8.3" stroke="none" stroke-width="0" width="8.3" x="80.8" y="0.8" /><rect fill="black" height="9.5" stroke="none" stroke-width="0" width="9.5" x="90.2" y="0.2" /><rect fill="black" height="7.9" stroke="none" stroke-width="0" width="7.9" x="101.1" y="1.1" /><rect fill="black" height="3.2" stroke="none" stroke-width="0" width="3.2" x="113.4" y="3.4" /><rect fill="black" height="7.0" stroke="none" stroke-width="0" width="7.0" x="121.5" y="1.5" /><rect fill="black" height="5.5" stroke="none" stroke-width="0" width="5.5" x="132.3" y="2.3" /><rect fill="black" height="7.6" stroke="none" stroke-width="0" width="7.6" x="141.2" y="1.2" /><rect fill="black" height="6.5" stroke="none" stroke-width="0" width="6.5" x="151.8" y="1.8" /><rect fill="black" height="8.7" stroke="none" stroke-width="0" width="8.7" x="160.7" y="0.7" /><rect fill="black" height="8.2" stroke="none" stroke-width="0" width="8.2" x="170.9" y="0.9" /><rect fill="black" height="8.9" stroke="none" stroke-width="0" width="8.9" x="180.5" y="0.5" /><rect fill="black" height="8.9" stroke="none" stroke-width="0" width="8.9" x="190.6" y="0.6" /><rect fill="black" height="8.9" stroke="none" stroke-width="0" width="8.9" x="200.6" y="0.6" /><rect fill="black" height="4.2" stroke="none" stroke-width="0" width="4.2" x="212.9" y="2.9" /><rect fill="black" height="2.6" stroke="none" stroke-width="0" width="2.6" x="223.7" y="3.7" /><rect fill="black" height="2.2" stroke="none" stroke-width="0" width="2.2" x="233.9" y="3.9" /><rect fill="black" height="2.2" stroke="none" stroke-width="0" width="2.2" x="243.9" y="3.9" /><rect fill="black" height="2.6" stroke="none" stroke-width="0" width="2.6" x="253.7" y="3.7" /><rect fill="black" height="4.2" stroke="none" stroke-width="0" width="4.2" x="262.9" y="2.9" /><rect fill="black" height="8.3" stroke="none" stroke-width="0" width="8.3" x="270.9" y="0.9" /><rect fill="black" height="2.1" stroke="none" stroke-width="0" width="2.1" x="283.9" y="3.9" /><rect fill="black" height="2.1" stroke="none" stroke-width="0" width="2.1" x="293.9" y="3.9" /><rect fill="black" height="6.0" stroke="none" stroke-width="0" width="6.0" x="302.0" y="2.0" /><rect fill="black" height="3.3" stroke="none" stroke-width="0" width="3.3" x="313.3" y="3.3" /><rect fill="black" height="2.1" stroke="none" stroke-width="0" width="2.1" x="323.9" y="3.9" /><rect fill="black" height="2.2" stroke="none" stroke-width="0" width="2.2" x="333.9" y="3.9" /><rect fill="black" height="5.6" stroke="none" stroke-width="0" width="5.6" x="342.2" y="2.2" /><rect fill="black" height="6.5" stroke="none" stroke-width="0" width="6.5" x="351.8" y="1.8" /><rect fill="black" height="5.8" stroke="none" stroke-width="0" width="5.8" x="362.1" y="2.1" /><rect fill="black" height="7.5" stroke="none" stroke-width="0" width="7.5" x="371.3" y="1.3" /><rect fill="black" height="9.2" stroke="none" stroke-width="0" width="9.2" x="380.4" y="0.4" /><rect fill="black" height="6.8" stroke="none" stroke-width="0" width="6.8" x="391.6" y="1.6" /><rect fill="black" height="6.4" stroke="none" stroke-width="0" width="6.4" x="401.8" y="1.8" /><rect fill="black" height="2.9" stroke="none" stroke-width="0" width="2.9" x="413.6" y="3.6" /><rect fill="black" height="4.6" stroke="none" stroke-width="0" width="4.6" x="422.7" y="2.7" /><rect fill="black" height="7.5" stroke="none" stroke-width="0" width="7.5" x="431.2" y="1.2" /><rect fill="black" height="9.1" stroke="none" stroke-width="0" width="9.1" x="440.5" y="0.5" /><rect fill="black" height="7.1" stroke="none" stroke-width="0" width="7.1" x="451.5" y="1.5" /><rect fill="black" height="7.2" stroke="none" stroke-width="0" width="7.2" x="461.4" y="1.4" /><rect fill="black" height="6.2" stroke="none" stroke-width="0" width="6.2" x="471.9" y="1.9" /><rect fill="black" height="6.4" stroke="none" stroke-width="0" width="6.4" x="481.8" y="1.8" /><rect fill="black" height="5.3" stroke="none" stroke-width="0" width="5.3" x="492.3" y="2.3" /><rect fill="black" height="9.4" stroke="none" stroke-width="0" width="9.4" x="500.3" y="0.3" /><rect fill="black" height="8.1" stroke="none" stroke-width="0" width="8.1" x="510.9" y="0.9" /><rect fill="black" height="7.1" stroke="none" stroke-width="0" width="7.1" x="521.4" y="1.4" /><rect fill="black" height="8.0" stroke="none" stroke-width="0" width="8.0" x="531.0" y="1.0" /><rect fill="black" height="9.3" stroke="none" stroke-width="0" width="9.3" x="540.3" y="0.3" /><rect fill="black" height="7.8" stroke="none" stroke-width="0" width="7.8" x="551.1" y="1.1" /><rect fill="black" height="3.1" stroke="none" stroke-width="0" width="3.1" x="563.5" y="3.5" /></g><g><line stroke="black" stroke-width="0.5" x1="5.0" x2="5.0" y1="-6.0" y2="-12.0" /><text dominant-baseline="middle" font-size="8px" text-anchor="middle" x="5.0" y="-24.0">const</text><line stroke="black" stroke-width="0.5" x1="65.0" x2="65.0" y1="-6.0" y2="-12.0" /><text dominant-baseline="middle" font-size="8px" text-anchor="middle" x="65.0" y="-24.0">sin 3</text><line stroke="black" stroke-width="0.5" x1="165.0" x2="165.0" y1="-6.0" y2="-12.0" /><text dominant-baseline="middle" font-size="8px" text-anchor="middle" x="165.0" y="-24.0">sin 8</text><line stroke="black" stroke-width="0.5" x1="185.0" x2="185.0" y1="-6.0" y2="-12.0" /><text dominant-baseline="middle" font-size="8px" text-anchor="middle" x="185.0" y="-24.0">sin 9</text><line stroke="black" stroke-width="0.5" x1="205.0" x2="205.0" y1="-6.0" y2="-12.0" /><text dominant-baseline="middle" font-size="8px" text-anchor="middle" x="205.0" y="-24.0">sin 10</text><line stroke="black" stroke-width="0.5" x1="385.0" x2="385.0" y1="-6.0" y2="-12.0" /><text dominant-baseline="middle" font-size="8px" text-anchor="middle" x="385.0" y="-24.0">sin 19</text><line stroke="black" stroke-width="0.5" x1="445.0" x2="445.0" y1="-6.0" y2="-12.0" /><text dominant-baseline="middle" font-size="8px" text-anchor="middle" x="445.0" y="-24.0">sin 22</text><line stroke="black" stroke-width="0.5" x1="505.0" x2="505.0" y1="-6.0" y2="-12.0" /><text dominant-baseline="middle" font-size="8px" text-anchor="middle" x="505.0" y="-24.0">sin 25</text><line stroke="black" stroke-width="0.5" x1="545.0" x2="545.0" y1="-6.0" y2="-12.0" /><text dominant-baseline="middle" font-size="8px" text-anchor="middle" x="545.0" y="-24.0">sin 27</text><line stroke="black" stroke-width="0.5" x1="75.0" x2="75.0" y1="16.0" y2="22.0" /><text dominant-baseline="middle" font-size="8px" text-anchor="middle" x="75.0" y="34.0">cos 3</text><line stroke="black" stroke-width="0.5" x1="95.0" x2="95.0" y1="16.0" y2="22.0" /><text dominant-baseline="middle" font-size="8px" text-anchor="middle" x="95.0" y="34.0">cos 4</text><line stroke="black" stroke-width="0.5" x1="195.0" x2="195.0" y1="16.0" y2="22.0" /><text dominant-baseline="middle" font-size="8px" text-anchor="middle" x="195.0" y="34.0">cos 9</text></g></svg>