<?xml version="1.0" encoding="utf-8" ?>
<svg baseProfile="full" height="100%" preserveAspectRatio="xMidYMid meet" version="1.1" viewBox="-40,-40,650,90" width="100%" xmlns="http://www.w3.org/2000/svg" xmlns:ev="http://www.w3.org/2001/xml-events" xmlns:xlink="http://www.w3.org/1999/xlink"><defs><style type="text/css"><![CDATA[
        @import url(https://cdn.jsdelivr.net/npm/firacode@6.2.0/distr/fira_code.css);
        text {
            font-family: 'STIX Two', 'STIX Two Math', 'STIXMath', 'DejaVu Math TeX Glyph',
                        'DejaVu Serif', 'Cambria Math', 'Latin Modern Math', 'FiraCode',
                        'serif';
        }
    ]]></style><style type="text/css"><![CDATA[
        @import url(https://cdn.jsdelivr.net/npm/firacode@6.2.0/distr/fira_code.css);
        text {
            font-family: 'STIX Two', 'STIX Two Math', 'STIXMath', 'DejaVu Math TeX Glyph',
                        'DejaVu Serif', 'Cambria Math', 'Latin Modern Math', 'FiraCode',
                        'serif';
        }
    ]]></style></defs><g><rect fill="black" height="9.1" stroke="none" stroke-width="0" width="9.1" x="0.5" y="0.5" /><rect fill="black" height="9.0" stroke="none" stroke-width="0" width="9.0" x="10.5" y="0.5" /><rect fill="black" height="8.9" stroke="none" stroke-width="0" width="8.9" x="20.5" y="0.5" /><rect fill="black" height="9.3" stroke="none" stroke-width="0" width="9.3" x="30.4" y="0.4" /><rect fill="black" height="9.3" stroke="none" stroke-width="0" width="9.3" x="40.3" y="0.3" /><rect fill="black" height="9.2" stroke="none" stroke-width="0" width="9.2" x="50.4" y="0.4" /><rect fill="black" height="8.7" stroke="none" stroke-width="0" width="8.7" x="60.7" y="0.7" /><rect fill="black" height="9.1" stroke="none" stroke-width="0" width="9.1" x="70.5" y="0.5" /><rect fill="black" height="9.3" stroke="none" stroke-width="0" width="9.3" x="80.4" y="0.4" /><rect fill="black" height="9.4" stroke="none" stroke-width="0" width="9.4" x="90.3" y="0.3" /><rect fill="black" height="9.1" stroke="none" stroke-width="0" width="9.1" x="100.4" y="0.4" /><rect fill="black" height="9.1" stroke="none" stroke-width="0" width="9.1" x="110.5" y="0.5" /><rect fill="black" height="8.9" stroke="none" stroke-width="0" width="8.9" x="120.5" y="0.5" /><rect fill="black" height="9.2" stroke="none" stroke-width="0" width="9.2" x="130.4" y="0.4" /><rect fill="black" height="9.5" stroke="none" stroke-width="0" width="9.5" x="140.3" y="0.3" /><rect fill="black" height="9.2" stroke="none" stroke-width="0" width="9.2" x="150.4" y="0.4" /><rect fill="black" height="9.2" stroke="none" stroke-width="0" width="9.2" x="160.4" y="0.4" /><rect fill="black" height="8.8" stroke="none" stroke-width="0" width="8.8" x="170.6" y="0.6" /><rect fill="black" height="9.0" stroke="none" stroke-width="0" width="9.0" x="180.5" y="0.5" /><rect fill="black" height="8.9" stroke="none" stroke-width="0" width="8.9" x="190.5" y="0.5" /><rect fill="black" height="9.3" stroke="none" stroke-width="0" width="9.3" x="200.3" y="0.3" /><rect fill="black" height="9.2" stroke="none" stroke-width="0" width="9.2" x="210.4" y="0.4" /><rect fill="black" height="9.4" stroke="none" stroke-width="0" width="9.4" x="220.3" y="0.3" /><rect fill="black" height="9.0" stroke="none" stroke-width="0" width="9.0" x="230.5" y="0.5" /><rect fill="black" height="8.9" stroke="none" stroke-width="0" width="8.9" x="240.6" y="0.6" /><rect fill="black" height="9.2" stroke="none" stroke-width="0" width="9.2" x="250.4" y="0.4" /><rect fill="black" height="9.2" stroke="none" stroke-width="0" width="9.2" x="260.4" y="0.4" /><rect fill="black" height="9.2" stroke="none" stroke-width="0" width="9.2" x="270.4" y="0.4" /><rect fill="black" height="2.1" stroke="none" stroke-width="0" width="2.1" x="283.9" y="3.9" /><rect fill="black" height="9.2" stroke="none" stroke-width="0" width="9.2" x="290.4" y="0.4" /><rect fill="black" height="9.5" stroke="none" stroke-width="0" width="9.5" x="300.2" y="0.2" /><rect fill="black" height="9.3" stroke="none" stroke-width="0" width="9.3" x="310.4" y="0.4" /><rect fill="black" height="9.2" stroke="none" stroke-width="0" width="9.2" x="320.4" y="0.4" /><rect fill="black" height="9.1" stroke="none" stroke-width="0" width="9.1" x="330.4" y="0.4" /><rect fill="black" height="9.2" stroke="none" stroke-width="0" width="9.2" x="340.4" y="0.4" /><rect fill="black" height="9.3" stroke="none" stroke-width="0" width="9.3" x="350.4" y="0.4" /><rect fill="black" height="9.0" stroke="none" stroke-width="0" width="9.0" x="360.5" y="0.5" /><rect fill="black" height="8.8" stroke="none" stroke-width="0" width="8.8" x="370.6" y="0.6" /><rect fill="black" height="9.1" stroke="none" stroke-width="0" width="9.1" x="380.5" y="0.5" /><rect fill="black" height="9.1" stroke="none" stroke-width="0" width="9.1" x="390.5" y="0.5" /><rect fill="black" height="8.8" stroke="none" stroke-width="0" width="8.8" x="400.6" y="0.6" /><rect fill="black" height="9.3" stroke="none" stroke-width="0" width="9.3" x="410.4" y="0.4" /><rect fill="black" height="9.4" stroke="none" stroke-width="0" width="9.4" x="420.3" y="0.3" /><rect fill="black" height="8.9" stroke="none" stroke-width="0" width="8.9" x="430.5" y="0.5" /><rect fill="black" height="9.0" stroke="none" stroke-width="0" width="9.0" x="440.5" y="0.5" /><rect fill="black" height="9.0" stroke="none" stroke-width="0" width="9.0" x="450.5" y="0.5" /><rect fill="black" height="8.8" stroke="none" stroke-width="0" width="8.8" x="460.6" y="0.6" /><rect fill="black" height="9.0" stroke="none" stroke-width="0" width="9.0" x="470.5" y="0.5" /><rect fill="black" height="9.5" stroke="none" stroke-width="0" width="9.5" x="480.3" y="0.3" /><rect fill="black" height="9.1" stroke="none" stroke-width="0" width="9.1" x="490.5" y="0.5" /><rect fill="black" height="9.4" stroke="none" stroke-width="0" width="9.4" x="500.3" y="0.3" /><rect fill="black" height="9.3" stroke="none" stroke-width="0" width="9.3" x="510.3" y="0.3" /><rect fill="black" height="8.6" stroke="none" stroke-width="0" width="8.6" x="520.7" y="0.7" /><rect fill="black" height="9.3" stroke="none" stroke-width="0" width="9.3" x="530.3" y="0.3" /><rect fill="black" height="9.0" stroke="none" stroke-width="0" width="9.0" x="540.5" y="0.5" /><rect fill="black" height="9.2" stroke="none" stroke-width="0" width="9.2" x="550.4" y="0.4" /><rect fill="black" height="9.2" stroke="none" stroke-width="0" width="9.2" x="560.4" y="0.4" /></g><g><line stroke="black" stroke-width="0.5" x1="5.0" x2="5.0" y1="-6.0" y2="-12.0" /><text dominant-baseline="middle" font-size="8px" text-anchor="middle" x="5.0" y="-24.0">const</text></g></svg>