<?xml version="1.0" encoding="utf-8" ?>
<svg baseProfile="full" height="100%" preserveAspectRatio="xMidYMid meet" version="1.1" viewBox="-40,-40,580,170" width="100%" xmlns="http://www.w3.org/2000/svg" xmlns:ev="http://www.w3.org/2001/xml-events" xmlns:xlink="http://www.w3.org/1999/xlink"><defs><style type="text/css"><![CDATA[
        @import url(https://cdn.jsdelivr.net/npm/firacode@6.2.0/distr/fira_code.css);
        text {
            font-family: 'STIX Two', 'STIX Two Math', 'STIXMath', 'DejaVu Math TeX Glyph',
                        'DejaVu Serif', 'Cambria Math', 'Latin Modern Math', 'FiraCode',
                        'serif';
        }
    ]]></style><style type="text/css"><![CDATA[
        @import url(https://cdn.jsdelivr.net/npm/firacode@6.2.0/distr/fira_code.css);
        text {
            font-family: 'STIX Two', 'STIX Two Math', 'STIXMath', 'DejaVu Math TeX Glyph',
                        'DejaVu Serif', 'Cambria Math', 'Latin Modern Math', 'FiraCode',
                        'serif';
        }
    ]]></style></defs><g><rect fill="black" height="7.6" stroke="none" stroke-width="0" width="7.6" x="1.2" y="1.2" /><rect fill="black" height="9.4" stroke="none" stroke-width="0" width="9.4" x="10.3" y="0.3" /><rect fill="black" height="9.5" stroke="none" stroke-width="0" width="9.5" x="20.2" y="0.2" /><rect fill="black" height="8.7" stroke="none" stroke-width="0" width="8.7" x="30.6" y="0.6" /><rect fill="black" height="7.9" stroke="none" stroke-width="0" width="7.9" x="41.1" y="1.1" /><rect fill="black" height="6.6" stroke="none" stroke-width="0" width="6.6" x="51.7" y="1.7" /><rect fill="black" height="6.8" stroke="none" stroke-width="0" width="6.8" x="61.6" y="1.6" /><rect fill="black" height="6.3" stroke="none" stroke-width="0" width="6.3" x="71.9" y="1.9" /><rect fill="black" height="5.9" stroke="none" stroke-width="0" width="5.9" x="82.1" y="2.1" /><rect fill="black" height="5.9" stroke="none" stroke-width="0" width="5.9" x="92.0" y="2.0" /><rect fill="black" height="5.4" stroke="none" stroke-width="0" width="5.4" x="102.3" y="2.3" /><rect fill="black" height="4.5" stroke="none" stroke-width="0" width="4.5" x="112.7" y="2.7" /><rect fill="black" height="3.5" stroke="none" stroke-width="0" width="3.5" x="123.3" y="3.3" /><rect fill="black" height="3.3" stroke="none" stroke-width="0" width="3.3" x="133.4" y="3.4" /><rect fill="black" height="3.7" stroke="none" stroke-width="0" width="3.7" x="143.1" y="3.1" /><rect fill="black" height="3.8" stroke="none" stroke-width="0" width="3.8" x="153.1" y="3.1" /><rect fill="black" height="3.4" stroke="none" stroke-width="0" width="3.4" x="163.3" y="3.3" /><rect fill="black" height="2.9" stroke="none" stroke-width="0" width="2.9" x="173.5" y="3.5" /><rect fill="black" height="2.7" stroke="none" stroke-width="0" width="2.7" x="183.6" y="3.6" /><rect fill="black" height="3.2" stroke="none" stroke-width="0" width="3.2" x="193.4" y="3.4" /><rect fill="black" height="2.3" stroke="none" stroke-width="0" width="2.3" x="203.8" y="3.8" /><rect fill="black" height="3.0" stroke="none" stroke-width="0" width="3.0" x="213.5" y="3.5" /><rect fill="black" height="2.4" stroke="none" stroke-width="0" width="2.4" x="223.8" y="3.8" /><rect fill="black" height="2.8" stroke="none" stroke-width="0" width="2.8" x="233.6" y="3.6" /><rect fill="black" height="2.1" stroke="none" stroke-width="0" width="2.1" x="243.9" y="3.9" /><rect fill="black" height="2.6" stroke="none" stroke-width="0" width="2.6" x="253.7" y="3.7" /><rect fill="black" height="3.0" stroke="none" stroke-width="0" width="3.0" x="263.5" y="3.5" /><rect fill="black" height="2.1" stroke="none" stroke-width="0" width="2.1" x="273.9" y="3.9" /><rect fill="black" height="2.1" stroke="none" stroke-width="0" width="2.1" x="283.9" y="3.9" /><rect fill="black" height="2.1" stroke="none" stroke-width="0" width="2.1" x="293.9" y="3.9" /><rect fill="black" height="2.3" stroke="none" stroke-width="0" width="2.3" x="303.9" y="3.9" /><rect fill="black" height="2.1" stroke="none" stroke-width="0" width="2.1" x="313.9" y="3.9" /><rect fill="black" height="2.2" stroke="none" stroke-width="0" width="2.2" x="323.9" y="3.9" /><rect fill="black" height="2.1" stroke="none" stroke-width="0" width="2.1" x="333.9" y="3.9" /><rect fill="black" height="2.4" stroke="none" stroke-width="0" width="2.4" x="343.8" y="3.8" /><rect fill="black" height="2.8" stroke="none" stroke-width="0" width="2.8" x="353.6" y="3.6" /><rect fill="black" height="2.1" stroke="none" stroke-width="0" width="2.1" x="363.9" y="3.9" /><rect fill="black" height="2.1" stroke="none" stroke-width="0" width="2.1" x="373.9" y="3.9" /><rect fill="black" height="2.3" stroke="none" stroke-width="0" width="2.3" x="383.8" y="3.8" /><rect fill="black" height="2.1" stroke="none" stroke-width="0" width="2.1" x="393.9" y="3.9" /><rect fill="black" height="2.5" stroke="none" stroke-width="0" width="2.5" x="403.8" y="3.8" /><rect fill="black" height="2.4" stroke="none" stroke-width="0" width="2.4" x="413.8" y="3.8" /><rect fill="black" height="2.2" stroke="none" stroke-width="0" width="2.2" x="423.9" y="3.9" /><rect fill="black" height="2.1" stroke="none" stroke-width="0" width="2.1" x="433.9" y="3.9" /><rect fill="black" height="2.1" stroke="none" stroke-width="0" width="2.1" x="443.9" y="3.9" /><rect fill="black" height="2.1" stroke="none" stroke-width="0" width="2.1" x="453.9" y="3.9" /><rect fill="black" height="3.3" stroke="none" stroke-width="0" width="3.3" x="463.4" y="3.4" /><rect fill="black" height="2.1" stroke="none" stroke-width="0" width="2.1" x="473.9" y="3.9" /><rect fill="black" height="2.4" stroke="none" stroke-width="0" width="2.4" x="483.8" y="3.8" /><rect fill="black" height="2.1" stroke="none" stroke-width="0" width="2.1" x="493.9" y="3.9" /><rect fill="black" height="6.7" stroke="none" stroke-width="0" width="6.7" x="1.7" y="11.7" /><rect fill="black" height="8.3" stroke="none" stroke-width="0" width="8.3" x="10.8" y="10.8" /><rect fill="black" height="9.5" stroke="none" stroke-width="0" width="9.5" x="20.2" y="10.2" /><rect fill="black" height="9.2" stroke="none" stroke-width="0" width="9.2" x="30.4" y="10.4" /><rect fill="black" height="9.0" stroke="none" stroke-width="0" width="9.0" x="40.5" y="10.5" /><rect fill="black" height="8.3" stroke="none" stroke-width="0" width="8.3" x="50.9" y="10.9" /><rect fill="black" height="8.0" stroke="none" stroke-width="0" width="8.0" x="61.0" y="11.0" /><rect fill="black" height="8.1" stroke="none" stroke-width="0" width="8.1" x="70.9" y="10.9" /><rect fill="black" height="8.0" stroke="none" stroke-width="0" width="8.0" x="81.0" y="11.0" /><rect fill="black" height="8.2" stroke="none" stroke-width="0" width="8.2" x="90.9" y="10.9" /><rect fill="black" height="8.0" stroke="none" stroke-width="0" width="8.0" x="101.0" y="11.0" /><rect fill="black" height="6.6" stroke="none" stroke-width="0" width="6.6" x="111.7" y="11.7" /><rect fill="black" height="5.4" stroke="none" stroke-width="0" width="5.4" x="122.3" y="12.3" /><rect fill="black" height="5.3" stroke="none" stroke-width="0" width="5.3" x="132.4" y="12.4" /><rect fill="black" height="6.2" stroke="none" stroke-width="0" width="6.2" x="141.9" y="11.9" /><rect fill="black" height="6.5" stroke="none" stroke-width="0" width="6.5" x="151.8" y="11.8" /><rect fill="black" height="5.2" stroke="none" stroke-width="0" width="5.2" x="162.4" y="12.4" /><rect fill="black" height="4.8" stroke="none" stroke-width="0" width="4.8" x="172.6" y="12.6" /><rect fill="black" height="4.6" stroke="none" stroke-width="0" width="4.6" x="182.7" y="12.7" /><rect fill="black" height="5.1" stroke="none" stroke-width="0" width="5.1" x="192.5" y="12.5" /><rect fill="black" height="3.9" stroke="none" stroke-width="0" width="3.9" x="203.0" y="13.0" /><rect fill="black" height="5.0" stroke="none" stroke-width="0" width="5.0" x="212.5" y="12.5" /><rect fill="black" height="4.0" stroke="none" stroke-width="0" width="4.0" x="223.0" y="13.0" /><rect fill="black" height="4.5" stroke="none" stroke-width="0" width="4.5" x="232.7" y="12.7" /><rect fill="black" height="3.0" stroke="none" stroke-width="0" width="3.0" x="243.5" y="13.5" /><rect fill="black" height="4.3" stroke="none" stroke-width="0" width="4.3" x="252.8" y="12.8" /><rect fill="black" height="4.5" stroke="none" stroke-width="0" width="4.5" x="262.7" y="12.7" /><rect fill="black" height="2.9" stroke="none" stroke-width="0" width="2.9" x="273.5" y="13.5" /><rect fill="black" height="3.5" stroke="none" stroke-width="0" width="3.5" x="283.2" y="13.2" /><rect fill="black" height="3.5" stroke="none" stroke-width="0" width="3.5" x="293.3" y="13.3" /><rect fill="black" height="4.1" stroke="none" stroke-width="0" width="4.1" x="302.9" y="12.9" /><rect fill="black" height="3.2" stroke="none" stroke-width="0" width="3.2" x="313.4" y="13.4" /><rect fill="black" height="3.5" stroke="none" stroke-width="0" width="3.5" x="323.3" y="13.3" /><rect fill="black" height="3.4" stroke="none" stroke-width="0" width="3.4" x="333.3" y="13.3" /><rect fill="black" height="3.8" stroke="none" stroke-width="0" width="3.8" x="343.1" y="13.1" /><rect fill="black" height="4.3" stroke="none" stroke-width="0" width="4.3" x="352.9" y="12.9" /><rect fill="black" height="3.0" stroke="none" stroke-width="0" width="3.0" x="363.5" y="13.5" /><rect fill="black" height="3.6" stroke="none" stroke-width="0" width="3.6" x="373.2" y="13.2" /><rect fill="black" height="3.7" stroke="none" stroke-width="0" width="3.7" x="383.1" y="13.1" /><rect fill="black" height="2.7" stroke="none" stroke-width="0" width="2.7" x="393.6" y="13.6" /><rect fill="black" height="4.2" stroke="none" stroke-width="0" width="4.2" x="402.9" y="12.9" /><rect fill="black" height="3.7" stroke="none" stroke-width="0" width="3.7" x="413.1" y="13.1" /><rect fill="black" height="3.7" stroke="none" stroke-width="0" width="3.7" x="423.2" y="13.2" /><rect fill="black" height="3.3" stroke="none" stroke-width="0" width="3.3" x="433.3" y="13.3" /><rect fill="black" height="3.3" stroke="none" stroke-width="0" width="3.3" x="443.4" y="13.4" /><rect fill="black" height="3.2" stroke="none" stroke-width="0" width="3.2" x="453.4" y="13.4" /><rect fill="black" height="5.5" stroke="none" stroke-width="0" width="5.5" x="462.3" y="12.3" /><rect fill="black" height="3.0" stroke="none" stroke-width="0" width="3.0" x="473.5" y="13.5" /><rect fill="black" height="4.1" stroke="none" stroke-width="0" width="4.1" x="483.0" y="13.0" /><rect fill="black" height="2.6" stroke="none" stroke-width="0" width="2.6" x="493.7" y="13.7" /><rect fill="black" height="9.1" stroke="none" stroke-width="0" width="9.1" x="0.5" y="20.5" /><rect fill="black" height="9.5" stroke="none" stroke-width="0" width="9.5" x="10.2" y="20.2" /><rect fill="black" height="8.7" stroke="none" stroke-width="0" width="8.7" x="20.7" y="20.7" /><rect fill="black" height="3.6" stroke="none" stroke-width="0" width="3.6" x="33.2" y="23.2" /><rect fill="black" height="4.8" stroke="none" stroke-width="0" width="4.8" x="42.6" y="22.6" /><rect fill="black" height="4.1" stroke="none" stroke-width="0" width="4.1" x="53.0" y="23.0" /><rect fill="black" height="3.8" stroke="none" stroke-width="0" width="3.8" x="63.1" y="23.1" /><rect fill="black" height="3.0" stroke="none" stroke-width="0" width="3.0" x="73.5" y="23.5" /><rect fill="black" height="2.1" stroke="none" stroke-width="0" width="2.1" x="83.9" y="23.9" /><rect fill="black" height="2.1" stroke="none" stroke-width="0" width="2.1" x="93.9" y="23.9" /><rect fill="black" height="2.1" stroke="none" stroke-width="0" width="2.1" x="103.9" y="23.9" /><rect fill="black" height="2.1" stroke="none" stroke-width="0" width="2.1" x="113.9" y="23.9" /><rect fill="black" height="2.1" stroke="none" stroke-width="0" width="2.1" x="123.9" y="23.9" /><rect fill="black" height="2.1" stroke="none" stroke-width="0" width="2.1" x="133.9" y="23.9" /><rect fill="black" height="2.1" stroke="none" stroke-width="0" width="2.1" x="143.9" y="23.9" /><rect fill="black" height="2.1" stroke="none" stroke-width="0" width="2.1" x="153.9" y="23.9" /><rect fill="black" height="2.1" stroke="none" stroke-width="0" width="2.1" x="163.9" y="23.9" /><rect fill="black" height="2.1" stroke="none" stroke-width="0" width="2.1" x="173.9" y="23.9" /><rect fill="black" height="2.1" stroke="none" stroke-width="0" width="2.1" x="183.9" y="23.9" /><rect fill="black" height="2.1" stroke="none" stroke-width="0" width="2.1" x="193.9" y="23.9" /><rect fill="black" height="2.1" stroke="none" stroke-width="0" width="2.1" x="203.9" y="23.9" /><rect fill="black" height="2.1" stroke="none" stroke-width="0" width="2.1" x="213.9" y="23.9" /><rect fill="black" height="2.1" stroke="none" stroke-width="0" width="2.1" x="223.9" y="23.9" /><rect fill="black" height="2.1" stroke="none" stroke-width="0" width="2.1" x="233.9" y="23.9" /><rect fill="black" height="2.1" stroke="none" stroke-width="0" width="2.1" x="243.9" y="23.9" /><rect fill="black" height="2.1" stroke="none" stroke-width="0" width="2.1" x="253.9" y="23.9" /><rect fill="black" height="2.1" stroke="none" stroke-width="0" width="2.1" x="263.9" y="23.9" /><rect fill="black" height="2.1" stroke="none" stroke-width="0" width="2.1" x="273.9" y="23.9" /><rect fill="black" height="2.1" stroke="none" stroke-width="0" width="2.1" x="283.9" y="23.9" /><rect fill="black" height="2.1" stroke="none" stroke-width="0" width="2.1" x="293.9" y="23.9" /><rect fill="black" height="2.1" stroke="none" stroke-width="0" width="2.1" x="303.9" y="23.9" /><rect fill="black" height="2.1" stroke="none" stroke-width="0" width="2.1" x="313.9" y="23.9" /><rect fill="black" height="2.1" stroke="none" stroke-width="0" width="2.1" x="323.9" y="23.9" /><rect fill="black" height="2.1" stroke="none" stroke-width="0" width="2.1" x="333.9" y="23.9" /><rect fill="black" height="2.1" stroke="none" stroke-width="0" width="2.1" x="343.9" y="23.9" /><rect fill="black" height="2.1" stroke="none" stroke-width="0" width="2.1" x="353.9" y="23.9" /><rect fill="black" height="2.1" stroke="none" stroke-width="0" width="2.1" x="363.9" y="23.9" /><rect fill="black" height="2.1" stroke="none" stroke-width="0" width="2.1" x="373.9" y="23.9" /><rect fill="black" height="2.1" stroke="none" stroke-width="0" width="2.1" x="383.9" y="23.9" /><rect fill="black" height="2.1" stroke="none" stroke-width="0" width="2.1" x="393.9" y="23.9" /><rect fill="black" height="2.1" stroke="none" stroke-width="0" width="2.1" x="403.9" y="23.9" /><rect fill="black" height="2.1" stroke="none" stroke-width="0" width="2.1" x="413.9" y="23.9" /><rect fill="black" height="2.1" stroke="none" stroke-width="0" width="2.1" x="423.9" y="23.9" /><rect fill="black" height="2.1" stroke="none" stroke-width="0" width="2.1" x="433.9" y="23.9" /><rect fill="black" height="2.1" stroke="none" stroke-width="0" width="2.1" x="443.9" y="23.9" /><rect fill="black" height="2.1" stroke="none" stroke-width="0" width="2.1" x="453.9" y="23.9" /><rect fill="black" height="2.1" stroke="none" stroke-width="0" width="2.1" x="463.9" y="23.9" /><rect fill="black" height="2.1" stroke="none" stroke-width="0" width="2.1" x="473.9" y="23.9" /><rect fill="black" height="2.1" stroke="none" stroke-width="0" width="2.1" x="483.9" y="23.9" /><rect fill="black" height="2.1" stroke="none" stroke-width="0" width="2.1" x="493.9" y="23.9" /><rect fill="black" height="8.6" stroke="none" stroke-width="0" width="8.6" x="0.7" y="30.7" /><rect fill="black" height="9.0" stroke="none" stroke-width="0" width="9.0" x="10.5" y="30.5" /><rect fill="black" height="9.5" stroke="none" stroke-width="0" width="9.5" x="20.2" y="30.2" /><rect fill="black" height="8.9" stroke="none" stroke-width="0" width="8.9" x="30.5" y="30.5" /><rect fill="black" height="8.4" stroke="none" stroke-width="0" width="8.4" x="40.8" y="30.8" /><rect fill="black" height="7.6" stroke="none" stroke-width="0" width="7.6" x="51.2" y="31.2" /><rect fill="black" height="7.3" stroke="none" stroke-width="0" width="7.3" x="61.4" y="31.4" /><rect fill="black" height="7.4" stroke="none" stroke-width="0" width="7.4" x="71.3" y="31.3" /><rect fill="black" height="7.1" stroke="none" stroke-width="0" width="7.1" x="81.4" y="31.4" /><rect fill="black" height="7.5" stroke="none" stroke-width="0" width="7.5" x="91.3" y="31.3" /><rect fill="black" height="7.1" stroke="none" stroke-width="0" width="7.1" x="101.5" y="31.5" /><rect fill="black" height="5.8" stroke="none" stroke-width="0" width="5.8" x="112.1" y="32.1" /><rect fill="black" height="4.8" stroke="none" stroke-width="0" width="4.8" x="122.6" y="32.6" /><rect fill="black" height="4.6" stroke="none" stroke-width="0" width="4.6" x="132.7" y="32.7" /><rect fill="black" height="5.4" stroke="none" stroke-width="0" width="5.4" x="142.3" y="32.3" /><rect fill="black" height="5.5" stroke="none" stroke-width="0" width="5.5" x="152.2" y="32.2" /><rect fill="black" height="4.5" stroke="none" stroke-width="0" width="4.5" x="162.8" y="32.8" /><rect fill="black" height="4.1" stroke="none" stroke-width="0" width="4.1" x="172.9" y="32.9" /><rect fill="black" height="3.9" stroke="none" stroke-width="0" width="3.9" x="183.1" y="33.1" /><rect fill="black" height="4.3" stroke="none" stroke-width="0" width="4.3" x="192.8" y="32.8" /><rect fill="black" height="3.3" stroke="none" stroke-width="0" width="3.3" x="203.4" y="33.4" /><rect fill="black" height="4.1" stroke="none" stroke-width="0" width="4.1" x="213.0" y="33.0" /><rect fill="black" height="3.3" stroke="none" stroke-width="0" width="3.3" x="223.3" y="33.3" /><rect fill="black" height="3.7" stroke="none" stroke-width="0" width="3.7" x="233.1" y="33.1" /><rect fill="black" height="2.4" stroke="none" stroke-width="0" width="2.4" x="243.8" y="33.8" /><rect fill="black" height="3.5" stroke="none" stroke-width="0" width="3.5" x="253.3" y="33.3" /><rect fill="black" height="3.6" stroke="none" stroke-width="0" width="3.6" x="263.2" y="33.2" /><rect fill="black" height="2.3" stroke="none" stroke-width="0" width="2.3" x="273.9" y="33.9" /><rect fill="black" height="2.8" stroke="none" stroke-width="0" width="2.8" x="283.6" y="33.6" /><rect fill="black" height="2.7" stroke="none" stroke-width="0" width="2.7" x="293.6" y="33.6" /><rect fill="black" height="3.2" stroke="none" stroke-width="0" width="3.2" x="303.4" y="33.4" /><rect fill="black" height="2.4" stroke="none" stroke-width="0" width="2.4" x="313.8" y="33.8" /><rect fill="black" height="2.6" stroke="none" stroke-width="0" width="2.6" x="323.7" y="33.7" /><rect fill="black" height="2.6" stroke="none" stroke-width="0" width="2.6" x="333.7" y="33.7" /><rect fill="black" height="2.8" stroke="none" stroke-width="0" width="2.8" x="343.6" y="33.6" /><rect fill="black" height="3.3" stroke="none" stroke-width="0" width="3.3" x="353.4" y="33.4" /><rect fill="black" height="2.2" stroke="none" stroke-width="0" width="2.2" x="363.9" y="33.9" /><rect fill="black" height="2.7" stroke="none" stroke-width="0" width="2.7" x="373.7" y="33.7" /><rect fill="black" height="2.8" stroke="none" stroke-width="0" width="2.8" x="383.6" y="33.6" /><rect fill="black" height="2.1" stroke="none" stroke-width="0" width="2.1" x="393.9" y="33.9" /><rect fill="black" height="3.2" stroke="none" stroke-width="0" width="3.2" x="403.4" y="33.4" /><rect fill="black" height="2.7" stroke="none" stroke-width="0" width="2.7" x="413.6" y="33.6" /><rect fill="black" height="2.7" stroke="none" stroke-width="0" width="2.7" x="423.7" y="33.7" /><rect fill="black" height="2.4" stroke="none" stroke-width="0" width="2.4" x="433.8" y="33.8" /><rect fill="black" height="2.3" stroke="none" stroke-width="0" width="2.3" x="443.8" y="33.8" /><rect fill="black" height="2.3" stroke="none" stroke-width="0" width="2.3" x="453.9" y="33.9" /><rect fill="black" height="3.5" stroke="none" stroke-width="0" width="3.5" x="463.3" y="33.3" /><rect fill="black" height="2.1" stroke="none" stroke-width="0" width="2.1" x="473.9" y="33.9" /><rect fill="black" height="2.9" stroke="none" stroke-width="0" width="2.9" x="483.5" y="33.5" /><rect fill="black" height="2.1" stroke="none" stroke-width="0" width="2.1" x="493.9" y="33.9" /><rect fill="black" height="9.5" stroke="none" stroke-width="0" width="9.5" x="0.2" y="40.2" /><rect fill="black" height="7.3" stroke="none" stroke-width="0" width="7.3" x="11.4" y="41.4" /><rect fill="black" height="3.2" stroke="none" stroke-width="0" width="3.2" x="23.4" y="43.4" /><rect fill="black" height="2.8" stroke="none" stroke-width="0" width="2.8" x="33.6" y="43.6" /><rect fill="black" height="3.3" stroke="none" stroke-width="0" width="3.3" x="43.4" y="43.4" /><rect fill="black" height="2.2" stroke="none" stroke-width="0" width="2.2" x="53.9" y="43.9" /><rect fill="black" height="2.1" stroke="none" stroke-width="0" width="2.1" x="63.9" y="43.9" /><rect fill="black" height="2.1" stroke="none" stroke-width="0" width="2.1" x="73.9" y="43.9" /><rect fill="black" height="2.1" stroke="none" stroke-width="0" width="2.1" x="83.9" y="43.9" /><rect fill="black" height="2.1" stroke="none" stroke-width="0" width="2.1" x="93.9" y="43.9" /><rect fill="black" height="2.1" stroke="none" stroke-width="0" width="2.1" x="103.9" y="43.9" /><rect fill="black" height="2.1" stroke="none" stroke-width="0" width="2.1" x="113.9" y="43.9" /><rect fill="black" height="2.1" stroke="none" stroke-width="0" width="2.1" x="123.9" y="43.9" /><rect fill="black" height="2.1" stroke="none" stroke-width="0" width="2.1" x="133.9" y="43.9" /><rect fill="black" height="2.1" stroke="none" stroke-width="0" width="2.1" x="143.9" y="43.9" /><rect fill="black" height="2.1" stroke="none" stroke-width="0" width="2.1" x="153.9" y="43.9" /><rect fill="black" height="2.1" stroke="none" stroke-width="0" width="2.1" x="163.9" y="43.9" /><rect fill="black" height="2.1" stroke="none" stroke-width="0" width="2.1" x="173.9" y="43.9" /><rect fill="black" height="2.1" stroke="none" stroke-width="0" width="2.1" x="183.9" y="43.9" /><rect fill="black" height="2.1" stroke="none" stroke-width="0" width="2.1" x="193.9" y="43.9" /><rect fill="black" height="2.1" stroke="none" stroke-width="0" width="2.1" x="203.9" y="43.9" /><rect fill="black" height="2.1" stroke="none" stroke-width="0" width="2.1" x="213.9" y="43.9" /><rect fill="black" height="2.1" stroke="none" stroke-width="0" width="2.1" x="223.9" y="43.9" /><rect fill="black" height="2.1" stroke="none" stroke-width="0" width="2.1" x="233.9" y="43.9" /><rect fill="black" height="2.1" stroke="none" stroke-width="0" width="2.1" x="243.9" y="43.9" /><rect fill="black" height="2.1" stroke="none" stroke-width="0" width="2.1" x="253.9" y="43.9" /><rect fill="black" height="2.1" stroke="none" stroke-width="0" width="2.1" x="263.9" y="43.9" /><rect fill="black" height="2.1" stroke="none" stroke-width="0" width="2.1" x="273.9" y="43.9" /><rect fill="black" height="2.1" stroke="none" stroke-width="0" width="2.1" x="283.9" y="43.9" /><rect fill="black" height="2.1" stroke="none" stroke-width="0" width="2.1" x="293.9" y="43.9" /><rect fill="black" height="2.1" stroke="none" stroke-width="0" width="2.1" x="303.9" y="43.9" /><rect fill="black" height="2.1" stroke="none" stroke-width="0" width="2.1" x="313.9" y="43.9" /><rect fill="black" height="2.1" stroke="none" stroke-width="0" width="2.1" x="323.9" y="43.9" /><rect fill="black" height="2.1" stroke="none" stroke-width="0" width="2.1" x="333.9" y="43.9" /><rect fill="black" height="2.1" stroke="none" stroke-width="0" width="2.1" x="343.9" y="43.9" /><rect fill="black" height="2.1" stroke="none" stroke-width="0" width="2.1" x="353.9" y="43.9" /><rect fill="black" height="2.1" stroke="none" stroke-width="0" width="2.1" x="363.9" y="43.9" /><rect fill="black" height="2.1" stroke="none" stroke-width="0" width="2.1" x="373.9" y="43.9" /><rect fill="black" height="2.1" stroke="none" stroke-width="0" width="2.1" x="383.9" y="43.9" /><rect fill="black" height="2.1" stroke="none" stroke-width="0" width="2.1" x="393.9" y="43.9" /><rect fill="black" height="2.1" stroke="none" stroke-width="0" width="2.1" x="403.9" y="43.9" /><rect fill="black" height="2.1" stroke="none" stroke-width="0" width="2.1" x="413.9" y="43.9" /><rect fill="black" height="2.1" stroke="none" stroke-width="0" width="2.1" x="423.9" y="43.9" /><rect fill="black" height="2.1" stroke="none" stroke-width="0" width="2.1" x="433.9" y="43.9" /><rect fill="black" height="2.1" stroke="none" stroke-width="0" width="2.1" x="443.9" y="43.9" /><rect fill="black" height="2.1" stroke="none" stroke-width="0" width="2.1" x="453.9" y="43.9" /><rect fill="black" height="2.1" stroke="none" stroke-width="0" width="2.1" x="463.9" y="43.9" /><rect fill="black" height="2.1" stroke="none" stroke-width="0" width="2.1" x="473.9" y="43.9" /><rect fill="black" height="2.1" stroke="none" stroke-width="0" width="2.1" x="483.9" y="43.9" /><rect fill="black" height="2.1" stroke="none" stroke-width="0" width="2.1" x="493.9" y="43.9" /><rect fill="black" height="8.5" stroke="none" stroke-width="0" width="8.5" x="0.8" y="50.8" /><rect fill="black" height="9.5" stroke="none" stroke-width="0" width="9.5" x="10.3" y="50.3" /><rect fill="black" height="9.5" stroke="none" stroke-width="0" width="9.5" x="20.2" y="50.2" /><rect fill="black" height="8.7" stroke="none" stroke-width="0" width="8.7" x="30.7" y="50.7" /><rect fill="black" height="6.9" stroke="none" stroke-width="0" width="6.9" x="41.5" y="51.5" /><rect fill="black" height="5.4" stroke="none" stroke-width="0" width="5.4" x="52.3" y="52.3" /><rect fill="black" height="4.9" stroke="none" stroke-width="0" width="4.9" x="62.5" y="52.5" /><rect fill="black" height="4.4" stroke="none" stroke-width="0" width="4.4" x="72.8" y="52.8" /><rect fill="black" height="4.0" stroke="none" stroke-width="0" width="4.0" x="83.0" y="53.0" /><rect fill="black" height="3.8" stroke="none" stroke-width="0" width="3.8" x="93.1" y="53.1" /><rect fill="black" height="3.4" stroke="none" stroke-width="0" width="3.4" x="103.3" y="53.3" /><rect fill="black" height="2.6" stroke="none" stroke-width="0" width="2.6" x="113.7" y="53.7" /><rect fill="black" height="2.1" stroke="none" stroke-width="0" width="2.1" x="123.9" y="53.9" /><rect fill="black" height="2.1" stroke="none" stroke-width="0" width="2.1" x="133.9" y="53.9" /><rect fill="black" height="2.2" stroke="none" stroke-width="0" width="2.2" x="143.9" y="53.9" /><rect fill="black" height="2.2" stroke="none" stroke-width="0" width="2.2" x="153.9" y="53.9" /><rect fill="black" height="2.1" stroke="none" stroke-width="0" width="2.1" x="163.9" y="53.9" /><rect fill="black" height="2.1" stroke="none" stroke-width="0" width="2.1" x="173.9" y="53.9" /><rect fill="black" height="2.1" stroke="none" stroke-width="0" width="2.1" x="183.9" y="53.9" /><rect fill="black" height="2.1" stroke="none" stroke-width="0" width="2.1" x="193.9" y="53.9" /><rect fill="black" height="2.1" stroke="none" stroke-width="0" width="2.1" x="203.9" y="53.9" /><rect fill="black" height="2.1" stroke="none" stroke-width="0" width="2.1" x="213.9" y="53.9" /><rect fill="black" height="2.1" stroke="none" stroke-width="0" width="2.1" x="223.9" y="53.9" /><rect fill="black" height="2.1" stroke="none" stroke-width="0" width="2.1" x="233.9" y="53.9" /><rect fill="black" height="2.1" stroke="none" stroke-width="0" width="2.1" x="243.9" y="53.9" /><rect fill="black" height="2.1" stroke="none" stroke-width="0" width="2.1" x="253.9" y="53.9" /><rect fill="black" height="2.1" stroke="none" stroke-width="0" width="2.1" x="263.9" y="53.9" /><rect fill="black" height="2.1" stroke="none" stroke-width="0" width="2.1" x="273.9" y="53.9" /><rect fill="black" height="2.1" stroke="none" stroke-width="0" width="2.1" x="283.9" y="53.9" /><rect fill="black" height="2.1" stroke="none" stroke-width="0" width="2.1" x="293.9" y="53.9" /><rect fill="black" height="2.1" stroke="none" stroke-width="0" width="2.1" x="303.9" y="53.9" /><rect fill="black" height="2.1" stroke="none" stroke-width="0" width="2.1" x="313.9" y="53.9" /><rect fill="black" height="2.1" stroke="none" stroke-width="0" width="2.1" x="323.9" y="53.9" /><rect fill="black" height="2.1" stroke="none" stroke-width="0" width="2.1" x="333.9" y="53.9" /><rect fill="black" height="2.1" stroke="none" stroke-width="0" width="2.1" x="343.9" y="53.9" /><rect fill="black" height="2.1" stroke="none" stroke-width="0" width="2.1" x="353.9" y="53.9" /><rect fill="black" height="2.1" stroke="none" stroke-width="0" width="2.1" x="363.9" y="53.9" /><rect fill="black" height="2.1" stroke="none" stroke-width="0" width="2.1" x="373.9" y="53.9" /><rect fill="black" height="2.1" stroke="none" stroke-width="0" width="2.1" x="383.9" y="53.9" /><rect fill="black" height="2.1" stroke="none" stroke-width="0" width="2.1" x="393.9" y="53.9" /><rect fill="black" height="2.1" stroke="none" stroke-width="0" width="2.1" x="403.9" y="53.9" /><rect fill="black" height="2.1" stroke="none" stroke-width="0" width="2.1" x="413.9" y="53.9" /><rect fill="black" height="2.1" stroke="none" stroke-width="0" width="2.1" x="423.9" y="53.9" /><rect fill="black" height="2.1" stroke="none" stroke-width="0" width="2.1" x="433.9" y="53.9" /><rect fill="black" height="2.1" stroke="none" stroke-width="0" width="2.1" x="443.9" y="53.9" /><rect fill="black" height="2.1" stroke="none" stroke-width="0" width="2.1" x="453.9" y="53.9" /><rect fill="black" height="2.1" stroke="none" stroke-width="0" width="2.1" x="463.9" y="53.9" /><rect fill="black" height="2.1" stroke="none" stroke-width="0" width="2.1" x="473.9" y="53.9" /><rect fill="black" height="2.1" stroke="none" stroke-width="0" width="2.1" x="483.9" y="53.9" /><rect fill="black" height="2.1" stroke="none" stroke-width="0" width="2.1" x="493.9" y="53.9" /><rect fill="black" height="5.9" stroke="none" stroke-width="0" width="5.9" x="2.1" y="62.1" /><rect fill="black" height="7.3" stroke="none" stroke-width="0" width="7.3" x="11.3" y="61.3" /><rect fill="black" height="8.9" stroke="none" stroke-width="0" width="8.9" x="20.5" y="60.5" /><rect fill="black" height="9.1" stroke="none" stroke-width="0" width="9.1" x="30.5" y="60.5" /><rect fill="black" height="9.3" stroke="none" stroke-width="0" width="9.3" x="40.3" y="60.3" /><rect fill="black" height="9.0" stroke="none" stroke-width="0" width="9.0" x="50.5" y="60.5" /><rect fill="black" height="8.9" stroke="none" stroke-width="0" width="8.9" x="60.5" y="60.5" /><rect fill="black" height="9.1" stroke="none" stroke-width="0" width="9.1" x="70.4" y="60.4" /><rect fill="black" height="9.0" stroke="none" stroke-width="0" width="9.0" x="80.5" y="60.5" /><rect fill="black" height="9.5" stroke="none" stroke-width="0" width="9.5" x="90.2" y="60.2" /><rect fill="black" height="9.4" stroke="none" stroke-width="0" width="9.4" x="100.3" y="60.3" /><rect fill="black" height="7.8" stroke="none" stroke-width="0" width="7.8" x="111.1" y="61.1" /><rect fill="black" height="6.5" stroke="none" stroke-width="0" width="6.5" x="121.8" y="61.8" /><rect fill="black" height="6.4" stroke="none" stroke-width="0" width="6.4" x="131.8" y="61.8" /><rect fill="black" height="7.6" stroke="none" stroke-width="0" width="7.6" x="141.2" y="61.2" /><rect fill="black" height="7.9" stroke="none" stroke-width="0" width="7.9" x="151.0" y="61.0" /><rect fill="black" height="6.5" stroke="none" stroke-width="0" width="6.5" x="161.8" y="61.8" /><rect fill="black" height="6.0" stroke="none" stroke-width="0" width="6.0" x="172.0" y="62.0" /><rect fill="black" height="5.8" stroke="none" stroke-width="0" width="5.8" x="182.1" y="62.1" /><rect fill="black" height="6.5" stroke="none" stroke-width="0" width="6.5" x="191.7" y="61.7" /><rect fill="black" height="5.1" stroke="none" stroke-width="0" width="5.1" x="202.5" y="62.5" /><rect fill="black" height="6.5" stroke="none" stroke-width="0" width="6.5" x="211.8" y="61.8" /><rect fill="black" height="5.2" stroke="none" stroke-width="0" width="5.2" x="222.4" y="62.4" /><rect fill="black" height="6.0" stroke="none" stroke-width="0" width="6.0" x="232.0" y="62.0" /><rect fill="black" height="4.0" stroke="none" stroke-width="0" width="4.0" x="243.0" y="63.0" /><rect fill="black" height="5.6" stroke="none" stroke-width="0" width="5.6" x="252.2" y="62.2" /><rect fill="black" height="6.0" stroke="none" stroke-width="0" width="6.0" x="262.0" y="62.0" /><rect fill="black" height="4.3" stroke="none" stroke-width="0" width="4.3" x="272.9" y="62.9" /><rect fill="black" height="4.7" stroke="none" stroke-width="0" width="4.7" x="282.6" y="62.6" /><rect fill="black" height="4.6" stroke="none" stroke-width="0" width="4.6" x="292.7" y="62.7" /><rect fill="black" height="5.6" stroke="none" stroke-width="0" width="5.6" x="302.2" y="62.2" /><rect fill="black" height="4.1" stroke="none" stroke-width="0" width="4.1" x="313.0" y="63.0" /><rect fill="black" height="4.5" stroke="none" stroke-width="0" width="4.5" x="322.7" y="62.7" /><rect fill="black" height="4.7" stroke="none" stroke-width="0" width="4.7" x="332.6" y="62.6" /><rect fill="black" height="4.9" stroke="none" stroke-width="0" width="4.9" x="342.5" y="62.5" /><rect fill="black" height="5.9" stroke="none" stroke-width="0" width="5.9" x="352.0" y="62.0" /><rect fill="black" height="4.3" stroke="none" stroke-width="0" width="4.3" x="362.9" y="62.9" /><rect fill="black" height="4.9" stroke="none" stroke-width="0" width="4.9" x="372.5" y="62.5" /><rect fill="black" height="5.0" stroke="none" stroke-width="0" width="5.0" x="382.5" y="62.5" /><rect fill="black" height="3.6" stroke="none" stroke-width="0" width="3.6" x="393.2" y="63.2" /><rect fill="black" height="5.8" stroke="none" stroke-width="0" width="5.8" x="402.1" y="62.1" /><rect fill="black" height="5.1" stroke="none" stroke-width="0" width="5.1" x="412.4" y="62.4" /><rect fill="black" height="5.0" stroke="none" stroke-width="0" width="5.0" x="422.5" y="62.5" /><rect fill="black" height="4.5" stroke="none" stroke-width="0" width="4.5" x="432.7" y="62.7" /><rect fill="black" height="4.5" stroke="none" stroke-width="0" width="4.5" x="442.7" y="62.7" /><rect fill="black" height="4.5" stroke="none" stroke-width="0" width="4.5" x="452.8" y="62.8" /><rect fill="black" height="7.6" stroke="none" stroke-width="0" width="7.6" x="461.2" y="61.2" /><rect fill="black" height="4.0" stroke="none" stroke-width="0" width="4.0" x="473.0" y="63.0" /><rect fill="black" height="5.7" stroke="none" stroke-width="0" width="5.7" x="482.2" y="62.2" /><rect fill="black" height="3.5" stroke="none" stroke-width="0" width="3.5" x="493.3" y="63.3" /><rect fill="black" height="4.1" stroke="none" stroke-width="0" width="4.1" x="3.0" y="73.0" /><rect fill="black" height="5.8" stroke="none" stroke-width="0" width="5.8" x="12.1" y="72.1" /><rect fill="black" height="7.5" stroke="none" stroke-width="0" width="7.5" x="21.3" y="71.3" /><rect fill="black" height="8.3" stroke="none" stroke-width="0" width="8.3" x="30.9" y="70.9" /><rect fill="black" height="7.9" stroke="none" stroke-width="0" width="7.9" x="41.0" y="71.0" /><rect fill="black" height="8.5" stroke="none" stroke-width="0" width="8.5" x="50.7" y="70.7" /><rect fill="black" height="9.1" stroke="none" stroke-width="0" width="9.1" x="60.5" y="70.5" /><rect fill="black" height="8.9" stroke="none" stroke-width="0" width="8.9" x="70.6" y="70.6" /><rect fill="black" height="8.8" stroke="none" stroke-width="0" width="8.8" x="80.6" y="70.6" /><rect fill="black" height="8.9" stroke="none" stroke-width="0" width="8.9" x="90.6" y="70.6" /><rect fill="black" height="9.5" stroke="none" stroke-width="0" width="9.5" x="100.2" y="70.2" /><rect fill="black" height="8.4" stroke="none" stroke-width="0" width="8.4" x="110.8" y="70.8" /><rect fill="black" height="6.8" stroke="none" stroke-width="0" width="6.8" x="121.6" y="71.6" /><rect fill="black" height="6.5" stroke="none" stroke-width="0" width="6.5" x="131.7" y="71.7" /><rect fill="black" height="7.9" stroke="none" stroke-width="0" width="7.9" x="141.0" y="71.0" /><rect fill="black" height="8.2" stroke="none" stroke-width="0" width="8.2" x="150.9" y="70.9" /><rect fill="black" height="6.3" stroke="none" stroke-width="0" width="6.3" x="161.8" y="71.8" /><rect fill="black" height="5.7" stroke="none" stroke-width="0" width="5.7" x="172.2" y="72.2" /><rect fill="black" height="5.6" stroke="none" stroke-width="0" width="5.6" x="182.2" y="72.2" /><rect fill="black" height="6.6" stroke="none" stroke-width="0" width="6.6" x="191.7" y="71.7" /><rect fill="black" height="4.9" stroke="none" stroke-width="0" width="4.9" x="202.6" y="72.6" /><rect fill="black" height="6.3" stroke="none" stroke-width="0" width="6.3" x="211.8" y="71.8" /><rect fill="black" height="4.8" stroke="none" stroke-width="0" width="4.8" x="222.6" y="72.6" /><rect fill="black" height="5.7" stroke="none" stroke-width="0" width="5.7" x="232.2" y="72.2" /><rect fill="black" height="3.7" stroke="none" stroke-width="0" width="3.7" x="243.1" y="73.1" /><rect fill="black" height="4.8" stroke="none" stroke-width="0" width="4.8" x="252.6" y="72.6" /><rect fill="black" height="5.5" stroke="none" stroke-width="0" width="5.5" x="262.2" y="72.2" /><rect fill="black" height="4.1" stroke="none" stroke-width="0" width="4.1" x="272.9" y="72.9" /><rect fill="black" height="4.5" stroke="none" stroke-width="0" width="4.5" x="282.8" y="72.8" /><rect fill="black" height="4.1" stroke="none" stroke-width="0" width="4.1" x="292.9" y="72.9" /><rect fill="black" height="5.1" stroke="none" stroke-width="0" width="5.1" x="302.4" y="72.4" /><rect fill="black" height="3.4" stroke="none" stroke-width="0" width="3.4" x="313.3" y="73.3" /><rect fill="black" height="3.7" stroke="none" stroke-width="0" width="3.7" x="323.2" y="73.2" /><rect fill="black" height="3.9" stroke="none" stroke-width="0" width="3.9" x="333.1" y="73.1" /><rect fill="black" height="4.1" stroke="none" stroke-width="0" width="4.1" x="342.9" y="72.9" /><rect fill="black" height="5.7" stroke="none" stroke-width="0" width="5.7" x="352.2" y="72.2" /><rect fill="black" height="3.6" stroke="none" stroke-width="0" width="3.6" x="363.2" y="73.2" /><rect fill="black" height="3.7" stroke="none" stroke-width="0" width="3.7" x="373.2" y="73.2" /><rect fill="black" height="4.4" stroke="none" stroke-width="0" width="4.4" x="382.8" y="72.8" /><rect fill="black" height="2.7" stroke="none" stroke-width="0" width="2.7" x="393.6" y="73.6" /><rect fill="black" height="5.1" stroke="none" stroke-width="0" width="5.1" x="402.5" y="72.5" /><rect fill="black" height="4.8" stroke="none" stroke-width="0" width="4.8" x="412.6" y="72.6" /><rect fill="black" height="4.3" stroke="none" stroke-width="0" width="4.3" x="422.8" y="72.8" /><rect fill="black" height="3.5" stroke="none" stroke-width="0" width="3.5" x="433.2" y="73.2" /><rect fill="black" height="3.3" stroke="none" stroke-width="0" width="3.3" x="443.4" y="73.4" /><rect fill="black" height="3.2" stroke="none" stroke-width="0" width="3.2" x="453.4" y="73.4" /><rect fill="black" height="5.5" stroke="none" stroke-width="0" width="5.5" x="462.3" y="72.3" /><rect fill="black" height="3.0" stroke="none" stroke-width="0" width="3.0" x="473.5" y="73.5" /><rect fill="black" height="4.8" stroke="none" stroke-width="0" width="4.8" x="482.6" y="72.6" /><rect fill="black" height="2.3" stroke="none" stroke-width="0" width="2.3" x="493.9" y="73.9" /><rect fill="black" height="8.8" stroke="none" stroke-width="0" width="8.8" x="0.6" y="80.6" /><rect fill="black" height="8.3" stroke="none" stroke-width="0" width="8.3" x="10.9" y="80.9" /><rect fill="black" height="8.8" stroke="none" stroke-width="0" width="8.8" x="20.6" y="80.6" /><rect fill="black" height="8.9" stroke="none" stroke-width="0" width="8.9" x="30.6" y="80.6" /><rect fill="black" height="8.6" stroke="none" stroke-width="0" width="8.6" x="40.7" y="80.7" /><rect fill="black" height="8.7" stroke="none" stroke-width="0" width="8.7" x="50.7" y="80.7" /><rect fill="black" height="8.8" stroke="none" stroke-width="0" width="8.8" x="60.6" y="80.6" /><rect fill="black" height="8.7" stroke="none" stroke-width="0" width="8.7" x="70.6" y="80.6" /><rect fill="black" height="9.0" stroke="none" stroke-width="0" width="9.0" x="80.5" y="80.5" /><rect fill="black" height="9.3" stroke="none" stroke-width="0" width="9.3" x="90.3" y="80.3" /><rect fill="black" height="9.5" stroke="none" stroke-width="0" width="9.5" x="100.2" y="80.2" /><rect fill="black" height="8.9" stroke="none" stroke-width="0" width="8.9" x="110.6" y="80.6" /><rect fill="black" height="7.6" stroke="none" stroke-width="0" width="7.6" x="121.2" y="81.2" /><rect fill="black" height="7.7" stroke="none" stroke-width="0" width="7.7" x="131.1" y="81.1" /><rect fill="black" height="9.1" stroke="none" stroke-width="0" width="9.1" x="140.5" y="80.5" /><rect fill="black" height="9.2" stroke="none" stroke-width="0" width="9.2" x="150.4" y="80.4" /><rect fill="black" height="8.3" stroke="none" stroke-width="0" width="8.3" x="160.9" y="80.9" /><rect fill="black" height="7.7" stroke="none" stroke-width="0" width="7.7" x="171.2" y="81.2" /><rect fill="black" height="7.5" stroke="none" stroke-width="0" width="7.5" x="181.2" y="81.2" /><rect fill="black" height="8.3" stroke="none" stroke-width="0" width="8.3" x="190.9" y="80.9" /><rect fill="black" height="6.9" stroke="none" stroke-width="0" width="6.9" x="201.6" y="81.6" /><rect fill="black" height="8.4" stroke="none" stroke-width="0" width="8.4" x="210.8" y="80.8" /><rect fill="black" height="7.2" stroke="none" stroke-width="0" width="7.2" x="221.4" y="81.4" /><rect fill="black" height="8.1" stroke="none" stroke-width="0" width="8.1" x="230.9" y="80.9" /><rect fill="black" height="6.0" stroke="none" stroke-width="0" width="6.0" x="242.0" y="82.0" /><rect fill="black" height="7.9" stroke="none" stroke-width="0" width="7.9" x="251.0" y="81.0" /><rect fill="black" height="8.1" stroke="none" stroke-width="0" width="8.1" x="261.0" y="81.0" /><rect fill="black" height="6.5" stroke="none" stroke-width="0" width="6.5" x="271.7" y="81.7" /><rect fill="black" height="6.6" stroke="none" stroke-width="0" width="6.6" x="281.7" y="81.7" /><rect fill="black" height="6.7" stroke="none" stroke-width="0" width="6.7" x="291.6" y="81.6" /><rect fill="black" height="7.9" stroke="none" stroke-width="0" width="7.9" x="301.0" y="81.0" /><rect fill="black" height="5.9" stroke="none" stroke-width="0" width="5.9" x="312.1" y="82.1" /><rect fill="black" height="6.7" stroke="none" stroke-width="0" width="6.7" x="321.6" y="81.6" /><rect fill="black" height="6.4" stroke="none" stroke-width="0" width="6.4" x="331.8" y="81.8" /><rect fill="black" height="7.2" stroke="none" stroke-width="0" width="7.2" x="341.4" y="81.4" /><rect fill="black" height="8.6" stroke="none" stroke-width="0" width="8.6" x="350.7" y="80.7" /><rect fill="black" height="6.3" stroke="none" stroke-width="0" width="6.3" x="361.8" y="81.8" /><rect fill="black" height="6.9" stroke="none" stroke-width="0" width="6.9" x="371.6" y="81.6" /><rect fill="black" height="7.4" stroke="none" stroke-width="0" width="7.4" x="381.3" y="81.3" /><rect fill="black" height="5.3" stroke="none" stroke-width="0" width="5.3" x="392.4" y="82.4" /><rect fill="black" height="8.2" stroke="none" stroke-width="0" width="8.2" x="400.9" y="80.9" /><rect fill="black" height="7.6" stroke="none" stroke-width="0" width="7.6" x="411.2" y="81.2" /><rect fill="black" height="7.2" stroke="none" stroke-width="0" width="7.2" x="421.4" y="81.4" /><rect fill="black" height="6.5" stroke="none" stroke-width="0" width="6.5" x="431.7" y="81.7" /><rect fill="black" height="6.2" stroke="none" stroke-width="0" width="6.2" x="441.9" y="81.9" /><rect fill="black" height="6.1" stroke="none" stroke-width="0" width="6.1" x="451.9" y="81.9" /><rect fill="black" height="8.0" stroke="none" stroke-width="0" width="8.0" x="461.0" y="81.0" /><rect fill="black" height="5.8" stroke="none" stroke-width="0" width="5.8" x="472.1" y="82.1" /><rect fill="black" height="7.9" stroke="none" stroke-width="0" width="7.9" x="481.0" y="81.0" /><rect fill="black" height="5.5" stroke="none" stroke-width="0" width="5.5" x="492.3" y="82.3" /></g><g><text font-size="10px" text-anchor="middle" x="250.0" y="-22.0">Gradient L2 norms for different weight parameters</text><line stroke="black" stroke-width="0.5" x1="506.0" x2="512.0" y1="5.0" y2="5.0" /><text dominant-baseline="middle" font-size="10px" text-anchor="start" x="524.0" y="5.0">e.p</text><line stroke="black" stroke-width="0.5" x1="506.0" x2="512.0" y1="15.0" y2="15.0" /><text dominant-baseline="middle" font-size="10px" text-anchor="start" x="524.0" y="15.0">e.t</text><line stroke="black" stroke-width="0.5" x1="506.0" x2="512.0" y1="25.0" y2="25.0" /><text dominant-baseline="middle" font-size="10px" text-anchor="start" x="524.0" y="25.0">a.k</text><line stroke="black" stroke-width="0.5" x1="506.0" x2="512.0" y1="35.0" y2="35.0" /><text dominant-baseline="middle" font-size="10px" text-anchor="start" x="524.0" y="35.0">a.o</text><line stroke="black" stroke-width="0.5" x1="506.0" x2="512.0" y1="45.0" y2="45.0" /><text dominant-baseline="middle" font-size="10px" text-anchor="start" x="524.0" y="45.0">a.q</text><line stroke="black" stroke-width="0.5" x1="506.0" x2="512.0" y1="55.0" y2="55.0" /><text dominant-baseline="middle" font-size="10px" text-anchor="start" x="524.0" y="55.0">a.v</text><line stroke="black" stroke-width="0.5" x1="506.0" x2="512.0" y1="65.0" y2="65.0" /><text dominant-baseline="middle" font-size="10px" text-anchor="start" x="524.0" y="65.0">w.i</text><line stroke="black" stroke-width="0.5" x1="506.0" x2="512.0" y1="75.0" y2="75.0" /><text dominant-baseline="middle" font-size="10px" text-anchor="start" x="524.0" y="75.0">w.o</text><line stroke="black" stroke-width="0.5" x1="506.0" x2="512.0" y1="85.0" y2="85.0" /><text dominant-baseline="middle" font-size="10px" text-anchor="start" x="524.0" y="85.0">e.u</text><line stroke="black" stroke-width="0.5" x1="5.0" x2="5.0" y1="96.0" y2="102.0" /><text dominant-baseline="middle" font-size="10px" text-anchor="middle" x="5.0" y="114.0">1</text><line stroke="black" stroke-width="0.5" x1="495.0" x2="495.0" y1="96.0" y2="102.0" /><text dominant-baseline="middle" font-size="10px" text-anchor="middle" x="495.0" y="114.0">65536</text><text font-size="10px" text-anchor="middle" x="250.0" y="112.0">Time (linear)</text><text font-size="10px" text-anchor="middle" transform="rotate(-90, -22.0, 45.0)" x="-22.0" y="45.0">Gradient Norm (L2)</text></g></svg>