<?xml version="1.0" encoding="utf-8" ?>
<svg baseProfile="full" height="100%" preserveAspectRatio="xMidYMid meet" version="1.1" viewBox="-40,-40,1760,90" width="100%" xmlns="http://www.w3.org/2000/svg" xmlns:ev="http://www.w3.org/2001/xml-events" xmlns:xlink="http://www.w3.org/1999/xlink"><defs><style type="text/css"><![CDATA[
        @import url(https://cdn.jsdelivr.net/npm/firacode@6.2.0/distr/fira_code.css);
        text {
            font-family: 'STIX Two', 'STIX Two Math', 'STIXMath', 'DejaVu Math TeX Glyph',
                        'DejaVu Serif', 'Cambria Math', 'Latin Modern Math', 'FiraCode',
                        'serif';
        }
    ]]></style><style type="text/css"><![CDATA[
        @import url(https://cdn.jsdelivr.net/npm/firacode@6.2.0/distr/fira_code.css);
        text {
            font-family: 'STIX Two', 'STIX Two Math', 'STIXMath', 'DejaVu Math TeX Glyph',
                        'DejaVu Serif', 'Cambria Math', 'Latin Modern Math', 'FiraCode',
                        'serif';
        }
    ]]></style></defs><g><rect fill="black" height="2.1" stroke="none" stroke-width="0" width="2.1" x="3.9" y="3.9" /><rect fill="black" height="2.1" stroke="none" stroke-width="0" width="2.1" x="13.9" y="3.9" /><rect fill="black" height="2.1" stroke="none" stroke-width="0" width="2.1" x="23.9" y="3.9" /><rect fill="black" height="2.1" stroke="none" stroke-width="0" width="2.1" x="33.9" y="3.9" /><rect fill="black" height="2.1" stroke="none" stroke-width="0" width="2.1" x="43.9" y="3.9" /><rect fill="black" height="2.1" stroke="none" stroke-width="0" width="2.1" x="53.9" y="3.9" /><rect fill="black" height="2.1" stroke="none" stroke-width="0" width="2.1" x="63.9" y="3.9" /><rect fill="black" height="2.1" stroke="none" stroke-width="0" width="2.1" x="73.9" y="3.9" /><rect fill="black" height="2.1" stroke="none" stroke-width="0" width="2.1" x="83.9" y="3.9" /><rect fill="black" height="2.1" stroke="none" stroke-width="0" width="2.1" x="93.9" y="3.9" /><rect fill="black" height="2.1" stroke="none" stroke-width="0" width="2.1" x="103.9" y="3.9" /><rect fill="black" height="2.1" stroke="none" stroke-width="0" width="2.1" x="113.9" y="3.9" /><rect fill="black" height="2.1" stroke="none" stroke-width="0" width="2.1" x="123.9" y="3.9" /><rect fill="black" height="2.1" stroke="none" stroke-width="0" width="2.1" x="133.9" y="3.9" /><rect fill="black" height="2.1" stroke="none" stroke-width="0" width="2.1" x="143.9" y="3.9" /><rect fill="black" height="2.1" stroke="none" stroke-width="0" width="2.1" x="153.9" y="3.9" /><rect fill="black" height="2.1" stroke="none" stroke-width="0" width="2.1" x="163.9" y="3.9" /><rect fill="black" height="2.1" stroke="none" stroke-width="0" width="2.1" x="173.9" y="3.9" /><rect fill="black" height="2.1" stroke="none" stroke-width="0" width="2.1" x="183.9" y="3.9" /><rect fill="black" height="2.1" stroke="none" stroke-width="0" width="2.1" x="193.9" y="3.9" /><rect fill="black" height="2.1" stroke="none" stroke-width="0" width="2.1" x="203.9" y="3.9" /><rect fill="black" height="2.1" stroke="none" stroke-width="0" width="2.1" x="213.9" y="3.9" /><rect fill="black" height="2.1" stroke="none" stroke-width="0" width="2.1" x="223.9" y="3.9" /><rect fill="black" height="2.1" stroke="none" stroke-width="0" width="2.1" x="233.9" y="3.9" /><rect fill="black" height="2.1" stroke="none" stroke-width="0" width="2.1" x="243.9" y="3.9" /><rect fill="black" height="2.1" stroke="none" stroke-width="0" width="2.1" x="253.9" y="3.9" /><rect fill="black" height="2.1" stroke="none" stroke-width="0" width="2.1" x="263.9" y="3.9" /><rect fill="black" height="2.1" stroke="none" stroke-width="0" width="2.1" x="273.9" y="3.9" /><rect fill="black" height="2.1" stroke="none" stroke-width="0" width="2.1" x="283.9" y="3.9" /><rect fill="black" height="2.1" stroke="none" stroke-width="0" width="2.1" x="293.9" y="3.9" /><rect fill="black" height="2.1" stroke="none" stroke-width="0" width="2.1" x="303.9" y="3.9" /><rect fill="black" height="2.1" stroke="none" stroke-width="0" width="2.1" x="313.9" y="3.9" /><rect fill="black" height="2.1" stroke="none" stroke-width="0" width="2.1" x="323.9" y="3.9" /><rect fill="black" height="2.1" stroke="none" stroke-width="0" width="2.1" x="333.9" y="3.9" /><rect fill="black" height="2.1" stroke="none" stroke-width="0" width="2.1" x="343.9" y="3.9" /><rect fill="black" height="2.1" stroke="none" stroke-width="0" width="2.1" x="353.9" y="3.9" /><rect fill="black" height="2.1" stroke="none" stroke-width="0" width="2.1" x="363.9" y="3.9" /><rect fill="black" height="2.1" stroke="none" stroke-width="0" width="2.1" x="373.9" y="3.9" /><rect fill="black" height="2.1" stroke="none" stroke-width="0" width="2.1" x="383.9" y="3.9" /><rect fill="black" height="2.1" stroke="none" stroke-width="0" width="2.1" x="393.9" y="3.9" /><rect fill="black" height="2.1" stroke="none" stroke-width="0" width="2.1" x="403.9" y="3.9" /><rect fill="black" height="2.1" stroke="none" stroke-width="0" width="2.1" x="413.9" y="3.9" /><rect fill="black" height="2.1" stroke="none" stroke-width="0" width="2.1" x="423.9" y="3.9" /><rect fill="black" height="2.1" stroke="none" stroke-width="0" width="2.1" x="433.9" y="3.9" /><rect fill="black" height="2.1" stroke="none" stroke-width="0" width="2.1" x="443.9" y="3.9" /><rect fill="black" height="2.1" stroke="none" stroke-width="0" width="2.1" x="453.9" y="3.9" /><rect fill="black" height="2.1" stroke="none" stroke-width="0" width="2.1" x="463.9" y="3.9" /><rect fill="black" height="2.1" stroke="none" stroke-width="0" width="2.1" x="473.9" y="3.9" /><rect fill="black" height="2.1" stroke="none" stroke-width="0" width="2.1" x="483.9" y="3.9" /><rect fill="black" height="2.1" stroke="none" stroke-width="0" width="2.1" x="493.9" y="3.9" /><rect fill="black" height="2.1" stroke="none" stroke-width="0" width="2.1" x="503.9" y="3.9" /><rect fill="black" height="2.1" stroke="none" stroke-width="0" width="2.1" x="513.9" y="3.9" /><rect fill="black" height="2.1" stroke="none" stroke-width="0" width="2.1" x="523.9" y="3.9" /><rect fill="black" height="2.1" stroke="none" stroke-width="0" width="2.1" x="533.9" y="3.9" /><rect fill="black" height="2.1" stroke="none" stroke-width="0" width="2.1" x="543.9" y="3.9" /><rect fill="black" height="2.1" stroke="none" stroke-width="0" width="2.1" x="553.9" y="3.9" /><rect fill="black" height="2.1" stroke="none" stroke-width="0" width="2.1" x="563.9" y="3.9" /><rect fill="black" height="2.1" stroke="none" stroke-width="0" width="2.1" x="573.9" y="3.9" /><rect fill="black" height="2.1" stroke="none" stroke-width="0" width="2.1" x="583.9" y="3.9" /><rect fill="black" height="2.1" stroke="none" stroke-width="0" width="2.1" x="593.9" y="3.9" /><rect fill="black" height="2.1" stroke="none" stroke-width="0" width="2.1" x="603.9" y="3.9" /><rect fill="black" height="2.1" stroke="none" stroke-width="0" width="2.1" x="613.9" y="3.9" /><rect fill="black" height="2.1" stroke="none" stroke-width="0" width="2.1" x="623.9" y="3.9" /><rect fill="black" height="2.1" stroke="none" stroke-width="0" width="2.1" x="633.9" y="3.9" /><rect fill="black" height="2.1" stroke="none" stroke-width="0" width="2.1" x="643.9" y="3.9" /><rect fill="black" height="2.1" stroke="none" stroke-width="0" width="2.1" x="653.9" y="3.9" /><rect fill="black" height="2.1" stroke="none" stroke-width="0" width="2.1" x="663.9" y="3.9" /><rect fill="black" height="2.1" stroke="none" stroke-width="0" width="2.1" x="673.9" y="3.9" /><rect fill="black" height="2.1" stroke="none" stroke-width="0" width="2.1" x="683.9" y="3.9" /><rect fill="black" height="2.1" stroke="none" stroke-width="0" width="2.1" x="693.9" y="3.9" /><rect fill="black" height="2.1" stroke="none" stroke-width="0" width="2.1" x="703.9" y="3.9" /><rect fill="black" height="2.1" stroke="none" stroke-width="0" width="2.1" x="713.9" y="3.9" /><rect fill="black" height="2.1" stroke="none" stroke-width="0" width="2.1" x="723.9" y="3.9" /><rect fill="black" height="2.1" stroke="none" stroke-width="0" width="2.1" x="733.9" y="3.9" /><rect fill="black" height="2.1" stroke="none" stroke-width="0" width="2.1" x="743.9" y="3.9" /><rect fill="black" height="2.1" stroke="none" stroke-width="0" width="2.1" x="753.9" y="3.9" /><rect fill="black" height="2.1" stroke="none" stroke-width="0" width="2.1" x="763.9" y="3.9" /><rect fill="black" height="2.1" stroke="none" stroke-width="0" width="2.1" x="773.9" y="3.9" /><rect fill="black" height="2.1" stroke="none" stroke-width="0" width="2.1" x="783.9" y="3.9" /><rect fill="black" height="2.1" stroke="none" stroke-width="0" width="2.1" x="793.9" y="3.9" /><rect fill="black" height="2.1" stroke="none" stroke-width="0" width="2.1" x="803.9" y="3.9" /><rect fill="black" height="2.1" stroke="none" stroke-width="0" width="2.1" x="813.9" y="3.9" /><rect fill="black" height="2.1" stroke="none" stroke-width="0" width="2.1" x="823.9" y="3.9" /><rect fill="black" height="2.1" stroke="none" stroke-width="0" width="2.1" x="833.9" y="3.9" /><rect fill="black" height="2.1" stroke="none" stroke-width="0" width="2.1" x="843.9" y="3.9" /><rect fill="black" height="2.1" stroke="none" stroke-width="0" width="2.1" x="853.9" y="3.9" /><rect fill="black" height="2.1" stroke="none" stroke-width="0" width="2.1" x="863.9" y="3.9" /><rect fill="black" height="2.1" stroke="none" stroke-width="0" width="2.1" x="873.9" y="3.9" /><rect fill="black" height="2.1" stroke="none" stroke-width="0" width="2.1" x="883.9" y="3.9" /><rect fill="black" height="2.1" stroke="none" stroke-width="0" width="2.1" x="893.9" y="3.9" /><rect fill="black" height="2.1" stroke="none" stroke-width="0" width="2.1" x="903.9" y="3.9" /><rect fill="black" height="2.1" stroke="none" stroke-width="0" width="2.1" x="913.9" y="3.9" /><rect fill="black" height="2.1" stroke="none" stroke-width="0" width="2.1" x="923.9" y="3.9" /><rect fill="black" height="2.1" stroke="none" stroke-width="0" width="2.1" x="933.9" y="3.9" /><rect fill="black" height="2.1" stroke="none" stroke-width="0" width="2.1" x="943.9" y="3.9" /><rect fill="black" height="2.1" stroke="none" stroke-width="0" width="2.1" x="953.9" y="3.9" /><rect fill="black" height="2.1" stroke="none" stroke-width="0" width="2.1" x="963.9" y="3.9" /><rect fill="black" height="2.1" stroke="none" stroke-width="0" width="2.1" x="973.9" y="3.9" /><rect fill="black" height="2.1" stroke="none" stroke-width="0" width="2.1" x="983.9" y="3.9" /><rect fill="black" height="2.1" stroke="none" stroke-width="0" width="2.1" x="993.9" y="3.9" /><rect fill="black" height="2.1" stroke="none" stroke-width="0" width="2.1" x="1003.9" y="3.9" /><rect fill="black" height="2.1" stroke="none" stroke-width="0" width="2.1" x="1013.9" y="3.9" /><rect fill="black" height="2.1" stroke="none" stroke-width="0" width="2.1" x="1023.9" y="3.9" /><rect fill="black" height="2.1" stroke="none" stroke-width="0" width="2.1" x="1033.9" y="3.9" /><rect fill="black" height="2.1" stroke="none" stroke-width="0" width="2.1" x="1043.9" y="3.9" /><rect fill="black" height="2.1" stroke="none" stroke-width="0" width="2.1" x="1053.9" y="3.9" /><rect fill="black" height="2.1" stroke="none" stroke-width="0" width="2.1" x="1063.9" y="3.9" /><rect fill="black" height="2.1" stroke="none" stroke-width="0" width="2.1" x="1073.9" y="3.9" /><rect fill="black" height="2.1" stroke="none" stroke-width="0" width="2.1" x="1083.9" y="3.9" /><rect fill="black" height="2.1" stroke="none" stroke-width="0" width="2.1" x="1093.9" y="3.9" /><rect fill="black" height="2.1" stroke="none" stroke-width="0" width="2.1" x="1103.9" y="3.9" /><rect fill="black" height="2.1" stroke="none" stroke-width="0" width="2.1" x="1113.9" y="3.9" /><rect fill="black" height="2.1" stroke="none" stroke-width="0" width="2.1" x="1123.9" y="3.9" /><rect fill="black" height="2.6" stroke="none" stroke-width="0" width="2.6" x="1133.7" y="3.7" /><rect fill="black" height="2.6" stroke="none" stroke-width="0" width="2.6" x="1143.7" y="3.7" /><rect fill="black" height="3.2" stroke="none" stroke-width="0" width="3.2" x="1153.4" y="3.4" /><rect fill="black" height="3.6" stroke="none" stroke-width="0" width="3.6" x="1163.2" y="3.2" /><rect fill="black" height="3.9" stroke="none" stroke-width="0" width="3.9" x="1173.0" y="3.0" /><rect fill="black" height="3.4" stroke="none" stroke-width="0" width="3.4" x="1183.3" y="3.3" /><rect fill="black" height="3.8" stroke="none" stroke-width="0" width="3.8" x="1193.1" y="3.1" /><rect fill="black" height="4.9" stroke="none" stroke-width="0" width="4.9" x="1202.5" y="2.5" /><rect fill="black" height="4.9" stroke="none" stroke-width="0" width="4.9" x="1212.5" y="2.5" /><rect fill="black" height="5.3" stroke="none" stroke-width="0" width="5.3" x="1222.4" y="2.4" /><rect fill="black" height="5.7" stroke="none" stroke-width="0" width="5.7" x="1232.1" y="2.1" /><rect fill="black" height="6.0" stroke="none" stroke-width="0" width="6.0" x="1242.0" y="2.0" /><rect fill="black" height="5.9" stroke="none" stroke-width="0" width="5.9" x="1252.1" y="2.1" /><rect fill="black" height="6.3" stroke="none" stroke-width="0" width="6.3" x="1261.8" y="1.8" /><rect fill="black" height="6.8" stroke="none" stroke-width="0" width="6.8" x="1271.6" y="1.6" /><rect fill="black" height="6.5" stroke="none" stroke-width="0" width="6.5" x="1281.8" y="1.8" /><rect fill="black" height="6.9" stroke="none" stroke-width="0" width="6.9" x="1291.5" y="1.5" /><rect fill="black" height="7.1" stroke="none" stroke-width="0" width="7.1" x="1301.5" y="1.5" /><rect fill="black" height="7.3" stroke="none" stroke-width="0" width="7.3" x="1311.3" y="1.3" /><rect fill="black" height="6.8" stroke="none" stroke-width="0" width="6.8" x="1321.6" y="1.6" /><rect fill="black" height="7.1" stroke="none" stroke-width="0" width="7.1" x="1331.5" y="1.5" /><rect fill="black" height="7.8" stroke="none" stroke-width="0" width="7.8" x="1341.1" y="1.1" /><rect fill="black" height="8.0" stroke="none" stroke-width="0" width="8.0" x="1351.0" y="1.0" /><rect fill="black" height="8.3" stroke="none" stroke-width="0" width="8.3" x="1360.8" y="0.8" /><rect fill="black" height="8.4" stroke="none" stroke-width="0" width="8.4" x="1370.8" y="0.8" /><rect fill="black" height="8.2" stroke="none" stroke-width="0" width="8.2" x="1380.9" y="0.9" /><rect fill="black" height="8.4" stroke="none" stroke-width="0" width="8.4" x="1390.8" y="0.8" /><rect fill="black" height="8.7" stroke="none" stroke-width="0" width="8.7" x="1400.6" y="0.6" /><rect fill="black" height="8.7" stroke="none" stroke-width="0" width="8.7" x="1410.6" y="0.6" /><rect fill="black" height="9.0" stroke="none" stroke-width="0" width="9.0" x="1420.5" y="0.5" /><rect fill="black" height="8.8" stroke="none" stroke-width="0" width="8.8" x="1430.6" y="0.6" /><rect fill="black" height="9.4" stroke="none" stroke-width="0" width="9.4" x="1440.3" y="0.3" /><rect fill="black" height="9.2" stroke="none" stroke-width="0" width="9.2" x="1450.4" y="0.4" /><rect fill="black" height="9.5" stroke="none" stroke-width="0" width="9.5" x="1460.2" y="0.2" /><rect fill="black" height="9.5" stroke="none" stroke-width="0" width="9.5" x="1470.2" y="0.2" /><rect fill="black" height="9.2" stroke="none" stroke-width="0" width="9.2" x="1480.4" y="0.4" /><rect fill="black" height="9.1" stroke="none" stroke-width="0" width="9.1" x="1490.4" y="0.4" /><rect fill="black" height="9.2" stroke="none" stroke-width="0" width="9.2" x="1500.4" y="0.4" /><rect fill="black" height="9.0" stroke="none" stroke-width="0" width="9.0" x="1510.5" y="0.5" /><rect fill="black" height="8.7" stroke="none" stroke-width="0" width="8.7" x="1520.6" y="0.6" /><rect fill="black" height="7.5" stroke="none" stroke-width="0" width="7.5" x="1531.3" y="1.3" /><rect fill="black" height="6.8" stroke="none" stroke-width="0" width="6.8" x="1541.6" y="1.6" /><rect fill="black" height="6.5" stroke="none" stroke-width="0" width="6.5" x="1551.8" y="1.8" /><rect fill="black" height="5.9" stroke="none" stroke-width="0" width="5.9" x="1562.1" y="2.1" /><rect fill="black" height="6.8" stroke="none" stroke-width="0" width="6.8" x="1571.6" y="1.6" /><rect fill="black" height="3.9" stroke="none" stroke-width="0" width="3.9" x="1583.0" y="3.0" /><rect fill="black" height="4.3" stroke="none" stroke-width="0" width="4.3" x="1592.9" y="2.9" /><rect fill="black" height="3.9" stroke="none" stroke-width="0" width="3.9" x="1603.0" y="3.0" /><rect fill="black" height="5.1" stroke="none" stroke-width="0" width="5.1" x="1612.4" y="2.4" /><rect fill="black" height="5.7" stroke="none" stroke-width="0" width="5.7" x="1622.1" y="2.1" /><rect fill="black" height="4.6" stroke="none" stroke-width="0" width="4.6" x="1632.7" y="2.7" /><rect fill="black" height="4.6" stroke="none" stroke-width="0" width="4.6" x="1642.7" y="2.7" /><rect fill="black" height="6.3" stroke="none" stroke-width="0" width="6.3" x="1651.8" y="1.8" /><rect fill="black" height="7.5" stroke="none" stroke-width="0" width="7.5" x="1661.3" y="1.3" /><rect fill="black" height="5.4" stroke="none" stroke-width="0" width="5.4" x="1672.3" y="2.3" /></g><g><line stroke="black" stroke-width="0.5" x1="15.0" x2="15.0" y1="-6.0" y2="-12.0" /><text dominant-baseline="middle" font-size="22px" text-anchor="middle" x="15.0" y="-24.0">0</text><line stroke="black" stroke-width="0.5" x1="115.0" x2="115.0" y1="-6.0" y2="-12.0" /><text dominant-baseline="middle" font-size="22px" text-anchor="middle" x="115.0" y="-24.0">0</text><line stroke="black" stroke-width="0.5" x1="215.0" x2="215.0" y1="-6.0" y2="-12.0" /><text dominant-baseline="middle" font-size="22px" text-anchor="middle" x="215.0" y="-24.0">0</text><line stroke="black" stroke-width="0.5" x1="315.0" x2="315.0" y1="-6.0" y2="-12.0" /><text dominant-baseline="middle" font-size="22px" text-anchor="middle" x="315.0" y="-24.0">0</text><line stroke="black" stroke-width="0.5" x1="415.0" x2="415.0" y1="-6.0" y2="-12.0" /><text dominant-baseline="middle" font-size="22px" text-anchor="middle" x="415.0" y="-24.0">0</text><line stroke="black" stroke-width="0.5" x1="515.0" x2="515.0" y1="-6.0" y2="-12.0" /><text dominant-baseline="middle" font-size="22px" text-anchor="middle" x="515.0" y="-24.0">0</text><line stroke="black" stroke-width="0.5" x1="615.0" x2="615.0" y1="-6.0" y2="-12.0" /><text dominant-baseline="middle" font-size="22px" text-anchor="middle" x="615.0" y="-24.0">0</text><line stroke="black" stroke-width="0.5" x1="715.0" x2="715.0" y1="-6.0" y2="-12.0" /><text dominant-baseline="middle" font-size="22px" text-anchor="middle" x="715.0" y="-24.0">0</text><line stroke="black" stroke-width="0.5" x1="815.0" x2="815.0" y1="-6.0" y2="-12.0" /><text dominant-baseline="middle" font-size="22px" text-anchor="middle" x="815.0" y="-24.0">0</text><line stroke="black" stroke-width="0.5" x1="915.0" x2="915.0" y1="-6.0" y2="-12.0" /><text dominant-baseline="middle" font-size="22px" text-anchor="middle" x="915.0" y="-24.0">0</text><line stroke="black" stroke-width="0.5" x1="1015.0" x2="1015.0" y1="-6.0" y2="-12.0" /><text dominant-baseline="middle" font-size="22px" text-anchor="middle" x="1015.0" y="-24.0">0</text><line stroke="black" stroke-width="0.5" x1="1115.0" x2="1115.0" y1="-6.0" y2="-12.0" /><text dominant-baseline="middle" font-size="22px" text-anchor="middle" x="1115.0" y="-24.0">4</text><line stroke="black" stroke-width="0.5" x1="1215.0" x2="1215.0" y1="-6.0" y2="-12.0" /><text dominant-baseline="middle" font-size="22px" text-anchor="middle" x="1215.0" y="-24.0">10</text><line stroke="black" stroke-width="0.5" x1="1315.0" x2="1315.0" y1="-6.0" y2="-12.0" /><text dominant-baseline="middle" font-size="22px" text-anchor="middle" x="1315.0" y="-24.0">15</text><line stroke="black" stroke-width="0.5" x1="1415.0" x2="1415.0" y1="-6.0" y2="-12.0" /><text dominant-baseline="middle" font-size="22px" text-anchor="middle" x="1415.0" y="-24.0">18</text><line stroke="black" stroke-width="0.5" x1="1515.0" x2="1515.0" y1="-6.0" y2="-12.0" /><text dominant-baseline="middle" font-size="22px" text-anchor="middle" x="1515.0" y="-24.0">19</text><line stroke="black" stroke-width="0.5" x1="1615.0" x2="1615.0" y1="-6.0" y2="-12.0" /><text dominant-baseline="middle" font-size="22px" text-anchor="middle" x="1615.0" y="-24.0">10</text><line stroke="black" stroke-width="0.5" x1="15.0" x2="15.0" y1="16.0" y2="22.0" /><text dominant-baseline="middle" font-size="22px" text-anchor="middle" x="15.0" y="34.0">1</text><line stroke="black" stroke-width="0.5" x1="1665.0" x2="1665.0" y1="16.0" y2="22.0" /><text dominant-baseline="middle" font-size="22px" text-anchor="middle" x="1665.0" y="34.0">65536</text><text font-size="22px" text-anchor="middle" x="840.0" y="32.0">Time</text><text font-size="22px" text-anchor="middle" transform="rotate(-90, -22.0, 5.0)" x="-22.0" y="5.0">|{ω}|</text></g></svg>