<?xml version="1.0" encoding="utf-8" ?>
<svg baseProfile="full" height="100%" preserveAspectRatio="xMidYMid meet" version="1.1" viewBox="-40,-40,260,260" width="100%" xmlns="http://www.w3.org/2000/svg" xmlns:ev="http://www.w3.org/2001/xml-events" xmlns:xlink="http://www.w3.org/1999/xlink"><defs><style type="text/css"><![CDATA[
        @import url(https://cdn.jsdelivr.net/npm/firacode@6.2.0/distr/fira_code.css);
        text {
            font-family: 'STIX Two', 'STIX Two Math', 'STIXMath', 'DejaVu Math TeX Glyph',
                        'DejaVu Serif', 'Cambria Math', 'Latin Modern Math', 'FiraCode',
                        'serif';
        }
    ]]></style><style type="text/css"><![CDATA[
        @import url(https://cdn.jsdelivr.net/npm/firacode@6.2.0/distr/fira_code.css);
        text {
            font-family: 'STIX Two', 'STIX Two Math', 'STIXMath', 'DejaVu Math TeX Glyph',
                        'DejaVu Serif', 'Cambria Math', 'Latin Modern Math', 'FiraCode',
                        'serif';
        }
    ]]></style></defs><g><rect fill="black" height="2.1" stroke="none" stroke-width="0" width="2.1" x="3.9" y="3.9" /><rect fill="white" height="2.1" stroke="black" stroke-width="0.5" width="2.1" x="13.9" y="3.9" /><rect fill="black" height="2.1" stroke="none" stroke-width="0" width="2.1" x="23.9" y="3.9" /><rect fill="black" height="2.1" stroke="none" stroke-width="0" width="2.1" x="33.9" y="3.9" /><rect fill="white" height="3.4" stroke="black" stroke-width="0.5" width="3.4" x="43.3" y="3.3" /><rect fill="black" height="2.8" stroke="none" stroke-width="0" width="2.8" x="53.6" y="3.6" /><rect fill="black" height="2.1" stroke="none" stroke-width="0" width="2.1" x="63.9" y="3.9" /><rect fill="white" height="2.1" stroke="black" stroke-width="0.5" width="2.1" x="73.9" y="3.9" /><rect fill="black" height="2.1" stroke="none" stroke-width="0" width="2.1" x="83.9" y="3.9" /><rect fill="white" height="2.1" stroke="black" stroke-width="0.5" width="2.1" x="93.9" y="3.9" /><rect fill="black" height="2.1" stroke="none" stroke-width="0" width="2.1" x="103.9" y="3.9" /><rect fill="black" height="2.1" stroke="none" stroke-width="0" width="2.1" x="113.9" y="3.9" /><rect fill="black" height="2.1" stroke="none" stroke-width="0" width="2.1" x="123.9" y="3.9" /><rect fill="black" height="2.1" stroke="none" stroke-width="0" width="2.1" x="133.9" y="3.9" /><rect fill="black" height="2.1" stroke="none" stroke-width="0" width="2.1" x="143.9" y="3.9" /><rect fill="black" height="2.1" stroke="none" stroke-width="0" width="2.1" x="153.9" y="3.9" /><rect fill="black" height="2.1" stroke="none" stroke-width="0" width="2.1" x="163.9" y="3.9" /><rect fill="white" height="2.1" stroke="black" stroke-width="0.5" width="2.1" x="173.9" y="3.9" /><rect fill="black" height="2.1" stroke="none" stroke-width="0" width="2.1" x="3.9" y="13.9" /><rect fill="black" height="2.1" stroke="none" stroke-width="0" width="2.1" x="13.9" y="13.9" /><rect fill="black" height="2.1" stroke="none" stroke-width="0" width="2.1" x="23.9" y="13.9" /><rect fill="white" height="2.1" stroke="black" stroke-width="0.5" width="2.1" x="33.9" y="13.9" /><rect fill="white" height="4.1" stroke="black" stroke-width="0.5" width="4.1" x="43.0" y="13.0" /><rect fill="black" height="3.1" stroke="none" stroke-width="0" width="3.1" x="53.4" y="13.4" /><rect fill="black" height="2.1" stroke="none" stroke-width="0" width="2.1" x="63.9" y="13.9" /><rect fill="black" height="2.1" stroke="none" stroke-width="0" width="2.1" x="73.9" y="13.9" /><rect fill="black" height="2.1" stroke="none" stroke-width="0" width="2.1" x="83.9" y="13.9" /><rect fill="white" height="2.1" stroke="black" stroke-width="0.5" width="2.1" x="93.9" y="13.9" /><rect fill="black" height="2.1" stroke="none" stroke-width="0" width="2.1" x="103.9" y="13.9" /><rect fill="black" height="2.1" stroke="none" stroke-width="0" width="2.1" x="113.9" y="13.9" /><rect fill="black" height="2.1" stroke="none" stroke-width="0" width="2.1" x="123.9" y="13.9" /><rect fill="black" height="2.1" stroke="none" stroke-width="0" width="2.1" x="133.9" y="13.9" /><rect fill="black" height="2.1" stroke="none" stroke-width="0" width="2.1" x="143.9" y="13.9" /><rect fill="black" height="2.4" stroke="none" stroke-width="0" width="2.4" x="153.8" y="13.8" /><rect fill="black" height="2.1" stroke="none" stroke-width="0" width="2.1" x="163.9" y="13.9" /><rect fill="black" height="2.1" stroke="none" stroke-width="0" width="2.1" x="173.9" y="13.9" /><rect fill="white" height="2.1" stroke="black" stroke-width="0.5" width="2.1" x="3.9" y="23.9" /><rect fill="black" height="2.1" stroke="none" stroke-width="0" width="2.1" x="13.9" y="23.9" /><rect fill="white" height="2.1" stroke="black" stroke-width="0.5" width="2.1" x="23.9" y="23.9" /><rect fill="white" height="2.1" stroke="black" stroke-width="0.5" width="2.1" x="33.9" y="23.9" /><rect fill="white" height="4.1" stroke="black" stroke-width="0.5" width="4.1" x="42.9" y="22.9" /><rect fill="black" height="3.0" stroke="none" stroke-width="0" width="3.0" x="53.5" y="23.5" /><rect fill="black" height="2.4" stroke="none" stroke-width="0" width="2.4" x="63.8" y="23.8" /><rect fill="black" height="2.1" stroke="none" stroke-width="0" width="2.1" x="73.9" y="23.9" /><rect fill="black" height="2.1" stroke="none" stroke-width="0" width="2.1" x="83.9" y="23.9" /><rect fill="black" height="2.3" stroke="none" stroke-width="0" width="2.3" x="93.9" y="23.9" /><rect fill="white" height="2.1" stroke="black" stroke-width="0.5" width="2.1" x="103.9" y="23.9" /><rect fill="black" height="2.1" stroke="none" stroke-width="0" width="2.1" x="113.9" y="23.9" /><rect fill="white" height="2.1" stroke="black" stroke-width="0.5" width="2.1" x="123.9" y="23.9" /><rect fill="white" height="2.1" stroke="black" stroke-width="0.5" width="2.1" x="133.9" y="23.9" /><rect fill="black" height="2.1" stroke="none" stroke-width="0" width="2.1" x="143.9" y="23.9" /><rect fill="black" height="2.7" stroke="none" stroke-width="0" width="2.7" x="153.6" y="23.6" /><rect fill="black" height="2.1" stroke="none" stroke-width="0" width="2.1" x="163.9" y="23.9" /><rect fill="black" height="2.1" stroke="none" stroke-width="0" width="2.1" x="173.9" y="23.9" /><rect fill="white" height="2.1" stroke="black" stroke-width="0.5" width="2.1" x="3.9" y="33.9" /><rect fill="white" height="2.1" stroke="black" stroke-width="0.5" width="2.1" x="13.9" y="33.9" /><rect fill="white" height="2.1" stroke="black" stroke-width="0.5" width="2.1" x="23.9" y="33.9" /><rect fill="white" height="2.1" stroke="black" stroke-width="0.5" width="2.1" x="33.9" y="33.9" /><rect fill="white" height="3.5" stroke="black" stroke-width="0.5" width="3.5" x="43.3" y="33.3" /><rect fill="black" height="2.4" stroke="none" stroke-width="0" width="2.4" x="53.8" y="33.8" /><rect fill="black" height="2.1" stroke="none" stroke-width="0" width="2.1" x="63.9" y="33.9" /><rect fill="black" height="2.1" stroke="none" stroke-width="0" width="2.1" x="73.9" y="33.9" /><rect fill="black" height="2.1" stroke="none" stroke-width="0" width="2.1" x="83.9" y="33.9" /><rect fill="black" height="2.1" stroke="none" stroke-width="0" width="2.1" x="93.9" y="33.9" /><rect fill="white" height="2.1" stroke="black" stroke-width="0.5" width="2.1" x="103.9" y="33.9" /><rect fill="black" height="2.1" stroke="none" stroke-width="0" width="2.1" x="113.9" y="33.9" /><rect fill="white" height="2.1" stroke="black" stroke-width="0.5" width="2.1" x="123.9" y="33.9" /><rect fill="black" height="2.1" stroke="none" stroke-width="0" width="2.1" x="133.9" y="33.9" /><rect fill="black" height="2.1" stroke="none" stroke-width="0" width="2.1" x="143.9" y="33.9" /><rect fill="black" height="2.2" stroke="none" stroke-width="0" width="2.2" x="153.9" y="33.9" /><rect fill="black" height="2.1" stroke="none" stroke-width="0" width="2.1" x="163.9" y="33.9" /><rect fill="white" height="2.1" stroke="black" stroke-width="0.5" width="2.1" x="173.9" y="33.9" /><rect fill="white" height="2.1" stroke="black" stroke-width="0.5" width="2.1" x="3.9" y="43.9" /><rect fill="white" height="2.1" stroke="black" stroke-width="0.5" width="2.1" x="13.9" y="43.9" /><rect fill="white" height="2.1" stroke="black" stroke-width="0.5" width="2.1" x="23.9" y="43.9" /><rect fill="white" height="2.1" stroke="black" stroke-width="0.5" width="2.1" x="33.9" y="43.9" /><rect fill="white" height="3.5" stroke="black" stroke-width="0.5" width="3.5" x="43.3" y="43.3" /><rect fill="black" height="2.6" stroke="none" stroke-width="0" width="2.6" x="53.7" y="43.7" /><rect fill="black" height="2.1" stroke="none" stroke-width="0" width="2.1" x="63.9" y="43.9" /><rect fill="black" height="2.1" stroke="none" stroke-width="0" width="2.1" x="73.9" y="43.9" /><rect fill="black" height="2.1" stroke="none" stroke-width="0" width="2.1" x="83.9" y="43.9" /><rect fill="black" height="2.1" stroke="none" stroke-width="0" width="2.1" x="93.9" y="43.9" /><rect fill="black" height="2.1" stroke="none" stroke-width="0" width="2.1" x="103.9" y="43.9" /><rect fill="black" height="2.1" stroke="none" stroke-width="0" width="2.1" x="113.9" y="43.9" /><rect fill="black" height="2.1" stroke="none" stroke-width="0" width="2.1" x="123.9" y="43.9" /><rect fill="black" height="2.1" stroke="none" stroke-width="0" width="2.1" x="133.9" y="43.9" /><rect fill="black" height="2.1" stroke="none" stroke-width="0" width="2.1" x="143.9" y="43.9" /><rect fill="black" height="2.3" stroke="none" stroke-width="0" width="2.3" x="153.9" y="43.9" /><rect fill="black" height="2.1" stroke="none" stroke-width="0" width="2.1" x="163.9" y="43.9" /><rect fill="black" height="2.1" stroke="none" stroke-width="0" width="2.1" x="173.9" y="43.9" /><rect fill="white" height="2.1" stroke="black" stroke-width="0.5" width="2.1" x="3.9" y="53.9" /><rect fill="white" height="2.1" stroke="black" stroke-width="0.5" width="2.1" x="13.9" y="53.9" /><rect fill="white" height="2.1" stroke="black" stroke-width="0.5" width="2.1" x="23.9" y="53.9" /><rect fill="white" height="2.3" stroke="black" stroke-width="0.5" width="2.3" x="33.9" y="53.9" /><rect fill="white" height="4.6" stroke="black" stroke-width="0.5" width="4.6" x="42.7" y="52.7" /><rect fill="black" height="3.6" stroke="none" stroke-width="0" width="3.6" x="53.2" y="53.2" /><rect fill="black" height="2.3" stroke="none" stroke-width="0" width="2.3" x="63.9" y="53.9" /><rect fill="black" height="2.1" stroke="none" stroke-width="0" width="2.1" x="73.9" y="53.9" /><rect fill="black" height="2.1" stroke="none" stroke-width="0" width="2.1" x="83.9" y="53.9" /><rect fill="white" height="2.1" stroke="black" stroke-width="0.5" width="2.1" x="93.9" y="53.9" /><rect fill="black" height="2.3" stroke="none" stroke-width="0" width="2.3" x="103.8" y="53.8" /><rect fill="black" height="2.1" stroke="none" stroke-width="0" width="2.1" x="113.9" y="53.9" /><rect fill="black" height="2.1" stroke="none" stroke-width="0" width="2.1" x="123.9" y="53.9" /><rect fill="black" height="2.1" stroke="none" stroke-width="0" width="2.1" x="133.9" y="53.9" /><rect fill="black" height="2.1" stroke="none" stroke-width="0" width="2.1" x="143.9" y="53.9" /><rect fill="white" height="2.8" stroke="black" stroke-width="0.5" width="2.8" x="153.6" y="53.6" /><rect fill="black" height="2.1" stroke="none" stroke-width="0" width="2.1" x="163.9" y="53.9" /><rect fill="black" height="2.1" stroke="none" stroke-width="0" width="2.1" x="173.9" y="53.9" /><rect fill="black" height="2.1" stroke="none" stroke-width="0" width="2.1" x="3.9" y="63.9" /><rect fill="white" height="2.1" stroke="black" stroke-width="0.5" width="2.1" x="13.9" y="63.9" /><rect fill="white" height="2.1" stroke="black" stroke-width="0.5" width="2.1" x="23.9" y="63.9" /><rect fill="white" height="2.1" stroke="black" stroke-width="0.5" width="2.1" x="33.9" y="63.9" /><rect fill="white" height="2.4" stroke="black" stroke-width="0.5" width="2.4" x="43.8" y="63.8" /><rect fill="black" height="2.1" stroke="none" stroke-width="0" width="2.1" x="53.9" y="63.9" /><rect fill="black" height="2.1" stroke="none" stroke-width="0" width="2.1" x="63.9" y="63.9" /><rect fill="black" height="2.1" stroke="none" stroke-width="0" width="2.1" x="73.9" y="63.9" /><rect fill="black" height="2.1" stroke="none" stroke-width="0" width="2.1" x="83.9" y="63.9" /><rect fill="black" height="2.1" stroke="none" stroke-width="0" width="2.1" x="93.9" y="63.9" /><rect fill="white" height="2.4" stroke="black" stroke-width="0.5" width="2.4" x="103.8" y="63.8" /><rect fill="white" height="2.1" stroke="black" stroke-width="0.5" width="2.1" x="113.9" y="63.9" /><rect fill="white" height="2.1" stroke="black" stroke-width="0.5" width="2.1" x="123.9" y="63.9" /><rect fill="black" height="2.1" stroke="none" stroke-width="0" width="2.1" x="133.9" y="63.9" /><rect fill="black" height="2.1" stroke="none" stroke-width="0" width="2.1" x="143.9" y="63.9" /><rect fill="black" height="2.1" stroke="none" stroke-width="0" width="2.1" x="153.9" y="63.9" /><rect fill="white" height="2.1" stroke="black" stroke-width="0.5" width="2.1" x="163.9" y="63.9" /><rect fill="white" height="2.1" stroke="black" stroke-width="0.5" width="2.1" x="173.9" y="63.9" /><rect fill="white" height="2.1" stroke="black" stroke-width="0.5" width="2.1" x="3.9" y="73.9" /><rect fill="white" height="2.1" stroke="black" stroke-width="0.5" width="2.1" x="13.9" y="73.9" /><rect fill="white" height="2.1" stroke="black" stroke-width="0.5" width="2.1" x="23.9" y="73.9" /><rect fill="white" height="2.9" stroke="black" stroke-width="0.5" width="2.9" x="33.5" y="73.5" /><rect fill="white" height="5.4" stroke="black" stroke-width="0.5" width="5.4" x="42.3" y="72.3" /><rect fill="black" height="4.1" stroke="none" stroke-width="0" width="4.1" x="52.9" y="72.9" /><rect fill="black" height="2.5" stroke="none" stroke-width="0" width="2.5" x="63.7" y="73.7" /><rect fill="black" height="2.1" stroke="none" stroke-width="0" width="2.1" x="73.9" y="73.9" /><rect fill="black" height="2.1" stroke="none" stroke-width="0" width="2.1" x="83.9" y="73.9" /><rect fill="white" height="2.1" stroke="black" stroke-width="0.5" width="2.1" x="93.9" y="73.9" /><rect fill="black" height="2.4" stroke="none" stroke-width="0" width="2.4" x="103.8" y="73.8" /><rect fill="black" height="2.1" stroke="none" stroke-width="0" width="2.1" x="113.9" y="73.9" /><rect fill="black" height="2.1" stroke="none" stroke-width="0" width="2.1" x="123.9" y="73.9" /><rect fill="black" height="2.1" stroke="none" stroke-width="0" width="2.1" x="133.9" y="73.9" /><rect fill="black" height="2.2" stroke="none" stroke-width="0" width="2.2" x="143.9" y="73.9" /><rect fill="black" height="3.3" stroke="none" stroke-width="0" width="3.3" x="153.3" y="73.3" /><rect fill="black" height="2.1" stroke="none" stroke-width="0" width="2.1" x="163.9" y="73.9" /><rect fill="black" height="2.1" stroke="none" stroke-width="0" width="2.1" x="173.9" y="73.9" /><rect fill="white" height="2.1" stroke="black" stroke-width="0.5" width="2.1" x="3.9" y="83.9" /><rect fill="white" height="2.1" stroke="black" stroke-width="0.5" width="2.1" x="13.9" y="83.9" /><rect fill="white" height="2.1" stroke="black" stroke-width="0.5" width="2.1" x="23.9" y="83.9" /><rect fill="white" height="2.1" stroke="black" stroke-width="0.5" width="2.1" x="33.9" y="83.9" /><rect fill="white" height="3.6" stroke="black" stroke-width="0.5" width="3.6" x="43.2" y="83.2" /><rect fill="black" height="2.6" stroke="none" stroke-width="0" width="2.6" x="53.7" y="83.7" /><rect fill="black" height="2.1" stroke="none" stroke-width="0" width="2.1" x="63.9" y="83.9" /><rect fill="white" height="2.1" stroke="black" stroke-width="0.5" width="2.1" x="73.9" y="83.9" /><rect fill="black" height="2.1" stroke="none" stroke-width="0" width="2.1" x="83.9" y="83.9" /><rect fill="white" height="2.1" stroke="black" stroke-width="0.5" width="2.1" x="93.9" y="83.9" /><rect fill="black" height="2.6" stroke="none" stroke-width="0" width="2.6" x="103.7" y="83.7" /><rect fill="black" height="2.1" stroke="none" stroke-width="0" width="2.1" x="113.9" y="83.9" /><rect fill="white" height="2.1" stroke="black" stroke-width="0.5" width="2.1" x="123.9" y="83.9" /><rect fill="black" height="2.1" stroke="none" stroke-width="0" width="2.1" x="133.9" y="83.9" /><rect fill="black" height="2.1" stroke="none" stroke-width="0" width="2.1" x="143.9" y="83.9" /><rect fill="black" height="2.1" stroke="none" stroke-width="0" width="2.1" x="153.9" y="83.9" /><rect fill="black" height="2.1" stroke="none" stroke-width="0" width="2.1" x="163.9" y="83.9" /><rect fill="black" height="2.1" stroke="none" stroke-width="0" width="2.1" x="173.9" y="83.9" /><rect fill="white" height="2.1" stroke="black" stroke-width="0.5" width="2.1" x="3.9" y="93.9" /><rect fill="white" height="2.1" stroke="black" stroke-width="0.5" width="2.1" x="13.9" y="93.9" /><rect fill="white" height="2.4" stroke="black" stroke-width="0.5" width="2.4" x="23.8" y="93.8" /><rect fill="white" height="3.0" stroke="black" stroke-width="0.5" width="3.0" x="33.5" y="93.5" /><rect fill="white" height="6.1" stroke="black" stroke-width="0.5" width="6.1" x="42.0" y="92.0" /><rect fill="black" height="4.5" stroke="none" stroke-width="0" width="4.5" x="52.8" y="92.8" /><rect fill="black" height="3.0" stroke="none" stroke-width="0" width="3.0" x="63.5" y="93.5" /><rect fill="black" height="2.6" stroke="none" stroke-width="0" width="2.6" x="73.7" y="93.7" /><rect fill="black" height="2.2" stroke="none" stroke-width="0" width="2.2" x="83.9" y="93.9" /><rect fill="black" height="2.2" stroke="none" stroke-width="0" width="2.2" x="93.9" y="93.9" /><rect fill="white" height="2.1" stroke="black" stroke-width="0.5" width="2.1" x="103.9" y="93.9" /><rect fill="black" height="2.1" stroke="none" stroke-width="0" width="2.1" x="113.9" y="93.9" /><rect fill="black" height="2.1" stroke="none" stroke-width="0" width="2.1" x="123.9" y="93.9" /><rect fill="black" height="2.1" stroke="none" stroke-width="0" width="2.1" x="133.9" y="93.9" /><rect fill="black" height="2.1" stroke="none" stroke-width="0" width="2.1" x="143.9" y="93.9" /><rect fill="black" height="3.7" stroke="none" stroke-width="0" width="3.7" x="153.2" y="93.2" /><rect fill="black" height="2.1" stroke="none" stroke-width="0" width="2.1" x="163.9" y="93.9" /><rect fill="black" height="2.1" stroke="none" stroke-width="0" width="2.1" x="173.9" y="93.9" /><rect fill="white" height="2.1" stroke="black" stroke-width="0.5" width="2.1" x="3.9" y="103.9" /><rect fill="white" height="2.4" stroke="black" stroke-width="0.5" width="2.4" x="13.8" y="103.8" /><rect fill="white" height="3.5" stroke="black" stroke-width="0.5" width="3.5" x="23.2" y="103.2" /><rect fill="white" height="4.7" stroke="black" stroke-width="0.5" width="4.7" x="32.7" y="102.7" /><rect fill="white" height="9.5" stroke="black" stroke-width="0.5" width="9.5" x="40.3" y="100.3" /><rect fill="black" height="7.1" stroke="none" stroke-width="0" width="7.1" x="51.5" y="101.5" /><rect fill="black" height="4.5" stroke="none" stroke-width="0" width="4.5" x="62.7" y="102.7" /><rect fill="black" height="3.3" stroke="none" stroke-width="0" width="3.3" x="73.3" y="103.3" /><rect fill="black" height="3.5" stroke="none" stroke-width="0" width="3.5" x="83.3" y="103.3" /><rect fill="black" height="2.1" stroke="none" stroke-width="0" width="2.1" x="93.9" y="103.9" /><rect fill="black" height="3.6" stroke="none" stroke-width="0" width="3.6" x="103.2" y="103.2" /><rect fill="black" height="3.7" stroke="none" stroke-width="0" width="3.7" x="113.1" y="103.1" /><rect fill="black" height="3.5" stroke="none" stroke-width="0" width="3.5" x="123.3" y="103.3" /><rect fill="black" height="3.0" stroke="none" stroke-width="0" width="3.0" x="133.5" y="103.5" /><rect fill="black" height="3.5" stroke="none" stroke-width="0" width="3.5" x="143.3" y="103.3" /><rect fill="black" height="5.3" stroke="none" stroke-width="0" width="5.3" x="152.3" y="102.3" /><rect fill="black" height="2.9" stroke="none" stroke-width="0" width="2.9" x="163.6" y="103.6" /><rect fill="black" height="2.9" stroke="none" stroke-width="0" width="2.9" x="173.5" y="103.5" /><rect fill="black" height="2.1" stroke="none" stroke-width="0" width="2.1" x="3.9" y="113.9" /><rect fill="black" height="2.5" stroke="none" stroke-width="0" width="2.5" x="13.8" y="113.8" /><rect fill="black" height="3.8" stroke="none" stroke-width="0" width="3.8" x="23.1" y="113.1" /><rect fill="black" height="4.6" stroke="none" stroke-width="0" width="4.6" x="32.7" y="112.7" /><rect fill="black" height="9.5" stroke="none" stroke-width="0" width="9.5" x="40.2" y="110.2" /><rect fill="white" height="7.1" stroke="black" stroke-width="0.5" width="7.1" x="51.5" y="111.5" /><rect fill="white" height="4.8" stroke="black" stroke-width="0.5" width="4.8" x="62.6" y="112.6" /><rect fill="white" height="3.4" stroke="black" stroke-width="0.5" width="3.4" x="73.3" y="113.3" /><rect fill="white" height="3.5" stroke="black" stroke-width="0.5" width="3.5" x="83.3" y="113.3" /><rect fill="white" height="2.5" stroke="black" stroke-width="0.5" width="2.5" x="93.7" y="113.7" /><rect fill="black" height="3.6" stroke="none" stroke-width="0" width="3.6" x="103.2" y="113.2" /><rect fill="white" height="3.6" stroke="black" stroke-width="0.5" width="3.6" x="113.2" y="113.2" /><rect fill="white" height="3.2" stroke="black" stroke-width="0.5" width="3.2" x="123.4" y="113.4" /><rect fill="white" height="2.8" stroke="black" stroke-width="0.5" width="2.8" x="133.6" y="113.6" /><rect fill="white" height="3.3" stroke="black" stroke-width="0.5" width="3.3" x="143.3" y="113.3" /><rect fill="white" height="5.4" stroke="black" stroke-width="0.5" width="5.4" x="152.3" y="112.3" /><rect fill="white" height="2.9" stroke="black" stroke-width="0.5" width="2.9" x="163.6" y="113.6" /><rect fill="white" height="3.0" stroke="black" stroke-width="0.5" width="3.0" x="173.5" y="113.5" /><rect fill="black" height="2.1" stroke="none" stroke-width="0" width="2.1" x="3.9" y="123.9" /><rect fill="black" height="2.1" stroke="none" stroke-width="0" width="2.1" x="13.9" y="123.9" /><rect fill="black" height="2.2" stroke="none" stroke-width="0" width="2.2" x="23.9" y="123.9" /><rect fill="black" height="2.5" stroke="none" stroke-width="0" width="2.5" x="33.7" y="123.7" /><rect fill="black" height="5.0" stroke="none" stroke-width="0" width="5.0" x="42.5" y="122.5" /><rect fill="white" height="3.7" stroke="black" stroke-width="0.5" width="3.7" x="53.2" y="123.2" /><rect fill="white" height="2.3" stroke="black" stroke-width="0.5" width="2.3" x="63.9" y="123.9" /><rect fill="white" height="2.2" stroke="black" stroke-width="0.5" width="2.2" x="73.9" y="123.9" /><rect fill="white" height="2.1" stroke="black" stroke-width="0.5" width="2.1" x="83.9" y="123.9" /><rect fill="white" height="2.1" stroke="black" stroke-width="0.5" width="2.1" x="93.9" y="123.9" /><rect fill="black" height="2.3" stroke="none" stroke-width="0" width="2.3" x="103.9" y="123.9" /><rect fill="black" height="2.1" stroke="none" stroke-width="0" width="2.1" x="113.9" y="123.9" /><rect fill="white" height="2.1" stroke="black" stroke-width="0.5" width="2.1" x="123.9" y="123.9" /><rect fill="black" height="2.1" stroke="none" stroke-width="0" width="2.1" x="133.9" y="123.9" /><rect fill="black" height="2.1" stroke="none" stroke-width="0" width="2.1" x="143.9" y="123.9" /><rect fill="white" height="3.3" stroke="black" stroke-width="0.5" width="3.3" x="153.3" y="123.3" /><rect fill="white" height="2.1" stroke="black" stroke-width="0.5" width="2.1" x="163.9" y="123.9" /><rect fill="black" height="2.1" stroke="none" stroke-width="0" width="2.1" x="173.9" y="123.9" /><rect fill="white" height="2.1" stroke="black" stroke-width="0.5" width="2.1" x="3.9" y="133.9" /><rect fill="white" height="2.1" stroke="black" stroke-width="0.5" width="2.1" x="13.9" y="133.9" /><rect fill="black" height="2.1" stroke="none" stroke-width="0" width="2.1" x="23.9" y="133.9" /><rect fill="black" height="2.1" stroke="none" stroke-width="0" width="2.1" x="33.9" y="133.9" /><rect fill="black" height="3.1" stroke="none" stroke-width="0" width="3.1" x="43.5" y="133.5" /><rect fill="white" height="2.7" stroke="black" stroke-width="0.5" width="2.7" x="53.7" y="133.7" /><rect fill="white" height="2.1" stroke="black" stroke-width="0.5" width="2.1" x="63.9" y="133.9" /><rect fill="black" height="2.5" stroke="none" stroke-width="0" width="2.5" x="73.8" y="133.8" /><rect fill="white" height="2.1" stroke="black" stroke-width="0.5" width="2.1" x="83.9" y="133.9" /><rect fill="black" height="3.2" stroke="none" stroke-width="0" width="3.2" x="93.4" y="133.4" /><rect fill="white" height="4.4" stroke="black" stroke-width="0.5" width="4.4" x="102.8" y="132.8" /><rect fill="black" height="2.4" stroke="none" stroke-width="0" width="2.4" x="113.8" y="133.8" /><rect fill="white" height="2.1" stroke="black" stroke-width="0.5" width="2.1" x="123.9" y="133.9" /><rect fill="white" height="2.4" stroke="black" stroke-width="0.5" width="2.4" x="133.8" y="133.8" /><rect fill="black" height="2.6" stroke="none" stroke-width="0" width="2.6" x="143.7" y="133.7" /><rect fill="black" height="2.1" stroke="none" stroke-width="0" width="2.1" x="153.9" y="133.9" /><rect fill="white" height="2.1" stroke="black" stroke-width="0.5" width="2.1" x="163.9" y="133.9" /><rect fill="white" height="2.3" stroke="black" stroke-width="0.5" width="2.3" x="173.8" y="133.8" /><rect fill="white" height="2.1" stroke="black" stroke-width="0.5" width="2.1" x="3.9" y="143.9" /><rect fill="white" height="2.1" stroke="black" stroke-width="0.5" width="2.1" x="13.9" y="143.9" /><rect fill="white" height="2.1" stroke="black" stroke-width="0.5" width="2.1" x="23.9" y="143.9" /><rect fill="white" height="2.1" stroke="black" stroke-width="0.5" width="2.1" x="33.9" y="143.9" /><rect fill="white" height="3.7" stroke="black" stroke-width="0.5" width="3.7" x="43.1" y="143.1" /><rect fill="black" height="2.8" stroke="none" stroke-width="0" width="2.8" x="53.6" y="143.6" /><rect fill="black" height="2.1" stroke="none" stroke-width="0" width="2.1" x="63.9" y="143.9" /><rect fill="black" height="2.1" stroke="none" stroke-width="0" width="2.1" x="73.9" y="143.9" /><rect fill="black" height="2.1" stroke="none" stroke-width="0" width="2.1" x="83.9" y="143.9" /><rect fill="white" height="2.1" stroke="black" stroke-width="0.5" width="2.1" x="93.9" y="143.9" /><rect fill="white" height="2.1" stroke="black" stroke-width="0.5" width="2.1" x="103.9" y="143.9" /><rect fill="white" height="2.1" stroke="black" stroke-width="0.5" width="2.1" x="113.9" y="143.9" /><rect fill="black" height="2.1" stroke="none" stroke-width="0" width="2.1" x="123.9" y="143.9" /><rect fill="white" height="2.1" stroke="black" stroke-width="0.5" width="2.1" x="133.9" y="143.9" /><rect fill="white" height="2.1" stroke="black" stroke-width="0.5" width="2.1" x="143.9" y="143.9" /><rect fill="white" height="2.1" stroke="black" stroke-width="0.5" width="2.1" x="153.9" y="143.9" /><rect fill="black" height="2.1" stroke="none" stroke-width="0" width="2.1" x="163.9" y="143.9" /><rect fill="white" height="2.1" stroke="black" stroke-width="0.5" width="2.1" x="173.9" y="143.9" /><rect fill="black" height="2.1" stroke="none" stroke-width="0" width="2.1" x="3.9" y="153.9" /><rect fill="black" height="2.1" stroke="none" stroke-width="0" width="2.1" x="13.9" y="153.9" /><rect fill="black" height="2.1" stroke="none" stroke-width="0" width="2.1" x="23.9" y="153.9" /><rect fill="black" height="2.1" stroke="none" stroke-width="0" width="2.1" x="33.9" y="153.9" /><rect fill="black" height="4.0" stroke="none" stroke-width="0" width="4.0" x="43.0" y="153.0" /><rect fill="white" height="2.9" stroke="black" stroke-width="0.5" width="2.9" x="53.6" y="153.6" /><rect fill="white" height="2.1" stroke="black" stroke-width="0.5" width="2.1" x="63.9" y="153.9" /><rect fill="white" height="2.1" stroke="black" stroke-width="0.5" width="2.1" x="73.9" y="153.9" /><rect fill="white" height="2.1" stroke="black" stroke-width="0.5" width="2.1" x="83.9" y="153.9" /><rect fill="white" height="2.1" stroke="black" stroke-width="0.5" width="2.1" x="93.9" y="153.9" /><rect fill="black" height="2.1" stroke="none" stroke-width="0" width="2.1" x="103.9" y="153.9" /><rect fill="black" height="2.1" stroke="none" stroke-width="0" width="2.1" x="113.9" y="153.9" /><rect fill="white" height="2.1" stroke="black" stroke-width="0.5" width="2.1" x="123.9" y="153.9" /><rect fill="black" height="2.1" stroke="none" stroke-width="0" width="2.1" x="133.9" y="153.9" /><rect fill="black" height="2.1" stroke="none" stroke-width="0" width="2.1" x="143.9" y="153.9" /><rect fill="white" height="2.3" stroke="black" stroke-width="0.5" width="2.3" x="153.9" y="153.9" /><rect fill="black" height="2.1" stroke="none" stroke-width="0" width="2.1" x="163.9" y="153.9" /><rect fill="black" height="2.1" stroke="none" stroke-width="0" width="2.1" x="173.9" y="153.9" /><rect fill="white" height="2.1" stroke="black" stroke-width="0.5" width="2.1" x="3.9" y="163.9" /><rect fill="white" height="2.1" stroke="black" stroke-width="0.5" width="2.1" x="13.9" y="163.9" /><rect fill="black" height="2.1" stroke="none" stroke-width="0" width="2.1" x="23.9" y="163.9" /><rect fill="white" height="2.1" stroke="black" stroke-width="0.5" width="2.1" x="33.9" y="163.9" /><rect fill="white" height="2.1" stroke="black" stroke-width="0.5" width="2.1" x="43.9" y="163.9" /><rect fill="black" height="2.1" stroke="none" stroke-width="0" width="2.1" x="53.9" y="163.9" /><rect fill="black" height="2.1" stroke="none" stroke-width="0" width="2.1" x="63.9" y="163.9" /><rect fill="black" height="2.1" stroke="none" stroke-width="0" width="2.1" x="73.9" y="163.9" /><rect fill="black" height="2.1" stroke="none" stroke-width="0" width="2.1" x="83.9" y="163.9" /><rect fill="white" height="2.1" stroke="black" stroke-width="0.5" width="2.1" x="93.9" y="163.9" /><rect fill="white" height="2.1" stroke="black" stroke-width="0.5" width="2.1" x="103.9" y="163.9" /><rect fill="black" height="2.1" stroke="none" stroke-width="0" width="2.1" x="113.9" y="163.9" /><rect fill="black" height="2.1" stroke="none" stroke-width="0" width="2.1" x="123.9" y="163.9" /><rect fill="white" height="2.1" stroke="black" stroke-width="0.5" width="2.1" x="133.9" y="163.9" /><rect fill="black" height="2.1" stroke="none" stroke-width="0" width="2.1" x="143.9" y="163.9" /><rect fill="black" height="2.1" stroke="none" stroke-width="0" width="2.1" x="153.9" y="163.9" /><rect fill="white" height="2.1" stroke="black" stroke-width="0.5" width="2.1" x="163.9" y="163.9" /><rect fill="black" height="2.1" stroke="none" stroke-width="0" width="2.1" x="173.9" y="163.9" /><rect fill="black" height="2.1" stroke="none" stroke-width="0" width="2.1" x="3.9" y="173.9" /><rect fill="white" height="2.1" stroke="black" stroke-width="0.5" width="2.1" x="13.9" y="173.9" /><rect fill="white" height="2.1" stroke="black" stroke-width="0.5" width="2.1" x="23.9" y="173.9" /><rect fill="white" height="2.1" stroke="black" stroke-width="0.5" width="2.1" x="33.9" y="173.9" /><rect fill="white" height="2.8" stroke="black" stroke-width="0.5" width="2.8" x="43.6" y="173.6" /><rect fill="black" height="2.2" stroke="none" stroke-width="0" width="2.2" x="53.9" y="173.9" /><rect fill="black" height="2.1" stroke="none" stroke-width="0" width="2.1" x="63.9" y="173.9" /><rect fill="black" height="2.1" stroke="none" stroke-width="0" width="2.1" x="73.9" y="173.9" /><rect fill="black" height="2.1" stroke="none" stroke-width="0" width="2.1" x="83.9" y="173.9" /><rect fill="black" height="2.1" stroke="none" stroke-width="0" width="2.1" x="93.9" y="173.9" /><rect fill="white" height="2.1" stroke="black" stroke-width="0.5" width="2.1" x="103.9" y="173.9" /><rect fill="white" height="2.1" stroke="black" stroke-width="0.5" width="2.1" x="113.9" y="173.9" /><rect fill="black" height="2.1" stroke="none" stroke-width="0" width="2.1" x="123.9" y="173.9" /><rect fill="white" height="2.1" stroke="black" stroke-width="0.5" width="2.1" x="133.9" y="173.9" /><rect fill="black" height="2.1" stroke="none" stroke-width="0" width="2.1" x="143.9" y="173.9" /><rect fill="white" height="2.1" stroke="black" stroke-width="0.5" width="2.1" x="153.9" y="173.9" /><rect fill="white" height="2.1" stroke="black" stroke-width="0.5" width="2.1" x="163.9" y="173.9" /><rect fill="white" height="2.1" stroke="black" stroke-width="0.5" width="2.1" x="173.9" y="173.9" /></g><g><text font-size="20px" text-anchor="middle" x="90.0" y="202.0">ω₁</text><text font-size="20px" text-anchor="middle" transform="rotate(-90, -22.0, 90.0)" x="-22.0" y="90.0">ω₀</text></g></svg>