<?xml version="1.0" encoding="utf-8" ?>
<svg baseProfile="full" preserveAspectRatio="xMidYMid meet" version="1.1" viewBox="0,0,17,76" xmlns="http://www.w3.org/2000/svg" xmlns:ev="http://www.w3.org/2001/xml-events" xmlns:xlink="http://www.w3.org/1999/xlink"><defs><style type="text/css"><![CDATA[
            * {
                stroke-width: 0.1;
            }
        ]]></style></defs><g transform="translate(4,4)"><rect fill="black" height="0.329" width="0.329" x="-0.1645" y="-0.1645" /><rect fill="black" height="0.033" width="0.033" x="0.9835" y="-0.0165" /><rect fill="black" height="0.027" width="0.027" x="1.9865" y="-0.0135" /><rect fill="black" height="0.021" width="0.021" x="2.9895" y="-0.0105" /><rect fill="black" height="0.02" width="0.02" x="3.99" y="-0.01" /><rect fill="black" height="0.02" width="0.02" x="4.99" y="-0.01" /><rect fill="black" height="0.018" width="0.018" x="5.991" y="-0.009" /><rect fill="black" height="0.018" width="0.018" x="6.991" y="-0.009" /><rect fill="black" height="0.016" width="0.016" x="7.992" y="-0.008" /><rect fill="black" height="0.015" width="0.015" x="8.9925" y="-0.0075" /><rect fill="black" height="0.449" width="0.449" x="-0.2245" y="0.7755" /><rect fill="black" height="0.443" width="0.443" x="0.7785" y="0.7785" /><rect fill="black" height="0.407" width="0.407" x="1.7965" y="0.7965" /><rect fill="black" height="0.063" width="0.063" x="2.9685" y="0.9685" /><rect fill="black" height="0.047" width="0.047" x="3.9765" y="0.9765" /><rect fill="black" height="0.047" width="0.047" x="4.9765" y="0.9765" /><rect fill="black" height="0.044" width="0.044" x="5.978" y="0.978" /><rect fill="black" height="0.044" width="0.044" x="6.978" y="0.978" /><rect fill="black" height="0.042" width="0.042" x="7.979" y="0.979" /><rect fill="black" height="0.042" width="0.042" x="8.979" y="0.979" /><rect fill="black" height="0.542" width="0.542" x="-0.271" y="1.729" /><rect fill="black" height="0.535" width="0.535" x="0.7324999999999999" y="1.7325" /><rect fill="black" height="0.511" width="0.511" x="1.7445" y="1.7445" /><rect fill="black" height="0.466" width="0.466" x="2.767" y="1.767" /><rect fill="black" height="0.364" width="0.364" x="3.818" y="1.818" /><rect fill="black" height="0.231" width="0.231" x="4.8845" y="1.8845" /><rect fill="black" height="0.149" width="0.149" x="5.9255" y="1.9255" /><rect fill="black" height="0.121" width="0.121" x="6.9395" y="1.9395" /><rect fill="black" height="0.11" width="0.11" x="7.945" y="1.945" /><rect fill="black" height="0.103" width="0.103" x="8.9485" y="1.9485" /><rect fill="black" height="0.599" width="0.599" x="-0.2995" y="2.7005" /><rect fill="black" height="0.593" width="0.593" x="0.7035" y="2.7035" /><rect fill="black" height="0.584" width="0.584" x="1.708" y="2.708" /><rect fill="black" height="0.576" width="0.576" x="2.712" y="2.712" /><rect fill="black" height="0.565" width="0.565" x="3.7175000000000002" y="2.7175000000000002" /><rect fill="black" height="0.553" width="0.553" x="4.7235" y="2.7235" /><rect fill="black" height="0.537" width="0.537" x="5.7315" y="2.7315" /><rect fill="black" height="0.52" width="0.52" x="6.74" y="2.74" /><rect fill="black" height="0.501" width="0.501" x="7.7495" y="2.7495" /><rect fill="black" height="0.483" width="0.483" x="8.7585" y="2.7585" /><rect fill="black" height="0.663" width="0.663" x="-0.3315" y="3.6685" /><rect fill="black" height="0.652" width="0.652" x="0.6739999999999999" y="3.674" /><rect fill="black" height="0.64" width="0.64" x="1.68" y="3.68" /><rect fill="black" height="0.633" width="0.633" x="2.6835" y="3.6835" /><rect fill="black" height="0.62" width="0.62" x="3.69" y="3.69" /><rect fill="black" height="0.608" width="0.608" x="4.696" y="3.696" /><rect fill="black" height="0.593" width="0.593" x="5.7035" y="3.7035" /><rect fill="black" height="0.577" width="0.577" x="6.7115" y="3.7115" /><rect fill="black" height="0.56" width="0.56" x="7.72" y="3.7199999999999998" /><rect fill="black" height="0.544" width="0.544" x="8.728" y="3.7279999999999998" /><rect fill="black" height="0.684" width="0.684" x="-0.342" y="4.658" /><rect fill="black" height="0.672" width="0.672" x="0.6639999999999999" y="4.664" /><rect fill="black" height="0.659" width="0.659" x="1.6705" y="4.6705" /><rect fill="black" height="0.653" width="0.653" x="2.6734999999999998" y="4.6735" /><rect fill="black" height="0.64" width="0.64" x="3.68" y="4.68" /><rect fill="black" height="0.625" width="0.625" x="4.6875" y="4.6875" /><rect fill="black" height="0.608" width="0.608" x="5.696" y="4.696" /><rect fill="black" height="0.592" width="0.592" x="6.704" y="4.704" /><rect fill="black" height="0.574" width="0.574" x="7.713" y="4.713" /><rect fill="black" height="0.556" width="0.556" x="8.722" y="4.7219999999999995" /><rect fill="black" height="0.719" width="0.719" x="-0.3595" y="5.6405" /><rect fill="black" height="0.704" width="0.704" x="0.648" y="5.648" /><rect fill="black" height="0.688" width="0.688" x="1.6560000000000001" y="5.656" /><rect fill="black" height="0.676" width="0.676" x="2.662" y="5.662" /><rect fill="black" height="0.658" width="0.658" x="3.671" y="5.671" /><rect fill="black" height="0.638" width="0.638" x="4.681" y="5.681" /><rect fill="black" height="0.615" width="0.615" x="5.6925" y="5.6925" /><rect fill="black" height="0.592" width="0.592" x="6.704" y="5.704" /><rect fill="black" height="0.567" width="0.567" x="7.7165" y="5.7165" /><rect fill="black" height="0.547" width="0.547" x="8.7265" y="5.7265" /><rect fill="black" height="0.732" width="0.732" x="-0.366" y="6.634" /><rect fill="black" height="0.716" width="0.716" x="0.642" y="6.642" /><rect fill="black" height="0.7" width="0.7" x="1.65" y="6.65" /><rect fill="black" height="0.684" width="0.684" x="2.658" y="6.658" /><rect fill="black" height="0.662" width="0.662" x="3.669" y="6.669" /><rect fill="black" height="0.642" width="0.642" x="4.679" y="6.679" /><rect fill="black" height="0.619" width="0.619" x="5.6905" y="6.6905" /><rect fill="black" height="0.597" width="0.597" x="6.7015" y="6.7015" /><rect fill="black" height="0.573" width="0.573" x="7.7135" y="6.7135" /><rect fill="black" height="0.551" width="0.551" x="8.7245" y="6.7245" /><rect fill="black" height="0.753" width="0.753" x="-0.3765" y="7.6235" /><rect fill="black" height="0.732" width="0.732" x="0.634" y="7.634" /><rect fill="black" height="0.712" width="0.712" x="1.6440000000000001" y="7.644" /><rect fill="black" height="0.701" width="0.701" x="2.6495" y="7.6495" /><rect fill="black" height="0.682" width="0.682" x="3.659" y="7.659" /><rect fill="black" height="0.664" width="0.664" x="4.668" y="7.668" /><rect fill="black" height="0.643" width="0.643" x="5.6785" y="7.6785" /><rect fill="black" height="0.622" width="0.622" x="6.689" y="7.689" /><rect fill="black" height="0.6" width="0.6" x="7.7" y="7.7" /><rect fill="black" height="0.581" width="0.581" x="8.7095" y="7.7095" /><rect fill="black" height="0.78" width="0.78" x="-0.39" y="8.61" /><rect fill="black" height="0.756" width="0.756" x="0.622" y="8.622" /><rect fill="black" height="0.733" width="0.733" x="1.6335" y="8.6335" /><rect fill="black" height="0.716" width="0.716" x="2.642" y="8.642" /><rect fill="black" height="0.691" width="0.691" x="3.6545" y="8.6545" /><rect fill="black" height="0.667" width="0.667" x="4.6665" y="8.6665" /><rect fill="black" height="0.642" width="0.642" x="5.679" y="8.679" /><rect fill="black" height="0.617" width="0.617" x="6.6915" y="8.6915" /><rect fill="black" height="0.592" width="0.592" x="7.704" y="8.704" /><rect fill="black" height="0.57" width="0.57" x="8.715" y="8.715" /><rect fill="black" height="0.787" width="0.787" x="-0.3935" y="9.6065" /><rect fill="black" height="0.763" width="0.763" x="0.6185" y="9.6185" /><rect fill="black" height="0.739" width="0.739" x="1.6305" y="9.6305" /><rect fill="black" height="0.719" width="0.719" x="2.6405" y="9.6405" /><rect fill="black" height="0.688" width="0.688" x="3.656" y="9.656" /><rect fill="black" height="0.661" width="0.661" x="4.6695" y="9.6695" /><rect fill="black" height="0.63" width="0.63" x="5.685" y="9.685" /><rect fill="black" height="0.6" width="0.6" x="6.7" y="9.7" /><rect fill="black" height="0.568" width="0.568" x="7.716" y="9.716" /><rect fill="black" height="0.541" width="0.541" x="8.7295" y="9.7295" /><rect fill="black" height="0.805" width="0.805" x="-0.4025" y="10.5975" /><rect fill="black" height="0.758" width="0.758" x="0.621" y="10.621" /><rect fill="black" height="0.723" width="0.723" x="1.6385" y="10.6385" /><rect fill="black" height="0.618" width="0.618" x="2.691" y="10.691" /><rect fill="black" height="0.555" width="0.555" x="3.7225" y="10.7225" /><rect fill="black" height="0.508" width="0.508" x="4.746" y="10.746" /><rect fill="black" height="0.47" width="0.47" x="5.765" y="10.765" /><rect fill="black" height="0.439" width="0.439" x="6.7805" y="10.7805" /><rect fill="black" height="0.409" width="0.409" x="7.7955" y="10.7955" /><rect fill="black" height="0.385" width="0.385" x="8.8075" y="10.8075" /></g><g transform="translate(4,23)"><rect fill="black" height="0.363" width="0.363" x="-0.1815" y="-0.1815" /><rect fill="black" height="0.036" width="0.036" x="0.982" y="-0.018" /><rect fill="black" height="0.035" width="0.035" x="1.9825" y="-0.0175" /><rect fill="black" height="0.03" width="0.03" x="2.985" y="-0.015" /><rect fill="black" height="0.029" width="0.029" x="3.9855" y="-0.0145" /><rect fill="black" height="0.028" width="0.028" x="4.986" y="-0.014" /><rect fill="black" height="0.027" width="0.027" x="5.9865" y="-0.0135" /><rect fill="black" height="0.031" width="0.031" x="6.9845" y="-0.0155" /><rect fill="black" height="0.025" width="0.025" x="7.9875" y="-0.0125" /><rect fill="black" height="0.024" width="0.024" x="8.988" y="-0.012" /><rect fill="black" height="0.476" width="0.476" x="-0.238" y="0.762" /><rect fill="black" height="0.484" width="0.484" x="0.758" y="0.758" /><rect fill="black" height="0.485" width="0.485" x="1.7575" y="0.7575000000000001" /><rect fill="black" height="0.12" width="0.12" x="2.94" y="0.94" /><rect fill="black" height="0.089" width="0.089" x="3.9555" y="0.9555" /><rect fill="black" height="0.09" width="0.09" x="4.955" y="0.955" /><rect fill="black" height="0.087" width="0.087" x="5.9565" y="0.9565" /><rect fill="black" height="0.087" width="0.087" x="6.9565" y="0.9565" /><rect fill="black" height="0.092" width="0.092" x="7.954" y="0.954" /><rect fill="black" height="0.093" width="0.093" x="8.9535" y="0.9535" /><rect fill="black" height="0.575" width="0.575" x="-0.2875" y="1.7125" /><rect fill="black" height="0.584" width="0.584" x="0.708" y="1.708" /><rect fill="black" height="0.597" width="0.597" x="1.7015" y="1.7015" /><rect fill="black" height="0.6" width="0.6" x="2.7" y="1.7" /><rect fill="black" height="0.575" width="0.575" x="3.7125" y="1.7125" /><rect fill="black" height="0.501" width="0.501" x="4.7495" y="1.7495" /><rect fill="black" height="0.445" width="0.445" x="5.7775" y="1.7775" /><rect fill="black" height="0.417" width="0.417" x="6.7915" y="1.7915" /><rect fill="black" height="0.393" width="0.393" x="7.8035" y="1.8035" /><rect fill="black" height="0.387" width="0.387" x="8.8065" y="1.8065" /><rect fill="black" height="0.626" width="0.626" x="-0.313" y="2.687" /><rect fill="black" height="0.636" width="0.636" x="0.6819999999999999" y="2.682" /><rect fill="black" height="0.65" width="0.65" x="1.675" y="2.675" /><rect fill="black" height="0.658" width="0.658" x="2.671" y="2.671" /><rect fill="black" height="0.669" width="0.669" x="3.6654999999999998" y="2.6654999999999998" /><rect fill="black" height="0.681" width="0.681" x="4.6594999999999995" y="2.6595" /><rect fill="black" height="0.698" width="0.698" x="5.651" y="2.651" /><rect fill="black" height="0.714" width="0.714" x="6.643" y="2.643" /><rect fill="black" height="0.731" width="0.731" x="7.6345" y="2.6345" /><rect fill="black" height="0.747" width="0.747" x="8.6265" y="2.6265" /><rect fill="black" height="0.699" width="0.699" x="-0.3495" y="3.6505" /><rect fill="black" height="0.72" width="0.72" x="0.64" y="3.64" /><rect fill="black" height="0.738" width="0.738" x="1.631" y="3.6310000000000002" /><rect fill="black" height="0.741" width="0.741" x="2.6295" y="3.6295" /><rect fill="black" height="0.754" width="0.754" x="3.623" y="3.623" /><rect fill="black" height="0.765" width="0.765" x="4.6175" y="3.6175" /><rect fill="black" height="0.778" width="0.778" x="5.611" y="3.6109999999999998" /><rect fill="black" height="0.79" width="0.79" x="6.605" y="3.605" /><rect fill="black" height="0.802" width="0.802" x="7.599" y="3.599" /><rect fill="black" height="0.814" width="0.814" x="8.593" y="3.593" /><rect fill="black" height="0.725" width="0.725" x="-0.3625" y="4.6375" /><rect fill="black" height="0.749" width="0.749" x="0.6255" y="4.6255" /><rect fill="black" height="0.768" width="0.768" x="1.616" y="4.616" /><rect fill="black" height="0.771" width="0.771" x="2.6145" y="4.6145" /><rect fill="black" height="0.783" width="0.783" x="3.6085" y="4.6085" /><rect fill="black" height="0.797" width="0.797" x="4.6015" y="4.6015" /><rect fill="black" height="0.814" width="0.814" x="5.593" y="4.593" /><rect fill="black" height="0.824" width="0.824" x="6.588" y="4.588" /><rect fill="black" height="0.836" width="0.836" x="7.582" y="4.582" /><rect fill="black" height="0.846" width="0.846" x="8.577" y="4.577" /><rect fill="black" height="0.762" width="0.762" x="-0.381" y="5.619" /><rect fill="black" height="0.792" width="0.792" x="0.604" y="5.604" /><rect fill="black" height="0.818" width="0.818" x="1.591" y="5.591" /><rect fill="black" height="0.828" width="0.828" x="2.586" y="5.586" /><rect fill="black" height="0.846" width="0.846" x="3.577" y="5.577" /><rect fill="black" height="0.86" width="0.86" x="4.57" y="5.57" /><rect fill="black" height="0.877" width="0.877" x="5.5615" y="5.5615" /><rect fill="black" height="0.891" width="0.891" x="6.5545" y="5.5545" /><rect fill="black" height="0.907" width="0.907" x="7.5465" y="5.5465" /><rect fill="black" height="0.917" width="0.917" x="8.5415" y="5.5415" /><rect fill="black" height="0.777" width="0.777" x="-0.3885" y="6.6115" /><rect fill="black" height="0.81" width="0.81" x="0.595" y="6.595" /><rect fill="black" height="0.837" width="0.837" x="1.5815000000000001" y="6.5815" /><rect fill="black" height="0.848" width="0.848" x="2.576" y="6.576" /><rect fill="black" height="0.863" width="0.863" x="3.5685000000000002" y="6.5685" /><rect fill="black" height="0.872" width="0.872" x="4.564" y="6.564" /><rect fill="black" height="0.881" width="0.881" x="5.5595" y="6.5595" /><rect fill="black" height="0.888" width="0.888" x="6.556" y="6.556" /><rect fill="black" height="0.898" width="0.898" x="7.551" y="6.551" /><rect fill="black" height="0.904" width="0.904" x="8.548" y="6.548" /><rect fill="black" height="0.798" width="0.798" x="-0.399" y="7.601" /><rect fill="black" height="0.838" width="0.838" x="0.581" y="7.581" /><rect fill="black" height="0.866" width="0.866" x="1.567" y="7.567" /><rect fill="black" height="0.871" width="0.871" x="2.5645" y="7.5645" /><rect fill="black" height="0.887" width="0.887" x="3.5564999999999998" y="7.5565" /><rect fill="black" height="0.898" width="0.898" x="4.551" y="7.551" /><rect fill="black" height="0.909" width="0.909" x="5.5455" y="7.5455" /><rect fill="black" height="0.917" width="0.917" x="6.5415" y="7.5415" /><rect fill="black" height="0.927" width="0.927" x="7.5365" y="7.5365" /><rect fill="black" height="0.936" width="0.936" x="8.532" y="7.532" /><rect fill="black" height="0.828" width="0.828" x="-0.414" y="8.586" /><rect fill="black" height="0.869" width="0.869" x="0.5655" y="8.5655" /><rect fill="black" height="0.903" width="0.903" x="1.5485" y="8.5485" /><rect fill="black" height="0.915" width="0.915" x="2.5425" y="8.5425" /><rect fill="black" height="0.935" width="0.935" x="3.5324999999999998" y="8.5325" /><rect fill="black" height="0.952" width="0.952" x="4.524" y="8.524000000000001" /><rect fill="black" height="0.967" width="0.967" x="5.5165" y="8.5165" /><rect fill="black" height="0.978" width="0.978" x="6.511" y="8.511" /><rect fill="black" height="0.99" width="0.99" x="7.505" y="8.505" /><rect fill="black" height="1.0" width="1.0" x="8.5" y="8.5" /><rect fill="black" height="0.838" width="0.838" x="-0.419" y="9.581" /><rect fill="black" height="0.881" width="0.881" x="0.5595" y="9.5595" /><rect fill="black" height="0.915" width="0.915" x="1.5425" y="9.5425" /><rect fill="black" height="0.929" width="0.929" x="2.5355" y="9.5355" /><rect fill="black" height="0.949" width="0.949" x="3.5255" y="9.5255" /><rect fill="black" height="0.96" width="0.96" x="4.52" y="9.52" /><rect fill="black" height="0.971" width="0.971" x="5.5145" y="9.5145" /><rect fill="black" height="0.977" width="0.977" x="6.5115" y="9.5115" /><rect fill="black" height="0.982" width="0.982" x="7.509" y="9.509" /><rect fill="black" height="0.988" width="0.988" x="8.506" y="9.506" /><rect fill="black" height="0.863" width="0.863" x="-0.4315" y="10.5685" /><rect fill="black" height="0.889" width="0.889" x="0.5555" y="10.5555" /><rect fill="black" height="0.922" width="0.922" x="1.539" y="10.539" /><rect fill="black" height="0.853" width="0.853" x="2.5735" y="10.5735" /><rect fill="black" height="0.84" width="0.84" x="3.58" y="10.58" /><rect fill="black" height="0.836" width="0.836" x="4.582" y="10.582" /><rect fill="black" height="0.836" width="0.836" x="5.582" y="10.582" /><rect fill="black" height="0.833" width="0.833" x="6.5835" y="10.5835" /><rect fill="black" height="0.829" width="0.829" x="7.5855" y="10.5855" /><rect fill="black" height="0.823" width="0.823" x="8.5885" y="10.5885" /></g><g transform="translate(4,42)"><rect fill="black" height="0.59" width="0.59" x="-0.295" y="-0.295" /><rect fill="black" height="1.0" width="1.0" x="0.5" y="-0.5" /><rect fill="black" height="1.0" width="1.0" x="1.5" y="-0.5" /><rect fill="black" height="1.0" width="1.0" x="2.5" y="-0.5" /><rect fill="black" height="1.0" width="1.0" x="3.5" y="-0.5" /><rect fill="black" height="1.0" width="1.0" x="4.5" y="-0.5" /><rect fill="black" height="1.0" width="1.0" x="5.5" y="-0.5" /><rect fill="black" height="1.0" width="1.0" x="6.5" y="-0.5" /><rect fill="black" height="1.0" width="1.0" x="7.5" y="-0.5" /><rect fill="black" height="1.0" width="1.0" x="8.5" y="-0.5" /><rect fill="black" height="0.384" width="0.384" x="-0.192" y="0.808" /><rect fill="black" height="0.348" width="0.348" x="0.8260000000000001" y="0.8260000000000001" /><rect fill="black" height="0.634" width="0.634" x="1.683" y="0.683" /><rect fill="black" height="1.0" width="1.0" x="2.5" y="0.5" /><rect fill="black" height="1.0" width="1.0" x="3.5" y="0.5" /><rect fill="black" height="1.0" width="1.0" x="4.5" y="0.5" /><rect fill="black" height="1.0" width="1.0" x="5.5" y="0.5" /><rect fill="black" height="1.0" width="1.0" x="6.5" y="0.5" /><rect fill="black" height="1.0" width="1.0" x="7.5" y="0.5" /><rect fill="black" height="1.0" width="1.0" x="8.5" y="0.5" /><rect fill="black" height="0.46" width="0.46" x="-0.23" y="1.77" /><rect fill="black" height="0.449" width="0.449" x="0.7755" y="1.7755" /><rect fill="black" height="0.609" width="0.609" x="1.6955" y="1.6955" /><rect fill="black" height="0.745" width="0.745" x="2.6275" y="1.6275" /><rect fill="black" height="0.89" width="0.89" x="3.555" y="1.555" /><rect fill="black" height="0.982" width="0.982" x="4.509" y="1.509" /><rect fill="black" height="0.999" width="0.999" x="5.5005" y="1.5005" /><rect fill="black" height="1.0" width="1.0" x="6.5" y="1.5" /><rect fill="black" height="0.999" width="0.999" x="7.5005" y="1.5005" /><rect fill="black" height="0.999" width="0.999" x="8.5005" y="1.5005" /><rect fill="black" height="0.415" width="0.415" x="-0.2075" y="2.7925" /><rect fill="black" height="0.417" width="0.417" x="0.7915" y="2.7915" /><rect fill="black" height="0.488" width="0.488" x="1.756" y="2.7560000000000002" /><rect fill="black" height="0.501" width="0.501" x="2.7495" y="2.7495" /><rect fill="black" height="0.567" width="0.567" x="3.7165" y="2.7165" /><rect fill="black" height="0.597" width="0.597" x="4.7015" y="2.7015000000000002" /><rect fill="black" height="0.656" width="0.656" x="5.672" y="2.672" /><rect fill="black" height="0.713" width="0.713" x="6.6435" y="2.6435" /><rect fill="black" height="0.75" width="0.75" x="7.625" y="2.625" /><rect fill="black" height="0.794" width="0.794" x="8.603" y="2.6029999999999998" /><rect fill="black" height="0.41" width="0.41" x="-0.205" y="3.795" /><rect fill="black" height="0.424" width="0.424" x="0.788" y="3.788" /><rect fill="black" height="0.473" width="0.473" x="1.7635" y="3.7635" /><rect fill="black" height="0.501" width="0.501" x="2.7495" y="3.7495" /><rect fill="black" height="0.541" width="0.541" x="3.7295" y="3.7295" /><rect fill="black" height="0.581" width="0.581" x="4.7095" y="3.7095000000000002" /><rect fill="black" height="0.625" width="0.625" x="5.6875" y="3.6875" /><rect fill="black" height="0.648" width="0.648" x="6.676" y="3.676" /><rect fill="black" height="0.699" width="0.699" x="7.6505" y="3.6505" /><rect fill="black" height="0.728" width="0.728" x="8.636" y="3.636" /><rect fill="black" height="0.38" width="0.38" x="-0.19" y="4.81" /><rect fill="black" height="0.408" width="0.408" x="0.796" y="4.796" /><rect fill="black" height="0.452" width="0.452" x="1.774" y="4.774" /><rect fill="black" height="0.459" width="0.459" x="2.7705" y="4.7705" /><rect fill="black" height="0.538" width="0.538" x="3.731" y="4.731" /><rect fill="black" height="0.58" width="0.58" x="4.71" y="4.71" /><rect fill="black" height="0.611" width="0.611" x="5.6945" y="4.6945" /><rect fill="black" height="0.647" width="0.647" x="6.6765" y="4.6765" /><rect fill="black" height="0.674" width="0.674" x="7.663" y="4.663" /><rect fill="black" height="0.716" width="0.716" x="8.642" y="4.642" /><rect fill="black" height="0.357" width="0.357" x="-0.1785" y="5.8215" /><rect fill="black" height="0.386" width="0.386" x="0.8069999999999999" y="5.807" /><rect fill="black" height="0.439" width="0.439" x="1.7805" y="5.7805" /><rect fill="black" height="0.476" width="0.476" x="2.762" y="5.7620000000000005" /><rect fill="black" height="0.507" width="0.507" x="3.7465" y="5.7465" /><rect fill="black" height="0.557" width="0.557" x="4.7215" y="5.7215" /><rect fill="black" height="0.619" width="0.619" x="5.6905" y="5.6905" /><rect fill="black" height="0.678" width="0.678" x="6.661" y="5.661" /><rect fill="black" height="0.726" width="0.726" x="7.6370000000000005" y="5.6370000000000005" /><rect fill="black" height="0.758" width="0.758" x="8.621" y="5.621" /><rect fill="black" height="0.331" width="0.331" x="-0.1655" y="6.8345" /><rect fill="black" height="0.367" width="0.367" x="0.8165" y="6.8165" /><rect fill="black" height="0.406" width="0.406" x="1.797" y="6.797" /><rect fill="black" height="0.454" width="0.454" x="2.773" y="6.773" /><rect fill="black" height="0.53" width="0.53" x="3.735" y="6.735" /><rect fill="black" height="0.567" width="0.567" x="4.7165" y="6.7165" /><rect fill="black" height="0.639" width="0.639" x="5.6805" y="6.6805" /><rect fill="black" height="0.68" width="0.68" x="6.66" y="6.66" /><rect fill="black" height="0.725" width="0.725" x="7.6375" y="6.6375" /><rect fill="black" height="0.764" width="0.764" x="8.618" y="6.618" /><rect fill="black" height="0.322" width="0.322" x="-0.161" y="7.839" /><rect fill="black" height="0.379" width="0.379" x="0.8105" y="7.8105" /><rect fill="black" height="0.415" width="0.415" x="1.7925" y="7.7925" /><rect fill="black" height="0.459" width="0.459" x="2.7705" y="7.7705" /><rect fill="black" height="0.5" width="0.5" x="3.75" y="7.75" /><rect fill="black" height="0.557" width="0.557" x="4.7215" y="7.7215" /><rect fill="black" height="0.607" width="0.607" x="5.6965" y="7.6965" /><rect fill="black" height="0.649" width="0.649" x="6.6754999999999995" y="7.6754999999999995" /><rect fill="black" height="0.706" width="0.706" x="7.647" y="7.647" /><rect fill="black" height="0.725" width="0.725" x="8.6375" y="7.6375" /><rect fill="black" height="0.268" width="0.268" x="-0.134" y="8.866" /><rect fill="black" height="0.342" width="0.342" x="0.829" y="8.829" /><rect fill="black" height="0.415" width="0.415" x="1.7925" y="8.7925" /><rect fill="black" height="0.46" width="0.46" x="2.77" y="8.77" /><rect fill="black" height="0.519" width="0.519" x="3.7405" y="8.7405" /><rect fill="black" height="0.579" width="0.579" x="4.7105" y="8.7105" /><rect fill="black" height="0.641" width="0.641" x="5.6795" y="8.6795" /><rect fill="black" height="0.678" width="0.678" x="6.661" y="8.661" /><rect fill="black" height="0.719" width="0.719" x="7.6405" y="8.6405" /><rect fill="black" height="0.763" width="0.763" x="8.6185" y="8.6185" /><rect fill="black" height="0.296" width="0.296" x="-0.148" y="9.852" /><rect fill="black" height="0.333" width="0.333" x="0.8335" y="9.8335" /><rect fill="black" height="0.403" width="0.403" x="1.7985" y="9.7985" /><rect fill="black" height="0.471" width="0.471" x="2.7645" y="9.7645" /><rect fill="black" height="0.533" width="0.533" x="3.7335" y="9.7335" /><rect fill="black" height="0.607" width="0.607" x="4.6965" y="9.6965" /><rect fill="black" height="0.667" width="0.667" x="5.6665" y="9.6665" /><rect fill="black" height="0.712" width="0.712" x="6.644" y="9.644" /><rect fill="black" height="0.767" width="0.767" x="7.6165" y="9.6165" /><rect fill="black" height="0.81" width="0.81" x="8.595" y="9.595" /><rect fill="black" height="0.245" width="0.245" x="-0.1225" y="10.8775" /><rect fill="black" height="0.348" width="0.348" x="0.8260000000000001" y="10.826" /><rect fill="black" height="0.452" width="0.452" x="1.774" y="10.774" /><rect fill="black" height="0.661" width="0.661" x="2.6695" y="10.6695" /><rect fill="black" height="0.736" width="0.736" x="3.632" y="10.632" /><rect fill="black" height="0.815" width="0.815" x="4.5925" y="10.5925" /><rect fill="black" height="0.839" width="0.839" x="5.5805" y="10.5805" /><rect fill="black" height="0.88" width="0.88" x="6.56" y="10.56" /><rect fill="black" height="0.922" width="0.922" x="7.539" y="10.539" /><rect fill="black" height="0.941" width="0.941" x="8.5295" y="10.5295" /></g><g transform="translate(4,61)"><rect fill="black" height="0.444" width="0.444" x="-0.222" y="-0.222" /><rect fill="black" height="1.0" width="1.0" x="0.5" y="-0.5" /><rect fill="black" height="1.0" width="1.0" x="1.5" y="-0.5" /><rect fill="black" height="1.0" width="1.0" x="2.5" y="-0.5" /><rect fill="black" height="1.0" width="1.0" x="3.5" y="-0.5" /><rect fill="black" height="1.0" width="1.0" x="4.5" y="-0.5" /><rect fill="black" height="1.0" width="1.0" x="5.5" y="-0.5" /><rect fill="black" height="1.0" width="1.0" x="6.5" y="-0.5" /><rect fill="black" height="1.0" width="1.0" x="7.5" y="-0.5" /><rect fill="black" height="1.0" width="1.0" x="8.5" y="-0.5" /><rect fill="black" height="0.283" width="0.283" x="-0.1415" y="0.8585" /><rect fill="black" height="0.229" width="0.229" x="0.8855" y="0.8855" /><rect fill="black" height="0.429" width="0.429" x="1.7855" y="0.7855" /><rect fill="black" height="0.993" width="0.993" x="2.5035" y="0.5035000000000001" /><rect fill="black" height="0.999" width="0.999" x="3.5005" y="0.5005" /><rect fill="black" height="0.998" width="0.998" x="4.501" y="0.501" /><rect fill="black" height="0.997" width="0.997" x="5.5015" y="0.5015000000000001" /><rect fill="black" height="0.997" width="0.997" x="6.5015" y="0.5015000000000001" /><rect fill="black" height="0.996" width="0.996" x="7.502" y="0.502" /><rect fill="black" height="0.996" width="0.996" x="8.502" y="0.502" /><rect fill="black" height="0.293" width="0.293" x="-0.1465" y="1.8535" /><rect fill="black" height="0.259" width="0.259" x="0.8705" y="1.8705" /><rect fill="black" height="0.358" width="0.358" x="1.821" y="1.821" /><rect fill="black" height="0.427" width="0.427" x="2.7865" y="1.7865" /><rect fill="black" height="0.592" width="0.592" x="3.704" y="1.704" /><rect fill="black" height="0.729" width="0.729" x="4.6355" y="1.6355" /><rect fill="black" height="0.794" width="0.794" x="5.603" y="1.603" /><rect fill="black" height="0.818" width="0.818" x="6.591" y="1.591" /><rect fill="black" height="0.838" width="0.838" x="7.581" y="1.581" /><rect fill="black" height="0.847" width="0.847" x="8.5765" y="1.5765" /><rect fill="black" height="0.267" width="0.267" x="-0.1335" y="2.8665" /><rect fill="black" height="0.239" width="0.239" x="0.8805000000000001" y="2.8805" /><rect fill="black" height="0.226" width="0.226" x="1.887" y="2.887" /><rect fill="black" height="0.242" width="0.242" x="2.879" y="2.879" /><rect fill="black" height="0.226" width="0.226" x="3.887" y="2.887" /><rect fill="black" height="0.219" width="0.219" x="4.8905" y="2.8905" /><rect fill="black" height="0.209" width="0.209" x="5.8955" y="2.8955" /><rect fill="black" height="0.209" width="0.209" x="6.8955" y="2.8955" /><rect fill="black" height="0.219" width="0.219" x="7.8905" y="2.8905" /><rect fill="black" height="0.229" width="0.229" x="8.8855" y="2.8855" /><rect fill="black" height="0.202" width="0.202" x="-0.101" y="3.899" /><rect fill="black" height="0.191" width="0.191" x="0.9045" y="3.9045" /><rect fill="black" height="0.183" width="0.183" x="1.9085" y="3.9085" /><rect fill="black" height="0.187" width="0.187" x="2.9065" y="3.9065" /><rect fill="black" height="0.158" width="0.158" x="3.921" y="3.921" /><rect fill="black" height="0.175" width="0.175" x="4.9125" y="3.9125" /><rect fill="black" height="0.158" width="0.158" x="5.921" y="3.921" /><rect fill="black" height="0.148" width="0.148" x="6.926" y="3.926" /><rect fill="black" height="0.148" width="0.148" x="7.926" y="3.926" /><rect fill="black" height="0.132" width="0.132" x="8.934" y="3.934" /><rect fill="black" height="0.171" width="0.171" x="-0.0855" y="4.9145" /><rect fill="black" height="0.148" width="0.148" x="0.926" y="4.926" /><rect fill="black" height="0.148" width="0.148" x="1.926" y="4.926" /><rect fill="black" height="0.115" width="0.115" x="2.9425" y="4.9425" /><rect fill="black" height="0.127" width="0.127" x="3.9365" y="4.9365" /><rect fill="black" height="0.108" width="0.108" x="4.946" y="4.946" /><rect fill="black" height="0.101" width="0.101" x="5.9495" y="4.9495" /><rect fill="black" height="0.138" width="0.138" x="6.931" y="4.931" /><rect fill="black" height="0.121" width="0.121" x="7.9395" y="4.9395" /><rect fill="black" height="0.121" width="0.121" x="8.9395" y="4.9395" /><rect fill="black" height="0.085" width="0.085" x="-0.0425" y="5.9575" /><rect fill="black" height="0.138" width="0.138" x="0.931" y="5.931" /><rect fill="black" height="0.076" width="0.076" x="1.962" y="5.962" /><rect fill="black" height="0.085" width="0.085" x="2.9575" y="5.9575" /><rect fill="black" height="0.085" width="0.085" x="3.9575" y="5.9575" /><rect fill="black" height="0.076" width="0.076" x="4.962" y="5.962" /><rect fill="black" height="0.076" width="0.076" x="5.962" y="5.962" /><rect fill="black" height="0.076" width="0.076" x="6.962" y="5.962" /><rect fill="black" height="0.076" width="0.076" x="7.962" y="5.962" /><rect fill="black" height="0.076" width="0.076" x="8.962" y="5.962" /><rect fill="black" height="0.101" width="0.101" x="-0.0505" y="6.9495" /><rect fill="black" height="0.054" width="0.054" x="0.973" y="6.973" /><rect fill="black" height="0.076" width="0.076" x="1.962" y="6.962" /><rect fill="black" height="0.054" width="0.054" x="2.973" y="6.973" /><rect fill="black" height="0.066" width="0.066" x="3.967" y="6.967" /><rect fill="black" height="0.108" width="0.108" x="4.946" y="6.946" /><rect fill="black" height="0.108" width="0.108" x="5.946" y="6.946" /><rect fill="black" height="0.101" width="0.101" x="6.9495" y="6.9495" /><rect fill="black" height="0.108" width="0.108" x="7.946" y="6.946" /><rect fill="black" height="0.115" width="0.115" x="8.9425" y="6.9425" /><rect fill="black" height="0.115" width="0.115" x="-0.0575" y="7.9425" /><rect fill="black" height="0.076" width="0.076" x="0.962" y="7.962" /><rect fill="black" height="0.076" width="0.076" x="1.962" y="7.962" /><rect fill="black" height="0.094" width="0.094" x="2.953" y="7.953" /><rect fill="black" height="0.066" width="0.066" x="3.967" y="7.967" /><rect fill="black" height="0.066" width="0.066" x="4.967" y="7.967" /><rect fill="black" height="0.085" width="0.085" x="5.9575" y="7.9575" /><rect fill="black" height="0.076" width="0.076" x="6.962" y="7.962" /><rect fill="black" height="0.066" width="0.066" x="7.967" y="7.967" /><rect fill="black" height="0.066" width="0.066" x="8.967" y="7.967" /><rect fill="black" height="0.085" width="0.085" x="-0.0425" y="8.9575" /><rect fill="black" height="0.038" width="0.038" x="0.981" y="8.981" /><rect fill="black" height="0.054" width="0.054" x="1.973" y="8.973" /><rect fill="black" height="0.038" width="0.038" x="2.981" y="8.981" /><rect fill="black" height="0.054" width="0.054" x="3.973" y="8.973" /><rect fill="black" height="0.066" width="0.066" x="4.967" y="8.967" /><rect fill="black" height="0.066" width="0.066" x="5.967" y="8.967" /><rect fill="black" height="0.054" width="0.054" x="6.973" y="8.973" /><rect fill="black" height="0.054" width="0.054" x="7.973" y="8.973" /><rect fill="black" height="0.066" width="0.066" x="8.967" y="8.967" /><rect fill="black" height="0.076" width="0.076" x="-0.038" y="9.962" /><rect fill="black" height="0.054" width="0.054" x="0.973" y="9.973" /><rect fill="black" height="0.076" width="0.076" x="1.962" y="9.962" /><rect fill="black" height="0.076" width="0.076" x="2.962" y="9.962" /><rect fill="black" height="0.076" width="0.076" x="3.962" y="9.962" /><rect fill="black" height="0.085" width="0.085" x="4.9575" y="9.9575" /><rect fill="black" height="0.127" width="0.127" x="5.9365" y="9.9365" /><rect fill="black" height="0.127" width="0.127" x="6.9365" y="9.9365" /><rect fill="black" height="0.115" width="0.115" x="7.9425" y="9.9425" /><rect fill="black" height="0.127" width="0.127" x="8.9365" y="9.9365" /><rect fill="black" height="0.038" width="0.038" x="-0.019" y="10.981" /><rect fill="black" height="0.038" width="0.038" x="0.981" y="10.981" /><rect fill="black" height="0.054" width="0.054" x="1.973" y="10.973" /><rect fill="black" height="0.153" width="0.153" x="2.9235" y="10.9235" /><rect fill="black" height="0.236" width="0.236" x="3.882" y="10.882" /><rect fill="black" height="0.27" width="0.27" x="4.865" y="10.865" /><rect fill="black" height="0.296" width="0.296" x="5.852" y="10.852" /><rect fill="black" height="0.308" width="0.308" x="6.846" y="10.846" /><rect fill="black" height="0.326" width="0.326" x="7.837" y="10.837" /><rect fill="black" height="0.32" width="0.32" x="8.84" y="10.84" /></g></svg>