<?xml version="1.0" encoding="utf-8" ?>
<svg baseProfile="full" height="100%" preserveAspectRatio="xMidYMid meet" version="1.1" viewBox="-40,-40,450,160" width="100%" xmlns="http://www.w3.org/2000/svg" xmlns:ev="http://www.w3.org/2001/xml-events" xmlns:xlink="http://www.w3.org/1999/xlink"><defs><style type="text/css"><![CDATA[
        @import url(https://cdn.jsdelivr.net/npm/firacode@6.2.0/distr/fira_code.css);
        text {
            font-family: 'STIX Two', 'STIX Two Math', 'STIXMath', 'DejaVu Math TeX Glyph',
                        'DejaVu Serif', 'Cambria Math', 'Latin Modern Math', 'FiraCode',
                        'serif';
        }
    ]]></style><style type="text/css"><![CDATA[
        @import url(https://cdn.jsdelivr.net/npm/firacode@6.2.0/distr/fira_code.css);
        text {
            font-family: 'STIX Two', 'STIX Two Math', 'STIXMath', 'DejaVu Math TeX Glyph',
                        'DejaVu Serif', 'Cambria Math', 'Latin Modern Math', 'FiraCode',
                        'serif';
        }
    ]]></style></defs><g><rect fill="white" height="3.0" stroke="black" stroke-width="0.5" width="3.0" x="3.5" y="3.5" /><rect fill="black" height="2.1" stroke="none" stroke-width="0" width="2.1" x="13.9" y="3.9" /><rect fill="white" height="2.1" stroke="black" stroke-width="0.5" width="2.1" x="23.9" y="3.9" /><rect fill="white" height="2.6" stroke="black" stroke-width="0.5" width="2.6" x="33.7" y="3.7" /><rect fill="black" height="4.4" stroke="none" stroke-width="0" width="4.4" x="42.8" y="2.8" /><rect fill="white" height="5.3" stroke="black" stroke-width="0.5" width="5.3" x="52.4" y="2.4" /><rect fill="black" height="2.1" stroke="none" stroke-width="0" width="2.1" x="63.9" y="3.9" /><rect fill="white" height="3.8" stroke="black" stroke-width="0.5" width="3.8" x="73.1" y="3.1" /><rect fill="black" height="4.5" stroke="none" stroke-width="0" width="4.5" x="82.7" y="2.7" /><rect fill="white" height="6.5" stroke="black" stroke-width="0.5" width="6.5" x="91.7" y="1.7" /><rect fill="black" height="3.8" stroke="none" stroke-width="0" width="3.8" x="103.1" y="3.1" /><rect fill="black" height="2.1" stroke="none" stroke-width="0" width="2.1" x="113.9" y="3.9" /><rect fill="white" height="2.8" stroke="black" stroke-width="0.5" width="2.8" x="123.6" y="3.6" /><rect fill="white" height="5.2" stroke="black" stroke-width="0.5" width="5.2" x="132.4" y="2.4" /><rect fill="black" height="6.4" stroke="none" stroke-width="0" width="6.4" x="141.8" y="1.8" /><rect fill="black" height="2.7" stroke="none" stroke-width="0" width="2.7" x="153.7" y="3.7" /><rect fill="white" height="3.0" stroke="black" stroke-width="0.5" width="3.0" x="163.5" y="3.5" /><rect fill="black" height="5.8" stroke="none" stroke-width="0" width="5.8" x="172.1" y="2.1" /><rect fill="white" height="3.3" stroke="black" stroke-width="0.5" width="3.3" x="183.3" y="3.3" /><rect fill="white" height="5.3" stroke="black" stroke-width="0.5" width="5.3" x="192.3" y="2.3" /><rect fill="white" height="6.3" stroke="black" stroke-width="0.5" width="6.3" x="201.9" y="1.9" /><rect fill="white" height="2.6" stroke="black" stroke-width="0.5" width="2.6" x="213.7" y="3.7" /><rect fill="white" height="5.9" stroke="black" stroke-width="0.5" width="5.9" x="222.1" y="2.1" /><rect fill="white" height="5.9" stroke="black" stroke-width="0.5" width="5.9" x="232.1" y="2.1" /><rect fill="white" height="2.1" stroke="black" stroke-width="0.5" width="2.1" x="243.9" y="3.9" /><rect fill="white" height="3.1" stroke="black" stroke-width="0.5" width="3.1" x="253.5" y="3.5" /><rect fill="white" height="3.0" stroke="black" stroke-width="0.5" width="3.0" x="263.5" y="3.5" /><rect fill="black" height="2.8" stroke="none" stroke-width="0" width="2.8" x="273.6" y="3.6" /><rect fill="white" height="6.9" stroke="black" stroke-width="0.5" width="6.9" x="281.6" y="1.6" /><rect fill="white" height="4.8" stroke="black" stroke-width="0.5" width="4.8" x="292.6" y="2.6" /><rect fill="white" height="2.1" stroke="black" stroke-width="0.5" width="2.1" x="303.9" y="3.9" /><rect fill="black" height="2.1" stroke="none" stroke-width="0" width="2.1" x="313.9" y="3.9" /><rect fill="black" height="4.1" stroke="none" stroke-width="0" width="4.1" x="322.9" y="2.9" /><rect fill="black" height="3.0" stroke="none" stroke-width="0" width="3.0" x="333.5" y="3.5" /><rect fill="white" height="2.4" stroke="black" stroke-width="0.5" width="2.4" x="343.8" y="3.8" /><rect fill="black" height="4.8" stroke="none" stroke-width="0" width="4.8" x="352.6" y="2.6" /><rect fill="white" height="2.7" stroke="black" stroke-width="0.5" width="2.7" x="363.7" y="3.7" /><rect fill="white" height="4.7" stroke="black" stroke-width="0.5" width="4.7" x="2.6" y="12.6" /><rect fill="black" height="2.1" stroke="none" stroke-width="0" width="2.1" x="13.9" y="13.9" /><rect fill="white" height="2.1" stroke="black" stroke-width="0.5" width="2.1" x="23.9" y="13.9" /><rect fill="black" height="2.9" stroke="none" stroke-width="0" width="2.9" x="33.6" y="13.6" /><rect fill="black" height="4.3" stroke="none" stroke-width="0" width="4.3" x="42.8" y="12.8" /><rect fill="white" height="5.1" stroke="black" stroke-width="0.5" width="5.1" x="52.4" y="12.4" /><rect fill="white" height="2.1" stroke="black" stroke-width="0.5" width="2.1" x="63.9" y="13.9" /><rect fill="black" height="2.1" stroke="none" stroke-width="0" width="2.1" x="73.9" y="13.9" /><rect fill="black" height="4.2" stroke="none" stroke-width="0" width="4.2" x="82.9" y="12.9" /><rect fill="white" height="7.8" stroke="black" stroke-width="0.5" width="7.8" x="91.1" y="11.1" /><rect fill="black" height="2.9" stroke="none" stroke-width="0" width="2.9" x="103.6" y="13.6" /><rect fill="white" height="2.1" stroke="black" stroke-width="0.5" width="2.1" x="113.9" y="13.9" /><rect fill="white" height="2.1" stroke="black" stroke-width="0.5" width="2.1" x="123.9" y="13.9" /><rect fill="white" height="3.7" stroke="black" stroke-width="0.5" width="3.7" x="133.1" y="13.1" /><rect fill="black" height="7.0" stroke="none" stroke-width="0" width="7.0" x="141.5" y="11.5" /><rect fill="black" height="4.6" stroke="none" stroke-width="0" width="4.6" x="152.7" y="12.7" /><rect fill="white" height="2.8" stroke="black" stroke-width="0.5" width="2.8" x="163.6" y="13.6" /><rect fill="black" height="6.2" stroke="none" stroke-width="0" width="6.2" x="171.9" y="11.9" /><rect fill="white" height="3.4" stroke="black" stroke-width="0.5" width="3.4" x="183.3" y="13.3" /><rect fill="white" height="5.3" stroke="black" stroke-width="0.5" width="5.3" x="192.4" y="12.4" /><rect fill="white" height="6.7" stroke="black" stroke-width="0.5" width="6.7" x="201.7" y="11.7" /><rect fill="white" height="2.1" stroke="black" stroke-width="0.5" width="2.1" x="213.9" y="13.9" /><rect fill="white" height="5.6" stroke="black" stroke-width="0.5" width="5.6" x="222.2" y="12.2" /><rect fill="white" height="6.4" stroke="black" stroke-width="0.5" width="6.4" x="231.8" y="11.8" /><rect fill="black" height="2.1" stroke="none" stroke-width="0" width="2.1" x="243.9" y="13.9" /><rect fill="white" height="2.2" stroke="black" stroke-width="0.5" width="2.2" x="253.9" y="13.9" /><rect fill="white" height="4.1" stroke="black" stroke-width="0.5" width="4.1" x="263.0" y="13.0" /><rect fill="black" height="2.8" stroke="none" stroke-width="0" width="2.8" x="273.6" y="13.6" /><rect fill="white" height="7.2" stroke="black" stroke-width="0.5" width="7.2" x="281.4" y="11.4" /><rect fill="white" height="5.9" stroke="black" stroke-width="0.5" width="5.9" x="292.1" y="12.1" /><rect fill="white" height="2.1" stroke="black" stroke-width="0.5" width="2.1" x="303.9" y="13.9" /><rect fill="black" height="2.8" stroke="none" stroke-width="0" width="2.8" x="313.6" y="13.6" /><rect fill="black" height="4.6" stroke="none" stroke-width="0" width="4.6" x="322.7" y="12.7" /><rect fill="black" height="2.1" stroke="none" stroke-width="0" width="2.1" x="333.9" y="13.9" /><rect fill="white" height="4.1" stroke="black" stroke-width="0.5" width="4.1" x="343.0" y="13.0" /><rect fill="black" height="4.2" stroke="none" stroke-width="0" width="4.2" x="352.9" y="12.9" /><rect fill="white" height="3.4" stroke="black" stroke-width="0.5" width="3.4" x="363.3" y="13.3" /></g><g><text font-size="12px" text-anchor="middle" x="185.0" y="-22.0">Positional embeddings</text><text font-size="12px" text-anchor="middle" transform="rotate(-90, -22.0, 10.0)" x="-22.0" y="10.0">nanda</text></g><g><rect fill="white" height="4.3" stroke="black" stroke-width="0.5" width="4.3" x="2.9" y="62.9" /><rect fill="black" height="3.1" stroke="none" stroke-width="0" width="3.1" x="13.5" y="63.5" /><rect fill="black" height="4.6" stroke="none" stroke-width="0" width="4.6" x="22.7" y="62.7" /><rect fill="black" height="5.1" stroke="none" stroke-width="0" width="5.1" x="32.5" y="62.5" /><rect fill="black" height="5.8" stroke="none" stroke-width="0" width="5.8" x="42.1" y="62.1" /><rect fill="white" height="5.0" stroke="black" stroke-width="0.5" width="5.0" x="52.5" y="62.5" /><rect fill="white" height="5.9" stroke="black" stroke-width="0.5" width="5.9" x="62.1" y="62.1" /><rect fill="white" height="4.7" stroke="black" stroke-width="0.5" width="4.7" x="72.6" y="62.6" /><rect fill="black" height="7.1" stroke="none" stroke-width="0" width="7.1" x="81.5" y="61.5" /><rect fill="white" height="2.1" stroke="black" stroke-width="0.5" width="2.1" x="93.9" y="63.9" /><rect fill="white" height="8.1" stroke="black" stroke-width="0.5" width="8.1" x="101.0" y="61.0" /><rect fill="white" height="4.2" stroke="black" stroke-width="0.5" width="4.2" x="112.9" y="62.9" /><rect fill="white" height="3.2" stroke="black" stroke-width="0.5" width="3.2" x="123.4" y="63.4" /><rect fill="black" height="4.2" stroke="none" stroke-width="0" width="4.2" x="132.9" y="62.9" /><rect fill="black" height="7.4" stroke="none" stroke-width="0" width="7.4" x="141.3" y="61.3" /><rect fill="white" height="7.8" stroke="black" stroke-width="0.5" width="7.8" x="151.1" y="61.1" /><rect fill="black" height="4.0" stroke="none" stroke-width="0" width="4.0" x="163.0" y="63.0" /><rect fill="white" height="5.2" stroke="black" stroke-width="0.5" width="5.2" x="172.4" y="62.4" /><rect fill="white" height="5.4" stroke="black" stroke-width="0.5" width="5.4" x="182.3" y="62.3" /><rect fill="black" height="8.7" stroke="none" stroke-width="0" width="8.7" x="190.6" y="60.6" /><rect fill="black" height="8.7" stroke="none" stroke-width="0" width="8.7" x="200.6" y="60.6" /><rect fill="white" height="2.1" stroke="black" stroke-width="0.5" width="2.1" x="213.9" y="63.9" /><rect fill="white" height="9.4" stroke="black" stroke-width="0.5" width="9.4" x="220.3" y="60.3" /><rect fill="black" height="2.1" stroke="none" stroke-width="0" width="2.1" x="233.9" y="63.9" /><rect fill="black" height="4.0" stroke="none" stroke-width="0" width="4.0" x="243.0" y="63.0" /><rect fill="black" height="7.1" stroke="none" stroke-width="0" width="7.1" x="251.4" y="61.4" /><rect fill="white" height="2.1" stroke="black" stroke-width="0.5" width="2.1" x="263.9" y="63.9" /><rect fill="black" height="4.6" stroke="none" stroke-width="0" width="4.6" x="272.7" y="62.7" /><rect fill="black" height="5.3" stroke="none" stroke-width="0" width="5.3" x="282.4" y="62.4" /><rect fill="black" height="7.2" stroke="none" stroke-width="0" width="7.2" x="291.4" y="61.4" /><rect fill="black" height="9.3" stroke="none" stroke-width="0" width="9.3" x="300.4" y="60.4" /><rect fill="white" height="2.1" stroke="black" stroke-width="0.5" width="2.1" x="313.9" y="63.9" /><rect fill="white" height="2.7" stroke="black" stroke-width="0.5" width="2.7" x="323.6" y="63.6" /><rect fill="white" height="5.8" stroke="black" stroke-width="0.5" width="5.8" x="332.1" y="62.1" /><rect fill="black" height="7.2" stroke="none" stroke-width="0" width="7.2" x="341.4" y="61.4" /><rect fill="white" height="2.1" stroke="black" stroke-width="0.5" width="2.1" x="353.9" y="63.9" /><rect fill="white" height="3.3" stroke="black" stroke-width="0.5" width="3.3" x="363.4" y="63.4" /><rect fill="black" height="4.1" stroke="none" stroke-width="0" width="4.1" x="2.9" y="72.9" /><rect fill="black" height="2.1" stroke="none" stroke-width="0" width="2.1" x="13.9" y="73.9" /><rect fill="white" height="6.8" stroke="black" stroke-width="0.5" width="6.8" x="21.6" y="71.6" /><rect fill="white" height="4.8" stroke="black" stroke-width="0.5" width="4.8" x="32.6" y="72.6" /><rect fill="white" height="6.8" stroke="black" stroke-width="0.5" width="6.8" x="41.6" y="71.6" /><rect fill="white" height="2.1" stroke="black" stroke-width="0.5" width="2.1" x="53.9" y="73.9" /><rect fill="black" height="5.7" stroke="none" stroke-width="0" width="5.7" x="62.2" y="72.2" /><rect fill="black" height="5.4" stroke="none" stroke-width="0" width="5.4" x="72.3" y="72.3" /><rect fill="white" height="5.6" stroke="black" stroke-width="0.5" width="5.6" x="82.2" y="72.2" /><rect fill="white" height="2.2" stroke="black" stroke-width="0.5" width="2.2" x="93.9" y="73.9" /><rect fill="black" height="7.8" stroke="none" stroke-width="0" width="7.8" x="101.1" y="71.1" /><rect fill="black" height="2.1" stroke="none" stroke-width="0" width="2.1" x="113.9" y="73.9" /><rect fill="black" height="6.0" stroke="none" stroke-width="0" width="6.0" x="122.0" y="72.0" /><rect fill="white" height="6.1" stroke="black" stroke-width="0.5" width="6.1" x="132.0" y="72.0" /><rect fill="white" height="5.1" stroke="black" stroke-width="0.5" width="5.1" x="142.4" y="72.4" /><rect fill="black" height="4.9" stroke="none" stroke-width="0" width="4.9" x="152.5" y="72.5" /><rect fill="white" height="3.3" stroke="black" stroke-width="0.5" width="3.3" x="163.3" y="73.3" /><rect fill="black" height="5.9" stroke="none" stroke-width="0" width="5.9" x="172.1" y="72.1" /><rect fill="black" height="5.4" stroke="none" stroke-width="0" width="5.4" x="182.3" y="72.3" /><rect fill="white" height="6.7" stroke="black" stroke-width="0.5" width="6.7" x="191.6" y="71.6" /><rect fill="white" height="8.0" stroke="black" stroke-width="0.5" width="8.0" x="201.0" y="71.0" /><rect fill="white" height="4.2" stroke="black" stroke-width="0.5" width="4.2" x="212.9" y="72.9" /><rect fill="black" height="9.5" stroke="none" stroke-width="0" width="9.5" x="220.2" y="70.2" /><rect fill="white" height="4.7" stroke="black" stroke-width="0.5" width="4.7" x="232.7" y="72.7" /><rect fill="black" height="3.2" stroke="none" stroke-width="0" width="3.2" x="243.4" y="73.4" /><rect fill="white" height="7.7" stroke="black" stroke-width="0.5" width="7.7" x="251.1" y="71.1" /><rect fill="black" height="6.0" stroke="none" stroke-width="0" width="6.0" x="262.0" y="72.0" /><rect fill="white" height="3.2" stroke="black" stroke-width="0.5" width="3.2" x="273.4" y="73.4" /><rect fill="white" height="2.1" stroke="black" stroke-width="0.5" width="2.1" x="283.9" y="73.9" /><rect fill="white" height="2.4" stroke="black" stroke-width="0.5" width="2.4" x="293.8" y="73.8" /><rect fill="white" height="8.1" stroke="black" stroke-width="0.5" width="8.1" x="301.0" y="71.0" /><rect fill="white" height="2.1" stroke="black" stroke-width="0.5" width="2.1" x="313.9" y="73.9" /><rect fill="white" height="3.4" stroke="black" stroke-width="0.5" width="3.4" x="323.3" y="73.3" /><rect fill="black" height="6.5" stroke="none" stroke-width="0" width="6.5" x="331.7" y="71.7" /><rect fill="white" height="5.4" stroke="black" stroke-width="0.5" width="5.4" x="342.3" y="72.3" /><rect fill="black" height="2.9" stroke="none" stroke-width="0" width="2.9" x="353.6" y="73.6" /><rect fill="white" height="3.6" stroke="black" stroke-width="0.5" width="3.6" x="363.2" y="73.2" /></g><g><text font-size="12px" text-anchor="middle" transform="rotate(-90, -22.0, 70.0)" x="-22.0" y="70.0">miiii</text></g></svg>