<?xml version="1.0" encoding="utf-8" ?>
<svg baseProfile="full" height="100%" preserveAspectRatio="xMidYMid meet" version="1.1" viewBox="-40,-40,1360,110" width="100%" xmlns="http://www.w3.org/2000/svg" xmlns:ev="http://www.w3.org/2001/xml-events" xmlns:xlink="http://www.w3.org/1999/xlink"><defs><style type="text/css"><![CDATA[
        @import url(https://cdn.jsdelivr.net/npm/firacode@6.2.0/distr/fira_code.css);
        text {
            font-family: 'STIX Two', 'STIX Two Math', 'STIXMath', 'DejaVu Math TeX Glyph',
                        'DejaVu Serif', 'Cambria Math', 'Latin Modern Math', 'FiraCode',
                        'serif';
        }
    ]]></style><style type="text/css"><![CDATA[
        @import url(https://cdn.jsdelivr.net/npm/firacode@6.2.0/distr/fira_code.css);
        text {
            font-family: 'STIX Two', 'STIX Two Math', 'STIXMath', 'DejaVu Math TeX Glyph',
                        'DejaVu Serif', 'Cambria Math', 'Latin Modern Math', 'FiraCode',
                        'serif';
        }
    ]]></style></defs><g><rect fill="white" height="2.1" stroke="black" stroke-width="0.5" width="2.1" x="3.9" y="3.9" /><rect fill="black" height="2.1" stroke="none" stroke-width="0" width="2.1" x="13.9" y="3.9" /><rect fill="white" height="2.1" stroke="black" stroke-width="0.5" width="2.1" x="23.9" y="3.9" /><rect fill="white" height="2.1" stroke="black" stroke-width="0.5" width="2.1" x="33.9" y="3.9" /><rect fill="black" height="2.1" stroke="none" stroke-width="0" width="2.1" x="43.9" y="3.9" /><rect fill="white" height="2.1" stroke="black" stroke-width="0.5" width="2.1" x="53.9" y="3.9" /><rect fill="black" height="2.1" stroke="none" stroke-width="0" width="2.1" x="63.9" y="3.9" /><rect fill="white" height="2.1" stroke="black" stroke-width="0.5" width="2.1" x="73.9" y="3.9" /><rect fill="black" height="2.1" stroke="none" stroke-width="0" width="2.1" x="83.9" y="3.9" /><rect fill="white" height="2.6" stroke="black" stroke-width="0.5" width="2.6" x="93.7" y="3.7" /><rect fill="black" height="2.1" stroke="none" stroke-width="0" width="2.1" x="103.9" y="3.9" /><rect fill="black" height="2.1" stroke="none" stroke-width="0" width="2.1" x="113.9" y="3.9" /><rect fill="white" height="2.1" stroke="black" stroke-width="0.5" width="2.1" x="123.9" y="3.9" /><rect fill="white" height="2.1" stroke="black" stroke-width="0.5" width="2.1" x="133.9" y="3.9" /><rect fill="black" height="2.6" stroke="none" stroke-width="0" width="2.6" x="143.7" y="3.7" /><rect fill="black" height="2.1" stroke="none" stroke-width="0" width="2.1" x="153.9" y="3.9" /><rect fill="white" height="2.1" stroke="black" stroke-width="0.5" width="2.1" x="163.9" y="3.9" /><rect fill="black" height="2.3" stroke="none" stroke-width="0" width="2.3" x="173.8" y="3.8" /><rect fill="white" height="2.1" stroke="black" stroke-width="0.5" width="2.1" x="183.9" y="3.9" /><rect fill="white" height="2.1" stroke="black" stroke-width="0.5" width="2.1" x="193.9" y="3.9" /><rect fill="white" height="2.5" stroke="black" stroke-width="0.5" width="2.5" x="203.7" y="3.7" /><rect fill="white" height="2.1" stroke="black" stroke-width="0.5" width="2.1" x="213.9" y="3.9" /><rect fill="white" height="2.4" stroke="black" stroke-width="0.5" width="2.4" x="223.8" y="3.8" /><rect fill="white" height="2.4" stroke="black" stroke-width="0.5" width="2.4" x="233.8" y="3.8" /><rect fill="white" height="2.1" stroke="black" stroke-width="0.5" width="2.1" x="243.9" y="3.9" /><rect fill="white" height="2.1" stroke="black" stroke-width="0.5" width="2.1" x="253.9" y="3.9" /><rect fill="white" height="2.1" stroke="black" stroke-width="0.5" width="2.1" x="263.9" y="3.9" /><rect fill="black" height="2.1" stroke="none" stroke-width="0" width="2.1" x="273.9" y="3.9" /><rect fill="white" height="2.8" stroke="black" stroke-width="0.5" width="2.8" x="283.6" y="3.6" /><rect fill="white" height="2.1" stroke="black" stroke-width="0.5" width="2.1" x="293.9" y="3.9" /><rect fill="white" height="2.1" stroke="black" stroke-width="0.5" width="2.1" x="303.9" y="3.9" /><rect fill="black" height="2.1" stroke="none" stroke-width="0" width="2.1" x="313.9" y="3.9" /><rect fill="black" height="2.1" stroke="none" stroke-width="0" width="2.1" x="323.9" y="3.9" /><rect fill="black" height="2.1" stroke="none" stroke-width="0" width="2.1" x="333.9" y="3.9" /><rect fill="white" height="2.1" stroke="black" stroke-width="0.5" width="2.1" x="343.9" y="3.9" /><rect fill="black" height="2.1" stroke="none" stroke-width="0" width="2.1" x="353.9" y="3.9" /><rect fill="white" height="2.1" stroke="black" stroke-width="0.5" width="2.1" x="363.9" y="3.9" /><rect fill="white" height="2.1" stroke="black" stroke-width="0.5" width="2.1" x="373.9" y="3.9" /><rect fill="black" height="2.1" stroke="none" stroke-width="0" width="2.1" x="383.9" y="3.9" /><rect fill="black" height="2.1" stroke="none" stroke-width="0" width="2.1" x="393.9" y="3.9" /><rect fill="black" height="2.5" stroke="none" stroke-width="0" width="2.5" x="403.8" y="3.8" /><rect fill="white" height="2.1" stroke="black" stroke-width="0.5" width="2.1" x="413.9" y="3.9" /><rect fill="black" height="2.5" stroke="none" stroke-width="0" width="2.5" x="423.8" y="3.8" /><rect fill="black" height="2.1" stroke="none" stroke-width="0" width="2.1" x="433.9" y="3.9" /><rect fill="black" height="2.1" stroke="none" stroke-width="0" width="2.1" x="443.9" y="3.9" /><rect fill="black" height="2.6" stroke="none" stroke-width="0" width="2.6" x="453.7" y="3.7" /><rect fill="white" height="2.1" stroke="black" stroke-width="0.5" width="2.1" x="463.9" y="3.9" /><rect fill="black" height="2.1" stroke="none" stroke-width="0" width="2.1" x="473.9" y="3.9" /><rect fill="white" height="2.5" stroke="black" stroke-width="0.5" width="2.5" x="483.7" y="3.7" /><rect fill="white" height="2.5" stroke="black" stroke-width="0.5" width="2.5" x="493.8" y="3.8" /><rect fill="white" height="2.1" stroke="black" stroke-width="0.5" width="2.1" x="503.9" y="3.9" /><rect fill="black" height="2.1" stroke="none" stroke-width="0" width="2.1" x="513.9" y="3.9" /><rect fill="black" height="2.1" stroke="none" stroke-width="0" width="2.1" x="523.9" y="3.9" /><rect fill="white" height="2.1" stroke="black" stroke-width="0.5" width="2.1" x="533.9" y="3.9" /><rect fill="white" height="2.1" stroke="black" stroke-width="0.5" width="2.1" x="543.9" y="3.9" /><rect fill="black" height="2.1" stroke="none" stroke-width="0" width="2.1" x="553.9" y="3.9" /><rect fill="white" height="2.1" stroke="black" stroke-width="0.5" width="2.1" x="563.9" y="3.9" /><rect fill="white" height="2.1" stroke="black" stroke-width="0.5" width="2.1" x="573.9" y="3.9" /><rect fill="white" height="2.1" stroke="black" stroke-width="0.5" width="2.1" x="583.9" y="3.9" /><rect fill="white" height="2.1" stroke="black" stroke-width="0.5" width="2.1" x="593.9" y="3.9" /><rect fill="black" height="2.1" stroke="none" stroke-width="0" width="2.1" x="603.9" y="3.9" /><rect fill="black" height="2.1" stroke="none" stroke-width="0" width="2.1" x="613.9" y="3.9" /><rect fill="black" height="2.7" stroke="none" stroke-width="0" width="2.7" x="623.7" y="3.7" /><rect fill="white" height="2.1" stroke="black" stroke-width="0.5" width="2.1" x="633.9" y="3.9" /><rect fill="black" height="2.6" stroke="none" stroke-width="0" width="2.6" x="643.7" y="3.7" /><rect fill="white" height="2.1" stroke="black" stroke-width="0.5" width="2.1" x="653.9" y="3.9" /><rect fill="white" height="2.1" stroke="black" stroke-width="0.5" width="2.1" x="663.9" y="3.9" /><rect fill="white" height="2.1" stroke="black" stroke-width="0.5" width="2.1" x="673.9" y="3.9" /><rect fill="black" height="2.1" stroke="none" stroke-width="0" width="2.1" x="683.9" y="3.9" /><rect fill="black" height="2.5" stroke="none" stroke-width="0" width="2.5" x="693.7" y="3.7" /><rect fill="white" height="2.1" stroke="black" stroke-width="0.5" width="2.1" x="703.9" y="3.9" /><rect fill="white" height="2.1" stroke="black" stroke-width="0.5" width="2.1" x="713.9" y="3.9" /><rect fill="white" height="2.1" stroke="black" stroke-width="0.5" width="2.1" x="723.9" y="3.9" /><rect fill="black" height="2.1" stroke="none" stroke-width="0" width="2.1" x="733.9" y="3.9" /><rect fill="white" height="2.1" stroke="black" stroke-width="0.5" width="2.1" x="743.9" y="3.9" /><rect fill="white" height="2.1" stroke="black" stroke-width="0.5" width="2.1" x="753.9" y="3.9" /><rect fill="black" height="2.1" stroke="none" stroke-width="0" width="2.1" x="763.9" y="3.9" /><rect fill="black" height="2.1" stroke="none" stroke-width="0" width="2.1" x="773.9" y="3.9" /><rect fill="black" height="2.1" stroke="none" stroke-width="0" width="2.1" x="783.9" y="3.9" /><rect fill="white" height="2.1" stroke="black" stroke-width="0.5" width="2.1" x="793.9" y="3.9" /><rect fill="white" height="2.1" stroke="black" stroke-width="0.5" width="2.1" x="803.9" y="3.9" /><rect fill="white" height="2.1" stroke="black" stroke-width="0.5" width="2.1" x="813.9" y="3.9" /><rect fill="white" height="2.1" stroke="black" stroke-width="0.5" width="2.1" x="823.9" y="3.9" /><rect fill="white" height="2.1" stroke="black" stroke-width="0.5" width="2.1" x="833.9" y="3.9" /><rect fill="black" height="2.7" stroke="none" stroke-width="0" width="2.7" x="843.7" y="3.7" /><rect fill="black" height="2.1" stroke="none" stroke-width="0" width="2.1" x="853.9" y="3.9" /><rect fill="black" height="2.1" stroke="none" stroke-width="0" width="2.1" x="863.9" y="3.9" /><rect fill="white" height="2.2" stroke="black" stroke-width="0.5" width="2.2" x="873.9" y="3.9" /><rect fill="black" height="2.1" stroke="none" stroke-width="0" width="2.1" x="883.9" y="3.9" /><rect fill="white" height="2.1" stroke="black" stroke-width="0.5" width="2.1" x="893.9" y="3.9" /><rect fill="black" height="2.1" stroke="none" stroke-width="0" width="2.1" x="903.9" y="3.9" /><rect fill="black" height="2.1" stroke="none" stroke-width="0" width="2.1" x="913.9" y="3.9" /><rect fill="black" height="2.1" stroke="none" stroke-width="0" width="2.1" x="923.9" y="3.9" /><rect fill="black" height="2.1" stroke="none" stroke-width="0" width="2.1" x="933.9" y="3.9" /><rect fill="white" height="3.3" stroke="black" stroke-width="0.5" width="3.3" x="943.3" y="3.3" /><rect fill="white" height="2.1" stroke="black" stroke-width="0.5" width="2.1" x="953.9" y="3.9" /><rect fill="white" height="2.1" stroke="black" stroke-width="0.5" width="2.1" x="963.9" y="3.9" /><rect fill="white" height="2.1" stroke="black" stroke-width="0.5" width="2.1" x="973.9" y="3.9" /><rect fill="white" height="2.1" stroke="black" stroke-width="0.5" width="2.1" x="983.9" y="3.9" /><rect fill="white" height="2.1" stroke="black" stroke-width="0.5" width="2.1" x="993.9" y="3.9" /><rect fill="white" height="2.1" stroke="black" stroke-width="0.5" width="2.1" x="1003.9" y="3.9" /><rect fill="black" height="2.1" stroke="none" stroke-width="0" width="2.1" x="1013.9" y="3.9" /><rect fill="white" height="2.1" stroke="black" stroke-width="0.5" width="2.1" x="1023.9" y="3.9" /><rect fill="white" height="2.1" stroke="black" stroke-width="0.5" width="2.1" x="1033.9" y="3.9" /><rect fill="white" height="2.3" stroke="black" stroke-width="0.5" width="2.3" x="1043.9" y="3.9" /><rect fill="black" height="2.1" stroke="none" stroke-width="0" width="2.1" x="1053.9" y="3.9" /><rect fill="white" height="2.1" stroke="black" stroke-width="0.5" width="2.1" x="1063.9" y="3.9" /><rect fill="white" height="2.1" stroke="black" stroke-width="0.5" width="2.1" x="1073.9" y="3.9" /><rect fill="white" height="2.4" stroke="black" stroke-width="0.5" width="2.4" x="1083.8" y="3.8" /><rect fill="white" height="2.1" stroke="black" stroke-width="0.5" width="2.1" x="1093.9" y="3.9" /><rect fill="black" height="2.2" stroke="none" stroke-width="0" width="2.2" x="1103.9" y="3.9" /><rect fill="white" height="2.1" stroke="black" stroke-width="0.5" width="2.1" x="1113.9" y="3.9" /><rect fill="white" height="2.1" stroke="black" stroke-width="0.5" width="2.1" x="1123.9" y="3.9" /><rect fill="white" height="2.1" stroke="black" stroke-width="0.5" width="2.1" x="1133.9" y="3.9" /><rect fill="white" height="2.3" stroke="black" stroke-width="0.5" width="2.3" x="1143.8" y="3.8" /><rect fill="white" height="2.1" stroke="black" stroke-width="0.5" width="2.1" x="1153.9" y="3.9" /><rect fill="black" height="2.2" stroke="none" stroke-width="0" width="2.2" x="1163.9" y="3.9" /><rect fill="white" height="2.2" stroke="black" stroke-width="0.5" width="2.2" x="1173.9" y="3.9" /><rect fill="black" height="2.1" stroke="none" stroke-width="0" width="2.1" x="1183.9" y="3.9" /><rect fill="white" height="2.1" stroke="black" stroke-width="0.5" width="2.1" x="1193.9" y="3.9" /><rect fill="white" height="2.1" stroke="black" stroke-width="0.5" width="2.1" x="1203.9" y="3.9" /><rect fill="black" height="2.3" stroke="none" stroke-width="0" width="2.3" x="1213.9" y="3.9" /><rect fill="white" height="2.1" stroke="black" stroke-width="0.5" width="2.1" x="1223.9" y="3.9" /><rect fill="white" height="2.8" stroke="black" stroke-width="0.5" width="2.8" x="1233.6" y="3.6" /><rect fill="white" height="2.1" stroke="black" stroke-width="0.5" width="2.1" x="1243.9" y="3.9" /><rect fill="black" height="2.1" stroke="none" stroke-width="0" width="2.1" x="1253.9" y="3.9" /><rect fill="white" height="2.1" stroke="black" stroke-width="0.5" width="2.1" x="1263.9" y="3.9" /><rect fill="black" height="2.1" stroke="none" stroke-width="0" width="2.1" x="1273.9" y="3.9" /><rect fill="white" height="2.1" stroke="black" stroke-width="0.5" width="2.1" x="3.9" y="13.9" /><rect fill="black" height="2.1" stroke="none" stroke-width="0" width="2.1" x="13.9" y="13.9" /><rect fill="white" height="2.1" stroke="black" stroke-width="0.5" width="2.1" x="23.9" y="13.9" /><rect fill="black" height="2.1" stroke="none" stroke-width="0" width="2.1" x="33.9" y="13.9" /><rect fill="black" height="2.1" stroke="none" stroke-width="0" width="2.1" x="43.9" y="13.9" /><rect fill="white" height="2.1" stroke="black" stroke-width="0.5" width="2.1" x="53.9" y="13.9" /><rect fill="white" height="2.1" stroke="black" stroke-width="0.5" width="2.1" x="63.9" y="13.9" /><rect fill="black" height="2.1" stroke="none" stroke-width="0" width="2.1" x="73.9" y="13.9" /><rect fill="black" height="2.1" stroke="none" stroke-width="0" width="2.1" x="83.9" y="13.9" /><rect fill="white" height="3.1" stroke="black" stroke-width="0.5" width="3.1" x="93.4" y="13.4" /><rect fill="black" height="2.1" stroke="none" stroke-width="0" width="2.1" x="103.9" y="13.9" /><rect fill="white" height="2.1" stroke="black" stroke-width="0.5" width="2.1" x="113.9" y="13.9" /><rect fill="white" height="2.1" stroke="black" stroke-width="0.5" width="2.1" x="123.9" y="13.9" /><rect fill="white" height="2.1" stroke="black" stroke-width="0.5" width="2.1" x="133.9" y="13.9" /><rect fill="black" height="2.8" stroke="none" stroke-width="0" width="2.8" x="143.6" y="13.6" /><rect fill="black" height="2.1" stroke="none" stroke-width="0" width="2.1" x="153.9" y="13.9" /><rect fill="white" height="2.1" stroke="black" stroke-width="0.5" width="2.1" x="163.9" y="13.9" /><rect fill="black" height="2.5" stroke="none" stroke-width="0" width="2.5" x="173.8" y="13.8" /><rect fill="white" height="2.1" stroke="black" stroke-width="0.5" width="2.1" x="183.9" y="13.9" /><rect fill="white" height="2.1" stroke="black" stroke-width="0.5" width="2.1" x="193.9" y="13.9" /><rect fill="white" height="2.7" stroke="black" stroke-width="0.5" width="2.7" x="203.7" y="13.7" /><rect fill="white" height="2.1" stroke="black" stroke-width="0.5" width="2.1" x="213.9" y="13.9" /><rect fill="white" height="2.3" stroke="black" stroke-width="0.5" width="2.3" x="223.9" y="13.9" /><rect fill="white" height="2.6" stroke="black" stroke-width="0.5" width="2.6" x="233.7" y="13.7" /><rect fill="black" height="2.1" stroke="none" stroke-width="0" width="2.1" x="243.9" y="13.9" /><rect fill="white" height="2.1" stroke="black" stroke-width="0.5" width="2.1" x="253.9" y="13.9" /><rect fill="white" height="2.1" stroke="black" stroke-width="0.5" width="2.1" x="263.9" y="13.9" /><rect fill="black" height="2.1" stroke="none" stroke-width="0" width="2.1" x="273.9" y="13.9" /><rect fill="white" height="2.9" stroke="black" stroke-width="0.5" width="2.9" x="283.6" y="13.6" /><rect fill="white" height="2.4" stroke="black" stroke-width="0.5" width="2.4" x="293.8" y="13.8" /><rect fill="white" height="2.1" stroke="black" stroke-width="0.5" width="2.1" x="303.9" y="13.9" /><rect fill="black" height="2.1" stroke="none" stroke-width="0" width="2.1" x="313.9" y="13.9" /><rect fill="black" height="2.1" stroke="none" stroke-width="0" width="2.1" x="323.9" y="13.9" /><rect fill="black" height="2.1" stroke="none" stroke-width="0" width="2.1" x="333.9" y="13.9" /><rect fill="white" height="2.1" stroke="black" stroke-width="0.5" width="2.1" x="343.9" y="13.9" /><rect fill="black" height="2.1" stroke="none" stroke-width="0" width="2.1" x="353.9" y="13.9" /><rect fill="white" height="2.1" stroke="black" stroke-width="0.5" width="2.1" x="363.9" y="13.9" /><rect fill="white" height="2.1" stroke="black" stroke-width="0.5" width="2.1" x="373.9" y="13.9" /><rect fill="white" height="2.1" stroke="black" stroke-width="0.5" width="2.1" x="383.9" y="13.9" /><rect fill="black" height="2.1" stroke="none" stroke-width="0" width="2.1" x="393.9" y="13.9" /><rect fill="black" height="2.3" stroke="none" stroke-width="0" width="2.3" x="403.9" y="13.9" /><rect fill="white" height="2.1" stroke="black" stroke-width="0.5" width="2.1" x="413.9" y="13.9" /><rect fill="black" height="2.3" stroke="none" stroke-width="0" width="2.3" x="423.8" y="13.8" /><rect fill="black" height="2.1" stroke="none" stroke-width="0" width="2.1" x="433.9" y="13.9" /><rect fill="black" height="2.1" stroke="none" stroke-width="0" width="2.1" x="443.9" y="13.9" /><rect fill="black" height="2.7" stroke="none" stroke-width="0" width="2.7" x="453.7" y="13.7" /><rect fill="white" height="2.1" stroke="black" stroke-width="0.5" width="2.1" x="463.9" y="13.9" /><rect fill="black" height="2.1" stroke="none" stroke-width="0" width="2.1" x="473.9" y="13.9" /><rect fill="white" height="2.4" stroke="black" stroke-width="0.5" width="2.4" x="483.8" y="13.8" /><rect fill="white" height="2.3" stroke="black" stroke-width="0.5" width="2.3" x="493.8" y="13.8" /><rect fill="white" height="2.1" stroke="black" stroke-width="0.5" width="2.1" x="503.9" y="13.9" /><rect fill="black" height="2.1" stroke="none" stroke-width="0" width="2.1" x="513.9" y="13.9" /><rect fill="black" height="2.1" stroke="none" stroke-width="0" width="2.1" x="523.9" y="13.9" /><rect fill="white" height="2.1" stroke="black" stroke-width="0.5" width="2.1" x="533.9" y="13.9" /><rect fill="black" height="2.1" stroke="none" stroke-width="0" width="2.1" x="543.9" y="13.9" /><rect fill="black" height="2.1" stroke="none" stroke-width="0" width="2.1" x="553.9" y="13.9" /><rect fill="white" height="2.1" stroke="black" stroke-width="0.5" width="2.1" x="563.9" y="13.9" /><rect fill="white" height="2.1" stroke="black" stroke-width="0.5" width="2.1" x="573.9" y="13.9" /><rect fill="white" height="2.2" stroke="black" stroke-width="0.5" width="2.2" x="583.9" y="13.9" /><rect fill="white" height="2.1" stroke="black" stroke-width="0.5" width="2.1" x="593.9" y="13.9" /><rect fill="black" height="2.1" stroke="none" stroke-width="0" width="2.1" x="603.9" y="13.9" /><rect fill="black" height="2.1" stroke="none" stroke-width="0" width="2.1" x="613.9" y="13.9" /><rect fill="black" height="3.0" stroke="none" stroke-width="0" width="3.0" x="623.5" y="13.5" /><rect fill="white" height="2.1" stroke="black" stroke-width="0.5" width="2.1" x="633.9" y="13.9" /><rect fill="black" height="2.3" stroke="none" stroke-width="0" width="2.3" x="643.8" y="13.8" /><rect fill="white" height="2.1" stroke="black" stroke-width="0.5" width="2.1" x="653.9" y="13.9" /><rect fill="white" height="2.1" stroke="black" stroke-width="0.5" width="2.1" x="663.9" y="13.9" /><rect fill="white" height="2.1" stroke="black" stroke-width="0.5" width="2.1" x="673.9" y="13.9" /><rect fill="black" height="2.3" stroke="none" stroke-width="0" width="2.3" x="683.9" y="13.9" /><rect fill="black" height="2.2" stroke="none" stroke-width="0" width="2.2" x="693.9" y="13.9" /><rect fill="white" height="2.1" stroke="black" stroke-width="0.5" width="2.1" x="703.9" y="13.9" /><rect fill="white" height="2.1" stroke="black" stroke-width="0.5" width="2.1" x="713.9" y="13.9" /><rect fill="white" height="2.1" stroke="black" stroke-width="0.5" width="2.1" x="723.9" y="13.9" /><rect fill="black" height="2.2" stroke="none" stroke-width="0" width="2.2" x="733.9" y="13.9" /><rect fill="white" height="2.1" stroke="black" stroke-width="0.5" width="2.1" x="743.9" y="13.9" /><rect fill="white" height="2.1" stroke="black" stroke-width="0.5" width="2.1" x="753.9" y="13.9" /><rect fill="black" height="2.1" stroke="none" stroke-width="0" width="2.1" x="763.9" y="13.9" /><rect fill="black" height="2.1" stroke="none" stroke-width="0" width="2.1" x="773.9" y="13.9" /><rect fill="black" height="2.1" stroke="none" stroke-width="0" width="2.1" x="783.9" y="13.9" /><rect fill="white" height="2.1" stroke="black" stroke-width="0.5" width="2.1" x="793.9" y="13.9" /><rect fill="white" height="2.1" stroke="black" stroke-width="0.5" width="2.1" x="803.9" y="13.9" /><rect fill="white" height="2.1" stroke="black" stroke-width="0.5" width="2.1" x="813.9" y="13.9" /><rect fill="white" height="2.1" stroke="black" stroke-width="0.5" width="2.1" x="823.9" y="13.9" /><rect fill="white" height="2.1" stroke="black" stroke-width="0.5" width="2.1" x="833.9" y="13.9" /><rect fill="black" height="2.4" stroke="none" stroke-width="0" width="2.4" x="843.8" y="13.8" /><rect fill="black" height="2.1" stroke="none" stroke-width="0" width="2.1" x="853.9" y="13.9" /><rect fill="black" height="2.1" stroke="none" stroke-width="0" width="2.1" x="863.9" y="13.9" /><rect fill="white" height="2.1" stroke="black" stroke-width="0.5" width="2.1" x="873.9" y="13.9" /><rect fill="black" height="2.1" stroke="none" stroke-width="0" width="2.1" x="883.9" y="13.9" /><rect fill="white" height="2.1" stroke="black" stroke-width="0.5" width="2.1" x="893.9" y="13.9" /><rect fill="black" height="2.1" stroke="none" stroke-width="0" width="2.1" x="903.9" y="13.9" /><rect fill="black" height="2.1" stroke="none" stroke-width="0" width="2.1" x="913.9" y="13.9" /><rect fill="black" height="2.1" stroke="none" stroke-width="0" width="2.1" x="923.9" y="13.9" /><rect fill="black" height="2.1" stroke="none" stroke-width="0" width="2.1" x="933.9" y="13.9" /><rect fill="white" height="3.0" stroke="black" stroke-width="0.5" width="3.0" x="943.5" y="13.5" /><rect fill="white" height="2.1" stroke="black" stroke-width="0.5" width="2.1" x="953.9" y="13.9" /><rect fill="black" height="2.1" stroke="none" stroke-width="0" width="2.1" x="963.9" y="13.9" /><rect fill="white" height="2.1" stroke="black" stroke-width="0.5" width="2.1" x="973.9" y="13.9" /><rect fill="white" height="2.1" stroke="black" stroke-width="0.5" width="2.1" x="983.9" y="13.9" /><rect fill="white" height="2.1" stroke="black" stroke-width="0.5" width="2.1" x="993.9" y="13.9" /><rect fill="white" height="2.4" stroke="black" stroke-width="0.5" width="2.4" x="1003.8" y="13.8" /><rect fill="white" height="2.1" stroke="black" stroke-width="0.5" width="2.1" x="1013.9" y="13.9" /><rect fill="white" height="2.1" stroke="black" stroke-width="0.5" width="2.1" x="1023.9" y="13.9" /><rect fill="white" height="2.2" stroke="black" stroke-width="0.5" width="2.2" x="1033.9" y="13.9" /><rect fill="white" height="2.4" stroke="black" stroke-width="0.5" width="2.4" x="1043.8" y="13.8" /><rect fill="black" height="2.1" stroke="none" stroke-width="0" width="2.1" x="1053.9" y="13.9" /><rect fill="white" height="2.1" stroke="black" stroke-width="0.5" width="2.1" x="1063.9" y="13.9" /><rect fill="white" height="2.1" stroke="black" stroke-width="0.5" width="2.1" x="1073.9" y="13.9" /><rect fill="white" height="2.1" stroke="black" stroke-width="0.5" width="2.1" x="1083.9" y="13.9" /><rect fill="white" height="2.1" stroke="black" stroke-width="0.5" width="2.1" x="1093.9" y="13.9" /><rect fill="black" height="2.1" stroke="none" stroke-width="0" width="2.1" x="1103.9" y="13.9" /><rect fill="white" height="2.1" stroke="black" stroke-width="0.5" width="2.1" x="1113.9" y="13.9" /><rect fill="white" height="2.1" stroke="black" stroke-width="0.5" width="2.1" x="1123.9" y="13.9" /><rect fill="white" height="2.1" stroke="black" stroke-width="0.5" width="2.1" x="1133.9" y="13.9" /><rect fill="white" height="2.2" stroke="black" stroke-width="0.5" width="2.2" x="1143.9" y="13.9" /><rect fill="black" height="2.1" stroke="none" stroke-width="0" width="2.1" x="1153.9" y="13.9" /><rect fill="black" height="2.1" stroke="none" stroke-width="0" width="2.1" x="1163.9" y="13.9" /><rect fill="white" height="2.5" stroke="black" stroke-width="0.5" width="2.5" x="1173.7" y="13.7" /><rect fill="black" height="2.1" stroke="none" stroke-width="0" width="2.1" x="1183.9" y="13.9" /><rect fill="white" height="2.1" stroke="black" stroke-width="0.5" width="2.1" x="1193.9" y="13.9" /><rect fill="white" height="2.1" stroke="black" stroke-width="0.5" width="2.1" x="1203.9" y="13.9" /><rect fill="black" height="2.1" stroke="none" stroke-width="0" width="2.1" x="1213.9" y="13.9" /><rect fill="white" height="2.1" stroke="black" stroke-width="0.5" width="2.1" x="1223.9" y="13.9" /><rect fill="white" height="2.7" stroke="black" stroke-width="0.5" width="2.7" x="1233.6" y="13.6" /><rect fill="white" height="2.1" stroke="black" stroke-width="0.5" width="2.1" x="1243.9" y="13.9" /><rect fill="black" height="2.1" stroke="none" stroke-width="0" width="2.1" x="1253.9" y="13.9" /><rect fill="white" height="2.1" stroke="black" stroke-width="0.5" width="2.1" x="1263.9" y="13.9" /><rect fill="black" height="2.1" stroke="none" stroke-width="0" width="2.1" x="1273.9" y="13.9" /><rect fill="black" height="6.3" stroke="none" stroke-width="0" width="6.3" x="1.9" y="21.9" /><rect fill="white" height="6.7" stroke="black" stroke-width="0.5" width="6.7" x="11.6" y="21.6" /><rect fill="black" height="6.3" stroke="none" stroke-width="0" width="6.3" x="21.9" y="21.9" /><rect fill="black" height="5.7" stroke="none" stroke-width="0" width="5.7" x="32.1" y="22.1" /><rect fill="white" height="8.1" stroke="black" stroke-width="0.5" width="8.1" x="41.0" y="21.0" /><rect fill="black" height="7.4" stroke="none" stroke-width="0" width="7.4" x="51.3" y="21.3" /><rect fill="white" height="6.3" stroke="black" stroke-width="0.5" width="6.3" x="61.9" y="21.9" /><rect fill="black" height="6.8" stroke="none" stroke-width="0" width="6.8" x="71.6" y="21.6" /><rect fill="white" height="4.0" stroke="black" stroke-width="0.5" width="4.0" x="83.0" y="23.0" /><rect fill="black" height="7.4" stroke="none" stroke-width="0" width="7.4" x="91.3" y="21.3" /><rect fill="white" height="5.7" stroke="black" stroke-width="0.5" width="5.7" x="102.1" y="22.1" /><rect fill="white" height="4.8" stroke="black" stroke-width="0.5" width="4.8" x="112.6" y="22.6" /><rect fill="black" height="3.7" stroke="none" stroke-width="0" width="3.7" x="123.2" y="23.2" /><rect fill="black" height="2.8" stroke="none" stroke-width="0" width="2.8" x="133.6" y="23.6" /><rect fill="white" height="6.0" stroke="black" stroke-width="0.5" width="6.0" x="142.0" y="22.0" /><rect fill="white" height="7.0" stroke="black" stroke-width="0.5" width="7.0" x="151.5" y="21.5" /><rect fill="white" height="6.3" stroke="black" stroke-width="0.5" width="6.3" x="161.9" y="21.9" /><rect fill="black" height="3.0" stroke="none" stroke-width="0" width="3.0" x="173.5" y="23.5" /><rect fill="black" height="6.3" stroke="none" stroke-width="0" width="6.3" x="181.9" y="21.9" /><rect fill="black" height="5.2" stroke="none" stroke-width="0" width="5.2" x="192.4" y="22.4" /><rect fill="black" height="5.4" stroke="none" stroke-width="0" width="5.4" x="202.3" y="22.3" /><rect fill="black" height="5.7" stroke="none" stroke-width="0" width="5.7" x="212.2" y="22.2" /><rect fill="black" height="6.6" stroke="none" stroke-width="0" width="6.6" x="221.7" y="21.7" /><rect fill="black" height="5.2" stroke="none" stroke-width="0" width="5.2" x="232.4" y="22.4" /><rect fill="white" height="3.0" stroke="black" stroke-width="0.5" width="3.0" x="243.5" y="23.5" /><rect fill="white" height="7.4" stroke="black" stroke-width="0.5" width="7.4" x="251.3" y="21.3" /><rect fill="white" height="4.3" stroke="black" stroke-width="0.5" width="4.3" x="262.9" y="22.9" /><rect fill="black" height="4.2" stroke="none" stroke-width="0" width="4.2" x="272.9" y="22.9" /><rect fill="black" height="4.6" stroke="none" stroke-width="0" width="4.6" x="282.7" y="22.7" /><rect fill="black" height="5.1" stroke="none" stroke-width="0" width="5.1" x="292.4" y="22.4" /><rect fill="white" height="3.8" stroke="black" stroke-width="0.5" width="3.8" x="303.1" y="23.1" /><rect fill="white" height="5.2" stroke="black" stroke-width="0.5" width="5.2" x="312.4" y="22.4" /><rect fill="white" height="5.9" stroke="black" stroke-width="0.5" width="5.9" x="322.1" y="22.1" /><rect fill="white" height="4.6" stroke="black" stroke-width="0.5" width="4.6" x="332.7" y="22.7" /><rect fill="black" height="5.8" stroke="none" stroke-width="0" width="5.8" x="342.1" y="22.1" /><rect fill="white" height="4.2" stroke="black" stroke-width="0.5" width="4.2" x="352.9" y="22.9" /><rect fill="black" height="6.3" stroke="none" stroke-width="0" width="6.3" x="361.9" y="21.9" /><rect fill="black" height="6.6" stroke="none" stroke-width="0" width="6.6" x="371.7" y="21.7" /><rect fill="black" height="5.8" stroke="none" stroke-width="0" width="5.8" x="382.1" y="22.1" /><rect fill="white" height="3.1" stroke="black" stroke-width="0.5" width="3.1" x="393.4" y="23.4" /><rect fill="white" height="8.0" stroke="black" stroke-width="0.5" width="8.0" x="401.0" y="21.0" /><rect fill="black" height="7.0" stroke="none" stroke-width="0" width="7.0" x="411.5" y="21.5" /><rect fill="white" height="7.0" stroke="black" stroke-width="0.5" width="7.0" x="421.5" y="21.5" /><rect fill="white" height="2.1" stroke="black" stroke-width="0.5" width="2.1" x="433.9" y="23.9" /><rect fill="white" height="5.0" stroke="black" stroke-width="0.5" width="5.0" x="442.5" y="22.5" /><rect fill="black" height="4.4" stroke="none" stroke-width="0" width="4.4" x="452.8" y="22.8" /><rect fill="black" height="6.3" stroke="none" stroke-width="0" width="6.3" x="461.9" y="21.9" /><rect fill="white" height="7.7" stroke="black" stroke-width="0.5" width="7.7" x="471.1" y="21.1" /><rect fill="black" height="7.6" stroke="none" stroke-width="0" width="7.6" x="481.2" y="21.2" /><rect fill="black" height="8.1" stroke="none" stroke-width="0" width="8.1" x="490.9" y="20.9" /><rect fill="black" height="3.4" stroke="none" stroke-width="0" width="3.4" x="503.3" y="23.3" /><rect fill="white" height="2.1" stroke="black" stroke-width="0.5" width="2.1" x="513.9" y="23.9" /><rect fill="white" height="6.0" stroke="black" stroke-width="0.5" width="6.0" x="522.0" y="22.0" /><rect fill="black" height="8.1" stroke="none" stroke-width="0" width="8.1" x="530.9" y="20.9" /><rect fill="black" height="7.2" stroke="none" stroke-width="0" width="7.2" x="541.4" y="21.4" /><rect fill="white" height="7.8" stroke="black" stroke-width="0.5" width="7.8" x="551.1" y="21.1" /><rect fill="black" height="5.0" stroke="none" stroke-width="0" width="5.0" x="562.5" y="22.5" /><rect fill="black" height="6.7" stroke="none" stroke-width="0" width="6.7" x="571.7" y="21.7" /><rect fill="black" height="6.6" stroke="none" stroke-width="0" width="6.6" x="581.7" y="21.7" /><rect fill="black" height="6.1" stroke="none" stroke-width="0" width="6.1" x="591.9" y="21.9" /><rect fill="black" height="4.1" stroke="none" stroke-width="0" width="4.1" x="602.9" y="22.9" /><rect fill="white" height="6.7" stroke="black" stroke-width="0.5" width="6.7" x="611.7" y="21.7" /><rect fill="white" height="7.4" stroke="black" stroke-width="0.5" width="7.4" x="621.3" y="21.3" /><rect fill="black" height="7.4" stroke="none" stroke-width="0" width="7.4" x="631.3" y="21.3" /><rect fill="white" height="7.1" stroke="black" stroke-width="0.5" width="7.1" x="641.4" y="21.4" /><rect fill="white" height="6.2" stroke="black" stroke-width="0.5" width="6.2" x="651.9" y="21.9" /><rect fill="white" height="3.4" stroke="black" stroke-width="0.5" width="3.4" x="663.3" y="23.3" /><rect fill="black" height="5.6" stroke="none" stroke-width="0" width="5.6" x="672.2" y="22.2" /><rect fill="white" height="6.6" stroke="black" stroke-width="0.5" width="6.6" x="681.7" y="21.7" /><rect fill="white" height="8.8" stroke="black" stroke-width="0.5" width="8.8" x="690.6" y="20.6" /><rect fill="white" height="6.9" stroke="black" stroke-width="0.5" width="6.9" x="701.6" y="21.6" /><rect fill="black" height="6.3" stroke="none" stroke-width="0" width="6.3" x="711.8" y="21.8" /><rect fill="white" height="7.2" stroke="black" stroke-width="0.5" width="7.2" x="721.4" y="21.4" /><rect fill="white" height="4.0" stroke="black" stroke-width="0.5" width="4.0" x="733.0" y="23.0" /><rect fill="black" height="6.9" stroke="none" stroke-width="0" width="6.9" x="741.6" y="21.6" /><rect fill="black" height="6.8" stroke="none" stroke-width="0" width="6.8" x="751.6" y="21.6" /><rect fill="white" height="5.5" stroke="black" stroke-width="0.5" width="5.5" x="762.2" y="22.2" /><rect fill="white" height="2.1" stroke="black" stroke-width="0.5" width="2.1" x="773.9" y="23.9" /><rect fill="white" height="2.7" stroke="black" stroke-width="0.5" width="2.7" x="783.7" y="23.7" /><rect fill="white" height="8.2" stroke="black" stroke-width="0.5" width="8.2" x="790.9" y="20.9" /><rect fill="black" height="5.9" stroke="none" stroke-width="0" width="5.9" x="802.0" y="22.0" /><rect fill="black" height="3.5" stroke="none" stroke-width="0" width="3.5" x="813.2" y="23.2" /><rect fill="black" height="8.0" stroke="none" stroke-width="0" width="8.0" x="821.0" y="21.0" /><rect fill="black" height="7.7" stroke="none" stroke-width="0" width="7.7" x="831.1" y="21.1" /><rect fill="white" height="9.4" stroke="black" stroke-width="0.5" width="9.4" x="840.3" y="20.3" /><rect fill="white" height="7.9" stroke="black" stroke-width="0.5" width="7.9" x="851.0" y="21.0" /><rect fill="black" height="4.3" stroke="none" stroke-width="0" width="4.3" x="862.9" y="22.9" /><rect fill="black" height="7.7" stroke="none" stroke-width="0" width="7.7" x="871.2" y="21.2" /><rect fill="white" height="6.5" stroke="black" stroke-width="0.5" width="6.5" x="881.7" y="21.7" /><rect fill="black" height="5.8" stroke="none" stroke-width="0" width="5.8" x="892.1" y="22.1" /><rect fill="white" height="4.3" stroke="black" stroke-width="0.5" width="4.3" x="902.8" y="22.8" /><rect fill="white" height="3.9" stroke="black" stroke-width="0.5" width="3.9" x="913.1" y="23.1" /><rect fill="white" height="7.2" stroke="black" stroke-width="0.5" width="7.2" x="921.4" y="21.4" /><rect fill="white" height="7.2" stroke="black" stroke-width="0.5" width="7.2" x="931.4" y="21.4" /><rect fill="black" height="9.5" stroke="none" stroke-width="0" width="9.5" x="940.2" y="20.2" /><rect fill="black" height="5.9" stroke="none" stroke-width="0" width="5.9" x="952.0" y="22.0" /><rect fill="black" height="7.0" stroke="none" stroke-width="0" width="7.0" x="961.5" y="21.5" /><rect fill="black" height="8.5" stroke="none" stroke-width="0" width="8.5" x="970.8" y="20.8" /><rect fill="black" height="7.2" stroke="none" stroke-width="0" width="7.2" x="981.4" y="21.4" /><rect fill="black" height="8.2" stroke="none" stroke-width="0" width="8.2" x="990.9" y="20.9" /><rect fill="black" height="3.3" stroke="none" stroke-width="0" width="3.3" x="1003.4" y="23.4" /><rect fill="black" height="3.1" stroke="none" stroke-width="0" width="3.1" x="1013.5" y="23.5" /><rect fill="black" height="5.5" stroke="none" stroke-width="0" width="5.5" x="1022.3" y="22.3" /><rect fill="black" height="8.0" stroke="none" stroke-width="0" width="8.0" x="1031.0" y="21.0" /><rect fill="black" height="6.9" stroke="none" stroke-width="0" width="6.9" x="1041.5" y="21.5" /><rect fill="white" height="7.1" stroke="black" stroke-width="0.5" width="7.1" x="1051.5" y="21.5" /><rect fill="white" height="6.8" stroke="black" stroke-width="0.5" width="6.8" x="1061.6" y="21.6" /><rect fill="black" height="4.7" stroke="none" stroke-width="0" width="4.7" x="1072.7" y="22.7" /><rect fill="black" height="5.7" stroke="none" stroke-width="0" width="5.7" x="1082.2" y="22.2" /><rect fill="black" height="2.1" stroke="none" stroke-width="0" width="2.1" x="1093.9" y="23.9" /><rect fill="white" height="7.6" stroke="black" stroke-width="0.5" width="7.6" x="1101.2" y="21.2" /><rect fill="black" height="4.9" stroke="none" stroke-width="0" width="4.9" x="1112.5" y="22.5" /><rect fill="black" height="3.6" stroke="none" stroke-width="0" width="3.6" x="1123.2" y="23.2" /><rect fill="white" height="7.4" stroke="black" stroke-width="0.5" width="7.4" x="1131.3" y="21.3" /><rect fill="black" height="6.9" stroke="none" stroke-width="0" width="6.9" x="1141.6" y="21.6" /><rect fill="white" height="5.3" stroke="black" stroke-width="0.5" width="5.3" x="1152.4" y="22.4" /><rect fill="white" height="7.3" stroke="black" stroke-width="0.5" width="7.3" x="1161.3" y="21.3" /><rect fill="black" height="8.3" stroke="none" stroke-width="0" width="8.3" x="1170.9" y="20.9" /><rect fill="white" height="2.2" stroke="black" stroke-width="0.5" width="2.2" x="1183.9" y="23.9" /><rect fill="white" height="4.8" stroke="black" stroke-width="0.5" width="4.8" x="1192.6" y="22.6" /><rect fill="white" height="6.0" stroke="black" stroke-width="0.5" width="6.0" x="1202.0" y="22.0" /><rect fill="white" height="6.3" stroke="black" stroke-width="0.5" width="6.3" x="1211.8" y="21.8" /><rect fill="black" height="6.8" stroke="none" stroke-width="0" width="6.8" x="1221.6" y="21.6" /><rect fill="black" height="6.4" stroke="none" stroke-width="0" width="6.4" x="1231.8" y="21.8" /><rect fill="black" height="5.7" stroke="none" stroke-width="0" width="5.7" x="1242.1" y="22.1" /><rect fill="white" height="8.0" stroke="black" stroke-width="0.5" width="8.0" x="1251.0" y="21.0" /><rect fill="black" height="5.2" stroke="none" stroke-width="0" width="5.2" x="1262.4" y="22.4" /><rect fill="white" height="8.7" stroke="black" stroke-width="0.5" width="8.7" x="1270.6" y="20.6" /></g><g /></svg>