<?xml version="1.0" encoding="utf-8" ?>
<svg baseProfile="full" height="100%" preserveAspectRatio="xMidYMid meet" version="1.1" viewBox="-40,-40,700,190" width="100%" xmlns="http://www.w3.org/2000/svg" xmlns:ev="http://www.w3.org/2001/xml-events" xmlns:xlink="http://www.w3.org/1999/xlink"><defs><style type="text/css"><![CDATA[
        @import url(https://cdn.jsdelivr.net/npm/firacode@6.2.0/distr/fira_code.css);
        text {
            font-family: 'STIX Two', 'STIX Two Math', 'STIXMath', 'DejaVu Math TeX Glyph',
                        'DejaVu Serif', 'Cambria Math', 'Latin Modern Math', 'FiraCode',
                        'serif';
        }
    ]]></style><style type="text/css"><![CDATA[
        @import url(https://cdn.jsdelivr.net/npm/firacode@6.2.0/distr/fira_code.css);
        text {
            font-family: 'STIX Two', 'STIX Two Math', 'STIXMath', 'DejaVu Math TeX Glyph',
                        'DejaVu Serif', 'Cambria Math', 'Latin Modern Math', 'FiraCode',
                        'serif';
        }
    ]]></style></defs><g><rect fill="black" height="2.1" stroke="none" stroke-width="0" width="2.1" x="3.9" y="3.9" /><rect fill="black" height="2.1" stroke="none" stroke-width="0" width="2.1" x="13.9" y="3.9" /><rect fill="black" height="3.0" stroke="none" stroke-width="0" width="3.0" x="3.5" y="13.5" /><rect fill="black" height="2.1" stroke="none" stroke-width="0" width="2.1" x="13.9" y="13.9" /><rect fill="black" height="4.2" stroke="none" stroke-width="0" width="4.2" x="2.9" y="22.9" /><rect fill="black" height="2.1" stroke="none" stroke-width="0" width="2.1" x="13.9" y="23.9" /><rect fill="black" height="5.2" stroke="none" stroke-width="0" width="5.2" x="2.4" y="32.4" /><rect fill="black" height="2.1" stroke="none" stroke-width="0" width="2.1" x="13.9" y="33.9" /><rect fill="black" height="6.0" stroke="none" stroke-width="0" width="6.0" x="2.0" y="42.0" /><rect fill="black" height="2.1" stroke="none" stroke-width="0" width="2.1" x="13.9" y="43.9" /><rect fill="black" height="6.7" stroke="none" stroke-width="0" width="6.7" x="1.6" y="51.6" /><rect fill="black" height="2.1" stroke="none" stroke-width="0" width="2.1" x="13.9" y="53.9" /><rect fill="black" height="7.4" stroke="none" stroke-width="0" width="7.4" x="1.3" y="61.3" /><rect fill="black" height="2.1" stroke="none" stroke-width="0" width="2.1" x="13.9" y="63.9" /><rect fill="black" height="7.9" stroke="none" stroke-width="0" width="7.9" x="1.0" y="71.0" /><rect fill="black" height="2.1" stroke="none" stroke-width="0" width="2.1" x="13.9" y="73.9" /><rect fill="black" height="8.5" stroke="none" stroke-width="0" width="8.5" x="0.8" y="80.8" /><rect fill="black" height="2.1" stroke="none" stroke-width="0" width="2.1" x="13.9" y="83.9" /><rect fill="black" height="9.0" stroke="none" stroke-width="0" width="9.0" x="0.5" y="90.5" /><rect fill="black" height="2.1" stroke="none" stroke-width="0" width="2.1" x="13.9" y="93.9" /><rect fill="black" height="9.5" stroke="none" stroke-width="0" width="9.5" x="0.2" y="100.2" /><rect fill="black" height="2.1" stroke="none" stroke-width="0" width="2.1" x="13.9" y="103.9" /></g><g><text font-size="14px" text-anchor="middle" transform="rotate(-90, -22.0, 55.0)" x="-22.0" y="55.0">ğ‘¥â‚€</text></g><g><rect fill="black" height="2.1" stroke="none" stroke-width="0" width="2.1" x="63.9" y="3.9" /><rect fill="black" height="3.0" stroke="none" stroke-width="0" width="3.0" x="73.5" y="3.5" /><rect fill="black" height="3.0" stroke="none" stroke-width="0" width="3.0" x="63.5" y="13.5" /><rect fill="black" height="3.0" stroke="none" stroke-width="0" width="3.0" x="73.5" y="13.5" /><rect fill="black" height="4.2" stroke="none" stroke-width="0" width="4.2" x="62.9" y="22.9" /><rect fill="black" height="3.0" stroke="none" stroke-width="0" width="3.0" x="73.5" y="23.5" /><rect fill="black" height="5.2" stroke="none" stroke-width="0" width="5.2" x="62.4" y="32.4" /><rect fill="black" height="3.0" stroke="none" stroke-width="0" width="3.0" x="73.5" y="33.5" /><rect fill="black" height="6.0" stroke="none" stroke-width="0" width="6.0" x="62.0" y="42.0" /><rect fill="black" height="3.0" stroke="none" stroke-width="0" width="3.0" x="73.5" y="43.5" /><rect fill="black" height="6.7" stroke="none" stroke-width="0" width="6.7" x="61.6" y="51.6" /><rect fill="black" height="3.0" stroke="none" stroke-width="0" width="3.0" x="73.5" y="53.5" /><rect fill="black" height="7.4" stroke="none" stroke-width="0" width="7.4" x="61.3" y="61.3" /><rect fill="black" height="3.0" stroke="none" stroke-width="0" width="3.0" x="73.5" y="63.5" /><rect fill="black" height="7.9" stroke="none" stroke-width="0" width="7.9" x="61.0" y="71.0" /><rect fill="black" height="3.0" stroke="none" stroke-width="0" width="3.0" x="73.5" y="73.5" /><rect fill="black" height="8.5" stroke="none" stroke-width="0" width="8.5" x="60.8" y="80.8" /><rect fill="black" height="3.0" stroke="none" stroke-width="0" width="3.0" x="73.5" y="83.5" /><rect fill="black" height="9.0" stroke="none" stroke-width="0" width="9.0" x="60.5" y="90.5" /><rect fill="black" height="3.0" stroke="none" stroke-width="0" width="3.0" x="73.5" y="93.5" /><rect fill="black" height="9.5" stroke="none" stroke-width="0" width="9.5" x="60.2" y="100.2" /><rect fill="black" height="3.0" stroke="none" stroke-width="0" width="3.0" x="73.5" y="103.5" /></g><g /><g><rect fill="black" height="2.1" stroke="none" stroke-width="0" width="2.1" x="123.9" y="3.9" /><rect fill="black" height="4.2" stroke="none" stroke-width="0" width="4.2" x="132.9" y="2.9" /><rect fill="black" height="3.0" stroke="none" stroke-width="0" width="3.0" x="123.5" y="13.5" /><rect fill="black" height="4.2" stroke="none" stroke-width="0" width="4.2" x="132.9" y="12.9" /><rect fill="black" height="4.2" stroke="none" stroke-width="0" width="4.2" x="122.9" y="22.9" /><rect fill="black" height="4.2" stroke="none" stroke-width="0" width="4.2" x="132.9" y="22.9" /><rect fill="black" height="5.2" stroke="none" stroke-width="0" width="5.2" x="122.4" y="32.4" /><rect fill="black" height="4.2" stroke="none" stroke-width="0" width="4.2" x="132.9" y="32.9" /><rect fill="black" height="6.0" stroke="none" stroke-width="0" width="6.0" x="122.0" y="42.0" /><rect fill="black" height="4.2" stroke="none" stroke-width="0" width="4.2" x="132.9" y="42.9" /><rect fill="black" height="6.7" stroke="none" stroke-width="0" width="6.7" x="121.6" y="51.6" /><rect fill="black" height="4.2" stroke="none" stroke-width="0" width="4.2" x="132.9" y="52.9" /><rect fill="black" height="7.4" stroke="none" stroke-width="0" width="7.4" x="121.3" y="61.3" /><rect fill="black" height="4.2" stroke="none" stroke-width="0" width="4.2" x="132.9" y="62.9" /><rect fill="black" height="7.9" stroke="none" stroke-width="0" width="7.9" x="121.0" y="71.0" /><rect fill="black" height="4.2" stroke="none" stroke-width="0" width="4.2" x="132.9" y="72.9" /><rect fill="black" height="8.5" stroke="none" stroke-width="0" width="8.5" x="120.8" y="80.8" /><rect fill="black" height="4.2" stroke="none" stroke-width="0" width="4.2" x="132.9" y="82.9" /><rect fill="black" height="9.0" stroke="none" stroke-width="0" width="9.0" x="120.5" y="90.5" /><rect fill="black" height="4.2" stroke="none" stroke-width="0" width="4.2" x="132.9" y="92.9" /><rect fill="black" height="9.5" stroke="none" stroke-width="0" width="9.5" x="120.2" y="100.2" /><rect fill="black" height="4.2" stroke="none" stroke-width="0" width="4.2" x="132.9" y="102.9" /></g><g /><g><rect fill="black" height="2.1" stroke="none" stroke-width="0" width="2.1" x="183.9" y="3.9" /><rect fill="black" height="5.2" stroke="none" stroke-width="0" width="5.2" x="192.4" y="2.4" /><rect fill="black" height="3.0" stroke="none" stroke-width="0" width="3.0" x="183.5" y="13.5" /><rect fill="black" height="5.2" stroke="none" stroke-width="0" width="5.2" x="192.4" y="12.4" /><rect fill="black" height="4.2" stroke="none" stroke-width="0" width="4.2" x="182.9" y="22.9" /><rect fill="black" height="5.2" stroke="none" stroke-width="0" width="5.2" x="192.4" y="22.4" /><rect fill="black" height="5.2" stroke="none" stroke-width="0" width="5.2" x="182.4" y="32.4" /><rect fill="black" height="5.2" stroke="none" stroke-width="0" width="5.2" x="192.4" y="32.4" /><rect fill="black" height="6.0" stroke="none" stroke-width="0" width="6.0" x="182.0" y="42.0" /><rect fill="black" height="5.2" stroke="none" stroke-width="0" width="5.2" x="192.4" y="42.4" /><rect fill="black" height="6.7" stroke="none" stroke-width="0" width="6.7" x="181.6" y="51.6" /><rect fill="black" height="5.2" stroke="none" stroke-width="0" width="5.2" x="192.4" y="52.4" /><rect fill="black" height="7.4" stroke="none" stroke-width="0" width="7.4" x="181.3" y="61.3" /><rect fill="black" height="5.2" stroke="none" stroke-width="0" width="5.2" x="192.4" y="62.4" /><rect fill="black" height="7.9" stroke="none" stroke-width="0" width="7.9" x="181.0" y="71.0" /><rect fill="black" height="5.2" stroke="none" stroke-width="0" width="5.2" x="192.4" y="72.4" /><rect fill="black" height="8.5" stroke="none" stroke-width="0" width="8.5" x="180.8" y="80.8" /><rect fill="black" height="5.2" stroke="none" stroke-width="0" width="5.2" x="192.4" y="82.4" /><rect fill="black" height="9.0" stroke="none" stroke-width="0" width="9.0" x="180.5" y="90.5" /><rect fill="black" height="5.2" stroke="none" stroke-width="0" width="5.2" x="192.4" y="92.4" /><rect fill="black" height="9.5" stroke="none" stroke-width="0" width="9.5" x="180.2" y="100.2" /><rect fill="black" height="5.2" stroke="none" stroke-width="0" width="5.2" x="192.4" y="102.4" /></g><g /><g><rect fill="black" height="2.1" stroke="none" stroke-width="0" width="2.1" x="243.9" y="3.9" /><rect fill="black" height="6.0" stroke="none" stroke-width="0" width="6.0" x="252.0" y="2.0" /><rect fill="black" height="3.0" stroke="none" stroke-width="0" width="3.0" x="243.5" y="13.5" /><rect fill="black" height="6.0" stroke="none" stroke-width="0" width="6.0" x="252.0" y="12.0" /><rect fill="black" height="4.2" stroke="none" stroke-width="0" width="4.2" x="242.9" y="22.9" /><rect fill="black" height="6.0" stroke="none" stroke-width="0" width="6.0" x="252.0" y="22.0" /><rect fill="black" height="5.2" stroke="none" stroke-width="0" width="5.2" x="242.4" y="32.4" /><rect fill="black" height="6.0" stroke="none" stroke-width="0" width="6.0" x="252.0" y="32.0" /><rect fill="black" height="6.0" stroke="none" stroke-width="0" width="6.0" x="242.0" y="42.0" /><rect fill="black" height="6.0" stroke="none" stroke-width="0" width="6.0" x="252.0" y="42.0" /><rect fill="black" height="6.7" stroke="none" stroke-width="0" width="6.7" x="241.6" y="51.6" /><rect fill="black" height="6.0" stroke="none" stroke-width="0" width="6.0" x="252.0" y="52.0" /><rect fill="black" height="7.4" stroke="none" stroke-width="0" width="7.4" x="241.3" y="61.3" /><rect fill="black" height="6.0" stroke="none" stroke-width="0" width="6.0" x="252.0" y="62.0" /><rect fill="black" height="7.9" stroke="none" stroke-width="0" width="7.9" x="241.0" y="71.0" /><rect fill="black" height="6.0" stroke="none" stroke-width="0" width="6.0" x="252.0" y="72.0" /><rect fill="black" height="8.5" stroke="none" stroke-width="0" width="8.5" x="240.8" y="80.8" /><rect fill="black" height="6.0" stroke="none" stroke-width="0" width="6.0" x="252.0" y="82.0" /><rect fill="black" height="9.0" stroke="none" stroke-width="0" width="9.0" x="240.5" y="90.5" /><rect fill="black" height="6.0" stroke="none" stroke-width="0" width="6.0" x="252.0" y="92.0" /><rect fill="black" height="9.5" stroke="none" stroke-width="0" width="9.5" x="240.2" y="100.2" /><rect fill="black" height="6.0" stroke="none" stroke-width="0" width="6.0" x="252.0" y="102.0" /></g><g /><g><rect fill="black" height="2.1" stroke="none" stroke-width="0" width="2.1" x="303.9" y="3.9" /><rect fill="black" height="6.7" stroke="none" stroke-width="0" width="6.7" x="311.6" y="1.6" /><rect fill="black" height="3.0" stroke="none" stroke-width="0" width="3.0" x="303.5" y="13.5" /><rect fill="black" height="6.7" stroke="none" stroke-width="0" width="6.7" x="311.6" y="11.6" /><rect fill="black" height="4.2" stroke="none" stroke-width="0" width="4.2" x="302.9" y="22.9" /><rect fill="black" height="6.7" stroke="none" stroke-width="0" width="6.7" x="311.6" y="21.6" /><rect fill="black" height="5.2" stroke="none" stroke-width="0" width="5.2" x="302.4" y="32.4" /><rect fill="black" height="6.7" stroke="none" stroke-width="0" width="6.7" x="311.6" y="31.6" /><rect fill="black" height="6.0" stroke="none" stroke-width="0" width="6.0" x="302.0" y="42.0" /><rect fill="black" height="6.7" stroke="none" stroke-width="0" width="6.7" x="311.6" y="41.6" /><rect fill="black" height="6.7" stroke="none" stroke-width="0" width="6.7" x="301.6" y="51.6" /><rect fill="black" height="6.7" stroke="none" stroke-width="0" width="6.7" x="311.6" y="51.6" /><rect fill="black" height="7.4" stroke="none" stroke-width="0" width="7.4" x="301.3" y="61.3" /><rect fill="black" height="6.7" stroke="none" stroke-width="0" width="6.7" x="311.6" y="61.6" /><rect fill="black" height="7.9" stroke="none" stroke-width="0" width="7.9" x="301.0" y="71.0" /><rect fill="black" height="6.7" stroke="none" stroke-width="0" width="6.7" x="311.6" y="71.6" /><rect fill="black" height="8.5" stroke="none" stroke-width="0" width="8.5" x="300.8" y="80.8" /><rect fill="black" height="6.7" stroke="none" stroke-width="0" width="6.7" x="311.6" y="81.6" /><rect fill="black" height="9.0" stroke="none" stroke-width="0" width="9.0" x="300.5" y="90.5" /><rect fill="black" height="6.7" stroke="none" stroke-width="0" width="6.7" x="311.6" y="91.6" /><rect fill="black" height="9.5" stroke="none" stroke-width="0" width="9.5" x="300.2" y="100.2" /><rect fill="black" height="6.7" stroke="none" stroke-width="0" width="6.7" x="311.6" y="101.6" /></g><g><text font-size="14px" text-anchor="middle" x="310.0" y="-22.0">Representation of {(ğ‘¥â‚€, ğ‘¥â‚)} in base-11</text><text font-size="14px" text-anchor="middle" x="310.0" y="132.0">ğ‘¥â‚</text></g><g><rect fill="black" height="2.1" stroke="none" stroke-width="0" width="2.1" x="363.9" y="3.9" /><rect fill="black" height="7.4" stroke="none" stroke-width="0" width="7.4" x="371.3" y="1.3" /><rect fill="black" height="3.0" stroke="none" stroke-width="0" width="3.0" x="363.5" y="13.5" /><rect fill="black" height="7.4" stroke="none" stroke-width="0" width="7.4" x="371.3" y="11.3" /><rect fill="black" height="4.2" stroke="none" stroke-width="0" width="4.2" x="362.9" y="22.9" /><rect fill="black" height="7.4" stroke="none" stroke-width="0" width="7.4" x="371.3" y="21.3" /><rect fill="black" height="5.2" stroke="none" stroke-width="0" width="5.2" x="362.4" y="32.4" /><rect fill="black" height="7.4" stroke="none" stroke-width="0" width="7.4" x="371.3" y="31.3" /><rect fill="black" height="6.0" stroke="none" stroke-width="0" width="6.0" x="362.0" y="42.0" /><rect fill="black" height="7.4" stroke="none" stroke-width="0" width="7.4" x="371.3" y="41.3" /><rect fill="black" height="6.7" stroke="none" stroke-width="0" width="6.7" x="361.6" y="51.6" /><rect fill="black" height="7.4" stroke="none" stroke-width="0" width="7.4" x="371.3" y="51.3" /><rect fill="black" height="7.4" stroke="none" stroke-width="0" width="7.4" x="361.3" y="61.3" /><rect fill="black" height="7.4" stroke="none" stroke-width="0" width="7.4" x="371.3" y="61.3" /><rect fill="black" height="7.9" stroke="none" stroke-width="0" width="7.9" x="361.0" y="71.0" /><rect fill="black" height="7.4" stroke="none" stroke-width="0" width="7.4" x="371.3" y="71.3" /><rect fill="black" height="8.5" stroke="none" stroke-width="0" width="8.5" x="360.8" y="80.8" /><rect fill="black" height="7.4" stroke="none" stroke-width="0" width="7.4" x="371.3" y="81.3" /><rect fill="black" height="9.0" stroke="none" stroke-width="0" width="9.0" x="360.5" y="90.5" /><rect fill="black" height="7.4" stroke="none" stroke-width="0" width="7.4" x="371.3" y="91.3" /><rect fill="black" height="9.5" stroke="none" stroke-width="0" width="9.5" x="360.2" y="100.2" /><rect fill="black" height="7.4" stroke="none" stroke-width="0" width="7.4" x="371.3" y="101.3" /></g><g /><g><rect fill="black" height="2.1" stroke="none" stroke-width="0" width="2.1" x="423.9" y="3.9" /><rect fill="black" height="7.9" stroke="none" stroke-width="0" width="7.9" x="431.0" y="1.0" /><rect fill="black" height="3.0" stroke="none" stroke-width="0" width="3.0" x="423.5" y="13.5" /><rect fill="black" height="7.9" stroke="none" stroke-width="0" width="7.9" x="431.0" y="11.0" /><rect fill="black" height="4.2" stroke="none" stroke-width="0" width="4.2" x="422.9" y="22.9" /><rect fill="black" height="7.9" stroke="none" stroke-width="0" width="7.9" x="431.0" y="21.0" /><rect fill="black" height="5.2" stroke="none" stroke-width="0" width="5.2" x="422.4" y="32.4" /><rect fill="black" height="7.9" stroke="none" stroke-width="0" width="7.9" x="431.0" y="31.0" /><rect fill="black" height="6.0" stroke="none" stroke-width="0" width="6.0" x="422.0" y="42.0" /><rect fill="black" height="7.9" stroke="none" stroke-width="0" width="7.9" x="431.0" y="41.0" /><rect fill="black" height="6.7" stroke="none" stroke-width="0" width="6.7" x="421.6" y="51.6" /><rect fill="black" height="7.9" stroke="none" stroke-width="0" width="7.9" x="431.0" y="51.0" /><rect fill="black" height="7.4" stroke="none" stroke-width="0" width="7.4" x="421.3" y="61.3" /><rect fill="black" height="7.9" stroke="none" stroke-width="0" width="7.9" x="431.0" y="61.0" /><rect fill="black" height="7.9" stroke="none" stroke-width="0" width="7.9" x="421.0" y="71.0" /><rect fill="black" height="7.9" stroke="none" stroke-width="0" width="7.9" x="431.0" y="71.0" /><rect fill="black" height="8.5" stroke="none" stroke-width="0" width="8.5" x="420.8" y="80.8" /><rect fill="black" height="7.9" stroke="none" stroke-width="0" width="7.9" x="431.0" y="81.0" /><rect fill="black" height="9.0" stroke="none" stroke-width="0" width="9.0" x="420.5" y="90.5" /><rect fill="black" height="7.9" stroke="none" stroke-width="0" width="7.9" x="431.0" y="91.0" /><rect fill="black" height="9.5" stroke="none" stroke-width="0" width="9.5" x="420.2" y="100.2" /><rect fill="black" height="7.9" stroke="none" stroke-width="0" width="7.9" x="431.0" y="101.0" /></g><g /><g><rect fill="black" height="2.1" stroke="none" stroke-width="0" width="2.1" x="483.9" y="3.9" /><rect fill="black" height="8.5" stroke="none" stroke-width="0" width="8.5" x="490.8" y="0.8" /><rect fill="black" height="3.0" stroke="none" stroke-width="0" width="3.0" x="483.5" y="13.5" /><rect fill="black" height="8.5" stroke="none" stroke-width="0" width="8.5" x="490.8" y="10.8" /><rect fill="black" height="4.2" stroke="none" stroke-width="0" width="4.2" x="482.9" y="22.9" /><rect fill="black" height="8.5" stroke="none" stroke-width="0" width="8.5" x="490.8" y="20.8" /><rect fill="black" height="5.2" stroke="none" stroke-width="0" width="5.2" x="482.4" y="32.4" /><rect fill="black" height="8.5" stroke="none" stroke-width="0" width="8.5" x="490.8" y="30.8" /><rect fill="black" height="6.0" stroke="none" stroke-width="0" width="6.0" x="482.0" y="42.0" /><rect fill="black" height="8.5" stroke="none" stroke-width="0" width="8.5" x="490.8" y="40.8" /><rect fill="black" height="6.7" stroke="none" stroke-width="0" width="6.7" x="481.6" y="51.6" /><rect fill="black" height="8.5" stroke="none" stroke-width="0" width="8.5" x="490.8" y="50.8" /><rect fill="black" height="7.4" stroke="none" stroke-width="0" width="7.4" x="481.3" y="61.3" /><rect fill="black" height="8.5" stroke="none" stroke-width="0" width="8.5" x="490.8" y="60.8" /><rect fill="black" height="7.9" stroke="none" stroke-width="0" width="7.9" x="481.0" y="71.0" /><rect fill="black" height="8.5" stroke="none" stroke-width="0" width="8.5" x="490.8" y="70.8" /><rect fill="black" height="8.5" stroke="none" stroke-width="0" width="8.5" x="480.8" y="80.8" /><rect fill="black" height="8.5" stroke="none" stroke-width="0" width="8.5" x="490.8" y="80.8" /><rect fill="black" height="9.0" stroke="none" stroke-width="0" width="9.0" x="480.5" y="90.5" /><rect fill="black" height="8.5" stroke="none" stroke-width="0" width="8.5" x="490.8" y="90.8" /><rect fill="black" height="9.5" stroke="none" stroke-width="0" width="9.5" x="480.2" y="100.2" /><rect fill="black" height="8.5" stroke="none" stroke-width="0" width="8.5" x="490.8" y="100.8" /></g><g /><g><rect fill="black" height="2.1" stroke="none" stroke-width="0" width="2.1" x="543.9" y="3.9" /><rect fill="black" height="9.0" stroke="none" stroke-width="0" width="9.0" x="550.5" y="0.5" /><rect fill="black" height="3.0" stroke="none" stroke-width="0" width="3.0" x="543.5" y="13.5" /><rect fill="black" height="9.0" stroke="none" stroke-width="0" width="9.0" x="550.5" y="10.5" /><rect fill="black" height="4.2" stroke="none" stroke-width="0" width="4.2" x="542.9" y="22.9" /><rect fill="black" height="9.0" stroke="none" stroke-width="0" width="9.0" x="550.5" y="20.5" /><rect fill="black" height="5.2" stroke="none" stroke-width="0" width="5.2" x="542.4" y="32.4" /><rect fill="black" height="9.0" stroke="none" stroke-width="0" width="9.0" x="550.5" y="30.5" /><rect fill="black" height="6.0" stroke="none" stroke-width="0" width="6.0" x="542.0" y="42.0" /><rect fill="black" height="9.0" stroke="none" stroke-width="0" width="9.0" x="550.5" y="40.5" /><rect fill="black" height="6.7" stroke="none" stroke-width="0" width="6.7" x="541.6" y="51.6" /><rect fill="black" height="9.0" stroke="none" stroke-width="0" width="9.0" x="550.5" y="50.5" /><rect fill="black" height="7.4" stroke="none" stroke-width="0" width="7.4" x="541.3" y="61.3" /><rect fill="black" height="9.0" stroke="none" stroke-width="0" width="9.0" x="550.5" y="60.5" /><rect fill="black" height="7.9" stroke="none" stroke-width="0" width="7.9" x="541.0" y="71.0" /><rect fill="black" height="9.0" stroke="none" stroke-width="0" width="9.0" x="550.5" y="70.5" /><rect fill="black" height="8.5" stroke="none" stroke-width="0" width="8.5" x="540.8" y="80.8" /><rect fill="black" height="9.0" stroke="none" stroke-width="0" width="9.0" x="550.5" y="80.5" /><rect fill="black" height="9.0" stroke="none" stroke-width="0" width="9.0" x="540.5" y="90.5" /><rect fill="black" height="9.0" stroke="none" stroke-width="0" width="9.0" x="550.5" y="90.5" /><rect fill="black" height="9.5" stroke="none" stroke-width="0" width="9.5" x="540.2" y="100.2" /><rect fill="black" height="9.0" stroke="none" stroke-width="0" width="9.0" x="550.5" y="100.5" /></g><g /><g><rect fill="black" height="2.1" stroke="none" stroke-width="0" width="2.1" x="603.9" y="3.9" /><rect fill="black" height="9.5" stroke="none" stroke-width="0" width="9.5" x="610.2" y="0.2" /><rect fill="black" height="3.0" stroke="none" stroke-width="0" width="3.0" x="603.5" y="13.5" /><rect fill="black" height="9.5" stroke="none" stroke-width="0" width="9.5" x="610.2" y="10.2" /><rect fill="black" height="4.2" stroke="none" stroke-width="0" width="4.2" x="602.9" y="22.9" /><rect fill="black" height="9.5" stroke="none" stroke-width="0" width="9.5" x="610.2" y="20.2" /><rect fill="black" height="5.2" stroke="none" stroke-width="0" width="5.2" x="602.4" y="32.4" /><rect fill="black" height="9.5" stroke="none" stroke-width="0" width="9.5" x="610.2" y="30.2" /><rect fill="black" height="6.0" stroke="none" stroke-width="0" width="6.0" x="602.0" y="42.0" /><rect fill="black" height="9.5" stroke="none" stroke-width="0" width="9.5" x="610.2" y="40.2" /><rect fill="black" height="6.7" stroke="none" stroke-width="0" width="6.7" x="601.6" y="51.6" /><rect fill="black" height="9.5" stroke="none" stroke-width="0" width="9.5" x="610.2" y="50.2" /><rect fill="black" height="7.4" stroke="none" stroke-width="0" width="7.4" x="601.3" y="61.3" /><rect fill="black" height="9.5" stroke="none" stroke-width="0" width="9.5" x="610.2" y="60.2" /><rect fill="black" height="7.9" stroke="none" stroke-width="0" width="7.9" x="601.0" y="71.0" /><rect fill="black" height="9.5" stroke="none" stroke-width="0" width="9.5" x="610.2" y="70.2" /><rect fill="black" height="8.5" stroke="none" stroke-width="0" width="8.5" x="600.8" y="80.8" /><rect fill="black" height="9.5" stroke="none" stroke-width="0" width="9.5" x="610.2" y="80.2" /><rect fill="black" height="9.0" stroke="none" stroke-width="0" width="9.0" x="600.5" y="90.5" /><rect fill="black" height="9.5" stroke="none" stroke-width="0" width="9.5" x="610.2" y="90.2" /><rect fill="black" height="9.5" stroke="none" stroke-width="0" width="9.5" x="600.2" y="100.2" /><rect fill="black" height="9.5" stroke="none" stroke-width="0" width="9.5" x="610.2" y="100.2" /></g><g /></svg>