<?xml version="1.0" encoding="utf-8" ?>
<svg baseProfile="full" preserveAspectRatio="xMidYMid meet" version="1.1" viewBox="0,0,30,10" xmlns="http://www.w3.org/2000/svg" xmlns:ev="http://www.w3.org/2001/xml-events" xmlns:xlink="http://www.w3.org/1999/xlink"><defs><style type="text/css"><![CDATA[
            * {
                stroke-width: 0.1;
            }
        ]]></style></defs><g transform="translate(1,1)"><rect fill="black" height="0.451" width="0.451" x="-0.2255" y="-0.2255" /><rect fill="black" height="0.253" width="0.253" x="0.8734999999999999" y="-0.1265" /><rect fill="black" height="0.56" width="0.56" x="1.72" y="-0.28" /><rect fill="black" height="0.82" width="0.82" x="2.59" y="-0.41" /><rect fill="black" height="0.629" width="0.629" x="-0.3145" y="0.6855" /><rect fill="black" height="0.633" width="0.633" x="0.6835" y="0.6835" /><rect fill="black" height="0.771" width="0.771" x="1.6145" y="0.6145" /><rect fill="black" height="0.492" width="0.492" x="2.754" y="0.754" /><rect fill="black" height="0.735" width="0.735" x="-0.3675" y="1.6325" /><rect fill="black" height="0.752" width="0.752" x="0.624" y="1.624" /><rect fill="black" height="0.772" width="0.772" x="1.6139999999999999" y="1.6139999999999999" /><rect fill="black" height="0.366" width="0.366" x="2.817" y="1.817" /><rect fill="black" height="0.779" width="0.779" x="-0.3895" y="2.6105" /><rect fill="black" height="0.904" width="0.904" x="0.548" y="2.548" /><rect fill="black" height="0.782" width="0.782" x="1.609" y="2.609" /><rect fill="black" height="0.691" width="0.691" x="2.6545" y="2.6545" /><rect fill="black" height="0.809" width="0.809" x="-0.4045" y="3.5955" /><rect fill="black" height="0.991" width="0.991" x="0.5045" y="3.5045" /><rect fill="black" height="0.896" width="0.896" x="1.552" y="3.552" /><rect fill="black" height="0.829" width="0.829" x="2.5855" y="3.5855" /><rect fill="black" height="0.91" width="0.91" x="-0.455" y="4.545" /><rect fill="black" height="0.869" width="0.869" x="0.5655" y="4.5655" /><rect fill="black" height="0.902" width="0.902" x="1.549" y="4.549" /><rect fill="black" height="0.639" width="0.639" x="2.6805" y="4.6805" /><rect fill="black" height="0.946" width="0.946" x="-0.473" y="5.527" /><rect fill="black" height="0.999" width="0.999" x="0.5005" y="5.5005" /><rect fill="black" height="0.963" width="0.963" x="1.5185" y="5.5185" /><rect fill="black" height="0.852" width="0.852" x="2.574" y="5.574" /><rect fill="black" height="0.977" width="0.977" x="-0.4885" y="6.5115" /><rect fill="black" height="0.948" width="0.948" x="0.526" y="6.526" /><rect fill="black" height="0.975" width="0.975" x="1.5125" y="6.5125" /><rect fill="black" height="0.96" width="0.96" x="2.52" y="6.52" /><rect fill="black" height="1.0" width="1.0" x="-0.5" y="7.5" /><rect fill="black" height="1.0" width="1.0" x="0.5" y="7.5" /><rect fill="black" height="1.0" width="1.0" x="1.5" y="7.5" /><rect fill="black" height="1.0" width="1.0" x="2.5" y="7.5" /></g><g transform="translate(6,1)"><rect fill="black" height="0.429" width="0.429" x="-0.2145" y="-0.2145" /><rect fill="black" height="0.505" width="0.505" x="0.7475" y="-0.2525" /><rect fill="black" height="0.667" width="0.667" x="1.6665" y="-0.3335" /><rect fill="black" height="0.581" width="0.581" x="2.7095000000000002" y="-0.2905" /><rect fill="black" height="0.644" width="0.644" x="-0.322" y="0.6779999999999999" /><rect fill="black" height="0.198" width="0.198" x="0.901" y="0.901" /><rect fill="black" height="0.67" width="0.67" x="1.665" y="0.665" /><rect fill="black" height="0.715" width="0.715" x="2.6425" y="0.6425000000000001" /><rect fill="black" height="0.685" width="0.685" x="-0.3425" y="1.6575" /><rect fill="black" height="0.466" width="0.466" x="0.767" y="1.767" /><rect fill="black" height="0.756" width="0.756" x="1.6219999999999999" y="1.6219999999999999" /><rect fill="black" height="0.783" width="0.783" x="2.6085" y="1.6085" /><rect fill="black" height="0.792" width="0.792" x="-0.396" y="2.604" /><rect fill="black" height="0.417" width="0.417" x="0.7915" y="2.7915" /><rect fill="black" height="0.861" width="0.861" x="1.5695000000000001" y="2.5695" /><rect fill="black" height="0.799" width="0.799" x="2.6005" y="2.6005" /><rect fill="black" height="0.857" width="0.857" x="-0.4285" y="3.5715" /><rect fill="black" height="0.516" width="0.516" x="0.742" y="3.742" /><rect fill="black" height="0.97" width="0.97" x="1.5150000000000001" y="3.515" /><rect fill="black" height="0.883" width="0.883" x="2.5585" y="3.5585" /><rect fill="black" height="0.901" width="0.901" x="-0.4505" y="4.5495" /><rect fill="black" height="1.0" width="1.0" x="0.5" y="4.5" /><rect fill="black" height="1.0" width="1.0" x="1.5" y="4.5" /><rect fill="black" height="0.902" width="0.902" x="2.549" y="4.549" /><rect fill="black" height="0.951" width="0.951" x="-0.4755" y="5.5245" /><rect fill="black" height="0.088" width="0.088" x="0.956" y="5.956" /><rect fill="black" height="0.894" width="0.894" x="1.553" y="5.553" /><rect fill="black" height="0.945" width="0.945" x="2.5275" y="5.5275" /><rect fill="black" height="0.983" width="0.983" x="-0.4915" y="6.5085" /><rect fill="black" height="0.356" width="0.356" x="0.8220000000000001" y="6.822" /><rect fill="black" height="0.973" width="0.973" x="1.5135" y="6.5135" /><rect fill="black" height="0.958" width="0.958" x="2.521" y="6.521" /><rect fill="black" height="1.0" width="1.0" x="-0.5" y="7.5" /><rect fill="black" height="0.543" width="0.543" x="0.7284999999999999" y="7.7285" /><rect fill="black" height="0.985" width="0.985" x="1.5075" y="7.5075" /><rect fill="black" height="1.0" width="1.0" x="2.5" y="7.5" /></g><g transform="translate(11,1)"><rect fill="black" height="0.34" width="0.34" x="-0.17" y="-0.17" /><rect fill="black" height="0.415" width="0.415" x="0.7925" y="-0.2075" /><rect fill="black" height="0.532" width="0.532" x="1.734" y="-0.266" /><rect fill="black" height="0.82" width="0.82" x="2.59" y="-0.41" /><rect fill="black" height="0.582" width="0.582" x="-0.291" y="0.7090000000000001" /><rect fill="black" height="0.406" width="0.406" x="0.7969999999999999" y="0.7969999999999999" /><rect fill="black" height="0.776" width="0.776" x="1.612" y="0.612" /><rect fill="black" height="0.492" width="0.492" x="2.754" y="0.754" /><rect fill="black" height="0.69" width="0.69" x="-0.345" y="1.655" /><rect fill="black" height="0.473" width="0.473" x="0.7635000000000001" y="1.7635" /><rect fill="black" height="0.856" width="0.856" x="1.572" y="1.572" /><rect fill="black" height="0.366" width="0.366" x="2.817" y="1.817" /><rect fill="black" height="0.75" width="0.75" x="-0.375" y="2.625" /><rect fill="black" height="0.785" width="0.785" x="0.6074999999999999" y="2.6075" /><rect fill="black" height="0.836" width="0.836" x="1.582" y="2.582" /><rect fill="black" height="0.691" width="0.691" x="2.6545" y="2.6545" /><rect fill="black" height="0.83" width="0.83" x="-0.415" y="3.585" /><rect fill="black" height="0.973" width="0.973" x="0.5135000000000001" y="3.5135" /><rect fill="black" height="0.894" width="0.894" x="1.553" y="3.553" /><rect fill="black" height="0.829" width="0.829" x="2.5855" y="3.5855" /><rect fill="black" height="0.846" width="0.846" x="-0.423" y="4.577" /><rect fill="black" height="1.0" width="1.0" x="0.5" y="4.5" /><rect fill="black" height="0.912" width="0.912" x="1.544" y="4.544" /><rect fill="black" height="0.639" width="0.639" x="2.6805" y="4.6805" /><rect fill="black" height="0.947" width="0.947" x="-0.4735" y="5.5265" /><rect fill="black" height="0.884" width="0.884" x="0.558" y="5.558" /><rect fill="black" height="0.939" width="0.939" x="1.5305" y="5.5305" /><rect fill="black" height="0.852" width="0.852" x="2.574" y="5.574" /><rect fill="black" height="0.969" width="0.969" x="-0.4845" y="6.5155" /><rect fill="black" height="0.843" width="0.843" x="0.5785" y="6.5785" /><rect fill="black" height="0.961" width="0.961" x="1.5195" y="6.5195" /><rect fill="black" height="0.96" width="0.96" x="2.52" y="6.52" /><rect fill="black" height="1.0" width="1.0" x="-0.5" y="7.5" /><rect fill="black" height="0.735" width="0.735" x="0.6325000000000001" y="7.6325" /><rect fill="black" height="1.0" width="1.0" x="1.5" y="7.5" /><rect fill="black" height="1.0" width="1.0" x="2.5" y="7.5" /></g><g transform="translate(16,1)"><rect fill="black" height="0.42" width="0.42" x="-0.21" y="-0.21" /><rect fill="black" height="0.152" width="0.152" x="0.924" y="-0.076" /><rect fill="black" height="0.785" width="0.785" x="1.6075" y="-0.3925" /><rect fill="black" height="0.436" width="0.436" x="2.782" y="-0.218" /><rect fill="black" height="0.696" width="0.696" x="-0.348" y="0.652" /><rect fill="black" height="0.543" width="0.543" x="0.7284999999999999" y="0.7284999999999999" /><rect fill="black" height="0.065" width="0.065" x="1.9675" y="0.9675" /><rect fill="black" height="0.965" width="0.965" x="2.5175" y="0.5175000000000001" /><rect fill="black" height="0.793" width="0.793" x="-0.3965" y="1.6035" /><rect fill="black" height="0.69" width="0.69" x="0.655" y="1.655" /><rect fill="black" height="0.598" width="0.598" x="1.701" y="1.701" /><rect fill="black" height="0.987" width="0.987" x="2.5065" y="1.5065" /><rect fill="black" height="0.781" width="0.781" x="-0.3905" y="2.6095" /><rect fill="black" height="0.835" width="0.835" x="0.5825" y="2.5825" /><rect fill="black" height="0.648" width="0.648" x="1.676" y="2.676" /><rect fill="black" height="0.863" width="0.863" x="2.5685000000000002" y="2.5685000000000002" /><rect fill="black" height="0.795" width="0.795" x="-0.3975" y="3.6025" /><rect fill="black" height="0.832" width="0.832" x="0.5840000000000001" y="3.584" /><rect fill="black" height="0.395" width="0.395" x="1.8025" y="3.8025" /><rect fill="black" height="0.791" width="0.791" x="2.6045" y="3.6045" /><rect fill="black" height="0.804" width="0.804" x="-0.402" y="4.598" /><rect fill="black" height="0.8" width="0.8" x="0.6" y="4.6" /><rect fill="black" height="0.587" width="0.587" x="1.7065000000000001" y="4.7065" /><rect fill="black" height="0.914" width="0.914" x="2.543" y="4.543" /><rect fill="black" height="0.88" width="0.88" x="-0.44" y="5.56" /><rect fill="black" height="1.0" width="1.0" x="0.5" y="5.5" /><rect fill="black" height="0.79" width="0.79" x="1.605" y="5.605" /><rect fill="black" height="0.921" width="0.921" x="2.5395" y="5.5395" /><rect fill="black" height="0.909" width="0.909" x="-0.4545" y="6.5455" /><rect fill="black" height="0.989" width="0.989" x="0.5055000000000001" y="6.5055" /><rect fill="black" height="0.478" width="0.478" x="1.7610000000000001" y="6.761" /><rect fill="black" height="0.821" width="0.821" x="2.5895" y="6.5895" /><rect fill="black" height="1.0" width="1.0" x="-0.5" y="7.5" /><rect fill="black" height="0.967" width="0.967" x="0.5165" y="7.5165" /><rect fill="black" height="1.0" width="1.0" x="1.5" y="7.5" /><rect fill="black" height="1.0" width="1.0" x="2.5" y="7.5" /></g><g transform="translate(21,1)"><rect fill="black" height="0.659" width="0.659" x="-0.3295" y="-0.3295" /><rect fill="black" height="0.392" width="0.392" x="0.804" y="-0.196" /><rect fill="black" height="0.445" width="0.445" x="1.7775" y="-0.2225" /><rect fill="black" height="0.776" width="0.776" x="2.612" y="-0.388" /><rect fill="black" height="0.66" width="0.66" x="-0.33" y="0.6699999999999999" /><rect fill="black" height="0.598" width="0.598" x="0.7010000000000001" y="0.7010000000000001" /><rect fill="black" height="0.729" width="0.729" x="1.6355" y="0.6355" /><rect fill="black" height="0.82" width="0.82" x="2.59" y="0.5900000000000001" /><rect fill="black" height="0.655" width="0.655" x="-0.3275" y="1.6724999999999999" /><rect fill="black" height="0.795" width="0.795" x="0.6025" y="1.6025" /><rect fill="black" height="0.824" width="0.824" x="1.588" y="1.588" /><rect fill="black" height="0.868" width="0.868" x="2.566" y="1.566" /><rect fill="black" height="0.708" width="0.708" x="-0.354" y="2.646" /><rect fill="black" height="0.934" width="0.934" x="0.5329999999999999" y="2.533" /><rect fill="black" height="0.602" width="0.602" x="1.699" y="2.699" /><rect fill="black" height="0.835" width="0.835" x="2.5825" y="2.5825" /><rect fill="black" height="0.729" width="0.729" x="-0.3645" y="3.6355" /><rect fill="black" height="1.0" width="1.0" x="0.5" y="3.5" /><rect fill="black" height="0.545" width="0.545" x="1.7275" y="3.7275" /><rect fill="black" height="0.91" width="0.91" x="2.545" y="3.545" /><rect fill="black" height="0.869" width="0.869" x="-0.4345" y="4.5655" /><rect fill="black" height="0.845" width="0.845" x="0.5775" y="4.5775" /><rect fill="black" height="0.511" width="0.511" x="1.7445" y="4.7445" /><rect fill="black" height="0.93" width="0.93" x="2.535" y="4.535" /><rect fill="black" height="0.899" width="0.899" x="-0.4495" y="5.5504999999999995" /><rect fill="black" height="0.885" width="0.885" x="0.5575" y="5.5575" /><rect fill="black" height="1.0" width="1.0" x="1.5" y="5.5" /><rect fill="black" height="0.965" width="0.965" x="2.5175" y="5.5175" /><rect fill="black" height="0.948" width="0.948" x="-0.474" y="6.526" /><rect fill="black" height="0.881" width="0.881" x="0.5595" y="6.5595" /><rect fill="black" height="0.879" width="0.879" x="1.5605" y="6.5605" /><rect fill="black" height="0.959" width="0.959" x="2.5205" y="6.5205" /><rect fill="black" height="1.0" width="1.0" x="-0.5" y="7.5" /><rect fill="black" height="0.94" width="0.94" x="0.53" y="7.53" /><rect fill="black" height="0.781" width="0.781" x="1.6095" y="7.6095" /><rect fill="black" height="1.0" width="1.0" x="2.5" y="7.5" /></g><g transform="translate(26,1)"><rect fill="black" height="0.704" width="0.704" x="-0.352" y="-0.352" /><rect fill="black" height="0.524" width="0.524" x="0.738" y="-0.262" /><rect fill="black" height="0.721" width="0.721" x="1.6395" y="-0.3605" /><rect fill="black" height="0.682" width="0.682" x="2.659" y="-0.341" /><rect fill="black" height="0.7" width="0.7" x="-0.35" y="0.65" /><rect fill="black" height="0.404" width="0.404" x="0.798" y="0.798" /><rect fill="black" height="1.0" width="1.0" x="1.5" y="0.5" /><rect fill="black" height="0.704" width="0.704" x="2.648" y="0.648" /><rect fill="black" height="1.0" width="1.0" x="-0.5" y="1.5" /><rect fill="black" height="0.517" width="0.517" x="0.7415" y="1.7415" /><rect fill="black" height="0.995" width="0.995" x="1.5025" y="1.5025" /><rect fill="black" height="0.798" width="0.798" x="2.601" y="1.601" /><rect fill="black" height="0.819" width="0.819" x="-0.4095" y="2.5905" /><rect fill="black" height="0.871" width="0.871" x="0.5645" y="2.5645" /><rect fill="black" height="0.704" width="0.704" x="1.6480000000000001" y="2.648" /><rect fill="black" height="0.81" width="0.81" x="2.5949999999999998" y="2.5949999999999998" /><rect fill="black" height="0.736" width="0.736" x="-0.368" y="3.632" /><rect fill="black" height="0.788" width="0.788" x="0.606" y="3.606" /><rect fill="black" height="0.9" width="0.9" x="1.55" y="3.55" /><rect fill="black" height="0.917" width="0.917" x="2.5415" y="3.5415" /><rect fill="black" height="0.637" width="0.637" x="-0.3185" y="4.6815" /><rect fill="black" height="0.444" width="0.444" x="0.778" y="4.778" /><rect fill="black" height="0.812" width="0.812" x="1.5939999999999999" y="4.594" /><rect fill="black" height="0.917" width="0.917" x="2.5415" y="4.5415" /><rect fill="black" height="0.54" width="0.54" x="-0.27" y="5.73" /><rect fill="black" height="1.0" width="1.0" x="0.5" y="5.5" /><rect fill="black" height="0.708" width="0.708" x="1.646" y="5.646" /><rect fill="black" height="0.962" width="0.962" x="2.519" y="5.519" /><rect fill="black" height="0.411" width="0.411" x="-0.2055" y="6.7945" /><rect fill="black" height="0.907" width="0.907" x="0.5465" y="6.5465" /><rect fill="black" height="0.768" width="0.768" x="1.616" y="6.616" /><rect fill="black" height="0.987" width="0.987" x="2.5065" y="6.5065" /><rect fill="black" height="0.408" width="0.408" x="-0.204" y="7.796" /><rect fill="black" height="0.783" width="0.783" x="0.6085" y="7.6085" /><rect fill="black" height="0.793" width="0.793" x="1.6035" y="7.6035" /><rect fill="black" height="1.0" width="1.0" x="2.5" y="7.5" /></g></svg>