<?xml version="1.0" encoding="utf-8" ?>
<svg baseProfile="full" preserveAspectRatio="xMidYMid meet" version="1.1" viewBox="0,0,30,10" xmlns="http://www.w3.org/2000/svg" xmlns:ev="http://www.w3.org/2001/xml-events" xmlns:xlink="http://www.w3.org/1999/xlink"><defs><style type="text/css"><![CDATA[
            * {
                stroke-width: 0.1;
            }
        ]]></style></defs><g transform="translate(1,1)"><rect fill="black" height="0.528" width="0.528" x="-0.264" y="-0.264" /><rect fill="black" height="0.668" width="0.668" x="0.6659999999999999" y="-0.334" /><rect fill="black" height="0.463" width="0.463" x="1.7685" y="-0.2315" /><rect fill="black" height="0.57" width="0.57" x="2.715" y="-0.285" /><rect fill="black" height="0.746" width="0.746" x="-0.373" y="0.627" /><rect fill="black" height="0.683" width="0.683" x="0.6585" y="0.6585" /><rect fill="black" height="0.662" width="0.662" x="1.669" y="0.669" /><rect fill="black" height="1.0" width="1.0" x="2.5" y="0.5" /><rect fill="black" height="0.703" width="0.703" x="-0.3515" y="1.6485" /><rect fill="black" height="0.855" width="0.855" x="0.5725" y="1.5725" /><rect fill="black" height="1.0" width="1.0" x="1.5" y="1.5" /><rect fill="black" height="0.747" width="0.747" x="2.6265" y="1.6265" /><rect fill="black" height="0.172" width="0.172" x="-0.086" y="2.914" /><rect fill="black" height="0.736" width="0.736" x="0.632" y="2.632" /><rect fill="black" height="0.782" width="0.782" x="1.609" y="2.609" /><rect fill="black" height="0.779" width="0.779" x="2.6105" y="2.6105" /><rect fill="black" height="0.472" width="0.472" x="-0.236" y="3.7640000000000002" /><rect fill="black" height="0.662" width="0.662" x="0.669" y="3.669" /><rect fill="black" height="0.468" width="0.468" x="1.766" y="3.766" /><rect fill="black" height="0.915" width="0.915" x="2.5425" y="3.5425" /><rect fill="black" height="0.97" width="0.97" x="-0.485" y="4.515" /><rect fill="black" height="0.713" width="0.713" x="0.6435" y="4.6435" /><rect fill="black" height="0.504" width="0.504" x="1.748" y="4.748" /><rect fill="black" height="0.915" width="0.915" x="2.5425" y="4.5425" /><rect fill="black" height="0.928" width="0.928" x="-0.464" y="5.536" /><rect fill="black" height="0.816" width="0.816" x="0.5920000000000001" y="5.592" /><rect fill="black" height="0.57" width="0.57" x="1.715" y="5.715" /><rect fill="black" height="0.913" width="0.913" x="2.5435" y="5.5435" /><rect fill="black" height="1.0" width="1.0" x="-0.5" y="6.5" /><rect fill="black" height="0.908" width="0.908" x="0.546" y="6.546" /><rect fill="black" height="0.467" width="0.467" x="1.7665" y="6.7665" /><rect fill="black" height="0.816" width="0.816" x="2.592" y="6.592" /><rect fill="black" height="0.675" width="0.675" x="-0.3375" y="7.6625" /><rect fill="black" height="1.0" width="1.0" x="0.5" y="7.5" /><rect fill="black" height="0.311" width="0.311" x="1.8445" y="7.8445" /><rect fill="black" height="0.998" width="0.998" x="2.501" y="7.501" /></g><g transform="translate(6,1)"><rect fill="black" height="1.0" width="1.0" x="-0.5" y="-0.5" /><rect fill="black" height="0.676" width="0.676" x="0.6619999999999999" y="-0.338" /><rect fill="black" height="0.444" width="0.444" x="1.778" y="-0.222" /><rect fill="black" height="0.606" width="0.606" x="2.697" y="-0.303" /><rect fill="black" height="0.637" width="0.637" x="-0.3185" y="0.6815" /><rect fill="black" height="0.692" width="0.692" x="0.654" y="0.654" /><rect fill="black" height="0.542" width="0.542" x="1.729" y="0.729" /><rect fill="black" height="0.75" width="0.75" x="2.625" y="0.625" /><rect fill="black" height="0.167" width="0.167" x="-0.0835" y="1.9165" /><rect fill="black" height="0.756" width="0.756" x="0.622" y="1.6219999999999999" /><rect fill="black" height="0.175" width="0.175" x="1.9125" y="1.9125" /><rect fill="black" height="0.706" width="0.706" x="2.6470000000000002" y="1.647" /><rect fill="black" height="0.323" width="0.323" x="-0.1615" y="2.8385" /><rect fill="black" height="0.792" width="0.792" x="0.604" y="2.604" /><rect fill="black" height="0.473" width="0.473" x="1.7635" y="2.7635" /><rect fill="black" height="0.693" width="0.693" x="2.6535" y="2.6535" /><rect fill="black" height="0.26" width="0.26" x="-0.13" y="3.87" /><rect fill="black" height="0.81" width="0.81" x="0.595" y="3.5949999999999998" /><rect fill="black" height="0.786" width="0.786" x="1.607" y="3.607" /><rect fill="black" height="0.618" width="0.618" x="2.691" y="3.691" /><rect fill="black" height="0.788" width="0.788" x="-0.394" y="4.606" /><rect fill="black" height="0.74" width="0.74" x="0.63" y="4.63" /><rect fill="black" height="0.777" width="0.777" x="1.6115" y="4.6115" /><rect fill="black" height="0.811" width="0.811" x="2.5945" y="4.5945" /><rect fill="black" height="0.853" width="0.853" x="-0.4265" y="5.5735" /><rect fill="black" height="0.995" width="0.995" x="0.5025" y="5.5025" /><rect fill="black" height="0.735" width="0.735" x="1.6325" y="5.6325" /><rect fill="black" height="0.847" width="0.847" x="2.5765000000000002" y="5.5765" /><rect fill="black" height="0.846" width="0.846" x="-0.423" y="6.577" /><rect fill="black" height="0.986" width="0.986" x="0.507" y="6.507" /><rect fill="black" height="0.85" width="0.85" x="1.575" y="6.575" /><rect fill="black" height="0.805" width="0.805" x="2.5975" y="6.5975" /><rect fill="black" height="0.846" width="0.846" x="-0.423" y="7.577" /><rect fill="black" height="1.0" width="1.0" x="0.5" y="7.5" /><rect fill="black" height="1.0" width="1.0" x="1.5" y="7.5" /><rect fill="black" height="1.0" width="1.0" x="2.5" y="7.5" /></g><g transform="translate(11,1)"><rect fill="black" height="0.537" width="0.537" x="-0.2685" y="-0.2685" /><rect fill="black" height="0.277" width="0.277" x="0.8614999999999999" y="-0.1385" /><rect fill="black" height="0.479" width="0.479" x="1.7605" y="-0.2395" /><rect fill="black" height="0.5" width="0.5" x="2.75" y="-0.25" /><rect fill="black" height="0.431" width="0.431" x="-0.2155" y="0.7845" /><rect fill="black" height="0.543" width="0.543" x="0.7284999999999999" y="0.7284999999999999" /><rect fill="black" height="0.637" width="0.637" x="1.6815" y="0.6815" /><rect fill="black" height="0.603" width="0.603" x="2.6985" y="0.6985" /><rect fill="black" height="0.506" width="0.506" x="-0.253" y="1.7469999999999999" /><rect fill="black" height="0.632" width="0.632" x="0.6839999999999999" y="1.684" /><rect fill="black" height="0.735" width="0.735" x="1.6325" y="1.6325" /><rect fill="black" height="0.825" width="0.825" x="2.5875" y="1.5875" /><rect fill="black" height="0.506" width="0.506" x="-0.253" y="2.747" /><rect fill="black" height="0.881" width="0.881" x="0.5595" y="2.5595" /><rect fill="black" height="0.821" width="0.821" x="1.5895000000000001" y="2.5895" /><rect fill="black" height="0.803" width="0.803" x="2.5985" y="2.5985" /><rect fill="black" height="0.544" width="0.544" x="-0.272" y="3.7279999999999998" /><rect fill="black" height="0.984" width="0.984" x="0.508" y="3.508" /><rect fill="black" height="0.887" width="0.887" x="1.5565" y="3.5564999999999998" /><rect fill="black" height="0.842" width="0.842" x="2.579" y="3.579" /><rect fill="black" height="0.787" width="0.787" x="-0.3935" y="4.6065" /><rect fill="black" height="1.0" width="1.0" x="0.5" y="4.5" /><rect fill="black" height="0.921" width="0.921" x="1.5394999999999999" y="4.5395" /><rect fill="black" height="0.726" width="0.726" x="2.637" y="4.6370000000000005" /><rect fill="black" height="0.885" width="0.885" x="-0.4425" y="5.5575" /><rect fill="black" height="0.846" width="0.846" x="0.577" y="5.577" /><rect fill="black" height="0.961" width="0.961" x="1.5195" y="5.5195" /><rect fill="black" height="0.904" width="0.904" x="2.548" y="5.548" /><rect fill="black" height="0.93" width="0.93" x="-0.465" y="6.535" /><rect fill="black" height="0.883" width="0.883" x="0.5585" y="6.5585" /><rect fill="black" height="1.0" width="1.0" x="1.5" y="6.5" /><rect fill="black" height="1.0" width="1.0" x="2.5" y="6.5" /><rect fill="black" height="1.0" width="1.0" x="-0.5" y="7.5" /><rect fill="black" height="0.822" width="0.822" x="0.589" y="7.589" /><rect fill="black" height="0.992" width="0.992" x="1.504" y="7.504" /><rect fill="black" height="0.941" width="0.941" x="2.5295" y="7.5295" /></g><g transform="translate(16,1)"><rect fill="black" height="0.492" width="0.492" x="-0.246" y="-0.246" /><rect fill="black" height="0.3" width="0.3" x="0.85" y="-0.15" /><rect fill="black" height="0.771" width="0.771" x="1.6145" y="-0.3855" /><rect fill="black" height="0.265" width="0.265" x="2.8675" y="-0.1325" /><rect fill="black" height="0.372" width="0.372" x="-0.186" y="0.8140000000000001" /><rect fill="black" height="0.431" width="0.431" x="0.7845" y="0.7845" /><rect fill="black" height="0.813" width="0.813" x="1.5935000000000001" y="0.5935" /><rect fill="black" height="0.754" width="0.754" x="2.623" y="0.623" /><rect fill="black" height="0.473" width="0.473" x="-0.2365" y="1.7635" /><rect fill="black" height="0.422" width="0.422" x="0.789" y="1.789" /><rect fill="black" height="0.917" width="0.917" x="1.5415" y="1.5415" /><rect fill="black" height="0.988" width="0.988" x="2.5060000000000002" y="1.506" /><rect fill="black" height="0.494" width="0.494" x="-0.247" y="2.753" /><rect fill="black" height="0.784" width="0.784" x="0.608" y="2.608" /><rect fill="black" height="0.888" width="0.888" x="1.556" y="2.556" /><rect fill="black" height="0.87" width="0.87" x="2.565" y="2.565" /><rect fill="black" height="0.557" width="0.557" x="-0.2785" y="3.7215" /><rect fill="black" height="1.0" width="1.0" x="0.5" y="3.5" /><rect fill="black" height="0.999" width="0.999" x="1.5005" y="3.5005" /><rect fill="black" height="1.0" width="1.0" x="2.5" y="3.5" /><rect fill="black" height="0.438" width="0.438" x="-0.219" y="4.781" /><rect fill="black" height="0.958" width="0.958" x="0.521" y="4.521" /><rect fill="black" height="1.0" width="1.0" x="1.5" y="4.5" /><rect fill="black" height="0.82" width="0.82" x="2.59" y="4.59" /><rect fill="black" height="0.742" width="0.742" x="-0.371" y="5.629" /><rect fill="black" height="0.922" width="0.922" x="0.5389999999999999" y="5.539" /><rect fill="black" height="0.893" width="0.893" x="1.5535" y="5.5535" /><rect fill="black" height="0.865" width="0.865" x="2.5675" y="5.5675" /><rect fill="black" height="0.816" width="0.816" x="-0.408" y="6.592" /><rect fill="black" height="0.856" width="0.856" x="0.5720000000000001" y="6.572" /><rect fill="black" height="0.914" width="0.914" x="1.543" y="6.543" /><rect fill="black" height="0.884" width="0.884" x="2.558" y="6.558" /><rect fill="black" height="1.0" width="1.0" x="-0.5" y="7.5" /><rect fill="black" height="0.681" width="0.681" x="0.6595" y="7.6594999999999995" /><rect fill="black" height="0.857" width="0.857" x="1.5715" y="7.5715" /><rect fill="black" height="0.71" width="0.71" x="2.645" y="7.645" /></g><g transform="translate(21,1)"><rect fill="black" height="0.433" width="0.433" x="-0.2165" y="-0.2165" /><rect fill="black" height="0.43" width="0.43" x="0.785" y="-0.215" /><rect fill="black" height="0.598" width="0.598" x="1.701" y="-0.299" /><rect fill="black" height="0.717" width="0.717" x="2.6415" y="-0.3585" /><rect fill="black" height="0.758" width="0.758" x="-0.379" y="0.621" /><rect fill="black" height="0.648" width="0.648" x="0.6759999999999999" y="0.6759999999999999" /><rect fill="black" height="0.779" width="0.779" x="1.6105" y="0.6105" /><rect fill="black" height="0.788" width="0.788" x="2.606" y="0.606" /><rect fill="black" height="0.721" width="0.721" x="-0.3605" y="1.6395" /><rect fill="black" height="0.825" width="0.825" x="0.5875" y="1.5875" /><rect fill="black" height="0.784" width="0.784" x="1.608" y="1.608" /><rect fill="black" height="0.769" width="0.769" x="2.6155" y="1.6155" /><rect fill="black" height="0.611" width="0.611" x="-0.3055" y="2.6945" /><rect fill="black" height="0.78" width="0.78" x="0.61" y="2.61" /><rect fill="black" height="0.811" width="0.811" x="1.5945" y="2.5945" /><rect fill="black" height="0.804" width="0.804" x="2.598" y="2.598" /><rect fill="black" height="0.668" width="0.668" x="-0.334" y="3.666" /><rect fill="black" height="0.642" width="0.642" x="0.679" y="3.679" /><rect fill="black" height="0.881" width="0.881" x="1.5594999999999999" y="3.5595" /><rect fill="black" height="0.941" width="0.941" x="2.5295" y="3.5295" /><rect fill="black" height="0.701" width="0.701" x="-0.3505" y="4.6495" /><rect fill="black" height="0.768" width="0.768" x="0.616" y="4.616" /><rect fill="black" height="0.9" width="0.9" x="1.55" y="4.55" /><rect fill="black" height="0.933" width="0.933" x="2.5335" y="4.5335" /><rect fill="black" height="0.845" width="0.845" x="-0.4225" y="5.5775" /><rect fill="black" height="0.823" width="0.823" x="0.5885" y="5.5885" /><rect fill="black" height="0.969" width="0.969" x="1.5155" y="5.5155" /><rect fill="black" height="0.961" width="0.961" x="2.5195" y="5.5195" /><rect fill="black" height="0.844" width="0.844" x="-0.422" y="6.578" /><rect fill="black" height="0.951" width="0.951" x="0.5245" y="6.5245" /><rect fill="black" height="0.978" width="0.978" x="1.5110000000000001" y="6.511" /><rect fill="black" height="0.961" width="0.961" x="2.5195" y="6.5195" /><rect fill="black" height="1.0" width="1.0" x="-0.5" y="7.5" /><rect fill="black" height="1.0" width="1.0" x="0.5" y="7.5" /><rect fill="black" height="1.0" width="1.0" x="1.5" y="7.5" /><rect fill="black" height="1.0" width="1.0" x="2.5" y="7.5" /></g><g transform="translate(26,1)"><rect fill="black" height="0.925" width="0.925" x="-0.4625" y="-0.4625" /><rect fill="black" height="0.581" width="0.581" x="0.7095" y="-0.2905" /><rect fill="black" height="0.341" width="0.341" x="1.8295" y="-0.1705" /><rect fill="black" height="0.304" width="0.304" x="2.848" y="-0.152" /><rect fill="black" height="1.0" width="1.0" x="-0.5" y="0.5" /><rect fill="black" height="0.707" width="0.707" x="0.6465000000000001" y="0.6465000000000001" /><rect fill="black" height="0.646" width="0.646" x="1.677" y="0.677" /><rect fill="black" height="0.762" width="0.762" x="2.6189999999999998" y="0.619" /><rect fill="black" height="0.895" width="0.895" x="-0.4475" y="1.5525" /><rect fill="black" height="0.824" width="0.824" x="0.5880000000000001" y="1.588" /><rect fill="black" height="0.534" width="0.534" x="1.733" y="1.733" /><rect fill="black" height="0.922" width="0.922" x="2.539" y="1.539" /><rect fill="black" height="0.389" width="0.389" x="-0.1945" y="2.8055" /><rect fill="black" height="0.801" width="0.801" x="0.5994999999999999" y="2.5995" /><rect fill="black" height="0.646" width="0.646" x="1.677" y="2.677" /><rect fill="black" height="0.896" width="0.896" x="2.552" y="2.552" /><rect fill="black" height="0.361" width="0.361" x="-0.1805" y="3.8195" /><rect fill="black" height="0.78" width="0.78" x="0.61" y="3.61" /><rect fill="black" height="0.665" width="0.665" x="1.6675" y="3.6675" /><rect fill="black" height="0.975" width="0.975" x="2.5125" y="3.5125" /><rect fill="black" height="0.334" width="0.334" x="-0.167" y="4.833" /><rect fill="black" height="0.774" width="0.774" x="0.613" y="4.6129999999999995" /><rect fill="black" height="0.704" width="0.704" x="1.6480000000000001" y="4.648" /><rect fill="black" height="0.941" width="0.941" x="2.5295" y="4.5295" /><rect fill="black" height="0.103" width="0.103" x="-0.0515" y="5.9485" /><rect fill="black" height="0.86" width="0.86" x="0.5700000000000001" y="5.57" /><rect fill="black" height="0.918" width="0.918" x="1.541" y="5.541" /><rect fill="black" height="0.985" width="0.985" x="2.5075" y="5.5075" /><rect fill="black" height="0.495" width="0.495" x="-0.2475" y="6.7525" /><rect fill="black" height="0.919" width="0.919" x="0.5405" y="6.5405" /><rect fill="black" height="0.936" width="0.936" x="1.532" y="6.532" /><rect fill="black" height="1.0" width="1.0" x="2.5" y="6.5" /><rect fill="black" height="0.442" width="0.442" x="-0.221" y="7.779" /><rect fill="black" height="1.0" width="1.0" x="0.5" y="7.5" /><rect fill="black" height="1.0" width="1.0" x="1.5" y="7.5" /><rect fill="black" height="0.985" width="0.985" x="2.5075" y="7.5075" /></g></svg>