<?xml version="1.0" encoding="utf-8" ?>
<svg baseProfile="full" preserveAspectRatio="xMidYMid meet" version="1.1" viewBox="0,0,52,10" xmlns="http://www.w3.org/2000/svg" xmlns:ev="http://www.w3.org/2001/xml-events" xmlns:xlink="http://www.w3.org/1999/xlink"><defs><style type="text/css"><![CDATA[
            * {
                stroke-width: 0.1;
            }
        ]]></style></defs><g transform="translate(1,1)"><rect fill="black" height="0.213" width="0.213" x="-0.1065" y="-0.1065" /><rect fill="black" height="0.176" width="0.176" x="0.912" y="-0.088" /><rect fill="black" height="0.174" width="0.174" x="1.913" y="-0.087" /><rect fill="black" height="0.055" width="0.055" x="2.9725" y="-0.0275" /><rect fill="black" height="0.129" width="0.129" x="3.9355" y="-0.0645" /><rect fill="black" height="0.242" width="0.242" x="4.879" y="-0.121" /><rect fill="black" height="0.195" width="0.195" x="5.9025" y="-0.0975" /><rect fill="black" height="0.209" width="0.209" x="6.8955" y="-0.1045" /><rect fill="black" height="0.124" width="0.124" x="7.938" y="-0.062" /><rect fill="black" height="0.967" width="0.967" x="-0.4835" y="0.5165" /><rect fill="black" height="0.379" width="0.379" x="0.8105" y="0.8105" /><rect fill="black" height="0.114" width="0.114" x="1.943" y="0.943" /><rect fill="black" height="0.246" width="0.246" x="2.877" y="0.877" /><rect fill="black" height="0.185" width="0.185" x="3.9075" y="0.9075" /><rect fill="black" height="0.498" width="0.498" x="4.751" y="0.751" /><rect fill="black" height="0.45" width="0.45" x="5.775" y="0.775" /><rect fill="black" height="0.448" width="0.448" x="6.776" y="0.776" /><rect fill="black" height="0.382" width="0.382" x="7.809" y="0.8089999999999999" /><rect fill="black" height="0.446" width="0.446" x="-0.223" y="1.777" /><rect fill="black" height="0.217" width="0.217" x="0.8915" y="1.8915" /><rect fill="black" height="0.264" width="0.264" x="1.8679999999999999" y="1.8679999999999999" /><rect fill="black" height="0.308" width="0.308" x="2.846" y="1.846" /><rect fill="black" height="0.303" width="0.303" x="3.8485" y="1.8485" /><rect fill="black" height="0.409" width="0.409" x="4.7955" y="1.7955" /><rect fill="black" height="0.384" width="0.384" x="5.808" y="1.808" /><rect fill="black" height="0.403" width="0.403" x="6.7985" y="1.7985" /><rect fill="black" height="0.368" width="0.368" x="7.816" y="1.816" /><rect fill="black" height="0.659" width="0.659" x="-0.3295" y="2.6705" /><rect fill="black" height="0.304" width="0.304" x="0.848" y="2.848" /><rect fill="black" height="0.397" width="0.397" x="1.8014999999999999" y="2.8015" /><rect fill="black" height="0.483" width="0.483" x="2.7585" y="2.7585" /><rect fill="black" height="0.498" width="0.498" x="3.751" y="2.751" /><rect fill="black" height="0.38" width="0.38" x="4.81" y="2.81" /><rect fill="black" height="0.522" width="0.522" x="5.739" y="2.739" /><rect fill="black" height="0.571" width="0.571" x="6.7145" y="2.7145" /><rect fill="black" height="0.589" width="0.589" x="7.7055" y="2.7055" /><rect fill="black" height="0.992" width="0.992" x="-0.496" y="3.504" /><rect fill="black" height="1.0" width="1.0" x="0.5" y="3.5" /><rect fill="black" height="1.0" width="1.0" x="1.5" y="3.5" /><rect fill="black" height="1.0" width="1.0" x="2.5" y="3.5" /><rect fill="black" height="1.0" width="1.0" x="3.5" y="3.5" /><rect fill="black" height="1.0" width="1.0" x="4.5" y="3.5" /><rect fill="black" height="1.0" width="1.0" x="5.5" y="3.5" /><rect fill="black" height="1.0" width="1.0" x="6.5" y="3.5" /><rect fill="black" height="1.0" width="1.0" x="7.5" y="3.5" /><rect fill="black" height="1.0" width="1.0" x="-0.5" y="4.5" /><rect fill="black" height="0.643" width="0.643" x="0.6785" y="4.6785" /><rect fill="black" height="0.607" width="0.607" x="1.6965" y="4.6965" /><rect fill="black" height="0.326" width="0.326" x="2.837" y="4.837" /><rect fill="black" height="0.28" width="0.28" x="3.86" y="4.86" /><rect fill="black" height="0.248" width="0.248" x="4.876" y="4.876" /><rect fill="black" height="0.069" width="0.069" x="5.9655" y="4.9655" /><rect fill="black" height="0.302" width="0.302" x="6.849" y="4.849" /><rect fill="black" height="0.232" width="0.232" x="7.884" y="4.884" /><rect fill="black" height="0.0" width="0.0" x="0.0" y="6.0" /><rect fill="black" height="0.0" width="0.0" x="1.0" y="6.0" /><rect fill="black" height="0.0" width="0.0" x="2.0" y="6.0" /><rect fill="black" height="0.0" width="0.0" x="3.0" y="6.0" /><rect fill="black" height="0.0" width="0.0" x="4.0" y="6.0" /><rect fill="black" height="0.0" width="0.0" x="5.0" y="6.0" /><rect fill="black" height="0.0" width="0.0" x="6.0" y="6.0" /><rect fill="black" height="0.0" width="0.0" x="7.0" y="6.0" /><rect fill="black" height="0.0" width="0.0" x="8.0" y="6.0" /><rect fill="black" height="0.0" width="0.0" x="0.0" y="7.0" /><rect fill="black" height="0.0" width="0.0" x="1.0" y="7.0" /><rect fill="black" height="0.0" width="0.0" x="2.0" y="7.0" /><rect fill="black" height="0.0" width="0.0" x="3.0" y="7.0" /><rect fill="black" height="0.0" width="0.0" x="4.0" y="7.0" /><rect fill="black" height="0.0" width="0.0" x="5.0" y="7.0" /><rect fill="black" height="0.0" width="0.0" x="6.0" y="7.0" /><rect fill="black" height="0.0" width="0.0" x="7.0" y="7.0" /><rect fill="black" height="0.0" width="0.0" x="8.0" y="7.0" /><rect fill="black" height="0.0" width="0.0" x="0.0" y="8.0" /><rect fill="black" height="0.0" width="0.0" x="1.0" y="8.0" /><rect fill="black" height="0.0" width="0.0" x="2.0" y="8.0" /><rect fill="black" height="0.0" width="0.0" x="3.0" y="8.0" /><rect fill="black" height="0.0" width="0.0" x="4.0" y="8.0" /><rect fill="black" height="0.0" width="0.0" x="5.0" y="8.0" /><rect fill="black" height="0.0" width="0.0" x="6.0" y="8.0" /><rect fill="black" height="0.0" width="0.0" x="7.0" y="8.0" /><rect fill="black" height="0.0" width="0.0" x="8.0" y="8.0" /><rect fill="black" height="0.0" width="0.0" x="0.0" y="9.0" /><rect fill="black" height="0.0" width="0.0" x="1.0" y="9.0" /><rect fill="black" height="0.0" width="0.0" x="2.0" y="9.0" /><rect fill="black" height="0.0" width="0.0" x="3.0" y="9.0" /><rect fill="black" height="0.0" width="0.0" x="4.0" y="9.0" /><rect fill="black" height="0.0" width="0.0" x="5.0" y="9.0" /><rect fill="black" height="0.0" width="0.0" x="6.0" y="9.0" /><rect fill="black" height="0.0" width="0.0" x="7.0" y="9.0" /><rect fill="black" height="0.0" width="0.0" x="8.0" y="9.0" /><rect fill="black" height="0.0" width="0.0" x="0.0" y="10.0" /><rect fill="black" height="0.0" width="0.0" x="1.0" y="10.0" /><rect fill="black" height="0.0" width="0.0" x="2.0" y="10.0" /><rect fill="black" height="0.0" width="0.0" x="3.0" y="10.0" /><rect fill="black" height="0.0" width="0.0" x="4.0" y="10.0" /><rect fill="black" height="0.0" width="0.0" x="5.0" y="10.0" /><rect fill="black" height="0.0" width="0.0" x="6.0" y="10.0" /><rect fill="black" height="0.0" width="0.0" x="7.0" y="10.0" /><rect fill="black" height="0.0" width="0.0" x="8.0" y="10.0" /><rect fill="black" height="0.0" width="0.0" x="0.0" y="11.0" /><rect fill="black" height="0.0" width="0.0" x="1.0" y="11.0" /><rect fill="black" height="0.0" width="0.0" x="2.0" y="11.0" /><rect fill="black" height="0.0" width="0.0" x="3.0" y="11.0" /><rect fill="black" height="0.0" width="0.0" x="4.0" y="11.0" /><rect fill="black" height="0.0" width="0.0" x="5.0" y="11.0" /><rect fill="black" height="0.0" width="0.0" x="6.0" y="11.0" /><rect fill="black" height="0.0" width="0.0" x="7.0" y="11.0" /><rect fill="black" height="0.0" width="0.0" x="8.0" y="11.0" /></g><g transform="translate(14,1)"><rect fill="black" height="0.818" width="0.818" x="-0.409" y="-0.409" /><rect fill="black" height="0.694" width="0.694" x="0.653" y="-0.347" /><rect fill="black" height="0.743" width="0.743" x="1.6285" y="-0.3715" /><rect fill="black" height="0.664" width="0.664" x="2.668" y="-0.332" /><rect fill="black" height="0.616" width="0.616" x="3.692" y="-0.308" /><rect fill="black" height="0.664" width="0.664" x="4.668" y="-0.332" /><rect fill="black" height="0.684" width="0.684" x="5.658" y="-0.342" /><rect fill="black" height="0.709" width="0.709" x="6.6455" y="-0.3545" /><rect fill="black" height="0.718" width="0.718" x="7.641" y="-0.359" /><rect fill="black" height="0.75" width="0.75" x="-0.375" y="0.625" /><rect fill="black" height="0.638" width="0.638" x="0.681" y="0.681" /><rect fill="black" height="0.6" width="0.6" x="1.7" y="0.7" /><rect fill="black" height="0.644" width="0.644" x="2.678" y="0.6779999999999999" /><rect fill="black" height="0.675" width="0.675" x="3.6625" y="0.6625" /><rect fill="black" height="0.624" width="0.624" x="4.688" y="0.688" /><rect fill="black" height="0.746" width="0.746" x="5.627" y="0.627" /><rect fill="black" height="0.695" width="0.695" x="6.6525" y="0.6525000000000001" /><rect fill="black" height="0.651" width="0.651" x="7.6745" y="0.6745" /><rect fill="black" height="0.359" width="0.359" x="-0.1795" y="1.8205" /><rect fill="black" height="0.559" width="0.559" x="0.7204999999999999" y="1.7205" /><rect fill="black" height="0.558" width="0.558" x="1.721" y="1.721" /><rect fill="black" height="0.782" width="0.782" x="2.609" y="1.609" /><rect fill="black" height="0.889" width="0.889" x="3.5555" y="1.5554999999999999" /><rect fill="black" height="0.908" width="0.908" x="4.546" y="1.546" /><rect fill="black" height="0.705" width="0.705" x="5.6475" y="1.6475" /><rect fill="black" height="0.689" width="0.689" x="6.6555" y="1.6555" /><rect fill="black" height="0.596" width="0.596" x="7.702" y="1.702" /><rect fill="black" height="0.362" width="0.362" x="-0.181" y="2.819" /><rect fill="black" height="0.423" width="0.423" x="0.7885" y="2.7885" /><rect fill="black" height="0.359" width="0.359" x="1.8205" y="2.8205" /><rect fill="black" height="0.658" width="0.658" x="2.671" y="2.671" /><rect fill="black" height="0.846" width="0.846" x="3.577" y="2.577" /><rect fill="black" height="0.818" width="0.818" x="4.591" y="2.591" /><rect fill="black" height="0.716" width="0.716" x="5.642" y="2.642" /><rect fill="black" height="0.628" width="0.628" x="6.686" y="2.686" /><rect fill="black" height="0.468" width="0.468" x="7.766" y="2.766" /><rect fill="black" height="0.436" width="0.436" x="-0.218" y="3.782" /><rect fill="black" height="0.532" width="0.532" x="0.734" y="3.734" /><rect fill="black" height="0.578" width="0.578" x="1.711" y="3.711" /><rect fill="black" height="0.563" width="0.563" x="2.7185" y="3.7185" /><rect fill="black" height="0.481" width="0.481" x="3.7595" y="3.7595" /><rect fill="black" height="0.573" width="0.573" x="4.7135" y="3.7135" /><rect fill="black" height="0.555" width="0.555" x="5.7225" y="3.7225" /><rect fill="black" height="0.595" width="0.595" x="6.7025" y="3.7025" /><rect fill="black" height="0.577" width="0.577" x="7.7115" y="3.7115" /><rect fill="black" height="1.0" width="1.0" x="-0.5" y="4.5" /><rect fill="black" height="1.0" width="1.0" x="0.5" y="4.5" /><rect fill="black" height="1.0" width="1.0" x="1.5" y="4.5" /><rect fill="black" height="1.0" width="1.0" x="2.5" y="4.5" /><rect fill="black" height="1.0" width="1.0" x="3.5" y="4.5" /><rect fill="black" height="1.0" width="1.0" x="4.5" y="4.5" /><rect fill="black" height="1.0" width="1.0" x="5.5" y="4.5" /><rect fill="black" height="1.0" width="1.0" x="6.5" y="4.5" /><rect fill="black" height="1.0" width="1.0" x="7.5" y="4.5" /><rect fill="black" height="0.0" width="0.0" x="0.0" y="6.0" /><rect fill="black" height="0.0" width="0.0" x="1.0" y="6.0" /><rect fill="black" height="0.0" width="0.0" x="2.0" y="6.0" /><rect fill="black" height="0.0" width="0.0" x="3.0" y="6.0" /><rect fill="black" height="0.0" width="0.0" x="4.0" y="6.0" /><rect fill="black" height="0.0" width="0.0" x="5.0" y="6.0" /><rect fill="black" height="0.0" width="0.0" x="6.0" y="6.0" /><rect fill="black" height="0.0" width="0.0" x="7.0" y="6.0" /><rect fill="black" height="0.0" width="0.0" x="8.0" y="6.0" /><rect fill="black" height="0.0" width="0.0" x="0.0" y="7.0" /><rect fill="black" height="0.0" width="0.0" x="1.0" y="7.0" /><rect fill="black" height="0.0" width="0.0" x="2.0" y="7.0" /><rect fill="black" height="0.0" width="0.0" x="3.0" y="7.0" /><rect fill="black" height="0.0" width="0.0" x="4.0" y="7.0" /><rect fill="black" height="0.0" width="0.0" x="5.0" y="7.0" /><rect fill="black" height="0.0" width="0.0" x="6.0" y="7.0" /><rect fill="black" height="0.0" width="0.0" x="7.0" y="7.0" /><rect fill="black" height="0.0" width="0.0" x="8.0" y="7.0" /><rect fill="black" height="0.0" width="0.0" x="0.0" y="8.0" /><rect fill="black" height="0.0" width="0.0" x="1.0" y="8.0" /><rect fill="black" height="0.0" width="0.0" x="2.0" y="8.0" /><rect fill="black" height="0.0" width="0.0" x="3.0" y="8.0" /><rect fill="black" height="0.0" width="0.0" x="4.0" y="8.0" /><rect fill="black" height="0.0" width="0.0" x="5.0" y="8.0" /><rect fill="black" height="0.0" width="0.0" x="6.0" y="8.0" /><rect fill="black" height="0.0" width="0.0" x="7.0" y="8.0" /><rect fill="black" height="0.0" width="0.0" x="8.0" y="8.0" /><rect fill="black" height="0.0" width="0.0" x="0.0" y="9.0" /><rect fill="black" height="0.0" width="0.0" x="1.0" y="9.0" /><rect fill="black" height="0.0" width="0.0" x="2.0" y="9.0" /><rect fill="black" height="0.0" width="0.0" x="3.0" y="9.0" /><rect fill="black" height="0.0" width="0.0" x="4.0" y="9.0" /><rect fill="black" height="0.0" width="0.0" x="5.0" y="9.0" /><rect fill="black" height="0.0" width="0.0" x="6.0" y="9.0" /><rect fill="black" height="0.0" width="0.0" x="7.0" y="9.0" /><rect fill="black" height="0.0" width="0.0" x="8.0" y="9.0" /><rect fill="black" height="0.0" width="0.0" x="0.0" y="10.0" /><rect fill="black" height="0.0" width="0.0" x="1.0" y="10.0" /><rect fill="black" height="0.0" width="0.0" x="2.0" y="10.0" /><rect fill="black" height="0.0" width="0.0" x="3.0" y="10.0" /><rect fill="black" height="0.0" width="0.0" x="4.0" y="10.0" /><rect fill="black" height="0.0" width="0.0" x="5.0" y="10.0" /><rect fill="black" height="0.0" width="0.0" x="6.0" y="10.0" /><rect fill="black" height="0.0" width="0.0" x="7.0" y="10.0" /><rect fill="black" height="0.0" width="0.0" x="8.0" y="10.0" /><rect fill="black" height="0.0" width="0.0" x="0.0" y="11.0" /><rect fill="black" height="0.0" width="0.0" x="1.0" y="11.0" /><rect fill="black" height="0.0" width="0.0" x="2.0" y="11.0" /><rect fill="black" height="0.0" width="0.0" x="3.0" y="11.0" /><rect fill="black" height="0.0" width="0.0" x="4.0" y="11.0" /><rect fill="black" height="0.0" width="0.0" x="5.0" y="11.0" /><rect fill="black" height="0.0" width="0.0" x="6.0" y="11.0" /><rect fill="black" height="0.0" width="0.0" x="7.0" y="11.0" /><rect fill="black" height="0.0" width="0.0" x="8.0" y="11.0" /></g><g transform="translate(27,1)"><rect fill="black" height="0.326" width="0.326" x="-0.163" y="-0.163" /><rect fill="black" height="0.356" width="0.356" x="0.8220000000000001" y="-0.178" /><rect fill="black" height="0.52" width="0.52" x="1.74" y="-0.26" /><rect fill="black" height="0.401" width="0.401" x="2.7995" y="-0.2005" /><rect fill="black" height="0.23" width="0.23" x="3.885" y="-0.115" /><rect fill="black" height="0.241" width="0.241" x="4.8795" y="-0.1205" /><rect fill="black" height="0.252" width="0.252" x="5.874" y="-0.126" /><rect fill="black" height="0.208" width="0.208" x="6.896" y="-0.104" /><rect fill="black" height="0.139" width="0.139" x="7.9305" y="-0.0695" /><rect fill="black" height="0.401" width="0.401" x="-0.2005" y="0.7995" /><rect fill="black" height="0.377" width="0.377" x="0.8115" y="0.8115" /><rect fill="black" height="0.131" width="0.131" x="1.9344999999999999" y="0.9345" /><rect fill="black" height="0.321" width="0.321" x="2.8395" y="0.8395" /><rect fill="black" height="0.476" width="0.476" x="3.762" y="0.762" /><rect fill="black" height="0.462" width="0.462" x="4.769" y="0.769" /><rect fill="black" height="0.41" width="0.41" x="5.795" y="0.795" /><rect fill="black" height="0.465" width="0.465" x="6.7675" y="0.7675" /><rect fill="black" height="0.53" width="0.53" x="7.735" y="0.735" /><rect fill="black" height="0.322" width="0.322" x="-0.161" y="1.839" /><rect fill="black" height="0.328" width="0.328" x="0.836" y="1.836" /><rect fill="black" height="0.372" width="0.372" x="1.814" y="1.814" /><rect fill="black" height="0.4" width="0.4" x="2.8" y="1.8" /><rect fill="black" height="0.398" width="0.398" x="3.801" y="1.801" /><rect fill="black" height="0.404" width="0.404" x="4.798" y="1.798" /><rect fill="black" height="0.393" width="0.393" x="5.8035" y="1.8035" /><rect fill="black" height="0.404" width="0.404" x="6.798" y="1.798" /><rect fill="black" height="0.393" width="0.393" x="7.8035" y="1.8035" /><rect fill="black" height="0.896" width="0.896" x="-0.448" y="2.552" /><rect fill="black" height="0.736" width="0.736" x="0.632" y="2.632" /><rect fill="black" height="0.82" width="0.82" x="1.59" y="2.59" /><rect fill="black" height="0.77" width="0.77" x="2.615" y="2.615" /><rect fill="black" height="0.795" width="0.795" x="3.6025" y="2.6025" /><rect fill="black" height="0.781" width="0.781" x="4.6095" y="2.6095" /><rect fill="black" height="0.656" width="0.656" x="5.672" y="2.672" /><rect fill="black" height="0.664" width="0.664" x="6.668" y="2.668" /><rect fill="black" height="0.613" width="0.613" x="7.6935" y="2.6935000000000002" /><rect fill="black" height="1.0" width="1.0" x="-0.5" y="3.5" /><rect fill="black" height="1.0" width="1.0" x="0.5" y="3.5" /><rect fill="black" height="1.0" width="1.0" x="1.5" y="3.5" /><rect fill="black" height="1.0" width="1.0" x="2.5" y="3.5" /><rect fill="black" height="1.0" width="1.0" x="3.5" y="3.5" /><rect fill="black" height="1.0" width="1.0" x="4.5" y="3.5" /><rect fill="black" height="1.0" width="1.0" x="5.5" y="3.5" /><rect fill="black" height="1.0" width="1.0" x="6.5" y="3.5" /><rect fill="black" height="1.0" width="1.0" x="7.5" y="3.5" /><rect fill="black" height="0.472" width="0.472" x="-0.236" y="4.764" /><rect fill="black" height="0.669" width="0.669" x="0.6655" y="4.6655" /><rect fill="black" height="0.557" width="0.557" x="1.7215" y="4.7215" /><rect fill="black" height="0.645" width="0.645" x="2.6775" y="4.6775" /><rect fill="black" height="0.613" width="0.613" x="3.6935000000000002" y="4.6935" /><rect fill="black" height="0.634" width="0.634" x="4.683" y="4.683" /><rect fill="black" height="0.758" width="0.758" x="5.621" y="4.621" /><rect fill="black" height="0.765" width="0.765" x="6.6175" y="4.6175" /><rect fill="black" height="0.797" width="0.797" x="7.6015" y="4.6015" /><rect fill="black" height="0.0" width="0.0" x="0.0" y="6.0" /><rect fill="black" height="0.0" width="0.0" x="1.0" y="6.0" /><rect fill="black" height="0.0" width="0.0" x="2.0" y="6.0" /><rect fill="black" height="0.0" width="0.0" x="3.0" y="6.0" /><rect fill="black" height="0.0" width="0.0" x="4.0" y="6.0" /><rect fill="black" height="0.0" width="0.0" x="5.0" y="6.0" /><rect fill="black" height="0.0" width="0.0" x="6.0" y="6.0" /><rect fill="black" height="0.0" width="0.0" x="7.0" y="6.0" /><rect fill="black" height="0.0" width="0.0" x="8.0" y="6.0" /><rect fill="black" height="0.0" width="0.0" x="0.0" y="7.0" /><rect fill="black" height="0.0" width="0.0" x="1.0" y="7.0" /><rect fill="black" height="0.0" width="0.0" x="2.0" y="7.0" /><rect fill="black" height="0.0" width="0.0" x="3.0" y="7.0" /><rect fill="black" height="0.0" width="0.0" x="4.0" y="7.0" /><rect fill="black" height="0.0" width="0.0" x="5.0" y="7.0" /><rect fill="black" height="0.0" width="0.0" x="6.0" y="7.0" /><rect fill="black" height="0.0" width="0.0" x="7.0" y="7.0" /><rect fill="black" height="0.0" width="0.0" x="8.0" y="7.0" /><rect fill="black" height="0.0" width="0.0" x="0.0" y="8.0" /><rect fill="black" height="0.0" width="0.0" x="1.0" y="8.0" /><rect fill="black" height="0.0" width="0.0" x="2.0" y="8.0" /><rect fill="black" height="0.0" width="0.0" x="3.0" y="8.0" /><rect fill="black" height="0.0" width="0.0" x="4.0" y="8.0" /><rect fill="black" height="0.0" width="0.0" x="5.0" y="8.0" /><rect fill="black" height="0.0" width="0.0" x="6.0" y="8.0" /><rect fill="black" height="0.0" width="0.0" x="7.0" y="8.0" /><rect fill="black" height="0.0" width="0.0" x="8.0" y="8.0" /><rect fill="black" height="0.0" width="0.0" x="0.0" y="9.0" /><rect fill="black" height="0.0" width="0.0" x="1.0" y="9.0" /><rect fill="black" height="0.0" width="0.0" x="2.0" y="9.0" /><rect fill="black" height="0.0" width="0.0" x="3.0" y="9.0" /><rect fill="black" height="0.0" width="0.0" x="4.0" y="9.0" /><rect fill="black" height="0.0" width="0.0" x="5.0" y="9.0" /><rect fill="black" height="0.0" width="0.0" x="6.0" y="9.0" /><rect fill="black" height="0.0" width="0.0" x="7.0" y="9.0" /><rect fill="black" height="0.0" width="0.0" x="8.0" y="9.0" /><rect fill="black" height="0.0" width="0.0" x="0.0" y="10.0" /><rect fill="black" height="0.0" width="0.0" x="1.0" y="10.0" /><rect fill="black" height="0.0" width="0.0" x="2.0" y="10.0" /><rect fill="black" height="0.0" width="0.0" x="3.0" y="10.0" /><rect fill="black" height="0.0" width="0.0" x="4.0" y="10.0" /><rect fill="black" height="0.0" width="0.0" x="5.0" y="10.0" /><rect fill="black" height="0.0" width="0.0" x="6.0" y="10.0" /><rect fill="black" height="0.0" width="0.0" x="7.0" y="10.0" /><rect fill="black" height="0.0" width="0.0" x="8.0" y="10.0" /><rect fill="black" height="0.0" width="0.0" x="0.0" y="11.0" /><rect fill="black" height="0.0" width="0.0" x="1.0" y="11.0" /><rect fill="black" height="0.0" width="0.0" x="2.0" y="11.0" /><rect fill="black" height="0.0" width="0.0" x="3.0" y="11.0" /><rect fill="black" height="0.0" width="0.0" x="4.0" y="11.0" /><rect fill="black" height="0.0" width="0.0" x="5.0" y="11.0" /><rect fill="black" height="0.0" width="0.0" x="6.0" y="11.0" /><rect fill="black" height="0.0" width="0.0" x="7.0" y="11.0" /><rect fill="black" height="0.0" width="0.0" x="8.0" y="11.0" /></g><g transform="translate(40,1)"><rect fill="black" height="0.546" width="0.546" x="-0.273" y="-0.273" /><rect fill="black" height="0.844" width="0.844" x="0.5780000000000001" y="-0.422" /><rect fill="black" height="0.562" width="0.562" x="1.7189999999999999" y="-0.281" /><rect fill="black" height="0.6" width="0.6" x="2.7" y="-0.3" /><rect fill="black" height="0.644" width="0.644" x="3.678" y="-0.322" /><rect fill="black" height="0.664" width="0.664" x="4.668" y="-0.332" /><rect fill="black" height="0.638" width="0.638" x="5.681" y="-0.319" /><rect fill="black" height="0.566" width="0.566" x="6.717" y="-0.283" /><rect fill="black" height="0.675" width="0.675" x="7.6625" y="-0.3375" /><rect fill="black" height="0.608" width="0.608" x="-0.304" y="0.696" /><rect fill="black" height="0.679" width="0.679" x="0.6605" y="0.6605" /><rect fill="black" height="0.561" width="0.561" x="1.7195" y="0.7195" /><rect fill="black" height="0.567" width="0.567" x="2.7165" y="0.7165" /><rect fill="black" height="0.47" width="0.47" x="3.765" y="0.765" /><rect fill="black" height="0.624" width="0.624" x="4.688" y="0.688" /><rect fill="black" height="0.625" width="0.625" x="5.6875" y="0.6875" /><rect fill="black" height="0.587" width="0.587" x="6.7065" y="0.7065" /><rect fill="black" height="0.711" width="0.711" x="7.6445" y="0.6445000000000001" /><rect fill="black" height="0.469" width="0.469" x="-0.2345" y="1.7655" /><rect fill="black" height="0.512" width="0.512" x="0.744" y="1.744" /><rect fill="black" height="0.599" width="0.599" x="1.7005" y="1.7005" /><rect fill="black" height="0.6" width="0.6" x="2.7" y="1.7" /><rect fill="black" height="0.58" width="0.58" x="3.71" y="1.71" /><rect fill="black" height="0.52" width="0.52" x="4.74" y="1.74" /><rect fill="black" height="0.613" width="0.613" x="5.6935" y="1.6935" /><rect fill="black" height="0.664" width="0.664" x="6.668" y="1.668" /><rect fill="black" height="0.62" width="0.62" x="7.69" y="1.69" /><rect fill="black" height="0.271" width="0.271" x="-0.1355" y="2.8645" /><rect fill="black" height="0.657" width="0.657" x="0.6715" y="2.6715" /><rect fill="black" height="0.739" width="0.739" x="1.6305" y="2.6305" /><rect fill="black" height="0.675" width="0.675" x="2.6625" y="2.6625" /><rect fill="black" height="0.71" width="0.71" x="3.645" y="2.645" /><rect fill="black" height="0.607" width="0.607" x="4.6965" y="2.6965" /><rect fill="black" height="0.614" width="0.614" x="5.693" y="2.693" /><rect fill="black" height="0.618" width="0.618" x="6.691" y="2.691" /><rect fill="black" height="0.497" width="0.497" x="7.7515" y="2.7515" /><rect fill="black" height="1.0" width="1.0" x="-0.5" y="3.5" /><rect fill="black" height="1.0" width="1.0" x="0.5" y="3.5" /><rect fill="black" height="0.855" width="0.855" x="1.5725" y="3.5725" /><rect fill="black" height="0.915" width="0.915" x="2.5425" y="3.5425" /><rect fill="black" height="0.979" width="0.979" x="3.5105" y="3.5105" /><rect fill="black" height="1.0" width="1.0" x="4.5" y="3.5" /><rect fill="black" height="0.989" width="0.989" x="5.5055" y="3.5055" /><rect fill="black" height="0.975" width="0.975" x="6.5125" y="3.5125" /><rect fill="black" height="1.0" width="1.0" x="7.5" y="3.5" /><rect fill="black" height="0.444" width="0.444" x="-0.222" y="4.778" /><rect fill="black" height="0.958" width="0.958" x="0.521" y="4.521" /><rect fill="black" height="1.0" width="1.0" x="1.5" y="4.5" /><rect fill="black" height="1.0" width="1.0" x="2.5" y="4.5" /><rect fill="black" height="1.0" width="1.0" x="3.5" y="4.5" /><rect fill="black" height="0.996" width="0.996" x="4.502" y="4.502" /><rect fill="black" height="1.0" width="1.0" x="5.5" y="4.5" /><rect fill="black" height="1.0" width="1.0" x="6.5" y="4.5" /><rect fill="black" height="0.974" width="0.974" x="7.513" y="4.513" /><rect fill="black" height="0.0" width="0.0" x="0.0" y="6.0" /><rect fill="black" height="0.0" width="0.0" x="1.0" y="6.0" /><rect fill="black" height="0.0" width="0.0" x="2.0" y="6.0" /><rect fill="black" height="0.0" width="0.0" x="3.0" y="6.0" /><rect fill="black" height="0.0" width="0.0" x="4.0" y="6.0" /><rect fill="black" height="0.0" width="0.0" x="5.0" y="6.0" /><rect fill="black" height="0.0" width="0.0" x="6.0" y="6.0" /><rect fill="black" height="0.0" width="0.0" x="7.0" y="6.0" /><rect fill="black" height="0.0" width="0.0" x="8.0" y="6.0" /><rect fill="black" height="0.0" width="0.0" x="0.0" y="7.0" /><rect fill="black" height="0.0" width="0.0" x="1.0" y="7.0" /><rect fill="black" height="0.0" width="0.0" x="2.0" y="7.0" /><rect fill="black" height="0.0" width="0.0" x="3.0" y="7.0" /><rect fill="black" height="0.0" width="0.0" x="4.0" y="7.0" /><rect fill="black" height="0.0" width="0.0" x="5.0" y="7.0" /><rect fill="black" height="0.0" width="0.0" x="6.0" y="7.0" /><rect fill="black" height="0.0" width="0.0" x="7.0" y="7.0" /><rect fill="black" height="0.0" width="0.0" x="8.0" y="7.0" /><rect fill="black" height="0.0" width="0.0" x="0.0" y="8.0" /><rect fill="black" height="0.0" width="0.0" x="1.0" y="8.0" /><rect fill="black" height="0.0" width="0.0" x="2.0" y="8.0" /><rect fill="black" height="0.0" width="0.0" x="3.0" y="8.0" /><rect fill="black" height="0.0" width="0.0" x="4.0" y="8.0" /><rect fill="black" height="0.0" width="0.0" x="5.0" y="8.0" /><rect fill="black" height="0.0" width="0.0" x="6.0" y="8.0" /><rect fill="black" height="0.0" width="0.0" x="7.0" y="8.0" /><rect fill="black" height="0.0" width="0.0" x="8.0" y="8.0" /><rect fill="black" height="0.0" width="0.0" x="0.0" y="9.0" /><rect fill="black" height="0.0" width="0.0" x="1.0" y="9.0" /><rect fill="black" height="0.0" width="0.0" x="2.0" y="9.0" /><rect fill="black" height="0.0" width="0.0" x="3.0" y="9.0" /><rect fill="black" height="0.0" width="0.0" x="4.0" y="9.0" /><rect fill="black" height="0.0" width="0.0" x="5.0" y="9.0" /><rect fill="black" height="0.0" width="0.0" x="6.0" y="9.0" /><rect fill="black" height="0.0" width="0.0" x="7.0" y="9.0" /><rect fill="black" height="0.0" width="0.0" x="8.0" y="9.0" /><rect fill="black" height="0.196" width="0.196" x="-0.098" y="9.902" /><rect fill="black" height="0.447" width="0.447" x="0.7765" y="9.7765" /><rect fill="black" height="0.149" width="0.149" x="1.9255" y="9.9255" /><rect fill="black" height="0.314" width="0.314" x="2.843" y="9.843" /><rect fill="black" height="0.472" width="0.472" x="3.7640000000000002" y="9.764" /><rect fill="black" height="0.5" width="0.5" x="4.75" y="9.75" /><rect fill="black" height="0.39" width="0.39" x="5.805" y="9.805" /><rect fill="black" height="0.432" width="0.432" x="6.784" y="9.784" /><rect fill="black" height="0.267" width="0.267" x="7.8665" y="9.8665" /><rect fill="black" height="0.0" width="0.0" x="0.0" y="11.0" /><rect fill="black" height="0.0" width="0.0" x="1.0" y="11.0" /><rect fill="black" height="0.0" width="0.0" x="2.0" y="11.0" /><rect fill="black" height="0.0" width="0.0" x="3.0" y="11.0" /><rect fill="black" height="0.0" width="0.0" x="4.0" y="11.0" /><rect fill="black" height="0.0" width="0.0" x="5.0" y="11.0" /><rect fill="black" height="0.0" width="0.0" x="6.0" y="11.0" /><rect fill="black" height="0.0" width="0.0" x="7.0" y="11.0" /><rect fill="black" height="0.0" width="0.0" x="8.0" y="11.0" /></g></svg>