<?xml version="1.0" encoding="utf-8" ?>
<svg baseProfile="full" preserveAspectRatio="xMidYMid meet" version="1.1" viewBox="0,0,34,11" xmlns="http://www.w3.org/2000/svg" xmlns:ev="http://www.w3.org/2001/xml-events" xmlns:xlink="http://www.w3.org/1999/xlink"><defs><style type="text/css"><![CDATA[
            * {
                stroke-width: 0.1;
            }
        ]]></style></defs><g transform="translate(1,1)"><rect fill="black" height="0.16" width="0.16" x="-0.08" y="-0.08" /><rect fill="black" height="0.167" width="0.167" x="0.9165" y="-0.0835" /><rect fill="black" height="0.172" width="0.172" x="1.914" y="-0.086" /><rect fill="black" height="0.18" width="0.18" x="2.91" y="-0.09" /><rect fill="black" height="0.193" width="0.193" x="3.9035" y="-0.0965" /><rect fill="black" height="0.198" width="0.198" x="4.901" y="-0.099" /><rect fill="black" height="0.203" width="0.203" x="5.8985" y="-0.1015" /><rect fill="black" height="0.194" width="0.194" x="6.903" y="-0.097" /><rect fill="black" height="0.183" width="0.183" x="7.9085" y="-0.0915" /><rect fill="black" height="0.203" width="0.203" x="8.8985" y="-0.1015" /><rect fill="black" height="0.2" width="0.2" x="9.9" y="-0.1" /><rect fill="black" height="0.208" width="0.208" x="10.896" y="-0.104" /><rect fill="black" height="0.202" width="0.202" x="11.899" y="-0.101" /><rect fill="black" height="0.21" width="0.21" x="12.895" y="-0.105" /><rect fill="black" height="0.207" width="0.207" x="13.8965" y="-0.1035" /><rect fill="black" height="0.229" width="0.229" x="14.8855" y="-0.1145" /><rect fill="black" height="0.24" width="0.24" x="15.88" y="-0.12" /><rect fill="black" height="0.238" width="0.238" x="16.881" y="-0.119" /><rect fill="black" height="0.263" width="0.263" x="17.8685" y="-0.1315" /><rect fill="black" height="0.285" width="0.285" x="18.8575" y="-0.1425" /><rect fill="black" height="0.326" width="0.326" x="19.837" y="-0.163" /><rect fill="black" height="0.361" width="0.361" x="20.8195" y="-0.1805" /><rect fill="black" height="0.427" width="0.427" x="21.7865" y="-0.2135" /><rect fill="black" height="0.473" width="0.473" x="22.7635" y="-0.2365" /><rect fill="black" height="0.507" width="0.507" x="23.7465" y="-0.2535" /><rect fill="black" height="0.537" width="0.537" x="-0.2685" y="0.7315" /><rect fill="black" height="0.523" width="0.523" x="0.7384999999999999" y="0.7384999999999999" /><rect fill="black" height="0.538" width="0.538" x="1.7309999999999999" y="0.731" /><rect fill="black" height="0.529" width="0.529" x="2.7355" y="0.7355" /><rect fill="black" height="0.538" width="0.538" x="3.731" y="0.731" /><rect fill="black" height="0.529" width="0.529" x="4.7355" y="0.7355" /><rect fill="black" height="0.557" width="0.557" x="5.7215" y="0.7215" /><rect fill="black" height="0.615" width="0.615" x="6.6925" y="0.6925" /><rect fill="black" height="0.604" width="0.604" x="7.698" y="0.698" /><rect fill="black" height="0.669" width="0.669" x="8.6655" y="0.6655" /><rect fill="black" height="0.72" width="0.72" x="9.64" y="0.64" /><rect fill="black" height="0.715" width="0.715" x="10.6425" y="0.6425000000000001" /><rect fill="black" height="0.77" width="0.77" x="11.615" y="0.615" /><rect fill="black" height="0.802" width="0.802" x="12.599" y="0.599" /><rect fill="black" height="0.824" width="0.824" x="13.588" y="0.5880000000000001" /><rect fill="black" height="0.778" width="0.778" x="14.611" y="0.611" /><rect fill="black" height="0.831" width="0.831" x="15.5845" y="0.5845" /><rect fill="black" height="0.845" width="0.845" x="16.5775" y="0.5775" /><rect fill="black" height="0.892" width="0.892" x="17.554" y="0.554" /><rect fill="black" height="0.877" width="0.877" x="18.5615" y="0.5615" /><rect fill="black" height="0.924" width="0.924" x="19.538" y="0.538" /><rect fill="black" height="0.932" width="0.932" x="20.534" y="0.534" /><rect fill="black" height="0.955" width="0.955" x="21.5225" y="0.5225" /><rect fill="black" height="0.951" width="0.951" x="22.5245" y="0.5245" /><rect fill="black" height="1.0" width="1.0" x="23.5" y="0.5" /></g></svg>