<?xml version="1.0" encoding="UTF-8" standalone="no"?>
<svg
   width="409.24356"
   height="161.77942"
   id="svg2474"
   version="1.0"
   sodipodi:docname="Schriftzug_Antiqua.svg"
   inkscape:version="1.3 (0e150ed6c4, 2023-07-21)"
   xmlns:inkscape="http://www.inkscape.org/namespaces/inkscape"
   xmlns:sodipodi="http://sodipodi.sourceforge.net/DTD/sodipodi-0.dtd"
   xmlns="http://www.w3.org/2000/svg"
   xmlns:svg="http://www.w3.org/2000/svg"
   xmlns:rdf="http://www.w3.org/1999/02/22-rdf-syntax-ns#"
   xmlns:cc="http://creativecommons.org/ns#"
   xmlns:dc="http://purl.org/dc/elements/1.1/">
  <sodipodi:namedview
     id="namedview1"
     pagecolor="#ffffff"
     bordercolor="#000000"
     borderopacity="0.25"
     inkscape:showpageshadow="2"
     inkscape:pageopacity="0.0"
     inkscape:pagecheckerboard="0"
     inkscape:deskcolor="#d1d1d1"
     inkscape:zoom="2.7153285"
     inkscape:cx="204.39516"
     inkscape:cy="80.469086"
     inkscape:window-width="1920"
     inkscape:window-height="1007"
     inkscape:window-x="-9"
     inkscape:window-y="-9"
     inkscape:window-maximized="1"
     inkscape:current-layer="svg2474" />
  <defs
     id="defs3" />
  <metadata
     id="metadata4">
    <rdf:RDF>
      <cc:Work
         rdf:about="">
        <dc:format>image/svg+xml</dc:format>
        <dc:type
           rdf:resource="http://purl.org/dc/dcmitype/StillImage" />
      </cc:Work>
    </rdf:RDF>
  </metadata>
  <path
     d="m 252.29216,160.51551 c 0,-0.91541 1.05655,-2.65539 2.34789,-3.86663 1.29134,-1.21124 2.86634,-3.18517 3.5,-4.38651 1.281,-2.42862 1.56404,-27.43874 0.49348,-43.60581 l -0.64828,-9.790073 -2.59655,2.437673 c -6.00868,5.64105 -13.62925,7.91123 -19.30842,5.75201 -2.73322,-1.03916 -7.93901,-5.73251 -9.54958,-8.609543 -1.06747,-1.90686 -1.3203,-1.80929 -5.42908,2.095293 -5.25176,4.99075 -9.44657,6.75154 -14.4713,6.07439 -4.08311,-0.55025 -8.33816,-4.40757 -8.33816,-7.558783 0,-3.3276 -1.26845,-3.05488 -6.13276,1.318563 -10.55274,9.48782 -21.58583,7.73726 -24.76581,-3.929463 -0.59965,-2.2 -1.09279,-11.74667 -1.09585,-21.21482 -0.005,-16.35189 -0.10877,-17.27004 -2.06423,-18.31657 -1.13226,-0.60597 -3.38226,-0.81104 -5,-0.45573 l -2.94135,0.64603 -0.0669,8.67055 c -0.0368,4.76879 -0.2785,13.09366 -0.53711,18.49969 l -0.47021,9.82915 4.27733,-0.30884 c 6.39685,-0.46186 6.21962,2.02063 -0.62108,8.699343 -4.6982,4.58696 -6.17783,5.46036 -9.33272,5.50896 -2.06212,0.0318 -6.33681,0.28802 -9.49931,0.56947 -6.90912,0.61487 -7.4512,-0.69148 -2.75,-6.62723 l 3,-3.787813 -0.0564,-17.35609 c -0.0663,-20.38558 -0.8266,-23.65496 -5.89491,-25.34852 -4.62008,-1.54379 -7.81676,-0.79046 -9.85962,2.32352 -1.35307,2.06252 -1.75624,5.59775 -2.02691,17.77329 -0.38056,17.11788 0.19171,19.39561 4.87306,19.39561 3.635,0 3.6755,0.67366 0.33638,5.594133 -4.93091,7.2661 -10.14031,9.75762 -18.43875,8.81876 -7.31146,-0.8272 -8.87858,-1.73176 -7.16271,-4.13442 4.00004,-5.601063 4.48924,-8.446283 3.993,-23.223213 l -0.48512,-14.44474 -3.88901,-3.31278 -3.889011,-3.31278 5.000001,-4.47937 c 7.23744,-6.48384 18.14571,-13.84259 19.38462,-13.0769 0.66025,0.40806 0.82484,2.41188 0.43294,5.27108 -0.52225,3.81023 -0.38739,4.46259 0.7751,3.74964 2.72762,-1.67282 7.45497,-4.98005 11.00555,-7.69941 2.79457,-2.14035 4.6781,-2.74917 8.49618,-2.74626 6.71165,0.005 10.65763,2.55637 12.2682,7.93196 0.89352,2.98229 1.60646,3.94372 2.44894,3.30247 0.65366,-0.49753 5.72327,-4.57965 11.26581,-9.07138 5.54254,-4.49174 10.82472,-8.16679 11.73819,-8.16679 1.15675,0 1.84977,1.18153 2.28333,3.89288 l 0.6225,3.89289 7.26048,0.68036 c 3.99327,0.3742 10.40956,0.37006 14.25842,-0.009 4.86565,-0.47945 7.21443,-0.33926 7.70846,0.46008 0.39078,0.63231 0.66724,10.78518 0.61435,22.56194 -0.0943,20.9834 -0.0511,21.45431 2.15585,23.51036 1.34106,1.2494 3.26916,1.97928 4.76655,1.80438 l 2.51453,-0.29389 0.5,-14.5 c 0.37752,-10.94819 0.88456,-15.04268 2.06994,-16.71543 3.96388,-5.59367 21.59451,-18.54568 27.44307,-20.16055 2.57429,-0.7108 5.01779,-0.61388 8.71732,0.34577 4.46447,1.15807 5.44887,1.13129 7.48624,-0.20365 1.29022,-0.84538 2.49967,-1.3636 2.68769,-1.1516 1.0336,1.16549 2.62846,48.82557 2.52264,75.385463 -0.0416,10.45 -0.0393,20.10925 0.005,21.46501 0.11466,3.48964 -1.86786,9.02313 -3.25974,9.09838 -0.64485,0.0349 -0.27245,0.40261 0.82755,0.81722 2.39414,0.9024 11.28942,0.66827 13.75,-0.36191 3.98428,-1.66811 1.3946,2.35569 -5.31743,8.26212 l -7.06743,6.21918 -8.18257,0.0136 c -4.50041,0.008 -9.19507,0.285 -10.43257,0.61664 -1.67362,0.44851 -2.25,0.17661 -2.25,-1.06141 z m 5.63761,-77.318883 c -1.08306,-17.55892 -1.79668,-23.67439 -2.92497,-25.06594 -1.92128,-2.36958 -6.53718,-4.18406 -10.64393,-4.18406 -3.50876,0 -4.11526,0.33731 -4.68449,2.6053 -1.21267,4.83163 0.23617,24.62998 2.07792,28.3947 2.52627,5.16398 8.00294,9 12.84923,9 h 3.98931 z m -61.66323,8.78699 c 1.17798,-0.74494 1.55267,-4.34615 1.86376,-17.91322 l 0.38937,-16.98084 -7.36376,0.38278 -7.36375,0.38278 -0.57068,6.79575 c -1.21663,14.48795 0.30937,25.16513 3.89569,27.25764 2.13435,1.24533 7.23272,1.28718 9.14937,0.0751 z m 128.12117,16.673603 c -1.36959,-0.65736 -3.33072,-3.25287 -4.55658,-6.03052 l -2.15212,-4.876463 -2.94342,2.413383 c -11.37152,9.32377 -20.07962,9.50846 -26.75505,0.56744 -2.28638,-3.062363 -3.55484,-13.180753 -3.63446,-28.991803 l -0.0539,-10.70737 -3.49997,-2.79263 c -3.8978,-3.11006 -4.34995,-4.90474 -1.75003,-6.94634 5.51308,-4.32917 18.20409,-12.34629 19.54403,-12.34629 2.31522,0 2.78117,2.58032 2.64271,14.63464 -0.13715,11.94092 0.78432,29.72552 1.70286,32.86536 1.61646,5.52554 8.58933,9.33894 11.23887,6.14643 1.28736,-1.55117 1.31103,-1.84763 1.48906,-18.64643 l 0.13247,-12.5 -3.08333,-3.73529 c -1.69584,-2.0544 -3.08334,-4.42415 -3.08334,-5.2661 0,-2.30926 17.41417,-15.49861 20.46312,-15.49861 1.37889,0 3.19533,17.14684 2.04428,19.2976 -1.09595,2.04779 -0.16429,17.96607 1.72697,29.50717 0.86632,5.28656 4.28613,10.59155 7.08987,10.99817 1.83002,0.2654 2.07604,-0.1851 1.98556,-3.63585 -0.13251,-5.05355 1.75329,-8.50932 6.25977,-11.47119 10.43403,-6.85772 15.26854,-9.87517 21.89214,-13.66392 6.24929,-3.57463 7.19984,-4.47277 6.63091,-6.26529 -2.88902,-9.10248 -5.57711,-11.21162 -15.6518,-12.28076 -6.30476,-0.66906 -7.109,-0.51435 -12.8456,2.47123 -3.36586,1.75174 -6.37396,2.93076 -6.68468,2.62004 -1.42133,-1.42133 6.60377,-7.77951 17.40385,-13.78885 5.27012,-2.93237 6.58562,-3.23773 13.22427,-3.06962 8.78887,0.22255 15.66543,3.15447 18.32617,7.81361 0.95243,1.66778 2.44851,5.94278 3.32463,9.5 0.87611,3.55721 1.86941,7.14266 2.20733,7.96766 0.33792,0.825 0.66488,7.35 0.72658,14.5 0.1397,16.18748 0.776,17.70398 7.06654,16.84176 5.19946,-0.71267 5.58155,0.13458 2.38973,5.29905 -5.52427,8.938463 -20.35174,11.275893 -23.78126,3.748923 -1.4882,-3.26624 -4.34298,-3.02847 -9.9491,0.82864 -3.76202,2.58834 -5.91024,3.29685 -10.97363,3.61926 -7.47695,0.4761 -14.16224,-1.69146 -17.22469,-5.58473 l -2.03721,-2.589893 -2.94689,2.178733 c -2.89486,2.14026 -12.8903,8.22328 -13.2942,8.09058 -0.11329,-0.0372 -1.28799,-0.587 -2.61044,-1.22173 z m 53.46526,-19.104323 c 3.5185,-5.29925 3.56897,-5.51822 2.881,-12.5 -0.38513,-3.90845 -1.01582,-7.10627 -1.40154,-7.10627 -1.3926,0 -9.64667,4.57366 -14.29233,7.91952 -3.69494,2.66114 -4.74794,4.03283 -4.74794,6.1849 0,6.06863 2.41141,8.66368 9.5,10.22349 4.01868,0.88429 4.54235,0.57754 8.06081,-4.72164 z M 69.292159,108.2153 c -4.97955,-0.58511 -5.39424,-1.45072 -2.94559,-6.14856 2.32346,-4.457663 2.26051,-5.418153 -0.9254,-14.120113 -4.1195,-11.25194 -9.26657,-25.55587 -9.80553,-27.25 -0.75174,-2.36292 -1.54545,-2.21004 -4.39917,0.84732 -3.58739,3.84339 -9.27227,6.40268 -14.22212,6.40268 h -4.37749 l -3.22789,6.75 c -1.77534,3.7125 -4.7734,8.93836 -6.66235,11.61301 -1.88895,2.67466 -3.43446,5.26216 -3.43446,5.75 0,1.33184 9.73848,1.06726 11.96809,-0.32516 4.77121,-2.97966 3.61789,3.45089 -1.66832,9.302103 -5.49081,6.07767 -7.41277,6.74205 -18.62128,6.43696 -5.40037,-0.147 -10.26179004,-0.71021 -10.80317004,-1.25159 -0.64576,-0.64576 0.58247,-2.81985 3.57089004,-6.320883 2.50537,-2.93511 6.33462,-8.28809 8.50944,-11.8955 6.13317,-10.17318 19.93405,-53.48621 22.72125,-71.30894 0.57032,-3.64694 0.502,-3.75 -2.48621,-3.75 -1.68996,0 -3.35346,-0.45434 -3.69666,-1.00966 -0.8515,-1.37775 2.79396,-5.8201001 7.29463,-8.8892201 3.38911,-2.31111998 4.81876,-2.56588998 16.46622,-2.93437998 8.89871,-0.28153 13.18667,-0.0452 14.18309,0.78178 1.5372,1.27575998 1.7155,0.98596998 -4.97925,8.09275998 -1.90612,2.0234401 -2.54735,3.5533001 -2.16556,5.1666701 2.20912,9.33542 5.04982,18.94368 8.51243,28.79205 2.22382,6.325 5.22537,14.875 6.67011,19 1.44475,4.125 3.21278,8.85 3.92895,10.5 0.71618,1.65 2.58492,6.15 4.15276,10 4.47991,11.00089 4.79048,11.32691 11.51484,12.08768 8.336211,0.94314 9.226011,2.48988 4.33718,7.539313 -5.83316,6.02478 -8.11856,6.89599 -17.60977,6.71297 -4.56481,-0.088 -9.87466,-0.3451 -11.79966,-0.57129 z m -17.4309,-56.380473 c 0.37792,-0.6115 0.29198,-1.399 -0.19098,-1.75 -0.48297,-0.35101 -0.95395,-1.0882 -1.04663,-1.6382 -0.09269,-0.55 -1.27692,-4.28903 -2.63163,-8.30895 -2.37558,-7.04921 -2.49971,-7.20913 -3.492957,-4.5 -0.566416,1.54492 -2.145463,5.82131 -3.509003,9.50308 l -2.47916,6.69413 2.64063,0.40604 c 5.47068,0.8412 10.04608,0.6677 10.70973,-0.4061 z M 202.256,19.812337 c -0.61229,-2.27386 -0.85523,-5.08636 -0.53987,-6.25 0.56267,-2.07619 11.337,-10.6157101 13.39388,-10.6157101 1.17133,0 1.75016,1.63804 2.65022,7.5000001 0.55447,3.61115 0.29424,4.29404 -2.67695,7.02469 -4.22135,3.87962 -8.31709,6.47531 -10.21739,6.47531 -0.908,0 -1.93449,-1.62605 -2.60989,-4.13429 z"
     id="path2495" />
</svg>
