<?xml version="1.0" encoding="UTF-8" standalone="no"?>
<!-- Created with Inkscape (http://www.inkscape.org/) -->
<svg
   xmlns:dc="http://purl.org/dc/elements/1.1/"
   xmlns:cc="http://web.resource.org/cc/"
   xmlns:rdf="http://www.w3.org/1999/02/22-rdf-syntax-ns#"
   xmlns:svg="http://www.w3.org/2000/svg"
   xmlns="http://www.w3.org/2000/svg"
   xmlns:sodipodi="http://sodipodi.sourceforge.net/DTD/sodipodi-0.dtd"
   xmlns:inkscape="http://www.inkscape.org/namespaces/inkscape"
   width="872.44464"
   height="221.70041"
   id="svg2"
   sodipodi:version="0.32"
   inkscape:version="0.45.1"
   version="1.0"
   sodipodi:docbase="C:\Documents and Settings\jgaray\My Documents\R\Wikipedia"
   sodipodi:docname="Ama-gi.svg"
   inkscape:output_extension="org.inkscape.output.svg.inkscape">
  <defs
     id="defs4" />
  <sodipodi:namedview
     id="base"
     pagecolor="#ffffff"
     bordercolor="#666666"
     borderopacity="1.0"
     inkscape:pageopacity="0.0"
     inkscape:pageshadow="2"
     inkscape:zoom="0.7"
     inkscape:cx="316.63718"
     inkscape:cy="59.09532"
     inkscape:document-units="px"
     inkscape:current-layer="layer1"
     showgrid="true"
     inkscape:grid-points="true"
     gridtolerance="2.4"
     inkscape:window-width="1280"
     inkscape:window-height="968"
     inkscape:window-x="-4"
     inkscape:window-y="-4" />
  <metadata
     id="metadata7">
    <rdf:RDF>
      <cc:Work
         rdf:about="">
        <dc:format>image/svg+xml</dc:format>
        <dc:type
           rdf:resource="http://purl.org/dc/dcmitype/StillImage" />
      </cc:Work>
    </rdf:RDF>
  </metadata>
  <g
     inkscape:label="Capa 1"
     inkscape:groupmode="layer"
     id="layer1"
     transform="translate(35.714285,-344.80837)">
    <g
       id="g6225"
       transform="translate(31.251292,-454.28571)">
      <g
         id="g6201">
        <path
           style="fill:#000000;fill-opacity:1"
           d="M 198.64095,997.93361 C 197.64095,972.93362 197.81109,882.99616 196.64095,861.93361 C 195.64095,843.93361 170.54126,809.93361 171.64095,806.79444 C 182.54126,805.93361 191.54126,805.93361 201.54126,805.93361 C 211.54126,805.93361 220.54126,805.93361 231.54126,806.93361 C 232.54126,809.93361 207.64095,843.93361 206.64095,861.93361 C 205.47081,882.99616 205.64095,972.93362 204.64095,997.93361 C 204.52113,1000.9292 202.54126,1007.9336 201.54126,1007.9336 C 200.54126,1007.9336 198.76077,1000.9291 198.64095,997.93361 z "
           id="path2248"
           sodipodi:nodetypes="cscccsscs" />
        <path
           sodipodi:nodetypes="cscccsscs"
           id="path6151"
           d="M 187.14287,832.02372 C 162.14288,833.02372 65.06256,832.85358 44.00001,834.02372 C 26.00001,835.02372 -7.99999,860.12341 -11.13919,859.02372 C -11.99999,848.12341 -11.99999,839.12341 -11.99999,829.12341 C -11.99999,819.12341 -11.99999,810.12341 -10.99999,799.12341 C -7.99999,798.12341 26.00001,823.02372 44.00001,824.02372 C 65.06256,825.19386 162.14288,825.02372 187.14287,826.02372 C 190.13846,826.14354 197.14286,828.12341 197.14286,829.12341 C 197.14286,830.12341 190.13836,831.9039 187.14287,832.02372 z "
           style="fill:#000000;fill-opacity:1" />
        <path
           sodipodi:nodetypes="cscccsscs"
           id="path6153"
           d="M -40,977.36218 C -41,952.36218 -40.760339,919.42473 -41.930479,898.36218 C -42.930479,880.36218 -68.030169,846.36218 -66.930479,843.22301 C -56.030169,842.36218 -47.030169,842.36218 -37.030169,842.36218 C -27.030169,842.36218 -18.030169,842.36218 -7.0301688,843.36218 C -6.0301688,846.36218 -30.930479,880.36218 -31.930479,898.36218 C -33.100619,919.42473 -33,952.36218 -34,977.36218 C -34.11982,980.35778 -36.09969,987.36218 -37.09969,987.36218 C -38.09969,987.36218 -39.88018,980.35768 -40,977.36218 z "
           style="fill:#000000;fill-opacity:1" />
        <path
           style="fill:#000000;fill-opacity:1"
           d="M 7.09969,956.36216 C 6.09969,931.36216 6.17014,939.42473 5,918.36218 C 4,900.36218 -21.09969,866.36218 -20,863.22301 C -9.09969,862.36218 -0.09969,862.36218 9.90031,862.36218 C 19.90031,862.36218 28.90031,862.36218 39.90031,863.36218 C 40.90031,866.36218 16,900.36218 15,918.36218 C 13.82986,939.42473 14.09969,931.36216 13.09969,956.36216 C 12.97987,959.35778 11,966.36218 10,966.36218 C 9,966.36218 7.21951,959.35768 7.09969,956.36216 z "
           id="path6155"
           sodipodi:nodetypes="cscccsscs" />
        <path
           style="fill:#000000;fill-opacity:1"
           d="M 182.47718,965.26249 C 157.47719,966.26249 12.9197,966.09235 -8.14285,967.26249 C -26.14285,968.26249 -60.14285,993.36218 -63.28205,992.26249 C -64.14285,981.36218 -64.14285,972.36218 -64.14285,962.36218 C -64.14285,952.36218 -64.14285,943.36218 -63.14285,932.36218 C -60.14285,931.36218 -26.14285,956.26249 -8.14285,957.26249 C 12.9197,958.43263 157.47719,958.26249 182.47718,959.26249 C 185.47277,959.38231 192.47717,961.36218 192.47717,962.36218 C 192.47717,963.36218 185.47267,965.14267 182.47718,965.26249 z "
           id="path6157"
           sodipodi:nodetypes="cscccsscs" />
      </g>
      <g
         id="g6195">
        <path
           sodipodi:nodetypes="cscccsscs"
           id="path3235"
           d="M 115.29526,946.72112 C 114.66263,932.61853 114.77027,881.8844 114.03,870.00293 C 113.39738,859.84905 97.518586,840.6695 98.214286,838.89868 C 105.11013,838.41308 110.80379,838.41308 117.13007,838.41308 C 123.45637,838.41308 129.15002,838.41308 136.10894,838.97719 C 136.74157,840.6695 120.98891,859.84905 120.35629,870.00293 C 119.61602,881.8844 119.72366,932.61853 119.09103,946.72112 C 119.01523,948.41097 117.76271,952.36218 117.13007,952.36218 C 116.49745,952.36218 115.37106,948.41091 115.29526,946.72112 z "
           style="fill:#000000;fill-opacity:1" />
        <path
           style="fill:#000000;fill-opacity:1"
           d="M 163.93461,898.17586 C 148.7712,898.80849 94.220771,898.70085 81.445555,899.44112 C 70.527884,900.07374 49.905618,915.95253 48.001595,915.25683 C 47.479467,908.36099 47.479467,902.66733 47.479467,896.34105 C 47.479467,890.01475 47.479467,884.3211 48.08601,877.36218 C 49.905618,876.72955 70.527884,892.48221 81.445555,893.11483 C 94.220771,893.8551 148.7712,893.74746 163.93461,894.38009 C 165.75157,894.45589 170,895.70841 170,896.34105 C 170,896.97367 165.75151,898.10006 163.93461,898.17586 z "
           id="path6159"
           sodipodi:nodetypes="cscccsscs" />
        <path
           style="fill:#000000;fill-opacity:1"
           d="M 155.28503,929.81247 C 144.07517,921.23212 105.27976,888.5384 95.70219,881.46822 C 87.517227,875.42604 62.618147,875.26153 61.708807,873.59033 C 65.769379,867.99567 69.429193,863.63407 73.495648,858.78786 C 77.562115,853.94163 81.221923,849.58004 86.127164,844.6118 C 87.830195,845.21498 92.396968,869.61059 99.768651,876.622 C 108.39455,884.82634 147.32834,917.35515 157.7249,926.90474 C 158.97068,928.04902 161.19238,931.5483 160.78572,932.03293 C 160.37908,932.51754 156.6282,930.84058 155.28503,929.81247 z "
           id="path6161"
           sodipodi:nodetypes="cscccsscs" />
        <path
           sodipodi:nodetypes="cscccsscs"
           id="path6163"
           d="M 154.56117,863.08529 C 144.86116,873.34167 108.30873,908.52522 100.2805,917.31527 C 93.419575,924.8272 90.665551,949.57406 88.908822,950.3046 C 83.766964,945.68401 79.809784,941.5903 75.412928,937.04173 C 71.016056,932.49315 67.058887,928.39943 62.627926,923.00394 C 63.405011,921.3729 88.143347,919.36894 95.883627,912.76668 C 104.94086,905.04114 141.34366,869.7028 151.92305,860.35616 C 153.19073,859.23619 156.90216,857.39059 157.34185,857.84546 C 157.78152,858.30032 155.72344,861.85637 154.56117,863.08529 z "
           style="fill:#000000;fill-opacity:1" />
      </g>
      <g
         id="g6208">
        <path
           sodipodi:nodetypes="cscccsscs"
           id="path4206"
           d="M 795.47905,917.20782 C 770.47906,918.20782 462.06256,918.64491 441.00001,919.81505 C 423.00001,920.81505 389,945.91474 385.86083,944.81505 C 385,933.91474 385,924.91474 385,914.91474 C 385,904.91474 385,895.91474 386,884.91474 C 389,883.91474 423.00001,908.81505 441.00001,909.81505 C 462.06256,910.98519 770.47906,910.20782 795.47905,911.20782 C 798.47467,911.32764 805.47907,913.30751 805.47907,914.30751 C 805.47907,915.30751 798.47457,917.088 795.47905,917.20782 z "
           style="fill:#000000;fill-opacity:1" />
        <path
           sodipodi:nodetypes="cscccsscs"
           id="path6167"
           d="M 382,997.36219 C 381,972.3622 381.17014,882.42474 380,861.36219 C 379,843.36219 353.90031,809.36219 355,806.22302 C 365.90031,805.36219 374.90031,805.36219 384.90031,805.36219 C 394.90031,805.36219 403.90031,805.36219 414.90031,806.36219 C 415.90031,809.36219 391,843.36219 390,861.36219 C 388.82986,882.42474 389,972.3622 388,997.36219 C 387.88018,1000.3578 385.90031,1007.3622 384.90031,1007.3622 C 383.90031,1007.3622 382.11982,1000.3577 382,997.36219 z "
           style="fill:#000000;fill-opacity:1" />
        <path
           style="fill:#000000;fill-opacity:1"
           d="M 470.03442,990.37962 C 458.60035,968.12513 420.88366,886.47817 410.95327,867.86668 C 402.46678,851.96135 365.384,831.6916 365.05961,828.38124 C 374.58396,823.01053 382.74717,819.2208 391.81739,815.00998 C 400.88762,810.79917 409.05081,807.00943 419.44915,803.28455 C 421.61941,805.58454 413.35105,846.90838 420.02349,863.65586 C 427.83121,883.25281 465.85654,964.75649 475.47655,987.85313 C 476.62927,990.62067 477.7829,997.80751 476.87587,998.22854 C 475.96885,998.64965 471.40445,993.04615 470.03442,990.37962 z "
           id="path6169"
           sodipodi:nodetypes="cscccsscs" />
        <path
           sodipodi:nodetypes="cscccsscs"
           id="path6171"
           d="M 393.22032,835.67586 C 378.05691,836.30849 323.50649,836.20085 310.73127,836.94112 C 299.8136,837.57374 279.19133,853.45253 277.28731,852.75683 C 276.76518,845.86099 276.76518,840.16733 276.76518,833.84105 C 276.76518,827.51475 276.76518,821.8211 277.37172,814.86218 C 279.19133,814.22955 299.8136,829.98221 310.73127,830.61483 C 323.50649,831.3551 378.05691,831.24746 393.22032,831.88009 C 395.03728,831.95589 399.28571,833.20841 399.28571,833.84105 C 399.28571,834.47367 395.03722,835.60006 393.22032,835.67586 z "
           style="fill:#000000;fill-opacity:1" />
        <path
           style="fill:#000000;fill-opacity:1"
           d="M 383.04175,858.89015 C 367.87834,859.52278 323.50649,859.41514 310.73127,860.15541 C 299.8136,860.78803 279.19133,876.66682 277.28731,875.97112 C 276.76518,869.07528 276.76518,863.38162 276.76518,857.05534 C 276.76518,850.72904 276.76518,845.03539 277.37172,838.07647 C 279.19133,837.44384 299.8136,853.1965 310.73127,853.82912 C 323.50649,854.56939 367.87834,854.46175 383.04175,855.09438 C 384.85871,855.17018 389.10714,856.4227 389.10714,857.05534 C 389.10714,857.68796 384.85865,858.81435 383.04175,858.89015 z "
           id="path6173"
           sodipodi:nodetypes="cscccsscs" />
        <path
           style="fill:#000000;fill-opacity:1"
           d="M 385.17224,888.84225 C 373.10288,889.34317 329.68334,889.25794 319.51487,889.84408 C 310.82492,890.34498 294.41057,902.91765 292.89506,902.3668 C 292.47947,896.90674 292.47947,892.39856 292.47947,887.38947 C 292.47947,882.38037 292.47947,877.87219 292.96225,872.36218 C 294.41057,871.86127 310.82492,884.33408 319.51487,884.83498 C 329.68334,885.42112 373.10288,885.33589 385.17224,885.8368 C 386.61845,885.89682 390,886.88855 390,887.38947 C 390,887.89037 386.6184,888.78224 385.17224,888.84225 z "
           id="path6175"
           sodipodi:nodetypes="cscccsscs" />
        <path
           sodipodi:nodetypes="cscccsscs"
           id="path6177"
           d="M 396.0651,917.77082 C 383.99574,918.27174 340.5762,918.18651 330.40773,918.77265 C 321.71778,919.27355 305.30343,931.84622 303.78792,931.29537 C 303.37233,925.83531 303.37233,921.32713 303.37233,916.31804 C 303.37233,911.30894 303.37233,906.80076 303.85511,901.29075 C 305.30343,900.78984 321.71778,913.26265 330.40773,913.76355 C 340.5762,914.34969 383.99574,914.26446 396.0651,914.76537 C 397.51131,914.82539 400.89286,915.81712 400.89286,916.31804 C 400.89286,916.81894 397.51126,917.71081 396.0651,917.77082 z "
           style="fill:#000000;fill-opacity:1" />
        <path
           style="fill:#000000;fill-opacity:1"
           d="M 385.70796,940.9851 C 373.6386,941.48602 340.5762,941.22222 330.40773,941.80836 C 321.71778,942.30926 305.30343,954.88193 303.78792,954.33108 C 303.37233,948.87102 303.37233,944.36284 303.37233,939.35375 C 303.37233,934.34465 303.37233,929.83647 303.85511,924.32646 C 305.30343,923.82555 321.71778,936.29836 330.40773,936.79926 C 340.5762,937.3854 373.6386,937.47874 385.70796,937.97965 C 387.15417,938.03967 390.53572,939.0314 390.53572,939.53232 C 390.53572,940.03322 387.15412,940.92509 385.70796,940.9851 z "
           id="path6179"
           sodipodi:nodetypes="cscccsscs" />
        <path
           style="fill:#000000;fill-opacity:1"
           d="M 662.98204,954.80971 C 655.30728,942.96145 629.75385,899.1324 623.109,889.25499 C 617.43033,880.81377 594.03439,872.29197 593.73949,870.41239 C 599.44392,866.50753 604.35655,863.62936 609.81502,860.4314 C 615.27351,857.23343 620.18612,854.35526 626.47561,851.32424 C 627.87692,852.4646 623.98049,876.97622 628.56748,886.05702 C 633.93488,896.68285 659.67405,940.40308 666.25712,952.89093 C 667.04594,954.3873 667.96259,958.42966 667.41674,958.74945 C 666.8709,959.06924 663.90164,956.22939 662.98204,954.80971 z "
           id="path6181"
           sodipodi:nodetypes="cscccsscs" />
        <path
           sodipodi:nodetypes="cscccsscs"
           id="path6183"
           d="M 702.98204,937.66685 C 695.30728,925.81859 669.75385,881.98954 663.109,872.11213 C 657.43033,863.67091 634.03439,855.14911 633.73949,853.26953 C 639.44392,849.36467 644.35655,846.4865 649.81502,843.28854 C 655.27351,840.09057 660.18612,837.2124 666.47561,834.18138 C 667.87692,835.32174 663.98049,859.83336 668.56748,868.91416 C 673.93488,879.53999 699.67405,923.26022 706.25712,935.74807 C 707.04594,937.24444 707.96259,941.2868 707.41674,941.60659 C 706.8709,941.92638 703.90164,939.08653 702.98204,937.66685 z "
           style="fill:#000000;fill-opacity:1" />
        <path
           style="fill:#000000;fill-opacity:1"
           d="M 740.83918,926.23828 C 733.16442,914.39002 707.61099,870.56097 700.96614,860.68356 C 695.28747,852.24234 671.89153,843.72054 671.59663,841.84096 C 677.30106,837.9361 682.21369,835.05793 687.67216,831.85997 C 693.13065,828.662 698.04326,825.78383 704.33275,822.75281 C 705.73406,823.89317 701.83763,848.40479 706.42462,857.48559 C 711.79202,868.11142 737.53119,911.83165 744.11426,924.3195 C 744.90308,925.81587 745.81973,929.85823 745.27388,930.17802 C 744.72804,930.49781 741.75878,927.65796 740.83918,926.23828 z "
           id="path6185"
           sodipodi:nodetypes="cscccsscs" />
        <path
           sodipodi:nodetypes="cscccsscs"
           id="path6187"
           d="M 781.91061,910.88114 C 774.23585,899.03288 748.68242,855.20383 742.03757,845.32642 C 736.3589,836.8852 712.96296,828.3634 712.66806,826.48382 C 718.37249,822.57896 723.28512,819.70079 728.74359,816.50283 C 734.20208,813.30486 739.11469,810.42669 745.40418,807.39567 C 746.80549,808.53603 742.90906,833.04765 747.49605,842.12845 C 752.86345,852.75428 778.60262,896.47451 785.18569,908.96236 C 785.97451,910.45873 786.89116,914.50109 786.34531,914.82088 C 785.79947,915.14067 782.83021,912.30082 781.91061,910.88114 z "
           style="fill:#000000;fill-opacity:1" />
        <path
           sodipodi:nodetypes="cscccsscs"
           id="path6189"
           d="M 674.6686,918.77277 C 668.19868,931.31965 642.85583,975.27082 637.58471,985.94471 C 633.08003,995.06669 637.30731,1019.6048 635.82259,1020.7945 C 629.59975,1017.7837 624.6613,1014.9501 619.17414,1011.8016 C 613.68696,1008.6532 608.74851,1005.8195 602.99339,1001.8669 C 603.28689,1000.0843 626.49543,991.28849 632.09755,982.79625 C 638.65282,972.85918 663.80892,928.80089 671.37628,916.8837 C 672.28299,915.45575 675.33586,912.65196 675.88458,912.96681 C 676.43329,913.28165 675.44377,917.26943 674.6686,918.77277 z "
           style="fill:#000000;fill-opacity:1" />
        <path
           style="fill:#000000;fill-opacity:1"
           d="M 721.67521,915.34045 C 715.20529,927.88733 689.86244,971.8385 684.59132,982.51239 C 680.08664,991.63437 684.31392,1016.1725 682.8292,1017.3622 C 676.60636,1014.3514 671.66791,1011.5178 666.18075,1008.3693 C 660.69357,1005.2209 655.75512,1002.3872 650,998.43458 C 650.2935,996.65198 673.50204,987.85617 679.10416,979.36393 C 685.65943,969.42686 710.81553,925.36857 718.38289,913.45138 C 719.2896,912.02343 722.34247,909.21964 722.89119,909.53449 C 723.4399,909.84933 722.45038,913.83711 721.67521,915.34045 z "
           id="path6191"
           sodipodi:nodetypes="cscccsscs" />
        <path
           sodipodi:nodetypes="cscccsscs"
           id="path6193"
           d="M 769.53235,911.41188 C 763.06243,923.95876 737.71958,967.90993 732.44846,978.58382 C 727.94378,987.7058 732.17106,1012.2439 730.68634,1013.4336 C 724.4635,1010.4228 719.52505,1007.5892 714.03789,1004.4407 C 708.55071,1001.2923 703.61226,998.45863 697.85714,994.50601 C 698.15064,992.72341 721.35918,983.9276 726.9613,975.43536 C 733.51657,965.49829 758.67267,921.44 766.24003,909.52281 C 767.14674,908.09486 770.19961,905.29107 770.74833,905.60592 C 771.29704,905.92076 770.30752,909.90854 769.53235,911.41188 z "
           style="fill:#000000;fill-opacity:1" />
      </g>
    </g>
  </g>
</svg>
