<?xml version="1.0" encoding="UTF-8" standalone="no"?>
<svg xmlns="http://www.w3.org/2000/svg" width="7234" height="2618" viewBox="0 -382 7234 2618">
<title>Assyrian cuneiform U12065 MesZL 459</title>
<path transform="translate(0,1854)scale(1,-1)" d="M7202,2157
L7067,2023
C6985,1888,6985,1888,6985,1739
C6985,1582,6985,1582,7069,1452
L7200,1317
C7200,1283,7200,1283,7191,1276.5
C7182,1270,7182,1270,7147,1270
L6954,1458
C6948,1464,6948,1464,6879,1521
C6769,1612,6769,1612,6612,1688
H4480
C4215,1688,4215,1688,3957,1445
C3888,1380,3888,1380,3823,1315
C3908,1532,3908,1532,3911,1741
C3912,1848,3912,1848,3896,1935
C3877,2035,3877,2035,3823,2167
C4003,1982,4003,1982,4112,1909
C4291,1790,4291,1790,4480,1790
H6612
C6760,1856,6760,1856,6960,2019
L7147,2204
C7183,2204,7183,2204,7192.5,2197
C7202,2190,7202,2190,7202,2157Z
M6588,1581
C6426,1419,6426,1419,6367,1265
C6346,1210,6346,1210,6346,1155
V379
H4894
C4794,379,4794,379,4673,303
C4566,236,4566,236,4470,135
C4492,174,4492,174,4506,247
C4523,337,4523,337,4523,412
C4523,484,4523,484,4506,571
C4494,631,4494,631,4470,686
C4598,553,4598,553,4726,489
V1169
C4726,1259,4726,1259,4649,1383
C4587,1483,4587,1483,4484,1581
C4503,1565,4503,1565,4593,1546
C4669,1530,4669,1530,4761,1530
C4906,1530,4906,1530,5017,1581
C5083,1490,5083,1490,5202.5,1415.5
C5322,1341,5322,1341,5418,1341
H5881
C5822,1452,5822,1452,5693,1581
C5718,1560,5718,1560,5801,1545
C5893,1528,5893,1528,5969,1528
C6086,1528,6086,1528,6139,1565
C6192,1528,6192,1528,6313,1528
C6386,1528,6386,1528,6473,1545
C6550,1560,6550,1560,6588,1581Z
M7026,35
H4488
C4302,35,4302,35,4113,-93
C4010,-163,4010,-163,3823,-350
C3908,-133,3908,-133,3911,86
C3912,192,3912,192,3896,283
C3878,382,3878,382,3823,516
C3925,414,3925,414,3963,379
C4043,305,4043,305,4115,258
C4299,137,4299,137,4488,137
H7026
V35Z
M3786,391
C3786,357,3786,357,3777,348.5
C3768,340,3768,340,3733,340
L3356,709
C3313,742,3313,742,3224.5,805
C3136,868,3136,868,3075,895
L3073,926
C3154,968,3154,968,3227,1021
L3356,1114
L3731,1479
C3767,1479,3767,1479,3776.5,1472
C3786,1465,3786,1465,3786,1432
L3626,1266
C3587,1200,3587,1200,3566,1080
C3546,967,3546,967,3546,905
C3546,831,3546,831,3564,735
C3587,612,3587,612,3624,555
L3786,391Z
M3202,1929
C3133,1857,3133,1857,3004,1701
C2858,1495,2858,1495,2858,1300
V1100
C2965,1100,2965,1100,3041,1119
C3101,1134,3101,1134,3200,1167
C3131,1097,3131,1097,3002,944
C2858,743,2858,743,2858,541
V0
H2756
V379
H1859
V35
H1756
V379
H1343
V35
H1240
V379
H827
V35
H724
V379
H689
C424,379,424,379,166,136
C97,71,97,71,32,6
C111,208,111,208,114,428
C116,543,116,543,102,627
C85,733,85,733,32,862
C127,764,127,764,170,724
C249,650,249,650,321,602
C503,481,503,481,689,481
H724
V522
C724,601,724,601,633,757
C542,913,542,913,454,997
C481,975,481,975,577,955
C689,932,689,932,782,932
C939,932,939,932,1038,985
C1137,932,1137,932,1294,932
C1457,932,1457,932,1550,985
C1643,932,1643,932,1810,932
C1895,932,1895,932,2005,955
C2089,973,2089,973,2133,997
C2034,911,2034,911,1950,771
C1859,619,1859,619,1859,524
V481
H2756
V543
C2756,746,2756,746,2615,942
C2583,987,2583,987,2414,1167
C2463,1151,2463,1151,2563,1123
C2644,1104,2644,1104,2756,1100
V1305
L2752,1343
H691
C500,1343,500,1343,320,1222
C214,1151,214,1151,34,971
C111,1167,111,1167,114,1393
C116,1569,116,1569,79,1697
C62,1754,62,1754,34,1823
C214,1638,214,1638,323,1565
C502,1446,502,1446,691,1446
H2733
C2691,1605,2691,1605,2573,1754
C2518,1811,2518,1811,2410,1929
C2465,1912,2465,1912,2577,1883
C2677,1862,2677,1862,2807,1862
C2947,1862,2947,1862,3029,1878
C3049,1882,3049,1882,3202,1929Z
M6278,446
V1163
C6278,1280,6278,1280,6139,1454
C6002,1283,6002,1283,6002,1159
V446
H6278Z
M5934,993
V1167
C5934,1210,5934,1210,5912,1274
H5422
C5338,1274,5338,1274,5264,1229
C5243,1216,5243,1216,5132,1133
C5210,1070,5210,1070,5273,1039
C5365,993,5365,993,5428,993
H5934Z
M5934,651
V926
H5431
C5297,926,5297,926,5127,791
C5308,651,5308,651,5416,651
H5934Z
M5934,446
V582
H5416
C5355,582,5355,582,5266,541
C5187,505,5187,505,5115,446
H5934Z
M5058,618
C5058,656,5058,656,5046,706
C5038,739,5038,739,5021,791
C5056,848,5056,848,5056,969
C5056,1103,5056,1103,5021,1133
C5056,1182,5056,1182,5056,1307
C5056,1453,5056,1453,5013,1561
C4794,1342,4794,1342,4794,1167
V461
C4841,446,4841,446,4892,446
H5037
C5058,526,5058,526,5058,618Z
M1756,481
V524
C1756,611,1756,611,1693,726
C1640,823,1640,823,1548,924
C1457,833,1457,833,1401,725
C1343,613,1343,613,1343,522
V481
H1756Z
M1240,481
V524
C1240,614,1240,614,1179,727
C1122,834,1122,834,1038,926
C898,786,898,786,844,621
C827,569,827,569,827,522
V481
H1240Z"/>
<!-- Glyph: uF5412 Extrema: 32 -350 7202 2204 --></svg>
