<?xml version="1.0" encoding="iso-8859-1"?>
<!-- Generator: Adobe Illustrator 13.0.0, SVG Export Plug-In . SVG Version: 6.00 Build 14576)  -->
<!DOCTYPE svg PUBLIC "-//W3C//DTD SVG 1.1//EN" "http://www.w3.org/Graphics/SVG/1.1/DTD/svg11.dtd">
<svg version="1.1" id="Old_English_typeface" xmlns="http://www.w3.org/2000/svg" xmlns:xlink="http://www.w3.org/1999/xlink"
	 x="0px" y="0px" width="300px" height="214px" viewBox="0 0 300 214" style="enable-background:new 0 0 300 214;"
	 xml:space="preserve">
<g id="All">
	<g id="Text">
		<path d="M23.896,0l0.344,0.821c-0.847,0.411-1.472,0.818-1.878,1.222c-0.405,0.404-0.69,0.856-0.855,1.356
			s-0.247,1.244-0.247,2.233c0,0.318,0.006,0.742,0.018,1.271l0.3,13.187c0.023,1.447,0.176,2.395,0.457,2.842
			c0.199,0.317,0.439,0.476,0.721,0.476c0.34,0,0.867-0.341,1.582-1.024l0.52,0.662l-3.279,2.8l-1.093,0.898
			c-0.928-0.435-1.589-1.012-1.983-1.73c-0.394-0.718-0.614-1.866-0.661-3.442l-6.814,5.172c-3.8-2.507-6.389-3.76-7.765-3.76
			c-0.341,0-0.629,0.105-0.864,0.318c-0.176,0.153-0.264,0.371-0.264,0.653c0,0.306,0.111,0.641,0.335,1.006
			c0.293,0.494,0.44,0.817,0.44,0.97c0,0.224-0.082,0.416-0.247,0.574c-0.165,0.159-0.364,0.238-0.6,0.238
			c-0.294,0-0.529-0.118-0.705-0.353c-0.258-0.318-0.388-0.729-0.388-1.236c0-0.565,0.162-1.197,0.485-1.897
			c0.323-0.701,0.802-1.462,1.437-2.287c0.129-0.176,0.247-0.341,0.353-0.494l2.52-3.443c-1.704-1.283-2.899-2.513-3.586-3.69
			c-0.688-1.176-1.031-2.495-1.031-3.954c0-1.695,0.432-3.266,1.295-4.713C3.306,3.23,4.604,2.089,6.338,1.253
			C8.071,0.417,9.854,0,11.688,0c2.809,0,5.518,0.977,8.127,2.93c0.633-0.67,1.244-1.221,1.83-1.65
			C22.231,0.85,22.981,0.423,23.896,0z M15.231,4.096c-1.481-0.729-2.956-1.094-4.425-1.094c-1.563,0-3.032,0.344-4.407,1.032
			S3.996,5.609,3.314,6.697c-0.682,1.087-1.022,2.202-1.022,3.342c0,2.411,1.302,4.545,3.906,6.403l5.895-8.057
			c-0.88-0.482-1.672-0.724-2.375-0.724c-0.974,0-1.771,0.459-2.393,1.377C7.207,9.227,7.09,9.321,6.972,9.321
			c-0.072,0-0.142-0.035-0.208-0.106c-0.066-0.07-0.1-0.158-0.1-0.264c0-0.365,0.185-0.871,0.555-1.519s0.916-1.171,1.639-1.571
			c0.723-0.4,1.483-0.601,2.282-0.601c0.822,0,1.756,0.2,2.802,0.599L15.231,4.096z M6.357,17.636l-1.604,2.191l8.957,3.867
			l4.148-3.083l-0.071-2.975H6.357z M17.506,5.916c-0.34-0.376-0.569-0.618-0.686-0.724c-0.083-0.082-0.376-0.3-0.88-0.653
			L8.243,15.059h9.475L17.506,5.916z"/>
		<path d="M52.913,0c1.22,0.33,2.141,0.812,2.762,1.447c0.879,0.894,1.319,1.924,1.319,3.088c0,0.953-0.343,1.938-1.03,2.956
			c-0.687,1.018-1.952,2.227-3.794,3.627c1.573,0.141,2.727,0.4,3.46,0.776c0.734,0.377,1.248,0.86,1.541,1.448
			c0.293,0.589,0.44,1.572,0.44,2.949v6.075c-4.181,0.471-7.745,1.931-10.692,4.378c-1.023-0.706-1.994-1.207-2.911-1.501
			c-1.482-0.494-3.07-0.741-4.763-0.741c-2.082,0-3.751,0.424-5.009,1.271c-0.847,0.565-1.271,1.13-1.271,1.695
			c0,0.212,0.121,0.527,0.361,0.945c0.241,0.417,0.361,0.75,0.361,0.997c0,0.235-0.088,0.441-0.264,0.618s-0.37,0.265-0.582,0.265
			c-0.329,0-0.625-0.156-0.89-0.468c-0.264-0.312-0.396-0.715-0.396-1.209c0-0.459,0.162-0.98,0.485-1.562
			c0.323-0.583,1.022-1.421,2.098-2.516c1.075-1.094,1.763-1.895,2.063-2.4c0.3-0.506,0.45-0.977,0.45-1.413
			c0-0.518-0.173-0.944-0.519-1.28c-0.346-0.335-0.783-0.503-1.31-0.503c-0.481,0-0.874,0.136-1.178,0.406s-0.51,0.718-0.615,1.341
			l-0.644-0.009c-0.012-0.222-0.018-0.387-0.018-0.493c0-0.986,0.332-1.796,0.996-2.43c0.664-0.634,1.548-0.952,2.653-0.952
			c0.129,0,0.329,0.006,0.6,0.018c-0.012-1.153-0.182-1.988-0.51-2.506c-0.516-0.835-1.303-1.254-2.358-1.254
			c-0.658,0-1.238,0.171-1.743,0.512c-0.27,0.176-0.54,0.542-0.809,1.095l-0.679-0.239c0.117-1.126,0.555-2.025,1.313-2.694
			c0.758-0.669,1.725-1.004,2.9-1.004c0.435,0,0.975,0.036,1.622,0.106c0.047-1.657,0.2-2.864,0.458-3.622
			c0.258-0.758,0.693-1.451,1.305-2.08c0.611-0.628,1.769-1.501,3.473-2.617c-1.61,0.532-2.973,0.799-4.09,0.799
			c-0.717,0-1.657-0.142-2.821-0.424c-0.67-0.153-1.146-0.229-1.428-0.229c-0.529,0-0.976,0.179-1.34,0.538
			s-0.605,0.998-0.723,1.916h-0.67c0.035-1.075,0.232-1.975,0.591-2.702c0.358-0.726,0.908-1.311,1.649-1.753S34.278,0,35.102,0
			c0.611,0,1.628,0.177,3.051,0.53s2.576,0.529,3.458,0.529c0.647,0,1.273-0.07,1.878-0.212C44.095,0.706,44.892,0.423,45.879,0
			l0.361,0.786c-2.546,1.236-4.24,2.439-5.083,3.61c-0.843,1.171-1.264,2.727-1.264,4.669v7.255c0,1.589-0.176,2.825-0.529,3.707
			c-0.353,0.883-1.063,1.89-2.133,3.019c2.081-0.882,3.479-1.83,4.196-2.842s1.076-2.5,1.076-4.466V10.53
			c0-2.424,0.211-4.134,0.635-5.128c0.424-0.995,1.203-1.848,2.338-2.56S49.09,1.183,52.913,0z M49.865,1.72
			c-1.273,0.577-2.13,1.064-2.572,1.465c-0.442,0.399-0.748,0.874-0.919,1.42c-0.171,0.547-0.256,1.474-0.256,2.78v7.235
			c0,1.294-0.118,2.268-0.353,2.921c-0.235,0.653-0.688,1.294-1.357,1.924c-0.67,0.629-2.027,1.544-4.072,2.744
			c1.104-0.165,2.133-0.247,3.085-0.247c1.622,0,3.156,0.224,4.601,0.671V7.927h0.776v4.59c1.622-0.976,2.821-1.979,3.596-3.008
			c0.776-1.029,1.164-2.143,1.164-3.343c0-0.987-0.302-1.837-0.905-2.549C52.047,2.904,51.119,2.272,49.865,1.72z M48.797,15.059
			c0.964,0.341,1.833,0.512,2.609,0.512c0.776,0,1.646-0.171,2.609-0.512c0-0.812-0.182-1.465-0.546-1.959
			c-0.365-0.495-1.052-0.959-2.063-1.395c-1.281,0.847-2.15,1.395-2.609,1.642V15.059z M54.015,15.835
			c-0.987,0.353-1.857,0.53-2.609,0.53c-0.811,0-1.681-0.177-2.609-0.53v3.142c0.905-0.329,1.751-0.494,2.539-0.494
			c0.764,0,1.657,0.165,2.68,0.494V15.835z M54.015,19.79c-1.082-0.388-1.998-0.583-2.75-0.583c-0.787,0-1.61,0.194-2.468,0.583
			v3.143c0.506,0.224,0.982,0.479,1.429,0.763c1.198-0.628,2.461-1.12,3.789-1.475V19.79z"/>
		<path d="M73.125,2.56l0.432,0.495c-1.751,1.188-3.056,2.46-3.914,3.813c-1.104,1.742-1.657,3.636-1.657,5.684
			c0,2.483,0.817,4.778,2.451,6.885c0.705-0.577,1.128-1.062,1.27-1.457c0.141-0.395,0.211-1.474,0.211-3.24V6.832l7.554-6.302
			c1.759,0.694,3.143,1.145,4.151,1.35c1.009,0.206,2.193,0.309,3.554,0.309h0.404l0.291,0.645l-2.909,2.78
			c-1.953-0.211-4.156-0.93-6.611-2.154l0.176,20.161l0.668,0.018c1.688,0,3.226-0.29,4.615-0.869
			c1.389-0.58,2.828-1.52,4.316-2.821l0.538,0.521c-1.093,1.509-2.166,2.681-3.217,3.518s-2.318,1.505-3.799,2.007
			c-1.48,0.5-2.95,0.751-4.407,0.751c-2.163,0-4.199-0.524-6.108-1.571s-3.405-2.548-4.486-4.502
			c-1.082-1.953-1.622-3.966-1.622-6.038c0-2.554,0.763-4.919,2.29-7.096C68.512,5.832,70.449,4.172,73.125,2.56z M77.542,3.336
			l-2.063,1.79v8.059c0,1.001-0.053,1.667-0.159,1.997c-0.118,0.436-0.389,0.901-0.813,1.396c-0.86,1.001-2.063,2.145-3.607,3.428
			c0.942,1.046,1.952,1.85,3.03,2.407c1.078,0.559,2.341,0.932,3.789,1.121L77.542,3.336z"/>
		<path d="M93.466,0.53h0.829c0.188,0.588,0.5,1.006,0.935,1.253c0.564,0.329,1.481,0.494,2.75,0.494
			c0.811,0,3.385-0.083,7.722-0.247c2.621-0.106,4.254-0.159,4.901-0.159c1.951,0,3.611,0.335,4.98,1.006s2.483,1.701,3.341,3.089
			s1.428,3.302,1.71,5.738c0.2,1.707,0.37,5.467,0.511,11.281c-2.291,1.447-4.053,2.701-5.287,3.76
			c-3.736-1.047-7.032-1.571-9.887-1.571c-1.938,0-3.736,0.234-5.393,0.701c-1.656,0.468-3.413,1.217-5.269,2.247l-0.52-0.68
			c2.413-1.248,4.532-2.526,6.357-3.832c1.825-1.307,3.028-2.476,3.611-3.506c0.583-1.03,0.874-2.34,0.874-3.93
			c0-0.577-0.012-1.431-0.035-2.561c-0.023-0.789-0.035-1.607-0.035-2.455c0-1.495,0.084-2.595,0.252-3.302
			c0.168-0.706,0.525-1.519,1.07-2.437h-0.456c-1.428,0.824-2.379,1.574-2.853,2.25c-0.474,0.677-0.711,1.538-0.711,2.586
			l0.141,6.266c0,1.671-0.5,3.167-1.5,4.492c-1,1.324-3.4,3.233-7.2,5.728l-0.52-0.697c1.923-1.339,3.191-2.438,3.805-3.297
			c0.613-0.857,0.92-1.756,0.92-2.696c0-0.811-0.259-1.501-0.777-2.071s-1.089-0.855-1.714-0.855c-0.317,0-0.612,0.088-0.883,0.265
			c-0.271,0.176-0.636,0.541-1.095,1.094l-0.573-0.574c0.401-1.009,0.934-1.748,1.601-2.217c0.666-0.469,1.464-0.704,2.396-0.704
			c0.271,0,0.568,0.029,0.893,0.088s0.675,0.147,1.053,0.265c-0.024-0.683-0.036-1.277-0.036-1.783c0-1.848,0.373-3.352,1.118-4.511
			c0.745-1.159,2.175-2.369,4.288-3.627c-1.941,0.2-3.618,0.3-5.029,0.3c-1.494,0-2.776-0.211-3.847-0.635
			c-0.8-0.33-1.389-0.856-1.765-1.58C93.76,2.78,93.537,1.789,93.466,0.53z M107.746,5.42c-0.505,0.858-0.846,1.605-1.022,2.24
			c-0.235,0.87-0.353,1.682-0.353,2.435l0.141,6.95c0,0.894-0.222,1.805-0.666,2.734c-0.338,0.694-0.975,1.54-1.909,2.54
			c1.71-0.274,3.016-0.404,3.918-0.393l1.001,0.018V5.42H107.746z M109.755,12.199c0.718,0.506,1.346,0.853,1.882,1.042
			s1.117,0.283,1.741,0.283c0.625,0,1.207-0.097,1.75-0.292c0.542-0.194,1.178-0.539,1.909-1.033
			c-0.224-2.648-0.907-4.44-2.05-5.375c-1.143-0.936-2.887-1.403-5.231-1.403V12.199z M109.755,18.025
			c0.799-0.459,1.481-0.774,2.045-0.945c0.564-0.17,1.181-0.256,1.852-0.256c0.646,0,1.245,0.08,1.798,0.239
			c0.553,0.159,1.217,0.456,1.993,0.892l-0.288-4.784c-0.754,0.459-1.404,0.773-1.952,0.944c-0.547,0.17-1.145,0.256-1.792,0.256
			c-0.624,0-1.242-0.1-1.854-0.3c-0.612-0.2-1.212-0.5-1.801-0.9V18.025z M109.755,21.997c1.434,0.118,2.6,0.262,3.499,0.433
			c0.899,0.171,2.307,0.527,4.222,1.068c0.024-1.777,0.036-2.695,0.036-2.753c0-0.142-0.012-0.707-0.036-1.695
			c-0.752-0.518-1.413-0.877-1.983-1.077c-0.57-0.2-1.19-0.3-1.86-0.3c-0.682,0-1.313,0.1-1.896,0.3
			c-0.582,0.2-1.243,0.559-1.983,1.077V21.997z"/>
		<path d="M136.814,2.577l0.361,0.547c-1.951,1.248-3.388,2.681-4.31,4.299c-0.923,1.618-1.384,3.352-1.384,5.199
			c0,2.377,0.811,4.649,2.433,6.814c0.682-0.565,1.093-1.039,1.234-1.421c0.141-0.382,0.211-1.368,0.211-2.957V6.938l7.713-6.585
			c1.434,0.694,2.642,1.177,3.623,1.448c0.981,0.271,1.948,0.406,2.9,0.406c0.493,0,1.104-0.053,1.834-0.159l0.432,0.538
			l-6.083,6.153h4.76l-1.922,3.372h-6.699v11.457l1.127,0.053c1.667,0,3.323-0.418,4.967-1.254c1.244-0.624,2.524-1.6,3.839-2.93
			l0.433,0.68c-1.363,2.127-2.868,3.708-4.514,4.742c-2.009,1.258-4.301,1.887-6.875,1.887c-4.055,0-7.257-1.4-9.608-4.202
			c-1.869-2.225-2.803-4.831-2.803-7.821c0-1.859,0.381-3.592,1.144-5.199c0.763-1.606,1.837-3.045,3.223-4.316
			C133.838,4.313,135.159,3.437,136.814,2.577z M141.107,3.44l-2.15,1.813v8.188c0,0.906-0.05,1.536-0.15,1.889
			c-0.1,0.353-0.332,0.735-0.695,1.146c-0.775,0.918-2.019,2.089-3.733,3.512c1.021,1.082,2.034,1.886,3.039,2.415
			c1.003,0.53,2.234,0.894,3.69,1.093V3.44z M147.858,5.43c-1.234-0.176-2.248-0.387-3.041-0.633c-0.793-0.246-1.76-0.65-2.9-1.213
			v7.868L147.858,5.43z"/>
		<path d="M182.847,0.353h0.776c-0.049,1.036-0.207,1.824-0.477,2.366c-0.377,0.718-0.935,1.289-1.675,1.712
			c-0.74,0.424-1.558,0.636-2.45,0.636c-0.952,0-2.087-0.259-3.402-0.777v4.679h5.518l-1.015,2.63h-4.503v8.389
			c0,1.66-0.116,2.871-0.345,3.63c-0.229,0.759-0.678,1.486-1.348,2.181c-0.669,0.695-1.51,1.278-2.52,1.749
			c-1.444,0.683-2.607,1.171-3.488,1.465l-7.383,2.482c-2.327-0.871-3.679-1.306-4.055-1.306c-0.329,0-0.623,0.116-0.881,0.348
			c-0.259,0.232-0.441,0.61-0.547,1.135l-0.748-0.178c0-0.815,0.1-1.458,0.3-1.931c0.317-0.757,0.764-1.33,1.34-1.719
			c0.575-0.391,1.192-0.585,1.851-0.585c0.929,0,2.127,0.318,3.597,0.954c1.033,0.458,1.665,0.724,1.894,0.794
			c0.229,0.071,0.451,0.106,0.662,0.106c0.363,0,0.698-0.15,1.005-0.451c0.305-0.3,0.502-0.759,0.59-1.377
			c0.088-0.617,0.133-1.903,0.133-3.857V11.599l-1.095-0.018c-1.812,0-3.156,0.209-4.033,0.627c-0.876,0.418-1.633,1.121-2.268,2.11
			l-0.678-0.292c0.47-1.55,1.087-2.667,1.851-3.348c1.293-1.152,3.085-1.727,5.377-1.727c0.187,0,0.469,0.006,0.846,0.018v-3.76
			l1.218,0.053c1.317,0,2.617-0.268,3.899-0.803c1.281-0.536,2.358-1.174,3.229-1.916c0.576-0.506,1.188-1.235,1.835-2.189
			c1.925,1.236,3.504,1.854,4.736,1.854c0.54,0,0.998-0.144,1.374-0.433C182.342,1.486,182.636,1.012,182.847,0.353z M172.005,5.014
			c-0.788,0.424-1.688,0.748-2.697,0.971v14.224c0,0.494-0.047,1.424-0.141,2.788c-0.059,0.8-0.152,1.406-0.281,1.818
			c-0.199,0.611-0.492,1.191-0.878,1.738s-1.042,1.256-1.967,2.126c1.536-0.565,2.763-1.262,3.677-2.091
			c0.914-0.829,1.524-1.724,1.829-2.682c0.306-0.958,0.458-2.397,0.458-4.315V5.014z"/>
		<path d="M211.391,2.313l0.317,0.582l-6.438,4.767c1.26,0,2.548,0.318,3.861,0.954c1.314,0.636,2.308,1.518,2.979,2.648
			c0.672,1.13,1.008,2.313,1.008,3.548c0,1.965-0.679,3.857-2.036,5.676s-3.291,3.316-5.8,4.493
			c-2.51,1.177-4.875,1.765-7.096,1.765c-2.128,0-4.069-0.477-5.827-1.43c-1.757-0.954-3.056-2.148-3.896-3.584
			c-0.841-1.436-1.261-3.018-1.261-4.749c0-1.942,0.471-3.749,1.411-5.42s2.687-3.519,5.239-5.543l7.127-5.667
			c1.984,0.965,3.534,1.607,4.65,1.924c1.115,0.317,2.213,0.477,3.293,0.477C209.734,2.754,210.557,2.606,211.391,2.313z
			 M194.308,6.655c-1.352,1.389-2.301,2.695-2.847,3.919c-0.547,1.225-0.82,2.648-0.82,4.273c0,1.306,0.18,2.459,0.538,3.46
			c0.358,1,0.891,1.965,1.596,2.895c0.67-0.612,1.093-1.129,1.269-1.554c0.177-0.423,0.265-1.212,0.265-2.365V6.655z
			 M200.302,11.692c-0.94,0.452-1.716,0.909-2.327,1.372v2.968c0,0.907-0.064,1.516-0.194,1.828
			c-0.129,0.312-0.404,0.639-0.827,0.98c-0.259,0.201-0.469,0.365-0.634,0.494l-3.029,2.544c1.057,1.117,2.132,1.942,3.225,2.478
			c1.092,0.535,2.354,0.843,3.787,0.925V11.692z M198.274,3.407l-0.3,0.3v8.351l8.246-6.215
			C203.648,5.196,200.999,4.384,198.274,3.407z M201.077,15.588c0.823,0.565,1.575,0.965,2.257,1.2
			c0.682,0.236,1.434,0.353,2.257,0.353c0.752,0,1.445-0.094,2.08-0.282c0.635-0.188,1.439-0.559,2.415-1.112
			c-0.294-1.233-0.835-2.232-1.622-2.996c-1.281-1.246-2.879-1.869-4.795-1.869c-0.812,0-1.675,0.159-2.592,0.477V15.588z
			 M201.077,20.496c1.47-0.789,2.862-1.183,4.179-1.183c1.269,0,2.614,0.359,4.037,1.078c0.599-1.248,0.898-2.437,0.898-3.567
			v-0.229c-1.058,0.537-1.909,0.894-2.556,1.073s-1.352,0.268-2.116,0.268c-0.729,0-1.463-0.113-2.203-0.339
			c-0.74-0.227-1.487-0.561-2.239-1.002V20.496z M201.077,25.263c1.093-0.059,1.986-0.212,2.68-0.459
			c1.058-0.365,2.057-0.895,2.997-1.589c0.705-0.518,1.422-1.236,2.15-2.154c-1.422-0.588-2.68-0.882-3.772-0.882
			c-1.328,0-2.68,0.389-4.055,1.165V25.263z"/>
		<path d="M239.791,0l0.344,0.75c-1.558,0.542-2.707,1.088-3.449,1.641c-0.744,0.552-1.227,1.134-1.451,1.745
			c-0.224,0.612-0.336,1.604-0.336,2.98v3.65l6.874-5.526c1.445,0.918,2.539,1.783,3.279,2.596c0.741,0.812,1.232,1.625,1.474,2.437
			c0.24,0.813,0.361,2.142,0.361,3.99v2.631c0,1.377-0.085,2.401-0.256,3.072c-0.17,0.671-0.514,1.336-1.031,1.995
			c-0.752,0.965-2.045,2.172-3.878,3.619c-1.316,1.036-2.128,1.754-2.434,2.154c-0.306,0.4-0.458,0.741-0.458,1.024
			c0,0.153,0.059,0.288,0.176,0.406c0.118,0.118,0.282,0.176,0.494,0.176c0.129,0,0.309-0.026,0.538-0.079
			c0.229-0.053,0.408-0.079,0.537-0.079c0.306,0,0.535,0.076,0.688,0.229c0.153,0.153,0.229,0.365,0.229,0.636
			c0,0.33-0.13,0.6-0.388,0.812c-0.353,0.294-0.782,0.441-1.287,0.441c-0.541,0-1.005-0.215-1.393-0.645
			c-0.388-0.429-0.582-0.95-0.582-1.563c0-0.424,0.144-0.92,0.432-1.492c0.288-0.57,1.002-1.559,2.143-2.965
			c1.14-1.407,1.877-2.472,2.212-3.195c0.335-0.725,0.567-1.604,0.696-2.64c-1.457-0.683-2.779-1.024-3.966-1.024
			c-1.517,0-3.015,0.347-4.496,1.042c-1.48,0.694-3.19,1.925-5.13,3.69c0.812-0.035,1.417-0.053,1.817-0.053
			c0.93,0,2.177,0.077,3.74,0.229c0.436,0.047,0.818,0.071,1.147,0.071c0.577,0,1.091-0.141,1.544-0.424s0.915-0.765,1.386-1.448
			l0.767,0.433l-3.94,5.535c-1.611-0.683-3.014-1.165-4.207-1.448s-2.401-0.423-3.625-0.423c-1.376,0-2.6,0.167-3.669,0.503
			c-1.07,0.335-1.822,0.762-2.259,1.28c-0.329,0.4-0.493,0.759-0.493,1.077c0,0.224,0.141,0.547,0.423,0.971
			c0.2,0.282,0.3,0.553,0.3,0.812c0,0.294-0.088,0.536-0.265,0.724c-0.176,0.188-0.376,0.283-0.599,0.283
			c-0.282,0-0.559-0.159-0.829-0.477c-0.271-0.318-0.405-0.707-0.405-1.166c0-0.553,0.15-1.097,0.451-1.633
			c0.301-0.535,0.967-1.324,1.999-2.365s1.701-1.845,2.008-2.41s0.46-1.118,0.46-1.659c0-0.412-0.111-0.736-0.336-0.971
			c-0.224-0.235-0.524-0.353-0.901-0.353c-0.707,0-1.279,0.506-1.715,1.519l-0.785-0.009c0.106-0.928,0.3-1.632,0.582-2.114
			c0.282-0.481,0.711-0.892,1.287-1.232c0.446-0.259,1.046-0.417,1.798-0.476c-0.059-1.424-0.342-2.41-0.851-2.957
			c-0.51-0.547-1.237-0.821-2.185-0.821c-0.584,0-1.047,0.108-1.386,0.327c-0.34,0.217-0.679,0.633-1.018,1.244l-0.679-0.203
			c0.142-0.763,0.335-1.338,0.582-1.726c0.388-0.576,0.905-1.024,1.551-1.347c0.646-0.323,1.334-0.485,2.063-0.485
			c0.446,0,0.963,0.03,1.551,0.088c-0.035-0.553-0.053-1.017-0.053-1.394c0-1.412,0.388-2.758,1.163-4.041
			c0.564-0.917,1.511-1.875,2.839-2.875c-1.316,0.42-2.204,0.631-2.662,0.631c-0.399,0-1.457-0.153-3.173-0.459
			c-0.67-0.129-1.117-0.194-1.34-0.194c-0.412,0-0.785,0.173-1.12,0.521s-0.584,0.98-0.749,1.898h-0.899
			c0.188-1.083,0.447-1.913,0.777-2.489c0.517-0.859,1.163-1.521,1.938-1.986c0.777-0.465,1.559-0.697,2.347-0.697
			c0.471,0,1.294,0.17,2.471,0.512c1.175,0.341,2.11,0.512,2.804,0.512c1.411,0,2.987-0.447,4.728-1.342l0.379,0.75
			c-2.393,0.93-4.038,2.083-4.933,3.459c-0.59,0.906-0.885,2.388-0.885,4.447v8.241c0,1.458-0.149,2.591-0.446,3.397
			c-0.299,0.806-0.962,1.851-1.99,3.132c1.43-0.812,2.525-1.632,3.287-2.462c0.763-0.83,1.245-1.606,1.451-2.331
			c0.204-0.724,0.308-1.974,0.308-3.751V8.88c0-1.872,0.214-3.26,0.645-4.166c0.429-0.907,1.173-1.707,2.231-2.401
			S237.097,0.847,239.791,0z M234.898,11.793v0.794c1.54,0.612,2.968,0.918,4.284,0.918c0.787,0,1.478-0.077,2.071-0.23
			c0.594-0.152,1.284-0.429,2.071-0.829c-0.211-0.872-0.594-1.633-1.146-2.287c-0.553-0.653-1.434-1.321-2.645-2.004L234.898,11.793
			z M234.898,17.901c1.446-0.612,2.821-0.918,4.126-0.918c0.717,0,1.384,0.064,2,0.191c0.617,0.126,1.385,0.369,2.301,0.727v-4.537
			c-0.881,0.376-1.622,0.633-2.221,0.769c-0.6,0.135-1.27,0.203-2.01,0.203c-1.34,0-2.738-0.289-4.196-0.865V17.901z"/>
		<path d="M272.17,0l0.309,0.609c-1.234,0.365-2.087,0.85-2.557,1.456c-0.47,0.606-0.705,1.421-0.705,2.444
			c0,1.271,0.276,3.518,0.828,6.742c0.447,2.6,0.711,4.244,0.794,4.932c0.082,0.688,0.123,1.403,0.123,2.145
			c0,1.87-0.347,3.433-1.04,4.686s-1.58,2.167-2.661,2.744s-2.062,0.864-2.942,0.864c-0.928,0-2.473-0.341-4.634-1.024
			c-1.715-0.529-2.937-0.794-3.665-0.794c-0.728,0-1.345,0.186-1.851,0.556c-0.505,0.371-0.88,0.92-1.127,1.651l-0.679-0.274
			c0.282-1.104,0.652-1.962,1.11-2.573c0.6-0.799,1.237-1.357,1.913-1.674c0.676-0.317,1.66-0.511,2.953-0.582
			c1.293-0.071,2.174-0.348,2.645-0.83c0.47-0.471,0.705-1.219,0.705-2.243c0-2.06-0.405-3.625-1.215-4.695
			c-0.588-0.777-1.362-1.166-2.324-1.166c-0.398,0-0.807,0.085-1.223,0.256c-0.418,0.17-0.978,0.515-1.682,1.033l-0.521-0.432
			c0.623-1.056,1.352-1.852,2.186-2.385c0.835-0.535,1.811-0.801,2.927-0.801c0.165,0,0.364,0.006,0.6,0.018
			c0.035-1.918,0.309-3.493,0.819-4.723c0.512-1.229,1.484-2.639,2.918-4.228c-1.397,0.671-2.29,1.068-2.677,1.191
			c-0.388,0.124-0.805,0.186-1.251,0.186c-0.364,0-0.896-0.064-1.594-0.194c-0.698-0.129-1.225-0.194-1.577-0.194
			c-0.821,0-1.449,0.182-1.885,0.547c-0.435,0.365-0.71,0.942-0.827,1.73l-0.679-0.132c0.2-1.309,0.623-2.335,1.271-3.078
			c0.916-1.038,2.146-1.556,3.687-1.556c0.447,0,0.981,0.071,1.605,0.211c1.164,0.248,2.146,0.371,2.946,0.371
			c0.623,0,1.17-0.053,1.641-0.159c0.47-0.106,1.04-0.318,1.711-0.636l0.432,0.521c-1.233,1.012-2.089,2.03-2.564,3.054
			c-0.477,1.024-0.714,2.466-0.714,4.326c0,0.976,0.035,1.83,0.105,2.56c0.023,0.33,0.176,1.4,0.458,3.213
			c0.341,2.283,0.512,3.784,0.512,4.501c0,1.342-0.405,2.384-1.216,3.125c-0.599,0.542-1.573,0.954-2.923,1.236
			c1.375,1.196,2.334,1.941,2.881,2.234c0.546,0.293,1.095,0.44,1.647,0.44c0.786,0,1.453-0.285,2-0.856
			c0.545-0.571,0.818-1.315,0.818-2.233c0-1.106-0.265-3.207-0.793-6.302c-0.635-3.648-0.952-6.379-0.952-8.191
			c0-1.695,0.237-3.045,0.713-4.052s1.183-1.833,2.121-2.48C269.776,0.612,270.809,0.247,272.17,0z"/>
		<path d="M299.374,0L300,0.583c-1.516,1.659-2.554,3.11-3.111,4.352c-0.559,1.242-0.838,2.592-0.838,4.052
			c0,0.729,0.023,2.03,0.071,3.901c0.023,0.989,0.035,2.013,0.035,3.072c0,3.26-0.406,5.696-1.216,7.309
			c-1.068,2.118-2.817,3.978-5.247,5.579c-2.01,1.33-3.778,1.994-5.306,1.994c-0.423,0-0.797-0.038-1.12-0.114
			c-0.322-0.077-0.843-0.25-1.56-0.521c-0.976-0.389-1.768-0.583-2.379-0.583c-0.518,0-0.94,0.112-1.27,0.335
			c-0.224,0.153-0.435,0.477-0.635,0.971l-0.714-0.309c0.306-1.163,0.705-2.02,1.199-2.572c0.799-0.869,1.856-1.303,3.173-1.303
			c0.553,0,1.169,0.112,1.851,0.335c0.976,0.318,1.699,0.477,2.169,0.477c0.917,0,1.66-0.292,2.23-0.874
			c0.569-0.583,0.854-1.351,0.854-2.304c0-1.307-0.452-2.589-1.355-3.849c-1.257-1.742-2.8-2.613-4.632-2.613
			c-0.34,0-0.763,0.059-1.267,0.177l-0.397-0.627c1.105-0.665,2.146-0.998,3.121-0.998c0.528,0,1.017,0.068,1.463,0.204
			c0.446,0.135,0.993,0.397,1.64,0.785c-0.13-1.047-0.341-1.842-0.634-2.383c-0.388-0.718-0.907-1.279-1.559-1.686
			c-0.651-0.406-1.281-0.608-1.892-0.608c-0.552,0-1.133,0.206-1.742,0.617l-0.485-0.608c0.67-0.556,1.281-0.943,1.834-1.163
			c0.552-0.22,1.169-0.33,1.851-0.33c0.905,0,1.904,0.312,2.997,0.936c0.047-1.342,0.224-2.41,0.528-3.204
			c0.306-0.794,0.87-1.618,1.693-2.471c0.822-0.854,2.156-1.875,4.001-3.063c-1.681,0.53-3.085,0.794-4.213,0.794
			c-1.164,0-2.456-0.255-3.879-0.768c-1.422-0.512-2.515-0.768-3.278-0.768c-0.999,0-1.787,0.239-2.362,0.715
			c-0.576,0.477-0.864,0.962-0.864,1.457c0,0.153,0.044,0.277,0.133,0.371c0.088,0.094,0.196,0.142,0.326,0.142
			c0.117,0,0.296-0.053,0.537-0.159c0.241-0.105,0.455-0.159,0.644-0.159c0.399,0,0.74,0.144,1.022,0.433s0.423,0.645,0.423,1.068
			c0,0.471-0.155,0.865-0.467,1.183s-0.708,0.477-1.19,0.477c-0.622,0-1.172-0.268-1.648-0.804
			c-0.476-0.535-0.714-1.244-0.714-2.127c0-1.283,0.588-2.46,1.763-3.531c1.175-1.071,2.613-1.606,4.316-1.606
			c1.07,0,2.879,0.288,5.428,0.865c2.044,0.471,3.648,0.707,4.812,0.707c1.093,0,2.023-0.135,2.793-0.406
			C297.703,1.106,298.517,0.647,299.374,0z M296.854,2.497c-1.667,0.812-2.895,1.594-3.68,2.347
			c-1.045,1.023-1.832,2.208-2.359,3.555c-0.529,1.347-0.793,3.184-0.793,5.514l0.106,7.816c0,1.918-0.24,3.412-0.721,4.482
			c-0.34,0.776-1.066,1.605-2.18,2.488c1.303-0.541,2.241-1.035,2.816-1.482c0.798-0.624,1.426-1.432,1.883-2.426
			c0.457-0.994,0.687-2.256,0.687-3.785l-0.123-8.01c0-2.399,0.404-4.517,1.213-6.352C294.255,5.373,295.305,3.99,296.854,2.497z"/>
		<path d="M16.986,36.155l0.679,0.415c-0.988,1.67-1.689,3.146-2.106,4.427c-0.416,1.281-0.69,2.781-0.821,4.498l6.761-5.367
			l4.103,4.792l-7.017,4.999c1.08,0.578,2.022,1.293,2.826,2.147s1.74,2.188,2.808,4.001c1.069,1.813,1.72,2.847,1.955,3.1
			s0.464,0.38,0.687,0.38c0.223,0,0.563-0.229,1.021-0.688l0.916-0.865l0.556,0.662L24.972,62.9
			c-0.612-0.424-1.094-0.862-1.447-1.315c-0.353-0.454-1.123-1.745-2.312-3.875L16.66,62.9c-1.41-0.624-2.684-1.071-3.824-1.341
			c-1.139-0.271-2.308-0.406-3.506-0.406c-1.175,0-2.326,0.132-3.453,0.397c-1.128,0.264-2.426,0.715-3.894,1.35L1.41,62.08
			c2.304-1.834,3.955-3.462,4.954-4.885c0.494-0.706,0.74-1.387,0.74-2.046c0-0.624-0.205-1.141-0.616-1.552
			c-0.41-0.412-0.897-0.618-1.459-0.618c-0.516,0-0.974,0.265-1.372,0.794l-0.626-0.292c0.211-0.697,0.567-1.237,1.066-1.621
			c0.5-0.384,1.067-0.577,1.701-0.577c0.412,0,0.84,0.083,1.287,0.248c0.447,0.165,0.911,0.417,1.393,0.759
			c0.023-0.376,0.035-0.706,0.035-0.989c0-1.259-0.364-2.277-1.091-3.054c-0.727-0.776-1.602-1.165-2.623-1.165
			c-0.586,0-1.173,0.265-1.76,0.794l-0.59-0.238c0.282-0.756,0.699-1.326,1.251-1.71c0.552-0.384,1.193-0.576,1.921-0.576
			c0.388,0,0.808,0.08,1.261,0.239c0.452,0.158,0.931,0.397,1.437,0.715c-0.023-0.495-0.035-0.924-0.035-1.289
			c0-1.093,0.223-2.056,0.669-2.891c0.446-0.834,1.72-2.35,3.821-4.547c-1.245,0.72-2.228,1.201-2.949,1.443
			c-0.722,0.242-1.435,0.363-2.139,0.363c-0.376,0-0.863-0.056-1.462-0.167C5.626,39.106,5.199,39.05,4.94,39.05
			c-0.857,0-1.582,0.221-2.174,0.662c-0.593,0.441-1.159,1.18-1.699,2.215l-0.59-0.132c0.246-1.191,0.546-2.08,0.898-2.67
			c0.552-0.942,1.242-1.674,2.07-2.192c0.828-0.519,1.665-0.778,2.511-0.778c0.658,0,1.474,0.153,2.449,0.458
			c0.975,0.306,1.773,0.459,2.396,0.459c1.022,0,2.12-0.306,3.294-0.917l0.644,0.415c-0.963,1.412-1.689,3.027-2.177,4.845
			s-0.731,3.579-0.731,5.285l0.07,5.029c0,0.753-0.117,1.444-0.352,2.073c-0.235,0.63-0.573,1.195-1.013,1.694
			c-0.44,0.5-0.714,0.798-0.819,0.891l-5.18,4.341c0.904-0.482,1.874-0.947,2.907-1.395c1.879-0.8,3.222-1.495,4.026-2.083
			c0.805-0.588,1.424-1.338,1.859-2.25c0.434-0.912,0.652-2.068,0.652-3.469l-0.071-5.491c0-1.33,0.231-2.845,0.694-4.546
			S15.861,38.015,16.986,36.155z M20.825,57.022c-1.094-1.754-2.105-2.958-3.035-3.611c-0.929-0.653-1.946-1.003-3.052-1.05
			c-0.035,1.33-0.297,2.436-0.784,3.319c-0.488,0.882-1.308,1.73-2.459,2.542c1.811,0.094,3.145,0.248,4.003,0.459
			c0.858,0.212,1.811,0.588,2.857,1.131L20.825,57.022z M19.208,42.932l-4.47,3.593v0.53l0.035,2.813l-0.035,1.716l7.404-5.226
			L19.208,42.932z"/>
		<path d="M56.791,36.155l0.432,0.645c-1.352,0.2-2.362,0.591-3.032,1.173c-0.67,0.583-1.005,1.445-1.005,2.586
			c0,0.624,0.064,1.524,0.194,2.701c0.235,2.024,0.353,3.678,0.353,4.96c0,1.73-0.385,3.246-1.155,4.546
			c-0.77,1.301-2.571,3.164-5.403,5.587c1.855-0.606,3.523-0.909,5.003-0.909c1.35,0,2.563,0.186,3.637,0.557
			c1.075,0.372,2.27,1.018,3.585,1.938l1.767-1.591l0.517,0.614L57.108,62.9c-1.244-0.93-2.486-1.609-3.725-2.039
			c-1.238-0.43-2.686-0.645-4.341-0.645c-1.538,0-2.985,0.182-4.341,0.547s-3.103,1.077-5.239,2.136L39.1,62.397
			c2.127-1.575,3.538-2.836,4.231-3.783c0.693-0.947,1.04-1.837,1.04-2.672c0-0.8-0.252-1.467-0.757-2.002
			c-0.504-0.535-1.084-0.803-1.741-0.803c-0.328,0-0.703,0.101-1.125,0.3l-0.538-0.521c0.435-0.385,0.834-0.654,1.199-0.805
			c0.364-0.152,0.788-0.228,1.27-0.228c0.282,0,0.57,0.038,0.864,0.114c0.294,0.077,0.587,0.198,0.881,0.362
			c0.023-0.271,0.035-0.488,0.035-0.653c0-0.753-0.281-1.407-0.845-1.959c-0.563-0.553-1.255-0.83-2.076-0.83
			c-0.587,0-1.19,0.236-1.813,0.706L39.1,49.192c0.435-0.574,0.882-0.978,1.34-1.212c0.729-0.387,1.504-0.58,2.327-0.58
			c0.176,0,0.37,0.016,0.582,0.049c0.211,0.032,0.435,0.081,0.67,0.146c-0.071-0.72-0.106-1.32-0.106-1.804
			c0-1.427,0.214-2.642,0.644-3.644c0.429-1.003,1.167-2.046,2.212-3.131c-1.126,0.4-2.082,0.6-2.868,0.6
			c-0.774,0-1.753-0.183-2.938-0.547c-0.54-0.165-0.968-0.247-1.285-0.247c-0.61,0-1.124,0.194-1.54,0.581
			c-0.417,0.387-0.625,0.851-0.625,1.39c0,0.2,0.053,0.435,0.159,0.704l-0.767,0.274c-0.135-0.553-0.203-1.012-0.203-1.377
			c0-1.142,0.44-2.133,1.319-2.975c0.88-0.841,1.936-1.262,3.167-1.262c0.563,0,1.433,0.211,2.612,0.636
			c1.179,0.423,2.097,0.635,2.754,0.635c1.196,0,2.333-0.423,3.413-1.271l0.52,0.645c-1.169,0.882-1.99,1.753-2.463,2.611
			c-0.473,0.859-0.71,1.9-0.71,3.124c0,0.906,0.059,1.953,0.176,3.141c0.235,2.235,0.353,3.753,0.353,4.553
			c0,1.706-0.275,3.25-0.826,4.632c-0.55,1.383-1.545,2.98-2.985,4.792c2.192-1.565,3.766-3.172,4.722-4.82
			c0.955-1.647,1.433-3.501,1.433-5.561c0-1.165-0.082-2.445-0.247-3.839c-0.165-1.395-0.247-2.569-0.247-3.522
			c0-0.847,0.199-1.683,0.598-2.507c0.397-0.824,0.924-1.471,1.58-1.942c0.656-0.47,1.382-0.812,2.178-1.023
			C54.648,36.284,55.562,36.19,56.791,36.155z"/>
		<path d="M102.545,37.691l0.546,0.565c-0.775,0.859-1.269,1.562-1.48,2.11c-0.212,0.547-0.317,1.374-0.317,2.48v13.646
			c0,1.4,0.118,2.28,0.354,2.64c0.237,0.359,0.55,0.538,0.94,0.538c0.319,0,0.781-0.271,1.385-0.812l0.511,0.688l-4.275,3.354
			c-1.026-0.518-1.719-1.115-2.079-1.792c-0.359-0.677-0.539-1.862-0.539-3.557V40.676l-2.96-2.277l-1.165,0.739v8.774H95.6
			l-2.133,2.648v7.438l1.38-1.13l0.524,0.569L88.856,62.9c-0.985-1.177-1.783-2.036-2.392-2.577
			c-0.446-0.389-0.974-0.742-1.583-1.06v-0.635c0.553-0.188,0.917-0.488,1.093-0.9c0.129-0.306,0.194-1.024,0.194-2.154v-5.014
			h-5.359v7.609c0,2.095-0.531,3.708-1.593,4.837c-1.062,1.13-2.45,1.695-4.163,1.695c-0.375,0-1.044-0.071-2.006-0.212
			c-0.657-0.094-1.132-0.141-1.426-0.141c-0.599,0-1.036,0.135-1.312,0.406c-0.276,0.271-0.414,0.729-0.414,1.377h-0.687
			c-0.141-0.506-0.211-0.93-0.211-1.271c0-0.635,0.165-1.232,0.494-1.792s0.77-0.974,1.322-1.245
			c0.423-0.211,1.199-0.371,2.327-0.476c1.128-0.106,1.963-0.462,2.503-1.068c0.541-0.606,0.811-1.444,0.811-2.516
			c0-1.683-0.394-3.069-1.18-4.157c-0.787-1.089-1.737-1.633-2.852-1.633c-0.869,0-1.585,0.412-2.148,1.236l-0.644-0.274
			c0.318-0.869,0.687-1.538,1.106-2.007c0.418-0.47,0.982-0.839,1.689-1.11c0.519-0.199,1.273-0.305,2.264-0.316
			c-0.012-0.353-0.018-0.618-0.018-0.794c0-1.978,0.394-3.643,1.183-4.997c0.789-1.353,2.026-2.598,3.713-3.733
			s4.11-2.41,7.272-3.822c1.115,0.6,1.869,1.2,2.263,1.8c0.393,0.601,0.613,1.471,0.66,2.613l6.902-4.413l4.222,3.16L102.545,37.691
			z M80.68,40.321c-1.013,0.8-1.67,1.563-1.973,2.286s-0.454,1.986-0.454,3.787v9.992c0,1.636-0.208,2.784-0.623,3.443
			c-0.416,0.659-1.221,1.229-2.415,1.712c0.527,0.035,0.973,0.053,1.336,0.053c0.867,0,1.574-0.15,2.119-0.451
			c0.545-0.299,0.902-0.67,1.072-1.112c0.17-0.441,0.255-1.215,0.255-2.321V44.399c0-1.012,0.062-1.853,0.187-2.524
			C80.264,41.463,80.429,40.945,80.68,40.321z M86.168,47.912v-5.261c0-1.282-0.166-2.212-0.495-2.789
			c-0.331-0.577-0.92-1.042-1.769-1.395c-0.814,0.413-1.392,0.789-1.734,1.13c-0.459,0.482-0.801,1.059-1.026,1.73
			c-0.224,0.67-0.336,1.636-0.336,2.895v5.596l1.468-1.907H86.168z M92.691,39.665l-2.927,1.909v6.338h2.927V39.665z M92.691,50.561
			h-2.927v4.58c0,1.58,0.107,2.594,0.32,3.042c0.343,0.766,0.805,1.149,1.386,1.149c0.302,0,0.709-0.23,1.221-0.69V50.561z"/>
		<path d="M134.95,36.155c2.055,0.506,3.658,1.129,4.808,1.871c1.55,1,2.728,2.224,3.532,3.671c0.804,1.448,1.207,2.989,1.207,4.625
			c0,1.153-0.198,2.3-0.59,3.442s-1.036,2.401-1.928,3.777c-0.317,0.494-1.855,2.583-4.614,6.267
			c1.41-0.622,2.824-0.933,4.245-0.933c0.61,0,1.13,0.044,1.56,0.132c0.428,0.088,0.754,0.133,0.977,0.133
			c0.199,0,0.384-0.092,0.553-0.274c0.169-0.183,0.545-0.838,1.128-1.969l0.856,0.327l-3.024,5.676
			c-1.598-0.541-2.92-0.812-3.966-0.812c-1.187,0-2.163,0.229-2.926,0.688c-0.764,0.459-1.504,1.26-2.221,2.401l-0.714-0.362
			c0.4-1.199,1.117-2.693,2.151-4.48c1.704-2.929,2.979-5.328,3.826-7.198c-1.07-0.706-2.045-1.209-2.927-1.509
			c-0.881-0.3-1.815-0.45-2.803-0.45c-0.823,0-1.596,0.103-2.318,0.309s-1.572,0.58-2.547,1.121v3.107
			c0,1.895-0.097,3.249-0.291,4.061s-0.628,1.639-1.304,2.48c-0.676,0.841-1.545,1.542-2.607,2.101
			c-1.063,0.559-2.165,0.838-3.304,0.838c-0.458,0-0.911-0.047-1.357-0.141c-0.259-0.047-0.996-0.25-2.212-0.609
			c-1.216-0.359-1.9-0.556-2.053-0.592c-0.329-0.059-0.681-0.088-1.057-0.088c-0.552,0-1.042,0.076-1.472,0.229
			c-0.428,0.153-0.937,0.43-1.524,0.83l-0.502-0.441c1.199-2.13,2.827-3.195,4.883-3.195c0.834,0,1.916,0.147,3.244,0.441
			c0.811,0.176,1.363,0.265,1.657,0.265c0.635,0,1.181-0.255,1.64-0.767c0.458-0.51,0.688-1.17,0.688-1.98
			c0-1.033-0.355-1.902-1.065-2.606c-0.71-0.704-1.582-1.056-2.614-1.056c-0.681,0-1.408,0.289-2.183,0.865l-0.502-0.451
			c0.529-0.661,1.052-1.138,1.569-1.428c0.517-0.29,1.099-0.435,1.745-0.435c0.376,0,0.767,0.065,1.172,0.195
			c0.405,0.129,0.826,0.324,1.26,0.582c-0.2-1.036-0.552-1.83-1.056-2.383c-0.88-0.965-1.984-1.448-3.31-1.448
			c-0.563,0-1.027,0.059-1.391,0.177c-0.281,0.094-0.634,0.3-1.056,0.618l-0.432-0.627c0.635-0.644,1.217-1.091,1.746-1.344
			c0.529-0.251,1.11-0.377,1.745-0.377c0.541,0,1.04,0.08,1.499,0.239c0.458,0.159,1.075,0.497,1.851,1.015
			c0-0.953-0.156-1.709-0.467-2.269c-0.311-0.559-0.856-1.068-1.637-1.527c-0.781-0.459-1.541-0.688-2.28-0.688
			c-0.669,0-1.344,0.235-2.024,0.706l-0.432-0.591c0.529-0.574,1.022-0.966,1.481-1.176c0.576-0.292,1.199-0.439,1.869-0.439
			c0.576,0,1.111,0.086,1.604,0.256s1.122,0.509,1.886,1.015v-3.937L134.95,36.155z M128.401,40.339l-2.151,1.069v15.2
			c0,1.765-0.176,3.025-0.529,3.778s-1.034,1.478-2.045,2.172c1.21-0.095,2.086-0.335,2.627-0.724
			c0.799-0.565,1.349-1.256,1.648-2.075c0.3-0.818,0.45-2.215,0.45-4.193V40.339z M129.212,45.653
			c1.117,0.647,2.08,1.097,2.891,1.351c0.811,0.253,1.657,0.379,2.539,0.379c0.999,0,1.948-0.157,2.847-0.473
			c0.899-0.315,1.948-0.876,3.147-1.681c-0.658-1.688-1.775-3.043-3.35-4.064c-1.575-1.021-3.344-1.532-5.307-1.532
			c-0.834,0-1.757,0.154-2.768,0.461V45.653z M129.212,51.655c1.034-0.494,1.913-0.835,2.636-1.024
			c0.723-0.188,1.501-0.282,2.335-0.282c1.058,0,2.042,0.155,2.953,0.463c0.911,0.309,1.895,0.825,2.953,1.55
			c0.329-0.835,0.576-1.636,0.741-2.401c0.165-0.765,0.247-1.495,0.247-2.189c0-0.494-0.064-1.053-0.194-1.677
			c-1.293,0.817-2.395,1.378-3.306,1.681c-0.911,0.304-1.86,0.455-2.847,0.455c-0.858,0-1.704-0.121-2.539-0.362
			c-0.834-0.241-1.828-0.668-2.979-1.28V51.655z"/>
		<path d="M170.941,36.508c2.044,0.211,3.642,0.506,4.792,0.882c1.738,0.553,3.263,1.339,4.572,2.357s2.332,2.221,3.065,3.61
			c0.734,1.389,1.102,2.896,1.102,4.52c0,1.507-0.388,2.99-1.163,4.449c-0.776,1.459-2.108,3.102-3.994,4.925
			c-1.887,1.824-3.787,3.223-5.702,4.193c-1.917,0.971-3.79,1.457-5.624,1.457c-1.964,0-3.86-0.488-5.694-1.465
			c-1.833-0.977-3.249-2.321-4.248-4.034s-1.499-3.604-1.499-5.676c0-1.188,0.124-2.333,0.37-3.434
			c0.247-1.101,0.676-2.375,1.287-3.822c1.164-0.577,2.528-1.371,4.092-2.383c0.836-0.553,2.946-1.895,6.334-4.025
			C169.313,37.638,170.083,37.12,170.941,36.508z M163.617,42.228c-1,0.741-1.717,1.365-2.15,1.871
			c-0.577,0.67-1.058,1.489-1.445,2.454c-0.388,0.965-0.582,2.024-0.582,3.177c0,2.495,0.956,4.819,2.869,6.973
			c0.542-0.506,0.896-1.009,1.062-1.51c0.164-0.5,0.247-1.479,0.247-2.938V42.228z M169.594,40.021
			c-0.8-0.047-1.587-0.083-2.362-0.106v10.435c0,1.13-0.077,1.919-0.229,2.367c-0.152,0.447-0.435,0.912-0.846,1.395l-3.259,3.143
			c1.104,0.941,2.147,1.608,3.127,2.001c0.981,0.395,2.171,0.638,3.569,0.732V40.021z M170.352,44.734
			c0.847,0.73,1.647,1.257,2.405,1.581c0.759,0.324,1.584,0.485,2.479,0.485c0.821,0,1.582-0.162,2.281-0.485
			c0.7-0.324,1.438-0.851,2.214-1.581c-0.67-0.871-1.294-1.518-1.869-1.941c-1.058-0.765-2.195-1.365-3.412-1.801
			c-1.216-0.436-2.581-0.741-4.098-0.918V44.734z M170.352,52.097c0.834-0.824,1.612-1.401,2.335-1.73
			c0.723-0.33,1.562-0.495,2.514-0.495c0.998,0,1.896,0.177,2.697,0.53c0.798,0.353,1.656,0.965,2.573,1.836
			c0.317-1.165,0.477-2.177,0.477-3.037c0-0.789-0.061-1.477-0.177-2.065c-0.095-0.436-0.289-0.977-0.582-1.624
			c-1.022,0.824-1.91,1.386-2.662,1.686c-0.753,0.3-1.586,0.451-2.503,0.451c-0.835,0-1.6-0.139-2.292-0.415
			c-0.694-0.276-1.487-0.774-2.38-1.492V52.097z M170.352,59.988c1.481-0.083,2.685-0.324,3.614-0.724
			c1.41-0.6,2.632-1.427,3.667-2.48c1.033-1.054,1.886-2.328,2.556-3.822c-1.621-1.53-3.278-2.295-4.971-2.295
			c-0.987,0-1.929,0.265-2.821,0.794c-0.659,0.376-1.34,1.012-2.045,1.907V59.988z"/>
		<path d="M207.478,36.791h0.812v3.192l4.892-3.192c2.477,1.565,4.188,2.818,5.133,3.76s1.567,1.824,1.867,2.648
			c0.299,0.824,0.448,2.036,0.448,3.637v11.246l-5.421,4.819c-1.447-0.588-2.701-1.018-3.76-1.289
			c-1.059-0.271-2.112-0.447-3.159-0.53v6.903h-6.576v-7.221c-1.761,0.106-3.216,0.371-4.367,0.795
			c-1.15,0.423-2.307,1.1-3.469,2.03l-0.573-0.697c1.61-1.751,2.997-2.978,4.16-3.683c1.164-0.705,2.58-1.228,4.249-1.569
			c-0.012-1.601-0.218-2.886-0.617-3.857c-0.399-0.971-1.122-1.854-2.168-2.648s-2.38-1.409-4.002-1.845v-0.741
			c0.833-0.414,1.572-0.834,2.218-1.26l4.569-3.006v-1.233c0-1.151-0.111-1.994-0.335-2.528c-0.224-0.534-0.64-0.978-1.25-1.33
			c-0.609-0.353-1.284-0.528-2.024-0.528c-0.81,0-1.714,0.3-2.711,0.9l-0.467-0.556c0.822-0.762,1.631-1.322,2.424-1.679
			c0.794-0.357,1.672-0.536,2.636-0.536c1.069,0,2.042,0.226,2.918,0.68c0.875,0.453,1.498,1.018,1.868,1.694
			s0.567,1.592,0.591,2.745l2.115-1.446V36.791z M201.713,45.272l-3.843,2.552c0.799,0.353,1.48,0.727,2.045,1.121
			c0.563,0.395,1.163,0.916,1.798,1.563V45.272z M207.478,41.445l-2.115,1.404v24.359h2.115V41.445z M208.289,46.642
			c0.881,0.595,1.647,1.006,2.3,1.231c0.652,0.226,1.349,0.339,2.09,0.339c0.74,0,1.442-0.113,2.106-0.339
			c0.664-0.226,1.442-0.636,2.336-1.231c-0.012-1.012-0.165-1.853-0.458-2.523c-0.294-0.671-0.918-1.394-1.874-2.171
			c-0.956-0.776-2.361-1.629-4.215-2.559l-2.285,1.517V46.642z M208.289,53.05c0.939-0.518,1.742-0.877,2.406-1.077
			c0.664-0.2,1.343-0.3,2.036-0.3s1.36,0.098,2.001,0.292c0.641,0.194,1.437,0.556,2.389,1.086v-5.491
			c-0.976,0.573-1.79,0.957-2.442,1.153c-0.651,0.196-1.36,0.295-2.124,0.295c-0.729,0-1.398-0.09-2.01-0.269
			c-0.611-0.179-1.363-0.531-2.256-1.056V53.05z M208.289,57.64c1.387,0.047,2.753,0.25,4.099,0.609s2.923,0.968,4.733,1.827v-6.02
			c-0.882-0.601-1.646-1.009-2.292-1.227s-1.346-0.327-2.098-0.327c-0.753,0-1.455,0.109-2.107,0.327
			c-0.651,0.218-1.431,0.626-2.335,1.227V57.64z"/>
		<path d="M251.636,59.935c-2.785,1.978-5.482,2.966-8.092,2.966c-1.951,0-3.843-0.488-5.677-1.465
			c-1.833-0.977-3.25-2.321-4.248-4.034c-0.999-1.712-1.499-3.604-1.499-5.676c0-1.188,0.123-2.333,0.37-3.434
			s0.676-2.375,1.287-3.822c1.164-0.577,2.528-1.371,4.093-2.383c0.835-0.553,2.946-1.895,6.333-4.025
			c0.683-0.424,1.452-0.941,2.312-1.553c2.044,0.211,3.641,0.506,4.792,0.882c1.738,0.553,3.262,1.339,4.571,2.357
			c1.31,1.018,2.331,2.221,3.066,3.61c0.733,1.389,1.101,2.896,1.101,4.52c0,1.495-0.353,2.901-1.058,4.22
			c-0.999,1.906-2.499,3.754-4.497,5.543l4.656,3.37l1.153-0.953l0.485,0.556l-3.737,3.187L251.636,59.935z M239.189,42.228
			c-0.999,0.741-1.716,1.365-2.15,1.872c-0.576,0.67-1.058,1.489-1.446,2.454c-0.388,0.965-0.581,2.024-0.581,3.178
			c0,2.495,0.957,4.819,2.873,6.973c0.541-0.506,0.894-1.009,1.058-1.51c0.165-0.5,0.247-1.479,0.247-2.939V42.228z M245.166,40.021
			c-0.8-0.047-1.587-0.083-2.362-0.106v10.435c0,1.107-0.07,1.878-0.212,2.313c-0.141,0.436-0.394,0.871-0.757,1.307
			c-0.364,0.436-1.486,1.519-3.364,3.249c1.021,0.941,2.037,1.62,3.048,2.037c1.01,0.417,2.227,0.661,3.647,0.732V40.021z
			 M245.924,44.734c0.846,0.73,1.648,1.257,2.406,1.581s1.584,0.485,2.477,0.485c0.823,0,1.584-0.162,2.283-0.485
			s1.437-0.851,2.213-1.581c-0.67-0.871-1.293-1.518-1.869-1.941c-1.058-0.765-2.194-1.365-3.411-1.801s-2.583-0.741-4.099-0.918
			V44.734z M245.924,52.097c0.834-0.824,1.613-1.401,2.336-1.73c0.723-0.33,1.56-0.495,2.512-0.495c0.999,0,1.898,0.177,2.697,0.53
			c0.8,0.353,1.657,0.965,2.574,1.836c0.317-1.165,0.476-2.177,0.476-3.037c0-0.789-0.059-1.477-0.176-2.065
			c-0.094-0.436-0.288-0.977-0.582-1.624c-1.022,0.824-1.91,1.386-2.662,1.686c-0.752,0.3-1.587,0.451-2.503,0.451
			c-0.835,0-1.599-0.139-2.292-0.415s-1.486-0.774-2.38-1.492V52.097z M245.924,59.988c1.387-0.083,2.515-0.324,3.385-0.724
			c1.462-0.6,2.729-1.427,3.802-2.48c1.072-1.054,1.956-2.328,2.65-3.822c-1.622-1.53-3.279-2.295-4.972-2.295
			c-0.987,0-1.927,0.265-2.82,0.794c-0.658,0.376-1.34,1.012-2.045,1.907V59.988z"/>
		<path d="M288.168,36.667l6.081,7.742l-5.671,3.827c1.615,0.974,2.908,2.124,3.879,3.447c0.972,1.324,1.728,3.033,2.269,5.128
			c0.247,1.012,0.5,1.753,0.76,2.224c0.176,0.306,0.506,0.669,0.99,1.087l1.759-1.493l0.608,0.635l-4.275,3.637
			c-0.859-0.541-1.476-1.118-1.854-1.729c-0.27-0.413-0.764-1.807-1.481-4.184c-0.388-1.26-0.883-2.336-1.481-3.231
			c-0.601-0.895-1.235-1.568-1.906-2.021c-0.67-0.453-1.576-0.865-2.718-1.237l-1.181,0.788v7.341c1.071,0.354,2.2,0.855,3.39,1.503
			l1.826-1.616l0.566,0.618l-4.584,3.769c-1.668-0.847-3.115-1.442-4.343-1.783s-2.464-0.512-3.709-0.512
			c-1.562,0-3.066,0.259-4.51,0.777c-0.764,0.283-1.616,0.789-2.556,1.518l-0.484-0.424c1.166-1.495,2.341-2.595,3.524-3.301
			c1.185-0.706,2.636-1.183,4.355-1.43v-0.794c0-1.142-0.146-2.075-0.441-2.798s-0.831-1.483-1.608-2.277
			c-0.778-0.794-1.598-1.445-2.457-1.951c-0.554-0.318-1.331-0.636-2.333-0.953v-0.725c0.954-0.353,2.127-1,3.517-1.941l3.323-2.224
			c0-1.519-0.105-2.604-0.318-3.258c-0.211-0.653-0.625-1.197-1.236-1.633c-0.613-0.436-1.297-0.653-2.051-0.653
			c-0.46,0-0.878,0.07-1.255,0.211c-0.377,0.142-0.843,0.406-1.396,0.794l-0.583-0.424c0.917-0.941,1.742-1.58,2.477-1.915
			s1.643-0.503,2.724-0.503c1.211,0,2.219,0.241,3.023,0.724c0.806,0.483,1.407,1.142,1.808,1.978
			c0.234,0.506,0.37,1.236,0.405,2.189L288.168,36.667z M277.423,45.07l-3.931,2.648c0.743,0.353,1.36,0.706,1.85,1.059
			c0.49,0.353,1.185,0.942,2.081,1.766V45.07z M283.135,41.117l-2.115,1.458v15.295c0.705,0.107,1.41,0.267,2.115,0.48V41.117z
			 M285.805,39.277l-1.858,1.281v9.755l6.902-4.607L285.805,39.277z"/>
		<path d="M10.763,72.663l7.952,2.663l0.589-1.04c0.214-0.376,0.365-0.608,0.454-0.696c0.089-0.088,0.193-0.132,0.312-0.132
			s0.216,0.041,0.294,0.123c0.077,0.081,0.115,0.175,0.115,0.28c0,0.167-0.146,0.495-0.437,0.984l-3.843,6.53l3.053-0.202
			c0.917-0.035,1.983,0.094,3.2,0.388s2.262,0.75,3.138,1.368c0.876,0.618,1.563,1.348,2.063,2.189
			c0.5,0.842,0.749,1.769,0.749,2.781c0,1.86-0.778,3.687-2.334,5.481s-4.324,3.687-8.305,5.676c-1.4-0.519-3.028-1.064-4.883-1.637
			c-3.309,1.515-6.026,2.272-8.154,2.272c-1.516,0-2.683-0.333-3.5-0.998C0.408,98.029,0,97.261,0,96.39
			c0-0.93,0.494-1.781,1.481-2.551c0.987-0.771,2.45-1.156,4.39-1.156c0.764,0,1.709,0.094,2.836,0.282l1.436-2.531l-2.58,0.201
			c-0.611,0.012-1.434-0.074-2.468-0.256c-1.034-0.182-1.883-0.479-2.547-0.891s-1.161-0.918-1.49-1.519
			c-0.329-0.6-0.494-1.229-0.494-1.889c0-1.047,0.371-1.978,1.111-2.79c0.47-0.518,1.246-0.982,2.327-1.395l-0.018-0.212
			c0-1.095,0.485-2.351,1.456-3.769C6.411,76.497,8.185,74.746,10.763,72.663z M11.651,97.007c-2.924-0.979-5.321-1.468-7.19-1.464
			c-0.964,0-1.728,0.212-2.292,0.636c-0.388,0.282-0.583,0.629-0.583,1.042c0,0.435,0.194,0.782,0.582,1.042
			c0.611,0.423,1.499,0.636,2.662,0.636C6.617,98.897,8.89,98.267,11.651,97.007z M13.42,84.657c-1.53,0.22-3.012,0.329-4.447,0.329
			c-1.598,0-2.732-0.188-3.402-0.565s-1.169-0.965-1.499-1.765c-0.846,0.542-1.269,1.212-1.269,2.013c0,0.729,0.329,1.33,0.987,1.8
			c0.87,0.612,2.356,0.918,4.46,0.918c0.989,0,2.247-0.09,3.773-0.269L13.42,84.657z M17.113,78.148
			c-1.841-0.916-3.278-1.529-4.31-1.841c-1.032-0.311-1.941-0.467-2.727-0.467c-1.103,0-2,0.312-2.691,0.936
			C6.692,77.4,6.347,78.13,6.347,78.966c0,0.824,0.296,1.5,0.89,2.03c0.593,0.53,1.49,0.795,2.688,0.795
			c0.788,0,2.562-0.118,5.322-0.353L17.113,78.148z M9.508,93.121c1.108,0.245,2.013,0.47,2.712,0.678
			c0.7,0.208,1.945,0.622,3.737,1.244c2.844-1.298,4.265-2.554,4.264-3.769c0-0.378-0.166-0.72-0.498-1.026
			c-0.332-0.307-0.755-0.46-1.267-0.46c-0.629,0-1.404,0.054-2.325,0.164c-2.563,0.273-4.247,0.409-5.05,0.409L9.508,93.121z
			 M12.966,87.051c2.805-0.277,4.753-0.416,5.845-0.416c1.493,0,2.632,0.339,3.42,1.017c0.787,0.677,1.181,1.488,1.181,2.431
			c0,0.825-0.385,1.626-1.155,2.405c-0.77,0.778-2.423,1.747-4.959,2.909l3.585,0.946c1.542-0.954,2.731-1.984,3.567-3.091
			c0.835-1.106,1.253-2.325,1.253-3.656c0-0.871-0.262-1.728-0.787-2.57c-0.525-0.841-1.329-1.513-2.414-2.013
			c-1.084-0.501-2.334-0.751-3.749-0.751c-1.144,0-2.605,0.109-4.385,0.326L12.966,87.051z"/>
		<path d="M58.708,72.663l0.67,0.459c-0.247,1.142-0.585,2.042-1.014,2.701c-0.429,0.659-1.058,1.18-1.887,1.562
			c-0.829,0.383-1.783,0.574-2.865,0.574c-0.576,0-1.275-0.035-2.098-0.106v17.831c1.78-0.54,3.197-1.235,4.25-2.086
			c1.054-0.851,2.031-2.074,2.934-3.669l0.679,0.327c-0.518,1.576-1.117,2.839-1.798,3.792c-1.093,1.54-2.503,2.76-4.231,3.66
			s-3.726,1.349-5.994,1.349c-2.209,0-4.278-0.424-6.205-1.271c-1.117-0.495-2.139-1.188-3.068-2.083
			c-0.928-0.895-1.689-1.978-2.283-3.249c-0.594-1.271-0.89-2.713-0.89-4.326c0-1.625,0.323-3.178,0.968-4.662
			c0.646-1.483,1.597-2.901,2.853-4.255c0.799-0.847,1.926-1.783,3.381-2.807l-2.212-0.12c-0.82-0.047-1.727,0.126-2.722,0.521
			c-0.995,0.395-1.771,0.921-2.327,1.58c-0.556,0.659-1.039,1.642-1.448,2.948l-0.679-0.397c0.399-1.669,0.916-2.968,1.55-3.897
			c0.846-1.234,1.961-2.189,3.347-2.865s2.965-1.014,4.739-1.014c1.233,0,3.412,0.259,6.535,0.777
			c3.125,0.518,5.274,0.777,6.449,0.777c0.786,0,1.388-0.121,1.805-0.362S58.086,73.546,58.708,72.663z M44.094,76.583l-0.934-0.088
			c-1.575,1.353-2.733,2.707-3.473,4.06c-0.999,1.824-1.499,3.702-1.499,5.632c0,3.295,1.352,5.984,4.055,8.067
			c0.858-0.718,1.381-1.3,1.569-1.748c0.188-0.447,0.282-1.359,0.282-2.736V76.583z M50.705,77.694
			c-1.116-0.153-2.104-0.318-2.961-0.494v10.559c0,1.236-0.05,2.022-0.15,2.358c-0.1,0.335-0.332,0.715-0.696,1.138
			c-0.658,0.73-1.973,1.884-3.946,3.461c0.987,0.481,1.786,0.804,2.396,0.969c1.058,0.281,2.074,0.422,3.049,0.422
			c0.517,0,1.286-0.064,2.308-0.194V77.694z"/>
		<path d="M91.518,73.246l0.555,0.539c-1.011,1.248-1.637,2.159-1.877,2.735c-0.241,0.577-0.361,1.424-0.361,2.541v12.565
			c0,1.741,0.146,2.841,0.439,3.3c0.292,0.459,0.638,0.688,1.037,0.688c0.304,0,0.626-0.176,0.966-0.529l0.273,1.041l-3.72,2.93
			c-1.022-0.638-1.701-1.255-2.036-1.852s-0.549-1.616-0.644-3.056c-1.869,1.783-3.631,3.047-5.289,3.792s-3.461,1.116-5.412,1.116
			c-3.585,0-6.335-1.294-8.25-3.884c-1.434-1.918-2.151-4.149-2.151-6.691c0-1.883,0.411-3.64,1.233-5.27
			c0.822-1.63,2.062-3.204,3.718-4.723c1.127-1.024,2.637-2.106,4.528-3.248c-1.48,0.365-2.59,0.547-3.33,0.547
			c-0.529,0-1.122-0.029-1.78-0.088c-0.658-0.059-1.204-0.088-1.639-0.088c-0.987,0-1.765,0.3-2.335,0.9
			c-0.569,0.6-0.854,1.43-0.854,2.489c0,0.388,0.036,0.876,0.106,1.465h-0.74c-0.141-0.835-0.212-1.518-0.212-2.048
			c0-1.871,0.488-3.357,1.463-4.458c0.976-1.1,2.127-1.651,3.455-1.651c0.376,0,0.729,0.036,1.058,0.106
			c0.211,0.047,0.914,0.286,2.106,0.715c1.193,0.43,2.266,0.645,3.217,0.645c0.846,0,1.646-0.159,2.397-0.477
			c0.388-0.165,0.834-0.494,1.34-0.989h0.811v9.887c1.207,0.659,2.35,0.989,3.428,0.989c0.563,0,1.064-0.068,1.503-0.203
			c0.44-0.135,0.982-0.397,1.627-0.786v-5.105l-1.983-1.466l-2.007,2.213l-0.593-0.558l4.249-4.74l3.749,2.701L91.518,73.246z
			 M71.517,94.251c0.788-0.836,1.302-1.619,1.543-2.35c0.241-0.73,0.361-2.032,0.361-3.905V82.75c0-1.354,0.038-2.238,0.114-2.65
			c0.077-0.412,0.268-0.884,0.573-1.414c0.529-0.918,1.439-2.131,2.732-3.64c-1.869,1.083-3.358,2.126-4.469,3.127
			c-1.11,1.001-2.024,2.262-2.741,3.781c-0.717,1.519-1.075,3.204-1.075,5.053c0,1.649,0.306,3.145,0.917,4.488
			C69.896,92.414,70.577,93.333,71.517,94.251z M78.78,74.058c-0.74,0.789-1.213,1.496-1.419,2.12
			c-0.206,0.625-0.309,1.855-0.309,3.693v8.198c0,0.895-0.064,1.561-0.194,1.996c-0.176,0.555-0.5,1.102-0.97,1.644
			c-0.682,0.79-1.904,1.826-3.667,3.11c0.846,0.577,1.639,0.983,2.38,1.219c0.74,0.235,1.616,0.354,2.626,0.354
			c0.494,0,1.011-0.042,1.551-0.124V74.058z M86.149,83.15c-0.704,0.353-1.278,0.588-1.723,0.706
			c-0.446,0.117-0.944,0.176-1.495,0.176c-1.031,0-2.145-0.294-3.34-0.882v4.113c1.254-0.541,2.385-0.812,3.393-0.812
			c0.961,0,2.016,0.265,3.165,0.794V83.15z M86.149,88.11c-1.172-0.577-2.233-0.865-3.183-0.865c-0.574,0-1.104,0.068-1.591,0.203
			c-0.487,0.135-1.082,0.397-1.785,0.786v7.856c1.172-0.247,2.242-0.597,3.209-1.05c0.967-0.454,2.083-1.145,3.349-2.074V88.11z"/>
		<path d="M107.164,78.136l11.01-5.826c2.051,2.978,3.076,6.073,3.076,9.286c0,2.413-0.528,4.62-1.585,6.621
			c-1.433,2.719-4.321,6.332-8.666,10.839c-0.762-0.506-1.425-0.856-1.988-1.051c-0.563-0.194-1.148-0.291-1.759-0.291
			c-0.715,0-1.396,0.091-2.041,0.273c-0.646,0.183-1.466,0.539-2.463,1.068l-0.538-0.468c0.945-1.776,1.578-3.166,1.898-4.172
			s0.481-1.92,0.481-2.743c0-1.247-0.346-2.251-1.039-3.017c-0.692-0.764-1.484-1.146-2.375-1.146c-0.411,0-0.736,0.062-0.977,0.186
			c-0.24,0.124-0.472,0.35-0.695,0.68l-0.59-0.433c0.282-0.797,0.688-1.386,1.216-1.768c0.529-0.381,1.146-0.571,1.851-0.571
			c0.446,0,0.87,0.073,1.269,0.22c0.4,0.147,0.935,0.457,1.604,0.927c-0.118-3.979-0.936-7.12-2.454-9.427
			c-0.847-1.295-1.759-1.942-2.736-1.942c-0.494,0-0.894,0.171-1.2,0.512c-0.412,0.458-0.718,1.276-0.918,2.454l-0.679-0.221
			c0.071-1.363,0.271-2.45,0.6-3.261s0.814-1.439,1.455-1.887c0.64-0.446,1.319-0.67,2.036-0.67c1.081,0,2.168,0.436,3.261,1.307
			C105.313,74.487,106.294,75.994,107.164,78.136z M116.09,89.946c-1.032-0.447-1.856-0.742-2.471-0.882
			c-0.616-0.142-1.299-0.212-2.05-0.212c-0.586,0-1.214,0.062-1.883,0.185c-0.668,0.124-1.378,0.315-2.128,0.574
			c-0.375,1.247-0.792,2.346-1.25,3.298c-0.762,1.576-1.678,3.169-2.745,4.78c1.268-0.962,2.348-1.625,3.24-1.989
			c1.174-0.47,2.301-0.704,3.381-0.704c0.774,0,1.667,0.159,2.676,0.476c0.819-1.083,1.458-2.019,1.914-2.807
			C115.23,91.876,115.669,90.97,116.09,89.946z M107.428,78.965c0.399,1.294,0.67,2.537,0.811,3.725
			c1.583,0.506,3.015,0.759,4.293,0.759c1.642,0,3.361-0.394,5.156-1.183c-0.094-1.274-0.34-2.5-0.739-3.68
			s-1.021-2.424-1.864-3.733L107.428,78.965z M117.688,83.15c-1.068,0.44-1.98,0.742-2.736,0.904
			c-0.757,0.163-1.575,0.243-2.455,0.243c-1.337,0-2.739-0.259-4.206-0.776c0.047,0.564,0.071,0.988,0.071,1.271
			c0,1.142-0.188,2.448-0.564,3.919c0.704-0.224,1.373-0.389,2.007-0.494c0.634-0.106,1.226-0.159,1.778-0.159
			c1.549,0,3.162,0.382,4.84,1.147C117.197,86.975,117.618,84.957,117.688,83.15z"/>
		<path d="M147.768,78.03l8.61-5.72c1.361,1.954,2.334,3.719,2.921,5.297c0.585,1.577,0.879,3.119,0.879,4.625
			c0,1.518-0.248,2.918-0.741,4.202c-0.8,2.083-1.953,4.055-3.458,5.914c-1.507,1.859-3.699,4.096-6.581,6.708
			c-0.552-0.659-1.144-1.133-1.772-1.421s-1.224-0.432-1.789-0.432c-0.764,0-1.573,0.126-2.425,0.379
			c-0.852,0.253-2.018,0.744-3.499,1.474c-0.552-0.63-1.075-1.059-1.569-1.284c-0.658-0.309-1.446-0.464-2.362-0.464
			c-0.905,0-1.748,0.123-2.53,0.366c-0.782,0.244-1.742,0.705-2.882,1.382l-0.52-0.389c1.869-3.253,2.803-5.87,2.803-7.849
			c0-1.144-0.333-2.083-1-2.82c-0.666-0.736-1.408-1.105-2.227-1.105c-0.479,0-0.976,0.206-1.49,0.618l-0.521-0.397
			c0.667-1.371,1.669-2.057,3.005-2.057c0.445,0,0.899,0.112,1.362,0.335c0.463,0.224,0.929,0.565,1.398,1.024
			c-0.07-4.249-0.784-7.503-2.142-9.763c-0.679-1.142-1.463-1.712-2.353-1.712c-0.421,0-0.796,0.183-1.124,0.547
			c-0.328,0.365-0.573,1.089-0.737,2.171l-0.644-0.186c0.083-1.633,0.461-2.902,1.137-3.806c0.675-0.905,1.601-1.358,2.775-1.358
			c1.081,0,2.147,0.448,3.198,1.342c1.051,0.895,1.913,2.354,2.583,4.378l8.545-5.72C145.769,73.746,146.818,75.652,147.768,78.03z
			 M143.799,90.511c-0.881-0.6-1.604-1.003-2.169-1.209c-0.564-0.206-1.182-0.309-1.853-0.309c-0.6,0-1.246,0.095-1.94,0.283
			c-0.694,0.188-1.435,0.471-2.223,0.848c-0.53,1.34-1.078,2.535-1.643,3.582c-0.565,1.046-1.308,2.217-2.226,3.511
			c1.777-0.94,3.26-1.589,4.448-1.948c1.189-0.358,2.342-0.537,3.46-0.537c0.529,0,1.147,0.053,1.854,0.159
			C142.425,93.477,143.188,92.018,143.799,90.511z M144.928,83.273c-0.952,0.482-1.718,0.806-2.3,0.971
			c-0.582,0.165-1.208,0.247-1.877,0.247c-0.599,0-1.219-0.091-1.86-0.273c-0.641-0.183-1.301-0.457-1.983-0.821v0.458
			c0,1.548-0.301,3.267-0.903,5.156c0.694-0.294,1.34-0.515,1.94-0.662c0.599-0.147,1.152-0.221,1.657-0.221
			c0.776,0,1.494,0.106,2.152,0.318c0.658,0.211,1.435,0.594,2.328,1.147c0.587-1.819,0.881-3.58,0.881-5.282
			C144.963,84.077,144.951,83.731,144.928,83.273z M136.288,78.86c0.295,1.059,0.484,2.248,0.566,3.565
			c0.836,0.482,1.543,0.809,2.121,0.979c0.577,0.171,1.201,0.256,1.873,0.256s1.304-0.085,1.899-0.256
			c0.595-0.17,1.322-0.497,2.182-0.979c-0.247-1.46-0.567-2.706-0.962-3.736c-0.394-1.03-1.038-2.27-1.932-3.719L136.288,78.86z
			 M154.799,90.529c-0.787-0.577-1.5-0.98-2.141-1.209c-0.641-0.229-1.365-0.344-2.176-0.344c-0.54,0-1.104,0.064-1.691,0.194
			c-0.586,0.129-1.197,0.324-1.832,0.583c-0.6,1.103-1.313,2.188-2.141,3.256c-0.829,1.068-2.037,2.417-3.623,4.048
			c1.842-0.98,3.368-1.657,4.578-2.03c1.208-0.373,2.347-0.561,3.416-0.561c0.82,0,1.742,0.199,2.765,0.596
			C153.071,93.615,154.021,92.104,154.799,90.529z M156.37,83.396c-0.894,0.381-1.608,0.633-2.143,0.753
			c-0.535,0.122-1.113,0.183-1.736,0.183c-0.587,0-1.198-0.078-1.833-0.234c-0.636-0.156-1.288-0.39-1.958-0.702
			c-0.035,1.071-0.129,1.948-0.281,2.631s-0.463,1.583-0.931,2.701c0.539-0.201,1.06-0.348,1.558-0.442
			c0.5-0.094,0.973-0.141,1.418-0.141c0.882,0,1.681,0.115,2.396,0.344c0.718,0.229,1.48,0.615,2.291,1.156
			c0.824-2.236,1.236-4.161,1.236-5.772C156.388,83.767,156.382,83.608,156.37,83.396z M147.997,78.736
			c0.2,0.542,0.337,1.018,0.413,1.43c0.077,0.411,0.155,1.165,0.237,2.259c0.872,0.447,1.579,0.745,2.12,0.892
			c0.543,0.146,1.126,0.221,1.749,0.221c0.637,0,1.238-0.08,1.803-0.239c0.565-0.158,1.249-0.45,2.051-0.874
			c-0.105-1.141-0.317-2.17-0.635-3.087c-0.492-1.411-1.173-2.852-2.042-4.322L147.997,78.736z"/>
		<path d="M177.913,82.513l4.809-10.204c1.5,1.045,3.239,2.022,5.218,2.931l-1.502,2.85l-4.546-1.986l-3.678,7.751h7.998
			l-1.181,2.63h-5.245l3.112,6.602c0.621,1.331,1.073,2.154,1.354,2.472c0.411,0.471,0.757,0.706,1.038,0.706
			c0.176,0,0.48-0.194,0.915-0.582l1.144-1.006l0.59,0.608l-4.248,3.77c-1.093-0.518-1.843-0.983-2.248-1.395
			c-0.405-0.412-0.885-1.206-1.437-2.383l-3.604-7.606l-5.404,11.385c-1.573-1.087-3.43-2.029-5.57-2.825l1.412-3.146l5.141,2.014
			l4.06-8.613h-7.739l1.217-2.63h5.078l-2.61-5.508c-0.516-1.094-0.875-1.777-1.074-2.048c-0.305-0.412-0.689-0.735-1.152-0.971
			c-0.465-0.235-0.931-0.353-1.4-0.353c-0.552,0-1.077,0.162-1.575,0.486c-0.5,0.323-1.019,0.856-1.559,1.598l-0.484-0.556
			c0.399-1.351,1.058-2.387,1.974-3.109c0.917-0.722,1.934-1.084,3.051-1.084c1.21,0,2.218,0.315,3.022,0.945
			c0.806,0.63,1.596,1.769,2.371,3.416L177.913,82.513z"/>
		<path d="M193.968,74.499l-0.379-0.68c0.822-0.679,1.489-1.12,2.001-1.325c0.511-0.206,1.107-0.308,1.789-0.308
			c0.952,0,1.846,0.191,2.68,0.574c0.835,0.382,1.487,0.885,1.957,1.509c0.364,0.482,0.67,1.207,0.917,2.171
			c1.728-1.283,3.196-2.171,4.407-2.666c1.21-0.495,2.374-0.741,3.49-0.741c2.092,0,3.905,0.871,5.438,2.612
			c1.534,1.742,2.301,4.149,2.301,7.221c0,1.753-0.291,3.413-0.874,4.978c-0.581,1.566-1.446,2.851-2.593,3.857
			s-2.49,1.73-4.03,2.171c-1.542,0.442-2.859,0.662-3.952,0.662l-7.48-0.159c-1.129,0-2.185,0.185-3.166,0.556
			c-0.982,0.371-1.697,0.868-2.145,1.492c-0.446,0.624-0.67,1.3-0.67,2.03c0,0.93,0.344,1.724,1.032,2.383
			c0.688,0.659,1.521,0.989,2.497,0.989c0.529,0,1.076-0.076,1.642-0.229c0.563-0.153,1.64-0.571,3.229-1.254
			c2.294-1,4.194-1.5,5.7-1.5c1.553,0,2.781,0.365,3.688,1.095c0.683,0.564,1.023,1.3,1.023,2.207c0,0.542-0.156,0.974-0.467,1.298
			c-0.312,0.323-0.697,0.485-1.155,0.485c-0.388,0-0.72-0.146-0.996-0.441s-0.414-0.671-0.414-1.13c0-0.365,0.129-0.777,0.388-1.236
			c0.165-0.283,0.247-0.482,0.247-0.601c0-0.165-0.064-0.3-0.194-0.406c-0.199-0.141-0.458-0.211-0.775-0.211
			c-0.399,0-0.828,0.082-1.287,0.247c-0.458,0.165-1.293,0.595-2.503,1.289c-1.716,0.977-3.067,1.636-4.055,1.977
			s-1.887,0.512-2.697,0.512c-1.587,0-2.933-0.523-4.037-1.571s-1.657-2.277-1.657-3.69c0-1.365,0.525-2.533,1.578-3.504
			c1.052-0.971,2.682-1.521,4.892-1.651c0.012-0.246,0.018-0.429,0.018-0.545c0-1.338-0.288-2.5-0.863-3.487
			c-0.576-0.986-1.328-1.719-2.257-2.201c-0.588-0.316-1.346-0.481-2.274-0.493V86.15c0.518-0.094,0.952-0.141,1.305-0.141
			c0.764,0,1.457,0.106,2.08,0.318s1.287,0.571,1.992,1.077c0.023-0.341,0.035-0.642,0.035-0.901c0-1.436-0.443-2.624-1.331-3.566
			c-0.887-0.941-1.942-1.412-3.164-1.412c-0.282,0-0.646,0.029-1.093,0.088v-0.688c0.764-0.4,1.51-0.6,2.238-0.6
			c0.541,0,1.043,0.077,1.508,0.229c0.464,0.153,1.066,0.465,1.807,0.936c0-0.612,0-1.13,0-1.554c0-2.248-0.345-3.819-1.035-4.713
			c-0.689-0.895-1.521-1.342-2.49-1.342C195.214,73.881,194.6,74.087,193.968,74.499z M204.889,76.229
			c-0.669,0.4-1.321,0.83-1.956,1.288v15.995c0.435,0.012,0.764,0.018,0.987,0.018l0.969-0.018V76.229z M205.7,80.554
			c0.729,0.647,1.396,1.095,1.996,1.342c0.601,0.248,1.278,0.371,2.031,0.371c0.824,0,1.577-0.144,2.26-0.432
			c0.685-0.289,1.461-0.821,2.332-1.598c-0.354-1.094-0.729-1.936-1.13-2.524c-0.612-0.895-1.322-1.563-2.128-2.003
			c-0.808-0.441-1.646-0.662-2.518-0.662c-0.801,0-1.749,0.253-2.844,0.759V80.554z M205.7,86.963
			c0.896-0.6,1.669-1.015,2.323-1.245c0.653-0.23,1.351-0.344,2.093-0.344c0.753,0,1.457,0.114,2.11,0.344
			c0.653,0.229,1.416,0.645,2.287,1.245c0.189-1.024,0.283-1.924,0.283-2.701c0-0.789-0.094-1.818-0.283-3.089
			c-1.001,0.753-1.869,1.268-2.605,1.544c-0.735,0.277-1.521,0.415-2.357,0.415c-0.637,0-1.245-0.109-1.828-0.326
			c-0.583-0.218-1.258-0.604-2.022-1.157V86.963z M205.7,93.512c1.707-0.035,3.1-0.25,4.177-0.645
			c1.077-0.394,1.958-0.971,2.642-1.73c0.683-0.759,1.283-1.845,1.801-3.257c-0.859-0.647-1.592-1.083-2.198-1.307
			c-0.607-0.224-1.281-0.335-2.022-0.335c-0.754,0-1.457,0.118-2.11,0.353c-0.654,0.235-1.417,0.665-2.288,1.289V93.512z"/>
		<path d="M244.036,72.31l0.538,0.451c-1.049,1.408-1.936,2.676-2.66,3.803c-0.725,1.126-2.059,3.251-4.002,6.374h5.692
			l-0.679,1.359h-5.859c-0.364,0.636-0.764,1.277-1.198,1.924h6.097l-0.591,1.306h-6.318c-0.718,1.153-1.526,2.219-2.424,3.194
			c-0.899,0.977-2.946,2.971-6.142,5.981c3.487-1.503,6.787-2.255,9.898-2.255c1.021,0,1.969,0.113,2.843,0.339
			c0.876,0.227,1.842,0.607,2.898,1.142l1.914-2.286l0.53,0.514l-4.008,4.899c-1.514-0.73-2.882-1.248-4.104-1.554
			c-1.222-0.306-2.555-0.459-3.999-0.459c-1.432,0-2.812,0.156-4.139,0.468c-1.327,0.312-2.825,0.827-4.491,1.545l-0.468-0.627
			c1.375-1.527,2.501-2.908,3.376-4.143c0.876-1.234,2.385-3.486,4.527-6.759h-5.734l0.644-1.306h5.946l1.261-1.924h-6.282
			l0.661-1.359h6.51c0.803-1.224,1.667-2.33,2.595-3.318c1.257-1.341,2.953-3.023,5.091-5.046c-1.752,0.87-3.293,1.475-4.62,1.816
			c-1.328,0.341-2.734,0.511-4.215,0.511c-1.175,0-2.258-0.125-3.245-0.375c-0.729-0.19-1.58-0.553-2.557-1.088l-2.208,2.644
			l-0.603-0.538l4.465-5.234c1.479,0.742,2.797,1.266,3.953,1.572c1.157,0.306,2.34,0.458,3.55,0.458
			c1.174,0,2.328-0.146,3.461-0.441C241.075,73.604,242.439,73.075,244.036,72.31z"/>
		<path d="M262.36,80.996l0.634,0.247c-0.634,0.989-1.037,1.745-1.207,2.269c-0.171,0.523-0.256,1.232-0.256,2.127v7.521
			c0,1.248,0.088,2.027,0.265,2.339c0.176,0.312,0.388,0.467,0.634,0.467c0.128,0,0.263-0.034,0.401-0.101
			c0.085-0.056,0.337-0.258,0.754-0.605l0.432,0.547l-3.746,3.249c-0.908-0.707-1.516-1.339-1.822-1.898s-0.478-1.339-0.514-2.339
			l-5.35,4.237c-2.016-1.65-3.023-3.276-3.023-4.88c0-1.073,0.218-2.08,0.655-3.023c0.577-1.237,1.573-2.682,2.989-4.332
			l-2.121-4.538l0.247-0.457c0.457,0.035,0.797,0.053,1.02,0.053c1.384,0,2.604-0.547,3.659-1.642
			c0.855,0.501,1.791,0.903,2.805,1.206c1.015,0.303,1.791,0.454,2.331,0.454c0.246,0,0.434-0.043,0.563-0.13
			S262.056,81.423,262.36,80.996z M257.935,84.352l-6.028-1.854l2.146,4.549l3.883,1.826V84.352z M257.935,89.611l-4.266-2.005
			c-0.658,1.438-0.987,2.699-0.987,3.783c0,1.91,0.864,3.483,2.593,4.721l2.66-2.152V89.611z"/>
		<path d="M276.442,73.758l0.124,0.459c-0.905,0.54-1.502,1.072-1.79,1.595c-0.287,0.523-0.432,1.377-0.432,2.564v6.204l5.598-4.343
			c1.042,0.718,1.745,1.421,2.108,2.11c0.362,0.688,0.544,1.633,0.544,2.833v10.645c-1.438,0.565-2.631,1.124-3.579,1.677
			c-0.726,0.436-1.415,0.953-2.07,1.554c-1-0.824-1.997-1.459-2.992-1.907c-0.994-0.447-2.468-0.889-4.421-1.324v-0.317
			c0.505-0.354,0.822-0.766,0.952-1.237c0.199-0.695,0.3-2.303,0.3-4.824v-10.23c0-1.331-0.136-2.293-0.406-2.889
			c-0.27-0.595-0.781-1.151-1.533-1.67l0.317-0.441c0.896,0.388,1.509,0.686,1.839,0.892c0.33,0.206,0.648,0.474,0.955,0.803
			c1.213-0.871,2.072-1.421,2.579-1.651C275.041,74.031,275.677,73.864,276.442,73.758z M274.345,94.201l4.602,1.819v-9.937
			c0-0.918-0.085-1.55-0.253-1.897c-0.169-0.347-0.573-0.739-1.212-1.174l-3.137,2.412V94.201z"/>
		<path d="M294.092,80.236l4.574,2.622l-1.878,2.745l-3.446-1.995v11.263l3.47,1.552l1.845-1.337l0.187,0.756l-4.363,3.213
			c-1.127-0.636-2.09-1.104-2.888-1.404c-0.798-0.3-1.777-0.562-2.939-0.785v-0.424c0.412-0.283,0.682-0.588,0.812-0.918
			c0.188-0.459,0.282-1.177,0.282-2.154V83.326C291.212,82.655,292.66,81.625,294.092,80.236z"/>
		<path d="M0.317,110.371l11.988,8.245c0.188-0.436,0.396-0.766,0.626-0.988c0.229-0.225,0.579-0.437,1.049-0.636v0.724
			c-0.235,0.317-0.388,0.606-0.458,0.865c-0.07,0.258-0.106,0.788-0.106,1.588v11.881c-1.49,0.565-2.599,1.057-3.326,1.476
			c-0.728,0.417-1.514,0.979-2.359,1.686c-1.389-0.906-2.619-1.565-3.689-1.978c-1.071-0.411-2.224-0.694-3.459-0.848v-0.336
			c0.423-0.364,0.697-0.732,0.82-1.103c0.124-0.371,0.185-1.139,0.185-2.304v-9.251c1.61-0.446,2.75-0.952,3.417-1.515l-4.686-3.2
			V110.371z M9.819,121.169l-3.641-2.487c-0.322,0.258-0.653,0.486-0.996,0.687v10.917l4.636,2.065V121.169z"/>
		<path d="M27.66,116.392l4.971,5.808l-7.898,5.544v3.213l4.09,1.624l2.768-1.89l0.388,0.53l-5.703,3.99
			c-1.165-0.624-2.125-1.072-2.877-1.342c-0.754-0.271-1.825-0.554-3.214-0.848v-0.441c0.4-0.235,0.667-0.527,0.802-0.874
			c0.135-0.348,0.203-1.098,0.203-2.25v-10.099c1.105-0.399,2.021-0.765,2.75-1.094C24.469,118.016,25.708,117.392,27.66,116.392z
			 M24.98,118.422l-0.247,0.123v8.017l4.644-3.26L24.98,118.422z"/>
		<path d="M46.444,110.76l-0.555,2.931l-3.235-0.741v4.254h2.732v1.978h-2.732v11.846l1.992,1.501l1.375-1.112l0.406,0.494
			l-4.099,3.302c-1.449-1.318-2.938-2.213-4.469-2.684l-0.105-0.424c0.423-0.271,0.717-0.553,0.881-0.848
			c0.282-0.481,0.423-1.064,0.423-1.747v-10.328H37.4v-1.978h1.657v-4.254c1.775-1.201,3.112-2.213,4.011-3.036L46.444,110.76z"/>
		<path d="M59.219,116.392l5.488,2.578l3.283-1.66v3.972l-3.173-0.617v8.015c0,1.294,0.076,2.172,0.229,2.63
			c0.2,0.601,0.617,1.295,1.251,2.083c1.023,1.307,1.534,2.243,1.534,2.808s-0.268,1.106-0.804,1.624s-1.963,1.318-4.283,2.4
			c-0.788-0.281-1.541-0.491-2.259-0.626c-0.717-0.136-1.399-0.203-2.046-0.203c-1.553,0-3.347,0.276-5.382,0.829l-0.247-0.6
			l4.17-4.878l-4.17-2.996v-12.78C55.14,118.475,57.276,117.616,59.219,116.392z M55.925,137.029
			c1.528-0.248,2.762-0.371,3.703-0.371c0.846,0,1.701,0.111,2.565,0.336c0.864,0.224,1.736,0.564,2.618,1.023l0.724-0.459
			c-1.587-1.481-2.664-2.679-3.228-3.597c-0.564-0.916-0.923-1.916-1.076-2.997L55.925,137.029z M61.219,120.629l-4.813-1.659
			v11.567l2.604,1.891l2.209-2.637V120.629z"/>
		<path d="M80.115,109.913l0.176,0.423c-0.841,0.542-1.416,1.118-1.724,1.73s-0.462,1.583-0.462,2.913v5.755l5.457-4.343
			c1.16,0.754,1.916,1.481,2.267,2.182c0.352,0.701,0.527,1.894,0.527,3.577v8.005c0,1.529-0.159,2.65-0.476,3.356
			c-0.505,1.153-1.439,2.237-2.803,3.249c-1.787,1.344-4.061,2.504-6.823,3.481l-0.247-0.671c2.245-0.931,3.808-1.778,4.689-2.543
			c0.881-0.766,1.457-1.578,1.728-2.437c0.2-0.647,0.3-2.33,0.3-5.049v-7.398c0-0.823-0.083-1.395-0.248-1.712
			c-0.247-0.437-0.7-0.866-1.359-1.29l-3.013,2.443v9.829l1.252,1.262l-3.094,2.534l-3.146-2.534l1.393-1.386V115.24
			c0-1.459-0.128-2.457-0.384-2.998c-0.256-0.542-0.763-1.028-1.52-1.465l0.194-0.441c0.621,0.178,1.119,0.374,1.494,0.592
			s0.867,0.598,1.477,1.139c0.718-0.683,1.407-1.183,2.066-1.5C78.496,110.248,79.255,110.03,80.115,109.913z"/>
		<path d="M95.817,116.392l3.129,2.604l-1.393,1.351v9.603c0,1.013,0.084,1.672,0.254,1.978c0.17,0.307,0.345,0.459,0.525,0.459
			c0.127,0,0.244-0.029,0.351-0.088c0.148-0.082,0.456-0.318,0.923-0.706l0.432,0.548l-3.781,3.071
			c-0.944-0.671-1.552-1.304-1.823-1.898s-0.407-1.633-0.407-3.115v-9.851l-1.322-1.351L95.817,116.392z M97.148,110.354h2.239
			l-2.433,3.813H96.25L97.148,110.354z"/>
		<path d="M105.4,119.561l4.627-3.169c0.575,0.683,1.099,1.23,1.574,1.642c0.475,0.412,1.158,0.919,2.049,1.519
			c-0.717,1.023-1.234,1.997-1.551,2.922c-0.317,0.924-0.476,1.951-0.476,3.08c0,1.095,0.141,2.525,0.423,4.29
			c0.2,1.177,0.3,2.054,0.3,2.631c0,1.247-0.267,2.38-0.802,3.398c-0.535,1.018-1.313,1.933-2.335,2.745
			c-0.6,0.494-1.522,1.029-2.768,1.605l-0.3-0.671c1.046-0.683,1.819-1.473,2.318-2.372s0.75-1.838,0.75-2.814
			c0-0.67-0.153-1.729-0.458-3.176c-0.482-2.234-0.723-4.017-0.723-5.345c0-0.942,0.079-1.8,0.238-2.576s0.444-1.677,0.855-2.699
			c-0.399-0.529-0.899-1.012-1.499-1.447l-1.719,0.958L105.4,119.561z M111.447,110.266h2.292l-2.38,3.761h-0.793L111.447,110.266z"
			/>
		<path d="M127.415,109.913v0.458c-0.893,0.589-1.493,1.21-1.798,1.863c-0.306,0.653-0.458,1.709-0.458,3.169v6.09l5.262-5.102
			l3.578,3.946l-4.093,3.587c0.929,0.661,1.625,1.377,2.088,2.149c0.464,0.771,0.827,1.901,1.088,3.391
			c0.26,1.488,0.467,2.347,0.62,2.574c0.152,0.229,0.293,0.344,0.422,0.344c0.141,0,0.528-0.24,1.163-0.721l0.344,0.548
			l-4.125,3.001c-0.479-0.495-0.835-1.018-1.071-1.571s-0.412-1.359-0.53-2.419l-5.002,3.99c-0.715-0.688-1.404-1.227-2.067-1.617
			c-0.663-0.391-1.487-0.746-2.472-1.066v-0.353c0.541-0.364,0.887-0.743,1.04-1.138s0.229-1.384,0.229-2.969v-12.813
			c0-1.01-0.047-1.716-0.141-2.116c-0.129-0.587-0.32-1.042-0.573-1.366c-0.253-0.322-0.661-0.619-1.225-0.889l0.247-0.513
			c0.711,0.26,1.248,0.498,1.61,0.715c0.362,0.219,0.809,0.574,1.343,1.069c0.762-0.73,1.486-1.263,2.172-1.598
			C125.751,110.222,126.535,110.007,127.415,109.913z M128.365,119.312l-3.207,3.109v4.687l5.818-4.969L128.365,119.312z
			 M125.158,128.024v3.055l2.076,1.45l2.579-2.125c-0.304-1.974-1.162-3.381-2.573-4.217L125.158,128.024z"/>
		<path d="M148.895,109.913v0.458c-0.929,0.483-1.583,1.074-1.965,1.774c-0.382,0.701-0.574,1.763-0.574,3.187v15.694l2.01,1.501
			l0.775-0.636l0.441,0.636l-3.534,2.684c-1.068-0.93-1.866-1.548-2.394-1.854c-0.527-0.306-1.226-0.583-2.093-0.829v-0.388
			c0.329-0.201,0.585-0.454,0.767-0.761c0.182-0.306,0.308-0.664,0.379-1.076c0.023-0.141,0.041-0.847,0.053-2.118V115.58
			c0-1.072-0.041-1.816-0.124-2.233c-0.082-0.418-0.247-0.818-0.494-1.201c-0.247-0.383-0.664-0.809-1.251-1.279l0.282-0.353
			c1.072,0.306,2.033,0.929,2.883,1.87c0.879-0.93,1.674-1.564,2.384-1.906C147.149,110.137,147.968,109.948,148.895,109.913z"/>
		<path d="M178.324,117.433l0.511,0.478c-0.676,0.587-1.13,1.059-1.361,1.411c-0.23,0.353-0.383,0.704-0.453,1.058
			c-0.071,0.353-0.106,1.075-0.106,2.168v7.335c0,0.965,0.095,1.605,0.286,1.923c0.19,0.318,0.37,0.476,0.538,0.476
			c0.236,0,0.646-0.242,1.229-0.724l0.432,0.547l-3.816,3.107c-0.874-0.682-1.44-1.247-1.699-1.693
			c-0.377-0.657-0.566-1.357-0.566-2.099v-10.635l-1.766-1.535l-2.8,2.622v9.544l1.321,1.422l-3.076,2.374l-3.129-2.374l1.287-1.422
			v-8.771c0-1.025-0.076-1.682-0.229-1.978c-0.211-0.399-0.722-0.876-1.53-1.43l-2.79,2.343v9.835l1.357,1.422l-3.094,2.374
			l-3.164-2.374l1.375-1.422v-9.444c0-0.977-0.121-1.683-0.366-2.119c-0.191-0.33-0.366-0.494-0.525-0.494
			c-0.191,0-0.578,0.229-1.162,0.688l-0.432-0.548l3.657-3.106c0.803,0.565,1.348,1.026,1.637,1.386
			c0.289,0.358,0.493,0.75,0.611,1.175c0.07,0.306,0.105,0.911,0.105,1.817l5.263-4.378c1.155,0.918,1.91,1.677,2.264,2.277
			s0.56,1.365,0.619,2.296l4.927-4.573l2.883,2.701L178.324,117.433z"/>
		<path d="M195.906,116.392l2.406,2.648l1.719-1.66l0.503,0.477c-0.831,0.757-1.335,1.329-1.514,1.72
			c-0.237,0.52-0.355,1.233-0.355,2.145v8.416c0,0.779,0.124,1.358,0.372,1.736c0.153,0.248,0.324,0.372,0.514,0.372
			c0.165,0,0.554-0.23,1.168-0.688l0.432,0.547l-3.781,3.107c-0.979-0.737-1.607-1.388-1.884-1.955
			c-0.278-0.567-0.417-1.481-0.417-2.744v-9.661l-1.558-1.647l-3.008,2.416v9.796l1.322,1.262l-3.111,2.534l-3.13-2.534l1.322-1.262
			v-9.008c0-1.281-0.13-2.145-0.39-2.592c-0.177-0.306-0.377-0.458-0.602-0.458c-0.236,0-0.59,0.229-1.063,0.688l-0.432-0.548
			l3.746-3.106c1.038,0.773,1.687,1.386,1.946,1.835s0.39,1.073,0.39,1.871v0.637L195.906,116.392z"/>
		<path d="M219.892,118.97v13.205c-1.766,0.718-3.043,1.307-3.831,1.765c-0.601,0.342-1.178,0.765-1.731,1.271
			c-1.706-1.036-3.118-1.755-4.235-2.154c-0.848-0.307-1.807-0.482-2.878-0.529l-0.176-0.353c0.446-0.377,0.729-0.718,0.846-1.024
			c0.165-0.4,0.247-1.077,0.247-2.03v-9.692c2.153-0.718,3.996-1.729,5.526-3.036C215.33,117.498,217.408,118.357,219.892,118.97z
			 M211.694,130.462l4.601,1.889v-11.21c-1.445-0.678-2.468-1.123-3.067-1.338c-0.423-0.153-0.935-0.286-1.533-0.393V130.462z"/>
		<path d="M226.026,119.11l3.711-2.719c0.955,0.659,1.59,1.271,1.902,1.836s0.469,1.342,0.469,2.33l4.575-4.166
			c1.543,1.118,2.574,2.077,3.093,2.878c0.33,0.518,0.494,1.288,0.494,2.312v9.888c-1.536,0.694-3.267,1.94-5.191,3.742
			c-0.699-0.448-1.689-0.965-2.971-1.554v1.254c0,1.471,0.146,2.523,0.44,3.159s0.823,1.195,1.587,1.677l-0.229,0.477
			c-1.293-0.458-2.26-0.899-2.901-1.323c-0.455-0.306-0.862-0.725-1.224-1.254c-0.846,0.754-1.646,1.266-2.397,1.536l-0.247-0.354
			c0.506-0.482,0.861-0.979,1.067-1.491c0.205-0.513,0.308-1.222,0.308-2.127v-2.578c-0.658-0.129-1.34-0.194-2.045-0.194
			c-0.059,0-0.152,0.006-0.281,0.019v-1.483c0.846-0.199,1.621-0.336,2.326-0.406v-8.791c0-0.954-0.132-1.613-0.396-1.978
			c-0.265-0.365-0.533-0.548-0.81-0.548c-0.215,0-0.497,0.153-0.849,0.46L226.026,119.11z M232.108,121.458v9.127
			c1.375,0.283,2.313,0.497,2.812,0.645c0.5,0.146,1.085,0.374,1.755,0.68v-9.906c0-0.542-0.021-0.862-0.063-0.962
			c-0.041-0.101-0.215-0.28-0.521-0.539c-0.683-0.589-1.213-1.013-1.589-1.271L232.108,121.458z"/>
		<path d="M260.052,119.393l0.123,0.406c-0.47,0.247-0.775,0.539-0.917,0.873c-0.141,0.336-0.211,1.097-0.211,2.283v12.117
			c0,1.047,0.088,1.816,0.265,2.311c0.176,0.495,0.522,0.983,1.04,1.464l-0.3,0.372c-0.838-0.327-1.622-0.85-2.354-1.572
			c-0.481,0.659-1.026,1.183-1.636,1.572c-0.61,0.388-1.442,0.724-2.498,1.005l-0.194-0.353c0.858-0.741,1.41-1.4,1.657-1.977
			c0.247-0.577,0.37-1.472,0.37-2.684v-3.973l-4.963,3.973c-1.031-0.694-1.74-1.269-2.127-1.721
			c-0.387-0.454-0.65-0.919-0.791-1.396s-0.211-1.25-0.211-2.321v-10.381c2.292-0.753,4.137-1.753,5.535-3.001
			c1.692,1.213,3.133,2.048,4.319,2.507C258.03,119.228,258.994,119.393,260.052,119.393z M250.813,119.393v9.502
			c0,1.083,0.068,1.744,0.202,1.987c0.134,0.241,0.716,0.762,1.745,1.562l2.637-2.065v-8.742L250.813,119.393z"/>
		<path d="M276.38,116.392l2.671,3.205l-2.671,2.374l-2.229-2.827l-1.747,1.592v10.273l2.01,1.448l1.816-1.431l0.405,0.565
			l-4.522,3.619c-0.961-0.859-1.769-1.478-2.419-1.854c-0.651-0.376-1.364-0.671-2.138-0.882v-0.39
			c0.517-0.364,0.854-0.732,1.014-1.103c0.158-0.371,0.238-1.08,0.238-2.127v-7.202c0-0.907-0.102-1.511-0.303-1.811
			c-0.201-0.301-0.422-0.45-0.664-0.45c-0.265,0-0.627,0.236-1.087,0.706l-0.433-0.512l3.676-3.195
			c1.003,0.765,1.687,1.43,2.053,1.995c0.235,0.353,0.354,0.841,0.354,1.465L276.38,116.392z"/>
		<path d="M293.761,122.938l4.093,2.14v7.433c-0.989,0.094-1.884,0.336-2.684,0.724c-0.802,0.389-1.707,1.048-2.72,1.978
			c-0.871-0.519-1.627-0.877-2.269-1.078c-0.641-0.199-1.32-0.299-2.038-0.299c-1.105,0-2.088,0.335-2.947,1.006
			c-0.317,0.247-0.546,0.371-0.688,0.371c-0.13,0-0.26-0.065-0.389-0.194s-0.194-0.26-0.194-0.39c0-0.141,0.124-0.329,0.37-0.565
			c0.141-0.141,0.382-0.411,0.723-0.812l1.603-1.995l2.271-3.021l-3.855-2.079v-6.585c1.212-0.377,2.163-0.798,2.852-1.262
			c0.688-0.466,1.352-1.104,1.987-1.916c1.504,0.636,2.715,1.083,3.632,1.342c0.658,0.177,1.287,0.265,1.886,0.265
			c0.661,0,1.175-0.145,1.541-0.432c0.365-0.289,0.549-0.592,0.549-0.91c0-0.212-0.118-0.423-0.353-0.636
			c-0.459-0.411-0.688-0.812-0.688-1.2c0-0.365,0.101-0.656,0.3-0.874c0.2-0.218,0.424-0.326,0.67-0.326
			c0.329,0,0.626,0.149,0.891,0.45c0.265,0.3,0.396,0.697,0.396,1.191c0,0.506-0.106,1.001-0.318,1.482
			c-0.212,0.483-0.62,1.106-1.221,1.872L293.761,122.938z M291.631,125.767l-4.249,5.702c0.517-0.178,0.999-0.307,1.445-0.39
			c0.446-0.082,0.852-0.123,1.217-0.123c1.352,0,2.756,0.447,4.213,1.342v-5.12L291.631,125.767z M288.598,124.158l2.414,1.254
			l3.844-5.121c-0.788,0.225-1.47,0.338-2.045,0.338c-1.446,0-2.85-0.483-4.213-1.448V124.158z"/>
		<path d="M0.159,154.474l4.918-6.075h0.511l-0.176,4.872h3.543v1.978H5.412v11.898l1.975,1.465l1.128-0.882l0.441,0.528
			l-3.887,3.108c-1.321-1.354-2.816-2.271-4.487-2.755v-0.354c0.47-0.318,0.782-0.648,0.935-0.989c0.2-0.437,0.3-1.067,0.3-1.892
			v-10.129H0.159V154.474z"/>
		<path d="M28.133,152.547l3.146,2.622l-1.428,1.296v9.27c0,1.07,0.15,1.835,0.45,2.295c0.192,0.318,0.403,0.477,0.63,0.477
			c0.168,0,0.493-0.188,0.973-0.565l0.432,0.548l-3.746,2.878c-0.936-0.659-1.548-1.251-1.835-1.775
			c-0.287-0.522-0.442-1.356-0.465-2.497c-1.824,1.173-3.684,2.598-5.58,4.272c-1.137-0.895-1.881-1.681-2.232-2.357
			c-0.352-0.676-0.527-1.568-0.527-2.674v-8.722c0-0.612-0.055-1.012-0.164-1.201c-0.192-0.329-0.452-0.493-0.78-0.493
			c-0.247,0-0.617,0.199-1.109,0.601l-0.432-0.548l4.169-3.425l3.2,2.622l-1.322,1.173v9.388c0,0.694,0.088,1.203,0.264,1.527
			s0.605,0.734,1.286,1.229l3.228-2.383v-9.639l-1.252-1.296L28.133,152.547z"/>
		<path d="M43.932,156.854l5.403-4.308c1.195,0.941,1.974,1.756,2.337,2.444s0.545,1.581,0.545,2.675v10.592
			c-1.009,0.248-1.951,0.598-2.826,1.051c-0.874,0.454-1.88,1.14-3.018,2.058c-1.283-1.013-2.465-1.726-3.548-2.137
			c-1.083-0.412-2.295-0.636-3.636-0.671v-0.441c0.447-0.271,0.749-0.586,0.908-0.944c0.159-0.359,0.238-1.039,0.238-2.039v-7.891
			c0-0.412-0.041-0.735-0.124-0.972c-0.082-0.235-0.312-0.604-0.688-1.103c-0.376-0.501-0.638-0.951-0.785-1.351
			c-0.147-0.401-0.22-0.854-0.22-1.359c0-0.931,0.279-1.758,0.837-2.481s1.613-1.509,3.165-2.356l0.37,0.477
			c-1.21,0.883-1.816,1.725-1.816,2.524c0,0.295,0.059,0.548,0.177,0.759c0.142,0.283,0.497,0.73,1.065,1.342
			c0.567,0.612,0.987,1.248,1.259,1.907C43.778,155.137,43.896,155.878,43.932,156.854z M43.932,157.808v8.563l4.654,2.101v-9.873
			c0-0.86-0.108-1.498-0.324-1.914c-0.216-0.417-0.674-0.843-1.374-1.278L43.932,157.808z"/>
		<path d="M73.093,156.801l5.245-4.254c1.096,0.788,1.81,1.488,2.14,2.101c0.459,0.824,0.69,1.782,0.69,2.878v10.697
			c-1.236,0.389-2.278,0.819-3.125,1.289c-0.848,0.471-1.707,1.089-2.578,1.854c-1.986-1.26-3.644-1.89-4.972-1.89
			c-1.246,0-2.491,0.63-3.737,1.89c-1.165-0.966-2.28-1.663-3.345-2.093c-1.065-0.43-2.227-0.68-3.486-0.75V168.1
			c0.529-0.212,0.902-0.516,1.119-0.909c0.218-0.395,0.326-1.162,0.326-2.304v-6.69c0-1.048-0.032-1.686-0.097-1.916
			c-0.065-0.229-0.256-0.527-0.573-0.892c-0.505-0.588-0.846-1.092-1.022-1.509c-0.176-0.418-0.264-0.898-0.264-1.438
			c0-0.989,0.306-1.857,0.917-2.604c0.611-0.747,1.687-1.498,3.226-2.251l0.317,0.459c-1.269,0.883-1.904,1.742-1.904,2.577
			c0,0.295,0.07,0.571,0.211,0.83c0.071,0.129,0.5,0.63,1.287,1.5c0.529,0.577,0.934,1.219,1.216,1.925
			c0.165,0.424,0.276,1.03,0.335,1.818l5.139-4.148c0.938,0.624,1.632,1.271,2.083,1.942
			C72.691,155.16,72.976,155.931,73.093,156.801z M65.019,157.552v9.064l4.442,1.854v-9.624c0-1.013-0.106-1.726-0.318-2.137
			c-0.212-0.412-0.695-0.858-1.448-1.342L65.019,157.552z M73.093,157.7v8.828l4.478,1.89v-9.82c0-0.872-0.085-1.47-0.256-1.794
			c-0.17-0.323-0.663-0.796-1.476-1.421L73.093,157.7z"/>
		<path d="M100.276,152.547l3.606,1.8l-1.457,3.081l-3.048-1.48l-1.906,4.016l1.803,3.488c0.796,1.46,1.479,2.567,2.05,3.319
			c0.57,0.753,1.03,1.23,1.38,1.433c0.198,0.119,0.378,0.18,0.542,0.18c0.233,0,0.565-0.178,0.997-0.53l0.379,0.521l-3.358,2.992
			c-0.793-0.271-1.494-0.761-2.103-1.469c-0.972-1.122-2.131-3.178-3.477-6.165l-3.622,7.634l-3.71-1.89l1.519-3.158l3.079,1.626
			l2.326-4.887c-1.135-2.58-2.334-4.669-3.597-6.268c-0.644-0.827-1.212-1.242-1.708-1.242c-0.342,0-0.773,0.223-1.292,0.671
			l-0.432-0.557l3.817-3.115c0.981,0.518,1.75,1.139,2.306,1.866c0.745,0.967,1.646,2.591,2.703,4.873L100.276,152.547z"/>
		<path d="M110.976,155.636l3.702-3.089c1.011,0.683,1.666,1.277,1.966,1.782c0.299,0.507,0.449,1.201,0.449,2.083v0.389
			l5.315-4.254c1.827,1.919,2.741,3.973,2.741,6.161c0,1.177-0.3,2.351-0.899,3.522c-0.6,1.17-1.54,2.282-2.821,3.336
			c-1.281,1.054-3.35,2.434-6.206,4.14c-1.246,0.754-1.992,1.229-2.239,1.431c-0.529,0.411-0.905,0.812-1.128,1.199
			c-0.165,0.283-0.247,0.601-0.247,0.954c0,0.6,0.297,1.156,0.89,1.668c0.594,0.513,1.378,0.768,2.354,0.768
			c0.705,0,1.287-0.123,1.745-0.37c0.224-0.118,0.441-0.368,0.652-0.751c0.211-0.382,0.394-0.632,0.546-0.75
			c0.153-0.117,0.335-0.177,0.547-0.177c0.235,0,0.423,0.065,0.564,0.194c0.141,0.13,0.211,0.301,0.211,0.512
			c0,0.378-0.276,0.748-0.829,1.113c-0.846,0.588-1.916,0.882-3.208,0.882c-1.352,0-2.392-0.32-3.12-0.961
			c-0.729-0.642-1.093-1.404-1.093-2.287c0-0.871,0.409-1.718,1.225-2.542c0.39-0.4,0.632-0.683,0.728-0.847
			c0.26-0.448,0.438-0.863,0.532-1.245c0.095-0.383,0.142-0.922,0.142-1.616v-8.438c0-1.176-0.134-1.978-0.402-2.4
			c-0.21-0.33-0.438-0.494-0.682-0.494c-0.199,0-0.455,0.152-0.77,0.459c-0.047,0.047-0.123,0.117-0.227,0.212L110.976,155.636z
			 M117.093,157.614v10.027c1.651-1.201,2.824-2.452,3.521-3.753c0.696-1.3,1.045-2.54,1.045-3.717c0-1.588-0.646-3.144-1.937-4.662
			L117.093,157.614z"/>
		<path d="M131.743,156.033l5.174-3.486l2.358,2.283c0.363,0.354,0.65,0.584,0.862,0.69c0.211,0.105,0.439,0.158,0.686,0.158
			c0.141,0,0.317-0.046,0.528-0.141l0.193,0.319l-5.243,4.774h0.491c1.461,0,2.663,0.453,3.604,1.359
			c0.941,0.907,1.412,1.995,1.412,3.266c0,0.742-0.194,1.46-0.582,2.154s-0.97,1.324-1.745,1.889
			c-0.564,0.412-1.572,0.994-3.023,1.748c-1.452,0.753-2.348,1.314-2.688,1.687c-0.341,0.37-0.511,0.779-0.511,1.227
			c0,0.423,0.141,0.783,0.423,1.076c0.282,0.295,0.652,0.442,1.111,0.442c0.165,0,0.405-0.046,0.723-0.137
			c0.165-0.039,0.306-0.059,0.423-0.059c0.153,0,0.279,0.048,0.379,0.143c0.1,0.094,0.15,0.205,0.15,0.335
			c0,0.164-0.064,0.3-0.193,0.406c-0.176,0.141-0.427,0.211-0.755,0.211c-0.877,0-1.579-0.237-2.105-0.715
			c-0.527-0.476-0.79-1.067-0.79-1.772c0-0.552,0.17-1.087,0.51-1.605c0.339-0.518,1.039-1.19,2.1-2.02
			c1.06-0.828,1.742-1.49,2.047-1.984c0.444-0.741,0.667-1.488,0.667-2.24c0-0.812-0.298-1.506-0.896-2.081
			c-0.596-0.576-1.356-0.864-2.28-0.864c-0.667,0-1.451,0.261-2.351,0.783l-0.37-0.352l5.913-5.343l-3.481-3.151l-2.279,1.494
			L131.743,156.033z"/>
		<path d="M156.803,146.933c2.668,0.918,4.743,2.386,6.226,4.404c1.48,2.019,2.222,4.393,2.222,7.123
			c0,2.684-0.688,5.124-2.064,7.318c-1.377,2.195-3.243,4.058-5.598,5.588c-1.685-0.398-3.214-1.149-4.587-2.256
			s-2.422-2.483-3.146-4.132c-0.726-1.648-1.088-3.36-1.088-5.139c0-2.542,0.729-5.015,2.187-7.415
			C152.41,150.022,154.36,148.192,156.803,146.933z M153.755,150.181c-1.634,1.848-2.449,4.072-2.449,6.674
			c0,1.836,0.394,3.565,1.182,5.189c0.788,1.625,1.912,2.967,3.376,4.025c1.464,1.06,2.959,1.701,4.487,1.925
			c0.852-1.166,1.459-2.257,1.819-3.275c0.36-1.018,0.542-2.145,0.542-3.381c0-1.694-0.344-3.31-1.031-4.845
			c-0.688-1.537-1.721-2.838-3.096-3.902C157.21,151.525,155.601,150.723,153.755,150.181z"/>
		<path d="M172.531,150.64l4.416-3.707c1.072,0.436,1.864,1.023,2.378,1.766c0.512,0.741,0.769,1.701,0.769,2.877v14.777
			c0,0.411,0.07,0.718,0.212,0.917c0.246,0.366,0.705,0.795,1.375,1.289l1.921-1.57l0.564,0.599l-4.663,3.779l-4.274-2.808
			l1.181-1.57v-13.223c0-0.896-0.059-1.514-0.177-1.854c-0.188-0.565-0.472-1.013-0.849-1.342c-0.271-0.224-0.506-0.335-0.707-0.335
			c-0.236,0-0.56,0.171-0.972,0.512c-0.248,0.2-0.459,0.365-0.637,0.494L172.531,150.64z"/>
		<path d="M191.62,152.441l7.334-5.509l8.497,5.114c0.047,0.683,0.07,1.254,0.07,1.712c0,1.928-0.528,3.575-1.586,4.938
			c-1.059,1.364-3.427,3.087-7.104,5.168c-1.654,0.939-2.819,1.696-3.494,2.267c-0.675,0.571-1.282,1.269-1.821,2.091
			c1.433-0.636,2.681-1.079,3.743-1.333c1.063-0.252,2.111-0.379,3.146-0.379c0.881,0,1.781,0.066,2.704,0.199
			c0.922,0.132,1.624,0.266,2.105,0.398l2.731,0.903l-3.068,3.354c-1.833-0.643-3.085-1.031-3.755-1.162
			c-1.058-0.227-2.057-0.339-2.997-0.339c-1.786,0-3.731,0.41-5.835,1.232c-0.446,0.179-0.705,0.269-0.775,0.269
			s-0.123-0.024-0.159-0.072c-0.047-0.059-0.07-0.146-0.07-0.265c0-0.566,0.194-1.257,0.582-2.072
			c0.517-1.109,1.264-2.201,2.239-3.274c0.693-0.777,1.821-1.8,3.385-3.07c1.563-1.27,2.644-2.233,3.243-2.893
			c0.835-0.929,1.479-1.899,1.931-2.909c0.452-1.011,0.679-2.088,0.679-3.229c0-1.705-0.64-3.104-1.919-4.199l-7.315,5.604
			L191.62,152.441z"/>
		<path d="M220.725,146.933l8.277,3.619c0.07,0.436,0.105,0.823,0.105,1.165c0,1.425-0.435,2.668-1.305,3.733
			c-0.869,1.066-2.027,1.945-3.473,2.64c1.963,0.447,3.44,1.225,4.434,2.33c0.993,1.106,1.49,2.295,1.49,3.566
			c0,1.354-0.552,2.571-1.655,3.655c-1.421,1.412-4.043,2.652-7.87,3.725l-7.069-5.474l2.532-2.545l7.869,6.048
			c0.653-0.587,1.136-1.225,1.444-1.911c0.31-0.687,0.465-1.527,0.465-2.525c0-1.914-0.55-3.438-1.648-4.569
			c-1.099-1.134-2.571-1.699-4.416-1.699c-0.588,0-1.223,0.053-1.904,0.159v-1.289h0.353c2.045,0,3.632-0.553,4.76-1.658
			c1.129-1.104,1.692-2.622,1.692-4.552c0-0.775-0.12-1.319-0.36-1.63c-0.24-0.313-0.519-0.469-0.835-0.469
			c-0.329,0-0.728,0.183-1.197,0.548l-0.281,0.211l-4.82,3.434l-2.316-2.38L220.725,146.933z"/>
		<path d="M252.823,160.402l0.67,3.16h-4.301v3.654l1.075,0.53c0.388,0.176,0.652,0.265,0.793,0.265c0.2,0,0.411-0.092,0.635-0.273
			l0.617-0.521l0.511,0.618l-4.239,3.531l-4.205-2.631l1.129-1.519v-3.654h-8.374l-0.74-3.425l9.854-13.205
			c0.834,0.118,1.533,0.536,2.098,1.254s0.847,1.724,0.847,3.019v9.197H252.823z M245.508,160.402v-7.376
			c0-0.683-0.082-1.205-0.243-1.57c-0.162-0.364-0.411-0.646-0.747-0.848l-7.309,9.794H245.508z"/>
		<path d="M263.395,147.25h10.969l-1.34,3.39h-9.325l-1.342,8.326l7.471-5.029c1.965,0.859,3.449,1.989,4.456,3.39
			c1.005,1.4,1.508,2.93,1.508,4.589c0,2.118-0.701,4.069-2.102,5.852c-1.402,1.782-3.78,2.982-7.136,3.6l-6.717-4.043l2.525-2.744
			l8.052,4.703c0.788-0.658,1.34-1.287,1.657-1.888c0.482-0.895,0.723-1.83,0.723-2.807c0-1.623-0.496-3.082-1.489-4.376
			c-0.993-1.295-2.577-2.318-4.751-3.073l-5.293,3.532L263.395,147.25z"/>
		<path d="M298.037,150.058l-2.499,3.151l-6.498-3.063c-0.897,1.285-1.534,2.522-1.912,3.714c-0.52,1.674-0.778,3.307-0.778,4.897
			c0,0.412,0.023,0.902,0.07,1.469l7.985-5.314c1.646,0.659,2.874,1.535,3.685,2.631c0.812,1.095,1.217,2.342,1.217,3.742
			c0,1.719-0.493,3.266-1.479,4.643c-1.41,1.966-3.604,3.778-6.587,5.438c-2.8-0.954-4.885-2.349-6.256-4.185
			s-2.057-4.043-2.057-6.62c0-1.941,0.329-3.648,0.987-5.12c0.658-1.471,1.678-2.971,3.06-4.501s2.859-2.866,4.436-4.008
			L298.037,150.058z M286.543,161.164c0.458,1.849,1.408,3.383,2.853,4.606c1.442,1.225,3.19,2,5.244,2.329
			c1.173-1.248,1.758-2.654,1.758-4.22c0-1.188-0.435-2.303-1.305-3.345c-0.869-1.042-2.209-1.844-4.018-2.409L286.543,161.164z"/>
		<path d="M3.931,183.405h13.257v0.953c-1.704,1.942-3.026,3.679-3.967,5.208c-1.457,2.389-2.594,4.949-3.411,7.68
			s-1.272,5.597-1.366,8.597l-4.954,1.678c0.012-1.282,0.169-2.536,0.474-3.761c0.539-2.13,1.329-4.26,2.372-6.391
			c0.796-1.635,1.892-3.407,3.286-5.313c0.503-0.694,1.95-2.443,4.34-5.244H6.931c-1.418,0-2.511,0.238-3.278,0.715
			c-0.768,0.478-1.468,1.321-2.101,2.534H0.652L3.931,183.405z"/>
		<path d="M32.003,183.088h1.356c2.572,0,4.491,0.507,5.76,1.52c1.268,1.014,1.902,2.139,1.902,3.376
			c0,0.825-0.288,1.637-0.864,2.438c-0.576,0.801-1.493,1.65-2.75,2.545c1.293,0.454,2.269,1.045,2.927,1.775
			c0.987,1.095,1.481,2.3,1.481,3.618c0,1.4-0.494,2.757-1.481,4.067c-0.987,1.313-3.079,3.011-6.276,5.093h-0.635
			c-2.433,0-4.328-0.602-5.686-1.808c-1.357-1.204-2.036-2.618-2.036-4.24c0-1.082,0.358-2.116,1.076-3.104
			c0.717-0.988,1.581-1.856,2.591-2.609c-0.964-0.351-1.707-0.882-2.23-1.594s-0.785-1.492-0.785-2.34
			c0-1.129,0.394-2.354,1.183-3.672C28.325,186.836,29.813,185.147,32.003,183.088z M30.373,196.017
			c-0.729,0.624-1.275,1.232-1.64,1.826c-0.364,0.595-0.546,1.174-0.546,1.737c0,1.012,0.518,1.905,1.553,2.681
			c1.353,1.024,3.23,1.534,5.63,1.534c1.596,0,2.798-0.35,3.608-1.05c0.809-0.7,1.214-1.491,1.214-2.375
			c0-0.575-0.206-1.132-0.617-1.668c-0.411-0.535-1.21-1.009-2.397-1.421c-0.811-0.282-2.127-0.546-3.949-0.791
			C31.889,196.304,30.937,196.146,30.373,196.017z M29.826,186.46c-0.365,0.423-0.638,0.862-0.82,1.314
			c-0.182,0.453-0.273,0.928-0.273,1.421c0,0.872,0.353,1.561,1.058,2.065c0.482,0.342,1.334,0.596,2.556,0.762
			c0.881,0.119,2.215,0.345,4.001,0.677c0.682-0.412,1.213-0.89,1.596-1.433c0.382-0.54,0.573-1.071,0.573-1.59
			c0-0.602-0.259-1.167-0.776-1.696c-0.517-0.531-1.333-0.902-2.45-1.114C34.457,186.702,32.635,186.566,29.826,186.46z"/>
		<path d="M53.751,204.466l2.495-3.16l6.561,2.99c0.883-1.35,1.5-2.6,1.848-3.749c0.523-1.714,0.785-3.368,0.785-4.964
			c0-0.364-0.041-0.834-0.123-1.408l-7.986,5.419c-1.222-0.601-2.057-1.082-2.503-1.447c-0.717-0.577-1.313-1.307-1.79-2.189
			c-0.476-0.882-0.714-1.854-0.714-2.912c0-1.73,0.629-3.384,1.889-4.961c1.541-1.919,3.588-3.584,6.141-4.996
			c2.712,0.776,4.793,2.104,6.243,3.98c1.45,1.878,2.175,4.134,2.175,6.771c0,1.989-0.37,3.825-1.108,5.508
			c-0.564,1.283-1.499,2.646-2.807,4.087c-1.308,1.442-2.807,2.805-4.496,4.087L53.751,204.466z M65.157,193.325
			c-0.904-3.719-3.603-6.035-8.097-6.954c-0.58,0.683-1.018,1.364-1.314,2.047s-0.444,1.371-0.444,2.065
			c0,0.836,0.208,1.659,0.625,2.471c0.417,0.813,1.024,1.506,1.823,2.083c0.598,0.435,1.549,0.888,2.853,1.359L65.157,193.325z"/>
		<path d="M79.809,186.681l3.147-3.258l3.147,3.258c-1.486,2.979-2.407,7.726-2.761,14.237h-0.74
			c-0.283-3.756-0.654-6.729-1.114-8.921C81.029,189.807,80.469,188.035,79.809,186.681z M82.956,207.521l-2.688-2.692l2.688-2.692
			l2.688,2.692L82.956,207.521z"/>
		<path d="M101.642,194.828h-0.846c-0.811-2.179-1.322-4.102-1.534-5.773c-0.212-1.671-0.294-2.801-0.247-3.39v-2.577h4.302v2.577
			c0,0.553-0.1,1.663-0.3,3.328C102.817,190.659,102.359,192.603,101.642,194.828z M110.104,194.828h-0.846
			c-0.811-2.179-1.322-4.102-1.534-5.773c-0.212-1.671-0.294-2.801-0.247-3.39v-2.577h4.302v2.577c0,0.553-0.1,1.663-0.3,3.328
			C111.279,190.659,110.821,192.603,110.104,194.828z"/>
		<path d="M134.632,181.588v1.553c1.575,0.259,3.273,0.777,5.095,1.554l-1.409,3.21l-3.686-1.054v6.671l4.531-2.366
			c1.563,1.73,2.345,3.819,2.345,6.268c0,1.553-0.388,2.995-1.164,4.324c-1.164,2.036-3.067,3.961-5.712,5.773v3.143h-1.939v-3.514
			l-7.563-2.118l2.01-3.23l5.553,1.515v-7.893l-4.213,2.176c-1.34-1.341-2.236-2.479-2.688-3.415
			c-0.453-0.937-0.679-2.004-0.679-3.204c0-1.437,0.35-2.77,1.049-3.999c0.699-1.23,1.689-2.198,2.97-2.904
			c0.94-0.529,2.127-0.858,3.562-0.988v-1.5H134.632z M132.693,186.298l-3.81-1.089c-0.716,1.224-1.074,2.413-1.074,3.565
			c0,1.225,0.308,2.33,0.925,3.318s1.625,1.964,3.023,2.929l0.935-0.488V186.298z M134.632,203.844l2.427,0.662
			c0.602-0.751,1.053-1.537,1.353-2.359c0.301-0.822,0.451-1.685,0.451-2.591c0-1.186-0.294-2.305-0.88-3.356
			c-0.587-1.051-1.379-1.811-2.376-2.281l-0.974,0.504V203.844z"/>
		<path d="M158.018,196.311c-1.599-0.506-2.856-1.336-3.772-2.489c-0.917-1.153-1.375-2.4-1.375-3.742
			c0-1.365,0.464-2.692,1.393-3.981c0.928-1.289,2.18-2.292,3.755-3.01c1.093,0.447,1.915,0.889,2.468,1.324
			c0.858,0.683,1.514,1.438,1.966,2.269c0.452,0.829,0.679,1.697,0.679,2.604c0,0.929-0.241,1.87-0.723,2.824
			c-0.482,0.953-1.123,1.8-1.922,2.541C159.933,195.157,159.11,195.71,158.018,196.311z M159.675,193.927
			c0.458-0.659,0.772-1.235,0.942-1.729c0.171-0.494,0.256-1.036,0.256-1.625c0-1.035-0.379-2.015-1.137-2.938
			s-1.89-1.627-3.394-2.11c-0.823,0.883-1.234,2.001-1.234,3.354c0,1.059,0.355,2.027,1.066,2.904
			C156.886,192.658,158.053,193.374,159.675,193.927z M159.263,208.721h-2.303l16.026-25.738h2.325L159.263,208.721z
			 M174.854,207.521c-1.599-0.506-2.856-1.336-3.773-2.489c-0.916-1.153-1.375-2.4-1.375-3.742c0-1.365,0.465-2.692,1.393-3.981
			c0.929-1.289,2.181-2.292,3.756-3.01c1.081,0.447,1.903,0.889,2.468,1.324c0.857,0.671,1.513,1.424,1.966,2.26
			c0.452,0.835,0.679,1.706,0.679,2.613c0,0.929-0.241,1.867-0.723,2.815c-0.482,0.947-1.123,1.797-1.922,2.551
			C176.769,206.367,175.946,206.921,174.854,207.521z M176.51,205.137c0.459-0.659,0.773-1.234,0.943-1.729
			c0.171-0.494,0.256-1.036,0.256-1.625c0-1.035-0.379-2.015-1.137-2.938c-0.759-0.924-1.89-1.627-3.394-2.109
			c-0.823,0.883-1.234,2-1.234,3.354c0,1.061,0.353,2.027,1.058,2.904S174.877,204.585,176.51,205.137z"/>
		<path d="M190.506,188.154l2.653-4.731h0.618c2.105,0,3.753,0.519,4.941,1.554c1.188,1.036,1.782,2.278,1.782,3.726
			c0,0.741-0.168,1.485-0.503,2.232c-0.336,0.748-1.039,1.751-2.11,3.01c-1.071,1.26-1.775,2.331-2.111,3.214
			c-0.335,0.882-0.503,2.118-0.503,3.707h-0.775c-0.023-0.496-0.035-0.86-0.035-1.096c0-0.872,0.097-1.774,0.291-2.705
			c0.195-0.931,0.6-2.245,1.214-3.941c0.46-1.273,0.69-2.333,0.69-3.184c0-0.411-0.124-0.864-0.371-1.359
			c-0.248-0.495-0.602-0.878-1.061-1.148c-0.46-0.271-0.938-0.407-1.433-0.407c-0.967,0-1.893,0.477-2.777,1.43L190.506,188.154z
			 M194.852,207.521l-2.688-2.692l2.688-2.692l2.688,2.701L194.852,207.521z"/>
		<path d="M215.175,207.521l-5.289-8.085l8.555-5.54l-3.425-6.13c-0.293-0.518-0.44-0.994-0.44-1.43c0-0.376,0.13-0.712,0.388-1.006
			c0.399-0.472,0.911-0.813,1.534-1.024c0.164-0.059,0.276-0.101,0.335-0.124l8.039-3.407c0.869,0.401,1.604,1.054,2.203,1.959
			c0.6,0.906,0.899,1.89,0.899,2.947c0,0.813-0.177,1.554-0.53,2.224c-0.353,0.671-0.904,1.317-1.658,1.941
			c-0.47,0.4-1.596,1.182-3.377,2.346l3.717,6.686l5.269-3.696c0.857,0.671,1.533,1.118,2.027,1.342
			c0.493,0.224,0.946,0.335,1.357,0.335c0.152,0,0.329-0.018,0.529-0.053c0.094-0.012,0.17-0.018,0.229-0.018l0.159,0.053
			c0.059,0.083,0.088,0.171,0.088,0.266c0,0.317-0.379,0.776-1.138,1.377c-0.759,0.6-1.573,0.899-2.443,0.899
			c-1.128,0-2.175-0.542-3.139-1.628l-2.562,1.801c0.734,1.321,1.313,2.243,1.736,2.767c0.423,0.524,0.996,0.98,1.719,1.368
			c0.723,0.389,1.548,0.583,2.477,0.583c0.67,0,1.434-0.206,2.292-0.618c0.094-0.047,0.17-0.07,0.229-0.07
			c0.06,0,0.106,0.023,0.142,0.07c0.059,0.059,0.088,0.123,0.088,0.194c0,0.354-0.214,0.842-0.644,1.466
			c-0.429,0.623-1.058,1.146-1.886,1.571c-0.829,0.423-1.719,0.635-2.671,0.635c-1.058,0-2.004-0.218-2.839-0.653
			c-0.834-0.436-1.574-1.036-2.221-1.801c-0.471-0.553-1.117-1.564-1.939-3.038L215.175,207.521z M218.26,204.396l4.345-3.048
			l-3.801-6.802l-4.865,3.178L218.26,204.396z M222.055,191.555c1.103-0.713,1.882-1.432,2.34-2.153
			c0.317-0.511,0.477-1.139,0.477-1.884c0-1.095-0.376-2.075-1.129-2.938c-0.752-0.864-1.51-1.297-2.273-1.297
			c-0.646,0-1.208,0.229-1.684,0.688c-0.477,0.459-0.715,0.977-0.715,1.553c0,0.448,0.218,1.061,0.652,1.837L222.055,191.555z"/>
		<path d="M249.242,194.015c0.799-1.29,1.387-3.119,1.763-5.49c-0.247,0.131-0.582,0.307-1.005,0.53
			c-1.528,0.788-2.744,1.719-3.649,2.789l-2.768-1.324l1.463-2.754c0.705,0.236,1.552,0.354,2.539,0.354
			c0.917,0,1.969-0.117,3.155-0.354c-1.081-1.012-1.98-1.776-2.697-2.295c-0.423-0.294-1.058-0.636-1.903-1.023l0.44-3.002
			l3.067,0.53c0.023,0.683,0.155,1.43,0.396,2.242c0.241,0.812,0.673,1.854,1.296,3.125c1.104-2.06,1.687-3.85,1.745-5.367
			l3.032-0.53l0.458,3.002c-0.846,0.341-1.51,0.688-1.991,1.041c-0.847,0.612-1.71,1.371-2.592,2.277
			c1.293,0.236,2.368,0.354,3.226,0.354c1.105,0,1.939-0.117,2.504-0.354l1.445,2.754l-2.838,1.324
			c-0.729-0.918-2.251-2.024-4.566-3.319c0.247,1.468,0.471,2.506,0.67,3.115c0.329,0.997,0.688,1.79,1.075,2.375l-2.168,2.226
			L249.242,194.015z"/>
		<path d="M278.62,214c-2.833-1.825-5.101-4.179-6.805-7.062c-1.704-2.884-2.557-5.997-2.557-9.34c0-3.507,0.917-6.772,2.75-9.798
			c1.517-2.494,3.749-4.789,6.699-6.884l0.335,0.6c-1.728,1.271-3.12,3.096-4.178,5.473c-1.246,2.789-1.869,6.179-1.869,10.169
			c0,4.271,0.658,7.908,1.975,10.91c0.929,2.07,2.286,3.871,4.072,5.401L278.62,214z"/>
		<path d="M289.376,214l-0.406-0.53c1.787-1.53,3.139-3.331,4.055-5.401c1.328-3.002,1.992-6.639,1.992-10.91
			c0-3.99-0.623-7.38-1.868-10.169c-1.069-2.377-2.463-4.202-4.179-5.473l0.317-0.6c2.962,2.095,5.195,4.39,6.699,6.884
			c1.846,3.025,2.768,6.291,2.768,9.798c0,3.343-0.852,6.456-2.556,9.34C294.494,209.821,292.22,212.175,289.376,214z"/>
	</g>
</g>
</svg>
