<?xml version="1.0" encoding="utf-8" ?>
<svg baseProfile="full" height="100%" preserveAspectRatio="xMidYMid meet" version="1.1" viewBox="-40,-40,1590,90" width="100%" xmlns="http://www.w3.org/2000/svg" xmlns:ev="http://www.w3.org/2001/xml-events" xmlns:xlink="http://www.w3.org/1999/xlink"><defs><style type="text/css"><![CDATA[
        @import url(https://cdn.jsdelivr.net/npm/firacode@6.2.0/distr/fira_code.css);
        text {
            font-family: 'STIX Two', 'STIX Two Math', 'STIXMath', 'DejaVu Math TeX Glyph',
                        'DejaVu Serif', 'Cambria Math', 'Latin Modern Math', 'FiraCode',
                        'serif';
        }
    ]]></style><style type="text/css"><![CDATA[
        @import url(https://cdn.jsdelivr.net/npm/firacode@6.2.0/distr/fira_code.css);
        text {
            font-family: 'STIX Two', 'STIX Two Math', 'STIXMath', 'DejaVu Math TeX Glyph',
                        'DejaVu Serif', 'Cambria Math', 'Latin Modern Math', 'FiraCode',
                        'serif';
        }
    ]]></style></defs><g><rect fill="black" height="2.1" stroke="none" stroke-width="0" width="2.1" x="3.9" y="3.9" /><rect fill="black" height="2.1" stroke="none" stroke-width="0" width="2.1" x="13.9" y="3.9" /><rect fill="black" height="3.2" stroke="none" stroke-width="0" width="3.2" x="23.4" y="3.4" /><rect fill="black" height="5.2" stroke="none" stroke-width="0" width="5.2" x="32.4" y="2.4" /><rect fill="black" height="5.8" stroke="none" stroke-width="0" width="5.8" x="42.1" y="2.1" /><rect fill="black" height="5.8" stroke="none" stroke-width="0" width="5.8" x="52.1" y="2.1" /><rect fill="black" height="5.2" stroke="none" stroke-width="0" width="5.2" x="62.4" y="2.4" /><rect fill="black" height="5.2" stroke="none" stroke-width="0" width="5.2" x="72.4" y="2.4" /><rect fill="black" height="5.8" stroke="none" stroke-width="0" width="5.8" x="82.1" y="2.1" /><rect fill="black" height="6.3" stroke="none" stroke-width="0" width="6.3" x="91.8" y="1.8" /><rect fill="black" height="5.8" stroke="none" stroke-width="0" width="5.8" x="102.1" y="2.1" /><rect fill="black" height="5.5" stroke="none" stroke-width="0" width="5.5" x="112.3" y="2.3" /><rect fill="black" height="5.2" stroke="none" stroke-width="0" width="5.2" x="122.4" y="2.4" /><rect fill="black" height="6.1" stroke="none" stroke-width="0" width="6.1" x="132.0" y="2.0" /><rect fill="black" height="6.3" stroke="none" stroke-width="0" width="6.3" x="141.8" y="1.8" /><rect fill="black" height="5.2" stroke="none" stroke-width="0" width="5.2" x="152.4" y="2.4" /><rect fill="black" height="5.5" stroke="none" stroke-width="0" width="5.5" x="162.3" y="2.3" /><rect fill="black" height="5.2" stroke="none" stroke-width="0" width="5.2" x="172.4" y="2.4" /><rect fill="black" height="4.8" stroke="none" stroke-width="0" width="4.8" x="182.6" y="2.6" /><rect fill="black" height="5.2" stroke="none" stroke-width="0" width="5.2" x="192.4" y="2.4" /><rect fill="black" height="3.7" stroke="none" stroke-width="0" width="3.7" x="203.2" y="3.2" /><rect fill="black" height="4.1" stroke="none" stroke-width="0" width="4.1" x="213.0" y="3.0" /><rect fill="black" height="4.5" stroke="none" stroke-width="0" width="4.5" x="222.8" y="2.8" /><rect fill="black" height="4.1" stroke="none" stroke-width="0" width="4.1" x="233.0" y="3.0" /><rect fill="black" height="3.7" stroke="none" stroke-width="0" width="3.7" x="243.2" y="3.2" /><rect fill="black" height="4.1" stroke="none" stroke-width="0" width="4.1" x="253.0" y="3.0" /><rect fill="black" height="4.8" stroke="none" stroke-width="0" width="4.8" x="262.6" y="2.6" /><rect fill="black" height="4.1" stroke="none" stroke-width="0" width="4.1" x="273.0" y="3.0" /><rect fill="black" height="4.5" stroke="none" stroke-width="0" width="4.5" x="282.8" y="2.8" /><rect fill="black" height="4.5" stroke="none" stroke-width="0" width="4.5" x="292.8" y="2.8" /><rect fill="black" height="3.2" stroke="none" stroke-width="0" width="3.2" x="303.4" y="3.4" /><rect fill="black" height="2.6" stroke="none" stroke-width="0" width="2.6" x="313.7" y="3.7" /><rect fill="black" height="4.1" stroke="none" stroke-width="0" width="4.1" x="323.0" y="3.0" /><rect fill="black" height="4.1" stroke="none" stroke-width="0" width="4.1" x="333.0" y="3.0" /><rect fill="black" height="3.7" stroke="none" stroke-width="0" width="3.7" x="343.2" y="3.2" /><rect fill="black" height="4.1" stroke="none" stroke-width="0" width="4.1" x="353.0" y="3.0" /><rect fill="black" height="4.8" stroke="none" stroke-width="0" width="4.8" x="362.6" y="2.6" /><rect fill="black" height="3.2" stroke="none" stroke-width="0" width="3.2" x="373.4" y="3.4" /><rect fill="black" height="4.1" stroke="none" stroke-width="0" width="4.1" x="383.0" y="3.0" /><rect fill="black" height="3.7" stroke="none" stroke-width="0" width="3.7" x="393.2" y="3.2" /><rect fill="black" height="2.1" stroke="none" stroke-width="0" width="2.1" x="403.9" y="3.9" /><rect fill="black" height="2.6" stroke="none" stroke-width="0" width="2.6" x="413.7" y="3.7" /><rect fill="black" height="3.7" stroke="none" stroke-width="0" width="3.7" x="423.2" y="3.2" /><rect fill="black" height="3.7" stroke="none" stroke-width="0" width="3.7" x="433.2" y="3.2" /><rect fill="black" height="4.8" stroke="none" stroke-width="0" width="4.8" x="442.6" y="2.6" /><rect fill="black" height="4.5" stroke="none" stroke-width="0" width="4.5" x="452.8" y="2.8" /><rect fill="black" height="3.2" stroke="none" stroke-width="0" width="3.2" x="463.4" y="3.4" /><rect fill="black" height="4.1" stroke="none" stroke-width="0" width="4.1" x="473.0" y="3.0" /><rect fill="black" height="4.8" stroke="none" stroke-width="0" width="4.8" x="482.6" y="2.6" /><rect fill="black" height="3.2" stroke="none" stroke-width="0" width="3.2" x="493.4" y="3.4" /><rect fill="black" height="3.2" stroke="none" stroke-width="0" width="3.2" x="503.4" y="3.4" /><rect fill="black" height="3.2" stroke="none" stroke-width="0" width="3.2" x="513.4" y="3.4" /><rect fill="black" height="2.6" stroke="none" stroke-width="0" width="2.6" x="523.7" y="3.7" /><rect fill="black" height="2.6" stroke="none" stroke-width="0" width="2.6" x="533.7" y="3.7" /><rect fill="black" height="2.1" stroke="none" stroke-width="0" width="2.1" x="543.9" y="3.9" /><rect fill="black" height="4.1" stroke="none" stroke-width="0" width="4.1" x="553.0" y="3.0" /><rect fill="black" height="2.6" stroke="none" stroke-width="0" width="2.6" x="563.7" y="3.7" /><rect fill="black" height="2.1" stroke="none" stroke-width="0" width="2.1" x="573.9" y="3.9" /><rect fill="black" height="2.1" stroke="none" stroke-width="0" width="2.1" x="583.9" y="3.9" /><rect fill="black" height="4.5" stroke="none" stroke-width="0" width="4.5" x="592.8" y="2.8" /><rect fill="black" height="2.1" stroke="none" stroke-width="0" width="2.1" x="603.9" y="3.9" /><rect fill="black" height="3.7" stroke="none" stroke-width="0" width="3.7" x="613.2" y="3.2" /><rect fill="black" height="2.6" stroke="none" stroke-width="0" width="2.6" x="623.7" y="3.7" /><rect fill="black" height="2.6" stroke="none" stroke-width="0" width="2.6" x="633.7" y="3.7" /><rect fill="black" height="3.2" stroke="none" stroke-width="0" width="3.2" x="643.4" y="3.4" /><rect fill="black" height="3.2" stroke="none" stroke-width="0" width="3.2" x="653.4" y="3.4" /><rect fill="black" height="2.6" stroke="none" stroke-width="0" width="2.6" x="663.7" y="3.7" /><rect fill="black" height="2.6" stroke="none" stroke-width="0" width="2.6" x="673.7" y="3.7" /><rect fill="black" height="2.6" stroke="none" stroke-width="0" width="2.6" x="683.7" y="3.7" /><rect fill="black" height="4.1" stroke="none" stroke-width="0" width="4.1" x="693.0" y="3.0" /><rect fill="black" height="3.7" stroke="none" stroke-width="0" width="3.7" x="703.2" y="3.2" /><rect fill="black" height="3.7" stroke="none" stroke-width="0" width="3.7" x="713.2" y="3.2" /><rect fill="black" height="3.2" stroke="none" stroke-width="0" width="3.2" x="723.4" y="3.4" /><rect fill="black" height="4.5" stroke="none" stroke-width="0" width="4.5" x="732.8" y="2.8" /><rect fill="black" height="4.1" stroke="none" stroke-width="0" width="4.1" x="743.0" y="3.0" /><rect fill="black" height="4.8" stroke="none" stroke-width="0" width="4.8" x="752.6" y="2.6" /><rect fill="black" height="3.7" stroke="none" stroke-width="0" width="3.7" x="763.2" y="3.2" /><rect fill="black" height="3.2" stroke="none" stroke-width="0" width="3.2" x="773.4" y="3.4" /><rect fill="black" height="3.7" stroke="none" stroke-width="0" width="3.7" x="783.2" y="3.2" /><rect fill="black" height="3.7" stroke="none" stroke-width="0" width="3.7" x="793.2" y="3.2" /><rect fill="black" height="3.2" stroke="none" stroke-width="0" width="3.2" x="803.4" y="3.4" /><rect fill="black" height="4.8" stroke="none" stroke-width="0" width="4.8" x="812.6" y="2.6" /><rect fill="black" height="4.5" stroke="none" stroke-width="0" width="4.5" x="822.8" y="2.8" /><rect fill="black" height="6.1" stroke="none" stroke-width="0" width="6.1" x="832.0" y="2.0" /><rect fill="black" height="4.1" stroke="none" stroke-width="0" width="4.1" x="843.0" y="3.0" /><rect fill="black" height="3.2" stroke="none" stroke-width="0" width="3.2" x="853.4" y="3.4" /><rect fill="black" height="2.1" stroke="none" stroke-width="0" width="2.1" x="863.9" y="3.9" /><rect fill="black" height="4.8" stroke="none" stroke-width="0" width="4.8" x="872.6" y="2.6" /><rect fill="black" height="3.2" stroke="none" stroke-width="0" width="3.2" x="883.4" y="3.4" /><rect fill="black" height="5.2" stroke="none" stroke-width="0" width="5.2" x="892.4" y="2.4" /><rect fill="black" height="5.8" stroke="none" stroke-width="0" width="5.8" x="902.1" y="2.1" /><rect fill="black" height="7.8" stroke="none" stroke-width="0" width="7.8" x="911.1" y="1.1" /><rect fill="black" height="4.8" stroke="none" stroke-width="0" width="4.8" x="922.6" y="2.6" /><rect fill="black" height="4.5" stroke="none" stroke-width="0" width="4.5" x="932.8" y="2.8" /><rect fill="black" height="4.5" stroke="none" stroke-width="0" width="4.5" x="942.8" y="2.8" /><rect fill="black" height="7.1" stroke="none" stroke-width="0" width="7.1" x="951.5" y="1.5" /><rect fill="black" height="3.7" stroke="none" stroke-width="0" width="3.7" x="963.2" y="3.2" /><rect fill="black" height="5.5" stroke="none" stroke-width="0" width="5.5" x="972.3" y="2.3" /><rect fill="black" height="5.2" stroke="none" stroke-width="0" width="5.2" x="982.4" y="2.4" /><rect fill="black" height="4.1" stroke="none" stroke-width="0" width="4.1" x="993.0" y="3.0" /><rect fill="black" height="4.8" stroke="none" stroke-width="0" width="4.8" x="1002.6" y="2.6" /><rect fill="black" height="4.8" stroke="none" stroke-width="0" width="4.8" x="1012.6" y="2.6" /><rect fill="black" height="4.5" stroke="none" stroke-width="0" width="4.5" x="1022.8" y="2.8" /><rect fill="black" height="9.0" stroke="none" stroke-width="0" width="9.0" x="1030.5" y="0.5" /><rect fill="black" height="5.8" stroke="none" stroke-width="0" width="5.8" x="1042.1" y="2.1" /><rect fill="black" height="5.5" stroke="none" stroke-width="0" width="5.5" x="1052.3" y="2.3" /><rect fill="black" height="7.5" stroke="none" stroke-width="0" width="7.5" x="1061.2" y="1.2" /><rect fill="black" height="5.2" stroke="none" stroke-width="0" width="5.2" x="1072.4" y="2.4" /><rect fill="black" height="5.8" stroke="none" stroke-width="0" width="5.8" x="1082.1" y="2.1" /><rect fill="black" height="6.3" stroke="none" stroke-width="0" width="6.3" x="1091.8" y="1.8" /><rect fill="black" height="8.0" stroke="none" stroke-width="0" width="8.0" x="1101.0" y="1.0" /><rect fill="black" height="7.5" stroke="none" stroke-width="0" width="7.5" x="1111.2" y="1.2" /><rect fill="black" height="5.2" stroke="none" stroke-width="0" width="5.2" x="1122.4" y="2.4" /><rect fill="black" height="7.1" stroke="none" stroke-width="0" width="7.1" x="1131.5" y="1.5" /><rect fill="black" height="5.5" stroke="none" stroke-width="0" width="5.5" x="1142.3" y="2.3" /><rect fill="black" height="8.2" stroke="none" stroke-width="0" width="8.2" x="1150.9" y="0.9" /><rect fill="black" height="7.5" stroke="none" stroke-width="0" width="7.5" x="1161.2" y="1.2" /><rect fill="black" height="6.6" stroke="none" stroke-width="0" width="6.6" x="1171.7" y="1.7" /><rect fill="black" height="7.1" stroke="none" stroke-width="0" width="7.1" x="1181.5" y="1.5" /><rect fill="black" height="5.8" stroke="none" stroke-width="0" width="5.8" x="1192.1" y="2.1" /><rect fill="black" height="7.1" stroke="none" stroke-width="0" width="7.1" x="1201.5" y="1.5" /><rect fill="black" height="8.2" stroke="none" stroke-width="0" width="8.2" x="1210.9" y="0.9" /><rect fill="black" height="7.8" stroke="none" stroke-width="0" width="7.8" x="1221.1" y="1.1" /><rect fill="black" height="7.8" stroke="none" stroke-width="0" width="7.8" x="1231.1" y="1.1" /><rect fill="black" height="8.4" stroke="none" stroke-width="0" width="8.4" x="1240.8" y="0.8" /><rect fill="black" height="8.4" stroke="none" stroke-width="0" width="8.4" x="1250.8" y="0.8" /><rect fill="black" height="8.0" stroke="none" stroke-width="0" width="8.0" x="1261.0" y="1.0" /><rect fill="black" height="6.1" stroke="none" stroke-width="0" width="6.1" x="1272.0" y="2.0" /><rect fill="black" height="8.4" stroke="none" stroke-width="0" width="8.4" x="1280.8" y="0.8" /><rect fill="black" height="7.5" stroke="none" stroke-width="0" width="7.5" x="1291.2" y="1.2" /><rect fill="black" height="8.0" stroke="none" stroke-width="0" width="8.0" x="1301.0" y="1.0" /><rect fill="black" height="7.1" stroke="none" stroke-width="0" width="7.1" x="1311.5" y="1.5" /><rect fill="black" height="7.5" stroke="none" stroke-width="0" width="7.5" x="1321.2" y="1.2" /><rect fill="black" height="7.3" stroke="none" stroke-width="0" width="7.3" x="1331.3" y="1.3" /><rect fill="black" height="8.2" stroke="none" stroke-width="0" width="8.2" x="1340.9" y="0.9" /><rect fill="black" height="7.5" stroke="none" stroke-width="0" width="7.5" x="1351.2" y="1.2" /><rect fill="black" height="8.4" stroke="none" stroke-width="0" width="8.4" x="1360.8" y="0.8" /><rect fill="black" height="6.6" stroke="none" stroke-width="0" width="6.6" x="1371.7" y="1.7" /><rect fill="black" height="8.6" stroke="none" stroke-width="0" width="8.6" x="1380.7" y="0.7" /><rect fill="black" height="6.3" stroke="none" stroke-width="0" width="6.3" x="1391.8" y="1.8" /><rect fill="black" height="6.6" stroke="none" stroke-width="0" width="6.6" x="1401.7" y="1.7" /><rect fill="black" height="5.8" stroke="none" stroke-width="0" width="5.8" x="1412.1" y="2.1" /><rect fill="black" height="6.6" stroke="none" stroke-width="0" width="6.6" x="1421.7" y="1.7" /><rect fill="black" height="9.5" stroke="none" stroke-width="0" width="9.5" x="1430.2" y="0.2" /><rect fill="black" height="8.0" stroke="none" stroke-width="0" width="8.0" x="1441.0" y="1.0" /><rect fill="black" height="8.0" stroke="none" stroke-width="0" width="8.0" x="1451.0" y="1.0" /><rect fill="black" height="7.8" stroke="none" stroke-width="0" width="7.8" x="1461.1" y="1.1" /><rect fill="black" height="6.3" stroke="none" stroke-width="0" width="6.3" x="1471.8" y="1.8" /><rect fill="black" height="7.1" stroke="none" stroke-width="0" width="7.1" x="1481.5" y="1.5" /><rect fill="black" height="7.5" stroke="none" stroke-width="0" width="7.5" x="1491.2" y="1.2" /><rect fill="black" height="7.5" stroke="none" stroke-width="0" width="7.5" x="1501.2" y="1.2" /></g><g /></svg>