<?xml version="1.0" encoding="utf-8" ?>
<svg baseProfile="full" height="100%" preserveAspectRatio="xMidYMid meet" version="1.1" viewBox="-40,-40,280,180" width="100%" xmlns="http://www.w3.org/2000/svg" xmlns:ev="http://www.w3.org/2001/xml-events" xmlns:xlink="http://www.w3.org/1999/xlink"><defs><style type="text/css"><![CDATA[
        @import url(https://cdn.jsdelivr.net/npm/firacode@6.2.0/distr/fira_code.css);
        text {
            font-family: 'STIX Two', 'STIX Two Math', 'STIXMath', 'DejaVu Math TeX Glyph',
                        'DejaVu Serif', 'Cambria Math', 'Latin Modern Math', 'FiraCode',
                        'serif';
        }
    ]]></style><style type="text/css"><![CDATA[
        @import url(https://cdn.jsdelivr.net/npm/firacode@6.2.0/distr/fira_code.css);
        text {
            font-family: 'STIX Two', 'STIX Two Math', 'STIXMath', 'DejaVu Math TeX Glyph',
                        'DejaVu Serif', 'Cambria Math', 'Latin Modern Math', 'FiraCode',
                        'serif';
        }
    ]]></style></defs><g><rect fill="white" height="3.7" stroke="black" stroke-width="0.5" width="3.7" x="3.2" y="3.2" /><rect fill="white" height="4.6" stroke="black" stroke-width="0.5" width="4.6" x="12.7" y="2.7" /><rect fill="black" height="5.2" stroke="none" stroke-width="0" width="5.2" x="22.4" y="2.4" /><rect fill="black" height="2.1" stroke="none" stroke-width="0" width="2.1" x="33.9" y="3.9" /><rect fill="white" height="5.9" stroke="black" stroke-width="0.5" width="5.9" x="42.1" y="2.1" /><rect fill="black" height="2.1" stroke="none" stroke-width="0" width="2.1" x="53.9" y="3.9" /><rect fill="black" height="3.2" stroke="none" stroke-width="0" width="3.2" x="63.4" y="3.4" /><rect fill="white" height="5.8" stroke="black" stroke-width="0.5" width="5.8" x="72.1" y="2.1" /><rect fill="white" height="3.0" stroke="black" stroke-width="0.5" width="3.0" x="83.5" y="3.5" /><rect fill="black" height="3.9" stroke="none" stroke-width="0" width="3.9" x="93.1" y="3.1" /><rect fill="black" height="4.3" stroke="none" stroke-width="0" width="4.3" x="102.8" y="2.8" /><rect fill="black" height="5.1" stroke="none" stroke-width="0" width="5.1" x="112.4" y="2.4" /><rect fill="black" height="4.7" stroke="none" stroke-width="0" width="4.7" x="122.6" y="2.6" /><rect fill="black" height="2.8" stroke="none" stroke-width="0" width="2.8" x="133.6" y="3.6" /><rect fill="white" height="4.9" stroke="black" stroke-width="0.5" width="4.9" x="142.5" y="2.5" /><rect fill="black" height="2.1" stroke="none" stroke-width="0" width="2.1" x="153.9" y="3.9" /><rect fill="white" height="2.4" stroke="black" stroke-width="0.5" width="2.4" x="163.8" y="3.8" /><rect fill="black" height="4.6" stroke="none" stroke-width="0" width="4.6" x="172.7" y="2.7" /><rect fill="black" height="2.2" stroke="none" stroke-width="0" width="2.2" x="183.9" y="3.9" /><rect fill="white" height="2.8" stroke="black" stroke-width="0.5" width="2.8" x="193.6" y="3.6" /><rect fill="white" height="6.5" stroke="black" stroke-width="0.5" width="6.5" x="1.7" y="11.7" /><rect fill="white" height="2.1" stroke="black" stroke-width="0.5" width="2.1" x="13.9" y="13.9" /><rect fill="white" height="2.1" stroke="black" stroke-width="0.5" width="2.1" x="23.9" y="13.9" /><rect fill="black" height="5.9" stroke="none" stroke-width="0" width="5.9" x="32.1" y="12.1" /><rect fill="black" height="3.8" stroke="none" stroke-width="0" width="3.8" x="43.1" y="13.1" /><rect fill="white" height="6.9" stroke="black" stroke-width="0.5" width="6.9" x="51.6" y="11.6" /><rect fill="black" height="4.7" stroke="none" stroke-width="0" width="4.7" x="62.6" y="12.6" /><rect fill="black" height="2.4" stroke="none" stroke-width="0" width="2.4" x="73.8" y="13.8" /><rect fill="black" height="5.6" stroke="none" stroke-width="0" width="5.6" x="82.2" y="12.2" /><rect fill="black" height="7.0" stroke="none" stroke-width="0" width="7.0" x="91.5" y="11.5" /><rect fill="white" height="8.3" stroke="black" stroke-width="0.5" width="8.3" x="100.8" y="10.8" /><rect fill="black" height="2.1" stroke="none" stroke-width="0" width="2.1" x="113.9" y="13.9" /><rect fill="white" height="3.6" stroke="black" stroke-width="0.5" width="3.6" x="123.2" y="13.2" /><rect fill="black" height="6.3" stroke="none" stroke-width="0" width="6.3" x="131.8" y="11.8" /><rect fill="black" height="6.9" stroke="none" stroke-width="0" width="6.9" x="141.6" y="11.6" /><rect fill="black" height="2.6" stroke="none" stroke-width="0" width="2.6" x="153.7" y="13.7" /><rect fill="white" height="3.3" stroke="black" stroke-width="0.5" width="3.3" x="163.3" y="13.3" /><rect fill="white" height="3.8" stroke="black" stroke-width="0.5" width="3.8" x="173.1" y="13.1" /><rect fill="white" height="4.2" stroke="black" stroke-width="0.5" width="4.2" x="182.9" y="12.9" /><rect fill="white" height="4.0" stroke="black" stroke-width="0.5" width="4.0" x="193.0" y="13.0" /><rect fill="black" height="6.2" stroke="none" stroke-width="0" width="6.2" x="1.9" y="21.9" /><rect fill="black" height="2.4" stroke="none" stroke-width="0" width="2.4" x="13.8" y="23.8" /><rect fill="white" height="6.5" stroke="black" stroke-width="0.5" width="6.5" x="21.8" y="21.8" /><rect fill="black" height="4.0" stroke="none" stroke-width="0" width="4.0" x="33.0" y="23.0" /><rect fill="white" height="7.5" stroke="black" stroke-width="0.5" width="7.5" x="41.2" y="21.2" /><rect fill="white" height="3.7" stroke="black" stroke-width="0.5" width="3.7" x="53.1" y="23.1" /><rect fill="white" height="3.3" stroke="black" stroke-width="0.5" width="3.3" x="63.4" y="23.4" /><rect fill="white" height="5.0" stroke="black" stroke-width="0.5" width="5.0" x="72.5" y="22.5" /><rect fill="white" height="2.1" stroke="black" stroke-width="0.5" width="2.1" x="83.9" y="23.9" /><rect fill="white" height="4.1" stroke="black" stroke-width="0.5" width="4.1" x="93.0" y="23.0" /><rect fill="white" height="7.1" stroke="black" stroke-width="0.5" width="7.1" x="101.4" y="21.4" /><rect fill="white" height="3.0" stroke="black" stroke-width="0.5" width="3.0" x="113.5" y="23.5" /><rect fill="white" height="6.1" stroke="black" stroke-width="0.5" width="6.1" x="121.9" y="21.9" /><rect fill="black" height="4.7" stroke="none" stroke-width="0" width="4.7" x="132.6" y="22.6" /><rect fill="white" height="5.8" stroke="black" stroke-width="0.5" width="5.8" x="142.1" y="22.1" /><rect fill="white" height="7.5" stroke="black" stroke-width="0.5" width="7.5" x="151.2" y="21.2" /><rect fill="white" height="3.5" stroke="black" stroke-width="0.5" width="3.5" x="163.3" y="23.3" /><rect fill="black" height="5.3" stroke="none" stroke-width="0" width="5.3" x="172.4" y="22.4" /><rect fill="white" height="6.1" stroke="black" stroke-width="0.5" width="6.1" x="181.9" y="21.9" /><rect fill="white" height="6.4" stroke="black" stroke-width="0.5" width="6.4" x="191.8" y="21.8" /><rect fill="white" height="5.7" stroke="black" stroke-width="0.5" width="5.7" x="2.1" y="32.1" /><rect fill="black" height="2.6" stroke="none" stroke-width="0" width="2.6" x="13.7" y="33.7" /><rect fill="black" height="4.6" stroke="none" stroke-width="0" width="4.6" x="22.7" y="32.7" /><rect fill="white" height="2.8" stroke="black" stroke-width="0.5" width="2.8" x="33.6" y="33.6" /><rect fill="white" height="2.1" stroke="black" stroke-width="0.5" width="2.1" x="43.9" y="33.9" /><rect fill="white" height="4.9" stroke="black" stroke-width="0.5" width="4.9" x="52.5" y="32.5" /><rect fill="black" height="4.2" stroke="none" stroke-width="0" width="4.2" x="62.9" y="32.9" /><rect fill="white" height="4.5" stroke="black" stroke-width="0.5" width="4.5" x="72.7" y="32.7" /><rect fill="black" height="4.4" stroke="none" stroke-width="0" width="4.4" x="82.8" y="32.8" /><rect fill="black" height="5.3" stroke="none" stroke-width="0" width="5.3" x="92.3" y="32.3" /><rect fill="white" height="2.1" stroke="black" stroke-width="0.5" width="2.1" x="103.9" y="33.9" /><rect fill="black" height="4.2" stroke="none" stroke-width="0" width="4.2" x="112.9" y="32.9" /><rect fill="white" height="3.8" stroke="black" stroke-width="0.5" width="3.8" x="123.1" y="33.1" /><rect fill="black" height="7.5" stroke="none" stroke-width="0" width="7.5" x="131.3" y="31.3" /><rect fill="white" height="3.0" stroke="black" stroke-width="0.5" width="3.0" x="143.5" y="33.5" /><rect fill="white" height="2.3" stroke="black" stroke-width="0.5" width="2.3" x="153.8" y="33.8" /><rect fill="white" height="3.6" stroke="black" stroke-width="0.5" width="3.6" x="163.2" y="33.2" /><rect fill="black" height="6.3" stroke="none" stroke-width="0" width="6.3" x="171.9" y="31.9" /><rect fill="black" height="6.2" stroke="none" stroke-width="0" width="6.2" x="181.9" y="31.9" /><rect fill="white" height="4.0" stroke="black" stroke-width="0.5" width="4.0" x="193.0" y="33.0" /><rect fill="black" height="4.2" stroke="none" stroke-width="0" width="4.2" x="2.9" y="42.9" /><rect fill="black" height="7.4" stroke="none" stroke-width="0" width="7.4" x="11.3" y="41.3" /><rect fill="black" height="3.2" stroke="none" stroke-width="0" width="3.2" x="23.4" y="43.4" /><rect fill="white" height="4.6" stroke="black" stroke-width="0.5" width="4.6" x="32.7" y="42.7" /><rect fill="black" height="4.7" stroke="none" stroke-width="0" width="4.7" x="42.6" y="42.6" /><rect fill="black" height="9.4" stroke="none" stroke-width="0" width="9.4" x="50.3" y="40.3" /><rect fill="white" height="2.2" stroke="black" stroke-width="0.5" width="2.2" x="63.9" y="43.9" /><rect fill="white" height="4.3" stroke="black" stroke-width="0.5" width="4.3" x="72.9" y="42.9" /><rect fill="black" height="2.1" stroke="none" stroke-width="0" width="2.1" x="83.9" y="43.9" /><rect fill="white" height="2.5" stroke="black" stroke-width="0.5" width="2.5" x="93.8" y="43.8" /><rect fill="black" height="2.1" stroke="none" stroke-width="0" width="2.1" x="103.9" y="43.9" /><rect fill="white" height="2.5" stroke="black" stroke-width="0.5" width="2.5" x="113.8" y="43.8" /><rect fill="white" height="3.4" stroke="black" stroke-width="0.5" width="3.4" x="123.3" y="43.3" /><rect fill="white" height="4.4" stroke="black" stroke-width="0.5" width="4.4" x="132.8" y="42.8" /><rect fill="black" height="3.2" stroke="none" stroke-width="0" width="3.2" x="143.4" y="43.4" /><rect fill="black" height="4.9" stroke="none" stroke-width="0" width="4.9" x="152.5" y="42.5" /><rect fill="black" height="4.8" stroke="none" stroke-width="0" width="4.8" x="162.6" y="42.6" /><rect fill="black" height="6.4" stroke="none" stroke-width="0" width="6.4" x="171.8" y="41.8" /><rect fill="white" height="2.1" stroke="black" stroke-width="0.5" width="2.1" x="183.9" y="43.9" /><rect fill="white" height="3.0" stroke="black" stroke-width="0.5" width="3.0" x="193.5" y="43.5" /><rect fill="white" height="7.6" stroke="black" stroke-width="0.5" width="7.6" x="1.2" y="51.2" /><rect fill="white" height="5.0" stroke="black" stroke-width="0.5" width="5.0" x="12.5" y="52.5" /><rect fill="black" height="4.3" stroke="none" stroke-width="0" width="4.3" x="22.8" y="52.8" /><rect fill="white" height="4.7" stroke="black" stroke-width="0.5" width="4.7" x="32.7" y="52.7" /><rect fill="white" height="4.8" stroke="black" stroke-width="0.5" width="4.8" x="42.6" y="52.6" /><rect fill="white" height="6.7" stroke="black" stroke-width="0.5" width="6.7" x="51.6" y="51.6" /><rect fill="white" height="3.0" stroke="black" stroke-width="0.5" width="3.0" x="63.5" y="53.5" /><rect fill="white" height="2.4" stroke="black" stroke-width="0.5" width="2.4" x="73.8" y="53.8" /><rect fill="white" height="2.8" stroke="black" stroke-width="0.5" width="2.8" x="83.6" y="53.6" /><rect fill="black" height="7.0" stroke="none" stroke-width="0" width="7.0" x="91.5" y="51.5" /><rect fill="white" height="6.5" stroke="black" stroke-width="0.5" width="6.5" x="101.7" y="51.7" /><rect fill="white" height="6.1" stroke="black" stroke-width="0.5" width="6.1" x="112.0" y="52.0" /><rect fill="white" height="5.9" stroke="black" stroke-width="0.5" width="5.9" x="122.1" y="52.1" /><rect fill="black" height="4.4" stroke="none" stroke-width="0" width="4.4" x="132.8" y="52.8" /><rect fill="black" height="6.1" stroke="none" stroke-width="0" width="6.1" x="141.9" y="51.9" /><rect fill="black" height="4.1" stroke="none" stroke-width="0" width="4.1" x="153.0" y="53.0" /><rect fill="black" height="4.5" stroke="none" stroke-width="0" width="4.5" x="162.7" y="52.7" /><rect fill="black" height="6.6" stroke="none" stroke-width="0" width="6.6" x="171.7" y="51.7" /><rect fill="black" height="2.4" stroke="none" stroke-width="0" width="2.4" x="183.8" y="53.8" /><rect fill="white" height="6.0" stroke="black" stroke-width="0.5" width="6.0" x="192.0" y="52.0" /><rect fill="black" height="3.6" stroke="none" stroke-width="0" width="3.6" x="3.2" y="63.2" /><rect fill="white" height="8.5" stroke="black" stroke-width="0.5" width="8.5" x="10.7" y="60.7" /><rect fill="white" height="2.1" stroke="black" stroke-width="0.5" width="2.1" x="23.9" y="63.9" /><rect fill="black" height="4.0" stroke="none" stroke-width="0" width="4.0" x="33.0" y="63.0" /><rect fill="white" height="3.1" stroke="black" stroke-width="0.5" width="3.1" x="43.4" y="63.4" /><rect fill="white" height="8.0" stroke="black" stroke-width="0.5" width="8.0" x="51.0" y="61.0" /><rect fill="white" height="2.1" stroke="black" stroke-width="0.5" width="2.1" x="63.9" y="63.9" /><rect fill="white" height="3.2" stroke="black" stroke-width="0.5" width="3.2" x="73.4" y="63.4" /><rect fill="black" height="4.1" stroke="none" stroke-width="0" width="4.1" x="83.0" y="63.0" /><rect fill="black" height="3.1" stroke="none" stroke-width="0" width="3.1" x="93.4" y="63.4" /><rect fill="black" height="2.1" stroke="none" stroke-width="0" width="2.1" x="103.9" y="63.9" /><rect fill="white" height="2.7" stroke="black" stroke-width="0.5" width="2.7" x="113.6" y="63.6" /><rect fill="black" height="3.4" stroke="none" stroke-width="0" width="3.4" x="123.3" y="63.3" /><rect fill="white" height="2.5" stroke="black" stroke-width="0.5" width="2.5" x="133.7" y="63.7" /><rect fill="white" height="6.6" stroke="black" stroke-width="0.5" width="6.6" x="141.7" y="61.7" /><rect fill="black" height="3.3" stroke="none" stroke-width="0" width="3.3" x="153.4" y="63.4" /><rect fill="black" height="7.5" stroke="none" stroke-width="0" width="7.5" x="161.3" y="61.3" /><rect fill="black" height="6.1" stroke="none" stroke-width="0" width="6.1" x="172.0" y="62.0" /><rect fill="white" height="6.3" stroke="black" stroke-width="0.5" width="6.3" x="181.9" y="61.9" /><rect fill="white" height="6.6" stroke="black" stroke-width="0.5" width="6.6" x="191.7" y="61.7" /><rect fill="black" height="6.0" stroke="none" stroke-width="0" width="6.0" x="2.0" y="72.0" /><rect fill="black" height="6.4" stroke="none" stroke-width="0" width="6.4" x="11.8" y="71.8" /><rect fill="white" height="6.2" stroke="black" stroke-width="0.5" width="6.2" x="21.9" y="71.9" /><rect fill="black" height="3.9" stroke="none" stroke-width="0" width="3.9" x="33.1" y="73.1" /><rect fill="black" height="3.1" stroke="none" stroke-width="0" width="3.1" x="43.5" y="73.5" /><rect fill="white" height="3.3" stroke="black" stroke-width="0.5" width="3.3" x="53.4" y="73.4" /><rect fill="black" height="5.7" stroke="none" stroke-width="0" width="5.7" x="62.1" y="72.1" /><rect fill="white" height="5.9" stroke="black" stroke-width="0.5" width="5.9" x="72.1" y="72.1" /><rect fill="white" height="4.5" stroke="black" stroke-width="0.5" width="4.5" x="82.8" y="72.8" /><rect fill="black" height="3.4" stroke="none" stroke-width="0" width="3.4" x="93.3" y="73.3" /><rect fill="white" height="4.6" stroke="black" stroke-width="0.5" width="4.6" x="102.7" y="72.7" /><rect fill="black" height="4.3" stroke="none" stroke-width="0" width="4.3" x="112.8" y="72.8" /><rect fill="white" height="2.6" stroke="black" stroke-width="0.5" width="2.6" x="123.7" y="73.7" /><rect fill="black" height="4.3" stroke="none" stroke-width="0" width="4.3" x="132.8" y="72.8" /><rect fill="black" height="3.5" stroke="none" stroke-width="0" width="3.5" x="143.3" y="73.3" /><rect fill="white" height="6.1" stroke="black" stroke-width="0.5" width="6.1" x="152.0" y="72.0" /><rect fill="black" height="4.3" stroke="none" stroke-width="0" width="4.3" x="162.9" y="72.9" /><rect fill="black" height="6.5" stroke="none" stroke-width="0" width="6.5" x="171.8" y="71.8" /><rect fill="black" height="5.6" stroke="none" stroke-width="0" width="5.6" x="182.2" y="72.2" /><rect fill="black" height="2.1" stroke="none" stroke-width="0" width="2.1" x="193.9" y="73.9" /><rect fill="black" height="6.0" stroke="none" stroke-width="0" width="6.0" x="2.0" y="82.0" /><rect fill="black" height="2.6" stroke="none" stroke-width="0" width="2.6" x="13.7" y="83.7" /><rect fill="black" height="3.9" stroke="none" stroke-width="0" width="3.9" x="23.1" y="83.1" /><rect fill="white" height="4.4" stroke="black" stroke-width="0.5" width="4.4" x="32.8" y="82.8" /><rect fill="black" height="4.2" stroke="none" stroke-width="0" width="4.2" x="42.9" y="82.9" /><rect fill="white" height="5.4" stroke="black" stroke-width="0.5" width="5.4" x="52.3" y="82.3" /><rect fill="white" height="3.6" stroke="black" stroke-width="0.5" width="3.6" x="63.2" y="83.2" /><rect fill="white" height="2.9" stroke="black" stroke-width="0.5" width="2.9" x="73.6" y="83.6" /><rect fill="white" height="6.7" stroke="black" stroke-width="0.5" width="6.7" x="81.6" y="81.6" /><rect fill="white" height="4.6" stroke="black" stroke-width="0.5" width="4.6" x="92.7" y="82.7" /><rect fill="white" height="2.7" stroke="black" stroke-width="0.5" width="2.7" x="103.7" y="83.7" /><rect fill="black" height="4.4" stroke="none" stroke-width="0" width="4.4" x="112.8" y="82.8" /><rect fill="white" height="6.7" stroke="black" stroke-width="0.5" width="6.7" x="121.6" y="81.6" /><rect fill="white" height="9.5" stroke="black" stroke-width="0.5" width="9.5" x="130.2" y="80.2" /><rect fill="black" height="6.3" stroke="none" stroke-width="0" width="6.3" x="141.8" y="81.8" /><rect fill="black" height="6.4" stroke="none" stroke-width="0" width="6.4" x="151.8" y="81.8" /><rect fill="white" height="7.5" stroke="black" stroke-width="0.5" width="7.5" x="161.3" y="81.3" /><rect fill="black" height="6.2" stroke="none" stroke-width="0" width="6.2" x="171.9" y="81.9" /><rect fill="black" height="6.8" stroke="none" stroke-width="0" width="6.8" x="181.6" y="81.6" /><rect fill="black" height="4.1" stroke="none" stroke-width="0" width="4.1" x="192.9" y="82.9" /><rect fill="white" height="6.0" stroke="black" stroke-width="0.5" width="6.0" x="2.0" y="92.0" /><rect fill="white" height="2.2" stroke="black" stroke-width="0.5" width="2.2" x="13.9" y="93.9" /><rect fill="black" height="7.2" stroke="none" stroke-width="0" width="7.2" x="21.4" y="91.4" /><rect fill="black" height="4.6" stroke="none" stroke-width="0" width="4.6" x="32.7" y="92.7" /><rect fill="white" height="5.5" stroke="black" stroke-width="0.5" width="5.5" x="42.3" y="92.3" /><rect fill="black" height="5.8" stroke="none" stroke-width="0" width="5.8" x="52.1" y="92.1" /><rect fill="black" height="2.5" stroke="none" stroke-width="0" width="2.5" x="63.7" y="93.7" /><rect fill="black" height="6.1" stroke="none" stroke-width="0" width="6.1" x="71.9" y="91.9" /><rect fill="white" height="2.1" stroke="black" stroke-width="0.5" width="2.1" x="83.9" y="93.9" /><rect fill="white" height="2.1" stroke="black" stroke-width="0.5" width="2.1" x="93.9" y="93.9" /><rect fill="white" height="5.6" stroke="black" stroke-width="0.5" width="5.6" x="102.2" y="92.2" /><rect fill="black" height="2.1" stroke="none" stroke-width="0" width="2.1" x="113.9" y="93.9" /><rect fill="white" height="2.1" stroke="black" stroke-width="0.5" width="2.1" x="123.9" y="93.9" /><rect fill="black" height="6.6" stroke="none" stroke-width="0" width="6.6" x="131.7" y="91.7" /><rect fill="black" height="3.0" stroke="none" stroke-width="0" width="3.0" x="143.5" y="93.5" /><rect fill="black" height="4.1" stroke="none" stroke-width="0" width="4.1" x="153.0" y="93.0" /><rect fill="black" height="5.5" stroke="none" stroke-width="0" width="5.5" x="162.3" y="92.3" /><rect fill="black" height="5.5" stroke="none" stroke-width="0" width="5.5" x="172.3" y="92.3" /><rect fill="black" height="2.1" stroke="none" stroke-width="0" width="2.1" x="183.9" y="93.9" /><rect fill="white" height="5.1" stroke="black" stroke-width="0.5" width="5.1" x="192.4" y="92.4" /></g><g /></svg>