<?xml version="1.0" encoding="UTF-8" standalone="no"?>
<!-- Created with Inkscape (http://www.inkscape.org/) -->

<svg
   id="fraktur"
   version="1.1"
   inkscape:version="1.3 (0e150ed6c4, 2023-07-21)"
   width="444.50916"
   height="199.80066"
   sodipodi:docname="Schriftzug_Fraktur.svg"
   xmlns:inkscape="http://www.inkscape.org/namespaces/inkscape"
   xmlns:sodipodi="http://sodipodi.sourceforge.net/DTD/sodipodi-0.dtd"
   xmlns="http://www.w3.org/2000/svg"
   xmlns:svg="http://www.w3.org/2000/svg"
   xmlns:rdf="http://www.w3.org/1999/02/22-rdf-syntax-ns#"
   xmlns:cc="http://creativecommons.org/ns#"
   xmlns:dc="http://purl.org/dc/elements/1.1/">
  <title
     id="title">Fraktur</title>
  <metadata
     id="metadata">
    <rdf:RDF>
      <cc:Work
         rdf:about="">
        <dc:format>image/svg+xml</dc:format>
        <dc:type
           rdf:resource="http://purl.org/dc/dcmitype/StillImage" />
        <cc:license
           rdf:resource="http://creativecommons.org/licenses/by-sa/3.0/" />
        <dc:title>Fraktur</dc:title>
        <dc:date>2004-03-25</dc:date>
        <dc:creator>
          <cc:Agent>
            <dc:title>Strehl, Manuel</dc:title>
          </cc:Agent>
        </dc:creator>
        <dc:rights>
          <cc:Agent>
            <dc:title>GFDL 1.2, CC-BY-SA-3.0</dc:title>
          </cc:Agent>
        </dc:rights>
        <dc:source>http://commons.wikimedia.org/wiki/File:Schriftzug_Fraktur.jpg</dc:source>
        <dc:language>de</dc:language>
        <dc:description>Schriftzug: &quot;Fraktur&quot;, geschrieben in der gleichnamigen Schriftart. Calligraphic writing of the word &quot;Fraktur&quot; in the German font of same name.</dc:description>
      </cc:Work>
      <cc:License
         rdf:about="http://creativecommons.org/licenses/by-sa/3.0/">
        <cc:permits
           rdf:resource="http://creativecommons.org/ns#Reproduction" />
        <cc:permits
           rdf:resource="http://creativecommons.org/ns#Distribution" />
        <cc:requires
           rdf:resource="http://creativecommons.org/ns#Notice" />
        <cc:requires
           rdf:resource="http://creativecommons.org/ns#Attribution" />
        <cc:permits
           rdf:resource="http://creativecommons.org/ns#DerivativeWorks" />
        <cc:requires
           rdf:resource="http://creativecommons.org/ns#ShareAlike" />
      </cc:License>
    </rdf:RDF>
  </metadata>
  <defs
     id="defs" />
  <sodipodi:namedview
     pagecolor="#ffffff"
     bordercolor="#666666"
     borderopacity="1"
     objecttolerance="10"
     gridtolerance="10"
     guidetolerance="10"
     inkscape:pageopacity="0"
     inkscape:pageshadow="2"
     inkscape:window-width="1920"
     inkscape:window-height="1007"
     id="base"
     showgrid="false"
     inkscape:zoom="1.4258555"
     inkscape:cx="218.11467"
     inkscape:cy="106.95333"
     inkscape:window-x="-9"
     inkscape:window-y="-9"
     inkscape:window-maximized="1"
     inkscape:current-layer="fraktur"
     inkscape:showpageshadow="2"
     inkscape:pagecheckerboard="0"
     inkscape:deskcolor="#d1d1d1" />
  <path
     style="fill:#000000"
     d="m 53.49627,199.03589 c -3.061812,-1.28476 -9.013632,-7.96662 -12.055316,-13.53401 -1.502435,-2.75 -5.929621,-9.1059 -9.838192,-14.12422 l -7.106492,-9.12423 -3,3.15301 c -4.275807,4.49388 -10.5,9.04131 -10.5,7.67135 0,-2.38522 23.270923,-23.99275 25.898217,-24.04703 1.341633,-0.0277 12.055846,10.74669 12.08677,12.15467 0.0083,0.37596 1.389671,2.89492 3.069808,5.5977 2.862314,4.60449 6.316085,15.80963 5.353235,17.36757 -1.1589,1.87513 2.07927,5.85197 5.24922,6.44666 2.84686,0.53407 3.93098,0.1226 7.20172,-2.73338 5.23132,-4.56794 7.00576,-7.71634 8.57438,-15.21354 2.39072,-11.42644 -1.0894,-26.26519 -8.93048,-38.07827 -1.92658,-2.90252 -3.50287,-5.5364 -3.50287,-5.85308 0,-0.31668 -1.84031,-3.34642 -4.08957,-6.73275 C 56.157,113.33 49.19968,98.347443 48.005375,92.049893 47.450367,89.123353 46.99627,83.175363 46.99627,78.83215 c 0,-8.828975 2.018561,-14.082786 8.154437,-21.223968 1.840063,-2.141536 3.345563,-4.333937 3.345563,-4.872002 0,-0.538065 -3.6,-2.308918 -8,-3.935228 -6.65388,-2.459381 -9.428998,-2.943615 -16.492545,-2.877805 -19.374301,0.180507 -26.3712033,7.149298 -22.167801,22.078736 1.719751,6.108128 2.020903,6.518892 4.995214,6.813358 3.730589,0.369341 4.141808,2.389144 0.942626,4.629938 C 13.099405,82.719223 5.4440937,80.424352 1.9557857,74.703334 0.76905067,72.757025 0.00228067,69.69845 7.6745855e-6,66.901921 -0.00439233,61.429815 1.8800087,58.564059 13.803663,45.910145 25.12268,33.897898 30.354431,31.52558 45.49627,31.539249 c 12.84245,0.01159 19.61447,1.992705 37.53706,10.98122 13.6251,6.833243 35.61591,15.834159 43.92357,17.978071 9.97745,2.574824 18.87011,0.665127 21.61437,-4.641682 2.08983,-4.041291 1.84093,-6.854975 -0.60638,-6.854975 -2.83152,0 -3.74413,-2.959768 -1.43356,-4.649297 2.34981,-1.718219 5.32822,-0.88945 8.21494,2.285874 4.94364,5.437896 1.91076,11.725957 -8.20655,17.014611 -3.8739,2.025014 -8.66192,4.693977 -10.64004,5.93103 -1.97813,1.237052 -5.89355,2.931309 -8.70094,3.765014 -10.10334,3.000371 -18.51491,0.552787 -61.95792,-18.028418 -3.76732,-1.611339 -5.5091,14.406059 -2.72775,25.084396 2.21291,8.4959 12.66154,29.135507 13.62648,26.916937 0.83208,-1.91308 15.79615,-14.320147 17.27142,-14.320147 0.88858,0 3.97128,1.3015 6.85045,2.89221 2.87917,1.59072 6.94797,3.43407 9.04178,4.09634 3.02245,0.955997 3.74368,1.640497 3.5,3.321787 -0.39326,2.71332 -9.31874,9.49414 -13.55232,10.2959 -3.78363,0.71654 -9.84483,-1.42916 -14.87498,-5.26585 -2.77387,-2.11574 -3.65449,-2.35716 -4.88199,-1.33843 -2.30776,1.91527 -1.8082,4.60863 1.94221,10.47146 9.56971,14.95987 12.15798,23.40857 11.2663,36.77582 -0.38769,5.81184 -1.28887,9.39884 -3.60456,14.34736 -3.04636,6.50993 -13.17998,20.35075 -18.74341,25.60035 -5.11282,4.82442 -12.10624,6.83101 -16.85818,4.83706 z m 140.18169,-32.68565 c -0.37493,-0.37493 -0.68169,-1.6923 -0.68169,-2.92749 0,-3.43678 -10.15418,-13.21135 -14.13432,-13.60592 l -3.17704,-0.31495 2.69563,-3.19183 2.69563,-3.19183 -1.11164,-10.80817 c -1.75317,-17.0455 -0.21157,-24.75585 6.25972,-31.30817 5.58812,-5.658097 17.55991,-14.999997 19.22272,-14.999997 0.37551,0 2.26847,-1.20949 4.20658,-2.68776 2.86951,-2.188685 3.83197,-2.469575 5.18328,-1.512721 4.29529,3.041481 8.01673,4.534521 12.05616,4.836931 5.59609,0.41894 6.1726,1.04868 3.08834,3.37347 -2.35113,1.77218 -2.48483,2.40174 -2.48079,11.681607 0.01,22.70075 0.76837,35.47586 2.13749,36.00124 0.73688,0.28277 2.95726,2.71757 4.93418,5.41068 3.91796,5.33733 7.01117,6.27491 11.14632,3.37853 2.02723,-1.41993 2.14919,-2.21145 1.88743,-12.25 -0.15391,-5.90259 -0.8139,-15.90698 -1.46664,-22.23198 -2.4221,-23.469787 -3.21669,-32.911442 -4.16583,-49.499997 -0.53498,-9.35 -1.93522,-23.425988 -3.11165,-31.279973 -1.17642,-7.853985 -1.88238,-14.536546 -1.56879,-14.850136 1.37408,-1.374089 2.49689,1.077855 3.69144,8.061218 1.10028,6.432332 1.51388,7.370544 2.91793,6.619116 0.89977,-0.48154 2.43218,-3.052334 3.40536,-5.712876 2.20265,-6.021739 4.43727,-8.585718 13.50179,-15.4918082 10.83034,-8.25144 17.36868,-11.330229 19.51136,-9.18755001 1.0864,1.08639801 -1.41526,3.34200901 -3.70656,3.34200901 -1.17535,0 -2.69907,0.9 -3.38603,2 -0.68696,1.1 -1.84176,2 -2.56623,2 -3.23289,0 -8.43225,8.6816142 -10.78008,18.0000002 -1.55755,6.181804 -1.74532,51.393953 -0.23336,56.18689 l 0.8476,2.6869 5.98195,-4.936895 c 7.47456,-6.168748 10.63546,-6.474454 15.46139,-1.49535 3.01918,3.114996 3.28085,3.850295 2.75787,7.749395 -0.43459,3.24018 -1.45691,5.1135 -4.12482,7.55846 l -3.54702,3.2506 4.23532,0.003 c 2.32942,0.002 7.45548,-0.95125 11.39124,-2.11775 8.13963,-2.41247 7.92364,-2.03229 8.25442,-14.529549 0.11257,-4.253132 0.45358,-8.135698 0.75779,-8.627925 0.86972,-1.40707 12.44104,-9.727776 13.52831,-9.727776 0.60459,0 0.84831,5.299435 0.64,13.915796 -0.18505,7.653684 -0.0401,14.212584 0.3222,14.575324 0.36226,0.36274 4.16426,0.64122 8.44888,0.61885 7.06018,-0.0369 8.16986,-0.32221 11.84134,-3.04495 12.74326,-9.450277 13.2462,-9.535152 16.22343,-2.73785 1.60599,3.66665 1.8277,7.12679 1.8277,28.524787 v 24.35197 l 6.22817,3.37502 c 3.4255,1.85627 6.88102,3.12451 7.67895,2.81832 1.89058,-0.72549 2.70878,-8.71252 2.85783,-27.89727 0.0962,-12.38394 -0.19728,-15.74122 -1.68279,-19.249997 -1.82632,-4.31378 -3.27105,-5.16111 -5.31494,-3.11722 -0.62303,0.62303 -1.89929,0.83865 -2.83612,0.47915 -1.57815,-0.60559 -1.56471,-0.81027 0.18278,-2.78483 3.66427,-4.14042 16.43775,-13.744456 17.65367,-13.273324 2.06982,0.802 5.87146,7.118704 6.81699,11.326964 1.22906,5.47013 1.30522,10.264807 0.43342,27.283717 -0.65046,12.69787 -0.5344,14.97398 0.86542,16.97251 0.88914,1.26942 1.61662,2.95294 1.61662,3.74115 0,2.04771 4.84188,8.12188 6.47417,8.12188 2.55811,0 7.44713,-5.06079 8.02822,-8.31028 0.31372,-1.75435 0.1529,-10.61472 -0.35737,-19.68972 -0.72404,-12.87682 -1.40501,-17.75845 -3.10113,-22.230987 -2.42259,-6.38819 -3.47564,-7.4855 -5.53966,-5.77252 -0.77448,0.64276 -2.14038,1.019 -3.03533,0.83609 -2.29265,-0.46859 14.37274,-13.809642 17.26691,-13.822583 1.54232,-0.0069 3.0803,1.308253 4.95841,4.240003 1.49742,2.3375 2.83306,4.41675 2.96807,4.62055 0.13502,0.20381 1.95373,-0.9767 4.0416,-2.62334 9.86151,-7.777516 13.63628,-8.750606 18.76631,-4.837738 8.68439,6.623908 5.80105,19.575038 -5.95401,26.743675 -4.93231,3.00789 -5.51619,2.53082 -5.51619,-4.50713 0,-5.400107 -0.37721,-6.760987 -2.51268,-9.065197 -3.10312,-3.34832 -8.26246,-3.4034 -7.57125,-0.0808 0.22884,1.1 0.55633,13.249997 0.72775,26.999997 l 0.31168,25 2.54391,2.22067 c 1.90081,1.65927 3.29685,2.07008 5.52225,1.625 1.7493,-0.34986 2.97834,-0.17418 2.97834,0.42574 0,1.37085 -6.36543,6.89241 -8.85769,7.68342 -1.094,0.34723 -3.46816,2.93624 -5.27591,5.75337 l -3.28681,5.12205 -2.5398,-3.37403 c -4.5907,-6.09861 -10.74433,-11.95624 -12.56038,-11.95624 -1.77457,0 -11.0735,8.6846 -13.38423,12.5 -0.72537,1.19772 -1.40541,1.54828 -1.69525,0.87391 -1.37805,-3.2063 -10.08874,-14.87391 -11.10441,-14.87391 -1.97461,0 -12.29552,10.57984 -12.29552,12.60399 0,2.7662 -1.5598,2.32295 -4.02917,-1.14496 -1.31432,-1.84578 -5.10059,-4.4531 -9.63359,-6.63393 -6.55076,-3.15156 -7.75559,-3.43916 -9.80738,-2.34108 -4.53978,2.42961 -4.92247,-0.007 -0.68331,-4.35085 l 4.03363,-4.13317 0.30991,-20.5 c 0.17045,-11.275 -0.0633,-21.9625 -0.51955,-23.749997 -0.89345,-3.50078 -2.67104,-4.15925 -4.68317,-1.73478 -2.0734,2.498287 -10.9222,6.484777 -14.39425,6.484777 h -3.24255 l -0.062,20.03552 -0.062,20.03552 3.27842,2.50057 c 1.80314,1.37532 3.86293,2.37184 4.57732,2.21449 0.7144,-0.15736 1.47434,0.51812 1.68877,1.50107 0.24726,1.13343 -1.19419,3.26503 -3.94061,5.82735 -2.38176,2.2221 -5.50484,5.13038 -6.94017,6.46283 -1.43532,1.33246 -3.0792,2.42265 -3.65304,2.42265 -0.57385,0 -3.19969,-2.25 -5.83519,-5 -4.10606,-4.28445 -5.33637,-5 -8.59695,-5 -2.09281,0 -3.80512,-0.39764 -3.80512,-0.88364 0,-0.486 1.9125,-2.61198 4.25,-4.72441 l 4.25,-3.84078 -0.22212,-17.52558 c -0.12217,-9.63908 -0.42524,-18.42559 -0.67349,-19.52559 -0.24825,-1.1 -0.4858,-2.46657 -0.52788,-3.03683 -0.12476,-1.69071 -19.5336,1.10554 -23.9024,3.44365 -0.97464,0.52161 -4.58473,1.2666 -8.02244,1.65553 l -6.25037,0.70715 0.20171,13.70553 0.2017,13.70554 4.39165,4.64808 c 2.41541,2.55645 5.27185,5.11915 6.34765,5.6949 2.08134,1.1139 2.65272,2.97645 0.91308,2.97645 -1.22452,0 -11.94994,7.94628 -11.9724,8.87015 -0.008,0.34642 -0.41639,1.2634 -0.9066,2.03774 -0.68997,1.08988 -2.16436,0.0328 -6.52756,-4.67996 -7.77378,-8.39662 -9.52744,-8.63438 -18.76463,-2.54407 -4.54009,2.99339 -7.20157,5.39624 -7.02021,6.33801 0.16067,0.83425 -0.38158,2.40811 -1.20498,3.49747 -1.43087,1.89304 -1.49851,1.8389 -1.52891,-1.22389 -0.019,-1.91489 -0.9373,-4.16538 -2.2818,-5.59206 -1.2375,-1.31313 -3.6986,-4.03359 -5.46911,-6.04545 -1.77051,-2.01187 -3.7675,-3.65794 -4.43776,-3.65794 -0.67026,0 -3.77292,2.00674 -6.8948,4.45943 -3.12188,2.45269 -6.86239,4.99992 -8.31224,5.66052 -1.6126,0.73475 -2.64204,2.01234 -2.6514,3.29057 -0.0187,2.55316 -1.37263,4.8682 -2.303,3.93784 z m 17.23331,-21.00138 c 2.35095,-1.64666 2.35713,-1.70526 1.60811,-15.25 -0.77933,-14.0929 -0.78208,-22.44311 -0.009,-27.59698 0.42423,-2.828567 0.0828,-3.179557 -5.97453,-6.142287 -5.90257,-2.88703 -6.54056,-3.00888 -7.85349,-1.5 -4.0858,4.6956 -4.68506,10.617307 -3.20209,31.642287 l 0.77587,11 4.62011,4.73841 c 5.03468,5.1636 6.46747,5.60744 10.0351,3.10857 z m 59.08475,-49.792257 c 3.5e-4,-2.72099 -4.91015,-7.55472 -7.6747,-7.55472 -2.00622,0 -2.25263,0.41607 -1.9247,3.25 0.20685,1.7875 0.42639,3.96815 0.48787,4.84589 0.0857,1.22374 1.16109,1.57353 4.61153,1.5 3.75794,-0.0801 4.49979,-0.41658 4.5,-2.04117 z M 146.99627,164.0906 c 0,-1.0512 -2.43097,-4.40122 -5.40216,-7.4445 l -5.40215,-5.53322 1.39554,-4.05057 c 1.98688,-5.76699 1.38965,-36.07248 -0.81129,-41.16713 -2.11664,-4.89951 -6.71778,-9.090357 -9.43864,-8.596977 -3.26176,0.59145 -1.9544,-1.46469 4.48291,-7.05046 9.46521,-8.21314 9.35279,-8.1993 15.62815,-1.92393 l 5.41324,5.41324 3.3172,-2.71408 c 5.55814,-4.54757 11.65321,-8.02109 14.07482,-8.02109 1.26355,0 3.41,0.76236 4.76987,1.69413 6.38035,4.37173 7.33332,7.96543 4.10772,15.490447 -1.4494,3.3813 -2.98317,4.95908 -6.88533,7.0829 -2.7613,1.50289 -5.52214,2.73252 -6.13521,2.73252 -0.63679,0 -1.11467,-1.74307 -1.11467,-4.06574 0,-2.23616 -0.48622,-4.97426 -1.08049,-6.084657 -1.3896,-2.59648 -7.79829,-5.37082 -9.19052,-3.97859 -0.62966,0.62966 -0.93668,9.566917 -0.81823,23.818407 l 0.1896,22.81058 2.95415,2.98511 2.95416,2.9851 2.53614,-2.7351 c 3.16324,-3.41142 4.45519,-3.46579 4.45519,-0.18749 0,3.34969 -8.3565,11.75487 -13.31317,13.39072 -3.1305,1.03316 -3.68683,1.65775 -3.68683,4.13921 0,1.93107 -0.50885,2.92245 -1.5,2.92245 -0.825,0 -1.5,-0.86007 -1.5,-1.91128 z"
     id="traced-path"
     inkscape:connector-curvature="0" />
</svg>
