<?xml version="1.0" encoding="utf-8" ?>
<svg baseProfile="full" preserveAspectRatio="xMidYMid meet" version="1.1" viewBox="0,0,17,17" xmlns="http://www.w3.org/2000/svg" xmlns:ev="http://www.w3.org/2001/xml-events" xmlns:xlink="http://www.w3.org/1999/xlink"><defs><style type="text/css"><![CDATA[
            * {
                stroke-width: 0.1;
            }
        ]]></style></defs><g transform="translate(1,1)"><rect fill="black" height="0.576" width="0.576" x="-0.288" y="-0.288" /><rect fill="black" height="0.168" width="0.168" x="0.916" y="-0.084" /><rect fill="black" height="0.346" width="0.346" x="1.827" y="-0.173" /><rect fill="black" height="0.274" width="0.274" x="2.863" y="-0.137" /><rect fill="black" height="0.112" width="0.112" x="3.944" y="-0.056" /><rect fill="black" height="0.244" width="0.244" x="4.878" y="-0.122" /><rect fill="black" height="0.762" width="0.762" x="5.619" y="-0.381" /><rect fill="black" height="0.719" width="0.719" x="6.6405" y="-0.3595" /><rect fill="black" height="0.181" width="0.181" x="7.9095" y="-0.0905" /><rect fill="black" height="0.06" width="0.06" x="8.97" y="-0.03" /><rect fill="black" height="0.465" width="0.465" x="9.7675" y="-0.2325" /><rect fill="black" height="0.149" width="0.149" x="10.9255" y="-0.0745" /><rect fill="black" height="0.692" width="0.692" x="11.654" y="-0.346" /><rect fill="black" height="0.033" width="0.033" x="12.9835" y="-0.0165" /><rect fill="black" height="0.073" width="0.073" x="13.9635" y="-0.0365" /><rect fill="black" height="0.087" width="0.087" x="14.9565" y="-0.0435" /><rect fill="black" height="0.548" width="0.548" x="-0.274" y="0.726" /><rect fill="black" height="0.32" width="0.32" x="0.84" y="0.84" /><rect fill="black" height="0.161" width="0.161" x="1.9195" y="0.9195" /><rect fill="black" height="0.73" width="0.73" x="2.635" y="0.635" /><rect fill="black" height="0.15" width="0.15" x="3.925" y="0.925" /><rect fill="black" height="0.686" width="0.686" x="4.657" y="0.657" /><rect fill="black" height="0.349" width="0.349" x="5.8255" y="0.8255" /><rect fill="black" height="0.538" width="0.538" x="6.731" y="0.731" /><rect fill="black" height="0.334" width="0.334" x="7.833" y="0.833" /><rect fill="black" height="0.095" width="0.095" x="8.9525" y="0.9525" /><rect fill="black" height="0.523" width="0.523" x="9.7385" y="0.7384999999999999" /><rect fill="black" height="0.227" width="0.227" x="10.8865" y="0.8865" /><rect fill="black" height="0.696" width="0.696" x="11.652" y="0.652" /><rect fill="black" height="0.125" width="0.125" x="12.9375" y="0.9375" /><rect fill="black" height="0.188" width="0.188" x="13.906" y="0.906" /><rect fill="black" height="0.349" width="0.349" x="14.8255" y="0.8255" /><rect fill="black" height="0.396" width="0.396" x="-0.198" y="1.802" /><rect fill="black" height="0.148" width="0.148" x="0.926" y="1.926" /><rect fill="black" height="0.0" width="0.0" x="2.0" y="2.0" /><rect fill="black" height="0.21" width="0.21" x="2.895" y="1.895" /><rect fill="black" height="0.552" width="0.552" x="3.724" y="1.724" /><rect fill="black" height="0.077" width="0.077" x="4.9615" y="1.9615" /><rect fill="black" height="0.594" width="0.594" x="5.703" y="1.703" /><rect fill="black" height="0.358" width="0.358" x="6.821" y="1.821" /><rect fill="black" height="0.41" width="0.41" x="7.795" y="1.795" /><rect fill="black" height="0.49" width="0.49" x="8.755" y="1.755" /><rect fill="black" height="0.231" width="0.231" x="9.8845" y="1.8845" /><rect fill="black" height="0.351" width="0.351" x="10.8245" y="1.8245" /><rect fill="black" height="0.474" width="0.474" x="11.763" y="1.763" /><rect fill="black" height="0.391" width="0.391" x="12.8045" y="1.8045" /><rect fill="black" height="0.746" width="0.746" x="13.627" y="1.627" /><rect fill="black" height="0.309" width="0.309" x="14.8455" y="1.8455" /><rect fill="black" height="0.593" width="0.593" x="-0.2965" y="2.7035" /><rect fill="black" height="0.418" width="0.418" x="0.791" y="2.791" /><rect fill="black" height="0.515" width="0.515" x="1.7425" y="2.7425" /><rect fill="black" height="0.632" width="0.632" x="2.684" y="2.684" /><rect fill="black" height="0.109" width="0.109" x="3.9455" y="2.9455" /><rect fill="black" height="0.244" width="0.244" x="4.878" y="2.878" /><rect fill="black" height="0.09" width="0.09" x="5.955" y="2.955" /><rect fill="black" height="0.518" width="0.518" x="6.741" y="2.741" /><rect fill="black" height="0.795" width="0.795" x="7.6025" y="2.6025" /><rect fill="black" height="0.352" width="0.352" x="8.824" y="2.824" /><rect fill="black" height="0.678" width="0.678" x="9.661" y="2.661" /><rect fill="black" height="0.045" width="0.045" x="10.9775" y="2.9775" /><rect fill="black" height="0.771" width="0.771" x="11.6145" y="2.6145" /><rect fill="black" height="0.698" width="0.698" x="12.651" y="2.651" /><rect fill="black" height="0.561" width="0.561" x="13.7195" y="2.7195" /><rect fill="black" height="0.132" width="0.132" x="14.934" y="2.934" /><rect fill="black" height="0.338" width="0.338" x="-0.169" y="3.831" /><rect fill="black" height="0.224" width="0.224" x="0.888" y="3.888" /><rect fill="black" height="0.718" width="0.718" x="1.641" y="3.641" /><rect fill="black" height="0.141" width="0.141" x="2.9295" y="3.9295" /><rect fill="black" height="0.594" width="0.594" x="3.703" y="3.703" /><rect fill="black" height="0.062" width="0.062" x="4.969" y="3.969" /><rect fill="black" height="0.283" width="0.283" x="5.8585" y="3.8585" /><rect fill="black" height="0.014" width="0.014" x="6.993" y="3.993" /><rect fill="black" height="0.719" width="0.719" x="7.6405" y="3.6405" /><rect fill="black" height="0.157" width="0.157" x="8.9215" y="3.9215" /><rect fill="black" height="0.706" width="0.706" x="9.647" y="3.6470000000000002" /><rect fill="black" height="0.209" width="0.209" x="10.8955" y="3.8955" /><rect fill="black" height="0.329" width="0.329" x="11.8355" y="3.8355" /><rect fill="black" height="0.167" width="0.167" x="12.9165" y="3.9165" /><rect fill="black" height="0.552" width="0.552" x="13.724" y="3.724" /><rect fill="black" height="0.079" width="0.079" x="14.9605" y="3.9605" /><rect fill="black" height="0.29" width="0.29" x="-0.145" y="4.855" /><rect fill="black" height="0.289" width="0.289" x="0.8555" y="4.8555" /><rect fill="black" height="0.006" width="0.006" x="1.997" y="4.997" /><rect fill="black" height="0.268" width="0.268" x="2.866" y="4.866" /><rect fill="black" height="0.514" width="0.514" x="3.743" y="4.743" /><rect fill="black" height="0.376" width="0.376" x="4.812" y="4.812" /><rect fill="black" height="0.701" width="0.701" x="5.6495" y="4.6495" /><rect fill="black" height="0.373" width="0.373" x="6.8135" y="4.8135" /><rect fill="black" height="0.653" width="0.653" x="7.6735" y="4.6735" /><rect fill="black" height="0.439" width="0.439" x="8.7805" y="4.7805" /><rect fill="black" height="0.487" width="0.487" x="9.7565" y="4.7565" /><rect fill="black" height="0.189" width="0.189" x="10.9055" y="4.9055" /><rect fill="black" height="0.081" width="0.081" x="11.9595" y="4.9595" /><rect fill="black" height="0.454" width="0.454" x="12.773" y="4.773" /><rect fill="black" height="0.645" width="0.645" x="13.6775" y="4.6775" /><rect fill="black" height="0.698" width="0.698" x="14.651" y="4.651" /><rect fill="black" height="0.583" width="0.583" x="-0.2915" y="5.7085" /><rect fill="black" height="0.484" width="0.484" x="0.758" y="5.758" /><rect fill="black" height="0.014" width="0.014" x="1.993" y="5.993" /><rect fill="black" height="0.208" width="0.208" x="2.896" y="5.896" /><rect fill="black" height="0.718" width="0.718" x="3.641" y="5.641" /><rect fill="black" height="0.647" width="0.647" x="4.6765" y="5.6765" /><rect fill="black" height="0.316" width="0.316" x="5.842" y="5.842" /><rect fill="black" height="0.795" width="0.795" x="6.6025" y="5.6025" /><rect fill="black" height="0.466" width="0.466" x="7.767" y="5.767" /><rect fill="black" height="0.336" width="0.336" x="8.832" y="5.832" /><rect fill="black" height="0.396" width="0.396" x="9.802" y="5.802" /><rect fill="black" height="0.621" width="0.621" x="10.6895" y="5.6895" /><rect fill="black" height="0.394" width="0.394" x="11.803" y="5.803" /><rect fill="black" height="0.208" width="0.208" x="12.896" y="5.896" /><rect fill="black" height="0.283" width="0.283" x="13.8585" y="5.8585" /><rect fill="black" height="0.397" width="0.397" x="14.8015" y="5.8015" /><rect fill="black" height="0.294" width="0.294" x="-0.147" y="6.853" /><rect fill="black" height="0.683" width="0.683" x="0.6585" y="6.6585" /><rect fill="black" height="0.065" width="0.065" x="1.9675" y="6.9675" /><rect fill="black" height="0.118" width="0.118" x="2.941" y="6.941" /><rect fill="black" height="0.584" width="0.584" x="3.708" y="6.708" /><rect fill="black" height="0.45" width="0.45" x="4.775" y="6.775" /><rect fill="black" height="0.736" width="0.736" x="5.632" y="6.632" /><rect fill="black" height="0.328" width="0.328" x="6.836" y="6.836" /><rect fill="black" height="0.531" width="0.531" x="7.7345" y="6.7345" /><rect fill="black" height="0.332" width="0.332" x="8.834" y="6.834" /><rect fill="black" height="0.222" width="0.222" x="9.889" y="6.889" /><rect fill="black" height="0.382" width="0.382" x="10.809" y="6.809" /><rect fill="black" height="0.497" width="0.497" x="11.7515" y="6.7515" /><rect fill="black" height="0.286" width="0.286" x="12.857" y="6.857" /><rect fill="black" height="0.424" width="0.424" x="13.788" y="6.788" /><rect fill="black" height="0.562" width="0.562" x="14.719" y="6.719" /><rect fill="black" height="0.173" width="0.173" x="-0.0865" y="7.9135" /><rect fill="black" height="0.031" width="0.031" x="0.9845" y="7.9845" /><rect fill="black" height="0.006" width="0.006" x="1.997" y="7.997" /><rect fill="black" height="0.318" width="0.318" x="2.841" y="7.841" /><rect fill="black" height="0.303" width="0.303" x="3.8485" y="7.8485" /><rect fill="black" height="0.656" width="0.656" x="4.672" y="7.672" /><rect fill="black" height="0.022" width="0.022" x="5.989" y="7.989" /><rect fill="black" height="0.176" width="0.176" x="6.912" y="7.912" /><rect fill="black" height="0.744" width="0.744" x="7.628" y="7.628" /><rect fill="black" height="0.388" width="0.388" x="8.806" y="7.806" /><rect fill="black" height="0.034" width="0.034" x="9.983" y="7.983" /><rect fill="black" height="0.302" width="0.302" x="10.849" y="7.849" /><rect fill="black" height="0.148" width="0.148" x="11.926" y="7.926" /><rect fill="black" height="0.14" width="0.14" x="12.93" y="7.93" /><rect fill="black" height="0.451" width="0.451" x="13.7745" y="7.7745" /><rect fill="black" height="0.233" width="0.233" x="14.8835" y="7.8835" /><rect fill="black" height="0.326" width="0.326" x="-0.163" y="8.837" /><rect fill="black" height="0.379" width="0.379" x="0.8105" y="8.8105" /><rect fill="black" height="0.756" width="0.756" x="1.6219999999999999" y="8.622" /><rect fill="black" height="0.406" width="0.406" x="2.797" y="8.797" /><rect fill="black" height="0.437" width="0.437" x="3.7815" y="8.7815" /><rect fill="black" height="0.61" width="0.61" x="4.695" y="8.695" /><rect fill="black" height="0.163" width="0.163" x="5.9185" y="8.9185" /><rect fill="black" height="0.72" width="0.72" x="6.64" y="8.64" /><rect fill="black" height="0.049" width="0.049" x="7.9755" y="8.9755" /><rect fill="black" height="0.015" width="0.015" x="8.9925" y="8.9925" /><rect fill="black" height="0.792" width="0.792" x="9.604" y="8.604" /><rect fill="black" height="0.721" width="0.721" x="10.6395" y="8.6395" /><rect fill="black" height="0.065" width="0.065" x="11.9675" y="8.9675" /><rect fill="black" height="0.643" width="0.643" x="12.6785" y="8.6785" /><rect fill="black" height="0.283" width="0.283" x="13.8585" y="8.8585" /><rect fill="black" height="0.741" width="0.741" x="14.6295" y="8.6295" /><rect fill="black" height="0.082" width="0.082" x="-0.041" y="9.959" /><rect fill="black" height="0.638" width="0.638" x="0.681" y="9.681" /><rect fill="black" height="0.381" width="0.381" x="1.8094999999999999" y="9.8095" /><rect fill="black" height="0.059" width="0.059" x="2.9705" y="9.9705" /><rect fill="black" height="0.265" width="0.265" x="3.8675" y="9.8675" /><rect fill="black" height="0.628" width="0.628" x="4.686" y="9.686" /><rect fill="black" height="0.702" width="0.702" x="5.649" y="9.649000000000001" /><rect fill="black" height="0.309" width="0.309" x="6.8455" y="9.8455" /><rect fill="black" height="0.615" width="0.615" x="7.6925" y="9.6925" /><rect fill="black" height="0.267" width="0.267" x="8.8665" y="9.8665" /><rect fill="black" height="0.305" width="0.305" x="9.8475" y="9.8475" /><rect fill="black" height="0.312" width="0.312" x="10.844" y="9.844" /><rect fill="black" height="0.376" width="0.376" x="11.812" y="9.812" /><rect fill="black" height="0.013" width="0.013" x="12.9935" y="9.9935" /><rect fill="black" height="0.21" width="0.21" x="13.895" y="9.895" /><rect fill="black" height="0.563" width="0.563" x="14.7185" y="9.7185" /><rect fill="black" height="0.117" width="0.117" x="-0.0585" y="10.9415" /><rect fill="black" height="0.474" width="0.474" x="0.763" y="10.763" /><rect fill="black" height="0.385" width="0.385" x="1.8075" y="10.8075" /><rect fill="black" height="0.262" width="0.262" x="2.8689999999999998" y="10.869" /><rect fill="black" height="0.131" width="0.131" x="3.9345" y="10.9345" /><rect fill="black" height="0.204" width="0.204" x="4.898" y="10.898" /><rect fill="black" height="0.145" width="0.145" x="5.9275" y="10.9275" /><rect fill="black" height="0.427" width="0.427" x="6.7865" y="10.7865" /><rect fill="black" height="0.208" width="0.208" x="7.896" y="10.896" /><rect fill="black" height="0.325" width="0.325" x="8.8375" y="10.8375" /><rect fill="black" height="0.617" width="0.617" x="9.6915" y="10.6915" /><rect fill="black" height="0.548" width="0.548" x="10.725999999999999" y="10.725999999999999" /><rect fill="black" height="0.527" width="0.527" x="11.7365" y="10.7365" /><rect fill="black" height="0.51" width="0.51" x="12.745" y="10.745" /><rect fill="black" height="0.079" width="0.079" x="13.9605" y="10.9605" /><rect fill="black" height="0.294" width="0.294" x="14.853" y="10.853" /><rect fill="black" height="0.638" width="0.638" x="-0.319" y="11.681" /><rect fill="black" height="0.334" width="0.334" x="0.833" y="11.833" /><rect fill="black" height="0.115" width="0.115" x="1.9425" y="11.9425" /><rect fill="black" height="0.403" width="0.403" x="2.7984999999999998" y="11.7985" /><rect fill="black" height="0.073" width="0.073" x="3.9635" y="11.9635" /><rect fill="black" height="0.784" width="0.784" x="4.608" y="11.608" /><rect fill="black" height="0.499" width="0.499" x="5.7505" y="11.7505" /><rect fill="black" height="0.283" width="0.283" x="6.8585" y="11.8585" /><rect fill="black" height="0.683" width="0.683" x="7.6585" y="11.6585" /><rect fill="black" height="0.091" width="0.091" x="8.9545" y="11.9545" /><rect fill="black" height="0.252" width="0.252" x="9.874" y="11.874" /><rect fill="black" height="0.513" width="0.513" x="10.7435" y="11.7435" /><rect fill="black" height="0.475" width="0.475" x="11.7625" y="11.7625" /><rect fill="black" height="0.781" width="0.781" x="12.6095" y="11.6095" /><rect fill="black" height="0.797" width="0.797" x="13.6015" y="11.6015" /><rect fill="black" height="0.272" width="0.272" x="14.864" y="11.864" /><rect fill="black" height="0.036" width="0.036" x="-0.018" y="12.982" /><rect fill="black" height="0.608" width="0.608" x="0.696" y="12.696" /><rect fill="black" height="0.603" width="0.603" x="1.6985000000000001" y="12.6985" /><rect fill="black" height="0.478" width="0.478" x="2.761" y="12.761" /><rect fill="black" height="0.462" width="0.462" x="3.769" y="12.769" /><rect fill="black" height="0.222" width="0.222" x="4.889" y="12.889" /><rect fill="black" height="0.076" width="0.076" x="5.962" y="12.962" /><rect fill="black" height="0.582" width="0.582" x="6.709" y="12.709" /><rect fill="black" height="0.025" width="0.025" x="7.9875" y="12.9875" /><rect fill="black" height="0.66" width="0.66" x="8.67" y="12.67" /><rect fill="black" height="0.491" width="0.491" x="9.7545" y="12.7545" /><rect fill="black" height="0.411" width="0.411" x="10.7945" y="12.7945" /><rect fill="black" height="0.629" width="0.629" x="11.6855" y="12.6855" /><rect fill="black" height="0.371" width="0.371" x="12.8145" y="12.8145" /><rect fill="black" height="0.33" width="0.33" x="13.835" y="12.835" /><rect fill="black" height="0.772" width="0.772" x="14.614" y="12.614" /><rect fill="black" height="0.105" width="0.105" x="-0.0525" y="13.9475" /><rect fill="black" height="0.231" width="0.231" x="0.8845" y="13.8845" /><rect fill="black" height="0.157" width="0.157" x="1.9215" y="13.9215" /><rect fill="black" height="0.097" width="0.097" x="2.9515" y="13.9515" /><rect fill="black" height="0.215" width="0.215" x="3.8925" y="13.8925" /><rect fill="black" height="0.544" width="0.544" x="4.728" y="13.728" /><rect fill="black" height="0.636" width="0.636" x="5.682" y="13.682" /><rect fill="black" height="0.1" width="0.1" x="6.95" y="13.95" /><rect fill="black" height="0.685" width="0.685" x="7.6575" y="13.6575" /><rect fill="black" height="0.118" width="0.118" x="8.941" y="13.941" /><rect fill="black" height="0.636" width="0.636" x="9.682" y="13.682" /><rect fill="black" height="0.022" width="0.022" x="10.989" y="13.989" /><rect fill="black" height="0.429" width="0.429" x="11.7855" y="13.7855" /><rect fill="black" height="0.702" width="0.702" x="12.649000000000001" y="13.649000000000001" /><rect fill="black" height="0.44" width="0.44" x="13.78" y="13.78" /><rect fill="black" height="0.315" width="0.315" x="14.8425" y="13.8425" /><rect fill="black" height="0.121" width="0.121" x="-0.0605" y="14.9395" /><rect fill="black" height="0.503" width="0.503" x="0.7484999999999999" y="14.7485" /><rect fill="black" height="0.543" width="0.543" x="1.7285" y="14.7285" /><rect fill="black" height="0.69" width="0.69" x="2.6550000000000002" y="14.655" /><rect fill="black" height="0.685" width="0.685" x="3.6574999999999998" y="14.6575" /><rect fill="black" height="0.323" width="0.323" x="4.8385" y="14.8385" /><rect fill="black" height="0.657" width="0.657" x="5.6715" y="14.6715" /><rect fill="black" height="0.384" width="0.384" x="6.808" y="14.808" /><rect fill="black" height="0.622" width="0.622" x="7.689" y="14.689" /><rect fill="black" height="0.532" width="0.532" x="8.734" y="14.734" /><rect fill="black" height="0.186" width="0.186" x="9.907" y="14.907" /><rect fill="black" height="0.222" width="0.222" x="10.889" y="14.889" /><rect fill="black" height="0.177" width="0.177" x="11.9115" y="14.9115" /><rect fill="black" height="0.41" width="0.41" x="12.795" y="14.795" /><rect fill="black" height="0.76" width="0.76" x="13.62" y="14.62" /><rect fill="black" height="0.042" width="0.042" x="14.979" y="14.979" /></g></svg>