<?xml version="1.0" encoding="utf-8" ?>
<svg baseProfile="full" preserveAspectRatio="xMidYMid meet" version="1.1" viewBox="0,0,18,18" xmlns="http://www.w3.org/2000/svg" xmlns:ev="http://www.w3.org/2001/xml-events" xmlns:xlink="http://www.w3.org/1999/xlink"><defs><style type="text/css"><![CDATA[
            * {
                stroke-width: 0.1;
            }
        ]]></style></defs><g transform="translate(1,1)"><circle cx="15.205630928003401" cy="13.545099062696565" fill="black" r="0.014" /><circle cx="12.477289532371788" cy="0.32190870771404256" fill="black" r="0.038" /><circle cx="12.11829868469628" cy="3.5465851929272247" fill="black" r="0.027" /><circle cx="12.816854014901422" cy="0.7878881969492522" fill="black" r="0.006" /><circle cx="3.21602779245433" cy="1.8340974738857856" fill="black" r="0.036" /><circle cx="6.766800750016612" cy="2.612600264861138" fill="black" r="0.045" /><circle cx="3.4533495783788055" cy="12.790076977276346" fill="black" r="0.01" /><circle cx="9.605338124308647" cy="12.234634422688677" fill="black" r="0.011" /><circle cx="15.69687749282766" cy="3.5214786231392274" fill="black" r="0.01" /><circle cx="14.651803995323789" cy="5.489102664122155" fill="black" r="0.044" /><circle cx="6.398148280340129" cy="12.470192919309957" fill="black" r="0.001" /><circle cx="9.525913233974645" cy="4.528300446521834" fill="black" r="0.017" /><circle cx="14.381863627994573" cy="11.449192600756033" fill="black" r="0.007" /><circle cx="6.048624627527168" cy="4.713037245200466" fill="black" r="0.02" /><circle cx="6.760070388893116" cy="3.8229462390467095" fill="black" r="0.045" /><circle cx="8.444102799395736" cy="2.704194413847045" fill="black" r="0.046" /><circle cx="2.6439022278017728" cy="0.9174925069884363" fill="black" r="0.018" /><circle cx="5.118105248483593" cy="2.3428006604032614" fill="black" r="0.033" /><circle cx="11.629656387059223" cy="4.336998519808821" fill="black" r="0.013" /><circle cx="11.239147254792952" cy="11.3298049172666" fill="black" r="0.029" /><circle cx="9.955054543283604" cy="7.914141468096721" fill="black" r="0.026" /><circle cx="3.5044444826929038" cy="8.085249435396172" fill="black" r="0.014" /><circle cx="14.346301837000933" cy="10.876386702383526" fill="black" r="0.016" /><circle cx="10.220238966498755" cy="15.574254889406296" fill="black" r="0.01" /><circle cx="2.382156016960314" cy="14.717775526629572" fill="black" r="0.013" /><circle cx="0.05756525172526317" cy="9.894395884442488" fill="black" r="0.005" /><circle cx="1.1446644074585794" cy="5.2458153981772675" fill="black" r="0.016" /><circle cx="13.298445740797728" cy="4.292039405401354" fill="black" r="0.006" /><circle cx="7.399647920872521" cy="6.6727000489582355" fill="black" r="0.029" /><circle cx="14.386828144652055" cy="11.937572826211058" fill="black" r="0.001" /><circle cx="8.438298710579845" cy="8.073434738088933" fill="black" r="0.018" /><circle cx="0.07921385219560051" cy="4.317742924684962" fill="black" r="0.033" /><circle cx="4.007689676787804" cy="0.24721382614379017" fill="black" r="0.033" /><circle cx="5.667697376543783" cy="11.752844523102393" fill="black" r="0.009" /><circle cx="8.207406423594456" cy="10.126451128945009" fill="black" r="0.0" /><circle cx="8.368084680612782" cy="8.62372423590366" fill="black" r="0.038" /><circle cx="12.430509543416443" cy="14.761177723476576" fill="black" r="0.014" /><circle cx="0.9695097613622927" cy="8.511358041144405" fill="black" r="0.038" /><circle cx="2.779062211250693" cy="11.370131988154373" fill="black" r="0.024" /><circle cx="1.2260261119357256" cy="13.295266861942647" fill="black" r="0.004" /><circle cx="1.0983253619748048" cy="11.868876005279319" fill="black" r="0.043" /><circle cx="9.230057835595277" cy="1.264578391870133" fill="black" r="0.038" /><circle cx="0.6136028813576608" cy="5.494082916425926" fill="black" r="0.043" /><circle cx="8.29638001587361" cy="12.928489918916226" fill="black" r="0.047" /><circle cx="10.722561633482062" cy="9.829974427141176" fill="black" r="0.039" /><circle cx="0.327418792034182" cy="1.4949973490318644" fill="black" r="0.03" /><circle cx="4.00360263131833" cy="11.99646393197835" fill="black" r="0.033" /><circle cx="5.615516129315582" cy="6.604367331376576" fill="black" r="0.031" /><circle cx="14.794908477892568" cy="3.5826071726125193" fill="black" r="0.036" /><circle cx="4.662507723247504" cy="10.134692364949423" fill="black" r="0.002" /><circle cx="6.906532680212512" cy="1.8659766238680504" fill="black" r="0.021" /><circle cx="15.938439818915056" cy="8.47120397586325" fill="black" r="0.042" /><circle cx="8.978594335207635" cy="15.446873744111022" fill="black" r="0.029" /><circle cx="11.50267510055895" cy="1.2893228554174172" fill="black" r="0.007" /><circle cx="10.803278036075445" cy="6.484408284100548" fill="black" r="0.012" /><circle cx="13.223983274788509" cy="11.722337292001296" fill="black" r="0.041" /><circle cx="8.105667208480765" cy="13.210465276608797" fill="black" r="0.031" /><circle cx="1.0596513147417514" cy="0.38400541047962555" fill="black" r="0.046" /><circle cx="15.468198271683429" cy="9.790069139158474" fill="black" r="0.021" /><circle cx="11.87529662669982" cy="9.648650223825912" fill="black" r="0.029" /><circle cx="7.746500914560421" cy="10.124545518404274" fill="black" r="0.036" /><circle cx="8.094811124613438" cy="8.051498898175046" fill="black" r="0.025" /><circle cx="15.89931420944867" cy="5.29420894437407" fill="black" r="0.028" /><circle cx="11.15413382720031" cy="0.6728723941823418" fill="black" r="0.022" /><circle cx="14.58710355253482" cy="12.186643641684665" fill="black" r="0.047" /><circle cx="15.359788771617115" cy="8.668550126434528" fill="black" r="0.036" /><circle cx="12.39912948532643" cy="3.5843184400312733" fill="black" r="0.005" /><circle cx="2.425786689762827" cy="1.4799297210397686" fill="black" r="0.035" /><circle cx="13.262991734020758" cy="3.476481835080378" fill="black" r="0.029" /><circle cx="13.248430400581903" cy="0.7188735263483466" fill="black" r="0.031" /><circle cx="0.9739557836211521" cy="4.654466206533394" fill="black" r="0.028" /><circle cx="3.6356087763738536" cy="13.176539908074856" fill="black" r="0.039" /><circle cx="11.424336206567133" cy="15.993660886924427" fill="black" r="0.041" /><circle cx="11.827012581241288" cy="6.995615136705981" fill="black" r="0.037" /><circle cx="3.2390397343388084" cy="12.40615989967532" fill="black" r="0.009" /><circle cx="14.075295244964455" cy="3.4257843392036484" fill="black" r="0.027" /><circle cx="14.786699893345398" cy="12.663490862786352" fill="black" r="0.001" /><circle cx="4.671195078111337" cy="9.396397266250037" fill="black" r="0.036" /><circle cx="12.952717423505327" cy="1.2239929304340187" fill="black" r="0.041" /><circle cx="13.190210871380335" cy="7.958992442577559" fill="black" r="0.037" /><circle cx="2.3939549001291613" cy="2.8339516396196025" fill="black" r="0.031" /><circle cx="14.629050542849466" cy="3.948024357260941" fill="black" r="0.034" /><circle cx="3.5602897088177077" cy="14.455002748971712" fill="black" r="0.039" /><circle cx="14.731095329408262" cy="13.756115655717705" fill="black" r="0.001" /><circle cx="12.752855639626468" cy="0.21150886956656834" fill="black" r="0.046" /><circle cx="7.462467887597036" cy="7.3979407192120235" fill="black" r="0.023" /><circle cx="1.972736928651754" cy="9.528608701972413" fill="black" r="0.011" /><circle cx="9.115166374764954" cy="7.042833877054326" fill="black" r="0.028" /><circle cx="0.7067059028233533" cy="2.5209484380808185" fill="black" r="0.028" /><circle cx="15.410736376481607" cy="8.988218269581154" fill="black" r="0.018" /><circle cx="1.4435972057103523" cy="7.129145405890618" fill="black" r="0.012" /><circle cx="8.765937727411215" cy="11.538290418608442" fill="black" r="0.026" /><circle cx="15.49402238149208" cy="1.331516463712786" fill="black" r="0.044" /><circle cx="15.038479142258984" cy="12.23396010129293" fill="black" r="0.025" /><circle cx="14.058325477228411" cy="0.7918017766246717" fill="black" r="0.015" /><circle cx="4.228070728266857" cy="8.426899976787086" fill="black" r="0.045" /><circle cx="6.029790018120718" cy="6.407798099719956" fill="black" r="0.009" /><circle cx="1.7328228723075032" cy="11.725398016676657" fill="black" r="0.006" /><circle cx="0.7065840920534665" cy="5.0570779152299625" fill="black" r="0.005" /><circle cx="15.955374831000501" cy="2.463755395022673" fill="black" r="0.023" /></g></svg>