<?xml version="1.0" encoding="utf-8" ?>
<svg baseProfile="full" preserveAspectRatio="xMidYMid meet" version="1.1" viewBox="0,0,18,72" xmlns="http://www.w3.org/2000/svg" xmlns:ev="http://www.w3.org/2001/xml-events" xmlns:xlink="http://www.w3.org/1999/xlink"><defs><style type="text/css"><![CDATA[
            * {
                stroke-width: 0.1;
            }
        ]]></style></defs><g transform="translate(1,1)"><circle cx="1.6205202316748437" cy="9.51600214638375" fill="black" r="0.036" /><circle cx="5.809220664836662" cy="15.88835329882463" fill="black" r="0.033" /><circle cx="12.755693411805396" cy="2.9141169635310966" fill="black" r="0.018" /><circle cx="2.281413759819225" cy="3.73420918384773" fill="black" r="0.022" /><circle cx="3.2604645316327687" cy="5.579330099688924" fill="black" r="0.046" /><circle cx="9.552579383971366" cy="2.344732226967917" fill="black" r="0.033" /><circle cx="10.26592042108033" cy="1.7723211800516747" fill="black" r="0.031" /><circle cx="11.630532760187261" cy="0.8029020441211152" fill="black" r="0.045" /><circle cx="3.13667253612452" cy="6.813259465688436" fill="black" r="0.035" /><circle cx="9.633167689460995" cy="9.504663102727374" fill="black" r="0.004" /><circle cx="9.087118880733849" cy="0.00022570660776821683" fill="black" r="0.025" /><circle cx="5.16327801090446" cy="15.871927705653798" fill="black" r="0.028" /><circle cx="7.917796270208761" cy="14.965309961746055" fill="black" r="0.045" /><circle cx="7.0020307097022165" cy="7.242950050373468" fill="black" r="0.042" /><circle cx="7.616823831716646" cy="9.34891141075925" fill="black" r="0.032" /><circle cx="6.00078081936706" cy="13.768509008580853" fill="black" r="0.023" /><circle cx="10.935761457686862" cy="10.509947451270243" fill="black" r="0.033" /><circle cx="6.009720290494808" cy="4.291736808749532" fill="black" r="0.042" /><circle cx="0.09795705990852" cy="5.393369289655004" fill="black" r="0.026" /><circle cx="9.595837505825418" cy="11.72823065446927" fill="black" r="0.029" /><circle cx="3.8349647163275655" cy="6.669945567140045" fill="black" r="0.03" /><circle cx="9.34508060148339" cy="5.017905888056205" fill="black" r="0.013" /><circle cx="3.3542057685220374" cy="12.540532249653912" fill="black" r="0.009" /><circle cx="7.384387211752578" cy="15.217591965614167" fill="black" r="0.029" /><circle cx="1.395220114400221" cy="9.097672785074234" fill="black" r="0.041" /><circle cx="12.590883770723025" cy="6.0957361986173595" fill="black" r="0.027" /><circle cx="1.5081995035083917" cy="5.976378099641273" fill="black" r="0.016" /><circle cx="0.4589922243480906" cy="0.8843168421596115" fill="black" r="0.019" /><circle cx="11.079778126605754" cy="11.311428132582957" fill="black" r="0.017" /><circle cx="15.283736590667369" cy="15.316427138640984" fill="black" r="0.045" /><circle cx="8.629247260568366" cy="10.668703507111223" fill="black" r="0.003" /><circle cx="2.9201489223341888" cy="14.35873883890061" fill="black" r="0.021" /><circle cx="7.287593378084834" cy="10.836161746236616" fill="black" r="0.019" /><circle cx="10.222112466708724" cy="13.017137649520915" fill="black" r="0.033" /><circle cx="9.110088378222093" cy="15.876390604801866" fill="black" r="0.002" /><circle cx="0.2775967582988592" cy="8.198230079615168" fill="black" r="0.045" /><circle cx="2.5301735337779725" cy="12.499276170836865" fill="black" r="0.028" /><circle cx="12.836699680721502" cy="11.760916417289028" fill="black" r="0.023" /><circle cx="1.8863125078684853" cy="10.301329798952787" fill="black" r="0.034" /><circle cx="6.724819484051521" cy="3.8533733174308136" fill="black" r="0.015" /><circle cx="9.185777994676473" cy="9.58100923566768" fill="black" r="0.006" /><circle cx="6.737098046637142" cy="14.461450539838753" fill="black" r="0.039" /><circle cx="6.898359084199155" cy="1.6252716327353873" fill="black" r="0.043" /><circle cx="12.390757357725127" cy="13.6040067358861" fill="black" r="0.02" /><circle cx="13.494884203638057" cy="15.435663170564682" fill="black" r="0.039" /><circle cx="7.539074562054788" cy="12.838587824653633" fill="black" r="0.003" /><circle cx="1.4731803473858758" cy="1.9422402662211518" fill="black" r="0.038" /><circle cx="6.47398637855512" cy="3.2841039292754513" fill="black" r="0.01" /><circle cx="8.590911194896979" cy="14.367779517073997" fill="black" r="0.002" /><circle cx="8.881096851518672" cy="8.128072133453278" fill="black" r="0.004" /><circle cx="6.017778214027707" cy="6.09743154844913" fill="black" r="0.047" /><circle cx="8.707140075997652" cy="12.581988888641089" fill="black" r="0.037" /><circle cx="1.7012452774302904" cy="8.342425459675392" fill="black" r="0.045" /><circle cx="9.264131631778646" cy="13.973321441841858" fill="black" r="0.034" /><circle cx="4.688063804020235" cy="5.258046306454215" fill="black" r="0.034" /><circle cx="12.191914554903665" cy="12.014074465870179" fill="black" r="0.011" /><circle cx="10.833072387907654" cy="15.493392775194488" fill="black" r="0.015" /><circle cx="14.884358491795426" cy="15.661813055276154" fill="black" r="0.016" /><circle cx="12.654310251605665" cy="9.694812187582645" fill="black" r="0.003" /><circle cx="3.9725963576194907" cy="15.448594926309635" fill="black" r="0.02" /><circle cx="15.894945713210538" cy="2.1294506365505157" fill="black" r="0.035" /><circle cx="12.182847803503321" cy="14.069551226293365" fill="black" r="0.02" /><circle cx="15.403567044855938" cy="9.775584173591934" fill="black" r="0.024" /><circle cx="9.31892650127358" cy="13.542687039324878" fill="black" r="0.033" /><circle cx="2.493066224872285" cy="11.685398766112035" fill="black" r="0.033" /><circle cx="13.891644950296344" cy="13.118726174455738" fill="black" r="0.028" /><circle cx="12.806505424196299" cy="4.84540544622379" fill="black" r="0.038" /><circle cx="12.099110579404993" cy="12.237621235082177" fill="black" r="0.002" /><circle cx="5.62273418891885" cy="7.9660981961278114" fill="black" r="0.025" /><circle cx="4.512629608120166" cy="6.780703184158156" fill="black" r="0.019" /><circle cx="12.31374919814183" cy="1.339718683672663" fill="black" r="0.024" /><circle cx="8.517984827701596" cy="4.941101124087654" fill="black" r="0.007" /><circle cx="12.609984381868916" cy="0.5283649365583134" fill="black" r="0.015" /><circle cx="10.832014988585193" cy="2.4447591787997265" fill="black" r="0.011" /><circle cx="5.809624458545269" cy="7.046106426694765" fill="black" r="0.023" /><circle cx="12.80242900691069" cy="14.601812502438847" fill="black" r="0.038" /><circle cx="4.7734458084492974" cy="14.60118072561663" fill="black" r="0.021" /><circle cx="8.679939327593045" cy="11.848576276806567" fill="black" r="0.008" /><circle cx="9.93162558632737" cy="0.9410050283048292" fill="black" r="0.027" /><circle cx="2.694482105784333" cy="15.613246597004483" fill="black" r="0.018" /><circle cx="9.571578115266256" cy="5.989437443100622" fill="black" r="0.016" /><circle cx="15.702849254131191" cy="0.21697892163455634" fill="black" r="0.046" /><circle cx="4.172596465599943" cy="13.483145141044393" fill="black" r="0.016" /><circle cx="0.9987224294706856" cy="12.687558227945521" fill="black" r="0.047" /><circle cx="6.676209810751962" cy="7.836936063188796" fill="black" r="0.015" /><circle cx="5.089164866717811" cy="4.530320850147062" fill="black" r="0.017" /><circle cx="14.801118162923476" cy="12.012841729637202" fill="black" r="0.028" /><circle cx="13.88096624389779" cy="5.95150119246183" fill="black" r="0.031" /><circle cx="3.0871579245863785" cy="12.120565798214983" fill="black" r="0.007" /><circle cx="4.796864128064314" cy="5.477698858602274" fill="black" r="0.041" /><circle cx="3.2095394851262498" cy="12.685839367264053" fill="black" r="0.042" /><circle cx="1.8297441308912816" cy="8.866239526022035" fill="black" r="0.033" /><circle cx="9.361131037747045" cy="2.1819832408125013" fill="black" r="0.037" /><circle cx="3.8064581900919983" cy="10.550415184812106" fill="black" r="0.023" /><circle cx="11.521550466487946" cy="15.323142749688625" fill="black" r="0.003" /><circle cx="3.053476829833709" cy="0.27220455556539846" fill="black" r="0.035" /><circle cx="6.615426018006872" cy="15.09467527063755" fill="black" r="0.021" /><circle cx="1.7004510859318742" cy="7.6926849858572" fill="black" r="0.006" /><circle cx="8.525965664275693" cy="2.900377617843409" fill="black" r="0.03" /><circle cx="9.000470883423977" cy="7.417368393985527" fill="black" r="0.03" /></g><g transform="translate(1,19)"><circle cx="5.357194467597749" cy="11.00218843040043" fill="black" r="0.03" /><circle cx="4.841227269372693" cy="12.204773135238431" fill="black" r="0.037" /><circle cx="8.137772307027495" cy="9.068693616276605" fill="black" r="0.001" /><circle cx="15.958593632777328" cy="5.584198955630189" fill="black" r="0.046" /><circle cx="5.153711408020682" cy="0.26294190090456127" fill="black" r="0.043" /><circle cx="0.3999771196965938" cy="15.697318565864933" fill="black" r="0.02" /><circle cx="0.4398809861377089" cy="14.432755972492577" fill="black" r="0.036" /><circle cx="12.73115184441018" cy="3.090048100673382" fill="black" r="0.048" /><circle cx="10.76853107960223" cy="12.872532091835668" fill="black" r="0.043" /><circle cx="14.94649288932483" cy="5.4494988790499175" fill="black" r="0.011" /><circle cx="1.3033620640570707" cy="4.086570175253497" fill="black" r="0.018" /><circle cx="13.903128411745076" cy="13.221452545436444" fill="black" r="0.016" /><circle cx="7.463107965018713" cy="5.449869110950093" fill="black" r="0.018" /><circle cx="10.907332705412765" cy="1.8518940764327922" fill="black" r="0.031" /><circle cx="10.929283810505488" cy="3.4215808254929527" fill="black" r="0.008" /><circle cx="0.21440063836431733" cy="11.544907639907787" fill="black" r="0.033" /><circle cx="4.281514824435444" cy="3.673464017685898" fill="black" r="0.006" /><circle cx="5.352613654927133" cy="6.34355095966913" fill="black" r="0.003" /><circle cx="2.6719709683637607" cy="12.187727010893816" fill="black" r="0.043" /><circle cx="0.9782465650329346" cy="6.334470009781665" fill="black" r="0.044" /><circle cx="2.7252527882402564" cy="0.6139307197700195" fill="black" r="0.019" /><circle cx="12.29858816419009" cy="7.349640338029232" fill="black" r="0.041" /><circle cx="5.731347517462618" cy="10.47404372475335" fill="black" r="0.031" /><circle cx="11.293857763963992" cy="5.157230359235628" fill="black" r="0.032" /><circle cx="7.127390749272109" cy="5.027901454026601" fill="black" r="0.038" /><circle cx="5.687968571847282" cy="13.473810110731781" fill="black" r="0.047" /><circle cx="10.132924828663866" cy="11.598941935362111" fill="black" r="0.044" /><circle cx="15.450618911367812" cy="4.913115915376395" fill="black" r="0.011" /><circle cx="4.0504511633643325" cy="14.583342223436528" fill="black" r="0.01" /><circle cx="15.262074441863113" cy="0.7325254050723018" fill="black" r="0.041" /><circle cx="5.287672356485299" cy="2.849190823374915" fill="black" r="0.02" /><circle cx="9.021413869351136" cy="3.4409793064091474" fill="black" r="0.036" /><circle cx="8.162515687262736" cy="3.6913649961932755" fill="black" r="0.03" /><circle cx="12.215315075957605" cy="14.043681613928067" fill="black" r="0.021" /><circle cx="6.763406482152114" cy="5.354044097556736" fill="black" r="0.047" /><circle cx="1.4683198530620967" cy="6.103065218206524" fill="black" r="0.024" /><circle cx="3.260790906848632" cy="2.140589977027208" fill="black" r="0.003" /><circle cx="0.7269030015218512" cy="3.198407654509481" fill="black" r="0.044" /><circle cx="14.555202281234717" cy="6.729071899958715" fill="black" r="0.03" /><circle cx="4.9970836637451335" cy="9.788988612481397" fill="black" r="0.016" /><circle cx="11.953139521782422" cy="12.804039280023625" fill="black" r="0.008" /><circle cx="1.530185929397362" cy="2.6417391361026397" fill="black" r="0.025" /><circle cx="6.003888678984218" cy="11.98295516252146" fill="black" r="0.046" /><circle cx="13.90153478607276" cy="12.128850925505654" fill="black" r="0.04" /><circle cx="8.036638715618684" cy="0.5020796864535804" fill="black" r="0.038" /><circle cx="12.220392166443023" cy="3.362093558563318" fill="black" r="0.026" /><circle cx="11.724826130787719" cy="0.7953236970119537" fill="black" r="0.035" /><circle cx="4.462348103296616" cy="9.763423377820803" fill="black" r="0.006" /><circle cx="4.76438935560124" cy="13.96698024894077" fill="black" r="0.047" /><circle cx="12.70218063182662" cy="0.3581824245253138" fill="black" r="0.031" /><circle cx="11.576968518943643" cy="2.1852685530574387" fill="black" r="0.047" /><circle cx="12.14039373642166" cy="6.170942181215953" fill="black" r="0.046" /><circle cx="6.6419109830967855" cy="8.482745398319246" fill="black" r="0.041" /><circle cx="11.1428637261429" cy="8.166252874724632" fill="black" r="0.02" /><circle cx="0.8463475451426952" cy="14.422578857366181" fill="black" r="0.03" /><circle cx="3.1921417978352" cy="13.966621308148877" fill="black" r="0.004" /><circle cx="14.547442979324385" cy="3.3303633202034444" fill="black" r="0.008" /><circle cx="0.18596504041206252" cy="14.225508830158638" fill="black" r="0.047" /><circle cx="7.860267143041495" cy="9.980129966514472" fill="black" r="0.047" /><circle cx="14.379279337312528" cy="5.409727426478387" fill="black" r="0.03" /><circle cx="10.560448827056176" cy="12.14050437948089" fill="black" r="0.039" /><circle cx="10.831839139495255" cy="15.152458865710141" fill="black" r="0.025" /><circle cx="1.7436944975213358" cy="13.196056501392535" fill="black" r="0.005" /><circle cx="11.361218614534787" cy="15.286255102317691" fill="black" r="0.032" /><circle cx="13.172968573329632" cy="4.139177395660621" fill="black" r="0.001" /><circle cx="10.238870989668195" cy="1.5042035683913415" fill="black" r="0.004" /><circle cx="0.6372072804844837" cy="7.0962570122960535" fill="black" r="0.039" /><circle cx="9.363507597001146" cy="4.329953645373733" fill="black" r="0.003" /><circle cx="3.5412477536274363" cy="0.2769220741556868" fill="black" r="0.031" /><circle cx="0.6203915348706612" cy="6.427233350187635" fill="black" r="0.026" /><circle cx="9.83023346575768" cy="10.790708581536949" fill="black" r="0.032" /><circle cx="9.571905770000052" cy="11.27134471650031" fill="black" r="0.039" /><circle cx="10.108179256615374" cy="7.958508702484066" fill="black" r="0.029" /><circle cx="9.536865069816262" cy="7.292600516252733" fill="black" r="0.048" /><circle cx="10.486148599543728" cy="9.363645818413179" fill="black" r="0.005" /><circle cx="8.599273577364261" cy="9.69589829302916" fill="black" r="0.03" /><circle cx="6.403049757956207" cy="14.127987956689733" fill="black" r="0.046" /><circle cx="14.143338826292945" cy="4.779834258719259" fill="black" r="0.038" /><circle cx="2.336035417368361" cy="6.7601046589961875" fill="black" r="0.009" /><circle cx="11.466682075945327" cy="0.8319875129977099" fill="black" r="0.007" /><circle cx="8.296072114028707" cy="10.185742571134195" fill="black" r="0.019" /><circle cx="15.173119008563413" cy="12.296842882335675" fill="black" r="0.002" /><circle cx="9.431617700762521" cy="0.9702647914332143" fill="black" r="0.016" /><circle cx="12.753004433293114" cy="3.2320528027843363" fill="black" r="0.042" /><circle cx="15.577642601528646" cy="13.104305015176605" fill="black" r="0.008" /><circle cx="14.532135185164668" cy="13.575522540411894" fill="black" r="0.009" /><circle cx="14.456502156558468" cy="7.434195352458639" fill="black" r="0.024" /><circle cx="15.008902381939016" cy="12.386097573482735" fill="black" r="0.007" /><circle cx="11.806594522682502" cy="10.234626074113596" fill="black" r="0.026" /><circle cx="11.458103488889302" cy="13.711043787190764" fill="black" r="0.021" /><circle cx="1.966149975650378" cy="12.695123366102779" fill="black" r="0.038" /><circle cx="1.8063702965542152" cy="1.4582494263574937" fill="black" r="0.002" /><circle cx="7.92994145147507" cy="14.676668679632117" fill="black" r="0.034" /><circle cx="6.4274831283313745" cy="10.143944213488469" fill="black" r="0.031" /><circle cx="1.7169195470858423" cy="15.452479338415413" fill="black" r="0.002" /><circle cx="6.908382990897055" cy="11.469294842611442" fill="black" r="0.01" /><circle cx="11.281735490634238" cy="9.470584474823806" fill="black" r="0.001" /><circle cx="11.118502069675053" cy="0.7897330108853655" fill="black" r="0.008" /><circle cx="13.109142388276888" cy="8.91312795909949" fill="black" r="0.02" /><circle cx="15.949273283572326" cy="5.508197358638052" fill="black" r="0.029" /></g><g transform="translate(1,37)"><circle cx="7.529820504492287" cy="12.84377932795981" fill="black" r="0.01" /><circle cx="14.777636044955614" cy="7.72171950957841" fill="black" r="0.028" /><circle cx="8.24828052524161" cy="14.605854653364364" fill="black" r="0.031" /><circle cx="8.378184631792244" cy="1.428374052267424" fill="black" r="0.017" /><circle cx="10.463916847490838" cy="1.4275922141986168" fill="black" r="0.002" /><circle cx="13.894383634491465" cy="14.53228222092794" fill="black" r="0.009" /><circle cx="3.5241361322002493" cy="0.9545169220485441" fill="black" r="0.036" /><circle cx="3.14549114376938" cy="10.56536555812011" fill="black" r="0.026" /><circle cx="12.759982842350949" cy="15.163752127345752" fill="black" r="0.034" /><circle cx="9.701385991720025" cy="4.170217548306397" fill="black" r="0.005" /><circle cx="8.519632201133506" cy="0.07970967648668825" fill="black" r="0.032" /><circle cx="10.883852549682207" cy="11.353577889493623" fill="black" r="0.045" /><circle cx="9.563479868697238" cy="5.662374881607018" fill="black" r="0.021" /><circle cx="4.210356241993733" cy="12.243579986553083" fill="black" r="0.046" /><circle cx="14.136672323119585" cy="1.9006695773550852" fill="black" r="0.034" /><circle cx="14.40485158492366" cy="2.145079633713843" fill="black" r="0.044" /><circle cx="10.749035495729293" cy="13.588138560598113" fill="black" r="0.023" /><circle cx="9.703304938781104" cy="1.8199850879661224" fill="black" r="0.02" /><circle cx="15.98123900444371" cy="3.93251754697466" fill="black" r="0.021" /><circle cx="0.8156610290560931" cy="8.662323432176986" fill="black" r="0.044" /><circle cx="11.02884684484488" cy="13.048673186438789" fill="black" r="0.02" /><circle cx="15.315800873867625" cy="10.081296895735022" fill="black" r="0.035" /><circle cx="15.583691704890875" cy="12.745451874434384" fill="black" r="0.047" /><circle cx="2.628069009907625" cy="11.73278055396037" fill="black" r="0.032" /><circle cx="0.4833274889467436" cy="13.990555141938929" fill="black" r="0.04" /><circle cx="8.627322329859762" cy="15.869945442242885" fill="black" r="0.012" /><circle cx="11.318997645154157" cy="15.070487232190578" fill="black" r="0.015" /><circle cx="10.035830294993483" cy="12.533048726535327" fill="black" r="0.042" /><circle cx="10.42948245287452" cy="6.9680952581398525" fill="black" r="0.029" /><circle cx="11.807857857484365" cy="1.1204152656642439" fill="black" r="0.012" /><circle cx="14.687546274647026" cy="15.636154150461344" fill="black" r="0.02" /><circle cx="15.511607256832535" cy="15.31455865093041" fill="black" r="0.027" /><circle cx="1.948924508798937" cy="13.693366779272145" fill="black" r="0.004" /><circle cx="10.358794498605526" cy="8.317974504879086" fill="black" r="0.014" /><circle cx="12.796110832136051" cy="2.693509334927386" fill="black" r="0.036" /><circle cx="14.747604529176567" cy="2.5036660914536117" fill="black" r="0.023" /><circle cx="5.779070439466571" cy="15.941183747416888" fill="black" r="0.041" /><circle cx="10.010122195036963" cy="14.327576143549189" fill="black" r="0.037" /><circle cx="8.157072716030214" cy="12.105072154801789" fill="black" r="0.026" /><circle cx="4.501763597980315" cy="11.153104732839477" fill="black" r="0.015" /><circle cx="9.759408876685926" cy="2.5021569813633757" fill="black" r="0.005" /><circle cx="12.348565035902837" cy="6.340492373401213" fill="black" r="0.033" /><circle cx="12.373778399999566" cy="4.9084302455180175" fill="black" r="0.001" /><circle cx="9.530550079970332" cy="7.925127381006879" fill="black" r="0.018" /><circle cx="4.969783314203941" cy="10.419552916755388" fill="black" r="0.02" /><circle cx="8.153088217569731" cy="14.3983650537662" fill="black" r="0.046" /><circle cx="8.920730968135972" cy="0.2321718794099148" fill="black" r="0.012" /><circle cx="1.4937654307942356" cy="2.688930040393652" fill="black" r="0.014" /><circle cx="2.069799121924559" cy="9.121674142681778" fill="black" r="0.025" /><circle cx="4.128030387586968" cy="9.998288080506663" fill="black" r="0.04" /><circle cx="7.818196329063843" cy="9.798233785890462" fill="black" r="0.005" /><circle cx="14.183222457359212" cy="7.583251073243849" fill="black" r="0.01" /><circle cx="2.91446152942704" cy="11.132855378581263" fill="black" r="0.021" /><circle cx="9.645626049603957" cy="15.122166408666608" fill="black" r="0.037" /><circle cx="8.11245860982312" cy="9.28777877219381" fill="black" r="0.01" /><circle cx="6.792148555728632" cy="5.774388537099229" fill="black" r="0.004" /><circle cx="6.756629127877293" cy="10.804432533861132" fill="black" r="0.006" /><circle cx="7.786372317370052" cy="14.639060811488596" fill="black" r="0.013" /><circle cx="8.195385142389298" cy="2.111294567919071" fill="black" r="0.042" /><circle cx="4.9212817752489055" cy="1.4602949011525546" fill="black" r="0.002" /><circle cx="0.3349547914221809" cy="5.114770179157334" fill="black" r="0.024" /><circle cx="11.742800158857445" cy="9.68246078923965" fill="black" r="0.019" /><circle cx="3.7590548590380077" cy="0.5541847249860332" fill="black" r="0.013" /><circle cx="13.18241028698492" cy="7.910287173708541" fill="black" r="0.007" /><circle cx="8.505319905062114" cy="5.333423698188291" fill="black" r="0.03" /><circle cx="5.880451556150593" cy="8.761115097847872" fill="black" r="0.019" /><circle cx="0.7946096439878669" cy="8.087341505044936" fill="black" r="0.004" /><circle cx="12.813806445860715" cy="12.397442188141069" fill="black" r="0.014" /><circle cx="15.33525982072857" cy="7.990521464089147" fill="black" r="0.005" /><circle cx="6.019440939563756" cy="15.815659396303518" fill="black" r="0.01" /><circle cx="15.970435045957506" cy="0.2804967042715152" fill="black" r="0.013" /><circle cx="10.530551134279998" cy="6.521256442653339" fill="black" r="0.032" /><circle cx="12.93839404445698" cy="15.84114006471076" fill="black" r="0.039" /><circle cx="6.651415764582678" cy="10.56145136516908" fill="black" r="0.041" /><circle cx="13.410622577527793" cy="2.9459769465524097" fill="black" r="0.042" /><circle cx="5.634455182400753" cy="8.094262905498617" fill="black" r="0.042" /><circle cx="10.833486785259732" cy="6.300737406296237" fill="black" r="0.028" /><circle cx="12.027419728207205" cy="1.069631129335729" fill="black" r="0.044" /><circle cx="6.262116113126451" cy="4.383935325951574" fill="black" r="0.022" /><circle cx="12.621190682174579" cy="7.825077416090529" fill="black" r="0.014" /><circle cx="4.882527982909073" cy="8.43559838284401" fill="black" r="0.022" /><circle cx="1.7395336480199646" cy="6.0975124466961645" fill="black" r="0.014" /><circle cx="9.835155321164013" cy="3.1010704865095686" fill="black" r="0.006" /><circle cx="9.05165811955577" cy="6.601325476876928" fill="black" r="0.047" /><circle cx="13.053209829119403" cy="0.5874202126696098" fill="black" r="0.006" /><circle cx="15.544023312601668" cy="7.8771159660652295" fill="black" r="0.037" /><circle cx="2.7803704672727143" cy="15.791414408483803" fill="black" r="0.023" /><circle cx="0.43101999485715936" cy="6.270314451569131" fill="black" r="0.04" /><circle cx="15.129262541510386" cy="11.678684019200764" fill="black" r="0.006" /><circle cx="9.253498774001754" cy="5.2424100860035985" fill="black" r="0.002" /><circle cx="10.745509721012734" cy="0.45493432883190366" fill="black" r="0.005" /><circle cx="1.9895561952267258" cy="11.809885034816066" fill="black" r="0.035" /><circle cx="5.783694961378888" cy="12.999827114883121" fill="black" r="0.031" /><circle cx="4.958352410123352" cy="13.562970070410561" fill="black" r="0.027" /><circle cx="3.9610659476368966" cy="2.3335122754633524" fill="black" r="0.034" /><circle cx="7.262848047017062" cy="13.14327747811936" fill="black" r="0.005" /><circle cx="9.034429659707254" cy="9.377937978579041" fill="black" r="0.047" /><circle cx="2.1397535320616026" cy="13.582234628893623" fill="black" r="0.045" /><circle cx="0.7555410630076071" cy="1.9458533897705461" fill="black" r="0.009" /><circle cx="0.3155735700254816" cy="11.496542890556864" fill="black" r="0.047" /></g><g transform="translate(1,55)"><circle cx="13.804526757734983" cy="15.238233683236283" fill="black" r="0.034" /><circle cx="5.64015484519731" cy="0.8958675182631683" fill="black" r="0.014" /><circle cx="3.552603013749133" cy="0.9547312065607994" fill="black" r="0.034" /><circle cx="1.8942783245925892" cy="13.633725878728338" fill="black" r="0.028" /><circle cx="8.842904005498019" cy="12.206370364537563" fill="black" r="0.013" /><circle cx="8.868538175766659" cy="3.4617151335735183" fill="black" r="0.004" /><circle cx="14.711665228277706" cy="8.66883040251974" fill="black" r="0.035" /><circle cx="1.0810434251760324" cy="10.73926956960199" fill="black" r="0.042" /><circle cx="7.835626731169867" cy="12.227351315758256" fill="black" r="0.021" /><circle cx="11.957248869171915" cy="9.078491506235126" fill="black" r="0.005" /><circle cx="8.19980292938311" cy="12.406927156614241" fill="black" r="0.001" /><circle cx="12.131967347124982" cy="0.19871416633439587" fill="black" r="0.039" /><circle cx="11.926640520747782" cy="5.776827402177261" fill="black" r="0.027" /><circle cx="4.354623782504804" cy="5.362556133359538" fill="black" r="0.029" /><circle cx="3.335987677985843" cy="10.842791752540634" fill="black" r="0.02" /><circle cx="2.6133899244654106" cy="9.165751785229437" fill="black" r="0.002" /><circle cx="11.618851984943676" cy="7.741375337136274" fill="black" r="0.001" /><circle cx="14.563198526002402" cy="0.5447748818123159" fill="black" r="0.039" /><circle cx="11.143500018941822" cy="5.782373289917098" fill="black" r="0.041" /><circle cx="6.7509566832665335" cy="11.973442716908126" fill="black" r="0.021" /><circle cx="9.015483585539736" cy="2.7157475162867275" fill="black" r="0.027" /><circle cx="7.780155667544429" cy="5.396468665169595" fill="black" r="0.021" /><circle cx="5.682592631012971" cy="11.406242980443908" fill="black" r="0.031" /><circle cx="14.998241166829636" cy="10.610803002882262" fill="black" r="0.047" /><circle cx="3.6430818976726265" cy="0.17795530398169213" fill="black" r="0.007" /><circle cx="8.11041985174523" cy="3.515602044233191" fill="black" r="0.045" /><circle cx="15.460661104604053" cy="4.1614808632620495" fill="black" r="0.011" /><circle cx="15.2553016233426" cy="0.2208215845698156" fill="black" r="0.039" /><circle cx="2.974734745144021" cy="4.227327835124022" fill="black" r="0.043" /><circle cx="5.780933620747572" cy="9.249928577373922" fill="black" r="0.017" /><circle cx="3.8842275626006124" cy="12.437848778534391" fill="black" r="0.04" /><circle cx="11.66160566297095" cy="14.467929672032746" fill="black" r="0.037" /><circle cx="3.2862488936333083" cy="2.2855124741769526" fill="black" r="0.047" /><circle cx="2.6157084283554113" cy="11.949068578479205" fill="black" r="0.042" /><circle cx="4.446781438066115" cy="7.176316174039551" fill="black" r="0.028" /><circle cx="10.46386428317531" cy="0.9525462765638313" fill="black" r="0.009" /><circle cx="1.63194130138905" cy="2.328671533480506" fill="black" r="0.036" /><circle cx="6.497050173094587" cy="9.616211776415545" fill="black" r="0.042" /><circle cx="1.129855296733961" cy="12.779745529407318" fill="black" r="0.026" /><circle cx="0.5221580764276261" cy="8.591820746564098" fill="black" r="0.04" /><circle cx="8.192958863027563" cy="12.68575732697837" fill="black" r="0.041" /><circle cx="13.47489647904651" cy="12.588625185637396" fill="black" r="0.029" /><circle cx="11.96029121838612" cy="14.150580366490777" fill="black" r="0.026" /><circle cx="2.2237297898995987" cy="4.117379843068127" fill="black" r="0.021" /><circle cx="5.925200206480641" cy="2.731724300784162" fill="black" r="0.029" /><circle cx="8.333550195716818" cy="15.637396070088766" fill="black" r="0.04" /><circle cx="5.210945637577094" cy="12.856992346804782" fill="black" r="0.014" /><circle cx="3.730948355070767" cy="1.3115737909587768" fill="black" r="0.028" /><circle cx="10.062483939194587" cy="6.7696051460551825" fill="black" r="0.018" /><circle cx="9.43925916605169" cy="10.889134307311831" fill="black" r="0.013" /><circle cx="14.107828302524988" cy="7.759146829585212" fill="black" r="0.045" /><circle cx="9.709448278501151" cy="7.0952773339589665" fill="black" r="0.03" /><circle cx="2.708294695686682" cy="5.104158507245931" fill="black" r="0.028" /><circle cx="11.869627852431478" cy="0.2622457786823489" fill="black" r="0.044" /><circle cx="8.683039312762443" cy="5.859888212470448" fill="black" r="0.008" /><circle cx="4.206942361051951" cy="5.969741476237523" fill="black" r="0.015" /><circle cx="0.9287228069630888" cy="2.383076203547178" fill="black" r="0.028" /><circle cx="14.651530917742667" cy="8.639690768731013" fill="black" r="0.047" /><circle cx="5.8441473504414425" cy="9.158737607964003" fill="black" r="0.046" /><circle cx="1.4540441583004107" cy="9.104073234995319" fill="black" r="0.004" /><circle cx="14.28836896704571" cy="0.517199972449859" fill="black" r="0.025" /><circle cx="1.3551985884614055" cy="3.779771479334329" fill="black" r="0.028" /><circle cx="14.37037631518668" cy="1.2853051897602477" fill="black" r="0.039" /><circle cx="3.2647248152462875" cy="6.185146528322392" fill="black" r="0.018" /><circle cx="12.87912624366003" cy="10.844942165771199" fill="black" r="0.002" /><circle cx="1.5786439117441873" cy="8.204409040827294" fill="black" r="0.007" /><circle cx="15.626965711800802" cy="13.568496686169592" fill="black" r="0.046" /><circle cx="0.188028246594385" cy="13.146034487906961" fill="black" r="0.021" /><circle cx="7.057255545111994" cy="13.583207509298273" fill="black" r="0.032" /><circle cx="5.393374782564257" cy="9.380400884014128" fill="black" r="0.026" /><circle cx="10.454055703477083" cy="7.146973223368349" fill="black" r="0.001" /><circle cx="5.434695098995109" cy="4.838375225372872" fill="black" r="0.022" /><circle cx="13.042619260632689" cy="12.66134814655375" fill="black" r="0.042" /><circle cx="10.43926901733373" cy="3.579809595819624" fill="black" r="0.032" /><circle cx="12.5435727813617" cy="1.529785008100097" fill="black" r="0.018" /><circle cx="1.0321549227322553" cy="9.31742191070328" fill="black" r="0.043" /><circle cx="12.228363262966543" cy="5.233168480887922" fill="black" r="0.044" /><circle cx="1.5047710601642699" cy="8.70088408863665" fill="black" r="0.045" /><circle cx="0.799877310791631" cy="11.928928831896059" fill="black" r="0.047" /><circle cx="3.0879952007072973" cy="5.885615800336765" fill="black" r="0.021" /><circle cx="15.417638587143083" cy="4.524585979687936" fill="black" r="0.042" /><circle cx="1.8507078191423378" cy="6.167748283497856" fill="black" r="0.007" /><circle cx="4.829291094298831" cy="0.817397095800624" fill="black" r="0.044" /><circle cx="5.081155831429401" cy="1.1695355864294132" fill="black" r="0.044" /><circle cx="9.82954598543665" cy="2.6268847206240054" fill="black" r="0.033" /><circle cx="14.07458112411851" cy="13.315077008560777" fill="black" r="0.03" /><circle cx="10.215802192577168" cy="7.99376224714775" fill="black" r="0.009" /><circle cx="11.566256564255678" cy="2.3415684861119566" fill="black" r="0.002" /><circle cx="2.5582170187703657" cy="4.948862854694914" fill="black" r="0.003" /><circle cx="0.8830568791836839" cy="2.3215155077392744" fill="black" r="0.04" /><circle cx="4.243622633012892" cy="6.391518230767865" fill="black" r="0.047" /><circle cx="3.562687471760693" cy="8.815314549291964" fill="black" r="0.013" /><circle cx="13.091555226564063" cy="15.444291689718764" fill="black" r="0.047" /><circle cx="15.894796713946768" cy="4.478735887900676" fill="black" r="0.01" /><circle cx="13.825659050025175" cy="2.0745116019478598" fill="black" r="0.013" /><circle cx="2.927794683651303" cy="9.826368506396348" fill="black" r="0.035" /><circle cx="10.150501565780996" cy="15.705449401995482" fill="black" r="0.013" /><circle cx="0.5564519782881394" cy="4.361903217894312" fill="black" r="0.043" /><circle cx="7.653794814062138" cy="2.4738455591650172" fill="black" r="0.005" /><circle cx="4.25418251585379" cy="6.993367151127103" fill="black" r="0.038" /></g></svg>