<svg xmlns="http://www.w3.org/2000/svg" version="1.1" id="svg2" x="0" y="0" xml:space="preserve" width="1000" height="558.557"><style type="text/css" id="style9218">.st0{fill:#fff}.st1{stroke-width:50;stroke-miterlimit:10;stroke-dasharray:5,3}.st1,.st4,.st6{fill:none;stroke:#000}.st4{stroke-linejoin:round;stroke-width:17}.st6{stroke-width:11;stroke-miterlimit:10}.st8,.st9{fill:none;stroke:#fff;stroke-width:3}.st9{stroke-linecap:square}</style><g id="g9222" transform="matrix(1.9716 0 0 1.9716 -.591 -2.366)"><path class="st0" d="M344 25.1h-53.5l-1-5.8c-.9-4.8-4.2-9.2-9.5-12.5-5.8-3.6-13.5-5.6-21.6-5.6-8.1 0-15.8 2-21.6 5.6-5.3 3.3-8.6 7.7-9.5 12.5l-1 5.8H.3l57.1 61h103l1.2.4c.5.2 3 1.1 4.5 1.8l1.5.7 1 1.3c14 17.3 31.1 30.3 49.6 37.5l4.3 1.7.8 19-3.6 2.1c-21.8 13-35.4 36.7-35.4 61.9 0 39.7 32.3 72 72 72s72-32.3 72-72c0-27.3-15.2-51.9-39.6-64.2l-4-2 .7-16.9 4.3-1.7c18-7.1 34.8-19.6 48.5-36.3l1-1.3 1.5-.7c1.9-.9 3.7-1.7 5.5-2.6l1.5-.7h102.7l57.1-61H353c-.1-.1-3.8-.1-9 0z" id="path9220" fill="#fff"/></g><g id="g9617" transform="translate(-.3 274.057)"><g id="g9254" transform="matrix(1.9716 0 0 1.9716 -.291 -276.423)"><g id="g9228"><path class="st1" id="line9224" fill="none" stroke="#000" stroke-width="50" stroke-miterlimit="10" stroke-dasharray="5,3" d="M139.5 45.4l.1 38"/><path class="st1" id="line9226" fill="none" stroke="#000" stroke-width="50" stroke-miterlimit="10" stroke-dasharray="5,3" d="M360.5 45.4l.1 37"/></g><path d="M127.8 44.5c0 31.5 67.9 60 126 60 58.1 0 125.9-26.5 126-60" id="path9230" fill="none" stroke="#fff" stroke-width="4" stroke-miterlimit="10"/><path d="M140.8 28.1c16.5 60.3 60.9 103.4 113 103.4s96.5-43.2 113-103.4" id="path9232" fill="#fff" stroke="#fff" stroke-miterlimit="10"/><g id="g9242"><g id="g9240"><path class="st4" d="M155.3 34.5l1.5 4.8" id="path9234" fill="none" stroke="#000" stroke-width="17" stroke-linejoin="round"/><path d="M158.1 43c16.2 44.8 52.9 76.1 95.7 76.1 43.4 0 80.6-32.2 96.4-78" id="path9236" fill="none" stroke="#000" stroke-width="17" stroke-linejoin="round" stroke-dasharray="9.9483,3.9793"/><path class="st4" d="M350.8 39.3l1.5-4.8" id="path9238" fill="none" stroke="#000" stroke-width="17" stroke-linejoin="round"/></g></g><g id="g9252"><g id="g9250"><path class="st6" d="M332.7 31.5c-.3 1.5-.5 3-.9 4.4" id="path9244" fill="none" stroke="#000" stroke-width="11" stroke-miterlimit="10"/><path d="M330.9 39.7c-9.4 33.9-40.4 61-77.1 61-37.4 0-68.8-28.2-77.6-62.9" id="path9246" fill="none" stroke="#000" stroke-width="11" stroke-miterlimit="10" stroke-dasharray="8.745,3.8866"/><path class="st6" d="M175.7 35.9c-.3-1.5-.6-2.9-.9-4.4" id="path9248" fill="none" stroke="#000" stroke-width="11" stroke-miterlimit="10"/></g></g></g><g id="g9282" transform="matrix(1.9716 0 0 1.9716 -.291 -276.423)"><g id="g9264"><g id="g9258"><path d="M500.5 28H353s-46.1 0-46.1 1.8c0 20.1-15.7 28.8-20.7 30.8l.6 22.1.5-.2C295.5 79 318 59.8 318 42.8h61.9c0 .6 0 1.2-.1 1.7h1.5c-.1 14.7-12.5 28.1-31.3 38.5h99z" id="path9256"/></g><g id="g9262"><path d="M126.3 44.5h1.6c0-.6-.1-1.2-.1-1.7h61.9c0 17 23 36.6 31.2 40l.5-22.2c-5-2-20.7-10.7-20.7-30.8 0-1.7-46.1-1.8-46.1-1.8H7.2l51.5 55h100.5c-19.7-10.6-32.9-24.1-32.9-38.5z" id="path9260"/></g></g><g id="g9272"><path class="st8" id="line9266" fill="none" stroke="#fff" stroke-width="3" d="M135.5 63.4h-96"/><path class="st8" id="line9268" fill="none" stroke="#fff" stroke-width="3" d="M189.7 43.8H20"/><path class="st8" id="line9270" fill="none" stroke="#fff" stroke-width="3" d="M117.2 44l-10.3-18.3"/></g><g id="g9280"><path class="st8" id="line9274" fill="none" stroke="#fff" stroke-width="3" d="M372.2 63.4h98"/><path class="st8" id="line9276" fill="none" stroke="#fff" stroke-width="3" d="M317.9 43.8h170.8"/><path class="st8" id="line9278" fill="none" stroke="#fff" stroke-width="3" d="M390.5 44l10.3-18.3"/></g></g><g id="g9290" transform="matrix(1.9716 0 0 1.9716 -.291 -276.423)"><g id="g9288"><path d="M222.1 84.1l.6-24.8.7-.4c1.2-.7 2.7-1.7 4.3-2.8 4.1-2.8 4.9-4.1 5.2-5.8.2-1.5 1.2-8.3 2.5-17.4.8-5.9 2.4-15.2 3.3-16.8 2.4-4.5 11.1-6 17.9-6.4 2-.1 3.5-.2 4.7-.3h.9c1.9 0 3.2.3 3.9 1.4.3-.1.7-.2 1.1-.2 1.1 0 2.7.5 5.4 1.6 5.1 2.1 6.9 4.6 6.9 9.7 0 1.1 0 4.5-2.4 4.5-1.4 0-2.4-1.3-3.2-2.6l-.1-.1-2.7 2.4c-1.6 1.4-4.2 2.5-6.2 2.5h-.2l2.9 4.7c2.4 4 5.2 10.2 6.2 13.8 1.5 5.5 1.8 6 6.3 9.1 1.5 1.1 3.1 2.1 4.2 2.7l.7.4.6 24.6-2.7 66.8-4.3-2.8c-1.5-1-4-4-5.5-6.3l-.4-.6c-1.4-2.2-3-4.5-3.7-5.6-1.8 3.4-5.7 9.4-8.1 9.4-.5 0-.9-.2-1.3-.5-1.1-1.1-3.2-10.1-4-13.9-.7-3-1.3-5.6-1.8-7.6-.5 1.9-1.1 4.5-1.8 7.6-.6 2.9-2.8 12.6-4.1 13.9-.3.3-.8.5-1.3.5-2.3 0-6.2-5.7-8-9.3-6.8 10.5-9 11.9-9.7 12.4l-4.3 2.8zm32-67.5c.3.3.6.5.8.8.4.5.9 1 1.3 1 .3 0 .9-.2 2-1.4.1-.2.3-.3.5-.5h-2.1c-1 .1-1.8.1-2.5.1z" id="path9284"/><path class="st0" d="M262.1 11c2.6 0 2.8.5 2.8 1.9 0 2-.5 2.2-8.3 2.2-5.4 0-7.5.3-6.2.9 1.1.5 2.6 1.6 3.4 2.4.8 1 1.7 1.5 2.5 1.5.9 0 1.9-.6 3.1-1.9 1-1.1 2.8-2 4.1-2 1.7 0 2.4-.6 2.4-2 0-1.3.2-1.9 1.2-1.9.9 0 2.3.5 4.8 1.5 4.5 1.8 6 3.8 6 8.3 0 2-.3 3-.9 3-.5 0-1.1-.6-1.9-1.9-1-1.6-2.3-2-6.8-2-3 0-5.5.4-5.5.9 0 1 2.4 1.7 4.9 1.7.7 0 1.5-.1 2.1-.2l2.5-.5-2.4 2.1c-1.3 1.1-3.6 2.1-5.2 2.1H262l4.3 7c2.4 3.9 5.1 9.9 6.1 13.4 1.6 5.8 2.2 6.7 6.9 9.9 1.6 1.1 3.2 2.1 4.2 2.8l.6 23.8-2.6 64.1-2.1-1.3c-1.2-.7-3.4-3.4-5.1-5.9-1.7-2.5-3.6-5.4-4.3-6.4-.5-.8-1-1.1-1.3-1.1-.2 0-.4.1-.5.4-2 4.3-6.1 9.8-7.3 9.8-.1 0-.2 0-.2-.1-.5-.5-2.2-6.4-3.6-13.1-1.5-6.7-2.9-12.2-3.3-12.2-.4 0-1.8 5.5-3.3 12.2-1.5 6.7-3.1 12.6-3.7 13.1-.1.1-.1.1-.2.1-1.2 0-5.5-5.7-7.3-9.8-.1-.3-.3-.5-.5-.5-.3 0-.6.3-1 .9-4.6 7.2-8 11.5-9.8 12.7l-2.1 1.3-2.6-64 .6-23.9c1.1-.7 2.7-1.7 4.4-2.8 4-2.8 5.4-4.4 5.8-6.8.3-1.7 1.4-9.5 2.5-17.4 1.1-7.9 2.5-15.2 3.1-16.3 1.6-3.1 7.5-5 16.7-5.6 2-.1 3.5-.2 4.6-.3.5-.1.8-.1 1.1-.1m0-3h-.9c-1.2 0-2.8.1-4.7.3-10.5.7-16.9 3.1-19.1 7.2-1.3 2.4-3.2 15.8-3.4 17.3-1.3 9.1-2.3 15.9-2.5 17.3-.2 1-.6 2-4.6 4.8-1.5 1.1-3.1 2.1-4.2 2.7l-1.4.8V60l-.7 24v.2l2.6 64 .2 5.2 4.4-2.8 2.1-1.3c1.3-.8 3.5-2.8 8.8-10.8 2 3.4 5.2 7.9 8.1 7.9.9 0 1.7-.3 2.3-1 .4-.4 1.6-1.6 4.5-14.6.1-.5.2-1 .3-1.4.1.5.2.9.3 1.4 2.9 13 4 14.1 4.4 14.6.6.6 1.4 1 2.3 1 1.5 0 3-.8 5.8-4.5.8-1.1 1.7-2.3 2.4-3.6.8 1.2 1.7 2.6 2.6 3.9l.2.2c1.7 2.5 4.2 5.6 6 6.7l2.1 1.3 4.4 2.8.2-5.2 2.6-64.1v-.2l-.6-23.8v-1.6l-1.4-.9C284 57 282.5 56 281 55c-4.2-2.9-4.4-3.1-5.7-8.3-1-3.8-3.9-10.2-6.4-14.2l-1.7-2.8c1.7-.5 3.6-1.4 4.8-2.5l1.5-1.3c.9 1.1 2 2 3.5 2 1.8 0 3.9-1 3.9-6 0-.8 0-1.6-.1-2.4l2.4-2.1-2.7.6c-.9-3.4-3.2-5.5-7.4-7.2-2.9-1.2-4.6-1.7-6-1.7h-.5C265.1 8 263.2 8 262.1 8z" id="path9286" fill="#fff"/></g></g><g id="g29023_2_" transform="matrix(1.9716 0 0 1.9716 -.291 -276.423)"><path id="path28598_2_" class="st9" d="M237.8 55.6l5 7 5-7" fill="none" stroke="#fff" stroke-width="3" stroke-linecap="square"/><path id="path28598-8_2_" class="st9" d="M257.8 55.6l5 7 5-7" fill="none" stroke="#fff" stroke-width="3" stroke-linecap="square"/><path id="path28598-6_2_" class="st9" d="M228.8 71.6l5 7 5-7" fill="none" stroke="#fff" stroke-width="3" stroke-linecap="square"/><path id="path28598-0_2_" class="st9" d="M248.8 71.6l5 7 5-7" fill="none" stroke="#fff" stroke-width="3" stroke-linecap="square"/><path id="path28598-7_2_" class="st9" d="M268.8 71.6l5 7 5-7" fill="none" stroke="#fff" stroke-width="3" stroke-linecap="square"/><path id="path28598-6-3-7_2_" class="st9" d="M223.7 92.6l5-7" fill="none" stroke="#fff" stroke-width="3" stroke-linecap="square"/><path id="path28598-0-8-8_2_" class="st9" d="M238.7 85.6l5 7 5-7" fill="none" stroke="#fff" stroke-width="3" stroke-linecap="square"/><path id="path28598-7-5-6_2_" class="st9" d="M258.7 85.6l5 7 5-7" fill="none" stroke="#fff" stroke-width="3" stroke-linecap="square"/><path id="path28598-0-1-9_2_" class="st9" d="M278.7 85.6l5 7" fill="none" stroke="#fff" stroke-width="3" stroke-linecap="square"/><path id="path28598-6-0_2_" class="st9" d="M229.6 101.5l5 7 5-7" fill="none" stroke="#fff" stroke-width="3" stroke-linecap="square"/><path id="path28598-0-0_2_" class="st9" d="M249.6 101.5l5 7 5-7" fill="none" stroke="#fff" stroke-width="3" stroke-linecap="square"/><path id="path28598-7-7_2_" class="st9" d="M269.6 101.5l5 7 5-7" fill="none" stroke="#fff" stroke-width="3" stroke-linecap="square"/><path id="path28598-6-3-73_2_" class="st9" d="M224.5 122.5l5-7" fill="none" stroke="#fff" stroke-width="3" stroke-linecap="square"/><path id="path28598-0-8-6_2_" class="st9" d="M239.5 115.5l5 7 5-7" fill="none" stroke="#fff" stroke-width="3" stroke-linecap="square"/><path id="path28598-7-5-5_2_" class="st9" d="M259.5 115.5l5 7 5-7" fill="none" stroke="#fff" stroke-width="3" stroke-linecap="square"/><path id="path28598-0-1-3_2_" class="st9" d="M279.5 115.5l3.2 4.7" fill="none" stroke="#fff" stroke-width="3" stroke-linecap="square"/></g><g id="g9615"><g id="g9313" transform="matrix(1.9716 0 0 1.9716 -.291 -276.423)"><path d="M219.8 192.4c-.4 0-1.2 0-1.4-.7-.1-.3-.1-.7 0-1 .2-.5.9-1 2-1.4.6-.2 1.2-.4 1.7-.4h.2c1 0 1.6.4 1.7 1.1.1.5-.1.9-.3 1.2-.5.6-1.5 1-2.9 1.1-.5.1-.8.1-1 .1z" id="path9309"/><path class="st0" d="M222.3 189.4c.7 0 1.1.2 1.2.7.1 1-.9 1.6-2.8 1.8h-.9c-.7 0-.9-.1-1-.4-.3-.7.3-1.2 1.8-1.8.6-.2 1.1-.4 1.6-.4 0 .1 0 .1.1.1m0-1h-.2c-.6 0-1.2.2-1.9.4-1.3.5-2 1-2.3 1.7-.2.4-.2.9 0 1.4.4 1 1.5 1 1.9 1h1c1.6-.1 2.7-.6 3.3-1.3.4-.5.5-1 .4-1.6-.1-.8-.7-1.6-2.2-1.6z" id="path9311" fill="#fff"/></g><g id="g9319" transform="matrix(1.9716 0 0 1.9716 -.291 -276.423)"><path d="M222.5 187.8c-.9 0-1.7-.1-2.4-.4-1.7-.6-2.6-1.5-2.5-2.6 0-.8.8-1.7 4.3-5 3.9-3.7 7.5-7.1 7.5-7.7h-.3c-.6 0-1.9.4-3 1.2-.8.6-3.2 2.7-5.2 4.6-4 3.9-5.1 4.9-6.6 4.9s-1.8-1-2.3-4c-.9-4.9-.5-7.6 1.3-8.8.5-.3 1-.5 1.5-.5.7 0 1.5.4 2.6 1.2 2 1.5 2.4 1.6 4 1.6 1 0 2.9-.3 3.3-2 .2-.7.1-1.3-.7-3.8-.8-2.6-.9-3.7-.5-4.3.1-.2.4-.4.9-.4s1.1.2 2 .6c1.2.5 1.9 1.1 2.4 2 .6 1 1.8 1.6 3 1.6.5 0 .9-.1 1.4-.3.3-.1.5-.2.8-.2.5 0 .8.3 1.2.7.3.3.5.4.6.4.1 0 .2-.2.3-.5.1-.2 0-1.5-.1-3.3-1.8-2.1-2-4.4-.5-6.6 1.4-2.1 1.8-4.3 1.4-5.1-.1-.2-.2-.3-.4-.3-.1 0-.3 0-.5.1-1 .4-2.9 1-4.2 1.3-1.2.3-2.3 1-2.5 1.6-.5 1.3-3.5 1.7-5 1.7-2.1 0-3.2-.5-3.2-1.4 0-2.4 3.6-4.6 7.5-4.6 4.1 0 6.5-1.8 6.5-5 0-2.4 1.8-8 3.5-8 1.6 0 2.9 5.7 2.9 8.5 0 1.7.3 1.8 1.1 1.8.2 0 .5 0 .8-.1.4 0 .8-.1 1.2-.1 1.2 0 2.3.2 3 .4.6.2 1.3.5 1.3 1 .1.5-.4.9-1.2 1.3-.9.6-2.8 1-4.5 1-2 0-2.3.2-2.9 3.1-.4 2.1-.1 3.9.3 4.4 1.1 1.3.8 2.7-.1 4.4-.4.8-.7 1.3-1 1.6 0 1.6.3 2.1.4 2.2.1.1.2.1.3.1.6-.1.9-.8 1.1-4.4.2-3.6.5-5.1 1.7-5.5.3-.1.5-.1.8-.1 1.6 0 2.7 1.5 2.7 3.6 0 .5.3 2.1.8 3.8.7 2.4.9 3.5.9 5.9 0 3.9-.1 4.9-1.5 5.7-1 .6-2.8.6-3.3.6-1.2 0-2.2-.2-2.8-.5-.7-.4-2.6-2.2-2.6-3 0-.5 0-.7 3.2-.7h2.4l.6-1c.8-1.3 1.1-3.9.7-5 0-.1-.1-.2-.1-.3-.2.4-.4 1-.4 1.5 0 1.2-.6 2.9-1.4 3.3-.5.3-1.9.3-2.6.3-4.6 0-4.6 1.5-4.6 2s.3.8 2.2 2.5c.6.5 1.2 1.1 1.1 1.8-.1.7-.8 1.2-1.6 1.6l-1.5.7-2.3-.6c-1.2-.3-2.8-.5-4.2-.5-1.3 0-2.3.2-2.9.4-.8.4-1.5 1.4-1.5 2.2.1.3 1.2 1.7 2.5 2.7.4.3.6.6.6 1 0 .6-.6 1.2-2 2.1-.7 1.2-2.2 1.6-3.7 1.6z" id="path9315"/><path class="st0" d="M238.6 137c.9 0 2.4 4.8 2.4 8 0 1.7.3 2.3 1.6 2.3.3 0 .5 0 .9-.1.4 0 .8-.1 1.2-.1 1.1 0 2.2.1 2.8.4 1.3.5 1.4.7.1 1.5-.8.5-2.7.9-4.2.9-2.3 0-2.8.5-3.4 3.5-.4 2.1-.2 4.1.4 4.8.8 1 .8 2-.1 3.9-.4.8-.7 1.3-1 1.6-.1 2 .3 3 1.2 3h.2c1-.1 1.3-1.2 1.5-4.8.2-3.7.5-4.8 1.3-5.1.2-.1.4-.1.6-.1 1.3 0 2.2 1.3 2.2 3.1 0 .6.4 2.4.8 3.9.7 2.3.8 3.4.8 5.8 0 3.9-.2 4.6-1.3 5.3-.6.4-1.8.6-3 .6-1 0-2-.1-2.6-.4-.8-.4-2.3-2.1-2.3-2.6 0-.1 1.2-.2 2.7-.2h2.7l.8-1.3c.8-1.4 1.2-4.2.8-5.4-.2-.4-.4-.8-.6-.8-.4 0-.9 1.4-.9 2.3 0 1.2-.6 2.6-1.2 2.9-.3.2-1.3.3-2.3.3-3.5 0-5.1.8-5.1 2.5 0 .7.4 1.1 2.4 2.9 1.4 1.2 1.3 1.8-.4 2.6l-1.3.7-2.1-.6c-1.4-.4-2.9-.6-4.4-.6-1.3 0-2.4.2-3.1.5-1 .5-1.8 1.6-1.8 2.6 0 .5 1.4 2.1 2.7 3.1.8.6.4 1.2-1.4 2.3-1 .6-2.4 1-3.8 1-.8 0-1.5-.1-2.2-.4-1.5-.5-2.2-1.3-2.2-2.2 0-.6.9-1.6 4.1-4.6 7-6.6 7.9-7.7 7.5-8.3-.1-.2-.3-.2-.7-.2-.8 0-2.2.5-3.3 1.2-.8.6-3.2 2.7-5.2 4.7-4.1 4-5 4.7-6.2 4.7-1 0-1.3-.5-1.8-3.6-.8-4.7-.5-7.2 1.1-8.3.4-.3.8-.4 1.2-.4.6 0 1.4.3 2.3 1.1 2.1 1.6 2.5 1.8 4.3 1.8 2 0 3.4-.8 3.8-2.3.2-.9.1-1.6-.7-4.1-.9-2.9-1-4.1 0-4.1.4 0 1 .2 1.8.6 1.1.5 1.8 1 2.2 1.8.7 1.2 2.1 1.9 3.4 1.9.5 0 1.1-.1 1.6-.3.2-.1.4-.2.6-.2.3 0 .5.2.9.6.4.4.7.6 1 .6.4 0 .6-.3.8-.8.1-.4 0-2-.1-3.7-1.7-2-2-4-.6-6.1 2-3 2.1-6.1.5-6.1-.2 0-.4.1-.7.2-1 .4-2.8 1-4.1 1.3-1.3.3-2.6 1.1-2.9 1.9-.3.9-2.6 1.4-4.6 1.4-1.5 0-2.7-.3-2.7-.9 0-2.1 3.4-4.1 7-4.1 4.4 0 7-2 7-5.5 0-3 2-7.8 3.1-7.8m0-1c-2.2 0-4 6.1-4 8.5 0 3.9-3.8 4.5-6 4.5-4.3 0-8 2.4-8 5.1 0 .7.5 1.9 3.7 1.9.5 0 4.8-.1 5.5-2 .1-.3 1-1 2.2-1.3 1.3-.3 3.2-.9 4.3-1.3.2-.1.2-.1.3-.1.3.4.1 2.3-1.4 4.6s-1.4 4.8.5 7c.1 1.4.2 2.5.1 2.9l-.1-.1c-.4-.4-.8-.9-1.6-.9-.4 0-.7.1-1 .3-.4.2-.7.2-1.2.2-1 0-2.1-.5-2.6-1.4-.6-.9-1.4-1.6-2.7-2.2-1-.5-1.7-.7-2.2-.7-.8 0-1.2.4-1.3.6-.6.9-.4 2.3.4 4.7.8 2.4.8 2.9.7 3.6-.3 1.3-1.7 1.6-2.8 1.6-1.5 0-1.7-.1-3.7-1.5-1.2-.9-2.1-1.3-2.9-1.3-.6 0-1.2.2-1.8.6-1.9 1.4-2.4 4.1-1.5 9.3.5 2.7.8 4.4 2.8 4.4 1.6 0 2.8-1 6.9-5 2.2-2.1 4.4-4.1 5.1-4.6.7-.5 1.4-.8 2-1-1.1 1.3-4 4.1-6.8 6.8-3.7 3.5-4.4 4.4-4.4 5.3 0 1.3 1 2.4 2.9 3.1.7.3 1.6.4 2.5.4 1.6 0 3.1-.4 4.3-1.1 1.4-.9 2.2-1.6 2.3-2.5 0-.4-.1-.9-.8-1.4-1.1-.8-2.1-1.9-2.3-2.4.1-.5.5-1.3 1.2-1.6.5-.2 1.5-.4 2.6-.4 1.4 0 2.9.2 4.1.5l2.1.6.4.1.3-.2 1.3-.7c.9-.4 1.8-1 1.9-2 .1-.9-.6-1.7-1.3-2.3-1.6-1.4-2.1-1.8-2.1-2.1 0-.7.8-1.2 2.4-1.4-.8.1-1.2.4-1.2 1.1 0 1.1 2 3.1 2.8 3.5.9.5 2.3.5 3.1.5.6 0 2.5-.1 3.5-.7 1.6-1 1.7-2.3 1.7-6.2 0-2.5-.2-3.7-.9-6.1-.5-1.7-.8-3.3-.8-3.7 0-2.4-1.4-4.1-3.2-4.1-.3 0-.6 0-.9.1-.9.3-1.3.9-1.6 2.1-.1-.2-.2-.3-.3-.5-.3-.4-.6-1.9-.2-4 .5-2.7.8-2.7 2.4-2.7 1.5 0 3.6-.4 4.7-1.1.7-.4 1.5-.9 1.4-1.8-.1-.9-1-1.2-1.6-1.5-.8-.3-2.2-.4-3.2-.4-.5 0-.9 0-1.3.1-.3 0-.6.1-.8.1-.4 0-.5-.1-.5-.1s-.1-.2-.2-1.2c.1-1.7-.9-8.5-3.2-8.5zm1.6 28.3c.2-.3.5-.7.8-1.3-.2 2-.4 2.7-.5 2.9-.1-.1-.2-.6-.3-1.6zm0 7.1h.5c.3 0 2.1 0 2.8-.4.2-.1.5-.3.7-.6 0 .1-.1.1-.1.2l-.5.8H240.2z" id="path9317" fill="#fff"/></g><g id="g9325" transform="matrix(1.9716 0 0 1.9716 -.291 -276.423)"><path d="M231.3 183.2c-.7 0-1.5-.2-2.3-.6-.8-.4-1.4-1.1-1.6-1.7-.1-.4-.1-.7.1-1 .1-.2.3-.5 2.3-.5h.1c.4 0 1.8 0 2.6.2.7.2 1 .6 1.1.9.1.4.2.9-.3 1.8-.4.6-1.1.9-2 .9z" id="path9321"/><path class="st0" d="M230 179.9c.9 0 1.9.1 2.4.2.9.2 1.1 1 .5 1.9-.3.5-.9.7-1.6.7-.6 0-1.4-.2-2.1-.6-1-.6-1.6-1.4-1.3-2 .1-.2.9-.2 1.9-.3.1.1.2.1.2.1m0-1h-.1c-1.9 0-2.4.3-2.7.7-.3.4-.3.9-.2 1.4.2.8.9 1.5 1.8 2s1.7.7 2.6.7c1.1 0 1.9-.4 2.4-1.2.6-1 .6-1.7.4-2.2-.2-.6-.7-1-1.4-1.2-.9-.2-2.3-.2-2.8-.2z" id="path9323" fill="#fff"/></g><g id="g9331" transform="matrix(1.9716 0 0 1.9716 -.291 -276.423)"><path d="M205.3 186.9c-.5 0-.9-.3-1.7-1-1.1-.9-1.4-1.2-.9-2.4.5-1.1 4.7-7.4 5.4-7.9.2-.1.4-.2.7-.2h.2c.2 0 .4 0 .6.1.8.3.8 1 .7 2.5-.2 2.5-.7 3.5-2.5 4.7-1.1.7-1.2 1.2-1.2 1.2-.2 1.9-.3 3-1.3 3z" id="path9327"/><path class="st0" d="M209 175.9c.1 0 .3 0 .4.1.4.2.5.4.4 2-.2 2.3-.7 3.2-2.3 4.3-.8.6-1.3 1.1-1.4 1.6-.2 1.8-.3 2.5-.8 2.5-.3 0-.7-.3-1.4-.9-1.1-.9-1.1-1-.8-1.8.5-1.2 4.7-7.3 5.3-7.7.1-.1.3-.1.5-.2 0 .1 0 .1.1.1m0-1h-.2c-.3 0-.6.1-.9.3-.9.6-5.2 7.2-5.6 8.1-.6 1.4 0 2 1.1 2.9.8.7 1.4 1.2 2.1 1.2 1.4 0 1.6-1.5 1.8-3.4 0-.1.3-.4 1-.9 1.8-1.3 2.5-2.5 2.7-5.1.1-1.4.2-2.5-1-3-.5 0-.8-.1-1-.1z" id="path9329" fill="#fff"/></g><g id="g9337" transform="matrix(1.9716 0 0 1.9716 -.291 -276.423)"><path d="M295.2 201.3c-.3 0-1.1 0-1.5-.3-.4-.2-.6-.8-.7-1.3 0-.3-.1-.7.2-.9.3-.3.7-.4 1.4-.4h.4c.3 0 1.2 0 1.6.4.4.4.7.9.6 1.5-.1.4-.3.8-.7.9-.4.1-1 .1-1.3.1z" id="path9333"/><path class="st0" d="M295 198.9c.6 0 1.1.1 1.3.3.5.5.5 1.3 0 1.5-.3.1-.7.2-1.1.2-.5 0-1-.1-1.2-.2-.2-.1-.4-.5-.4-.9-.1-.6 0-.7 1.2-.8 0-.1.1-.1.2-.1m0-1h-.4c-.7.1-1.4.1-1.8.6-.4.5-.3 1-.3 1.3.1.6.4 1.3.9 1.6.5.3 1.3.4 1.8.4.3 0 1 0 1.5-.2.6-.2.9-.7 1-1.3.1-.7-.2-1.4-.7-1.9-.5-.5-1.5-.5-2-.5z" id="path9335" fill="#fff"/></g><g id="g9343" transform="matrix(1.9716 0 0 1.9716 -.291 -276.423)"><path d="M284.2 185.2c-.8 0-1.4-.2-1.9-.6-.9-.8-.8-1.1-.3-2.2.6-1.4.9-3.1.5-4-.3-.7-1.2-1.2-2.5-1.2-.7 0-1.8.4-2.2.7.2.1.9.3 1.8.3 1.2 0 1.8.1 1.8 1.3 0 1.4-1 2.6-2.2 2.6-1.3 0-1.8-.5-2.4-1.6-.3-.5-.3-.5-1-.5h-.9c-.9 0-1.7-.2-2.5-.7-.7-.4-1.3-.8-1.4-1.5-.1-.8.4-1.5 1.5-2.7 1.2-1.4 1.3-1.7 1.4-2.5 0-.7-.1-1.1-.3-1.2-.2-.2-.3-.3-1.1-.3-.7 0-1.8.1-3.4.2-.8.1-1.4.1-1.9.1-1 0-1.4-.2-1.9-.7-.7-.6-.8-1.3-.8-2.5 0-2.6-.5-3.1-.5-3.1s-.1.1-.4.3c-.3.3-.4.8-.4 2 0 2 .5 3.2 1.5 3.9.6.3.9.5 2.4.5h3.5c1.1 0 1.6.1 1.8 1 .2 1.1-1 2.4-2.5 3.1-.9.4-2 .5-2.8.5-2.2 0-4.9-.6-5.7-1.8-.8-1.1-.6-6.1-.1-9.2.2-1.5.6-3.8.7-5 .3-2.1.7-4 2.2-4 1 0 1.4.6 1.7 2 .1-.1.2-.2.2-.3.5-.6.8-2.3.4-4.5-.5-2.9-.9-3.1-2.9-3.1-1.6 0-3.6-.5-4.5-1-.7-.5-1.2-.8-1.2-1.3.1-.6.7-.8 1.3-1 .7-.3 1.8-.4 3-.4.4 0 .8 0 1.2.1.3 0 .6.1.8.1.8 0 1.1-.1 1.1-1.8 0-2.8 1.3-8.5 2.9-8.5 1.6 0 3.6 5.3 3.6 8 0 3.2 2.4 5 6.5 5 4 0 7.5 2.1 7.5 4.6 0 .9-1.1 1.4-3.2 1.4-1.5 0-4.5-.4-5.1-1.7-.2-.5-1.3-1.3-2.5-1.6-1.3-.3-3.1-.8-4.2-1.3-.3-.1-.6-.2-.8-.2-.1.1-.3.3-.3 1.4 0 1.2.7 3 1.4 4 1.6 2.2 1.9 3 .5 5-.1.6-.3 1.3-.4 1.7-.3 1-.3 1.3-.2 1.5.1.3.3.3.3.4.1 0 .5-.6.5-1.9 0-2.8 1.2-4.4 3.3-4.4 1.8 0 2.9.9 2.9 2.4 0 1.6-.6 2.5-1.9 3.1-.4.1-.5.2-.6.3 0 .1.1.1.3.3.1.1.3.2.5.2s.3 0 .5-.1c1.4-.3 1.7-.5 2.1-1.4 1-2.1 1.7-2.5 3.9-2.5 2.4 0 4 .6 4.8 2 .8 1.4.8 2.1.1 3.8-.6 1.5-.2 4.5.8 5.8.6.8.6.8 1.8.8 1.3 0 1.3 0 3.2-2 1.6-1.7 2.5-2.3 3.3-2.3.7 0 1.1.4 1.4.8.7.8.8 2.2.4 6.1-.3 2.7-.8 3.6-2.7 3.6-1.5 0-4.9-1.7-7.5-3.9-2.8-2.3-5.5-3.6-6.5-3.6h-.1c.3.5 1.6 1.9 3.6 3.4 5.1 3.7 6.5 5.2 5.6 7.1-.4.7-1.1 1.2-3.2 2-1.4.4-2.6.7-3.6.7zm-17.7-22.5c.2 1.6.4 2.8.9 2.9 0 0 .2-.2.3-.6z" id="path9339"/><path class="st0" d="M268.5 137c1.1 0 3.1 4.8 3.1 7.5 0 3.5 2.6 5.5 7 5.5 3.6 0 7 1.9 7 4.1 0 .6-1.3.9-2.7.9-1.9 0-4.3-.5-4.6-1.4-.3-.8-1.6-1.6-2.9-1.9-1.3-.3-3.1-.8-4.1-1.3-.4-.2-.7-.3-1-.3-.6 0-.8.6-.8 1.9 0 1.3.7 3.2 1.5 4.3 1.6 2.1 1.8 2.6.4 4.5-.1.7-.3 1.3-.4 1.8-.4 1-.4 1.5-.2 1.9.2.4.5.6.7.6.5 0 1-1 1-2.4 0-2.5 1-3.9 2.8-3.9 1.5 0 2.4.6 2.4 1.9 0 1.4-.4 2.1-1.6 2.6-1.1.5-1.2.7-.5 1.4.2.2.5.4.9.4.2 0 .4 0 .6-.1 1.5-.3 2-.6 2.5-1.7 1-1.9 1.5-2.2 3.5-2.2 2.3 0 3.6.6 4.4 1.8.7 1.2.7 1.7.1 3.3-.7 1.7-.2 4.8.9 6.3.7.9.9 1 2.2 1 1.4 0 1.5 0 3.5-2.2 1.4-1.5 2.3-2.2 3-2.2.4 0 .7.2 1.1.6.6.7.7 2 .3 5.7-.3 2.7-.7 3.2-2.3 3.2-1.4 0-4.7-1.7-7.2-3.8-2.7-2.2-5.5-3.7-6.8-3.7-.3 0-.5.1-.7.3-.3.4 1.5 2.3 3.9 4 5.1 3.7 6.2 5 5.4 6.5-.3.6-1 1-3 1.8-1.7.6-2.9.9-3.8.9-.7 0-1.2-.2-1.6-.5-.7-.5-.7-.6-.2-1.6.7-1.5.9-3.4.5-4.4-.4-.9-1.5-1.5-2.9-1.5-1 0-2.8.7-2.8 1.1 0 .5 1 .9 2.4.9 1.2 0 1.3.1 1.3.8 0 1.1-.8 2.1-1.7 2.1-1 0-1.4-.3-2-1.3-.4-.6-.6-.8-1.4-.8H274.8c-.9 0-1.5-.2-2.2-.6-1.6-.9-1.6-1.5.2-3.5 1.2-1.4 1.5-1.8 1.5-2.8 0-.7-.1-1.3-.4-1.6-.3-.3-.5-.4-1.4-.4-.7 0-1.7.1-3.4.2-.8.1-1.4.1-1.8.1-.9 0-1.1-.1-1.5-.5-.5-.5-.6-.9-.6-2.1 0-2.3-.4-3.6-1-3.6-.2 0-.5.2-.8.5-.4.5-.5 1.1-.5 2.3 0 2.2.6 3.5 1.8 4.3.7.4 1.1.6 2.7.6h3.5c1.2 0 1.2.1 1.3.6.1.8-.9 2-2.2 2.5-.7.3-1.6.4-2.6.4-2.2 0-4.7-.6-5.3-1.5-.6-.8-.6-5.2 0-8.8.2-1.5.6-3.8.8-5 .3-2.5.8-3.6 1.7-3.6 1 0 1.3.8 1.5 4.3.3 3.6.6 4.7 1.4 4.9h.1c.4 0 .7-.5.8-1.1l-1.3-2.5c-1-2-1.1-3-.3-4 .7-.8.9-2.8.5-4.9-.6-3-1.1-3.5-3.4-3.5-1.5 0-3.4-.4-4.2-.9-1.3-.8-1.3-1 .1-1.5.6-.2 1.7-.4 2.8-.4.4 0 .8 0 1.2.1.3 0 .6.1.9.1 1.3 0 1.6-.6 1.6-2.3-.2-3.4 1.2-8.2 2.2-8.2m0-1c-2.3 0-3.4 6.8-3.4 9 0 1-.1 1.2-.2 1.2 0 0-.1.1-.5.1-.2 0-.4 0-.8-.1-.4 0-.8-.1-1.3-.1-1 0-2.3.1-3.2.4-.7.3-1.6.6-1.6 1.5-.1.9.7 1.4 1.4 1.8 1.1.7 3.3 1.1 4.7 1.1 1.6 0 1.9 0 2.4 2.7.3 1.5.2 2.7 0 3.4-.4-.8-.9-1.2-1.8-1.2-2 0-2.4 2.9-2.6 4.5-.2 1.2-.5 3.5-.7 5-.4 2.6-.8 8.2.2 9.5.9 1.4 3.8 2 6.1 2 .8 0 2-.1 3-.5.5-.2.9-.5 1.3-.8-.7.9-1 1.6-.9 2.3.1.9.9 1.4 1.7 1.9.9.5 1.7.7 2.7.7h1.3s0 .1.2.3c.7 1.1 1.4 1.8 2.8 1.8s2.7-1.5 2.7-3.1-1-1.7-2-1.7h.1c1 0 1.8.3 2 .9.3.7.2 2.3-.5 3.6-.6 1.3-.7 1.9.4 2.8.6.5 1.3.7 2.2.7 1 0 2.2-.3 4.1-1 2-.8 3-1.3 3.5-2.2 1.2-2.4-.7-4.1-5.7-7.8-1.1-.8-1.9-1.5-2.5-2.1 1.2.5 2.9 1.5 4.9 3.1 2.4 2 6 4 7.8 4 2.6 0 3-1.6 3.2-4.1.5-4.1.3-5.5-.5-6.5-.2-.2-.8-.9-1.8-.9-1.1 0-2.2.9-3.7 2.5-1.8 1.8-1.8 1.8-2.8 1.8-1 0-1 0-1.4-.6-.9-1.2-1.3-3.9-.8-5.3.7-1.8.8-2.7-.2-4.2-1.2-2-3.6-2.3-5.2-2.3-2.4 0-3.2.5-4.4 2.8-.3.7-.5.9-1.8 1.1 1.2-.7 1.7-1.7 1.7-3.3 0-1.8-1.3-2.9-3.4-2.9-.8 0-1.5.2-2.1.6-.1-.8-.7-1.6-1.5-2.7-.7-.9-1.3-2.6-1.3-3.7v-.8c.1 0 .2.1.3.1 1.1.4 3 1 4.2 1.3 1.1.2 2 1 2.2 1.3.8 2 5 2 5.5 2 3.2 0 3.7-1.2 3.7-1.9 0-2.7-3.7-5.1-8-5.1-2.2 0-6-.6-6-4.5.3-2.3-1.5-8.4-3.7-8.4zm-3.9 34.4c-.4-.5-.7-1.3-.7-2.9 0-.7.1-1.2.1-1.4.1.4.2 1.1.2 2.1s.1 1.7.4 2.2zm7.8 1.3h.8l.1.1c0 .1.2.4.1.9 0 .5 0 .7-.7 1.6.2-.5.4-.9.3-1.4-.1-.7-.3-1-.6-1.2z" id="path9341" fill="#fff"/></g><g id="g9349" transform="matrix(1.9716 0 0 1.9716 -.291 -276.423)"><path d="M254.9 174.4c-4.3 0-4.9 0-4.9-1 0-.6-1.6-14.5-1.8-15.6l-.3-1.4h6.8c5.3 0 6 0 6.4.4.1.1.2.3.2.6 0 .4-.3 3.6-1.3 14.5l-.2 2.4h-4.9zm3-8.6c-.1.3-.2.9-.3 2.2 0 .7-.2 2.6 0 2.8.1 0 .2-.1.3-.2.3-.7.2-3.8 0-4.8zm-6.3 0c0 .3 0 1.1.1 1.7.2 2 .4 2.8.6 3.1.1-.1.1-.2.1-.4.2-.7-.2-4-.4-4.4h-.4zm3.5 0h-.2c-.1.1-.1 1.1-.1 1.9 0 1.2.1 1.9.1 2.3.1-.4.2-1.7.2-2.8.1-.5.1-1.1 0-1.4.1 0 .1 0 0 0z" id="path9345"/><path class="st0" d="M254.7 156.9c5.7 0 6.2 0 6.2.5 0 .4-.4 4.2-1.3 14.5l-.2 1.9H255c-4 0-4.4 0-4.4-.5 0-.6-1.6-14.5-1.8-15.7l-.2-.8h6.1m3 14.5c.3 0 .6-.3.7-.5.4-.9.2-5.3-.2-5.6-.1-.1-.1-.1-.2-.1h-.1c-.4 0-.7.8-.8 2.8-.2 2.8-.1 3.4.6 3.4m-5.5-.1c.1 0 .1 0 0 0 .3-.1.5-.5.6-.9.2-.7-.2-4.3-.5-4.8-.1-.1-.4-.3-.8-.3-.6 0-.6.1-.4 2.2.3 2.5.7 3.8 1.1 3.8m2.9-.2c.1 0 .3-.4.4-.9.1-.5.2-1.8.2-2.9 0-1.6 0-1.9-.4-1.9h-.2c-.6.1-.7.2-.7 2.4 0 2.3.2 3.3.7 3.3m-.4-15.1h-7.4l.2 1.2.2.8c.2 1.1 1.8 14.7 1.8 15.5 0 1.5.9 1.5 5.4 1.5H260.2l.1-.9.2-1.9c1.1-11.2 1.3-14.1 1.3-14.6s-.2-.8-.4-.9c-.4-.7-1.1-.7-6.7-.7z" id="path9347" fill="#fff"/></g><g id="g9355" transform="matrix(1.9716 0 0 1.9716 -.291 -276.423)"><path d="M298.3 218.9c-.6 0-1.3-.2-1.7-.5-.6-.4-.8-1-.8-1.8 0-1.1.2-1.5 1.3-1.5 1.2 0 2.5 1.5 2.5 2.8 0 1-1 1-1.3 1z" id="path9351"/><path class="st0" d="M297 215.5c.9 0 2 1.2 2 2.3 0 .5-.2.6-.8.6-.4 0-1.1-.2-1.4-.4-.4-.3-.6-.7-.6-1.4 0-1 .1-1.1.8-1.1m0-1c-1.5 0-1.8.8-1.8 2 0 .7.1 1.6 1.1 2.3.5.4 1.4.6 2 .6 1.6 0 1.8-1 1.8-1.6 0-1.7-1.6-3.3-3.1-3.3z" id="path9353" fill="#fff"/></g><g id="g9361" transform="matrix(1.9716 0 0 1.9716 -.291 -276.423)"><path d="M312.3 208.2c-.4 0-.8-.4-.8-.9 0-1.3 2.5-3.2 3.8-3.5h.3c.2 0 .3 0 .4.1.4.2.7.5.8 1 .1.6 0 1.5-.6 2-.7.6-3.1 1.3-3.9 1.3z" id="path9357"/><path class="st0" d="M315.6 204.3h.3c.6.2.6 1.7 0 2.3-.4.4-2.7 1.1-3.5 1.1-.2 0-.3-.2-.3-.4 0-1 2.2-2.8 3.4-3-.1.1 0 0 .1 0m0-1h-.3c-1.5.2-4.2 2.3-4.2 4 0 .8.6 1.4 1.3 1.4 1 0 3.5-.8 4.2-1.3.7-.6.9-1.7.8-2.5-.1-.7-.5-1.2-1.1-1.4-.3-.1-.5-.2-.7-.2z" id="path9359" fill="#fff"/></g><g id="g9367" transform="matrix(1.9716 0 0 1.9716 -.291 -276.423)"><path d="M256.1 19c-1.5 0-3.1-.8-3.1-2.1 0-.9 1.5-1.4 3-1.4 1.7 0 2.8.6 3 1.5.1.3 0 1.2-1.6 1.8-.4.1-.8.2-1.3.2z" id="path9363"/><path class="st0" d="M256 16c2.6 0 3.4 1.5 1.3 2.3-.4.1-.8.2-1.1.2-1.3 0-2.6-.7-2.6-1.6-.1-.5 1.1-.9 2.4-.9m0-1c-1.7 0-3.5.5-3.5 1.9 0 1.6 1.8 2.6 3.6 2.6.5 0 1-.1 1.5-.2 2-.7 2-1.9 1.9-2.3-.2-1.3-1.5-2-3.5-2z" id="path9365" fill="#fff"/></g><g id="g9373" transform="matrix(1.9716 0 0 1.9716 -.291 -276.423)"><path d="M310.4 195.3c-.4 0-.6-.3-.6-.6 0-.1 0-.3.8-1.6.5-.8 1.2-1.3 1.8-1.4.5 0 .8.3 1 .7.4 1.3-.9 1.9-1.5 2.3-.9.5-1.3.6-1.5.6z" id="path9369"/><path class="st0" d="M312.5 192.2c.2 0 .4.1.5.4.2.6-.1 1.1-1.3 1.7-.7.4-1.1.5-1.3.5-.1 0-.1 0-.1-.1s.3-.7.8-1.3c.4-.7.9-1.1 1.4-1.2-.1 0-.1 0 0 0m0-1h-.1c-.7.1-1.5.6-2.2 1.6-.9 1.4-.9 1.6-.9 1.8 0 .6.5 1.1 1.1 1.1.4 0 .8-.2 1.7-.7.6-.3 2.3-1.2 1.7-2.9-.2-.5-.7-.9-1.3-.9z" id="path9371" fill="#fff"/></g><g id="g9379" transform="matrix(1.9716 0 0 1.9716 -.291 -276.423)"><path d="M310.2 215.7c-.8 0-1.4-.5-1.8-.9-.4-.5-.9-1.1-1.1-1.5-.6-1.1-2.1-7.6-2.4-9.8-.1-1.1-.7-3.1-1.1-4.4-.4-.9-.9-2.6-.9-3.1 0-.4-1-1.5-1.4-1.5v.7c.1 1.1 2.5 16 2.7 17.2.2.9-.5 1.3-1.2 1.8-.8.4-1.5.7-2.2.7-.5 0-1-.1-1.5-.4-.7-.4-2.5-1.8-2.5-2.5 0-.4.5-.9 1.5-1.3s1-.5 1-1.2c.1-1.2-.1-1.7-2.2-2.7-2.2-1.1-3-1.7-2.8-2.9.2-.9 1.2-1.3 3-1.3.6 0 1.1-.2 1.6-.6.5-.4.7-1.1.6-1.9-.1-1-.7-1.9-1.6-2.3-.3-.1-1.7-.4-3.2-.6-2.4-.3-3-.4-3.8-1.2-.5-.5-1-1.4-1.2-1.9-.1-.5-.3-1.2.1-1.8.4-.7 1.5-1 2.9-1.3 1.7-.3 1.8-.4 1.9-.8.3-.8.3-1.2-1.2-3-.5-.6-1.4-1.8-1.4-2.4 0-1.2 1.8-2.6 3.6-3.4 1.1-.5 2.3-.8 3.5-.8h.1c2.1 0 3.7.8 4 2.1.2.9 0 2.6-.3 3.8-.1.3 0 .9.2 1.5.3.8.3.8 1.1.8 1.2 0 1.8-.4 2.2-1.5.4-1.2 2.2-3.1 3.3-3.1 1.4 0 2.3 1.3 2.3 3.3 0 1.2-.3 1.9-3.3 6.8-1.1 1.7-1.1 2.2-.7 3.4.2.6.2.6.9.6.6 0 1.2-.2 1.9-.7.8-.6 1.7-1 2.4-1s1.3.3 1.7.8c1.4 1.9 0 4.1-2.4 6.7-1.9 2-2.7 4.2-1.9 5.2.2.3.4.4 2.8.4 2.8 0 3.3 0 3.3 1.2 0 .8-.7 1.5-1.9 2.5-2.1 1.4-3.5 2.3-4.6 2.3z" id="path9375"/><path class="st0" d="M299.2 181c1.8 0 3.3.6 3.5 1.7.2.7 0 2.2-.3 3.5-.1.4 0 1.2.3 1.8.4 1 .6 1.1 1.6 1.1 1.4 0 2.2-.6 2.7-1.8.4-1.1 2-2.8 2.8-2.8 1.1 0 1.8 1.1 1.8 2.8 0 1.1-.3 1.8-3.3 6.5-1.1 1.8-1.2 2.4-.8 3.8.3.8.4.9 1.4.9.7 0 1.4-.3 2.2-.8.8-.6 1.5-.9 2.1-.9.5 0 1 .2 1.3.6 1 1.4.3 3.1-2.3 6-2.1 2.2-2.9 4.6-2 5.8.4.5.8.6 3.2.6 2.8 0 2.8 0 2.8.7 0 .5-.5 1.1-1.7 2.1-2.1 1.7-3.3 2.5-4.2 2.5-.5 0-1-.3-1.5-.8-.4-.4-.9-1-1-1.4-.5-1-2-7.4-2.3-9.7-.1-1.2-.7-3.2-1.2-4.5-.5-1.3-.9-2.6-.9-2.9 0-.7-1.3-2-1.9-2h-.1c-.4.1-.5.3-.4 1.3.1 1.1 2.5 16 2.8 17.3.1.5-.1.7-1 1.2-.7.4-1.4.6-2 .6-.5 0-.9-.1-1.3-.3-.9-.4-2.2-1.7-2.2-2.1 0-.2.5-.6 1.2-.9 1.1-.5 1.2-.7 1.3-1.7.1-1.6-.3-2.1-2.5-3.2-2.1-1.1-2.7-1.6-2.6-2.3.1-.6 1-.9 2.6-.9.7 0 1.4-.3 1.9-.7 1.5-1.3.8-4-1.1-5-.4-.2-1.9-.5-3.4-.6-2.4-.3-2.8-.4-3.5-1.1-.4-.4-.9-1.2-1.1-1.7-.4-1.4.2-2 2.6-2.4 1.8-.3 2.1-.4 2.3-1.1.4-1.1.2-1.7-1.3-3.5-.7-.8-1.3-1.8-1.3-2.1 0-.8 1.4-2.1 3.3-3 1-.5 2.2-.7 3.3-.8.1.2.1.2.2.2m0-1h-.1c-1.3 0-2.6.3-3.7.8-1.8.8-3.9 2.4-3.9 3.9 0 .9 1.2 2.3 1.5 2.7 1.4 1.7 1.3 1.9 1.1 2.5 0 .1-.1.1-.1.1-.2.1-1.1.3-1.5.3-1.5.3-2.7.6-3.2 1.5-.5.8-.3 1.6-.2 2.2.2.7.8 1.6 1.3 2.2.9.9 1.6 1.1 4.1 1.4 1.5.2 2.8.4 3.1.5.7.3 1.2 1.1 1.3 1.9.1.6-.1 1.1-.4 1.4-.3.3-.8.5-1.2.5-.8 0-3.2.1-3.5 1.7-.3 1.7 1.4 2.6 3.1 3.4 2.1 1 2 1.3 2 2.2 0 .4-.1.4-.1.5 0 0-.2.1-.7.4-1.8.8-1.8 1.5-1.8 1.8 0 1.2 2.2 2.7 2.7 3 .5.3 1.1.4 1.7.4.8 0 1.6-.2 2.5-.7.6-.3 1.8-1 1.5-2.3-.2-1.1-2.3-14.1-2.7-16.7.1.2.3.3.3.5 0 .8.9 3.1.9 3.2.5 1.2 1 3.2 1.1 4.3.3 2.3 1.8 8.8 2.4 10 .2.5.8 1.2 1.2 1.6.4.5 1.1 1.1 2.2 1.1 1.3 0 2.6-.9 4.8-2.7 1.4-1.1 2.1-1.9 2.1-2.9 0-1.7-1-1.7-3.8-1.7-.7 0-2.2 0-2.4-.1-.5-.7.1-2.6 1.9-4.5 2.2-2.4 4.1-4.9 2.4-7.3-.5-.7-1.2-1.1-2.1-1.1-.9 0-1.8.4-2.7 1.1-.6.4-1.1.6-1.6.6h-.3s0-.1-.1-.2c-.4-1-.4-1.3.7-3 2.9-4.8 3.4-5.6 3.4-7.1 0-2.6-1.4-3.8-2.8-3.8s-3.3 2.1-3.8 3.4c-.3.8-.7 1.2-1.7 1.2h-.4c0-.1-.1-.2-.2-.4-.2-.5-.2-1-.2-1.1.3-1.3.6-3.1.3-4-.3-1.7-2.1-2.7-4.4-2.7z" id="path9377" fill="#fff"/></g><g id="g9385" transform="matrix(1.9716 0 0 1.9716 -.291 -276.423)"><path d="M294.7 228.9c-.7 0-1.3-.4-1.8-1.1-.5-.7-.6-1.3-.4-1.8.2-.4.6-.7 1.1-.8h.2c.5 0 1.1.3 1.6.9.5.5.7 1.1.6 1.6 0 .7-.6 1.2-1.3 1.2z" id="path9381"/><path class="st0" d="M293.8 225.6c.8 0 1.9 1.1 1.8 1.9-.1.6-.4.9-.9.9s-1-.3-1.4-.9c-.7-.9-.5-1.7.4-1.9h.1m0-1h-.3c-.7.1-1.2.5-1.5 1.1-.3.7-.1 1.5.5 2.3.6.8 1.4 1.3 2.2 1.3 1 0 1.7-.7 1.9-1.7.1-.6-.2-1.4-.8-2-.6-.6-1.3-1-2-1z" id="path9383" fill="#fff"/></g><g id="g9391" transform="matrix(1.9716 0 0 1.9716 -.291 -276.423)"><path class="st0" id="polyline9389" fill="#fff" d="M292 165"/></g><g id="g9397" transform="matrix(1.9716 0 0 1.9716 -.291 -276.423)"><path d="M290.5 172.1c-.3 0-.6-.1-.8-.3-.6-.6-.3-4.6 0-5.5.4-1.1 1.3-1.8 2.3-1.8.6 0 1.2.3 1.7.7.9.9.9 2.2 0 3.4-.3.4-.9 1.3-1.2 1.9-.5.9-1.3 1.6-2 1.6z" id="path9393"/><path class="st0" d="M292 165c.5 0 .9.2 1.3.6.7.7.7 1.7 0 2.7-.3.4-.9 1.3-1.2 2-.4.8-1 1.3-1.5 1.3-.2 0-.3-.1-.5-.2-.3-.3-.2-3.9.1-4.9.3-1 1-1.5 1.8-1.5m0-1c-1.2 0-2.3.9-2.8 2.2-.2.7-.8 5.1.1 6 .3.3.7.5 1.2.5.9 0 1.8-.7 2.4-1.9.3-.6.8-1.4 1.1-1.8 1.1-1.4 1.1-2.9 0-4-.5-.7-1.3-1-2-1z" id="path9395" fill="#fff"/></g><g id="g9403" transform="matrix(1.9716 0 0 1.9716 -.291 -276.423)"><path d="M305 185.8c-.2 0-.4-.1-.6-.3-.3-.3-.4-1.6-.4-1.9 0-1.7-.2-2.2-2-4-1.7-1.6-1.8-1.8-1.7-3.5.1-1.3.1-2 1.3-2.1h.2c.5 0 1.2.3 1.7.6 1 .8 3 3.7 3.8 5.5l.7 1.5-1.1 2c-.9 1.6-1.3 2.2-1.9 2.2z" id="path9399"/><path class="st0" d="M301.8 174.5c.4 0 1 .2 1.4.5.9.7 2.9 3.6 3.7 5.3l.6 1.3-1 1.8c-.7 1.4-1.1 1.9-1.5 1.9-.1 0-.2 0-.3-.1-.1-.1-.2-.8-.2-1.6 0-1.9-.3-2.6-2.1-4.4-1.6-1.6-1.6-1.6-1.5-3.1.1-1.4.1-1.5.8-1.6h.1m0-1h-.2c-1.6.2-1.6 1.3-1.7 2.6-.1 1.9.1 2.2 1.8 3.9 1.7 1.7 1.8 2.1 1.8 3.7 0 1.8.4 2.1.5 2.3.4.4.7.4 1 .4.9 0 1.5-.9 2.3-2.4l1-1.7.2-.4-.2-.5-.6-1.3c-.8-1.8-2.8-4.8-4-5.7-.5-.6-1.3-.9-1.9-.9z" id="path9401" fill="#fff"/></g><g id="g9409" transform="matrix(1.9716 0 0 1.9716 -.291 -276.423)"><path d="M288.9 190.5c-1.4 0-1.8-.2-2.9-1.3-.9-1-1.3-1.7-1.2-2.3 0-.3.2-.7.8-1 .4-.2.8-.3 1.3-.3 1.5 0 3.2.8 4.5 2 1.2 1.2 1.2 1.4 1.2 1.6.1 1-3.2 1.3-3.7 1.3z" id="path9405"/><path class="st0" d="M287.1 186c1.3 0 2.8.7 4 1.9.6.6 1.1 1.1 1.1 1.2 0 .4-1.9.9-3.3.9-1.2 0-1.5-.1-2.5-1.2-1.2-1.3-1.4-2.1-.5-2.6.3-.1.7-.2 1.2-.2-.1 0-.1 0 0 0m0-1h-.1c-.6 0-1.1.1-1.6.4-.7.4-1 1-1 1.4-.2 1.1.7 2.1 1.3 2.8 1.2 1.2 1.7 1.5 3.2 1.5 0 0 4.3-.1 4.3-1.9 0-.3 0-.6-1.4-1.9-1.4-1.5-3.2-2.3-4.7-2.3z" id="path9407" fill="#fff"/></g><g id="g9415" transform="matrix(1.9716 0 0 1.9716 -.291 -276.423)"><path d="M272.7 252.7c-.5 0-.8-.3-1-.7-.1-.4 0-1.5 0-2.1.2-1.2.3-1.9 1.4-1.9.3 0 .6 0 .9.3.3.3.3.8.3 1.6 0 .6-.1 1.7-.5 2.1-.2.5-.6.7-1.1.7z" id="path9411"/><path class="st0" d="M273.2 248.6c.7 0 .7.1.7 1.4 0 .8-.2 1.6-.4 1.8-.2.3-.5.4-.8.4-.2 0-.4-.1-.5-.3-.1-.2-.1-1 .1-1.8.2-1.3.3-1.5.9-1.5m0-1c-1.6 0-1.8 1.2-1.9 2.3 0 .2-.2 1.7 0 2.3.2.6.8 1 1.5 1 .6 0 1.1-.3 1.5-.8.5-.6.6-2 .6-2.4 0-.9.1-1.5-.4-2-.4-.4-1-.4-1.3-.4z" id="path9413" fill="#fff"/></g><g id="g9421" transform="matrix(1.9716 0 0 1.9716 -.291 -276.423)"><path d="M281.8 250.1l-.2-.2c-.1-.1-.3-.3 0-1.2.1-.4.1-1.1.1-1.6 0-.6-.1-1.9-.1-2.9l-.1-2.3 1.4-.1h.4c1.1 0 1.6.6 1.7 1.8 0 .8-2 6-2.5 6.5l-.1.1h-.6z" id="path9417"/><path class="st0" d="M283.2 242.2c.8 0 1.2.4 1.2 1.3 0 .7-2.1 6.2-2.4 6.2-.1 0-.1-.3 0-.8.1-.4.2-1.2.1-1.8 0-.6-.1-1.8-.1-2.9l-.1-1.9 1-.1h.3m0-1h-.4l-1 .1-.9.1v.9l.1 1.9c0 1 .1 2.3.1 2.9 0 .5 0 1.2-.1 1.5-.2.7-.2 1.3.1 1.6.2.3.5.4.8.4.3 0 .6-.1.8-.3.6-.6 2.6-5.9 2.6-6.8.1-1.5-.7-2.3-2.1-2.3z" id="path9419" fill="#fff"/></g><g id="g9427" transform="matrix(1.9716 0 0 1.9716 -.291 -276.423)"><path class="st0" id="polyline9425" fill="#fff" d="M278.5 246.5"/></g><g id="g9433" transform="matrix(1.9716 0 0 1.9716 -.884 -276.423)"><path d="M256.5 273.4c-6.2 0-6.8-.3-7-.4-.9-.4-.9-.9-.8-1.9.1-.5.5-4.8 1-9.4.8-8.6.9-8.7 1-8.9.2-.2.3-.3 1.9-.3H256l5.2.1 1.2 9.8c1.2 9.5 1 9.9.9 10.2-.4.7-1 .7-5 .7zm-4.6-11s-.1.1-.3.2c-.4.4-.5.7-.5 3.5-.1 2.4 0 3.4.3 4.1.2.6.4.7.5.7 0 0 .2-.1.4-.7.9-2.2.6-6.8-.4-7.8.1 0 0 0 0 0zm8.3 0s-.2.1-.3.3c-.8 1.4-1 5.5-.1 7.7.2.5.3.6.4.6 0 0 .2-.1.5-.7.8-2.2.3-7.5-.5-7.9v-.5zm-4-.1s-.3.1-.6.8c-.5 1-.4 6.2.1 7.2.3.5.4.6.5.6 0 0 .2-.1.5-.9.5-1.3.5-5.1.1-6.6-.3-.8-.5-1-.6-1.1z" id="path9429"/><path class="st0" d="M256.041 253.065h4.859l1.2 9.435c.7 6 1.1 9.6.9 9.9-.2.4-.7.5-4.5.5h-1.8c-3.9 0-6.4-.1-6.8-.3-.6-.3-.7-.5-.5-1.3.1-.6.5-4.8 1-9.4.4-4.6.841-8.735.841-8.835m.559 18.335c.3 0 .6-.3.9-1 1-2.3.7-7.2-.4-8.3-.2-.2-.3-.3-.4-.3-.1 0-.3.2-.6.4-.5.5-.6 1-.7 3.8-.1 2.4 0 3.5.3 4.3.3.8.6 1.1.9 1.1m4.2-9.5c-.3.1-.6.4-.9 1-.6 1.1-.5 6.5.1 7.7.3.6.6.8.9.8.3 0 .7-.4 1-1.2.5-1.4.5-5.3.1-6.9-.3-.9-.6-1.4-1-1.4-.1-.1-.1-.1-.2 0m4.2 0c-1.4.2-2 5.8-.8 8.7.2.6.5.9.8.9.3 0 .6-.4.9-1 .9-2.1.5-8.1-.6-8.5-.1-.1-.2-.1-.3-.1m-6.7-9.9h-.9c-1.6 0-2 .1-2.3.6-.2.3-.3.4-1.1 9.1-.4 4.6-.9 8.8-1 9.4-.2 1.1 0 1.8 1.1 2.4.3.1.9.4 7.2.4h1.8c4 0 4.9 0 5.4-1 .2-.4.4-.8-.8-10.5l-1.2-9.4-.1-.9h-.9l-4.8-.1zm2.6 18c-.4-1.1-.5-5.8-.1-6.7 0-.1.1-.1.1-.2 0 .1.1.2.1.4.4 1.4.4 5.1-.1 6.3zm-4.3 0c-.2-.6-.3-1.7-.2-3.8.1-2.1.1-2.7.3-3 .5 1.2.7 4.9-.1 6.8zm8.4 0c-.7-2.1-.5-5.4 0-6.7.4 1.5.6 5.1 0 6.7z" id="path9431" fill="#fff"/></g><g id="g9439" transform="matrix(1.9716 0 0 1.9716 -.291 -276.423)"><path d="M277.6 270c-.5 0-.8-.5-.8-1.3 0-.4-.1-1.1-.3-1.6-.2-.6-.2-1 0-1.3.1-.1.3-.3.6-.3.6 0 3.3 1.4 3.6 2 .1.1.2.3 0 .6-.3.5-2.4 1.9-3.1 1.9z" id="path9435"/><path class="st0" d="M277.1 266c.4 0 2.9 1.4 3.2 1.7.2.3-2.1 1.7-2.7 1.7-.2 0-.3-.3-.3-.8 0-.4-.1-1.2-.3-1.7-.2-.7-.2-.9.1-.9m0-1c-.6 0-.9.3-1 .5-.4.5-.3 1.2-.1 1.7.1.5.2 1.1.2 1.4 0 1.2.7 1.8 1.3 1.8.9 0 3.2-1.4 3.5-2.1.2-.4.2-.8 0-1.1-.3-.6-3.1-2.2-3.9-2.2z" id="path9437" fill="#fff"/></g><g id="g9445" transform="matrix(1.9716 0 0 1.9716 -.291 -276.423)"><path d="M265.5 272.8c-.4 0-.8-.3-.8-.8-.1-1.1 0-3.5.6-4 .1-.1.2-.2.5-.3h.1c.4 0 .9.3 1.9 1.1 1.2.9 1.8 1.6 1.6 2.3-.1.6-.8.9-1.8 1.1-.8.2-1.4.3-1.5.4-.1.1-.4.2-.6.2z" id="path9441"/><path class="st0" d="M265.9 268.2c.3 0 .7.3 1.6 1 2 1.6 2 2.1 0 2.4-.8.2-1.6.4-1.7.5-.1.1-.3.2-.4.2-.2 0-.3-.1-.3-.3-.1-1.2.1-3.3.4-3.6.2-.1.3-.2.4-.2m0-1h-.3c-.3.1-.6.2-.8.4-.7.8-.8 3.5-.7 4.4.1.7.6 1.2 1.3 1.2.4 0 .7-.1 1-.4.2-.1.6-.2 1.3-.3.7-.1 2-.4 2.2-1.4.2-1-.7-1.9-1.8-2.8-1-.7-1.6-1.1-2.2-1.1z" id="path9443" fill="#fff"/></g><g id="g9451" transform="matrix(1.9716 0 0 1.9716 -.291 -276.423)"><path d="M290.9 237.5c-.6 0-1.3-.4-1.9-1.1-.8-1-1-1.4-.6-2.3.2-.5.5-.7 1-.8 1.1 0 2.3 1.2 2.6 2.6.1.5.2.9-.1 1.2-.3.4-.6.4-1 .4z" id="path9447"/><path class="st0" d="M289.5 233.9c.7 0 1.7 1 2 2.2.2.8.1.9-.5.9-.5 0-1-.3-1.5-.9-.8-.9-.8-1.1-.6-1.8.1-.3.3-.4.6-.4m0-1h-.1c-.6 0-1.1.4-1.4 1.1-.5 1.2-.2 1.8.7 2.8.7.8 1.5 1.2 2.2 1.2.4 0 .9 0 1.3-.5s.3-1.1.2-1.6c-.3-1.6-1.6-3-2.9-3z" id="path9449" fill="#fff"/></g><g id="g9463" transform="matrix(1.9716 0 0 1.9716 -.291 -276.423)"><path d="M228.1 247.8c-.5 0-.7-.5-.8-.7-.3-.9-.2-3.5.2-4.3.3-.5.8-.8 1.4-.8.7 0 1.2.4 1.3 1 .1 1-.1 1.5-.7 3.1-.6 1.2-.9 1.7-1.4 1.7z" id="path9459"/><path class="st0" d="M228.9 242.5c.4 0 .7.2.7.5.1.9-.1 1.3-.7 2.9-.4 1-.7 1.5-.9 1.5-.1 0-.2-.1-.3-.4-.3-.7-.2-3.2.1-3.8.3-.5.7-.7 1.1-.7m0-1c-.9 0-1.6.5-1.9 1.1-.5.9-.5 3.7-.2 4.7.3.7.7 1.1 1.3 1.1.9 0 1.4-1 1.8-2.1.7-1.6.8-2.2.8-3.3-.1-.9-.8-1.5-1.8-1.5z" id="path9461" fill="#fff"/></g><g id="g9469" transform="matrix(1.9716 0 0 1.9716 -.291 -276.423)"><path d="M238.2 270.3c-.6 0-1.7-.1-2.1-.6-.5-.7-.5-1.7.3-3.8.7-1.8.1-2.5-.5-2.9-.4-.3-.9-.5-1.5-.5-1.2 0-2.9.5-5.1 1.6-1.9 1-2.7 1.3-3.3 1.3-.4 0-.6-.1-1-.3-.7-.3-1.4-.9-1.6-1.5-.5-1.2-.2-1.8 1.4-3.9.6-.7.9-1.5.9-1.8 0-.4 0-.5-1.5-1.2-1-.5-2-.9-2.3-.9-.8 0-1.6-.6-2.2-1.1-1.1-1-1.2-1.3-1.2-3 0-3.2 1.6-5 4.3-5 1.3 0 2.1.8 3.5 2.8.2.3.4.4 1.8.5h.6c1.3 0 1.8-.3 2.6-2.4.6-1.7.8-2 2.1-2 1.4 0 1.5.4 1.8 2 .8 3.9 1.6 6.2 2 6.7.5.7 1.5 1.2 2.6 1.2.8 0 1.5-.3 1.7-.8.1-.3.3-1.2.3-2.2 0-.8 0-2.4 1.1-2.4.4 0 .9.3 1.6.9 1.6 1.5 2.3 3.2 2.6 6.2.3 2.8 0 3.1-.1 3.2-.2.2-.5.2-.6.2-1.3 0-7.9-1.9-11.1-3.2-3.8-1.6-5-2.1-5.5-2.1h-.1c.2.2.7.7 2.2 1.7 2.9 1.8 5.4 3 10.6 5 4 1.5 4.3 1.6 4.4 2.8.1 1-.2 1.4-1.1 1.9-.5.3-1.4.7-2.1.8-.4.1-1.5.6-2.4 1.2-1.2 1.3-1.8 1.6-3.1 1.6z" id="path9465"/><path class="st0" d="M233.3 246.4c1 0 1 0 1.3 1.6.7 3.5 1.5 6.2 2.1 6.9.7.9 1.9 1.4 3 1.4.9 0 1.8-.3 2.1-1.1.2-.4.4-1.5.4-2.4 0-1.3.2-1.9.6-1.9.3 0 .7.3 1.2.8 1.5 1.4 2.1 3 2.4 5.9.1 1.4.2 2.7.1 2.8h-.2c-1.2 0-7.8-1.9-10.9-3.2-4.1-1.7-5.1-2.1-5.6-2.1-.1 0-.2 0-.3.1-.8.3-.3 1 2.2 2.5 2.9 1.9 5.6 3.1 10.7 5 3.9 1.4 4 1.5 4.1 2.4.1.7-.1 1-.9 1.5-.5.3-1.4.7-1.9.8-.5.1-1.7.7-2.6 1.3-1.3.9-1.8 1.1-2.9 1.1-.8 0-1.5-.2-1.7-.4-.4-.5-.3-1.4.4-3.3.6-1.6.4-2.7-.6-3.5-.5-.4-1.1-.6-1.8-.6-1.3 0-3.1.6-5.3 1.7-1.9.9-2.6 1.3-3.1 1.3-.3 0-.5-.1-.8-.2-.6-.3-1.1-.7-1.3-1.3-.4-1-.3-1.4 1.3-3.4.6-.8 1-1.6 1-2.1 0-.7-.2-.9-1.8-1.7-1-.5-2.1-.9-2.6-.9s-1.2-.4-1.8-1c-.9-.9-1-1.1-1-2.6 0-2.9 1.3-4.5 3.8-4.5 1 0 1.6.5 3.1 2.6.4.5.8.7 2.2.8h.7c1.7 0 2.3-.6 3-2.7.4-1.6.5-1.6 1.4-1.6m0-1c-1.6 0-1.9.6-2.5 2.4-.7 1.9-1.1 2-2.1 2h-.6c-1.2-.1-1.3-.2-1.4-.3-1.5-2.2-2.4-3.1-3.9-3.1-3.1 0-4.8 2-4.8 5.5 0 1.8.2 2.2 1.3 3.3.6.6 1.5 1.2 2.5 1.2.2 0 1.1.3 2.1.8.3.1 1 .5 1.2.7v.1c0 .2-.2.8-.8 1.5-1.5 2-2.1 2.8-1.4 4.4.3.8 1 1.4 1.9 1.8.3.1.7.3 1.2.3.8 0 1.5-.4 3.5-1.4 2.1-1.1 3.7-1.6 4.9-1.6.5 0 .9.1 1.2.3.5.4.8.9.3 2.4-.7 1.9-1 3.3-.2 4.3.5.7 1.7.8 2.5.8 1.4 0 2.1-.3 3.5-1.3.8-.6 1.9-1.1 2.2-1.1.7-.1 1.7-.6 2.2-.9 1-.6 1.5-1.2 1.3-2.4-.2-1.5-.7-1.7-4.8-3.2-4.9-1.8-7.4-3-10.1-4.7.7.3 1.6.6 2.5 1 3 1.2 9.8 3.2 11.3 3.2.4 0 .7-.1.9-.4.2-.2.5-.6.2-3.6-.3-3.1-1.1-4.9-2.7-6.5-.8-.7-1.3-1.1-1.9-1.1-1.6 0-1.6 2.1-1.6 2.9 0 .9-.2 1.7-.3 1.9-.2.3-.6.5-1.3.5-.9 0-1.7-.4-2.2-1-.3-.4-1-2.5-1.9-6.5-.2-1.5-.4-2.2-2.2-2.2z" id="path9467" fill="#fff"/></g><g id="g9475" transform="matrix(1.9716 0 0 1.9716 -.291 -276.423)"><path d="M239.6 254.4c-.5 0-1.1-.4-1.6-1-.7-1-.9-2.6-.7-3.6.1-.6.3-1 .7-1.2.3-.2.5-.2.7-.3 1 0 1 1.1 1 2 0 .7.2 1.3.4 1.5.3.4.6 1 .5 1.5-.1.8-.6 1.1-1 1.1z" id="path9471"/><path class="st0" d="M238.7 248.8c.3 0 .4.5.5 1.6 0 .8.3 1.5.6 1.8.3.3.5.8.4 1.1-.1.4-.3.6-.6.6s-.8-.3-1.2-.8c-.8-1.2-.9-3.6-.2-4.1.2-.1.4-.2.5-.2m0-1h-.1c-.3 0-.6.1-.9.3-.3.2-.7.6-.9 1.5-.2 1.1 0 2.8.8 4 .6.8 1.3 1.3 2 1.3.8 0 1.4-.5 1.5-1.4.1-.7-.2-1.5-.6-2-.1-.1-.3-.6-.3-1.2 0-.9-.1-2.5-1.5-2.5z" id="path9473" fill="#fff"/></g><g id="g9481" transform="matrix(1.9716 0 0 1.9716 -.291 -276.423)"><path d="M245.4 273.1c-.5 0-1-.2-1.7-.6-.8-.4-1.4-1-1.5-1.6-.2-.7-.1-1.2.2-1.6.2-.2.5-.4.8-.4 0 0 .5-.3 1.2-.8.6-.4 1.2-.7 1.6-.8h.5c.8.3 1 1.5 1 2.1.1 1.2-.2 2.8-1.1 3.2-.2.3-.6.5-1 .5z" id="path9477"/><path class="st0" d="M246.2 267.9h.1c1 .4.9 3.9-.1 4.4-.3.2-.6.3-.8.3-.4 0-.8-.2-1.5-.5-.6-.3-1.1-.8-1.3-1.3-.2-.8 0-1.3.4-1.3.1 0 .8-.4 1.5-.9.6-.4 1.1-.6 1.4-.7h.3m0-1h-.3c-.5.1-1.2.4-1.9.9-.5.4-1 .6-1.1.7-.4.1-.7.2-.9.5-.4.5-.5 1.2-.3 2 .2.7.8 1.4 1.8 1.9.8.4 1.4.7 2 .7.5 0 1-.2 1.3-.4 1.1-.6 1.4-2.4 1.3-3.7-.1-1.3-.6-2.3-1.4-2.6h-.5z" id="path9479" fill="#fff"/></g><g id="g9487" transform="matrix(1.9716 0 0 1.9716 -.291 -276.423)"><path d="M313.8 222.9c-1.9 0-2.1-.3-2.2-.3l-.1-.2v-.2c0-.3.4-.9.5-1.1.1-.2.3-.9.3-1.7 0-1.8.7-3.4 2-4.4.7-.5 1.2-.8 1.7-.8.6 0 1.1.3 1.4.9.4.8.2 1.8-.9 6.3l-.4 1.5z" id="path9483"/><path class="st0" d="M316 214.7c.4 0 .7.2.9.7.3.7.2 1.6-.9 6l-.3 1.1h-1.8c-1 0-1.9-.1-1.9-.2s.2-.5.4-.8c.2-.3.4-1.2.4-2 0-1.7.6-3.1 1.8-4.1.6-.5 1-.7 1.4-.7m0-1c-.6 0-1.3.3-2 .9-1.4 1.2-2.1 2.8-2.1 4.8 0 .6-.2 1.2-.2 1.4-.4.5-.6 1-.6 1.3v.4l.3.3c.2.2.5.5 2.6.5h2.6l.2-.8.3-1.1c1.1-4.4 1.4-5.6.9-6.6-.5-.7-1.2-1.1-2-1.1z" id="path9485" fill="#fff"/></g><g id="g9493" transform="matrix(1.9716 0 0 1.9716 -.291 -276.423)"><path d="M272.4 270.8c-.8 0-1.7-.3-2.9-1.1-2.1-1.4-4.3-3.3-4.3-4.5 0-1.1.7-1.4 4.1-2.6 7.4-2.7 9.5-3.6 10.9-4.5 2.3-1.5 2.7-2.4 2.7-2.6 0-.1 0-.1-.2-.1-.6 0-1.7.5-2.6.9-3.1 1.5-6.6 2.7-10.8 3.6-.6.1-3.7.9-4 .9-.2 0-.4-.1-.5-.3-.5-.6-.3-2.5 0-3.5.2-.6.8-1.7 1.5-2.5.6-.6 1.3-1.8 1.7-2.6.8-1.9 1.1-1.9 1.3-1.9 1 0 1.3 3.1 1.3 3.3 0 .2.2.7.5 1 .4.4 1.1.6 2 .6.8 0 1.4-.2 1.7-.5 1-1.1 1.4-2.2 1.6-4.6.2-2.3.4-3.8 2.2-3.8.7 0 1 .3 1.1.5.3.5.3 1.1-.1 2-.2.5-.5 1.6-.6 2.4-.2 1.3-.2 1.3.4 1.9.5.5.8.6 2.2.6 1.5 0 1.5 0 2.5-.9.8-.8 1-1.3 1.3-2.6.2-1 .6-2.2 1-2.6.4-.4 1.1-.7 1.9-.7 1.5 0 3.3.9 4.4 2.2.8.9 1.4 2.6.1 5.3-1 2.3-1.8 3-4.7 3h-2.2c-1.1 0-1.2.1-1.5.4-.3.3-.4.9-.4 1.7 0 1 .1 1.2.8 1.9.5.5 1 .8 1.1.9.5 0 2.3.8 2.7 1.1.1.1.3.3.1 1.3-.3 1.1-1.6 1.9-3.1 1.9-.8 0-1.5-.2-2.1-.6-1.4-1-4.8-1.9-7.4-1.9-.9 0-1.5.1-2 .3-.8.3-.8.3-.8 1 0 .4.2 1.6.6 2.6.4 1.2.6 2.1.2 2.7-.3.4-1 .4-1.7.4z" id="path9489"/><path class="st0" d="M278.5 246.5c.9 0 1.1.7.6 1.9-.2.5-.5 1.7-.6 2.6-.2 1.5-.1 1.6.6 2.3.7.6 1.1.7 2.5.7 1.6 0 1.8-.1 2.8-1.1.9-.9 1.1-1.4 1.4-2.9.2-1 .6-2.1.9-2.3.4-.4.9-.5 1.5-.5 1.3 0 3 .7 4 2 1 1.2 1 2.8.1 4.8-1 2.2-1.6 2.7-4.2 2.7h-2.2c-1.3 0-1.5.1-1.9.6-.4.4-.5 1.1-.5 2 0 1.1.1 1.4 1 2.3.5.5 1.2 1 1.4 1 .4 0 2 .7 2.4 1 0 0 0 .4-.1.8-.2 1-1.4 1.6-2.6 1.6-.6 0-1.3-.2-1.8-.5-1.6-1.1-5.2-2-7.7-2-.9 0-1.6.1-2.2.3-.9.4-1.1.6-1.1 1.4 0 .5.3 1.8.6 2.8.7 2.1.5 2.6-1.2 2.6-.7 0-1.5-.3-2.6-1-2.4-1.6-4-3.3-4-4.1 0-.7.3-.9 3.8-2.2 7.4-2.7 9.5-3.6 11-4.6 2-1.3 3.1-2.6 2.8-3.2-.1-.3-.3-.4-.7-.4-.5 0-1.4.3-2.8 1-3.1 1.5-6.6 2.6-10.7 3.6-2 .5-3.8.8-3.9.8-.4 0-.4-1.8 0-3.2.2-.6.8-1.6 1.4-2.2.6-.7 1.4-1.9 1.8-2.8.4-.9.8-1.6.9-1.6.3 0 .8 1.9.8 2.8 0 .4.3 1 .7 1.4.5.5 1.4.8 2.3.8.8 0 1.7-.2 2.1-.7 1.1-1.2 1.5-2.4 1.7-4.9.3-2.9.6-3.6 1.7-3.6m0-1c-2.3 0-2.5 2.3-2.7 4.3-.2 2.6-.6 3.5-1.4 4.3-.2.2-.7.4-1.4.4s-1.3-.2-1.6-.5c-.2-.2-.4-.6-.4-.7 0 0-.2-3.8-1.8-3.8-.6 0-1 .3-1.8 2.2-.3.8-1.1 1.9-1.6 2.5-.6.7-1.4 1.8-1.6 2.7-.3.9-.6 3.1.1 4 .2.3.6.5.9.5.3 0 1.7-.3 4.2-.9 4.3-1 7.8-2.2 10.9-3.7.7-.4 1.3-.6 1.6-.7-.4.4-1 .9-2 1.6-1.3.9-3.4 1.8-10.7 4.4-3.6 1.3-4.5 1.6-4.5 3.1 0 1.8 3.1 4.1 4.5 5 1.3.8 2.2 1.2 3.1 1.2.8 0 1.7-.1 2.2-.8.6-.8.3-2-.1-3.1-.3-1-.5-2.1-.5-2.4v-.3c.1 0 .2-.1.4-.2s.7-.2 1.8-.2c2.5 0 5.8.8 7.1 1.8.6.5 1.5.7 2.4.7 1.8 0 3.2-1 3.6-2.3.2-1 .2-1.5-.2-1.8-.5-.4-2.1-1.1-2.9-1.2-.1-.1-.5-.3-.9-.7-.7-.7-.7-.8-.7-1.5 0-.8.2-1.2.3-1.3.2-.2.2-.3 1.1-.3h2.2c2.9 0 3.9-.7 5.1-3.2 1.4-3 .7-4.8-.2-5.8-1.2-1.4-3.1-2.3-4.8-2.3-.9 0-1.7.3-2.2.8-.7.7-1.1 2.6-1.1 2.9-.3 1.3-.4 1.7-1.2 2.4-.8.8-.8.8-2.1.8s-1.4-.1-1.8-.5c-.4-.4-.4-.4-.3-1.5.1-.9.4-1.9.5-2.3.4-1 .5-1.9 0-2.5-.1-.6-.5-1.1-1.5-1.1z" id="path9491" fill="#fff"/></g><g id="g9499" transform="matrix(1.9716 0 0 1.9716 -.291 -276.423)"><path d="M291.7 261.3c-.6 0-1.3-.2-2.4-.6-1.7-.7-2.2-1-2.1-1.5.1-.3.4-.5.9-.5.2 0 .4 0 .7.1.4.1 1.5.2 2 .3.4 0 2.3-1.6 4.1-4.1l1.2-1.8h2.2c1.4 0 2.5.1 2.5.9 0 .9-5 5.3-6.3 6.2-1.1.6-1.8 1-2.8 1z" id="path9495"/><path class="st0" d="M298.3 253.7c1.4 0 2 .1 2 .4 0 .5-4.3 4.6-6.1 5.8-1 .7-1.7 1-2.4 1-.6 0-1.3-.2-2.2-.6-1.7-.7-2.2-1.1-1.4-1.1.2 0 .4 0 .7.1.7.1 1.6.2 1.9.3h.1c.8 0 2.9-2 4.5-4.3l1.1-1.6h1.8m0-1h-2.5l-.3.4-1.1 1.6c-1.5 2.2-3.1 3.6-3.7 3.9-.5-.1-1.4-.2-1.9-.3-.3 0-.6-.1-.8-.1-1.1 0-1.3.6-1.4.9-.2 1 .8 1.5 2.4 2.1 1.1.4 1.9.6 2.6.6 1.1 0 2-.5 3-1.1.6-.4 6.5-5.2 6.5-6.6.1-1.4-1.7-1.4-2.8-1.4z" id="path9497" fill="#fff"/></g><g id="g9505" transform="matrix(1.9716 0 0 1.9716 -.291 -276.423)"><path d="M306.2 246.7c-.1 0-.2 0-1.7-.5-2.6-.8-3.2-1-3.5-1.7-.1-.4-.1-.7.1-1 .3-.5 1-.7 2.6-.8h.7c1.9 0 3.7.6 3.7 1.8 0 .5-.4 1-.7 1.4-.6.8-1 .8-1.2.8.1 0 0 0 0 0z" id="path9501"/><path class="st0" d="M304.4 243.1s.1 0 0 0c1.9 0 3.2.6 3.2 1.3 0 .5-1 1.8-1.4 1.8-.1 0-.8-.2-1.6-.5-2.5-.8-3-1-3.2-1.4-.3-.7.3-1 2.2-1.2h.8m0-1H303.6c-1.5.1-2.5.3-3 1-.2.3-.4.8-.1 1.5.4 1 1.3 1.3 3.8 2 1.5.5 1.6.5 1.6.5h.2c1 0 2.4-1.9 2.4-2.8 0-1.4-1.6-2.3-4.1-2.3z" id="path9503" fill="#fff"/></g><g id="g9511" transform="matrix(1.9716 0 0 1.9716 -.291 -276.423)"><path d="M232 268.2c-.5 0-.9-.3-1.3-.6l-1.1-.9 1.3-1.3c.7-.7 1.4-1.1 2.1-1.1.3 0 1 0 1.2.5.3.5 0 1.1-.7 2.1-.4.7-.8 1.3-1.5 1.3z" id="path9507"/><path class="st0" d="M233 264.9c1.1 0 1.1.4.2 1.8-.5.7-.8 1-1.2 1-.3 0-.6-.2-1-.5l-.7-.5.9-.9c.6-.6 1.2-.9 1.8-.9m0-1c-.9 0-1.7.4-2.5 1.2l-.9.9-.8.8.9.7.7.5c.4.3 1 .7 1.6.7.9 0 1.5-.8 2-1.5.6-.9 1.1-1.8.7-2.6-.4-.7-1.3-.7-1.7-.7z" id="path9509" fill="#fff"/></g><g id="g9517" transform="matrix(1.9716 0 0 1.9716 -.291 -276.423)"><path d="M299.5 251.3c-2.1 0-2.9-.1-3.8-.6-.7-.4-1.2-1.1-1.4-1.9-.3-1.3.2-2.9 1.3-4.5 1.6-2.4 6.5-12.4 6.6-13.3 0-.1-.2-.4-.3-.4h-.1c-.2 0-.8.2-1.7 2.1-1 1.9-3.1 5.5-5.4 8.9l-1.9 2.8-2.1.1h-.6c-2.4 0-3.1-1-3.9-3.2-.6-1.8-.8-2.5-.4-3 .3-.4.8-.4 1.3-.4.8 0 1.5.3 2.5 1.1.9.8 1.3.9 2 .9 1.2 0 2.1-.6 2.5-1.7.4-1.2.1-2.9-1.4-4-1-.7-1.6-1.7-1.7-2.6 0-.4 0-.8.3-1.1.3-.4.7-.6 1.2-.6.6 0 1.2.3 2 .9.7.6 1 .8 2.1.8s1.3-.1 1.8-.6c1.1-1.1.5-2.8-1.6-5-1.5-1.6-2.3-3.5-2.1-4.6.1-.5.4-.9.9-1.1h.3c.5 0 1.6.3 2.4.7 1 .4 1.5.5 1.9.5.5 0 .8-.3 1.3-1.9.9-2.7 1.6-3.5 4.2-3.5 1.6 0 2.3.2 3.2.7 1 .6 1.2 1.1 1.3 2.3.1 1.2-.2 1.8-1.1 3.2-.4.7-1.8 2.7-1.8 3.3 0 .1 0 .3.4.5.3.2.8.3 1.3.3.8 0 1.7-.2 2.4-.7.9-.5 1.5-.7 2-.7.4 0 .8.2 1.1.5.7.7.6 2.6 0 3.6-.9 1.7-1.7 2-4.5 2.1-4.3.2-5.3 1.5-5.6 3.5-.1.9 0 1.1.3 1.4.2.3.3.3.9.3.4 0 .9 0 1.7-.1.8-.1 1.3-.1 1.7-.1.9 0 1.3.2 1.8.6.7.7 1 2.4.5 3.5-.4.9-1.7 1.6-3.5 1.6h-.8c-.9-.1-2.9-.3-4.2-.3-.7 0-1.2-.1-1.6-.1-.9 0-1.1.1-1.4.4-.3.3-.8.9-.9 1.4-.4 1.5-.4 2.6.1 3.3.4.6 1.3 1 2.6 1.2 1.6.2 2.5.5 2.8 1.2.1.3.2.7-.1 1.2-.6.9-1.9 1.1-4.8 1.1z" id="path9513"/><path class="st0" d="M305.7 216.4c1.5 0 2.1.1 2.9.7.8.6 1 .8 1.1 1.9.1 1.1-.1 1.5-1 2.8-1.3 2-1.8 3-1.8 3.6 0 .9.9 1.3 2.1 1.3.8 0 1.8-.2 2.7-.7.8-.5 1.4-.7 1.8-.7.3 0 .6.1.8.3.5.5.4 2.1-.1 3-.8 1.5-1.3 1.7-4.1 1.8-4 .2-5.7 1.3-6.1 3.9-.1.9 0 1.3.4 1.8.3.4.5.5 1.3.5.4 0 .9 0 1.7-.1.8-.1 1.3-.1 1.7-.1.8 0 1 .1 1.4.5.6.6.8 2 .4 3-.3.7-1.5 1.2-3 1.2h-.8c-.9-.1-2.8-.3-4.2-.3-.7 0-1.2-.1-1.6-.1-1 0-1.3.1-1.8.5-.4.3-.9 1.1-1.1 1.7-.9 3.2.1 4.7 3.1 5.1 2.1.2 2.8.8 2.3 1.7-.5.9-1.5 1.1-4.4 1.1-2.1 0-2.8-.1-3.6-.6-1.7-1-1.6-3.2.1-5.8 1.6-2.4 6.8-12.9 6.7-13.6 0-.3-.3-.7-.6-.9-.1-.1-.2-.1-.4-.1-.6 0-1.3.8-2.1 2.4-.9 1.8-3 5.3-5.3 8.8l-1.8 2.6-1.9.1h-.5c-2 0-2.6-.6-3.4-2.9-.8-2.5-.8-2.8.4-2.8.7 0 1.3.3 2.2 1 .9.8 1.4 1 2.4 1 3.4 0 4.2-4.4 1.3-6.7-1.3-1-1.9-2.3-1.4-2.9.2-.3.5-.4.8-.4.5 0 1 .3 1.6.8.8.7 1.2.9 2.4.9s1.5-.1 2.1-.8c1.3-1.4.7-3.3-1.6-5.7-1.9-2.1-2.6-4.4-1.3-4.9h.1c.4 0 1.3.3 2.2.6.9.4 1.6.6 2.1.6.9 0 1.3-.6 1.8-2.2 1.1-2.5 1.6-2.9 4-2.9m0-1c-2.9 0-3.7.9-4.7 3.8-.5 1.5-.7 1.5-.8 1.5-.4 0-1.1-.3-1.7-.5-.3-.1-1.8-.7-2.6-.7-.2 0-.3 0-.5.1-.6.2-1.1.8-1.2 1.4-.3 1.4.6 3.4 2.2 5.1 1.9 2 2.4 3.4 1.6 4.4-.3.4-.4.4-1.4.4-1 0-1.2-.1-1.8-.6-.8-.7-1.6-1.1-2.3-1.1-.6 0-1.2.3-1.6.8-.3.4-.5.9-.4 1.5.1 1 .9 2.1 1.9 2.9 1.3 1 1.6 2.5 1.3 3.5-.2.5-.6 1.4-1.9 1.4-.6 0-.9-.1-1.8-.8-1-.9-1.9-1.2-2.8-1.2-.4 0-1.2 0-1.7.6-.5.7-.2 1.7.4 3.5.8 2.4 1.7 3.6 4.3 3.6h.6l1.9-.1h.5l.3-.4 1.8-2.6c2.3-3.4 4.4-7 5.4-8.9.5-1 .9-1.5 1.1-1.7-.7 1.9-5 10.7-6.4 12.8-1.2 1.8-1.7 3.5-1.4 4.9.2.9.8 1.7 1.6 2.2 1 .6 1.9.7 4.1.7 3 0 4.5-.2 5.3-1.6.4-.8.2-1.4.1-1.7-.4-.8-1.4-1.2-3.2-1.4-1.1-.1-1.9-.4-2.2-.9-.4-.6-.4-1.5 0-2.9.1-.4.5-1 .7-1.1.3-.3.4-.3 1.1-.3.3 0 .8 0 1.6.1 1.5.1 3.3.2 4.2.3.3 0 .6.1.9.1 1.6 0 3.4-.5 3.9-1.9.5-1.2.3-3.1-.6-4.1-.6-.6-1.1-.8-2.1-.8-.4 0-1 0-1.8.1-.7.1-1.3.1-1.6.1h-.4l-.1-.1c-.2-.2-.2-.3-.1-1 .2-1.7 1.2-2.9 5.1-3 2.9-.1 3.9-.5 4.9-2.4.6-1.1.8-3.3-.1-4.2-.4-.4-.9-.6-1.5-.6s-1.3.2-2.3.8c-.7.4-1.5.6-2.2.6-.8 0-1.1-.2-1.1-.3 0-.2.2-.8 1.7-3 .9-1.4 1.2-2.1 1.1-3.5-.1-1.4-.4-2-1.5-2.7-1.4-1-2.3-1.1-3.8-1.1z" id="path9515" fill="#fff"/></g><g id="g9523" transform="matrix(1.9716 0 0 1.9716 -.291 -276.423)"><path d="M310 234.6c-.1 0-2.6 0-3.2-.4-.2-.1-.5-.3-.5-.7 0-.4.3-.6.6-.9.7-.5 1.6-.8 3-.8h1.5c1.3.1 2.2.2 2.4.8.2.6-.3 1.1-.5 1.2-.5.8-1.2.8-3.3.8z" id="path9519"/><path class="st0" d="M310.2 232.5h1.1c1.9.1 2.4.4 1.6 1.2-.4.4-1 .4-2.8.4h-.1c-1.4 0-2.7-.1-2.9-.3-.4-.2-.3-.3.2-.7.6-.4 1.4-.7 2.7-.7 0 .1.1.1.2.1m0-1h-.3c-1.5 0-2.5.3-3.3.9-.3.3-.8.6-.8 1.3 0 .6.5.9.7 1.1.6.4 2.6.4 3.5.4h.1c1.9 0 2.9-.1 3.5-.7.6-.6.8-1.2.6-1.8-.4-.9-1.6-1.1-2.8-1.1-.4-.1-.8-.1-1.2-.1z" id="path9521" fill="#fff"/></g><g id="g9529" transform="matrix(1.9716 0 0 1.9716 -.291 -276.423)"><path d="M220 170.6c-.7 0-1.3-.2-1.7-.7-.9-.9-1.2-3.5-.5-4.6.5-.8 1.1-.9 2-.9 1.1 0 1.5.2 2.1 1.2.8 1.3.7 3.3-.2 4.3-.4.5-1 .7-1.7.7z" id="path9525"/><path class="st0" d="M219.8 165c1 0 1.2.1 1.7.9.7 1.1.6 2.8-.2 3.7-.3.4-.8.5-1.3.5s-1-.2-1.3-.5c-.8-.8-1-3.1-.5-4 .4-.5.8-.6 1.6-.6m0-1c-1 0-1.8.2-2.4 1.1-.8 1.3-.5 4.1.6 5.2.5.5 1.2.8 2 .8s1.6-.3 2.1-.9c1.1-1.2 1.2-3.4.3-4.9-.7-1-1.2-1.3-2.6-1.3z" id="path9527" fill="#fff"/></g><g id="g9535" transform="matrix(1.9716 0 0 1.9716 -.291 -276.423)"><path d="M232.1 164.1c-.8 0-1.5-.3-1.8-.9-.6-1.1-.4-2.1.7-3.3.6-.6 1.2-1 1.8-1.1h.3c.7 0 1.2.3 1.6 1 .5.9.3 2.2-.5 3.4-.5.6-1.4.9-2.1.9z" id="path9531"/><path class="st0" d="M233.1 159.2c1.2 0 1.9 1.7.7 3.6-.3.5-1 .7-1.7.7-.6 0-1.1-.2-1.3-.6-.5-.9-.3-1.7.6-2.8.5-.6 1-.9 1.5-1 0 .2.1.1.2.1m0-1h-.4c-.7.1-1.4.6-2.1 1.3-.8.9-1.6 2.2-.7 3.9.4.7 1.2 1.1 2.2 1.1.8 0 1.9-.3 2.5-1.2.9-1.4 1.1-2.8.5-3.9-.4-.7-1.2-1.2-2-1.2z" id="path9533" fill="#fff"/></g><g id="g9541" transform="matrix(1.9716 0 0 1.9716 -.291 -276.423)"><path d="M199.9 199c-.6 0-1.2-.4-2-1.1-1-.9-1.3-1.4-1.3-2.5s.1-1.6 1.3-1.6c1.3 0 1.7.6 2.6 2.4.5 1 .9 1.7.3 2.3-.2.4-.5.5-.9.5z" id="path9537"/><path class="st0" d="M198 194.2c.9 0 1.2.3 2.2 2.2.6 1.1.7 1.5.4 1.8-.2.2-.4.4-.6.4-.4 0-.9-.3-1.6-1-1-.9-1.1-1.2-1.1-2.2-.1-1.1-.1-1.2.7-1.2m0-1c-1.7 0-1.8 1-1.8 2.1 0 1.3.4 1.9 1.5 2.9.9.8 1.6 1.3 2.3 1.3.5 0 1-.2 1.4-.7.8-.9.2-2-.3-2.9-1.1-1.9-1.5-2.7-3.1-2.7z" id="path9539" fill="#fff"/></g><g id="g9547" transform="matrix(1.9716 0 0 1.9716 -.291 -276.423)"><path d="M209.9 253.2c-.4 0-.7 0-.9-.1-.7-.2-.9-.7-.9-1.1.1-.8 1-1.5 2-1.6 1.3-.1 2.7-.8 2.9-1.3.2-.4.2-1 0-1.6-.3-1.1-1.1-2.1-1.9-2.5-.6-.3-1.8-.5-4-.5-3-.1-4.1-.4-4.7-1-.3-.3-.4-.8-.3-1.3.1-.9.7-1.3 2.4-2.2 2.2-1.1 2.5-1.9 2.3-3-.4-1.9-1.3-2.6-6.9-3.3-1.2-.2-1.7-.4-2.3-1.3-.4-.6-.6-1.6-.6-2.4v-1.7l2.8.2h1.2c2.2 0 2.9-.6 3.2-1.2.5-.9.4-1.8-1.3-3.4-1.3-1.3-1.5-1.7-1.5-3 0-1.2.2-1.7.8-2.4.8-.8 1.3-.9 3.1-.9 1.9 0 2.3.1 3 .9.8 1 .7 1.9.2 3.7-.2.8-.1 1.7.4 2.3.4.5 1 .8 1.6.8 1.1 0 3-.5 3.4-.9.1-.1.5-.6.8-1.3.4-.8.6-1.2 1.1-1.2.4 0 .6.3.7.5 1.1 1.5.4 2.8-1.3 4.6-1.9 2-2 2.5-1.8 4.5.1 1 .3 1.7.8 2.3.6.8 1.2 1.2 1.7 1.2.6 0 1.2-.5 2-1.5.7-1 1.3-1.5 1.7-1.5.1 0 .4 0 1.2.8.5.5 1.1 1.2 1.1 1.7 0 .1 0 .2-.7 3.1-.5 1.9-.7 3.4-.2 4 .3.4.9.6 2.2.7 1.8.2 2.2.4 2.2.9 0 .8-1.5 1.3-2.3 1.3-.3 0-1.2.3-2 .6l-1.8.8-1.2-1.2c-1.3-1.2-3.3-4.4-5.7-8.8-1.1-2.1-2-3.5-2.1-3.7-.1-.1-.4-.2-.7-.2-.2 0-.3 0-.3.1-.2.6.9 3.8 4.8 10.2 2.7 4.4 3.3 5.6 3.3 6.5 0 1.3-1.3 3-2.7 3.6-1.3.5-3.5.8-4.8.8z" id="path9543"/><path class="st0" d="M205.2 218.1c1.8 0 2 .1 2.6.8.6.7.6 1.4.1 3.3s.7 3.7 2.5 3.7c1.1 0 3.2-.5 3.8-1 .2-.2.6-.8 1-1.4.3-.6.5-.9.6-.9.1 0 .2.1.3.3.8 1.1.5 2.1-1.3 4-1.9 2-2.1 2.6-1.9 4.9.1 1.1.3 1.8.9 2.6.7 1 1.4 1.4 2.1 1.4.8 0 1.5-.6 2.4-1.7.5-.7 1.1-1.3 1.3-1.3.4 0 1.8 1.6 1.8 2 0 .1-.3 1.5-.7 3-1 4.2-.6 5 2.4 5.3 1 .1 1.7.2 1.7.4 0 .4-1 .8-1.8.8-.4 0-1.4.3-2.2.6l-1.5.6-1-1c-1.3-1.2-3.3-4.4-5.6-8.7-1-1.9-2-3.6-2.2-3.8-.2-.2-.7-.4-1.1-.4-.4 0-.7.1-.8.3-.4 1.1 1.5 5.3 4.8 10.7 2.6 4.3 3.3 5.4 3.3 6.3 0 1.1-1.2 2.6-2.4 3.1-1 .4-3.1.8-4.3.8-.3 0-.6 0-.8-.1-1.1-.3-.3-1.6 1-1.7 1.4-.1 3-.8 3.3-1.6.7-1.3-.5-3.9-2.1-4.8-.6-.3-1.9-.5-4.2-.6-3.8-.1-4.7-.5-4.5-1.8.1-.6.5-.9 2.1-1.8 2.2-1.1 2.8-2 2.5-3.6-.4-2.3-1.8-3-7.3-3.8-1.1-.2-1.5-.3-1.9-1.1-.3-.5-.6-1.4-.6-2.1v-1.2l2.3.2h1.2c2 0 3.1-.4 3.6-1.5.7-1.3.3-2.5-1.4-4-1.3-1.2-1.4-1.5-1.4-2.7 0-1 .1-1.5.7-2 .6-.4.9-.5 2.7-.5m0-1c-1.8 0-2.5.1-3.4 1-.8.8-1 1.6-1 2.7 0 1.5.3 2 1.7 3.4 1.6 1.6 1.5 2.3 1.2 2.9-.2.5-.7.9-2.7.9h-1.1l-2.2-.2-1.1-.1v2.3c0 .9.3 1.9.7 2.6.7 1.1 1.4 1.4 2.7 1.6 5.6.7 6.2 1.4 6.5 2.9.2.8.1 1.4-2 2.5-1.6.8-2.5 1.3-2.6 2.6-.1.7.1 1.2.4 1.7.8.9 2.2 1.1 5 1.2.8 0 3.1.1 3.8.5.7.4 1.3 1.2 1.6 2.2.2.6.1 1.1.1 1.2-.2.3-1.3.9-2.5 1-1.3.1-2.4 1-2.5 2-.1.8.4 1.4 1.3 1.7.3.1.6.1 1.1.1 1.3 0 3.6-.3 4.7-.8 1.6-.7 3-2.6 3-4 0-1.1-.6-2.2-3.4-6.8-3.2-5.1-4.5-8.3-4.7-9.4.1 0 .1 0 .2.1.2.3 1 1.7 2.1 3.6 1.7 3.2 4.1 7.3 5.8 9l1 1 .5.5.6-.3 1.5-.6c.8-.3 1.6-.5 1.8-.5 1 0 2.8-.6 2.8-1.8 0-1-1.1-1.2-2.6-1.4-1.1-.1-1.7-.3-1.8-.5-.4-.6.1-2.7.3-3.6.7-3 .7-3.1.7-3.2 0-.2 0-.8-1.3-2-.8-.8-1.2-.9-1.6-.9-.3 0-.9 0-2.1 1.7-.6.8-1.2 1.3-1.6 1.3-.4 0-.8-.4-1.3-1-.4-.6-.6-1.1-.7-2.1-.2-1.9-.1-2.2 1.7-4.1 1.5-1.6 2.8-3.3 1.4-5.3-.2-.3-.5-.7-1.2-.7-.8 0-1.1.6-1.5 1.5-.3.6-.6 1-.7 1.1-.3.2-2.1.7-3.1.7-.5 0-.9-.2-1.2-.6-.4-.5-.5-1.2-.3-1.8.5-2 .6-3-.3-4.2-1.2-1.6-1.9-1.6-3.7-1.6z" id="path9545" fill="#fff"/></g><g id="g9553" transform="matrix(1.9716 0 0 1.9716 -.291 -276.423)"><path d="M201.1 239.5c-.9 0-1.2-.3-1.6-.9-.3-.5-.5-1.2-.5-1.7.1-.7.5-1 1.1-1 .5 0 1.3.2 2.6.6 1.1.3 1.8.8 2 1.4.1.3.2.7 0 1-.3.4-1 .5-2.4.6h-1.2z" id="path9549"/><path class="st0" d="M200.2 236.4c.4 0 1.2.2 2.4.5 1 .3 1.5.7 1.7 1 .2.8.1.8-2 1-.5 0-.9.1-1.1.1-.7 0-.9-.2-1.2-.7-.3-.4-.4-1-.4-1.4 0-.3.1-.5.6-.5-.1 0-.1 0 0 0m0-1c-.5 0-1.5.2-1.6 1.5-.1.6.1 1.5.5 2.1.5.7.9 1.1 2 1.1.3 0 .7 0 1.2-.1 1.6-.1 2.3-.2 2.8-.8.4-.6.2-1.1.1-1.5-.2-.7-1-1.3-2.3-1.7-1.4-.4-2.2-.6-2.7-.6z" id="path9551" fill="#fff"/></g><g id="g9559" transform="matrix(1.9716 0 0 1.9716 -.291 -276.423)"><path d="M206.8 249.3c-.6 0-1-.1-1.2-.3-.3-.3-.3-1-.3-1.3 0-.7.2-1.1 1.2-1.1H207.6c1.5.1 2.2.2 2.4.8.2.5-.4 1-.6 1.2-.7.5-1.8.7-2.6.7z" id="path9555"/><path class="st0" d="M206.4 247.1s.1 0 0 0c.3 0 .6 0 1.1.1 2.1.1 2.4.4 1.5 1.1-.4.3-1.4.6-2.2.6-.4 0-.7-.1-.8-.2-.1-.1-.2-.5-.2-.9 0-.6 0-.7.6-.7m0-1c-1.7 0-1.7 1.2-1.7 1.6 0 .4.1 1.2.5 1.6.3.3.8.5 1.6.5.9 0 2.1-.3 2.8-.8.3-.2 1.1-.9.8-1.7-.3-1-1.5-1.1-2.8-1.1h-1z" id="path9557" fill="#fff"/></g><g id="g9565" transform="matrix(1.9716 0 0 1.9716 -.291 -276.423)"><path d="M220.3 261.9c-.2 0-.3 0-3.2-2.2-1.5-1.1-3.2-2.5-3.7-3.1l-1.5-1.6 2.8-.3c.3 0 .5-.1.7-.1 1 0 1.7.4 3.7 1.4 1.7.9 2.8 1.4 3 1.4.8 0 .9.5.9.6-.1.1-2 3.9-2.7 3.9z" id="path9561"/><path class="st0" d="M215.3 255.2c.8 0 1.4.3 3.4 1.3 1.5.8 3 1.5 3.2 1.5.2 0 .4 0 .4.1 0 .2-2 3.3-2.2 3.3-.1 0-1.4-1-2.9-2.1-1.5-1.2-3.2-2.5-3.6-3l-.8-.8 1.5-.2c.5-.1.7-.1 1-.1m0-1v1-1c-.3 0-.5 0-.8.1h-.3l-1.5.2-2 .2 1.4 1.4.8.8c.5.5 2.2 1.9 3.7 3.1 3.1 2.3 3.2 2.3 3.5 2.3.6 0 .8-.3 2-2 1.2-1.8 1.2-2 1.2-2.3 0-.1 0-1.1-1.3-1.1-.3-.1-1.4-.6-2.9-1.4-1.9-.9-2.7-1.3-3.8-1.3z" id="path9563" fill="#fff"/></g><g id="g9571" transform="matrix(1.9716 0 0 1.9716 -.291 -276.423)"><path d="M215.8 232.6c-.2 0-.7-.1-.9-.8-.2-.6.1-1.4.4-1.9.5-.8 1.3-1.8 2.1-2h.2c.2 0 .4.1.5.1.5.3.6 1.1.5 1.6-.1.4-.3.6-.6.6-.1.1-.3.4-.6.9-.5 1-1 1.5-1.6 1.5z" id="path9567"/><path class="st0" d="M217.5 228.5c.1 0 .2 0 .3.1.4.2.4 1.3 0 1.3-.2 0-.6.5-.9 1.1-.4.7-.8 1.2-1.1 1.2-.2 0-.4-.1-.5-.4-.3-.9 1.2-3 2.1-3.2l.1-.1m0-1h-.3c-1.1.2-2.1 1.5-2.5 2.2-.4.6-.7 1.5-.4 2.3.3.7.8 1.1 1.4 1.1.5 0 1.3-.3 2-1.7.2-.3.3-.5.4-.7.4-.1.7-.5.8-.9.2-.6.1-1.7-.7-2.2-.1 0-.4-.1-.7-.1z" id="path9569" fill="#fff"/></g><g id="g9577" transform="matrix(1.9716 0 0 1.9716 -.291 -276.423)"><path d="M196.9 208.8c-.6 0-1.4-.3-1.8-.9-.6-.6-.8-1.3-.5-1.8.2-.4.6-.7 1.1-.7.9 0 2.3 1.5 2.3 2.4 0 .3-.1.5-.4.7-.2.2-.4.3-.7.3z" id="path9573"/><path class="st0" d="M195.7 206c.6 0 1.8 1.3 1.8 1.9 0 .3-.2.4-.5.4-.4 0-1.1-.3-1.5-.7-.8-.8-.7-1.6.2-1.6m0-1c-.7 0-1.3.4-1.6 1-.3.7-.1 1.6.6 2.3.6.6 1.4 1 2.2 1 1 0 1.5-.7 1.5-1.4 0-1.1-1.5-2.9-2.7-2.9z" id="path9575" fill="#fff"/></g><g id="g9583" transform="matrix(1.9716 0 0 1.9716 -.291 -276.423)"><path d="M224 240.3c-.3 0-.7-.2-1-.4-.5-.5-.6-1.2-.5-1.7.1-.5.4-.8.7-1 .1-.1.3-.1.4-.1.4 0 .8.2 1 .5.4.4.5 1 .4 1.6 0 .7-.4 1.1-1 1.1z" id="path9579"/><path class="st0" d="M223.6 237.6c.1 0 .1 0 0 0 .6 0 1.1.8 1 1.5-.1.4-.3.7-.7.7-.2 0-.4-.1-.6-.3-.5-.5-.5-1.7.1-1.9.1.1.2 0 .2 0m0-1c-.1 0-.4 0-.6.1-.5.2-.9.7-1 1.3-.2.8.1 1.7.6 2.2.4.4.8.6 1.3.6.9 0 1.5-.6 1.7-1.5.1-.7-.1-1.4-.6-1.9-.4-.4-.8-.7-1.3-.7z" id="path9581" fill="#fff"/></g><g id="g9589" transform="matrix(1.9716 0 0 1.9716 -.291 -276.423)"><path d="M199.8 216.6c-.7 0-1.8-.3-2.5-.7-3.2-1.7-3.3-3.4-2.9-4.5.3-.8 1.1-1 2.2-1.1 1.3-.2 2.3-.8 2.7-1.8.4-.8.3-1.8-.3-2.7-.3-.5-.9-.9-1.6-1.2-1.2-.5-1.6-.9-2-2-.2-.6-.5-1.6-.5-2.1 0-1.3.6-1.3 2.2-1.3 1 0 2.5.3 3.5.6.7.2 1.2.4 1.4.4.1 0 .1 0 .3-.2 1.1-1 1.2-2.2-1.2-5.4-2-2.7-2.6-4.1-2.3-5.4.3-1.5.9-2 2.4-2 .9 0 1.6.3 2.6 1.1 1.1.8 1.7 1.1 2.2 1.1.2 0 .4-.1.7-.2.5-.2 1.2-.7 1.5-2.5.4-2 .7-3.3 1.9-3.3 2 0 6.7 3.5 6.7 5.3 0 .6-.6 1.4-1 1.8-.6.6-.7.9-.7 1.7 0 .6.1 1.3.3 1.5.1.2.1.2.5.2.3 0 .8 0 1.5-.1.5-.1 1-.1 1.3-.1 1 0 1.8.2 1.9 1.5 0 .3-.1.6-.4.8-.7.7-2.2 1.4-3.3 1.4-1.2 0-4 1.4-4.3 2-.4.7-.4 1.5-.1 2.3.3.7.8 1.2 1.5 1.4.7.2 1.5.6 1.9 1 .6.7.6 1.1 0 1.9-.3.5-1.3 1.2-2.1 1.6-2.1 1.1-3.2 2.3-3.2 2.7 0 .1.3.7.7 1.3.7.8 1.6 2.1 1 3.6-.4.9-.9 1-2.1 1-.8 0-2-.3-2.7-.6-1.3-.7-1.4-.9-1.4-2.5 0-2.2.8-6.7 1.6-9.4 1.1-3.7 1.3-4.7 1-5.7-.1-.2-.2-.7-.4-.7-.6 0-.9.7-3.7 10.4-2.1 7.5-2.7 8.9-4.8 8.9z" id="path9585"/><path class="st0" d="M210.2 183.9c1.8 0 6.2 3.4 6.2 4.8 0 .3-.4 1-.9 1.5-.7.7-.8 1.1-.8 2 0 .6.1 1.4.3 1.8.2.3.3.5.9.5.3 0 .8 0 1.5-.1.5 0 .9-.1 1.3-.1 1.1 0 1.4.3 1.4 1 0 .6-2.1 1.8-3.2 1.8-1.3 0-4.3 1.5-4.8 2.3-.9 1.6 0 3.9 1.7 4.4.6.2 1.4.6 1.6.8.4.5.4.6 0 1.3-.3.4-1.1 1-1.9 1.4-1.9 1-3.4 2.4-3.4 3.2 0 .3.4 1.1.9 1.6 1 1.2 1.3 2.1.9 3-.3.6-.5.7-1.6.7-.7 0-1.8-.2-2.4-.6-1.1-.6-1.1-.6-1.1-2.1 0-2.1.7-6.5 1.6-9.3 1.1-3.7 1.3-4.8 1-6-.2-.7-.4-1.1-.8-1.1-1 0-1.1.2-4.2 10.8-2.2 7.5-2.7 8.5-4.4 8.5-.6 0-1.6-.3-2.2-.6-2.3-1.2-3.2-2.5-2.7-3.9.2-.5.6-.6 1.8-.8 2.9-.4 4.3-2.9 2.8-5.2-.4-.6-1-1.1-1.8-1.4-1.1-.4-1.4-.7-1.8-1.7-.3-.7-.5-1.5-.5-2 0-.8.1-.8 1.7-.8.9 0 2.4.3 3.4.6.8.3 1.2.4 1.5.4.3 0 .4-.1.7-.3 1.5-1.3 1.2-3-1.2-6.1-1.9-2.6-2.5-3.8-2.3-5 .3-1.3.7-1.6 1.9-1.6.8 0 1.4.3 2.3 1 1.1.9 1.8 1.2 2.5 1.2.3 0 .6-.1.9-.2.9-.4 1.5-1.3 1.8-2.8.4-2.2.7-2.9 1.4-2.9m0-1c-1.7 0-2 1.9-2.4 3.7-.3 1.6-.8 2-1.2 2.1-.2.1-.4.1-.5.1-.4 0-1-.3-1.9-1-1.1-.8-1.9-1.2-3-1.2-1.7 0-2.5.7-2.9 2.4-.3 1.7.6 3.3 2.4 5.8 2.6 3.5 1.9 4.2 1.3 4.8l-.1.1c-.2 0-.8-.2-1.2-.3-1-.3-2.7-.6-3.7-.6-1.5 0-2.7 0-2.7 1.8 0 .6.3 1.6.5 2.3.5 1.3 1 1.8 2.3 2.3.6.2 1.1.6 1.3 1 .5.8.5 1.6.2 2.2-.4.8-1.2 1.3-2.4 1.5-1.2.2-2.2.4-2.6 1.4-.4 1.1-.5 3.2 3.2 5.1.7.4 1.9.7 2.7.7 2.6 0 3.2-1.8 5.4-9.2 1.6-5.5 2.5-8.8 3-9.8v.1c.2.9.1 1.7-1 5.4-.8 2.8-1.6 7.3-1.6 9.5 0 1.7.2 2.2 1.7 3 .8.4 2 .7 2.9.7 1.1 0 2-.1 2.5-1.3.8-1.7-.2-3.2-1-4.1-.3-.4-.5-.7-.6-.9.2-.4 1.1-1.4 2.9-2.3.8-.4 1.9-1.2 2.3-1.8.6-.9.7-1.5-.1-2.5-.5-.5-1.5-1-2.1-1.1-.5-.1-.9-.6-1.1-1.1-.3-.6-.2-1.3 0-1.8.3-.5 2.9-1.8 3.9-1.8 1.2 0 2.9-.8 3.7-1.6.4-.4.6-.8.6-1.2 0-2-1.8-2-2.4-2-.4 0-.8 0-1.4.1-.7.1-1.1.1-1.4.1h-.1c-.1-.2-.2-.7-.2-1.2 0-.6.1-.8.6-1.3.1-.1 1.2-1.2 1.2-2.2.2-2.1-4.8-5.9-7-5.9z" id="path9587" fill="#fff"/></g><g id="g9595" transform="matrix(1.9716 0 0 1.9716 -.291 -276.423)"><path d="M216 202.8c-.4 0-.9-.3-1.2-.6-.5-.5-.7-1.1-.5-1.7.1-.4.4-.7.8-.9.3-.1.9-.3 1.3-.5s.8-.3 1.1-.3c.6 0 1 .2 1.2.5.2.3.4.9 0 1.8-.3.8-1.9 1.7-2.7 1.7z" id="path9591"/><path class="st0" d="M217.6 199.3c.8 0 1.1.6.7 1.7-.2.5-1.6 1.3-2.3 1.3-.2 0-.6-.2-.9-.5-.6-.6-.6-1.5.1-1.7.3-.1.9-.3 1.4-.5.3-.1.6-.3 1-.3-.1 0 0 0 0 0m0-1h-.1c-.4 0-.8.1-1.3.4-.4.2-1 .4-1.3.5-.6.2-1 .6-1.1 1.2-.2.7.1 1.6.7 2.2.4.4 1 .8 1.6.8 1 0 2.8-1 3.2-2 .4-1.2.2-1.9-.1-2.3-.4-.5-1-.8-1.6-.8z" id="path9593" fill="#fff"/></g><g id="g9601" transform="matrix(1.9716 0 0 1.9716 -.291 -276.423)"><path d="M211.2 222.3c-.4 0-.8-.2-.8-.9 0-.8.5-1.7 2.4-4 1-1.3 1.6-1.8 2.1-2 .1 0 .2-.1.3-.1.9 0 .9 1.1.9 1.5 0 1.4-.8 2.7-2.7 4.3-1.3 1.1-1.9 1.2-2.2 1.2z" id="path9597"/><path class="st0" d="M215.2 215.8c.3 0 .4.3.4 1 0 1.3-.7 2.4-2.5 3.9-.8.7-1.4 1.1-1.8 1.1-.2 0-.3-.1-.3-.4 0-.7.5-1.5 2.3-3.7.9-1.1 1.5-1.7 1.8-1.8 0-.1 0-.1.1-.1m0-1c-.2 0-.3 0-.5.1-.6.2-1.2.8-2.3 2.2-1.8 2.3-2.5 3.2-2.5 4.3 0 1 .7 1.4 1.3 1.4.6 0 1.3-.4 2.4-1.3 2-1.7 2.9-3.1 2.9-4.7s-.7-2-1.3-2z" id="path9599" fill="#fff"/></g><g id="g9607" transform="matrix(1.9716 0 0 1.9716 -.291 -276.423)"><path d="M198.9 226.3c-1.1 0-1.8-.2-2.4-.7-1.3-1-1.9-2.9-1.8-5.9 0-1.4.1-3 1.2-3 .5 0 1 .3 1.7 1 1.1 1 1.2 1.3 1.4 3.5.2 1.8.3 2.2.8 2.7.6.6 1 1.2.8 1.7-.1.7-.9.7-1.7.7z" id="path9603"/><path class="st0" d="M195.9 217.2c.3 0 .8.3 1.4.9 1 .9 1 1.1 1.3 3.2.2 1.8.3 2.4 1 3 1.1 1.2 1 1.5-.6 1.5-1 0-1.6-.2-2.1-.6-1.2-.9-1.7-2.7-1.6-5.5 0-1.7.1-2.5.6-2.5m0-1c-1.6 0-1.7 2-1.7 3.5-.1 3.1.5 5.1 2 6.3.7.5 1.5.8 2.7.8.7 0 1.9 0 2.3-.9.4-.9-.4-1.7-.9-2.3-.4-.4-.5-.6-.7-2.4-.2-2.2-.4-2.7-1.6-3.8-.8-.7-1.4-1.1-2.1-1.2z" id="path9605" fill="#fff"/></g><g id="g9613" transform="matrix(1.9716 0 0 1.9716 -.291 -276.423)"><path d="M213.3 211.7c-.2 0-.5 0-.7-.3-.2-.3-.2-.6-.2-.9.1-1 .8-1.1 1.3-1.2h.5c.3 0 .5.1.7.3.2.3.2.7.1.9-.1.9-.8 1.1-1.3 1.2h-.4z" id="path9609"/><path class="st0" d="M214.3 209.8c.4 0 .4.2.3.6-.1.5-.3.7-.9.8h-.4c-.4 0-.4-.1-.3-.6.1-.5.3-.7.9-.8h.4m0-1h-.5c-1.3.1-1.7 1-1.8 1.6 0 .3-.1.8.3 1.3.2.3.6.4 1.1.4h.5c1-.1 1.6-.7 1.8-1.6 0-.3.1-.9-.3-1.3-.2-.2-.5-.4-1.1-.4z" id="path9611" fill="#fff"/></g><g transform="matrix(.9563 .9563 -.9563 .9563 444.372 24.22)" id="g5714"><g transform="translate(8.502)" id="g4763" fill="none" stroke="#000" stroke-width="15.875" stroke-linecap="butt" stroke-linejoin="miter" stroke-miterlimit="4" stroke-dasharray="none" stroke-opacity="1"><path d="M52.917-7.27v39.687h63.5v39.687" id="path4740"/><path d="M44.98 64.167h39.687V.667h39.687" id="path4740-5"/></g></g></g></g></svg>