<?xml version="1.0" encoding="utf-8" ?>
<svg baseProfile="full" height="100%" preserveAspectRatio="xMidYMid meet" version="1.1" viewBox="-40,-40,180,180" width="100%" xmlns="http://www.w3.org/2000/svg" xmlns:ev="http://www.w3.org/2001/xml-events" xmlns:xlink="http://www.w3.org/1999/xlink"><defs><style type="text/css"><![CDATA[
        @import url(https://cdn.jsdelivr.net/npm/firacode@6.2.0/distr/fira_code.css);
        text {
            font-family: 'STIX Two', 'STIX Two Math', 'STIXMath', 'DejaVu Math TeX Glyph',
                        'DejaVu Serif', 'Cambria Math', 'Latin Modern Math', 'FiraCode',
                        'serif';
        }
    ]]></style><style type="text/css"><![CDATA[
        @import url(https://cdn.jsdelivr.net/npm/firacode@6.2.0/distr/fira_code.css);
        text {
            font-family: 'STIX Two', 'STIX Two Math', 'STIXMath', 'DejaVu Math TeX Glyph',
                        'DejaVu Serif', 'Cambria Math', 'Latin Modern Math', 'FiraCode',
                        'serif';
        }
    ]]></style></defs><g><rect fill="black" height="7.3" stroke="none" stroke-width="0" width="7.3" x="1.4" y="1.4" /><rect fill="white" height="4.7" stroke="black" stroke-width="0.5" width="4.7" x="12.7" y="2.7" /><rect fill="white" height="5.4" stroke="black" stroke-width="0.5" width="5.4" x="22.3" y="2.3" /><rect fill="white" height="7.2" stroke="black" stroke-width="0.5" width="7.2" x="31.4" y="1.4" /><rect fill="white" height="3.5" stroke="black" stroke-width="0.5" width="3.5" x="43.2" y="3.2" /><rect fill="white" height="4.8" stroke="black" stroke-width="0.5" width="4.8" x="52.6" y="2.6" /><rect fill="white" height="3.5" stroke="black" stroke-width="0.5" width="3.5" x="63.2" y="3.2" /><rect fill="white" height="6.6" stroke="black" stroke-width="0.5" width="6.6" x="71.7" y="1.7" /><rect fill="white" height="8.0" stroke="black" stroke-width="0.5" width="8.0" x="81.0" y="1.0" /><rect fill="black" height="2.6" stroke="none" stroke-width="0" width="2.6" x="93.7" y="3.7" /><rect fill="black" height="2.1" stroke="none" stroke-width="0" width="2.1" x="3.9" y="13.9" /><rect fill="white" height="8.2" stroke="black" stroke-width="0.5" width="8.2" x="10.9" y="10.9" /><rect fill="black" height="5.1" stroke="none" stroke-width="0" width="5.1" x="22.4" y="12.4" /><rect fill="white" height="8.2" stroke="black" stroke-width="0.5" width="8.2" x="30.9" y="10.9" /><rect fill="white" height="3.3" stroke="black" stroke-width="0.5" width="3.3" x="43.3" y="13.3" /><rect fill="black" height="6.4" stroke="none" stroke-width="0" width="6.4" x="51.8" y="11.8" /><rect fill="black" height="2.9" stroke="none" stroke-width="0" width="2.9" x="63.5" y="13.5" /><rect fill="white" height="5.9" stroke="black" stroke-width="0.5" width="5.9" x="72.1" y="12.1" /><rect fill="white" height="7.4" stroke="black" stroke-width="0.5" width="7.4" x="81.3" y="11.3" /><rect fill="black" height="4.7" stroke="none" stroke-width="0" width="4.7" x="92.7" y="12.7" /><rect fill="white" height="3.9" stroke="black" stroke-width="0.5" width="3.9" x="3.0" y="23.0" /><rect fill="black" height="5.3" stroke="none" stroke-width="0" width="5.3" x="12.4" y="22.4" /><rect fill="black" height="5.1" stroke="none" stroke-width="0" width="5.1" x="22.4" y="22.4" /><rect fill="black" height="9.5" stroke="none" stroke-width="0" width="9.5" x="30.2" y="20.2" /><rect fill="white" height="5.1" stroke="black" stroke-width="0.5" width="5.1" x="42.5" y="22.5" /><rect fill="white" height="2.1" stroke="black" stroke-width="0.5" width="2.1" x="53.9" y="23.9" /><rect fill="black" height="4.9" stroke="none" stroke-width="0" width="4.9" x="62.5" y="22.5" /><rect fill="black" height="2.7" stroke="none" stroke-width="0" width="2.7" x="73.7" y="23.7" /><rect fill="black" height="5.4" stroke="none" stroke-width="0" width="5.4" x="82.3" y="22.3" /><rect fill="white" height="8.0" stroke="black" stroke-width="0.5" width="8.0" x="91.0" y="21.0" /><rect fill="black" height="5.6" stroke="none" stroke-width="0" width="5.6" x="2.2" y="32.2" /><rect fill="white" height="3.3" stroke="black" stroke-width="0.5" width="3.3" x="13.4" y="33.4" /><rect fill="white" height="6.9" stroke="black" stroke-width="0.5" width="6.9" x="21.6" y="31.6" /><rect fill="white" height="4.7" stroke="black" stroke-width="0.5" width="4.7" x="32.7" y="32.7" /><rect fill="black" height="4.0" stroke="none" stroke-width="0" width="4.0" x="43.0" y="33.0" /><rect fill="black" height="2.4" stroke="none" stroke-width="0" width="2.4" x="53.8" y="33.8" /><rect fill="black" height="2.6" stroke="none" stroke-width="0" width="2.6" x="63.7" y="33.7" /><rect fill="white" height="3.3" stroke="black" stroke-width="0.5" width="3.3" x="73.4" y="33.4" /><rect fill="white" height="8.5" stroke="black" stroke-width="0.5" width="8.5" x="80.8" y="30.8" /><rect fill="white" height="2.1" stroke="black" stroke-width="0.5" width="2.1" x="93.9" y="33.9" /><rect fill="black" height="4.1" stroke="none" stroke-width="0" width="4.1" x="3.0" y="43.0" /><rect fill="black" height="5.6" stroke="none" stroke-width="0" width="5.6" x="12.2" y="42.2" /><rect fill="black" height="3.7" stroke="none" stroke-width="0" width="3.7" x="23.2" y="43.2" /><rect fill="white" height="2.1" stroke="black" stroke-width="0.5" width="2.1" x="33.9" y="43.9" /><rect fill="white" height="5.1" stroke="black" stroke-width="0.5" width="5.1" x="42.5" y="42.5" /><rect fill="white" height="6.6" stroke="black" stroke-width="0.5" width="6.6" x="51.7" y="41.7" /><rect fill="white" height="4.7" stroke="black" stroke-width="0.5" width="4.7" x="62.6" y="42.6" /><rect fill="black" height="6.9" stroke="none" stroke-width="0" width="6.9" x="71.5" y="41.5" /><rect fill="white" height="7.0" stroke="black" stroke-width="0.5" width="7.0" x="81.5" y="41.5" /><rect fill="white" height="6.5" stroke="black" stroke-width="0.5" width="6.5" x="91.8" y="41.8" /><rect fill="white" height="3.7" stroke="black" stroke-width="0.5" width="3.7" x="3.1" y="53.1" /><rect fill="white" height="3.6" stroke="black" stroke-width="0.5" width="3.6" x="13.2" y="53.2" /><rect fill="white" height="5.4" stroke="black" stroke-width="0.5" width="5.4" x="22.3" y="52.3" /><rect fill="black" height="3.6" stroke="none" stroke-width="0" width="3.6" x="33.2" y="53.2" /><rect fill="black" height="4.3" stroke="none" stroke-width="0" width="4.3" x="42.9" y="52.9" /><rect fill="black" height="5.2" stroke="none" stroke-width="0" width="5.2" x="52.4" y="52.4" /><rect fill="black" height="6.4" stroke="none" stroke-width="0" width="6.4" x="61.8" y="51.8" /><rect fill="white" height="3.0" stroke="black" stroke-width="0.5" width="3.0" x="73.5" y="53.5" /><rect fill="white" height="3.2" stroke="black" stroke-width="0.5" width="3.2" x="83.4" y="53.4" /><rect fill="black" height="6.2" stroke="none" stroke-width="0" width="6.2" x="91.9" y="51.9" /><rect fill="black" height="6.6" stroke="none" stroke-width="0" width="6.6" x="1.7" y="61.7" /><rect fill="black" height="7.2" stroke="none" stroke-width="0" width="7.2" x="11.4" y="61.4" /><rect fill="black" height="5.7" stroke="none" stroke-width="0" width="5.7" x="22.1" y="62.1" /><rect fill="white" height="2.1" stroke="black" stroke-width="0.5" width="2.1" x="33.9" y="63.9" /><rect fill="black" height="8.7" stroke="none" stroke-width="0" width="8.7" x="40.6" y="60.6" /><rect fill="black" height="3.8" stroke="none" stroke-width="0" width="3.8" x="53.1" y="63.1" /><rect fill="black" height="8.4" stroke="none" stroke-width="0" width="8.4" x="60.8" y="60.8" /><rect fill="black" height="5.1" stroke="none" stroke-width="0" width="5.1" x="72.4" y="62.4" /><rect fill="black" height="3.7" stroke="none" stroke-width="0" width="3.7" x="83.2" y="63.2" /><rect fill="white" height="4.5" stroke="black" stroke-width="0.5" width="4.5" x="92.7" y="62.7" /><rect fill="white" height="4.5" stroke="black" stroke-width="0.5" width="4.5" x="2.7" y="72.7" /><rect fill="black" height="9.2" stroke="none" stroke-width="0" width="9.2" x="10.4" y="70.4" /><rect fill="black" height="4.1" stroke="none" stroke-width="0" width="4.1" x="22.9" y="72.9" /><rect fill="white" height="2.1" stroke="black" stroke-width="0.5" width="2.1" x="33.9" y="73.9" /><rect fill="white" height="7.5" stroke="black" stroke-width="0.5" width="7.5" x="41.2" y="71.2" /><rect fill="black" height="5.7" stroke="none" stroke-width="0" width="5.7" x="52.1" y="72.1" /><rect fill="white" height="2.1" stroke="black" stroke-width="0.5" width="2.1" x="63.9" y="73.9" /><rect fill="white" height="5.8" stroke="black" stroke-width="0.5" width="5.8" x="72.1" y="72.1" /><rect fill="black" height="7.3" stroke="none" stroke-width="0" width="7.3" x="81.4" y="71.4" /><rect fill="black" height="5.4" stroke="none" stroke-width="0" width="5.4" x="92.3" y="72.3" /><rect fill="white" height="3.0" stroke="black" stroke-width="0.5" width="3.0" x="3.5" y="83.5" /><rect fill="white" height="3.2" stroke="black" stroke-width="0.5" width="3.2" x="13.4" y="83.4" /><rect fill="white" height="7.8" stroke="black" stroke-width="0.5" width="7.8" x="21.1" y="81.1" /><rect fill="white" height="2.8" stroke="black" stroke-width="0.5" width="2.8" x="33.6" y="83.6" /><rect fill="white" height="2.3" stroke="black" stroke-width="0.5" width="2.3" x="43.9" y="83.9" /><rect fill="white" height="2.1" stroke="black" stroke-width="0.5" width="2.1" x="53.9" y="83.9" /><rect fill="white" height="5.9" stroke="black" stroke-width="0.5" width="5.9" x="62.0" y="82.0" /><rect fill="black" height="2.1" stroke="none" stroke-width="0" width="2.1" x="73.9" y="83.9" /><rect fill="white" height="7.1" stroke="black" stroke-width="0.5" width="7.1" x="81.4" y="81.4" /><rect fill="white" height="7.1" stroke="black" stroke-width="0.5" width="7.1" x="91.5" y="81.5" /><rect fill="black" height="2.8" stroke="none" stroke-width="0" width="2.8" x="3.6" y="93.6" /><rect fill="white" height="6.7" stroke="black" stroke-width="0.5" width="6.7" x="11.6" y="91.6" /><rect fill="white" height="4.0" stroke="black" stroke-width="0.5" width="4.0" x="23.0" y="93.0" /><rect fill="white" height="4.4" stroke="black" stroke-width="0.5" width="4.4" x="32.8" y="92.8" /><rect fill="white" height="4.3" stroke="black" stroke-width="0.5" width="4.3" x="42.9" y="92.9" /><rect fill="white" height="6.3" stroke="black" stroke-width="0.5" width="6.3" x="51.8" y="91.8" /><rect fill="white" height="4.0" stroke="black" stroke-width="0.5" width="4.0" x="63.0" y="93.0" /><rect fill="white" height="6.3" stroke="black" stroke-width="0.5" width="6.3" x="71.9" y="91.9" /><rect fill="white" height="5.1" stroke="black" stroke-width="0.5" width="5.1" x="82.4" y="92.4" /><rect fill="white" height="8.0" stroke="black" stroke-width="0.5" width="8.0" x="91.0" y="91.0" /></g><g /></svg>