<?xml version="1.0" encoding="utf-8" ?>
<svg baseProfile="full" preserveAspectRatio="xMidYMid meet" version="1.1" viewBox="0,0,11,7" xmlns="http://www.w3.org/2000/svg" xmlns:ev="http://www.w3.org/2001/xml-events" xmlns:xlink="http://www.w3.org/1999/xlink"><defs><style type="text/css"><![CDATA[
            * {
                stroke-width: 0.1;
            }
        ]]></style></defs><g transform="translate(1,1)"><rect fill="black" height="0.8" width="0.8" x="-0.4" y="-0.4" /><rect fill="black" height="0.0" width="0.0" x="1.0" y="0.0" /><rect fill="black" height="0.0" width="0.0" x="2.0" y="0.0" /><rect fill="black" height="0.8" width="0.8" x="2.6" y="-0.4" /><rect fill="black" height="0.0" width="0.0" x="4.0" y="0.0" /><rect fill="black" height="0.0" width="0.0" x="5.0" y="0.0" /><rect fill="black" height="0.8" width="0.8" x="5.6" y="-0.4" /><rect fill="black" height="0.8" width="0.8" x="6.6" y="-0.4" /><rect fill="black" height="0.8" width="0.8" x="7.6" y="-0.4" /><rect fill="black" height="0.0" width="0.0" x="9.0" y="0.0" /><rect fill="black" height="0.0" width="0.0" x="0.0" y="1.0" /><rect fill="black" height="0.0" width="0.0" x="1.0" y="1.0" /><rect fill="black" height="0.0" width="0.0" x="2.0" y="1.0" /><rect fill="black" height="0.0" width="0.0" x="3.0" y="1.0" /><rect fill="black" height="0.0" width="0.0" x="4.0" y="1.0" /><rect fill="black" height="0.0" width="0.0" x="5.0" y="1.0" /><rect fill="black" height="0.0" width="0.0" x="6.0" y="1.0" /><rect fill="black" height="0.0" width="0.0" x="7.0" y="1.0" /><rect fill="black" height="0.0" width="0.0" x="8.0" y="1.0" /><rect fill="black" height="0.0" width="0.0" x="9.0" y="1.0" /><rect fill="black" height="0.8" width="0.8" x="-0.4" y="1.6" /><rect fill="black" height="0.0" width="0.0" x="1.0" y="2.0" /><rect fill="black" height="0.8" width="0.8" x="1.6" y="1.6" /><rect fill="black" height="0.8" width="0.8" x="2.6" y="1.6" /><rect fill="black" height="0.8" width="0.8" x="3.6" y="1.6" /><rect fill="black" height="0.0" width="0.0" x="5.0" y="2.0" /><rect fill="black" height="0.0" width="0.0" x="6.0" y="2.0" /><rect fill="black" height="0.8" width="0.8" x="6.6" y="1.6" /><rect fill="black" height="0.8" width="0.8" x="7.6" y="1.6" /><rect fill="black" height="0.8" width="0.8" x="8.6" y="1.6" /><rect fill="black" height="0.0" width="0.0" x="0.0" y="3.0" /><rect fill="black" height="0.0" width="0.0" x="1.0" y="3.0" /><rect fill="black" height="0.0" width="0.0" x="2.0" y="3.0" /><rect fill="black" height="0.0" width="0.0" x="3.0" y="3.0" /><rect fill="black" height="0.0" width="0.0" x="4.0" y="3.0" /><rect fill="black" height="0.0" width="0.0" x="5.0" y="3.0" /><rect fill="black" height="0.0" width="0.0" x="6.0" y="3.0" /><rect fill="black" height="0.0" width="0.0" x="7.0" y="3.0" /><rect fill="black" height="0.0" width="0.0" x="8.0" y="3.0" /><rect fill="black" height="0.0" width="0.0" x="9.0" y="3.0" /><rect fill="black" height="0.8" width="0.8" x="-0.4" y="3.6" /><rect fill="black" height="0.0" width="0.0" x="1.0" y="4.0" /><rect fill="black" height="0.0" width="0.0" x="2.0" y="4.0" /><rect fill="black" height="0.8" width="0.8" x="2.6" y="3.6" /><rect fill="black" height="0.0" width="0.0" x="4.0" y="4.0" /><rect fill="black" height="0.8" width="0.8" x="4.6" y="3.6" /><rect fill="black" height="0.8" width="0.8" x="5.6" y="3.6" /><rect fill="black" height="0.8" width="0.8" x="6.6" y="3.6" /><rect fill="black" height="0.8" width="0.8" x="7.6" y="3.6" /><rect fill="black" height="0.8" width="0.8" x="8.6" y="3.6" /><rect fill="black" height="0.0" width="0.0" x="0.0" y="5.0" /><rect fill="black" height="0.0" width="0.0" x="1.0" y="5.0" /><rect fill="black" height="0.0" width="0.0" x="2.0" y="5.0" /><rect fill="black" height="0.0" width="0.0" x="3.0" y="5.0" /><rect fill="black" height="0.0" width="0.0" x="4.0" y="5.0" /><rect fill="black" height="0.0" width="0.0" x="5.0" y="5.0" /><rect fill="black" height="0.0" width="0.0" x="6.0" y="5.0" /><rect fill="black" height="0.0" width="0.0" x="7.0" y="5.0" /><rect fill="black" height="0.0" width="0.0" x="8.0" y="5.0" /><rect fill="black" height="0.0" width="0.0" x="9.0" y="5.0" /></g></svg>