<?xml version="1.0" encoding="utf-8" ?>
<svg baseProfile="full" preserveAspectRatio="xMidYMid meet" version="1.1" viewBox="0,0,34,11" xmlns="http://www.w3.org/2000/svg" xmlns:ev="http://www.w3.org/2001/xml-events" xmlns:xlink="http://www.w3.org/1999/xlink"><defs><style type="text/css"><![CDATA[
            * {
                stroke-width: 0.1;
            }
        ]]></style></defs><g transform="translate(1,1)"><rect fill="black" height="0.221" width="0.221" x="-0.1105" y="-0.1105" /><rect fill="black" height="0.221" width="0.221" x="0.8895" y="-0.1105" /><rect fill="black" height="0.216" width="0.216" x="1.892" y="-0.108" /><rect fill="black" height="0.213" width="0.213" x="2.8935" y="-0.1065" /><rect fill="black" height="0.207" width="0.207" x="3.8965" y="-0.1035" /><rect fill="black" height="0.196" width="0.196" x="4.902" y="-0.098" /><rect fill="black" height="0.201" width="0.201" x="5.8995" y="-0.1005" /><rect fill="black" height="0.208" width="0.208" x="6.896" y="-0.104" /><rect fill="black" height="0.213" width="0.213" x="7.8935" y="-0.1065" /><rect fill="black" height="0.222" width="0.222" x="8.889" y="-0.111" /><rect fill="black" height="0.224" width="0.224" x="9.888" y="-0.112" /><rect fill="black" height="0.226" width="0.226" x="10.887" y="-0.113" /><rect fill="black" height="0.227" width="0.227" x="11.8865" y="-0.1135" /><rect fill="black" height="0.225" width="0.225" x="12.8875" y="-0.1125" /><rect fill="black" height="0.229" width="0.229" x="13.8855" y="-0.1145" /><rect fill="black" height="0.233" width="0.233" x="14.8835" y="-0.1165" /><rect fill="black" height="0.242" width="0.242" x="15.879" y="-0.121" /><rect fill="black" height="0.251" width="0.251" x="16.8745" y="-0.1255" /><rect fill="black" height="0.247" width="0.247" x="17.8765" y="-0.1235" /><rect fill="black" height="0.27" width="0.27" x="18.865" y="-0.135" /><rect fill="black" height="0.284" width="0.284" x="19.858" y="-0.142" /><rect fill="black" height="0.282" width="0.282" x="20.859" y="-0.141" /><rect fill="black" height="0.287" width="0.287" x="21.8565" y="-0.1435" /><rect fill="black" height="0.298" width="0.298" x="22.851" y="-0.149" /><rect fill="black" height="0.289" width="0.289" x="23.8555" y="-0.1445" /><rect fill="black" height="0.296" width="0.296" x="24.852" y="-0.148" /><rect fill="black" height="0.302" width="0.302" x="25.849" y="-0.151" /><rect fill="black" height="0.291" width="0.291" x="26.8545" y="-0.1455" /><rect fill="black" height="0.297" width="0.297" x="27.8515" y="-0.1485" /><rect fill="black" height="0.294" width="0.294" x="28.853" y="-0.147" /><rect fill="black" height="0.294" width="0.294" x="29.853" y="-0.147" /><rect fill="black" height="0.3" width="0.3" x="30.85" y="-0.15" /><rect fill="black" height="0.318" width="0.318" x="31.841" y="-0.159" /><rect fill="black" height="1.0" width="1.0" x="-0.5" y="0.5" /><rect fill="black" height="0.968" width="0.968" x="0.516" y="0.516" /><rect fill="black" height="0.966" width="0.966" x="1.517" y="0.517" /><rect fill="black" height="0.951" width="0.951" x="2.5245" y="0.5245" /><rect fill="black" height="0.92" width="0.92" x="3.54" y="0.54" /><rect fill="black" height="0.926" width="0.926" x="4.537" y="0.5369999999999999" /><rect fill="black" height="0.903" width="0.903" x="5.5485" y="0.5485" /><rect fill="black" height="0.902" width="0.902" x="6.549" y="0.5489999999999999" /><rect fill="black" height="0.877" width="0.877" x="7.5615" y="0.5615" /><rect fill="black" height="0.846" width="0.846" x="8.577" y="0.577" /><rect fill="black" height="0.824" width="0.824" x="9.588" y="0.5880000000000001" /><rect fill="black" height="0.796" width="0.796" x="10.602" y="0.602" /><rect fill="black" height="0.774" width="0.774" x="11.613" y="0.613" /><rect fill="black" height="0.759" width="0.759" x="12.6205" y="0.6205" /><rect fill="black" height="0.755" width="0.755" x="13.6225" y="0.6225" /><rect fill="black" height="0.757" width="0.757" x="14.6215" y="0.6214999999999999" /><rect fill="black" height="0.775" width="0.775" x="15.6125" y="0.6125" /><rect fill="black" height="0.764" width="0.764" x="16.618" y="0.618" /><rect fill="black" height="0.692" width="0.692" x="17.654" y="0.654" /><rect fill="black" height="0.676" width="0.676" x="18.662" y="0.6619999999999999" /><rect fill="black" height="0.652" width="0.652" x="19.674" y="0.6739999999999999" /><rect fill="black" height="0.631" width="0.631" x="20.6845" y="0.6845" /><rect fill="black" height="0.604" width="0.604" x="21.698" y="0.698" /><rect fill="black" height="0.583" width="0.583" x="22.7085" y="0.7085" /><rect fill="black" height="0.543" width="0.543" x="23.7285" y="0.7284999999999999" /><rect fill="black" height="0.516" width="0.516" x="24.742" y="0.742" /><rect fill="black" height="0.509" width="0.509" x="25.7455" y="0.7455" /><rect fill="black" height="0.476" width="0.476" x="26.762" y="0.762" /><rect fill="black" height="0.47" width="0.47" x="27.765" y="0.765" /><rect fill="black" height="0.467" width="0.467" x="28.7665" y="0.7665" /><rect fill="black" height="0.446" width="0.446" x="29.777" y="0.777" /><rect fill="black" height="0.437" width="0.437" x="30.7815" y="0.7815" /><rect fill="black" height="0.453" width="0.453" x="31.7735" y="0.7735" /><rect fill="black" height="0.597" width="0.597" x="-0.2985" y="1.7015" /><rect fill="black" height="0.577" width="0.577" x="0.7115" y="1.7115" /><rect fill="black" height="0.575" width="0.575" x="1.7125" y="1.7125" /><rect fill="black" height="0.564" width="0.564" x="2.718" y="1.718" /><rect fill="black" height="0.581" width="0.581" x="3.7095000000000002" y="1.7095" /><rect fill="black" height="0.594" width="0.594" x="4.703" y="1.703" /><rect fill="black" height="0.61" width="0.61" x="5.695" y="1.695" /><rect fill="black" height="0.615" width="0.615" x="6.6925" y="1.6925" /><rect fill="black" height="0.617" width="0.617" x="7.6915" y="1.6915" /><rect fill="black" height="0.618" width="0.618" x="8.691" y="1.691" /><rect fill="black" height="0.608" width="0.608" x="9.696" y="1.696" /><rect fill="black" height="0.596" width="0.596" x="10.702" y="1.702" /><rect fill="black" height="0.583" width="0.583" x="11.7085" y="1.7085" /><rect fill="black" height="0.581" width="0.581" x="12.7095" y="1.7095" /><rect fill="black" height="0.603" width="0.603" x="13.6985" y="1.6985000000000001" /><rect fill="black" height="0.61" width="0.61" x="14.695" y="1.695" /><rect fill="black" height="0.611" width="0.611" x="15.6945" y="1.6945000000000001" /><rect fill="black" height="0.603" width="0.603" x="16.6985" y="1.6985000000000001" /><rect fill="black" height="0.598" width="0.598" x="17.701" y="1.701" /><rect fill="black" height="0.585" width="0.585" x="18.7075" y="1.7075" /><rect fill="black" height="0.594" width="0.594" x="19.703" y="1.703" /><rect fill="black" height="0.592" width="0.592" x="20.704" y="1.704" /><rect fill="black" height="0.58" width="0.58" x="21.71" y="1.71" /><rect fill="black" height="0.576" width="0.576" x="22.712" y="1.712" /><rect fill="black" height="0.59" width="0.59" x="23.705" y="1.705" /><rect fill="black" height="0.586" width="0.586" x="24.707" y="1.707" /><rect fill="black" height="0.571" width="0.571" x="25.7145" y="1.7145000000000001" /><rect fill="black" height="0.598" width="0.598" x="26.701" y="1.701" /><rect fill="black" height="0.597" width="0.597" x="27.7015" y="1.7015" /><rect fill="black" height="0.576" width="0.576" x="28.712" y="1.712" /><rect fill="black" height="0.577" width="0.577" x="29.7115" y="1.7115" /><rect fill="black" height="0.568" width="0.568" x="30.716" y="1.716" /><rect fill="black" height="0.579" width="0.579" x="31.7105" y="1.7105000000000001" /><rect fill="black" height="0.222" width="0.222" x="-0.111" y="2.889" /><rect fill="black" height="0.222" width="0.222" x="0.889" y="2.889" /><rect fill="black" height="0.23" width="0.23" x="1.885" y="2.885" /><rect fill="black" height="0.226" width="0.226" x="2.887" y="2.887" /><rect fill="black" height="0.218" width="0.218" x="3.891" y="2.891" /><rect fill="black" height="0.216" width="0.216" x="4.892" y="2.892" /><rect fill="black" height="0.223" width="0.223" x="5.8885" y="2.8885" /><rect fill="black" height="0.211" width="0.211" x="6.8945" y="2.8945" /><rect fill="black" height="0.21" width="0.21" x="7.895" y="2.895" /><rect fill="black" height="0.202" width="0.202" x="8.899" y="2.899" /><rect fill="black" height="0.201" width="0.201" x="9.8995" y="2.8995" /><rect fill="black" height="0.207" width="0.207" x="10.8965" y="2.8965" /><rect fill="black" height="0.207" width="0.207" x="11.8965" y="2.8965" /><rect fill="black" height="0.211" width="0.211" x="12.8945" y="2.8945" /><rect fill="black" height="0.219" width="0.219" x="13.8905" y="2.8905" /><rect fill="black" height="0.224" width="0.224" x="14.888" y="2.888" /><rect fill="black" height="0.228" width="0.228" x="15.886" y="2.886" /><rect fill="black" height="0.23" width="0.23" x="16.885" y="2.885" /><rect fill="black" height="0.24" width="0.24" x="17.88" y="2.88" /><rect fill="black" height="0.233" width="0.233" x="18.8835" y="2.8835" /><rect fill="black" height="0.264" width="0.264" x="19.868" y="2.868" /><rect fill="black" height="0.266" width="0.266" x="20.867" y="2.867" /><rect fill="black" height="0.277" width="0.277" x="21.8615" y="2.8615" /><rect fill="black" height="0.291" width="0.291" x="22.8545" y="2.8545" /><rect fill="black" height="0.312" width="0.312" x="23.844" y="2.844" /><rect fill="black" height="0.333" width="0.333" x="24.8335" y="2.8335" /><rect fill="black" height="0.342" width="0.342" x="25.829" y="2.829" /><rect fill="black" height="0.361" width="0.361" x="26.8195" y="2.8195" /><rect fill="black" height="0.388" width="0.388" x="27.806" y="2.806" /><rect fill="black" height="0.381" width="0.381" x="28.8095" y="2.8095" /><rect fill="black" height="0.399" width="0.399" x="29.8005" y="2.8005" /><rect fill="black" height="0.393" width="0.393" x="30.8035" y="2.8035" /><rect fill="black" height="0.399" width="0.399" x="31.8005" y="2.8005" /><rect fill="black" height="0.633" width="0.633" x="-0.3165" y="3.6835" /><rect fill="black" height="0.628" width="0.628" x="0.6859999999999999" y="3.686" /><rect fill="black" height="0.64" width="0.64" x="1.68" y="3.68" /><rect fill="black" height="0.613" width="0.613" x="2.6935000000000002" y="3.6935000000000002" /><rect fill="black" height="0.624" width="0.624" x="3.688" y="3.688" /><rect fill="black" height="0.613" width="0.613" x="4.6935" y="3.6935000000000002" /><rect fill="black" height="0.608" width="0.608" x="5.696" y="3.696" /><rect fill="black" height="0.607" width="0.607" x="6.6965" y="3.6965" /><rect fill="black" height="0.615" width="0.615" x="7.6925" y="3.6925" /><rect fill="black" height="0.609" width="0.609" x="8.6955" y="3.6955" /><rect fill="black" height="0.61" width="0.61" x="9.695" y="3.695" /><rect fill="black" height="0.61" width="0.61" x="10.695" y="3.695" /><rect fill="black" height="0.596" width="0.596" x="11.702" y="3.702" /><rect fill="black" height="0.58" width="0.58" x="12.71" y="3.71" /><rect fill="black" height="0.579" width="0.579" x="13.7105" y="3.7105" /><rect fill="black" height="0.584" width="0.584" x="14.708" y="3.708" /><rect fill="black" height="0.575" width="0.575" x="15.7125" y="3.7125" /><rect fill="black" height="0.58" width="0.58" x="16.71" y="3.71" /><rect fill="black" height="0.566" width="0.566" x="17.717" y="3.717" /><rect fill="black" height="0.544" width="0.544" x="18.728" y="3.7279999999999998" /><rect fill="black" height="0.528" width="0.528" x="19.736" y="3.7359999999999998" /><rect fill="black" height="0.538" width="0.538" x="20.731" y="3.731" /><rect fill="black" height="0.524" width="0.524" x="21.738" y="3.738" /><rect fill="black" height="0.495" width="0.495" x="22.7525" y="3.7525" /><rect fill="black" height="0.507" width="0.507" x="23.7465" y="3.7465" /><rect fill="black" height="0.478" width="0.478" x="24.761" y="3.761" /><rect fill="black" height="0.453" width="0.453" x="25.7735" y="3.7735" /><rect fill="black" height="0.473" width="0.473" x="26.7635" y="3.7635" /><rect fill="black" height="0.466" width="0.466" x="27.767" y="3.767" /><rect fill="black" height="0.485" width="0.485" x="28.7575" y="3.7575" /><rect fill="black" height="0.49" width="0.49" x="29.755" y="3.755" /><rect fill="black" height="0.507" width="0.507" x="30.7465" y="3.7465" /><rect fill="black" height="0.499" width="0.499" x="31.7505" y="3.7505" /><rect fill="black" height="0.511" width="0.511" x="-0.2555" y="4.7445" /><rect fill="black" height="0.514" width="0.514" x="0.743" y="4.743" /><rect fill="black" height="0.535" width="0.535" x="1.7325" y="4.7325" /><rect fill="black" height="0.534" width="0.534" x="2.733" y="4.733" /><rect fill="black" height="0.536" width="0.536" x="3.732" y="4.732" /><rect fill="black" height="0.533" width="0.533" x="4.7335" y="4.7335" /><rect fill="black" height="0.563" width="0.563" x="5.7185" y="4.7185" /><rect fill="black" height="0.596" width="0.596" x="6.702" y="4.702" /><rect fill="black" height="0.603" width="0.603" x="7.6985" y="4.6985" /><rect fill="black" height="0.599" width="0.599" x="8.7005" y="4.7005" /><rect fill="black" height="0.591" width="0.591" x="9.7045" y="4.7045" /><rect fill="black" height="0.606" width="0.606" x="10.697" y="4.697" /><rect fill="black" height="0.617" width="0.617" x="11.6915" y="4.6915" /><rect fill="black" height="0.622" width="0.622" x="12.689" y="4.689" /><rect fill="black" height="0.662" width="0.662" x="13.669" y="4.669" /><rect fill="black" height="0.669" width="0.669" x="14.6655" y="4.6655" /><rect fill="black" height="0.694" width="0.694" x="15.653" y="4.6530000000000005" /><rect fill="black" height="0.676" width="0.676" x="16.662" y="4.662" /><rect fill="black" height="0.689" width="0.689" x="17.6555" y="4.6555" /><rect fill="black" height="0.692" width="0.692" x="18.654" y="4.654" /><rect fill="black" height="0.7" width="0.7" x="19.65" y="4.65" /><rect fill="black" height="0.707" width="0.707" x="20.6465" y="4.6465" /><rect fill="black" height="0.703" width="0.703" x="21.6485" y="4.6485" /><rect fill="black" height="0.721" width="0.721" x="22.6395" y="4.6395" /><rect fill="black" height="0.729" width="0.729" x="23.6355" y="4.6355" /><rect fill="black" height="0.707" width="0.707" x="24.6465" y="4.6465" /><rect fill="black" height="0.712" width="0.712" x="25.644" y="4.644" /><rect fill="black" height="0.721" width="0.721" x="26.6395" y="4.6395" /><rect fill="black" height="0.705" width="0.705" x="27.6475" y="4.6475" /><rect fill="black" height="0.712" width="0.712" x="28.644" y="4.644" /><rect fill="black" height="0.757" width="0.757" x="29.6215" y="4.6215" /><rect fill="black" height="0.762" width="0.762" x="30.619" y="4.619" /><rect fill="black" height="0.757" width="0.757" x="31.6215" y="4.6215" /><rect fill="black" height="0.472" width="0.472" x="-0.236" y="5.764" /><rect fill="black" height="0.468" width="0.468" x="0.766" y="5.766" /><rect fill="black" height="0.467" width="0.467" x="1.7665" y="5.7665" /><rect fill="black" height="0.468" width="0.468" x="2.766" y="5.766" /><rect fill="black" height="0.443" width="0.443" x="3.7785" y="5.7785" /><rect fill="black" height="0.434" width="0.434" x="4.783" y="5.783" /><rect fill="black" height="0.394" width="0.394" x="5.803" y="5.803" /><rect fill="black" height="0.413" width="0.413" x="6.7935" y="5.7935" /><rect fill="black" height="0.417" width="0.417" x="7.7915" y="5.7915" /><rect fill="black" height="0.413" width="0.413" x="8.7935" y="5.7935" /><rect fill="black" height="0.407" width="0.407" x="9.7965" y="5.7965" /><rect fill="black" height="0.408" width="0.408" x="10.796" y="5.796" /><rect fill="black" height="0.424" width="0.424" x="11.788" y="5.788" /><rect fill="black" height="0.409" width="0.409" x="12.7955" y="5.7955" /><rect fill="black" height="0.403" width="0.403" x="13.7985" y="5.7985" /><rect fill="black" height="0.391" width="0.391" x="14.8045" y="5.8045" /><rect fill="black" height="0.399" width="0.399" x="15.8005" y="5.8004999999999995" /><rect fill="black" height="0.39" width="0.39" x="16.805" y="5.805" /><rect fill="black" height="0.39" width="0.39" x="17.805" y="5.805" /><rect fill="black" height="0.412" width="0.412" x="18.794" y="5.794" /><rect fill="black" height="0.436" width="0.436" x="19.782" y="5.782" /><rect fill="black" height="0.44" width="0.44" x="20.78" y="5.78" /><rect fill="black" height="0.453" width="0.453" x="21.7735" y="5.7735" /><rect fill="black" height="0.466" width="0.466" x="22.767" y="5.767" /><rect fill="black" height="0.473" width="0.473" x="23.7635" y="5.7635" /><rect fill="black" height="0.49" width="0.49" x="24.755" y="5.755" /><rect fill="black" height="0.487" width="0.487" x="25.7565" y="5.7565" /><rect fill="black" height="0.504" width="0.504" x="26.748" y="5.748" /><rect fill="black" height="0.504" width="0.504" x="27.748" y="5.748" /><rect fill="black" height="0.504" width="0.504" x="28.748" y="5.748" /><rect fill="black" height="0.521" width="0.521" x="29.7395" y="5.7395" /><rect fill="black" height="0.524" width="0.524" x="30.738" y="5.7379999999999995" /><rect fill="black" height="0.506" width="0.506" x="31.747" y="5.747" /><rect fill="black" height="0.214" width="0.214" x="-0.107" y="6.893" /><rect fill="black" height="0.216" width="0.216" x="0.892" y="6.892" /><rect fill="black" height="0.227" width="0.227" x="1.8865" y="6.8865" /><rect fill="black" height="0.226" width="0.226" x="2.887" y="6.887" /><rect fill="black" height="0.223" width="0.223" x="3.8885" y="6.8885" /><rect fill="black" height="0.225" width="0.225" x="4.8875" y="6.8875" /><rect fill="black" height="0.219" width="0.219" x="5.8905" y="6.8905" /><rect fill="black" height="0.212" width="0.212" x="6.894" y="6.894" /><rect fill="black" height="0.214" width="0.214" x="7.893" y="6.893" /><rect fill="black" height="0.225" width="0.225" x="8.8875" y="6.8875" /><rect fill="black" height="0.224" width="0.224" x="9.888" y="6.888" /><rect fill="black" height="0.227" width="0.227" x="10.8865" y="6.8865" /><rect fill="black" height="0.23" width="0.23" x="11.885" y="6.885" /><rect fill="black" height="0.244" width="0.244" x="12.878" y="6.878" /><rect fill="black" height="0.247" width="0.247" x="13.8765" y="6.8765" /><rect fill="black" height="0.245" width="0.245" x="14.8775" y="6.8775" /><rect fill="black" height="0.262" width="0.262" x="15.869" y="6.869" /><rect fill="black" height="0.275" width="0.275" x="16.8625" y="6.8625" /><rect fill="black" height="0.289" width="0.289" x="17.8555" y="6.8555" /><rect fill="black" height="0.293" width="0.293" x="18.8535" y="6.8535" /><rect fill="black" height="0.297" width="0.297" x="19.8515" y="6.8515" /><rect fill="black" height="0.297" width="0.297" x="20.8515" y="6.8515" /><rect fill="black" height="0.311" width="0.311" x="21.8445" y="6.8445" /><rect fill="black" height="0.313" width="0.313" x="22.8435" y="6.8435" /><rect fill="black" height="0.316" width="0.316" x="23.842" y="6.842" /><rect fill="black" height="0.321" width="0.321" x="24.8395" y="6.8395" /><rect fill="black" height="0.341" width="0.341" x="25.8295" y="6.8295" /><rect fill="black" height="0.352" width="0.352" x="26.824" y="6.824" /><rect fill="black" height="0.358" width="0.358" x="27.821" y="6.821" /><rect fill="black" height="0.373" width="0.373" x="28.8135" y="6.8135" /><rect fill="black" height="0.387" width="0.387" x="29.8065" y="6.8065" /><rect fill="black" height="0.389" width="0.389" x="30.8055" y="6.8055" /><rect fill="black" height="0.419" width="0.419" x="31.7905" y="6.7905" /><rect fill="black" height="0.225" width="0.225" x="-0.1125" y="7.8875" /><rect fill="black" height="0.232" width="0.232" x="0.884" y="7.884" /><rect fill="black" height="0.234" width="0.234" x="1.883" y="7.883" /><rect fill="black" height="0.228" width="0.228" x="2.886" y="7.886" /><rect fill="black" height="0.228" width="0.228" x="3.886" y="7.886" /><rect fill="black" height="0.23" width="0.23" x="4.885" y="7.885" /><rect fill="black" height="0.227" width="0.227" x="5.8865" y="7.8865" /><rect fill="black" height="0.242" width="0.242" x="6.879" y="7.879" /><rect fill="black" height="0.248" width="0.248" x="7.876" y="7.876" /><rect fill="black" height="0.259" width="0.259" x="8.8705" y="7.8705" /><rect fill="black" height="0.268" width="0.268" x="9.866" y="7.866" /><rect fill="black" height="0.268" width="0.268" x="10.866" y="7.866" /><rect fill="black" height="0.274" width="0.274" x="11.863" y="7.8629999999999995" /><rect fill="black" height="0.28" width="0.28" x="12.86" y="7.86" /><rect fill="black" height="0.28" width="0.28" x="13.86" y="7.86" /><rect fill="black" height="0.293" width="0.293" x="14.8535" y="7.8535" /><rect fill="black" height="0.303" width="0.303" x="15.8485" y="7.8485" /><rect fill="black" height="0.302" width="0.302" x="16.849" y="7.849" /><rect fill="black" height="0.297" width="0.297" x="17.8515" y="7.8515" /><rect fill="black" height="0.32" width="0.32" x="18.84" y="7.84" /><rect fill="black" height="0.326" width="0.326" x="19.837" y="7.837" /><rect fill="black" height="0.343" width="0.343" x="20.8285" y="7.8285" /><rect fill="black" height="0.353" width="0.353" x="21.8235" y="7.8235" /><rect fill="black" height="0.349" width="0.349" x="22.8255" y="7.8255" /><rect fill="black" height="0.347" width="0.347" x="23.8265" y="7.8265" /><rect fill="black" height="0.336" width="0.336" x="24.832" y="7.832" /><rect fill="black" height="0.35" width="0.35" x="25.825" y="7.825" /><rect fill="black" height="0.357" width="0.357" x="26.8215" y="7.8215" /><rect fill="black" height="0.36" width="0.36" x="27.82" y="7.82" /><rect fill="black" height="0.362" width="0.362" x="28.819" y="7.819" /><rect fill="black" height="0.372" width="0.372" x="29.814" y="7.814" /><rect fill="black" height="0.38" width="0.38" x="30.81" y="7.81" /><rect fill="black" height="0.391" width="0.391" x="31.8045" y="7.8045" /><rect fill="black" height="0.22" width="0.22" x="-0.11" y="8.89" /><rect fill="black" height="0.208" width="0.208" x="0.896" y="8.896" /><rect fill="black" height="0.208" width="0.208" x="1.896" y="8.896" /><rect fill="black" height="0.195" width="0.195" x="2.9025" y="8.9025" /><rect fill="black" height="0.189" width="0.189" x="3.9055" y="8.9055" /><rect fill="black" height="0.186" width="0.186" x="4.907" y="8.907" /><rect fill="black" height="0.181" width="0.181" x="5.9095" y="8.9095" /><rect fill="black" height="0.17" width="0.17" x="6.915" y="8.915" /><rect fill="black" height="0.173" width="0.173" x="7.9135" y="8.9135" /><rect fill="black" height="0.174" width="0.174" x="8.913" y="8.913" /><rect fill="black" height="0.181" width="0.181" x="9.9095" y="8.9095" /><rect fill="black" height="0.185" width="0.185" x="10.9075" y="8.9075" /><rect fill="black" height="0.178" width="0.178" x="11.911" y="8.911" /><rect fill="black" height="0.178" width="0.178" x="12.911" y="8.911" /><rect fill="black" height="0.17" width="0.17" x="13.915" y="8.915" /><rect fill="black" height="0.17" width="0.17" x="14.915" y="8.915" /><rect fill="black" height="0.168" width="0.168" x="15.916" y="8.916" /><rect fill="black" height="0.164" width="0.164" x="16.918" y="8.918" /><rect fill="black" height="0.161" width="0.161" x="17.9195" y="8.9195" /><rect fill="black" height="0.164" width="0.164" x="18.918" y="8.918" /><rect fill="black" height="0.166" width="0.166" x="19.917" y="8.917" /><rect fill="black" height="0.178" width="0.178" x="20.911" y="8.911" /><rect fill="black" height="0.18" width="0.18" x="21.91" y="8.91" /><rect fill="black" height="0.195" width="0.195" x="22.9025" y="8.9025" /><rect fill="black" height="0.199" width="0.199" x="23.9005" y="8.9005" /><rect fill="black" height="0.187" width="0.187" x="24.9065" y="8.9065" /><rect fill="black" height="0.204" width="0.204" x="25.898" y="8.898" /><rect fill="black" height="0.217" width="0.217" x="26.8915" y="8.8915" /><rect fill="black" height="0.218" width="0.218" x="27.891" y="8.891" /><rect fill="black" height="0.235" width="0.235" x="28.8825" y="8.8825" /><rect fill="black" height="0.233" width="0.233" x="29.8835" y="8.8835" /><rect fill="black" height="0.237" width="0.237" x="30.8815" y="8.8815" /><rect fill="black" height="0.236" width="0.236" x="31.882" y="8.882" /></g></svg>